# Created by Kenney (www.kenney.nl)

mtllib appleHalf.mtl

g appleHalf

v 0 0.03196 -0.07896
v 0.05583315 0.03196 -0.05583315
v 0 0.098664 -0.09814728
v 0.06940061 0.098664 -0.06940061
v 0.06940061 0.098664 0.06940061
v 0.09814728 0.098664 0
v 0.05583315 0.03196 0.05583315
v 0.07896 0.03196 -3.609557E-16
v 0 0 -0.044744
v 0 0 0.044744
v 0.03163878 0 -0.03163878
v 0.03163878 0 0.03163878
v 0.044744 0 -7.219114E-16
v 0.04357664 0.157016 -0.04357664
v 0.06315455 0.134232 -0.06315455
v 0.06162668 0.157016 -3.609557E-16
v 0.08931402 0.134232 0
v 0 0.157016 0.0403565
v 0 0.147016 0.02623173
v 0.02853636 0.157016 0.02853636
v 0.01854863 0.147016 0.01854863
v 0 0.147016 -0.02623173
v 0 0.157016 -0.0403565
v 0.01854863 0.147016 -0.01854863
v 0.02853636 0.157016 -0.02853636
v 0 0.157016 0.06162668
v 0.04357664 0.157016 0.04357664
v 0.0403565 0.157016 0
v 0 0.157016 -0.06162668
v 0 0.03196 0.07896
v 0 0.098664 0.09814728
v 0.06315455 0.134232 0.06315455
v 0 0.134232 0.08931402
v 0.02623173 0.147016 -3.609557E-16
v 0 0.134232 -0.08931402
v 0 0.147016 0.005381376
v 0.005381376 0.147016 0.005381376
v 0.005381376 0.147016 -0.005381376
v 0 0.147016 -0.005381376
v 0 0.09898003 0.0809091
v 0 0.1248724 0.07447878
v 0 0.1403622 0.05565538
v 0 0.1403622 0.04565501
v 0 0.1303622 0.03153023
v 0 0.1203622 -3.609557E-16
v 0 0.1303622 -0.03153023
v 0 0.1403622 -0.04565501
v 0 0.1403622 -0.05565538
v 0 0.1248724 -0.07447878
v 0 0.09898003 -0.0809091
v 0 0.04098796 -0.06422778
v 0 0.0166538 -0.03817592
v 0 0.0266538 -1.443823E-15
v 0 0.0166538 0.03817592
v 0 0.04098796 0.06422778
v 0 0.1907534 -0.0096096
v 0.0096096 0.1907534 -0.0096096
v 0.0096096 0.1907534 0.0096096
v 0 0.1907534 0.0096096
v 0 0.07215909 0.02483564
v 0 0.0695709 0.01517638
v 0 0.08888941 0.01
v 0 0.08888941 -0.01
v 0 0.09018351 -0.01482963
v 0 0.07215909 -0.02483564
v 0 0.0695709 -0.01517638
v 0 0.09018351 0.01482963

vn 0.3698462 -0.2568375 -0.8928877
vn 0.8928877 -0.2568375 0.3698462
vn 0 -1 0
vn 0.2720776 -0.7032194 -0.6568533
vn 0.6144913 0.746736 -0.2545306
vn 0.6568533 -0.7032194 -0.2720776
vn -0.2327679 0.793744 -0.5619516
vn -0.2327679 0.793744 0.5619516
vn 0 1 0
vn 0.3698462 -0.2568375 0.8928877
vn 0.2720776 -0.7032194 0.6568533
vn 0.3729914 0.223633 0.9004808
vn 0.9004808 0.223633 -0.3729914
vn -0.5619516 0.793744 0.2327679
vn -0.5619516 0.793744 -0.2327679
vn 0.8928877 -0.2568375 -0.3698462
vn 0.2545306 0.746736 -0.6144913
vn 0.2545306 0.746736 0.6144913
vn 0.6568533 -0.7032194 0.2720776
vn 0.3729914 0.223633 -0.9004808
vn 0.6144913 0.746736 0.2545306
vn 0.9004808 0.223633 0.3729914
vn -1 0 0
vn 0 -0.09622436 -0.9953597
vn 0 -0.09622436 0.9953597
vn 0.9953597 -0.09622436 0

vt 1.189633 1.953703
vt -1.189633 1.953703
vt 1.478714 4.670998
vt -1.478714 4.670998
vt 0 1.761575
vt 0 -1.761575
vt -1.245621 1.245621
vt -1.245621 -1.245621
vt -1.761575 2.842171E-14
vt 1.189633 2.914261
vt 0.6741255 1.144478
vt -1.189633 2.914261
vt -0.6741255 1.144478
vt 0.9284846 2.437743
vt 1.34563 1.089104
vt -0.9284846 2.437743
vt -1.34563 1.089104
vt 0.6080222 4.925184
vt 0.3952144 4.277918
vt -0.6080222 4.925184
vt -0.3952144 4.277918
vt 0 -2.426247
vt 0 -1.588839
vt 1.715616 -1.715616
vt 1.123479 -1.123479
vt 1.588839 0
vt 1.715616 1.715616
vt 1.123479 1.123479
vt 0 2.426247
vt 0 1.588839
vt 2.426247 1.421085E-14
vt 1.478714 2.987676
vt -1.478714 2.987676
vt 1.34563 4.424378
vt -1.34563 4.424378
vt -5.719676E-15 -1.032745
vt -5.719676E-15 -0.2118652
vt 0.730261 -0.730261
vt 0.2118652 -0.2118652
vt 0.2118652 0.2118652
vt 0.730261 0.730261
vt -5.719676E-15 1.032745
vt -5.719676E-15 0.2118652
vt 1.032745 1.324393E-14
vt 3.185398 3.896852
vt 2.932235 4.916235
vt 3.5163 5.284724
vt 2.426247 6.181732
vt 2.191157 5.526071
vt 1.588839 6.181732
vt 1.797441 5.526071
vt 1.241348 5.13237
vt 1.032745 5.788032
vt -1.421085E-14 4.738669
vt 0.2118652 5.788032
vt -0.2118652 5.788032
vt -1.241348 5.13237
vt -1.032745 5.788032
vt -1.588839 6.181732
vt -1.797441 5.526071
vt -2.426247 6.181732
vt -2.191157 5.526071
vt -2.932235 4.916235
vt -3.5163 5.284724
vt -3.185398 3.896852
vt -3.864066 3.884409
vt -3.108661 1.258268
vt -2.528653 1.613699
vt -1.761575 0
vt -1.502989 0.6556615
vt -5.684342E-14 1.049362
vt 1.502989 0.6556615
vt 1.761575 0
vt 2.528653 1.613699
vt 3.108661 1.258268
vt 3.864066 3.884409
vt 5.273936E-17 5.78156
vt -0.2118652 5.78156
vt 9.417744E-17 7.511533
vt -0.3783307 7.511533
vt 0.2118652 5.78156
vt 6.144136E-15 5.78156
vt 0.3783307 7.511533
vt 1.097167E-14 7.511533
vt -1.76306E-14 -0.3783307
vt -1.76306E-14 0.3783307
vt 0.3783307 -0.3783307
vt 0.3783307 0.3783307
vt 0.3783307 7.509977
vt -0.3783307 7.509977
vt 0.9777811 2.840909
vt 0.5974953 2.739012
vt 0.3937008 3.499583
vt -0.3937008 3.499583
vt -0.5838436 3.550532
vt -0.9777811 2.840909
vt -0.5974953 2.739012
vt 0.5838436 3.550532

usemtl red

f 3/3/1 2/2/1 1/1/1
f 2/2/1 3/3/1 4/4/1
f 7/2/2 6/3/2 5/4/2
f 6/3/2 7/2/2 8/1/2
f 11/7/3 10/6/3 9/5/3
f 10/6/3 11/7/3 12/8/3
f 12/8/3 11/7/3 13/9/3
f 2/12/4 9/11/4 1/10/4
f 9/11/4 2/12/4 11/13/4
f 16/16/5 15/15/5 14/14/5
f 15/15/5 16/16/5 17/17/5
f 2/10/6 13/13/6 11/11/6
f 13/13/6 2/10/6 8/12/6
f 20/20/7 19/19/7 18/18/7
f 19/19/7 20/20/7 21/21/7
f 24/19/8 23/20/8 22/21/8
f 23/20/8 24/19/8 25/18/8
f 27/24/9 18/23/9 26/22/9
f 18/23/9 27/24/9 20/25/9
f 20/25/9 27/24/9 28/26/9
f 14/27/9 28/26/9 27/24/9
f 14/27/9 25/28/9 28/26/9
f 29/29/9 25/28/9 14/27/9
f 25/28/9 29/29/9 23/30/9
f 14/27/9 27/24/9 16/31/9
f 5/3/10 30/2/10 7/1/10
f 30/2/10 5/3/10 31/4/10
f 12/11/11 30/12/11 10/13/11
f 30/12/11 12/11/11 7/10/11
f 32/34/12 31/33/12 5/32/12
f 31/33/12 32/34/12 33/35/12
f 4/32/13 17/35/13 6/33/13
f 17/35/13 4/32/13 15/34/13
f 34/19/14 25/20/14 24/21/14
f 25/20/14 34/19/14 28/18/14
f 20/18/15 34/21/15 21/19/15
f 34/21/15 20/18/15 28/20/15
f 8/2/16 4/3/16 6/4/16
f 4/3/16 8/2/16 2/1/16
f 14/16/17 35/15/17 29/14/17
f 35/15/17 14/16/17 15/17/17
f 32/15/18 26/16/18 33/17/18
f 26/16/18 32/15/18 27/14/18
f 13/11/19 7/12/19 12/13/19
f 7/12/19 13/11/19 8/10/19
f 35/34/20 4/33/20 3/32/20
f 4/33/20 35/34/20 15/35/20
f 32/17/21 16/14/21 27/16/21
f 16/14/21 32/17/21 17/15/21
f 6/32/22 32/35/22 5/33/22
f 32/35/22 6/32/22 17/34/22
f 21/38/9 36/37/9 19/36/9
f 36/37/9 21/38/9 37/39/9
f 37/39/9 21/38/9 38/40/9
f 24/41/9 38/40/9 21/38/9
f 22/42/9 38/40/9 24/41/9
f 38/40/9 22/42/9 39/43/9
f 24/41/9 21/38/9 34/44/9
f 33/47/23 41/46/23 40/45/23
f 41/46/23 33/47/23 26/48/23
f 41/46/23 26/48/23 42/49/23
f 42/49/23 26/48/23 18/50/23
f 42/49/23 18/50/23 43/51/23
f 43/51/23 18/50/23 44/52/23
f 44/52/23 18/50/23 19/53/23
f 44/52/23 19/53/23 45/54/23
f 45/54/23 19/53/23 36/55/23
f 45/54/23 36/55/23 39/56/23
f 45/54/23 39/56/23 46/57/23
f 46/57/23 39/56/23 22/58/23
f 46/57/23 22/58/23 23/59/23
f 46/57/23 23/59/23 47/60/23
f 47/60/23 23/59/23 29/61/23
f 47/60/23 29/61/23 48/62/23
f 48/62/23 29/61/23 49/63/23
f 49/63/23 29/61/23 35/64/23
f 49/63/23 35/64/23 50/65/23
f 3/66/23 50/65/23 35/64/23
f 1/67/23 50/65/23 3/66/23
f 1/67/23 51/68/23 50/65/23
f 9/69/23 51/68/23 1/67/23
f 9/69/23 52/70/23 51/68/23
f 9/69/23 53/71/23 52/70/23
f 9/69/23 54/72/23 53/71/23
f 10/73/23 54/72/23 9/69/23
f 10/73/23 55/74/23 54/72/23
f 30/75/23 55/74/23 10/73/23
f 30/75/23 40/45/23 55/74/23
f 30/75/23 33/47/23 40/45/23
f 33/47/23 30/75/23 31/76/23

usemtl brown

f 56/79/24 38/78/24 39/77/24
f 38/78/24 56/79/24 57/80/24
f 58/83/25 36/82/25 37/81/25
f 36/82/25 58/83/25 59/84/25
f 37/78/26 57/83/26 58/80/26
f 57/83/26 37/78/26 38/81/26
f 58/87/9 56/86/9 59/85/9
f 56/86/9 58/87/9 57/88/9
f 56/90/23 36/55/23 59/89/23
f 36/55/23 56/90/23 39/56/23

usemtl brownLight

f 41/46/23 55/74/23 40/45/23
f 55/74/23 41/46/23 42/49/23
f 55/74/23 42/49/23 54/72/23
f 54/72/23 42/49/23 43/51/23
f 54/72/23 43/51/23 44/52/23
f 54/72/23 44/52/23 60/91/23
f 54/72/23 60/91/23 53/71/23
f 53/71/23 60/91/23 61/92/23
f 53/71/23 61/92/23 62/93/23
f 53/71/23 62/93/23 45/54/23
f 45/54/23 60/91/23 44/52/23
f 53/71/23 45/54/23 63/94/23
f 63/94/23 45/54/23 46/57/23
f 63/94/23 46/57/23 64/95/23
f 64/95/23 46/57/23 65/96/23
f 66/97/23 53/71/23 63/94/23
f 53/71/23 66/97/23 52/70/23
f 52/70/23 66/97/23 65/96/23
f 52/70/23 65/96/23 46/57/23
f 52/70/23 46/57/23 47/60/23
f 52/70/23 47/60/23 51/68/23
f 51/68/23 47/60/23 48/62/23
f 51/68/23 48/62/23 49/63/23
f 51/68/23 49/63/23 50/65/23
f 60/91/23 45/54/23 67/98/23
f 67/98/23 45/54/23 62/93/23

usemtl brownDark

f 67/98/23 61/92/23 60/91/23
f 61/92/23 67/98/23 62/93/23
f 64/95/23 66/97/23 63/94/23
f 66/97/23 64/95/23 65/96/23

usemtl _defaultMat

f 37/55/9 39/90/9 36/56/9
f 39/55/9 37/90/9 38/56/9

