# Created by Kenney (www.kenney.nl)

mtllib avocadoHalf.mtl

g avocadoHalf

v 0.02853775 0.09863415 0.01647628
v 0.02853775 0.09863415 -0.01647628
v 0.02009701 0.1160387 0.01160301
v 0.02009701 0.1160387 -0.01160301
v 4.800711E-16 0.054507 0.02320603
v 0.02009701 0.054507 0.01160301
v 4.800711E-16 0.07191152 0.03295256
v 0.02853775 0.07191152 0.01647628
v 4.800711E-16 0.09863415 -0.03295256
v 4.800711E-16 0.1160387 -0.02320603
v 4.800711E-16 0.09863415 0.03295256
v 4.800711E-16 0.1160387 0.02320603
v 4.800711E-16 0.054507 -0.02320603
v 0.02009701 0.054507 -0.01160301
v 0.02853775 0.07191152 -0.01647628
v 4.800711E-16 0.07191152 -0.03295256
v 4.800711E-16 0.1123273 0.06881621
v 4.800711E-16 0.05047239 0.06881621
v 4.800711E-16 0.1958387 0.03172238
v 0 0.01790104 0.05057626
v 4.800711E-16 0.1958387 -0.03172238
v 4.800711E-16 0.1123273 -0.06881621
v 0 0.01790104 -0.05057626
v 4.800711E-16 0.05047239 -0.06881621
v 0.07509935 0.04580137 0.04335863
v 0.07509935 0.04580137 -0.04335863
v 0.05288687 -8.527775E-32 0.03053425
v 0.05288687 -8.527775E-32 -0.03053425
v 4.800711E-16 0.04580137 0.08671726
v 0.07509935 0.1161241 0.04335863
v 4.800711E-16 0.1161241 0.08671726
v 0 -8.527775E-32 0.06106849
v 0 -8.527775E-32 -0.06106849
v 4.800711E-16 0.04580137 -0.08671726
v 0.03754967 0.2137397 0.02167932
v 4.800711E-16 0.2137397 0.04335863
v 0.07509935 0.1161241 -0.04335863
v 4.800711E-16 0.1161241 -0.08671726
v 4.800711E-16 0.2137397 -0.04335863
v 0.03754967 0.2137397 -0.02167932

vn -0.4786774 -0.2321462 0
vn -0.2393387 0.2321462 -0.4145468
vn -0.2393387 -0.2321462 0.4145468
vn -0.2393387 -0.2321462 -0.4145468
vn 0 0.532 0
vn -0.266 0 -0.4607255
vn -0.266 0 0.4607255
vn -0.4786774 0.2321462 0
vn -0.2393387 0.2321462 0.4145468
vn -0.532 0 0
vn 0 -0.532 0
vn 0.4786774 -0.2321462 0
vn 0.266 0 0.4607255
vn 0.2393387 -0.2321462 0.4145468
vn 0.2393387 -0.2321462 -0.4145468
vn 0.2482655 0.1909999 0.4300084
vn 0.532 0 0
vn 0.2482655 0.1909999 -0.4300084
vn 0.266 0 -0.4607255
vn 0.496531 0.191 0

vt 1.219309 5.646139
vt -1.219309 5.646139
vt 0.8586683 7.077619
vt -0.8586683 7.077619
vt 0.8586683 4.278416
vt -0.8586683 4.278416
vt 1.219309 5.709896
vt -1.219309 5.709896
vt 3.552714E-14 -1.717337
vt 3.552714E-14 1.717337
vt 1.487257 -0.8586683
vt 1.487257 0.8586683
vt 1.219309 5.321733
vt -1.219309 5.321733
vt 1.219309 7.299313
vt -1.219309 7.299313
vt 5.092669 8.312662
vt 5.092669 3.735154
vt 2.34758 14.49283
vt 3.742841 1.324747
vt 2.438618 7.299313
vt 1.717337 8.587316
vt -2.34758 14.49283
vt -1.717337 8.587316
vt -2.438618 7.299313
vt -5.092669 8.312662
vt -2.438618 5.321733
vt -3.742841 1.324747
vt -5.092669 3.735154
vt 1.717337 4.033731
vt 2.438618 5.321733
vt -1.717337 4.033731
vt -5.480638E-14 1.717337
vt -5.480638E-14 -1.717337
vt -1.487257 0.8586683
vt -1.487257 -0.8586683
vt -3.208708 5.474914
vt 3.208708 5.474914
vt -2.259654 1.707861
vt 2.259654 1.707861
vt 3.208708 3.38948
vt -3.208708 3.38948
vt 3.208708 8.593637
vt -3.208708 8.593637
vt 3.208708 6.025371
vt -3.208708 6.025371
vt 1.604354 13.76534
vt -1.604354 13.76534
vt 3.552714E-14 -3.208708
vt 3.552714E-14 3.208708
vt 2.778823 -1.604354
vt 2.778823 1.604354
vt 0 4.519307
vt 0 -4.519307
vt -3.913835 2.259654
vt -3.913835 -2.259654
vt 6.417416 8.593637
vt 6.417416 3.38948
vt 3.208708 15.81757
vt -3.208708 15.81757
vt -6.417416 8.593637
vt 4.519307 -6.310887E-30
vt -4.519307 -6.310887E-30
vt -6.417416 3.38948

usemtl green

f 3/3/1 2/2/1 1/1/1
f 2/2/1 3/3/1 4/4/1
f 7/7/2 6/6/2 5/5/2
f 6/6/2 7/7/2 8/8/2
f 4/3/3 9/2/3 2/1/3
f 9/2/3 4/3/3 10/4/3
f 12/3/4 1/2/4 11/1/4
f 1/2/4 12/3/4 3/4/4
f 6/11/5 13/10/5 5/9/5
f 13/10/5 6/11/5 14/12/5
f 11/15/6 8/14/6 7/13/6
f 8/14/6 11/15/6 1/16/6
f 2/15/7 16/14/7 15/13/7
f 16/14/7 2/15/7 9/16/7
f 15/8/8 6/5/8 8/7/8
f 6/5/8 15/8/8 14/6/8
f 15/7/9 13/6/9 14/5/9
f 13/6/9 15/7/9 16/8/9
f 2/16/10 8/13/10 1/15/10
f 8/13/10 2/16/10 15/14/10
f 19/19/10 18/18/10 17/17/10
f 18/18/10 19/19/10 20/20/10
f 20/20/10 19/19/10 11/21/10
f 11/21/10 19/19/10 12/22/10
f 12/22/10 19/19/10 21/23/10
f 12/22/10 21/23/10 10/24/10
f 10/24/10 21/23/10 9/25/10
f 9/25/10 21/23/10 22/26/10
f 9/25/10 22/26/10 16/27/10
f 16/27/10 22/26/10 23/28/10
f 23/28/10 22/26/10 24/29/10
f 20/20/10 5/30/10 23/28/10
f 5/30/10 20/20/10 7/31/10
f 7/31/10 20/20/10 11/21/10
f 23/28/10 5/30/10 13/32/10
f 23/28/10 13/32/10 16/27/10
f 4/35/11 12/34/11 10/33/11
f 12/34/11 4/35/11 3/36/11

usemtl brownDarkest

f 27/39/12 26/38/12 25/37/12
f 26/38/12 27/39/12 28/40/12
f 30/43/13 29/42/13 25/41/13
f 29/42/13 30/43/13 31/44/13
f 25/38/14 32/39/14 27/40/14
f 32/39/14 25/38/14 29/37/14
f 34/38/15 28/39/15 33/40/15
f 28/39/15 34/38/15 26/37/15
f 35/47/16 31/46/16 30/45/16
f 31/46/16 35/47/16 36/48/16
f 26/41/17 30/44/17 25/42/17
f 30/44/17 26/41/17 37/43/17
f 39/47/18 37/46/18 38/45/18
f 37/46/18 39/47/18 40/48/18
f 35/51/5 39/50/5 36/49/5
f 39/50/5 35/51/5 40/52/5
f 38/43/19 26/42/19 34/41/19
f 26/42/19 38/43/19 37/44/19
f 28/55/11 32/54/11 33/53/11
f 32/54/11 28/55/11 27/56/11
f 37/45/20 35/48/20 30/46/20
f 35/48/20 37/45/20 40/47/20

usemtl brownDark

f 36/59/10 29/58/10 31/57/10
f 29/58/10 36/59/10 17/17/10
f 17/17/10 36/59/10 19/19/10
f 19/19/10 36/59/10 39/60/10
f 19/19/10 39/60/10 21/23/10
f 21/23/10 39/60/10 22/26/10
f 22/26/10 39/60/10 38/61/10
f 22/26/10 38/61/10 24/29/10
f 18/18/10 29/58/10 17/17/10
f 29/58/10 18/18/10 32/62/10
f 32/62/10 18/18/10 20/20/10
f 32/62/10 20/20/10 33/63/10
f 33/63/10 20/20/10 23/28/10
f 33/63/10 23/28/10 24/29/10
f 33/63/10 24/29/10 34/64/10
f 34/64/10 24/29/10 38/61/10

g pit

v 4.071003E-16 0.05450699 0.02320603
v -0.02009701 0.05450699 0.01160301
v 4.800711E-16 0.07191151 0.03295256
v -0.02853775 0.07191151 0.01647628
v 0.02853775 0.07191151 0.01647628
v 0.02853775 0.07191151 -0.01647628
v 0.02009701 0.05450699 0.01160301
v 0.02009701 0.05450699 -0.01160301
v 4.071003E-16 0.05450699 -0.02320603
v 4.800711E-16 0.07191151 -0.03295256
v -0.02009701 0.05450699 -0.01160301
v -0.02853775 0.07191151 -0.01647628
v 0.02853775 0.09863415 0.01647628
v -0.02853775 0.09863415 0.01647628
v -0.02853775 0.09863415 -0.01647628
v 0.02853775 0.09863415 -0.01647628
v -0.02009701 0.1160387 -0.01160301
v 2.611587E-16 0.1160387 -0.02320603
v -0.02009701 0.1160387 0.01160301
v 2.611587E-16 0.1160387 0.02320603
v 0.02009701 0.1160387 0.01160301
v 0.02009701 0.1160387 -0.01160301

vn -0.1709562 -0.1658187 0.2961049
vn 0.3419124 -0.1658187 0
vn 0.1709562 -0.1658187 -0.2961049
vn 0 -0.38 0
vn -0.1709562 -0.1658187 -0.2961049
vn -0.3419124 -0.1658187 0
vn 0.1709562 -0.1658187 0.2961049
vn 0.19 0 0.3290897
vn -0.38 0 0
vn -0.19 0 -0.3290897
vn 0.38 0 0
vn 0.19 0 -0.3290897
vn -0.19 0 0.3290897
vn 0 0.38 0
vn 0.3419124 0.1658187 0
vn -0.1709562 0.1658187 -0.2961049
vn 0.1709562 0.1658187 0.2961049
vn -0.3419124 0.1658187 0
vn 0.1709562 0.1658187 -0.2961049
vn -0.1709562 0.1658187 0.2961049

vt 2.259654 -3.683162
vt -2.259654 -3.683162
vt 3.208708 0.08389093
vt -3.208708 0.08389093
vt 3.913835 2.259654
vt 3.913835 -2.259654
vt 1.421085E-14 4.519307
vt 1.421085E-14 -4.519307
vt 3.208708 -2.602079
vt -3.208708 -2.602079
vt 3.208708 2.602079
vt -3.208708 2.602079
vt -4.263256E-14 4.519307
vt -4.263256E-14 -4.519307
vt -3.208708 -0.08389093
vt -2.259654 3.683162
vt 3.208708 -0.08389093
vt 2.259654 3.683162

usemtl brownDark

f 43/67/21 42/66/21 41/65/21
f 42/66/21 43/67/21 44/68/21
f 47/66/22 46/67/22 45/68/22
f 46/67/22 47/66/22 48/65/22
f 50/67/23 48/66/23 49/65/23
f 48/66/23 50/67/23 46/68/23
f 49/71/24 42/70/24 51/69/24
f 42/70/24 49/71/24 41/72/24
f 41/72/24 49/71/24 48/55/24
f 41/72/24 48/55/24 47/56/24
f 52/67/25 49/66/25 51/65/25
f 49/66/25 52/67/25 50/68/25
f 52/68/26 42/65/26 44/67/26
f 42/65/26 52/68/26 51/66/26
f 45/67/27 41/66/27 47/65/27
f 41/66/27 45/67/27 43/68/27
f 53/75/28 43/74/28 45/73/28
f 43/74/28 53/75/28 11/76/28
f 55/76/29 44/73/29 54/75/29
f 44/73/29 55/76/29 52/74/29
f 55/75/30 50/74/30 52/73/30
f 50/74/30 55/75/30 9/76/30
f 46/73/31 53/76/31 45/74/31
f 53/76/31 46/73/31 56/75/31
f 9/75/32 46/74/32 50/73/32
f 46/74/32 9/75/32 56/76/32
f 11/75/33 44/74/33 43/73/33
f 44/74/33 11/75/33 54/76/33
f 59/56/34 58/77/34 57/55/34
f 58/77/34 59/56/34 60/78/34
f 58/77/34 60/78/34 61/70/34
f 58/77/34 61/70/34 62/69/34
f 56/81/35 61/80/35 53/79/35
f 61/80/35 56/81/35 62/82/35
f 57/82/36 9/79/36 55/81/36
f 9/79/36 57/82/36 58/80/36
f 61/82/37 11/79/37 53/81/37
f 11/79/37 61/82/37 60/80/37
f 59/82/38 55/79/38 54/81/38
f 55/79/38 59/82/38 57/80/38
f 58/82/39 56/79/39 9/81/39
f 56/79/39 58/82/39 62/80/39
f 60/82/40 54/79/40 11/81/40
f 54/79/40 60/82/40 59/80/40

