# Created by Kenney (www.kenney.nl)

mtllib bagFlat.mtl

g bagFlat

v 0 0 0.187
v 0 0.0952628 0.23375
v 0.18 0.01428942 0.15895
v 0.18 0.0952628 0.1986875
v 0 0.1905256 0
v 0 0.1905256 -0.14025
v 0.18 0.1762362 0
v 0 0.1905256 -0.187
v 0.18 0.1762362 -0.15895
v 0.18 0.1762362 -0.1192125
v 0.18 0.1762362 0.15895
v 0 0.1905256 0.14025
v 0 0.1905256 0.187
v 0.18 0.1762362 0.1192125
v 0.18 0.01428942 -0.15895
v 0.18 0.01428942 -0.1192125
v 0.2775 0.06206371 -0.130339
v 0.18 0.01428942 0.1192125
v 0.2775 0.06206371 0.130339
v 0.2775 0.06206371 -0.09775425
v 0.2775 0.06206371 0.09775425
v 0.18 0.0952628 -0.1986875
v 0.2775 0.0952628 -0.1629238
v 0.2775 0.1284619 -0.130339
v 0.2775 0.1284619 0.130339
v 0.2775 0.1284619 -2.887646E-15
v 0.2775 0.1284619 0.09775425
v 0.2775 0.1284619 -0.09775425
v 0 3.609557E-16 -0.187
v 0 0 -0.14025
v 0 0 0.14025
v 0.2775 0.0952628 0.1629238
v 0.325 0.0952628 0.1629238
v 0.325 0.0952628 -0.1629238
v 0 0.0952628 -0.23375
v -0.2775 0.1284619 2.887646E-15
v -0.2775 0.1284619 -0.09775425
v -0.18 0.1762362 0
v -0.2775 0.1284619 -0.130339
v -0.18 0.1762362 -0.15895
v -0.18 0.1762362 -0.1192125
v -0.18 0.1762362 0.15895
v -0.2775 0.1284619 0.09775425
v -0.2775 0.1284619 0.130339
v -0.18 0.1762362 0.1192125
v -0.18 0.01428942 -0.15895
v -0.18 0.01428942 -0.1192125
v -0.18 0.01428942 0.1192125
v -0.18 0.01428942 0.15895
v -0.18 0.0952628 0.1986875
v -0.18 0.0952628 -0.1986875
v -0.2775 0.0952628 0.1629238
v -0.2775 0.0952628 -0.1629238
v -0.2775 0.06206371 0.130339
v -0.2775 0.06206371 0.09775425
v -0.2775 0.06206371 -0.09775425
v -0.2775 0.06206371 -0.130339
v -0.325 0.0952628 0.1629238
v -0.325 0.0952628 -0.1629238

vn 0.1722554 -0.4339712 0.884306
vn 0.07913669 0.9968638 0
vn 0.1722554 0.4339712 0.884306
vn 0.44001 -0.8979929 0
vn 0.3904261 0.4758841 -0.7881001
vn 0.2532491 0.6776382 -0.690414
vn 0.339014 0.5602756 -0.7557518
vn 0.4322205 -0.3972798 -0.8095396
vn 0.339014 -0.5602756 -0.7557518
vn 0.3904261 -0.4758841 -0.7881001
vn 0.4322205 0.3972798 -0.8095396
vn 0.44001 0.8979929 0
vn 0.339014 0.5602756 0.7557518
vn 0.3904261 0.4758841 0.7881001
vn 0.4322205 0.3972798 0.8095396
vn 0.07913669 -0.9968638 0
vn 0 1 0
vn 0 -1 0
vn 0.1722554 -0.4339712 -0.884306
vn 0.2532491 0.6776382 0.690414
vn 0.2532491 -0.6776382 0.690414
vn 0.339014 -0.5602756 0.7557518
vn 0.3904261 -0.4758841 0.7881001
vn 1 0 0
vn 0.2532491 -0.6776382 -0.690414
vn 0.1722554 0.4339712 -0.884306
vn 0.4322205 -0.3972798 0.8095396
vn -0.44001 0.8979929 0
vn -0.07913669 0.9968638 0
vn -0.07913669 -0.9968638 0
vn -0.1722554 -0.4339712 0.884306
vn -0.1722554 -0.4339712 -0.884306
vn -0.1722554 0.4339712 -0.884306
vn -0.1722554 0.4339712 0.884306
vn -1 0 0
vn -0.2532491 0.6776382 -0.690414
vn -0.3904261 0.4758841 -0.7881001
vn -0.339014 0.5602756 -0.7557518
vn -0.3904261 0.4758841 0.7881001
vn -0.339014 0.5602756 0.7557518
vn -0.4322205 0.3972798 0.8095396
vn -0.4322205 0.3972798 -0.8095396
vn -0.4322205 -0.3972798 0.8095396
vn -0.339014 -0.5602756 0.7557518
vn -0.3904261 -0.4758841 0.7881001
vn -0.2532491 0.6776382 0.690414
vn -0.339014 -0.5602756 -0.7557518
vn -0.4322205 -0.3972798 -0.8095396
vn -0.3904261 -0.4758841 -0.7881001
vn -0.2532491 -0.6776382 -0.690414
vn -0.2532491 -0.6776382 0.690414
vn -0.44001 -0.8979929 0

vt -1.407639 3.136042
vt -1.759549 7.298981
vt 5.759383 3.760483
vt 5.46026 7.298981
vt 0 0.5936049
vt 5.521654 0.5936049
vt 4.953988E-16 -6.515305
vt 7.362205 0.5936049
vt 6.257874 -6.515305
vt 4.693406 -6.515305
vt -6.257874 -6.515305
vt -5.521654 0.5936049
vt -7.362205 0.5936049
vt -4.693406 -6.515305
vt -1.759549 -0.541123
vt -1.407639 3.621817
vt 5.46026 -0.541123
vt 5.759383 2.997376
vt 6.257874 6.611268
vt 4.693406 6.611268
vt 5.131457 10.88589
vt -4.693406 6.611268
vt -6.257874 6.611268
vt -5.131457 10.88589
vt 3.848593 10.88589
vt -3.848593 10.88589
vt -3.95936 -3.872114
vt -8.048033 -3.872114
vt -8.489814 -2.094771
vt -3.304044 4.035383
vt -7.220744 6.084944
vt -2.567205 7.509216
vt -2.567205 -0.6255594
vt -7.220744 0.7987121
vt -3.304044 2.848274
vt -6.257874 -3.31075
vt -4.693406 -3.31075
vt -5.131457 -7.585375
vt -1.667164E-14 -3.31075
vt 8.798472E-14 -7.585375
vt -3.848593 -7.585375
vt 4.693406 -3.31075
vt 6.257874 -3.31075
vt 5.131457 -7.585375
vt 3.848593 -7.585375
vt 7.220744 0.7987121
vt 2.567205 -0.6255594
vt 3.304044 2.848274
vt 7.362205 6.02859E-15
vt 5.521654 3.677993E-15
vt 6.257874 7.108909
vt -5.521654 -3.677993E-15
vt -7.362205 -4.90399E-15
vt -6.257874 7.108909
vt 4.693406 7.108909
vt -4.693406 7.108909
vt 10.9252 -6.414321
vt 10.9252 6.414321
vt 12.79528 -6.414321
vt 12.79528 6.414321
vt 1.407639 3.136042
vt -5.759383 3.760483
vt 1.759549 7.298981
vt -5.46026 7.298981
vt 8.048033 -3.872114
vt 3.95936 -3.872114
vt 8.489814 -2.094771
vt 8.048033 9.388321
vt 8.489814 7.610978
vt 3.95936 9.388321
vt -6.414321 3.750504
vt 6.414321 3.750504
vt -5.131457 2.443453
vt -3.848593 2.443453
vt 3.848593 2.443453
vt 5.131457 2.443453
vt -5.131457 5.057554
vt -3.848593 5.057554
vt 9.34085E-14 5.057554
vt 3.848593 5.057554
vt 5.131457 5.057554
vt -8.489814 7.610978
vt -8.048033 9.388321
vt -3.95936 9.388321
vt 1.759549 -0.541123
vt -5.46026 -0.541123
vt 1.407639 3.621817
vt -5.759383 2.997376
vt 7.220744 6.084944
vt 3.304044 4.035383
vt 2.567205 7.509216
vt 1.133845E-13 -7.585375
vt -1.96137E-16 -3.31075
vt 2.476994E-16 -6.515305
vt 3.081488E-33 0.5936049
vt -7.362205 5.844147E-14
vt 7.362205 -5.731686E-14
vt -5.521654 4.298765E-14
vt 5.521654 -4.298765E-14
vt 1.136868E-13 5.057554
vt -12.79528 -6.414321
vt -12.79528 6.414321
vt -10.9252 -6.414321
vt -10.9252 6.414321

usemtl brownLight

f 3/3/1 2/2/1 1/1/1
f 2/2/1 3/3/1 4/4/1
f 7/7/2 6/6/2 5/5/2
f 6/6/2 7/7/2 8/8/2
f 8/8/2 7/7/2 9/9/2
f 9/9/2 7/7/2 10/10/2
f 5/5/2 11/11/2 7/7/2
f 12/12/2 11/11/2 5/5/2
f 11/11/2 12/12/2 13/13/2
f 7/7/2 11/11/2 14/14/2
f 4/17/3 13/16/3 2/15/3
f 13/16/3 4/17/3 11/18/3
f 17/21/4 16/20/4 15/19/4
f 16/20/4 17/21/4 18/22/4
f 18/22/4 17/21/4 3/23/4
f 3/23/4 17/21/4 19/24/4
f 19/24/4 17/21/4 20/25/4
f 19/24/4 20/25/4 21/26/4
f 24/29/7 23/28/6 22/27/5
f 22/32/10 17/31/9 15/30/8
f 9/35/11 24/34/7 22/33/5
f 25/38/12 14/37/12 11/36/12
f 14/37/12 25/38/12 7/39/12
f 7/39/12 25/38/12 26/40/12
f 26/40/12 25/38/12 27/41/12
f 26/40/12 10/42/12 7/39/12
f 10/42/12 26/40/12 9/43/12
f 9/43/12 26/40/12 24/44/12
f 24/44/12 26/40/12 28/45/12
f 11/48/15 4/47/14 25/46/13
f 15/51/16 30/50/16 29/49/16
f 30/50/16 15/51/16 31/52/16
f 31/52/16 15/51/16 1/53/16
f 1/53/16 15/51/16 3/54/16
f 3/54/16 15/51/16 16/55/16
f 3/54/16 16/55/16 18/56/16
f 33/59/17 23/58/17 32/57/17
f 23/58/17 33/59/17 34/60/17
f 32/57/18 23/58/18 33/59/18
f 34/60/18 33/59/18 23/58/18
f 35/63/19 15/62/19 29/61/19
f 15/62/19 35/63/19 22/64/19
f 25/67/13 4/66/14 32/65/20
f 4/70/23 19/69/22 32/68/21
f 19/73/24 23/72/24 32/71/24
f 23/72/24 19/73/24 21/74/24
f 23/72/24 21/74/24 20/75/24
f 23/72/24 20/75/24 17/76/24
f 23/72/24 25/77/24 32/71/24
f 25/77/24 23/72/24 27/78/24
f 27/78/24 23/72/24 26/79/24
f 26/79/24 23/72/24 28/80/24
f 28/80/24 23/72/24 24/81/24
f 22/84/10 23/83/25 17/82/9
f 8/87/26 22/86/26 35/85/26
f 22/86/26 8/87/26 9/88/26
f 4/91/23 3/90/27 19/89/22
f 38/93/28 37/41/28 36/92/28
f 37/41/28 38/93/28 39/38/28
f 39/38/28 38/93/28 40/36/28
f 40/36/28 38/93/28 41/37/28
f 36/92/28 42/43/28 38/93/28
f 43/45/28 42/43/28 36/92/28
f 42/43/28 43/45/28 44/44/28
f 38/93/28 42/43/28 45/42/28
f 5/95/29 41/14/29 38/94/29
f 41/14/29 5/95/29 40/11/29
f 40/11/29 5/95/29 8/13/29
f 8/13/29 5/95/29 6/12/29
f 38/94/29 13/8/29 5/95/29
f 45/10/29 13/8/29 38/94/29
f 13/8/29 45/10/29 42/9/29
f 5/95/29 13/8/29 12/6/29
f 29/96/30 47/56/30 46/54/30
f 47/56/30 29/96/30 48/55/30
f 48/55/30 29/96/30 49/51/30
f 49/51/30 29/96/30 1/97/30
f 1/97/30 29/96/30 30/98/30
f 1/97/30 30/98/30 31/99/30
f 2/63/31 49/62/31 1/61/31
f 49/62/31 2/63/31 50/64/31
f 46/3/32 35/2/32 29/1/32
f 35/2/32 46/3/32 51/4/32
f 40/18/33 35/15/33 51/17/33
f 35/15/33 40/18/33 8/16/33
f 2/85/34 42/88/34 50/86/34
f 42/88/34 2/85/34 13/87/34
f 44/81/35 53/71/35 52/72/35
f 53/71/35 44/81/35 43/80/35
f 53/71/35 43/80/35 36/100/35
f 53/71/35 36/100/35 37/78/35
f 53/71/35 37/78/35 39/77/35
f 53/71/35 54/76/35 52/72/35
f 54/76/35 53/71/35 55/75/35
f 55/75/35 53/71/35 56/74/35
f 56/74/35 53/71/35 57/73/35
f 52/103/17 59/102/17 58/101/17
f 59/102/17 52/103/17 53/104/17
f 58/101/18 59/102/18 52/103/18
f 53/104/18 52/103/18 59/102/18
f 39/67/38 51/66/37 53/65/36
f 42/35/41 44/34/40 50/33/39
f 40/48/42 51/47/37 39/46/38
f 50/32/45 54/31/44 49/30/43
f 44/29/40 52/28/46 50/27/39
f 51/91/49 46/90/48 57/89/47
f 51/70/49 57/69/47 53/68/50
f 50/84/45 52/83/51 54/82/44
f 46/23/52 56/26/52 57/24/52
f 56/26/52 46/23/52 55/25/52
f 55/25/52 46/23/52 54/21/52
f 54/21/52 46/23/52 49/19/52
f 49/19/52 46/23/52 47/22/52
f 49/19/52 47/22/52 48/20/52

