# Created by Kenney (www.kenney.nl)

mtllib banana.mtl

g banana

v -0.01265248 0.1958004 -0.3149356
v 0.01265248 0.1958004 -0.3149356
v -0.009372211 0.1599542 -0.2375356
v 0.009372211 0.1599542 -0.2375356
v 0.01874442 0.1435366 -0.2375356
v 0.02530497 0.1736366 -0.3149356
v -0.01874442 0.1435366 -0.2375356
v -0.009372211 0.127119 -0.2375356
v -0.02530497 0.1736366 -0.3149356
v -0.01265248 0.1514729 -0.3149356
v 0.01265248 0.1514729 -0.3149356
v 0.009372211 0.127119 -0.2375356
v 0.01192523 0.1478274 0.3149356
v 0.02385046 0.1684825 0.3149356
v 0.01327069 0.126897 0.2920356
v 0.02654139 0.1498825 0.2920356
v -0.02385046 0.1684825 0.3149356
v -0.02654139 0.1498825 0.2920356
v -0.01192523 0.1891377 0.3149356
v -0.01327069 0.1728681 0.2920356
v 0.01192523 0.1891377 0.3149356
v 0.01327069 0.1728681 0.2920356
v -0.01327069 0.126897 0.2920356
v -0.01192523 0.1478274 0.3149356
v 0.06879999 0.05958255 0.0272472
v 0.0344 0.1191651 0.0272472
v 0.060544 0.06613663 -0.07048938
v -0.032336 0.1241901 0.1304472
v -0.06467199 0.06818254 0.1304472
v -0.0344 0.1191651 0.0272472
v -0.06879999 0.05958255 0.0272472
v 0.030272 0.1191651 -0.07048938
v -0.030272 0.1191651 -0.07048938
v -0.060544 0.06613663 -0.07048938
v -0.02179584 0.1430171 -0.1796847
v -0.04359168 0.1048366 -0.1796847
v -0.032336 0.01217495 0.1304472
v -0.0344 8.775736E-15 0.0272472
v 0.032336 0.1241901 0.1304472
v -0.030272 0.01310816 -0.07048938
v -0.02179584 0.06665613 -0.1796847
v 0.02179584 0.06665613 -0.1796847
v 0.0344 0 0.0272472
v 0.030272 0.01310816 -0.07048938
v 0.02179584 0.1430171 -0.1796847
v 0.04359168 0.1048366 -0.1796847
v 0.02328192 0.06225708 0.2341808
v -0.02328192 0.06225708 0.2341808
v 0.032336 0.01217495 0.1304472
v -0.02328192 0.142908 0.2341808
v 0.02328192 0.142908 0.2341808
v 0.04656384 0.1025825 0.2341808
v 0.06467199 0.06818254 0.1304472
v -0.04656384 0.1025825 0.2341808

vn 0 0.9074095 0.4202474
vn 0.8391846 0.4790596 0.2574316
vn -0.8623511 -0.4922845 -0.1183497
vn 0 0 -1
vn 0 -0.9538946 -0.300142
vn 0.8623511 -0.4922845 -0.1183497
vn -0.8391846 0.4790596 0.2574316
vn 0.7721481 -0.4458 0.4528241
vn -0.8285037 0.4783368 -0.2911626
vn 0.8285037 0.4783368 -0.2911626
vn 0 -0.7381369 0.674651
vn -0.7721481 -0.4458 0.4528241
vn 0 0.815205 -0.5791726
vn 0 0 1
vn 0.8653463 0.4996079 -0.03959448
vn 0.8662437 0.498132 -0.03855362
vn 0.8669031 0.4970425 -0.03778617
vn -0.866004 0.4999877 -0.007025477
vn 0.8678709 0.4954356 -0.03665538
vn -0.8677298 0.495355 0.04084612
vn -0.8635149 -0.4985506 0.07608648
vn 0 0.9988166 -0.0486347
vn -0.8293861 -0.4734659 -0.2965617
vn 0 -0.6913278 -0.7225413
vn -0.7099096 -0.4052612 -0.5760137
vn -0.8678709 0.4954356 -0.03665538
vn -0.8662437 0.498132 -0.03855362
vn -0.8669031 0.4970425 -0.03778617
vn 0 -0.9911258 -0.1329271
vn 0 0.9597145 0.2809774
vn -0.8621741 -0.495798 -0.1041159
vn -0.8627402 -0.4946499 -0.104885
vn -0.8635613 -0.4929754 -0.106005
vn -0.8614118 -0.4973363 -0.1030839
vn 0.8627402 -0.4946499 -0.104885
vn 0.8621741 -0.495798 -0.1041159
vn 0.8635613 -0.4929754 -0.106005
vn 0.8677129 0.4953453 -0.04132037
vn 0 0.9769643 0.2134027
vn 0 -0.897853 -0.4402954
vn -0.8653463 0.4996079 -0.03959448
vn 0.8614118 -0.4973363 -0.1030839
vn 0 1 0
vn 0.8677298 0.495355 0.04084612
vn 0.8293861 -0.4734659 -0.2965617
vn -0.8677129 0.4953453 -0.04132037
vn 0.7099096 -0.4052612 -0.5760137
vn 0 -0.6669167 0.7451323
vn 0 -0.9931129 0.1171618
vn 0 0.8879973 -0.4598486
vn 0 0.9841075 -0.1775741
vn 0.8255426 -0.4766273 0.3021685
vn 0.86092 0.4970524 -0.1084241
vn 0.8659327 0.4999465 -0.01463085
vn 0 -0.9005386 0.434776
vn 0.8635149 -0.4985506 0.07608648
vn 0.7066433 -0.4079808 0.5781065
vn -0.8255426 -0.4766273 0.3021685
vn -0.8659327 0.4999465 -0.01463085
vn 0.866004 0.4999877 -0.007025477
vn -0.7066433 -0.4079808 0.5781065
vn -0.86092 0.4970524 -0.1084241

vt -0.4981293 14.49056
vt 0.4981293 14.49056
vt -0.3689847 11.13238
vt 0.3689847 11.13238
vt 9.157008 5.936296
vt 9.048794 6.672655
vt 12.14601 7.286334
vt 11.99992 8.280418
vt -9.164611 5.904738
vt -9.214781 5.162163
vt -12.14844 7.266172
vt -12.21617 6.263696
vt -0.4981293 5.963498
vt -0.9962587 6.836088
vt 0.4981293 5.963498
vt 0.9962587 6.836088
vt -0.4981293 7.708677
vt 0.4981293 7.708677
vt 0.4981293 13.61727
vt 0.3689847 10.42274
vt -0.4981293 13.61727
vt -0.3689847 10.42274
vt 9.164611 5.904738
vt 12.14844 7.266172
vt 9.214781 5.162163
vt 12.21617 6.263696
vt -9.048794 6.672655
vt -9.157008 5.936296
vt -11.99992 8.280418
vt -12.14601 7.286334
vt -10.458 8.18641
vt -10.22049 9.094872
vt -9.653497 7.265841
vt -9.389194 8.276799
vt 12.00903 7.367762
vt 11.19358 6.533894
vt 11.85337 8.293764
vt 11.02035 7.564372
vt -12.00903 7.367762
vt -11.85337 8.293764
vt -11.19358 6.533894
vt -11.02035 7.564372
vt -0.5224683 11.85722
vt -0.4694973 13.07864
vt 0.5224683 11.85722
vt 0.4694973 13.07864
vt 10.458 8.18641
vt 9.653497 7.265841
vt 10.22049 9.094872
vt 9.389194 8.276799
vt 0.5224683 13.31454
vt -0.5224683 13.31454
vt 0.4694973 14.42049
vt -0.4694973 14.42049
vt 0.4694973 5.819978
vt -0.4694973 5.819978
vt 0.9389946 6.633171
vt -0.9389946 6.633171
vt 0.4694973 7.446364
vt -0.4694973 7.446364
vt -1.19541 0.7046692
vt -1.133507 3.412623
vt 2.663321 1.002544
vt 5.145875 3.61869
vt 5.156203 1.072569
vt 1.083676 3.39025
vt 1.094663 0.6816111
vt -1.12892 3.427322
vt 2.722408 3.427322
vt 2.672115 1.023882
vt -2.828142 3.550418
vt -2.884181 1.147106
vt -7.106725 4.63142
vt -7.147073 2.901035
vt 5.004155 1.272486
vt 0.9497116 0.7195379
vt 4.892415 3.816175
vt 0.8308386 3.42559
vt 1.354331 1.299627
vt -1.354331 1.299627
vt 1.273071 5.367433
vt -1.273071 5.367433
vt -2.211872 1.428292
vt -6.372259 3.821751
vt -1.8106 3.79853
vt -6.083343 5.528323
vt -0.8581039 6.786726
vt -0.3689847 10.08125
vt 0.8581039 6.786726
vt 0.3689847 10.08125
vt -4.412032 6.119744
vt -4.952701 4.475501
vt -6.797028 7.78636
vt -7.029515 7.079336
vt -2.722408 3.427322
vt 1.12892 3.427322
vt -2.672115 1.023882
vt 1.354331 -1.063205
vt -1.354331 -1.063205
vt 1.191811 2.819144
vt -1.191811 2.819144
vt -0.8581039 8.371283
vt -0.3689847 10.74448
vt 0.8581039 8.371283
vt 0.3689847 10.74448
vt 1.394753 3.301845
vt -2.609288 1.198846
vt -2.464079 3.598422
vt 1.386971 3.309272
vt 1.226048 0.6053947
vt -2.6139 1.200248
vt 2.609288 1.198846
vt -1.394753 3.301845
vt 2.464079 3.598422
vt 6.98456 2.569647
vt 7.025377 4.300021
vt 9.306108 4.323565
vt 9.32366 5.067626
vt -1.191811 3.712431
vt -0.8581039 8.112826
vt 1.191811 3.712431
vt 0.8581039 8.112826
vt 1.191811 2.71892
vt -1.191811 2.71892
vt 0.8581039 7.507041
vt -0.8581039 7.507041
vt 1.133507 3.412623
vt 1.19541 0.7046692
vt -2.663321 1.002544
vt -1.226048 0.6053947
vt -1.386971 3.309272
vt 2.6139 1.200248
vt -1.354331 -1.072725
vt -1.191811 2.775172
vt 1.354331 -1.072725
vt 1.191811 2.775172
vt 2.828142 3.550418
vt 7.106725 4.63142
vt 2.884181 1.147106
vt 7.147073 2.901035
vt 2.211872 1.428292
vt 1.8106 3.79853
vt 6.372259 3.821751
vt 6.083343 5.528323
vt -6.98456 2.569647
vt -9.306108 4.323565
vt -7.025377 4.300021
vt -9.32366 5.067626
vt 4.412032 6.119744
vt 6.797028 7.78636
vt 4.952701 4.475501
vt 7.029515 7.079336
vt 0.916611 7.975152
vt -0.916611 7.975152
vt 0.5224683 11.39049
vt -0.5224683 11.39049
vt -1.354331 1.065337
vt -1.273071 5.156505
vt 1.354331 1.065337
vt 1.273071 5.156505
vt 0.916611 10.77433
vt -0.916611 10.77433
vt 0.5224683 13.33937
vt -0.5224683 13.33937
vt 1.273071 5.922323
vt -1.273071 5.922323
vt 0.916611 10.07228
vt -0.916611 10.07228
vt -8.027851 5.881399
vt -3.947637 4.340821
vt -8.342912 4.075453
vt -4.385221 1.832563
vt -11.53792 5.319089
vt -11.47264 6.361984
vt -9.376526 3.173001
vt -9.261993 5.002642
vt -9.249372 2.659214
vt -9.233887 4.49237
vt -5.177998 1.095423
vt -5.156491 3.641474
vt -1.273071 4.833312
vt -0.916611 9.368377
vt 1.273071 4.833312
vt 0.916611 9.368377
vt -5.004155 1.272486
vt -4.892415 3.816175
vt -0.9497116 0.7195379
vt -0.8308386 3.42559
vt -8.568068 7.696415
vt -8.23724 8.687599
vt -6.555548 4.909004
vt -5.975149 6.647923
vt 8.027851 5.881399
vt 8.342912 4.075453
vt 3.947637 4.340821
vt 4.385221 1.832563
vt 9.249372 2.659214
vt 5.177998 1.095423
vt 9.233887 4.49237
vt 5.156491 3.641474
vt -5.145875 3.61869
vt -1.083676 3.39025
vt -5.156203 1.072569
vt -1.094663 0.6816111
vt 8.568068 7.696415
vt 6.555548 4.909004
vt 8.23724 8.687599
vt 5.975149 6.647923
vt 11.47264 6.361984
vt 11.53792 5.319089
vt 9.261993 5.002642
vt 9.376526 3.173001

usemtl brownDark

f 3/3/1 2/2/1 1/1/1
f 2/2/1 3/3/1 4/4/1
f 6/7/2 4/6/2 5/5/2
f 4/6/2 6/7/2 2/8/2
f 9/11/3 8/10/3 7/9/3
f 8/10/3 9/11/3 10/12/3
f 10/15/4 6/14/4 11/13/4
f 6/14/4 10/15/4 9/16/4
f 6/14/4 9/16/4 2/17/4
f 2/17/4 9/16/4 1/18/4
f 11/21/5 8/20/5 10/19/5
f 8/20/5 11/21/5 12/22/5
f 12/25/6 6/24/6 5/23/6
f 6/24/6 12/25/6 11/26/6
f 1/29/7 7/28/7 3/27/7
f 7/28/7 1/29/7 9/30/7
f 15/33/8 14/32/8 13/31/8
f 14/32/8 15/33/8 16/34/8
f 19/37/9 18/36/9 17/35/9
f 18/36/9 19/37/9 20/38/9
f 16/41/10 21/40/10 14/39/10
f 21/40/10 16/41/10 22/42/10
f 15/45/11 24/44/11 23/43/11
f 24/44/11 15/45/11 13/46/11
f 17/49/12 23/48/12 24/47/12
f 23/48/12 17/49/12 18/50/12
f 19/53/13 22/52/13 20/51/13
f 22/52/13 19/53/13 21/54/13
f 14/57/14 24/56/14 13/55/14
f 24/56/14 14/57/14 17/58/14
f 17/58/14 14/57/14 21/59/14
f 17/58/14 21/59/14 19/60/14

usemtl yellow

f 27/63/17 26/62/16 25/61/15
f 30/66/18 29/65/18 28/64/18
f 29/65/18 30/66/18 31/67/18
f 27/70/17 32/69/19 26/68/16
f 35/73/20 34/72/20 33/71/20
f 34/72/20 35/73/20 36/74/20
f 29/77/21 38/76/21 37/75/21
f 38/76/21 29/77/21 31/78/21
f 28/81/22 26/80/22 30/79/22
f 26/80/22 28/81/22 39/82/22
f 34/85/23 41/84/23 40/83/23
f 41/84/23 34/85/23 36/86/23
f 41/89/24 12/88/24 42/87/24
f 12/88/24 41/89/24 8/90/24
f 7/93/25 41/92/25 36/91/25
f 41/92/25 7/93/25 8/94/25
f 34/97/28 30/96/27 33/95/26
f 40/100/29 43/99/29 38/98/29
f 43/99/29 40/100/29 44/101/29
f 45/104/30 3/103/30 35/102/30
f 3/103/30 45/104/30 4/105/30
f 34/108/33 40/107/32 31/106/31
f 40/111/32 38/110/34 31/109/31
f 27/114/37 25/113/36 44/112/35
f 5/117/38 45/116/38 46/115/38
f 45/116/38 5/117/38 4/118/38
f 32/121/39 35/120/39 33/119/39
f 35/120/39 32/121/39 45/122/39
f 41/125/40 44/124/40 40/123/40
f 44/124/40 41/125/40 42/126/40
f 34/129/28 31/128/41 30/127/27
f 44/132/35 25/131/36 43/130/42
f 26/135/43 33/134/43 30/133/43
f 33/134/43 26/135/43 32/136/43
f 27/139/44 45/138/44 32/137/44
f 45/138/44 27/139/44 46/140/44
f 42/143/45 27/142/45 44/141/45
f 27/142/45 42/143/45 46/144/45
f 35/147/46 7/146/46 36/145/46
f 7/146/46 35/147/46 3/148/46
f 42/151/47 5/150/47 46/149/47
f 5/150/47 42/151/47 12/152/47
f 15/155/48 48/154/48 47/153/48
f 48/154/48 15/155/48 23/156/48
f 43/159/49 37/158/49 38/157/49
f 37/158/49 43/159/49 49/160/49
f 20/163/50 51/162/50 50/161/50
f 51/162/50 20/163/50 22/164/50
f 50/167/51 39/166/51 28/165/51
f 39/166/51 50/167/51 51/168/51
f 47/171/52 53/170/52 52/169/52
f 53/170/52 47/171/52 49/172/52
f 52/175/53 22/174/53 16/173/53
f 22/174/53 52/175/53 51/176/53
f 53/179/54 51/178/54 52/177/54
f 51/178/54 53/179/54 39/180/54
f 49/183/55 48/182/55 37/181/55
f 48/182/55 49/183/55 47/184/55
f 43/187/56 53/186/56 49/185/56
f 53/186/56 43/187/56 25/188/56
f 47/191/57 16/190/57 15/189/57
f 16/190/57 47/191/57 52/192/57
f 29/195/58 48/194/58 54/193/58
f 48/194/58 29/195/58 37/196/58
f 50/199/59 29/198/59 54/197/59
f 29/198/59 50/199/59 28/200/59
f 53/203/60 26/202/60 39/201/60
f 26/202/60 53/203/60 25/204/60
f 18/207/61 48/206/61 23/205/61
f 48/206/61 18/207/61 54/208/61
f 50/211/62 18/210/62 20/209/62
f 18/210/62 50/211/62 54/212/62

