# Created by Kenney (www.kenney.nl)

mtllib bottleOil.mtl

g bottleOil

v 0.035 0.45 0.035
v 0.02905 0.48 0.02905
v 0.035 0.45 -0.035
v 0.02905 0.48 -0.02905
v -0.035 0.45 0.035
v -0.02905 0.48 0.02905
v -0.035 0.45 -0.035
v -0.02905 0.48 -0.02905
v -0.07 0.42 0.07
v 0.07 0.42 0.07
v 0.07 0.03 0.07
v -0.07 0.03 0.07
v -0.07 0.03 -0.07
v 0.07 0.03 -0.07
v -0.07 0.42 -0.07
v 0.07 0.42 -0.07
v -0.07 0.3922372 0.04366279
v -0.07 0.3922372 -0.04366279
v -0.07 0.1277628 -0.04366279
v -0.07 0.1277628 0.04366279
v -0.0574 7.55751E-16 -0.0574
v -0.0574 7.55751E-16 0.0574
v 0.0574 7.55751E-16 -0.0574
v 0.0574 7.55751E-16 0.0574
v -0.03097892 0.56 0.03097892
v -0.024983 0.54 0.024983
v -0.03097892 0.56 -0.03097892
v -0.024983 0.54 -0.024983
v 0.03097892 0.56 0.03097892
v 0.03097892 0.56 -0.03097892
v 0.024983 0.54 0.024983
v 0.024983 0.54 -0.024983
v -0.03097892 0.61 -0.03097892
v 0.03097892 0.61 -0.03097892
v 0.03097892 0.61 0.03097892
v -0.03097892 0.61 0.03097892

vn 0.9808939 0.194544 0
vn 0 0.194544 0.9808939
vn -0.9808939 0.194544 0
vn 0 0.194544 -0.9808939
vn 0 0.7592566 0.6507913
vn 0 0 1
vn 0 0 -1
vn 1 0 0
vn 0 0.7592566 -0.6507913
vn -0.6507913 0.7592566 0
vn 0.6507913 0.7592566 0
vn -1 0 0
vn 0 -1 0
vn 0 -0.3872325 0.9219821
vn 0 -0.3872325 -0.9219821
vn 0.9219821 -0.3872325 0
vn -0.9219821 -0.3872325 0
vn -0.9578801 -0.2871686 0
vn 0.9578801 -0.2871686 0
vn -0.9977106 0.06762815 0
vn 0 1 0
vn 0 0.06762815 -0.9977106
vn 0.9977106 0.06762815 0
vn 0 -0.2871686 0.9578801
vn 0 -0.2871686 -0.9578801
vn 0 0.06762815 0.9977106

vt -1.377953 17.10997
vt -1.143701 18.31408
vt 1.377953 17.10997
vt 1.143701 18.31408
vt -2.755906 8.668677
vt -1.377953 10.48355
vt 2.755906 8.668677
vt 1.377953 10.48355
vt 2.755906 1.181102
vt -2.755906 1.181102
vt 2.755906 16.53543
vt -2.755906 16.53543
vt 1.719007 15.44241
vt -1.719007 15.44241
vt -1.719007 5.030031
vt 1.719007 5.030031
vt 2.259843 2.259843
vt 2.259843 -2.259843
vt -2.259843 2.259843
vt -2.259843 -2.259843
vt 2.259843 0.8750845
vt -2.259843 0.8750845
vt 2.755906 2.156131
vt -2.755906 2.156131
vt 1.219643 21.46886
vt 0.9835827 20.64683
vt -1.219643 21.46886
vt -0.9835827 20.64683
vt 1.219643 22.04725
vt -1.219643 22.04725
vt 1.219643 24.01575
vt -1.219643 24.01575
vt 1.143701 18.77703
vt -1.143701 18.77703
vt 0.9835827 21.14465
vt -0.9835827 21.14465
vt -1.219643 -1.219643
vt -1.219643 1.219643
vt 1.219643 -1.219643
vt 1.219643 1.219643

usemtl green

f 3/3/1 2/2/1 1/1/1
f 2/2/1 3/3/1 4/4/1
f 2/4/2 5/1/2 1/3/2
f 5/1/2 2/4/2 6/2/2
f 6/4/3 7/1/3 5/3/3
f 7/1/3 6/4/3 8/2/3
f 8/4/4 3/1/4 7/3/4
f 3/1/4 8/4/4 4/2/4
f 10/7/5 5/6/5 9/5/5
f 5/6/5 10/7/5 1/8/5
f 10/11/6 12/10/6 11/9/6
f 12/10/6 10/11/6 9/12/6
f 15/11/7 14/10/7 13/9/7
f 14/10/7 15/11/7 16/12/7
f 14/9/8 10/12/8 11/10/8
f 10/12/8 14/9/8 16/11/8
f 7/8/9 16/5/9 15/7/9
f 16/5/9 7/8/9 3/6/9
f 5/8/10 15/5/10 9/7/10
f 15/5/10 5/8/10 7/6/10
f 10/5/11 3/8/11 1/6/11
f 3/8/11 10/5/11 16/7/11
f 9/11/12 17/13/12 12/9/12
f 17/13/12 9/11/12 15/12/12
f 17/13/12 15/12/12 18/14/12
f 18/14/12 15/12/12 19/15/12
f 20/16/12 12/9/12 17/13/12
f 12/9/12 20/16/12 13/10/12
f 13/10/12 20/16/12 19/15/12
f 13/10/12 19/15/12 15/12/12
f 23/19/13 22/18/13 21/17/13
f 22/18/13 23/19/13 24/20/13
f 11/23/14 22/22/14 24/21/14
f 22/22/14 11/23/14 12/24/14
f 13/23/15 23/22/15 21/21/15
f 23/22/15 13/23/15 14/24/15
f 24/22/16 14/23/16 11/24/16
f 14/23/16 24/22/16 23/21/16
f 13/24/17 22/21/17 12/23/17
f 22/21/17 13/24/17 21/22/17

usemtl brown

f 27/27/18 26/26/18 25/25/18
f 26/26/18 27/27/18 28/28/18
f 31/28/19 30/25/19 29/27/19
f 30/25/19 31/28/19 32/26/19
f 33/31/7 30/30/7 27/29/7
f 30/30/7 33/31/7 34/32/7
f 30/29/8 35/32/8 29/30/8
f 35/32/8 30/29/8 34/31/8
f 26/35/20 8/34/20 6/33/20
f 8/34/20 26/35/20 28/36/20
f 35/39/21 33/38/21 36/37/21
f 33/38/21 35/39/21 34/40/21
f 28/35/22 4/34/22 8/33/22
f 4/34/22 28/35/22 32/36/22
f 4/33/23 31/36/23 2/34/23
f 31/36/23 4/33/23 32/35/23
f 29/25/24 26/28/24 31/26/24
f 26/28/24 29/25/24 25/27/24
f 27/25/25 32/28/25 28/26/25
f 32/28/25 27/25/25 30/27/25
f 33/32/12 25/29/12 36/31/12
f 25/29/12 33/32/12 27/30/12
f 35/31/6 25/30/6 29/29/6
f 25/30/6 35/31/6 36/32/6
f 31/35/26 6/34/26 2/33/26
f 6/34/26 31/35/26 26/36/26

usemtl brownLight

f 18/14/12 20/16/12 17/13/12
f 20/16/12 18/14/12 19/15/12

