# Created by Kenney (www.kenney.nl)

mtllib bowl.mtl

g bowl

v -0.2013509 0.0430125 0.11625
v -0.2013509 0.0430125 -0.11625
v -3.356888E-16 0.0430125 0.2325
v -3.356888E-16 0.0430125 -0.2325
v 0.2013509 0.0430125 0.11625
v 0.2013509 0.0430125 -0.11625
v -0.2510765 0.2138248 -0.1449591
v -0.2199233 0.2138248 0.1269728
v -0.2510765 0.2138248 0.1449591
v -1.007066E-15 0.2138248 0.2899182
v -1.007066E-15 0.2138248 0.2539455
v 0.2510765 0.2138248 0.1449591
v 0.2199233 0.2138248 0.1269728
v 0.2199233 0.2138248 -0.1269728
v -0.2199233 0.2138248 -0.1269728
v -1.007066E-15 0.2138248 -0.2899182
v -1.007066E-15 0.2138248 -0.2539455
v 0.2510765 0.2138248 -0.1449591
v -0.133697 0 -0.07719
v -0.133697 0 0.07719
v 2.014133E-15 0 -0.15438
v 2.014133E-15 0 0.15438
v 0.133697 0 -0.07719
v 0.133697 0 0.07719
v -0.2194725 0.07788751 -0.1267125
v -3.356888E-16 0.07788751 -0.253425
v -0.2194725 0.07788751 0.1267125
v -3.356888E-16 0.07788751 0.253425
v 0.2194725 0.07788751 0.1267125
v 0.2194725 0.07788751 -0.1267125
v 0.2510765 0.1467 0.1449591
v -1.007066E-15 0.1467 0.2899182
v 0.2510765 0.1467 -0.1449591
v -1.007066E-15 0.1467 -0.2899182
v -0.2510765 0.1467 0.1449591
v -0.2510765 0.1467 -0.1449591
v -0.1825363 0.0638248 0.1053874
v -0.1825363 0.0638248 -0.1053874
v -3.356888E-16 0.0638248 0.2107748
v -3.356888E-16 0.0638248 -0.2107748
v 0.1825363 0.0638248 0.1053874
v 0.1825363 0.0638248 -0.1053874

vn 0 0.93 0
vn 0 -0.93 0
vn -0.4126208 -0.428808 -0.7146801
vn -0.8252416 -0.4288081 0
vn -0.4126208 -0.428808 0.7146801
vn 0.4126208 -0.428808 0.7146801
vn 0.4126208 -0.428808 -0.7146801
vn 0.8252416 -0.4288081 0
vn -0.249482 -0.7848153 -0.4321155
vn 0.249482 -0.7848153 0.4321155
vn -0.498964 -0.7848153 0
vn 0.498964 -0.7848153 0
vn 0.249482 -0.7848153 -0.4321155
vn -0.249482 -0.7848153 0.4321155
vn 0.465 0 0.8054036
vn 0.4225639 -0.3881483 0.7319021
vn 0.93 0 0
vn 0.8451279 -0.3881483 0
vn 0.4225639 -0.3881483 -0.7319021
vn 0.465 0 -0.8054036
vn -0.4225639 -0.3881483 0.7319021
vn -0.465 0 0.8054036
vn -0.465 0 -0.8054036
vn -0.4225639 -0.3881483 -0.7319021
vn -0.8451279 -0.3881483 0
vn -0.93 0 0
vn 0.773986 0.2572176 -0.446861
vn 0.773986 0.2572176 0.446861
vn 0 0.2572177 0.8937221
vn -0.773986 0.2572176 0.446861
vn -0.773986 0.2572176 -0.446861
vn 0 0.2572177 -0.8937221

vt 0 0

usemtl _defaultMat

f 3/1/1 2/1/1 1/1/1
f 2/1/1 3/1/1 4/1/1
f 4/1/1 3/1/1 5/1/1
f 4/1/1 5/1/1 6/1/1
f 9/1/1 8/1/1 7/1/1
f 8/1/1 9/1/1 10/1/1
f 8/1/1 10/1/1 11/1/1
f 11/1/1 10/1/1 12/1/1
f 11/1/1 12/1/1 13/1/1
f 13/1/1 12/1/1 14/1/1
f 15/1/1 7/1/1 8/1/1
f 7/1/1 15/1/1 16/1/1
f 16/1/1 15/1/1 17/1/1
f 16/1/1 17/1/1 14/1/1
f 16/1/1 14/1/1 18/1/1
f 18/1/1 14/1/1 12/1/1
f 21/1/2 20/1/2 19/1/2
f 20/1/2 21/1/2 22/1/2
f 22/1/2 21/1/2 23/1/2
f 22/1/2 23/1/2 24/1/2
f 25/1/3 4/1/3 2/1/3
f 4/1/3 25/1/3 26/1/3
f 25/1/4 1/1/4 27/1/4
f 1/1/4 25/1/4 2/1/4
f 28/1/5 1/1/5 3/1/5
f 1/1/5 28/1/5 27/1/5
f 29/1/6 3/1/6 5/1/6
f 3/1/6 29/1/6 28/1/6
f 26/1/7 6/1/7 4/1/7
f 6/1/7 26/1/7 30/1/7
f 5/1/8 30/1/8 29/1/8
f 30/1/8 5/1/8 6/1/8
f 4/1/9 19/1/9 2/1/9
f 19/1/9 4/1/9 21/1/9
f 22/1/10 5/1/10 3/1/10
f 5/1/10 22/1/10 24/1/10
f 19/1/11 1/1/11 2/1/11
f 1/1/11 19/1/11 20/1/11
f 6/1/12 24/1/12 23/1/12
f 24/1/12 6/1/12 5/1/12
f 6/1/13 21/1/13 4/1/13
f 21/1/13 6/1/13 23/1/13
f 20/1/14 3/1/14 1/1/14
f 3/1/14 20/1/14 22/1/14
f 12/1/15 32/1/15 31/1/15
f 32/1/15 12/1/15 10/1/15
f 31/1/16 28/1/16 29/1/16
f 28/1/16 31/1/16 32/1/16
f 33/1/17 12/1/17 31/1/17
f 12/1/17 33/1/17 18/1/17
f 29/1/18 33/1/18 31/1/18
f 33/1/18 29/1/18 30/1/18
f 34/1/19 30/1/19 26/1/19
f 30/1/19 34/1/19 33/1/19
f 16/1/20 33/1/20 34/1/20
f 33/1/20 16/1/20 18/1/20
f 32/1/21 27/1/21 28/1/21
f 27/1/21 32/1/21 35/1/21
f 10/1/22 35/1/22 32/1/22
f 35/1/22 10/1/22 9/1/22
f 7/1/23 34/1/23 36/1/23
f 34/1/23 7/1/23 16/1/23
f 36/1/24 26/1/24 25/1/24
f 26/1/24 36/1/24 34/1/24
f 36/1/25 27/1/25 35/1/25
f 27/1/25 36/1/25 25/1/25
f 7/1/26 35/1/26 9/1/26
f 35/1/26 7/1/26 36/1/26
f 39/1/1 38/1/1 37/1/1
f 38/1/1 39/1/1 40/1/1
f 40/1/1 39/1/1 41/1/1
f 40/1/1 41/1/1 42/1/1
f 37/1/27 15/1/28 8/1/27
f 15/1/28 37/1/27 38/1/28
f 38/1/28 17/1/29 15/1/28
f 17/1/29 38/1/28 40/1/29
f 40/1/29 14/1/30 17/1/29
f 14/1/30 40/1/29 42/1/30
f 41/1/31 14/1/30 42/1/30
f 14/1/30 41/1/31 13/1/31
f 41/1/31 11/1/32 13/1/31
f 11/1/32 41/1/31 39/1/32
f 8/1/27 39/1/32 37/1/27
f 39/1/32 8/1/27 11/1/32

