# Created by Kenney (www.kenney.nl)

mtllib bowlCereal.mtl

g bowlCereal

v -0.2199233 0.2138248 0.1269728
v -0.2199233 0.2138248 -0.1269728
v -0.2001302 0.1787248 0.1155452
v -0.2001302 0.1787248 -0.1155452
v -1.443823E-15 0.0430125 0.2325
v 0.2013509 0.0430125 0.11625
v 0 0 0.15438
v 0.133697 0 0.07719
v -1.443823E-15 0.0778875 -0.253425
v 0.2194725 0.0778875 -0.1267125
v -2.165734E-15 0.1467 -0.2899182
v 0.2510765 0.1467 -0.1449591
v -2.165734E-15 0.1467 0.2899182
v -0.2510765 0.1467 0.1449591
v -2.165734E-15 0.2138248 0.2899182
v -0.2510765 0.2138248 0.1449591
v 0.2194725 0.0778875 0.1267125
v -1.443823E-15 0.0778875 0.253425
v 0.2510765 0.1467 0.1449591
v -1.443823E-15 0.0430125 -0.2325
v 0 0 -0.15438
v 0.2013509 0.0430125 -0.11625
v 0.133697 0 -0.07719
v -0.2194725 0.0778875 0.1267125
v -0.2510765 0.1467 -0.1449591
v -0.2194725 0.0778875 -0.1267125
v -0.2013509 0.0430125 -0.11625
v -0.2013509 0.0430125 0.11625
v -0.133697 0 -0.07719
v -0.133697 0 0.07719
v -0.2510765 0.2138248 -0.1449591
v -2.165734E-15 0.2138248 0.2539455
v 0.2510765 0.2138248 0.1449591
v 0.2199233 0.2138248 0.1269728
v 0.2199233 0.2138248 -0.1269728
v -2.165734E-15 0.2138248 -0.2899182
v -2.165734E-15 0.2138248 -0.2539455
v 0.2510765 0.2138248 -0.1449591
v 0.2001302 0.1787248 -0.1155452
v -2.165734E-15 0.1787248 -0.2310904
v -2.165734E-15 0.1787248 0.2310904
v 0.2001302 0.1787248 0.1155452
v -0.03488602 0.3279188 0.2724838
v 0.01844143 0.3279188 0.2724838
v -0.0390528 0.400921 0.3342562
v 0.02260821 0.400921 0.3342562
v -0.02452059 0.1787248 0.2035912
v 0.008075993 0.1787248 0.2035912
v -0.1623988 0.1787248 0.09376101
v -2.165734E-15 0.1787248 0.187522
v 0.1623988 0.1787248 0.09376101
v 0.1623988 0.1787248 -0.09376101
v -0.1623988 0.1787248 -0.09376101
v -2.165734E-15 0.1787248 -0.187522
v -0.008222297 0.4192776 0.344646
v -0.09094334 0.2087248 0.05250616
v -0.09094334 0.2087248 -0.05250616
v -1.443823E-15 0.2087248 0.1050123
v -0.06524038 0.2087248 -0.03229403
v -0.04524037 0.2087248 -0.01229403
v -0.0130281 0.2087248 0.04734578
v -0.02524037 0.2087248 -0.03229403
v 0.0069719 0.2087248 0.06734578
v 0.09094334 0.2087248 0.05250616
v 0.0269719 0.2087248 0.04734578
v 0.0400014 0.2087248 -0.008827683
v 0.0600014 0.2087248 -0.02882768
v -1.443823E-15 0.2087248 -0.1050123
v -0.04524037 0.2087248 -0.05229403
v 0.0069719 0.2087248 0.02734578
v 0.0200014 0.2087248 -0.02882768
v 0.0400014 0.2087248 -0.04882768
v 0.09094334 0.2087248 -0.05250616

vn 0.8710517 0.4911911 0
vn 0.2682602 -0.8438873 0.4646403
vn 0.4543698 -0.4173637 -0.7869915
vn -0.5 0 0.8660254
vn 0.4543698 -0.4173637 0.7869915
vn 0.2682602 -0.8438873 -0.4646403
vn 0.9087396 -0.4173637 0
vn -0.9087396 -0.4173637 0
vn -0.5365204 -0.8438873 0
vn 0 1 0
vn -0.4543698 -0.4173637 0.7869915
vn -0.4355259 0.4911912 0.754353
vn 0 -1 0
vn 0.5 0 0.8660254
vn -0.5 0 -0.8660254
vn 0.5 0 -0.8660254
vn -0.4355259 0.4911912 -0.754353
vn 1 0 0
vn -0.2682602 -0.8438873 -0.4646403
vn -0.2682602 -0.8438873 0.4646403
vn -0.8710517 0.4911911 0
vn -1 0 0
vn 0.4355259 0.4911912 0.754353
vn -0.4543698 -0.4173637 -0.7869915
vn 0.5365204 -0.8438873 0
vn 0.4355259 0.4911912 -0.754353
vn 0 0.6459504 -0.7633793
vn 0 -0.6459504 0.7633793
vn 0 0.4192278 -0.9078811
vn 0 -0.4192278 0.9078811
vn -0.4436782 -0.4610839 -0.7684733
vn -0.4436782 -0.4610839 0.7684733
vn -0.8873565 -0.461084 0
vn 0.4436782 -0.4610839 0.7684733
vn 0.8873565 -0.461084 0
vn 0.4436782 -0.4610839 -0.7684733
vn 0 0.4925717 -0.8702719
vn -0.1935543 0.9220342 -0.3352458
vn -0.1935543 0.9220342 0.3352458
vn 0.1935543 0.9220342 0.3352458
vn 0.3871085 0.9220342 0
vn 0.1935543 0.9220342 -0.3352458
vn -0.3871085 0.9220342 0

vt -4.998928 11.5857
vt 4.998928 11.5857
vt -4.549025 9.999242
vt 4.549025 9.999242
vt -4.576772 7.598211
vt 4.576772 7.598211
vt -3.038976 4.441937
vt 3.038976 4.441937
vt 4.988681 6.392886
vt -4.988681 6.392886
vt 5.707051 9.374107
vt -5.707051 9.374107
vt 5.707051 5.77559
vt -5.707051 5.77559
vt 5.707051 8.418299
vt -5.707051 8.418299
vt -9.884903 5.707051
vt -8.658398 -4.998928
vt -9.884903 -5.707051
vt -8.526513E-14 -11.4141
vt -8.526513E-14 -9.997856
vt 9.884903 -5.707051
vt 8.658398 -4.998928
vt 8.658398 4.998928
vt -8.658398 4.998928
vt -8.526513E-14 11.4141
vt -8.526513E-14 9.997856
vt 9.884903 5.707051
vt 5.263661 3.038976
vt 5.263661 -3.038976
vt 0 6.077953
vt 0 -6.077953
vt -5.263661 3.038976
vt -5.263661 -3.038976
vt 1.373465 16.78494
vt -0.7260405 16.78494
vt 1.537512 20.54991
vt -0.8900869 20.54991
vt 0.9653774 9.748503
vt -0.3179525 9.748503
vt 1.373465 16.21827
vt -0.7260405 16.21827
vt 4.576772 5.15776
vt -4.576772 5.15776
vt 4.988681 6.705088
vt -4.988681 6.705088
vt 1.061886 -1.864007
vt 0.2744842 -2.651409
vt 0.2744842 -1.076606
vt -3.580447 -2.067172
vt -3.580447 2.067172
vt -5.684342E-14 -4.134344
vt -2.568519 1.271419
vt -1.781117 0.484017
vt -0.5129173 -1.864007
vt -0.9937154 1.271419
vt 3.580447 -2.067172
vt 1.574858 0.3475466
vt 2.36226 1.134948
vt -5.684342E-14 4.134344
vt -1.781117 2.05882
vt 0.7874568 1.134948
vt 1.574858 1.92235
vt 3.580447 2.067172
vt 3.691378 -3.171314
vt -3.691378 -3.171314
vt 2.067172 -0.1202256
vt -2.067172 -0.1202256

usemtl greyLight

f 3/3/1 2/2/1 1/1/1
f 2/2/1 3/3/1 4/4/1
f 7/7/2 6/6/2 5/5/2
f 6/6/2 7/7/2 8/8/2
f 11/11/3 10/10/3 9/9/3
f 10/10/3 11/11/3 12/12/3
f 15/15/4 14/14/4 13/13/4
f 14/14/4 15/15/4 16/16/4
f 19/11/5 18/10/5 17/9/5
f 18/10/5 19/11/5 13/12/5
f 22/5/6 21/8/6 20/6/6
f 21/8/6 22/5/6 23/7/6
f 17/10/7 12/11/7 19/12/7
f 12/11/7 17/10/7 10/9/7
f 25/12/8 24/9/8 14/11/8
f 24/9/8 25/12/8 26/10/8
f 29/7/9 28/6/9 27/5/9
f 28/6/9 29/7/9 30/8/9
f 16/19/10 1/18/10 31/17/10
f 1/18/10 16/19/10 15/20/10
f 1/18/10 15/20/10 32/21/10
f 32/21/10 15/20/10 33/22/10
f 32/21/10 33/22/10 34/23/10
f 34/23/10 33/22/10 35/24/10
f 2/25/10 31/17/10 1/18/10
f 31/17/10 2/25/10 36/26/10
f 36/26/10 2/25/10 37/27/10
f 36/26/10 37/27/10 35/24/10
f 36/26/10 35/24/10 38/28/10
f 38/28/10 35/24/10 33/22/10
f 13/11/11 24/10/11 18/9/11
f 24/10/11 13/11/11 14/12/11
f 35/2/12 40/3/12 39/4/12
f 40/3/12 35/2/12 37/1/12
f 21/31/13 30/30/13 29/29/13
f 30/30/13 21/31/13 7/32/13
f 7/32/13 21/31/13 23/33/13
f 7/32/13 23/33/13 8/34/13
f 33/15/14 13/14/14 19/13/14
f 13/14/14 33/15/14 15/16/14
f 31/15/15 11/14/15 25/13/15
f 11/14/15 31/15/15 36/16/15
f 36/15/16 12/14/16 11/13/16
f 12/14/16 36/15/16 38/16/16
f 32/2/17 42/3/17 41/4/17
f 42/3/17 32/2/17 34/1/17
f 12/13/18 33/16/18 19/14/18
f 33/16/18 12/13/18 38/15/18
f 20/5/19 29/8/19 27/6/19
f 29/8/19 20/5/19 21/7/19
f 30/7/20 5/6/20 28/5/20
f 5/6/20 30/7/20 7/8/20
f 35/1/21 42/4/21 34/2/21
f 42/4/21 35/1/21 39/3/21
f 31/16/22 14/13/22 16/15/22
f 14/13/22 31/16/22 25/14/22
f 37/2/23 4/3/23 40/4/23
f 4/3/23 37/2/23 2/1/23
f 25/11/24 9/10/24 26/9/24
f 9/10/24 25/11/24 11/12/24
f 22/6/25 8/7/25 23/8/25
f 8/7/25 22/6/25 6/5/25
f 1/2/26 41/3/26 3/4/26
f 41/3/26 1/2/26 32/1/26
f 45/37/27 44/36/27 43/35/27
f 44/36/27 45/37/27 46/38/27
f 43/35/28 44/36/28 45/37/28
f 46/38/28 45/37/28 44/36/28
f 43/41/29 48/40/29 47/39/29
f 48/40/29 43/41/29 44/42/29
f 47/39/30 48/40/30 43/41/30
f 44/42/30 43/41/30 48/40/30

usemtl green

f 26/45/31 20/44/31 27/43/31
f 20/44/31 26/45/31 9/46/31
f 18/45/32 28/44/32 5/43/32
f 28/44/32 18/45/32 24/46/32
f 26/46/33 28/43/33 24/45/33
f 28/43/33 26/46/33 27/44/33
f 17/45/34 5/44/34 6/43/34
f 5/44/34 17/45/34 18/46/34
f 6/44/35 10/45/35 17/46/35
f 10/45/35 6/44/35 22/43/35
f 9/45/36 22/44/36 20/43/36
f 22/44/36 9/45/36 10/46/36

usemtl _defaultMat

f 3/10/10 49/11/10 4/12/10
f 49/10/10 3/11/10 41/12/10
f 49/10/10 41/11/10 50/12/10
f 50/10/10 41/11/10 42/12/10
f 50/10/10 42/11/10 51/12/10
f 51/10/10 42/11/10 52/12/10
f 4/10/10 53/11/10 40/12/10
f 53/10/10 4/11/10 49/12/10
f 40/10/10 53/11/10 54/12/10
f 40/10/10 52/11/10 39/12/10
f 40/10/10 54/11/10 52/12/10
f 39/10/10 52/11/10 42/12/10
f 55/49/37 46/48/37 45/47/37

usemtl yellow

f 58/52/10 57/51/10 56/50/10
f 57/51/10 58/52/10 59/53/10
f 59/53/10 58/52/10 60/54/10
f 60/54/10 58/52/10 61/55/10
f 60/54/10 61/55/10 62/56/10
f 61/55/10 58/52/10 63/48/10
f 63/48/10 58/52/10 64/57/10
f 63/48/10 64/57/10 65/47/10
f 65/47/10 64/57/10 66/58/10
f 66/58/10 64/57/10 67/59/10
f 59/53/10 68/60/10 57/51/10
f 68/60/10 62/56/10 61/55/10
f 68/60/10 59/53/10 69/61/10
f 68/60/10 69/61/10 62/56/10
f 68/60/10 61/55/10 70/49/10
f 68/60/10 70/49/10 71/62/10
f 65/47/10 71/62/10 70/49/10
f 71/62/10 65/47/10 66/58/10
f 68/60/10 71/62/10 72/63/10
f 68/60/10 72/63/10 73/64/10
f 73/64/10 72/63/10 67/59/10
f 73/64/10 67/59/10 64/57/10
f 57/67/38 54/66/38 53/65/38
f 54/66/38 57/67/38 68/68/38
f 50/65/39 56/68/39 49/66/39
f 56/68/39 50/65/39 58/67/39
f 51/65/40 58/68/40 50/66/40
f 58/68/40 51/65/40 64/67/40
f 51/66/41 73/67/41 64/68/41
f 73/67/41 51/66/41 52/65/41
f 68/67/42 52/66/42 54/65/42
f 52/66/42 68/67/42 73/68/42
f 56/67/43 53/66/43 49/65/43
f 53/66/43 56/67/43 57/68/43

usemtl pink

f 63/48/10 70/49/10 61/55/10
f 70/49/10 63/48/10 65/47/10
f 60/54/10 69/61/10 59/53/10
f 69/61/10 60/54/10 62/56/10
f 66/58/10 72/63/10 71/62/10
f 72/63/10 66/58/10 67/59/10

