# Created by Kenney (www.kenney.nl)

mtllib burgerCheese.mtl

g bunBottom

v 0 0 -0.18
v 0.1272792 0 -0.1272792
v 0 0.04 -0.18
v 0.1272792 0.04 -0.1272792
v -2.255973E-17 0 0.18
v -0.1272792 0 0.1272792
v -2.255973E-17 0.04 0.18
v -0.1272792 0.04 0.1272792
v -0.1272792 0 -0.1272792
v -0.1272792 0.04 -0.1272792
v -0.18 0 0
v 0.1272792 0 0.1272792
v 0.18 0 0
v -0.18 0.04 0
v 0.1272792 0.04 0.1272792
v 0.18 0.04 0

vn 0.3826834 0 -0.9238795
vn -0.3826834 0 0.9238795
vn -0.3826834 0 -0.9238795
vn 0.3826834 0 0.9238795
vn 0 -1 0
vn 0 1 0
vn -0.9238795 0 0.3826834
vn 0.9238795 0 -0.3826834
vn 0.9238795 0 0.3826834
vn -0.9238795 0 -0.3826834

vt 2.71193 0
vt -2.71193 0
vt 2.71193 1.574803
vt -2.71193 1.574803
vt 7.086614 0
vt 5.010993 -5.010993
vt 5.010993 5.010993
vt 8.881784E-16 -7.086614
vt 0 7.086614
vt -5.010993 -5.010993
vt -5.010993 5.010993
vt -7.086614 0
vt -8.881784E-16 -7.086614

usemtl brownLight

f 3/3/1 2/2/1 1/1/1
f 2/2/1 3/3/1 4/4/1
f 1/1/2 2/2/2 3/3/2
f 4/4/2 3/3/2 2/2/2
f 7/3/2 6/2/2 5/1/2
f 6/2/2 7/3/2 8/4/2
f 5/1/1 6/2/1 7/3/1
f 8/4/1 7/3/1 6/2/1
f 10/3/3 1/2/3 9/1/3
f 1/2/3 10/3/3 3/4/3
f 9/1/4 1/2/4 10/3/4
f 3/4/4 10/3/4 1/2/4
f 9/7/5 6/6/5 11/5/5
f 6/6/5 9/7/5 5/8/5
f 5/8/5 9/7/5 1/9/5
f 5/8/5 1/9/5 12/10/5
f 12/10/5 1/9/5 2/11/5
f 12/10/5 2/11/5 13/12/5
f 11/5/6 6/6/6 9/7/6
f 5/8/6 9/7/6 6/6/6
f 1/9/6 9/7/6 5/8/6
f 12/10/6 1/9/6 5/8/6
f 2/11/6 1/9/6 12/10/6
f 13/12/6 2/11/6 12/10/6
f 14/4/7 6/1/7 8/3/7
f 6/1/7 14/4/7 11/2/7
f 8/3/8 6/1/8 14/4/8
f 11/2/8 14/4/8 6/1/8
f 15/3/4 5/2/4 12/1/4
f 5/2/4 15/3/4 7/4/4
f 12/1/3 5/2/3 15/3/3
f 7/4/3 15/3/3 5/2/3
f 13/1/9 15/4/9 12/2/9
f 15/4/9 13/1/9 16/3/9
f 12/2/10 15/4/10 13/1/10
f 16/3/10 13/1/10 15/4/10
f 2/1/8 16/4/8 13/2/8
f 16/4/8 2/1/8 4/3/8
f 13/2/7 16/4/7 2/1/7
f 4/3/7 2/1/7 16/4/7
f 10/4/10 11/1/10 14/3/10
f 11/1/10 10/4/10 9/2/10
f 14/3/9 11/1/9 10/4/9
f 9/2/9 10/4/9 11/1/9
f 8/10/6 10/11/6 14/12/6
f 10/11/6 8/10/6 7/13/6
f 10/11/6 7/13/6 3/9/6
f 3/9/6 7/13/6 15/6/6
f 3/9/6 15/6/6 4/7/6
f 4/7/6 15/6/6 16/5/6
f 14/12/5 10/11/5 8/10/5
f 7/13/5 8/10/5 10/11/5
f 3/9/5 7/13/5 10/11/5
f 15/6/5 7/13/5 3/9/5
f 4/7/5 15/6/5 3/9/5
f 16/5/5 15/6/5 4/7/5

g bunTop

v -0.07956 0.22 1.082867E-15
v -0.05625741 0.22 -0.05625741
v -0.05625741 0.22 0.05625741
v 0 0.22 0.07956
v 0 0.22 -0.07956
v 0.05625741 0.22 0.05625741
v 0.05625741 0.22 -0.05625741
v 0.07956 0.22 1.082867E-15
v -0.18 0.1 0
v -0.1272792 0.1 0.1272792
v -0.1272792 0.1 -0.1272792
v 0 0.1 -0.18
v 0 0.1 0.18
v 0.1272792 0.1 -0.1272792
v 0.1272792 0.1 0.1272792
v 0.18 0.1 0
v 0.1872 0.13 0
v 0.1323704 0.13 -0.1323704
v 0.1323704 0.13 0.1323704
v 0 0.13 0.1872
v -0.1323704 0.13 0.1323704
v -0.1872 0.13 0
v -0.1323704 0.13 -0.1323704
v 0 0.13 -0.1872
v -0.15912 0.19 1.082867E-15
v -0.1125148 0.19 -0.1125148
v 0.15912 0.19 1.082867E-15
v 0.1125148 0.19 -0.1125148
v 0 0.19 0.15912
v -0.1125148 0.19 0.1125148
v 0 0.19 -0.15912
v 0.1125148 0.19 0.1125148

vn 0.9019729 -0.2164735 -0.3736094
vn 0.3736094 -0.2164735 0.9019729
vn -0.9019729 -0.2164735 0.3736094
vn -0.3736094 -0.2164735 -0.9019729
vn 0.9019729 -0.2164735 0.3736094
vn -0.9019729 -0.2164735 -0.3736094
vn -0.3736094 -0.2164735 0.9019729
vn 0.3736094 -0.2164735 -0.9019729
vn -0.9057198 0.4238769 0
vn -0.6404406 0.4238769 -0.6404406
vn 0.9057198 0.4238769 0
vn 0.6404406 0.4238769 -0.6404406
vn 0 0.4238769 0.9057198
vn -0.6404406 0.4238769 0.6404406
vn 0 0.4238769 -0.9057198
vn 0.6404406 0.4238769 0.6404406
vn -0.3528242 0.9356896 0
vn -0.2494843 0.9356896 -0.2494843
vn 0 0.9356896 0.3528242
vn 0.2494843 0.9356896 0.2494843
vn -0.2494843 0.9356896 0.2494843
vn 0 0.9356896 -0.3528242
vn 0.2494843 0.9356896 -0.2494843
vn 0.3528242 0.9356896 0

vt -3.132283 -4.263256E-14
vt -2.214859 2.214859
vt -2.214859 -2.214859
vt 0 -3.132283
vt 0 3.132283
vt 2.214859 -2.214859
vt 2.214859 2.214859
vt 3.132283 -4.263256E-14
vt 0 -7.086614
vt -2.71193 1.417291
vt -2.820407 2.627079
vt 2.71193 1.417291
vt 2.820407 2.627079
vt 2.397346 0.9553662
vt 2.820407 -1.618189
vt -2.397346 0.9553662
vt -2.820407 -1.618189
vt 2.397346 -4.019629
vt -2.397346 -4.019629
vt 1.198673 -0.8940268
vt -1.198673 -0.8940268

usemtl brownLight

f 19/16/6 18/15/6 17/14/6
f 18/15/6 19/16/6 20/17/6
f 18/15/6 20/17/6 21/18/6
f 21/18/6 20/17/6 22/19/6
f 21/18/6 22/19/6 23/20/6
f 23/20/6 22/19/6 24/21/6
f 27/7/5 26/6/5 25/5/5
f 26/6/5 27/7/5 28/9/5
f 26/6/5 28/9/5 29/22/5
f 29/22/5 28/9/5 30/11/5
f 29/22/5 30/11/5 31/10/5
f 31/10/5 30/11/5 32/12/5
f 30/25/11 33/24/11 32/23/11
f 33/24/11 30/25/11 34/26/11
f 35/26/12 29/23/12 31/25/12
f 29/23/12 35/26/12 36/24/12
f 38/24/13 26/25/13 37/26/13
f 26/25/13 38/24/13 25/23/13
f 39/26/14 28/23/14 27/25/14
f 28/23/14 39/26/14 40/24/14
f 31/23/15 33/26/15 35/24/15
f 33/26/15 31/23/15 32/25/15
f 39/24/16 25/25/16 38/26/16
f 25/25/16 39/24/16 27/23/16
f 36/26/17 26/23/17 29/25/17
f 26/23/17 36/26/17 37/24/17
f 40/26/18 30/23/18 28/25/18
f 30/23/18 40/26/18 34/24/18
f 42/29/20 38/28/19 41/27/19
f 38/28/19 42/29/20 39/30/20
f 33/30/21 44/27/22 43/29/21
f 44/27/22 33/30/21 34/28/22
f 45/27/23 37/30/24 36/28/23
f 37/30/24 45/27/23 46/29/24
f 42/27/20 40/30/25 39/28/20
f 40/30/25 42/27/20 47/29/25
f 46/27/24 38/30/19 37/28/24
f 38/30/19 46/27/24 41/29/19
f 47/27/25 34/30/22 40/28/25
f 34/30/22 47/27/25 44/29/22
f 48/27/26 36/30/23 35/28/26
f 36/30/23 48/27/26 45/29/23
f 33/28/21 48/29/26 35/30/26
f 48/29/26 33/28/21 43/27/21
f 17/33/27 42/32/28 41/31/27
f 42/32/28 17/33/27 18/34/28
f 48/31/30 20/34/29 45/32/29
f 20/34/29 48/31/30 22/33/30
f 46/31/31 17/34/27 41/32/27
f 17/34/27 46/31/31 19/33/31
f 18/33/28 47/32/32 42/31/28
f 47/32/32 18/33/28 21/34/32
f 23/34/33 47/31/32 21/33/32
f 47/31/32 23/34/33 44/32/33
f 48/32/30 24/33/34 22/34/30
f 24/33/34 48/32/30 43/31/34
f 45/31/29 19/34/31 46/32/31
f 19/34/31 45/31/29 20/33/29
f 24/34/34 44/31/33 23/33/33
f 44/31/33 24/34/34 43/32/34

g cheese

v -0.09405734 0.09559999 0.171
v -0.1238485 0.0556 0.1426984
v -0.1536396 0.09559999 0.1143968
v -0.1536396 0.09559999 -0.1143968
v -0.09405734 0.09559999 -0.171
v 0.09405734 0.09559999 0.171
v 0.09405734 0.09559999 -0.171
v 0.1536396 0.09559999 0.1143968
v 0.1536396 0.09559999 -0.1143968
v 0.1238485 0.0556 0.1426984
v -0.1238485 0.0556 -0.1426984
v 0.1238485 0.0556 -0.1426984

vn -2.461079 0 0.674141
vn 2.461079 0 0.674141
vn -2.461079 0 -0.674141
vn 2.461079 0 -0.674141

vt 3.535168 1.574803
vt 2.64765 -5.367994E-16
vt 1.760133 1.574803
vt -2.165354 -3.16057
vt -2.165354 3.16057
vt -1.325618 -4.72441
vt -1.325618 4.72441
vt 1.325618 -4.72441
vt 1.325618 4.72441
vt 2.165354 -3.16057
vt 2.165354 3.16057
vt -2.64765 -1.760267E-15
vt -3.535168 1.574803
vt -1.760133 1.574803
vt -2.64765 -1.111915E-16
vt 2.64765 8.102815E-16

usemtl yellow

f 51/37/35 50/36/35 49/35/35
f 49/40/6 52/39/6 51/38/6
f 52/39/6 49/40/6 53/41/6
f 53/41/6 49/40/6 54/42/6
f 53/41/6 54/42/6 55/43/6
f 55/43/6 54/42/6 56/44/6
f 55/43/6 56/44/6 57/45/6
f 56/48/36 54/47/36 58/46/36
f 53/47/37 59/49/37 52/48/37
f 55/35/38 57/37/38 60/50/38

g patty

v -0.18 0.04 -9.023893E-17
v 3.609557E-16 0.04 -0.18
v 3.609557E-16 0.04 0.18
v 0.18 0.04 -9.023893E-17
v -0.18 0.0856 -9.023893E-17
v -0.1272792 0.0856 -0.1272792
v -0.1272792 0.0856 0.1272792
v 3.609557E-16 0.0856 0.18
v 3.609557E-16 0.0856 -0.18
v 0.1272792 0.0856 0.1272792
v 0.1272792 0.0856 -0.1272792
v 0.18 0.0856 -9.023893E-17
v -0.189 0.0628 -9.023893E-17
v -0.1336432 0.0628 -0.1336432
v 3.609557E-16 0.0628 -0.189
v 0.1336432 0.0628 -0.1336432
v 0.189 0.0628 -9.023893E-17
v -0.1336432 0.0628 0.1336432
v 3.609557E-16 0.0628 0.189
v 0.1336432 0.0628 0.1336432

vn 0 -1.14 0
vn 0 1.14 0
vn -0.8530905 0.4376354 -0.3533616
vn 0.8530905 -0.4376354 0.3533616
vn 0.3533616 -0.4376354 -0.8530905
vn -0.3533616 0.4376354 0.8530905
vn 0.8530905 -0.4376354 -0.3533616
vn -0.8530905 0.4376354 0.3533616
vn 0.3533616 -0.4376354 0.8530905
vn -0.3533616 0.4376354 -0.8530905
vn -0.8530905 -0.4376354 0.3533616
vn 0.8530905 0.4376354 -0.3533616
vn 0.8530905 0.4376354 0.3533616
vn -0.8530905 -0.4376354 -0.3533616
vn 0.3533616 0.4376354 0.8530905
vn -0.3533616 -0.4376354 -0.8530905
vn 0.3533616 0.4376354 -0.8530905
vn -0.3533616 -0.4376354 0.8530905

vt 7.086614 3.552714E-15
vt -1.421085E-14 7.086614
vt -1.421085E-14 -7.086614
vt -7.086614 3.552714E-15
vt 1.421085E-14 -7.086614
vt 1.421085E-14 7.086614
vt 2.71193 -1.059261
vt 2.847526 -1.912001
vt -2.71193 -1.059261
vt -2.847526 -1.912001
vt 2.71193 2.513401
vt -2.71193 2.513401
vt 2.847526 3.366141
vt -2.847526 3.366141
vt -7.440945 3.552714E-15
vt -5.261543 5.261543
vt -5.261543 -5.261543
vt 1.421085E-14 -7.440945
vt 1.421085E-14 7.440945
vt 5.261543 -5.261543
vt 5.261543 5.261543
vt 7.440945 3.552714E-15

usemtl brownDark

f 10/7/39 8/6/39 61/51/39
f 8/6/39 10/7/39 62/52/39
f 8/6/39 62/52/39 63/53/39
f 63/53/39 62/52/39 4/11/39
f 63/53/39 4/11/39 15/10/39
f 15/10/39 4/11/39 64/54/39
f 61/51/40 8/6/40 10/7/40
f 62/52/40 10/7/40 8/6/40
f 63/53/40 62/52/40 8/6/40
f 4/11/40 62/52/40 63/53/40
f 15/10/40 4/11/40 63/53/40
f 64/54/40 4/11/40 15/10/40
f 67/10/40 66/11/40 65/54/40
f 66/11/40 67/10/40 68/55/40
f 66/11/40 68/55/40 69/56/40
f 69/56/40 68/55/40 70/6/40
f 69/56/40 70/6/40 71/7/40
f 71/7/40 70/6/40 72/51/40
f 65/54/39 66/11/39 67/10/39
f 68/55/39 67/10/39 66/11/39
f 69/56/39 68/55/39 66/11/39
f 70/6/39 68/55/39 69/56/39
f 71/7/39 70/6/39 69/56/39
f 72/51/39 70/6/39 71/7/39
f 66/59/41 73/58/41 65/57/41
f 73/58/41 66/59/41 74/60/41
f 65/57/42 73/58/42 66/59/42
f 74/60/42 66/59/42 73/58/42
f 75/63/43 4/62/43 62/61/43
f 4/62/43 75/63/43 76/64/43
f 62/61/44 4/62/44 75/63/44
f 76/64/44 75/63/44 4/62/44
f 4/61/45 77/64/45 64/62/45
f 77/64/45 4/61/45 76/63/45
f 64/62/46 77/64/46 4/61/46
f 76/63/46 4/61/46 77/64/46
f 78/67/40 74/66/40 73/65/40
f 74/66/40 78/67/40 79/68/40
f 74/66/40 79/68/40 75/69/40
f 75/69/40 79/68/40 80/70/40
f 75/69/40 80/70/40 76/71/40
f 76/71/40 80/70/40 77/72/40
f 73/65/39 74/66/39 78/67/39
f 79/68/39 78/67/39 74/66/39
f 75/69/39 79/68/39 74/66/39
f 80/70/39 79/68/39 75/69/39
f 76/71/39 80/70/39 75/69/39
f 77/72/39 80/70/39 76/71/39
f 80/63/47 63/62/47 15/61/47
f 63/62/47 80/63/47 79/64/47
f 15/61/48 63/62/48 80/63/48
f 79/64/48 80/63/48 63/62/48
f 68/57/44 78/60/44 79/58/44
f 78/60/44 68/57/44 67/59/44
f 79/58/43 78/60/43 68/57/43
f 67/59/43 68/57/43 78/60/43
f 73/64/49 8/61/49 78/63/49
f 8/61/49 73/64/49 61/62/49
f 78/63/50 8/61/50 73/64/50
f 61/62/50 73/64/50 8/61/50
f 77/58/51 70/59/51 80/60/51
f 70/59/51 77/58/51 72/57/51
f 80/60/52 70/59/52 77/58/52
f 72/57/52 77/58/52 70/59/52
f 70/57/53 79/60/53 80/58/53
f 79/60/53 70/57/53 68/59/53
f 80/58/54 79/60/54 70/57/54
f 68/59/54 70/57/54 79/60/54
f 69/57/55 76/60/55 75/58/55
f 76/60/55 69/57/55 71/59/55
f 75/58/56 76/60/56 69/57/56
f 71/59/56 69/57/56 76/60/56
f 74/63/54 62/62/54 10/61/54
f 62/62/54 74/63/54 75/64/54
f 10/61/53 62/62/53 74/63/53
f 75/64/53 74/63/53 62/62/53
f 15/62/42 77/63/42 80/64/42
f 77/63/42 15/62/42 64/61/42
f 80/64/41 77/63/41 15/62/41
f 64/61/41 15/62/41 77/63/41
f 67/57/46 73/60/46 78/58/46
f 73/60/46 67/57/46 65/59/46
f 78/58/45 73/60/45 67/57/45
f 65/59/45 67/57/45 73/60/45
f 76/58/50 72/59/50 77/60/50
f 72/59/50 76/58/50 71/57/50
f 77/60/49 72/59/49 76/58/49
f 71/57/49 76/58/49 72/59/49
f 74/64/52 61/61/52 73/63/52
f 61/61/52 74/64/52 10/62/52
f 73/63/51 61/61/51 74/64/51
f 10/62/51 74/64/51 61/61/51
f 79/63/56 8/62/56 63/61/56
f 8/62/56 79/63/56 78/64/56
f 63/61/55 8/62/55 79/63/55
f 78/64/55 79/63/55 8/62/55
f 66/57/48 75/60/48 74/58/48
f 75/60/48 66/57/48 69/59/48
f 74/58/47 75/60/47 66/57/47
f 69/59/47 66/57/47 75/60/47

