# Created by Kenney (www.kenney.nl)

mtllib burger.mtl

g bunBottom

v 0 0 -0.18
v 0.1272792 0 -0.1272792
v 0 0.04 -0.18
v 0.1272792 0.04 -0.1272792
v 0 0 0.18
v -0.1272792 0 0.1272792
v 0 0.04 0.18
v -0.1272792 0.04 0.1272792
v -0.1272792 0 -0.1272792
v -0.1272792 0.04 -0.1272792
v -0.18 0 0
v 0.1272792 0 0.1272792
v 0.18 0 0
v -0.18 0.04 0
v 0.1272792 0.04 0.1272792
v 0.18 0.04 0

vn 0.3826834 0 -0.9238795
vn -0.3826834 0 0.9238795
vn -0.3826834 0 -0.9238795
vn 0.3826834 0 0.9238795
vn 0 -1 0
vn 0 1 0
vn -0.9238795 0 0.3826834
vn 0.9238795 0 -0.3826834
vn 0.9238795 0 0.3826834
vn -0.9238795 0 -0.3826834

vt 2.71193 0
vt -2.71193 0
vt 2.71193 1.574803
vt -2.71193 1.574803
vt 7.086614 0
vt 5.010993 -5.010993
vt 5.010993 5.010993
vt 0 -7.086614
vt 0 7.086614
vt -5.010993 5.010993
vt -5.010993 -5.010993
vt -7.086614 0

usemtl brownLight

f 3/3/1 2/2/1 1/1/1
f 2/2/1 3/3/1 4/4/1
f 1/1/2 2/2/2 3/3/2
f 4/4/2 3/3/2 2/2/2
f 7/3/2 6/2/2 5/1/2
f 6/2/2 7/3/2 8/4/2
f 5/1/1 6/2/1 7/3/1
f 8/4/1 7/3/1 6/2/1
f 10/3/3 1/2/3 9/1/3
f 1/2/3 10/3/3 3/4/3
f 9/1/4 1/2/4 10/3/4
f 3/4/4 10/3/4 1/2/4
f 9/7/5 6/6/5 11/5/5
f 6/6/5 9/7/5 5/8/5
f 5/8/5 9/7/5 1/9/5
f 5/8/5 1/9/5 2/10/5
f 5/8/5 2/10/5 12/11/5
f 12/11/5 2/10/5 13/12/5
f 11/5/6 6/6/6 9/7/6
f 5/8/6 9/7/6 6/6/6
f 1/9/6 9/7/6 5/8/6
f 2/10/6 1/9/6 5/8/6
f 12/11/6 2/10/6 5/8/6
f 13/12/6 2/10/6 12/11/6
f 14/4/7 6/1/7 8/3/7
f 6/1/7 14/4/7 11/2/7
f 8/3/8 6/1/8 14/4/8
f 11/2/8 14/4/8 6/1/8
f 15/3/4 5/2/4 12/1/4
f 5/2/4 15/3/4 7/4/4
f 12/1/3 5/2/3 15/3/3
f 7/4/3 15/3/3 5/2/3
f 13/1/9 15/4/9 12/2/9
f 15/4/9 13/1/9 16/3/9
f 12/2/10 15/4/10 13/1/10
f 16/3/10 13/1/10 15/4/10
f 2/1/8 16/4/8 13/2/8
f 16/4/8 2/1/8 4/3/8
f 13/2/7 16/4/7 2/1/7
f 4/3/7 2/1/7 16/4/7
f 10/4/10 11/1/10 14/3/10
f 11/1/10 10/4/10 9/2/10
f 14/3/9 11/1/9 10/4/9
f 9/2/9 10/4/9 11/1/9
f 8/11/6 10/10/6 14/12/6
f 10/10/6 8/11/6 7/8/6
f 10/10/6 7/8/6 3/9/6
f 3/9/6 7/8/6 15/6/6
f 3/9/6 15/6/6 4/7/6
f 4/7/6 15/6/6 16/5/6
f 14/12/5 10/10/5 8/11/5
f 7/8/5 8/11/5 10/10/5
f 3/9/5 7/8/5 10/10/5
f 15/6/5 7/8/5 3/9/5
f 4/7/5 15/6/5 3/9/5
f 16/5/5 15/6/5 4/7/5

g bunTop

v -0.07956 0.29 -7.219115E-16
v -0.05625741 0.29 -0.05625741
v -0.05625741 0.29 0.05625741
v 1.082867E-15 0.29 0.07956
v 1.082867E-15 0.29 -0.07956
v 0.05625741 0.29 0.05625741
v 0.05625741 0.29 -0.05625741
v 0.07956 0.29 -7.219115E-16
v -0.18 0.17 -1.804779E-15
v -0.1272792 0.17 0.1272792
v -0.1272792 0.17 -0.1272792
v 9.926282E-16 0.17 -0.18
v 9.926282E-16 0.17 0.18
v 0.1272792 0.17 -0.1272792
v 0.1272792 0.17 0.1272792
v 0.18 0.17 -1.804779E-15
v 0.1872 0.2 -1.804779E-15
v 0.1323704 0.2 -0.1323704
v 0.1323704 0.2 0.1323704
v 9.926282E-16 0.2 0.1872
v -0.1323704 0.2 0.1323704
v -0.1872 0.2 -1.804779E-15
v -0.1323704 0.2 -0.1323704
v 9.926282E-16 0.2 -0.1872
v -0.15912 0.26 -7.219115E-16
v -0.1125148 0.26 -0.1125148
v 0.15912 0.26 -7.219115E-16
v 0.1125148 0.26 -0.1125148
v 9.926282E-16 0.26 0.15912
v -0.1125148 0.26 0.1125148
v 9.926282E-16 0.26 -0.15912
v 0.1125148 0.26 0.1125148

vn 0.9019729 -0.2164735 -0.3736094
vn 0.3736094 -0.2164735 0.9019729
vn -0.9019729 -0.2164735 0.3736094
vn -0.3736094 -0.2164735 -0.9019729
vn 0.9019729 -0.2164735 0.3736094
vn -0.9019729 -0.2164735 -0.3736094
vn -0.3736094 -0.2164735 0.9019729
vn 0.3736094 -0.2164735 -0.9019729
vn -0.9057198 0.4238769 0
vn -0.6404406 0.4238769 -0.6404406
vn 0.9057198 0.4238769 0
vn 0.6404406 0.4238769 -0.6404406
vn 0 0.4238769 0.9057198
vn -0.6404406 0.4238769 0.6404406
vn 0 0.4238769 -0.9057198
vn 0.6404406 0.4238769 0.6404406
vn -0.3528242 0.9356896 0
vn -0.2494843 0.9356896 -0.2494843
vn 0 0.9356896 0.3528242
vn 0.2494843 0.9356896 0.2494843
vn -0.2494843 0.9356896 0.2494843
vn 0 0.9356896 -0.3528242
vn 0.2494843 0.9356896 -0.2494843
vn 0.3528242 0.9356896 0

vt -3.132283 -4.263256E-14
vt -2.214859 2.214859
vt -2.214859 -2.214859
vt 0 -3.132283
vt 0 3.132283
vt 2.214859 -2.214859
vt 2.214859 2.214859
vt 3.132283 -4.263256E-14
vt 3.552714E-15 7.086614
vt 3.552714E-15 -7.086614
vt -2.71193 1.417291
vt -2.820407 2.627079
vt 2.71193 1.417291
vt 2.820407 2.627079
vt 2.397346 0.9553662
vt 2.820407 -1.618189
vt -2.397346 0.9553662
vt -2.820407 -1.618189
vt 2.397346 -4.019629
vt -2.397346 -4.019629
vt 1.198673 -0.8940268
vt -1.198673 -0.8940268

usemtl brownLight

f 19/15/6 18/14/6 17/13/6
f 18/14/6 19/15/6 20/16/6
f 18/14/6 20/16/6 21/17/6
f 21/17/6 20/16/6 22/18/6
f 21/17/6 22/18/6 23/19/6
f 23/19/6 22/18/6 24/20/6
f 27/7/5 26/6/5 25/5/5
f 26/6/5 27/7/5 28/21/5
f 26/6/5 28/21/5 29/22/5
f 29/22/5 28/21/5 30/10/5
f 29/22/5 30/10/5 31/11/5
f 31/11/5 30/10/5 32/12/5
f 30/25/11 33/24/11 32/23/11
f 33/24/11 30/25/11 34/26/11
f 35/26/12 29/23/12 31/25/12
f 29/23/12 35/26/12 36/24/12
f 38/24/13 26/25/13 37/26/13
f 26/25/13 38/24/13 25/23/13
f 39/26/14 28/23/14 27/25/14
f 28/23/14 39/26/14 40/24/14
f 31/23/15 33/26/15 35/24/15
f 33/26/15 31/23/15 32/25/15
f 39/24/16 25/25/16 38/26/16
f 25/25/16 39/24/16 27/23/16
f 36/26/17 26/23/17 29/25/17
f 26/23/17 36/26/17 37/24/17
f 40/26/18 30/23/18 28/25/18
f 30/23/18 40/26/18 34/24/18
f 42/29/20 38/28/19 41/27/19
f 38/28/19 42/29/20 39/30/20
f 33/30/21 44/27/22 43/29/21
f 44/27/22 33/30/21 34/28/22
f 45/27/23 37/30/24 36/28/23
f 37/30/24 45/27/23 46/29/24
f 42/27/20 40/30/25 39/28/20
f 40/30/25 42/27/20 47/29/25
f 46/27/24 38/30/19 37/28/24
f 38/30/19 46/27/24 41/29/19
f 47/27/25 34/30/22 40/28/25
f 34/30/22 47/27/25 44/29/22
f 48/27/26 36/30/23 35/28/26
f 36/30/23 48/27/26 45/29/23
f 33/28/21 48/29/26 35/30/26
f 48/29/26 33/28/21 43/27/21
f 17/33/27 42/32/28 41/31/27
f 42/32/28 17/33/27 18/34/28
f 48/31/30 20/34/29 45/32/29
f 20/34/29 48/31/30 22/33/30
f 46/31/31 17/34/27 41/32/27
f 17/34/27 46/31/31 19/33/31
f 18/33/28 47/32/32 42/31/28
f 47/32/32 18/33/28 21/34/32
f 21/33/32 44/32/33 47/31/32
f 44/32/33 21/33/32 23/34/33
f 48/32/30 24/33/34 22/34/30
f 24/33/34 48/32/30 43/31/34
f 45/31/29 19/34/31 46/32/31
f 19/34/31 45/31/29 20/33/29
f 24/34/34 44/31/33 23/33/33
f 44/31/33 24/34/34 43/32/34

g cheese

v -0.09405734 0.1256 0.171
v -0.1238485 0.0856 0.1426984
v -0.1536396 0.1256 0.1143968
v -0.1536396 0.1256 -0.1143968
v -0.09405734 0.1256 -0.171
v 0.09405734 0.1256 0.171
v 0.09405734 0.1256 -0.171
v 0.1536396 0.1256 0.1143968
v 0.1536396 0.1256 -0.1143968
v 0.1238485 0.0856 0.1426984
v -0.1238485 0.0856 -0.1426984
v 0.1238485 0.0856 -0.1426984

vn -2.461079 0 0.674141
vn 2.461079 0 0.674141
vn -2.461079 0 -0.674141
vn 2.461079 0 -0.674141

vt 3.535168 1.574803
vt 2.64765 -5.367994E-16
vt 1.760133 1.574803
vt -2.165354 -3.16057
vt -2.165354 3.16057
vt -1.325618 -4.72441
vt -1.325618 4.72441
vt 1.325618 -4.72441
vt 1.325618 4.72441
vt 2.165354 -3.16057
vt 2.165354 3.16057
vt -2.64765 -1.760267E-15
vt -3.535168 1.574803
vt -1.760133 1.574803
vt -2.64765 -1.111915E-16
vt 2.64765 8.102815E-16

usemtl yellow

f 51/37/35 50/36/35 49/35/35
f 49/40/6 52/39/6 51/38/6
f 52/39/6 49/40/6 53/41/6
f 53/41/6 49/40/6 54/42/6
f 53/41/6 54/42/6 55/43/6
f 55/43/6 54/42/6 56/44/6
f 55/43/6 56/44/6 57/45/6
f 56/48/36 54/47/36 58/46/36
f 53/47/37 59/49/37 52/48/37
f 55/35/38 57/37/38 60/50/38

g patty

v -0.18 0.07 -1.895017E-15
v -0.1272792 0.07 0.1272792
v -0.1272792 0.07 -0.1272792
v 1.082867E-15 0.07 -0.18
v 1.082867E-15 0.07 0.18
v 0.1272792 0.07 -0.1272792
v 0.1272792 0.07 0.1272792
v 0.18 0.07 -1.895017E-15
v -0.18 0.1156 -1.895017E-15
v -0.1272792 0.1156 -0.1272792
v -0.1272792 0.1156 0.1272792
v 1.082867E-15 0.1156 0.18
v 1.082867E-15 0.1156 -0.18
v 0.1272792 0.1156 0.1272792
v 0.1272792 0.1156 -0.1272792
v 0.18 0.1156 -1.895017E-15
v -0.189 0.0928 -1.895017E-15
v -0.1336432 0.0928 -0.1336432
v 1.082867E-15 0.0928 -0.189
v 0.1336432 0.0928 -0.1336432
v 0.189 0.0928 -1.895017E-15
v -0.1336432 0.0928 0.1336432
v 1.082867E-15 0.0928 0.189
v 0.1336432 0.0928 0.1336432

vn 0 -1.14 0
vn 0 1.14 0
vn -0.8530905 0.4376354 -0.3533616
vn 0.8530905 -0.4376354 0.3533616
vn 0.3533616 -0.4376354 -0.8530905
vn -0.3533616 0.4376354 0.8530905
vn 0.8530905 -0.4376354 -0.3533616
vn -0.8530905 0.4376354 0.3533616
vn 0.3533616 -0.4376354 0.8530905
vn -0.3533616 0.4376354 -0.8530905
vn -0.8530905 -0.4376354 0.3533616
vn 0.8530905 0.4376354 -0.3533616
vn 0.8530905 0.4376354 0.3533616
vn -0.8530905 -0.4376354 -0.3533616
vn 0.3533616 0.4376354 0.8530905
vn -0.3533616 -0.4376354 -0.8530905
vn 0.3533616 0.4376354 -0.8530905
vn -0.3533616 -0.4376354 0.8530905

vt 7.086614 3.552714E-15
vt -1.421085E-14 7.086614
vt -1.421085E-14 -7.086614
vt -7.086614 3.552714E-15
vt 1.421085E-14 -7.086614
vt 1.421085E-14 7.086614
vt 2.71193 -1.059261
vt 2.847526 -1.912001
vt -2.71193 -1.059261
vt -2.847526 -1.912001
vt 2.71193 2.513401
vt -2.71193 2.513401
vt 2.847526 3.366141
vt -2.847526 3.366141
vt -7.440945 3.552714E-15
vt -5.261543 5.261543
vt -5.261543 -5.261543
vt 1.421085E-14 -7.440945
vt 1.421085E-14 7.440945
vt 5.261543 -5.261543
vt 5.261543 5.261543
vt 7.440945 3.552714E-15

usemtl brownDark

f 63/7/39 62/6/39 61/51/39
f 62/6/39 63/7/39 64/52/39
f 62/6/39 64/52/39 65/53/39
f 65/53/39 64/52/39 66/10/39
f 65/53/39 66/10/39 67/11/39
f 67/11/39 66/10/39 68/54/39
f 61/51/40 62/6/40 63/7/40
f 64/52/40 63/7/40 62/6/40
f 65/53/40 64/52/40 62/6/40
f 66/10/40 64/52/40 65/53/40
f 67/11/40 66/10/40 65/53/40
f 68/54/40 66/10/40 67/11/40
f 71/11/40 70/10/40 69/54/40
f 70/10/40 71/11/40 72/55/40
f 70/10/40 72/55/40 73/56/40
f 73/56/40 72/55/40 74/6/40
f 73/56/40 74/6/40 75/7/40
f 75/7/40 74/6/40 76/51/40
f 69/54/39 70/10/39 71/11/39
f 72/55/39 71/11/39 70/10/39
f 73/56/39 72/55/39 70/10/39
f 74/6/39 72/55/39 73/56/39
f 75/7/39 74/6/39 73/56/39
f 76/51/39 74/6/39 75/7/39
f 70/59/41 77/58/41 69/57/41
f 77/58/41 70/59/41 78/60/41
f 69/57/42 77/58/42 70/59/42
f 78/60/42 70/59/42 77/58/42
f 79/63/43 66/62/43 64/61/43
f 66/62/43 79/63/43 80/64/43
f 64/61/44 66/62/44 79/63/44
f 80/64/44 79/63/44 66/62/44
f 66/61/45 81/64/45 68/62/45
f 81/64/45 66/61/45 80/63/45
f 68/62/46 81/64/46 66/61/46
f 80/63/46 66/61/46 81/64/46
f 82/67/40 78/66/40 77/65/40
f 78/66/40 82/67/40 83/68/40
f 78/66/40 83/68/40 79/69/40
f 79/69/40 83/68/40 84/70/40
f 79/69/40 84/70/40 80/71/40
f 80/71/40 84/70/40 81/72/40
f 77/65/39 78/66/39 82/67/39
f 83/68/39 82/67/39 78/66/39
f 79/69/39 83/68/39 78/66/39
f 84/70/39 83/68/39 79/69/39
f 80/71/39 84/70/39 79/69/39
f 81/72/39 84/70/39 80/71/39
f 84/63/47 65/62/47 67/61/47
f 65/62/47 84/63/47 83/64/47
f 67/61/48 65/62/48 84/63/48
f 83/64/48 84/63/48 65/62/48
f 72/57/44 82/60/44 83/58/44
f 82/60/44 72/57/44 71/59/44
f 83/58/43 82/60/43 72/57/43
f 71/59/43 72/57/43 82/60/43
f 77/64/49 62/61/49 82/63/49
f 62/61/49 77/64/49 61/62/49
f 82/63/50 62/61/50 77/64/50
f 61/62/50 77/64/50 62/61/50
f 81/58/51 74/59/51 84/60/51
f 74/59/51 81/58/51 76/57/51
f 84/60/52 74/59/52 81/58/52
f 76/57/52 81/58/52 74/59/52
f 74/57/53 83/60/53 84/58/53
f 83/60/53 74/57/53 72/59/53
f 84/58/54 83/60/54 74/57/54
f 72/59/54 74/57/54 83/60/54
f 73/57/55 80/60/55 79/58/55
f 80/60/55 73/57/55 75/59/55
f 79/58/56 80/60/56 73/57/56
f 75/59/56 73/57/56 80/60/56
f 78/63/54 64/62/54 63/61/54
f 64/62/54 78/63/54 79/64/54
f 63/61/53 64/62/53 78/63/53
f 79/64/53 78/63/53 64/62/53
f 67/62/42 81/63/42 84/64/42
f 81/63/42 67/62/42 68/61/42
f 84/64/41 81/63/41 67/62/41
f 68/61/41 67/62/41 81/63/41
f 71/57/46 77/60/46 82/58/46
f 77/60/46 71/57/46 69/59/46
f 82/58/45 77/60/45 71/57/45
f 69/59/45 71/57/45 77/60/45
f 80/58/50 76/59/50 81/60/50
f 76/59/50 80/58/50 75/57/50
f 81/60/49 76/59/49 80/58/49
f 75/57/49 80/58/49 76/59/49
f 78/64/52 61/61/52 77/63/52
f 61/61/52 78/64/52 63/62/52
f 77/63/51 61/61/51 78/64/51
f 63/62/51 78/64/51 61/61/51
f 83/63/56 62/62/56 65/61/56
f 62/62/56 83/63/56 82/64/56
f 65/61/55 62/62/55 83/63/55
f 82/64/55 83/63/55 62/62/55
f 70/57/48 79/60/48 78/58/48
f 79/60/48 70/57/48 73/59/48
f 78/58/47 79/60/47 70/57/47
f 73/59/47 70/57/47 79/60/47

g salad

v 0.1428695 0.04 0.1428695
v 3.315017E-16 0.055 0
v 0.202048 0.07 -1.657509E-16
v -0.1428695 0.04 -0.1428695
v 3.315017E-16 0.07 -0.202048
v 0 0.07 0.202048
v -0.1428695 0.04 0.1428695
v -0.202048 0.07 4.143772E-15
v 0.1428695 0.04 -0.1428695

vn -0.08123032 0.7296931 0.1961073
vn -0.1961073 0.7296931 0.08123032
vn -0.1961073 0.7296931 -0.08123032
vn 0.08123032 0.7296931 0.1961073
vn 0.1961073 0.7296931 0.08123032
vn 0.08123032 0.7296931 -0.1961073
vn 0.1961073 0.7296931 -0.08123032
vn -0.08123032 0.7296931 -0.1961073

vt 8.002106 -3.224836
vt 1.3143E-14 0.1819881
vt 8.002106 3.588812
vt 5.452136E-15 0.1819881
vt -8.002106 -3.224836
vt -8.002106 3.588812
vt -5.438259E-15 0.1819881
vt 5.438259E-15 0.1819881
vt -1.3143E-14 0.1819881
vt -1.312912E-14 0.1819881

usemtl green

f 87/75/57 86/74/57 85/73/57
f 89/78/58 88/77/58 86/76/58
f 86/79/59 91/73/59 90/75/59
f 86/74/60 92/78/60 91/77/60
f 93/73/61 89/75/61 86/80/61
f 86/81/62 88/73/62 92/75/62
f 85/77/63 86/79/63 90/78/63
f 87/78/64 93/77/64 86/82/64

g tomato

v -0.1872 0.1356 -2.52669E-15
v -0.1323704 0.1356 0.1323704
v -0.1323704 0.1356 -0.1323704
v -2.958032E-15 0.1356 -0.1872
v -2.958032E-15 0.1356 0.1872
v 0.1323704 0.1356 -0.1323704
v 0.1323704 0.1356 0.1323704
v 0.1872 0.1356 -2.52669E-15
v -0.1872 0.15672 -2.52669E-15
v -0.1577034 0.15672 -2.52669E-15
v -0.1323704 0.15672 0.1323704
v -0.1115131 0.15672 0.1115131
v -2.958032E-15 0.15672 0.1872
v -2.958032E-15 0.15672 0.1577034
v 0.1323704 0.15672 0.1323704
v 0.1115131 0.15672 0.1115131
v 0.1577034 0.15672 -2.52669E-15
v 0.1872 0.15672 -2.52669E-15
v -0.1323704 0.15672 -0.1323704
v -0.1115131 0.15672 -0.1115131
v -2.958032E-15 0.15672 -0.1872
v -2.958032E-15 0.15672 -0.1577034
v 0.1115131 0.15672 -0.1115131
v 0.1323704 0.15672 -0.1323704
v -0.1261627 0.14672 -2.315531E-15
v -0.0892105 0.14672 -0.0892105
v -0.0892105 0.14672 0.0892105
v -2.535714E-15 0.14672 0.1261627
v -2.535714E-15 0.14672 -0.1261627
v 0.0892105 0.14672 0.0892105
v 0.0892105 0.14672 -0.0892105
v 0.1261627 0.14672 -2.315531E-15

vn 0 -0.704 0
vn 0 0.704 0
vn -1.441252 0 -0.5969861
vn -0.5969861 0 -1.441252
vn 0.5969861 0 -1.441252
vn 1.441252 0 -0.5969861
vn 1.441252 0 0.5969861
vn 0.5969861 0 1.441252
vn -0.5969861 0 1.441252
vn -1.441252 0 0.5969861
vn -0.8723983 0.560379 0.3613591
vn -0.3613591 0.560379 0.8723983
vn 0.3613591 0.560379 0.8723983
vn 0.8723983 0.560379 0.3613591
vn 0.3613591 0.560379 -0.8723983
vn 0.8723983 0.560379 -0.3613591
vn -0.8723983 0.560379 -0.3613591
vn -0.3613591 0.560379 -0.8723983

vt 0 0
vt -4.72441 0
vt -3.979996 0
vt -3.340662 -3.340662
vt -2.814282 -2.814282
vt -1.776357E-15 -4.72441
vt -1.776357E-15 -3.979996
vt 3.340662 -3.340662
vt 2.814282 -2.814282
vt 3.979996 0
vt 4.72441 0
vt -3.340662 3.340662
vt -2.814282 2.814282
vt -1.776357E-15 4.72441
vt -1.776357E-15 3.979996
vt 2.814282 2.814282
vt 3.340662 3.340662
vt 1.807953 1.181102
vt 1.807953 0
vt -1.807953 1.181102
vt -1.807953 0
vt -3.183997 -5.329071E-15
vt -2.251426 2.251426
vt -2.251426 -2.251426
vt 8.881784E-15 -3.183997
vt 8.881784E-15 3.183997
vt 2.251426 -2.251426
vt 2.251426 2.251426
vt 3.183997 -5.329071E-15
vt -1.218463 2.717937
vt -1.523079 3.641824
vt 1.218463 2.717937
vt 1.523079 3.641824

usemtl _defaultMat

f 96/83/65 95/83/65 94/83/65
f 95/83/65 96/83/65 97/83/65
f 95/83/65 97/83/65 98/83/65
f 98/83/65 97/83/65 99/83/65
f 98/83/65 99/83/65 100/83/65
f 100/83/65 99/83/65 101/83/65

usemtl red

f 104/86/66 103/85/66 102/84/66
f 103/85/66 104/86/66 105/87/66
f 105/87/66 104/86/66 106/88/66
f 105/87/66 106/88/66 107/89/66
f 107/89/66 106/88/66 108/90/66
f 107/89/66 108/90/66 109/91/66
f 109/91/66 108/90/66 110/92/66
f 110/92/66 108/90/66 111/93/66
f 103/85/66 112/94/66 102/84/66
f 112/94/66 103/85/66 113/95/66
f 112/94/66 113/95/66 114/96/66
f 114/96/66 113/95/66 115/97/66
f 114/96/66 115/97/66 116/98/66
f 114/96/66 116/98/66 117/99/66
f 117/99/66 116/98/66 110/92/66
f 117/99/66 110/92/66 111/93/66
f 112/102/67 94/101/67 102/100/67
f 94/101/67 112/102/67 96/103/67
f 112/100/68 97/103/68 96/101/68
f 97/103/68 112/100/68 114/102/68
f 114/100/69 99/103/69 97/101/69
f 99/103/69 114/100/69 117/102/69
f 99/101/70 111/102/70 101/103/70
f 111/102/70 99/101/70 117/100/70
f 101/101/71 108/102/71 100/103/71
f 108/102/71 101/101/71 111/100/71
f 108/100/72 98/103/72 100/101/72
f 98/103/72 108/100/72 106/102/72
f 106/100/73 95/103/73 98/101/73
f 95/103/73 106/100/73 104/102/73
f 102/102/74 95/101/74 104/100/74
f 95/101/74 102/102/74 94/103/74
f 120/106/66 119/105/66 118/104/66
f 119/105/66 120/106/66 121/107/66
f 119/105/66 121/107/66 122/108/66
f 122/108/66 121/107/66 123/109/66
f 122/108/66 123/109/66 124/110/66
f 124/110/66 123/109/66 125/111/66
f 125/114/75 116/113/75 124/112/75
f 116/113/75 125/114/75 110/115/75
f 122/112/76 116/115/76 115/113/76
f 116/115/76 122/112/76 124/114/76
f 119/112/77 115/115/77 113/113/77
f 115/115/77 119/112/77 122/114/77
f 118/112/78 113/115/78 103/113/78
f 113/115/78 118/112/78 119/114/78
f 107/113/79 120/114/79 105/115/79
f 120/114/79 107/113/79 121/112/79
f 105/113/80 118/114/80 103/115/80
f 118/114/80 105/113/80 120/112/80
f 109/115/81 125/112/81 123/114/81
f 125/112/81 109/115/81 110/113/81
f 109/113/82 121/114/82 107/115/82
f 121/114/82 109/113/82 123/112/82

