# Created by Kenney (www.kenney.nl)

mtllib burgerCheeseDouble.mtl

g bunBottom

v 0 0 -0.18
v 0.1272792 0 -0.1272792
v 0 0.04 -0.18
v 0.1272792 0.04 -0.1272792
v -2.255973E-17 0 0.18
v -0.1272792 0 0.1272792
v -2.255973E-17 0.04 0.18
v -0.1272792 0.04 0.1272792
v -0.1272792 0 -0.1272792
v -0.1272792 0.04 -0.1272792
v -0.18 0 0
v 0.1272792 0 0.1272792
v 0.18 0 0
v -0.18 0.04 0
v 0.1272792 0.04 0.1272792
v 0.18 0.04 0

vn 0.3826834 0 -0.9238795
vn -0.3826834 0 0.9238795
vn -0.3826834 0 -0.9238795
vn 0.3826834 0 0.9238795
vn 0 -1 0
vn 0 1 0
vn -0.9238795 0 0.3826834
vn 0.9238795 0 -0.3826834
vn 0.9238795 0 0.3826834
vn -0.9238795 0 -0.3826834

vt 2.71193 0
vt -2.71193 0
vt 2.71193 1.574803
vt -2.71193 1.574803
vt 7.086614 0
vt 5.010993 -5.010993
vt 5.010993 5.010993
vt 8.881784E-16 -7.086614
vt 0 7.086614
vt -5.010993 -5.010993
vt -5.010993 5.010993
vt -7.086614 0
vt -8.881784E-16 -7.086614

usemtl brownLight

f 3/3/1 2/2/1 1/1/1
f 2/2/1 3/3/1 4/4/1
f 1/1/2 2/2/2 3/3/2
f 4/4/2 3/3/2 2/2/2
f 7/3/2 6/2/2 5/1/2
f 6/2/2 7/3/2 8/4/2
f 5/1/1 6/2/1 7/3/1
f 8/4/1 7/3/1 6/2/1
f 10/3/3 1/2/3 9/1/3
f 1/2/3 10/3/3 3/4/3
f 9/1/4 1/2/4 10/3/4
f 3/4/4 10/3/4 1/2/4
f 9/7/5 6/6/5 11/5/5
f 6/6/5 9/7/5 5/8/5
f 5/8/5 9/7/5 1/9/5
f 5/8/5 1/9/5 12/10/5
f 12/10/5 1/9/5 2/11/5
f 12/10/5 2/11/5 13/12/5
f 11/5/6 6/6/6 9/7/6
f 5/8/6 9/7/6 6/6/6
f 1/9/6 9/7/6 5/8/6
f 12/10/6 1/9/6 5/8/6
f 2/11/6 1/9/6 12/10/6
f 13/12/6 2/11/6 12/10/6
f 14/4/7 6/1/7 8/3/7
f 6/1/7 14/4/7 11/2/7
f 8/3/8 6/1/8 14/4/8
f 11/2/8 14/4/8 6/1/8
f 15/3/4 5/2/4 12/1/4
f 5/2/4 15/3/4 7/4/4
f 12/1/3 5/2/3 15/3/3
f 7/4/3 15/3/3 5/2/3
f 13/1/9 15/4/9 12/2/9
f 15/4/9 13/1/9 16/3/9
f 12/2/10 15/4/10 13/1/10
f 16/3/10 13/1/10 15/4/10
f 2/1/8 16/4/8 13/2/8
f 16/4/8 2/1/8 4/3/8
f 13/2/7 16/4/7 2/1/7
f 4/3/7 2/1/7 16/4/7
f 10/4/10 11/1/10 14/3/10
f 11/1/10 10/4/10 9/2/10
f 14/3/9 11/1/9 10/4/9
f 9/2/9 10/4/9 11/1/9
f 8/10/6 10/11/6 14/12/6
f 10/11/6 8/10/6 7/13/6
f 10/11/6 7/13/6 3/9/6
f 3/9/6 7/13/6 15/6/6
f 3/9/6 15/6/6 4/7/6
f 4/7/6 15/6/6 16/5/6
f 14/12/5 10/11/5 8/10/5
f 7/13/5 8/10/5 10/11/5
f 3/9/5 7/13/5 10/11/5
f 15/6/5 7/13/5 3/9/5
f 4/7/5 15/6/5 3/9/5
f 16/5/5 15/6/5 4/7/5

g bunBottom

v 5.414336E-16 0.1 -0.18
v 0.1272792 0.1 -0.1272792
v 5.414336E-16 0.14 -0.18
v 0.1272792 0.14 -0.1272792
v 5.188739E-16 0.1 0.18
v -0.1272792 0.1 0.1272792
v 5.188739E-16 0.14 0.18
v -0.1272792 0.14 0.1272792
v -0.1272792 0.1 -0.1272792
v -0.1272792 0.14 -0.1272792
v -0.18 0.1 -1.804779E-16
v 0.1272792 0.1 0.1272792
v 0.18 0.1 -1.804779E-16
v -0.18 0.14 -1.804779E-16
v 0.1272792 0.14 0.1272792
v 0.18 0.14 -1.804779E-16



usemtl brownLight

f 19/3/1 18/2/1 17/1/1
f 18/2/1 19/3/1 20/4/1
f 17/1/2 18/2/2 19/3/2
f 20/4/2 19/3/2 18/2/2
f 23/3/2 22/2/2 21/1/2
f 22/2/2 23/3/2 24/4/2
f 21/1/1 22/2/1 23/3/1
f 24/4/1 23/3/1 22/2/1
f 26/3/3 17/2/3 25/1/3
f 17/2/3 26/3/3 19/4/3
f 25/1/4 17/2/4 26/3/4
f 19/4/4 26/3/4 17/2/4
f 25/7/5 22/6/5 27/5/5
f 22/6/5 25/7/5 21/8/5
f 21/8/5 25/7/5 17/9/5
f 21/8/5 17/9/5 28/10/5
f 28/10/5 17/9/5 18/11/5
f 28/10/5 18/11/5 29/12/5
f 27/5/6 22/6/6 25/7/6
f 21/8/6 25/7/6 22/6/6
f 17/9/6 25/7/6 21/8/6
f 28/10/6 17/9/6 21/8/6
f 18/11/6 17/9/6 28/10/6
f 29/12/6 18/11/6 28/10/6
f 30/4/7 22/1/7 24/3/7
f 22/1/7 30/4/7 27/2/7
f 24/3/8 22/1/8 30/4/8
f 27/2/8 30/4/8 22/1/8
f 31/3/4 21/2/4 28/1/4
f 21/2/4 31/3/4 23/4/4
f 28/1/3 21/2/3 31/3/3
f 23/4/3 31/3/3 21/2/3
f 29/1/9 31/4/9 28/2/9
f 31/4/9 29/1/9 32/3/9
f 28/2/10 31/4/10 29/1/10
f 32/3/10 29/1/10 31/4/10
f 18/1/8 32/4/8 29/2/8
f 32/4/8 18/1/8 20/3/8
f 29/2/7 32/4/7 18/1/7
f 20/3/7 18/1/7 32/4/7
f 26/4/10 27/1/10 30/3/10
f 27/1/10 26/4/10 25/2/10
f 30/3/9 27/1/9 26/4/9
f 25/2/9 26/4/9 27/1/9
f 24/10/6 26/11/6 30/12/6
f 26/11/6 24/10/6 23/13/6
f 26/11/6 23/13/6 19/9/6
f 19/9/6 23/13/6 31/6/6
f 19/9/6 31/6/6 20/7/6
f 20/7/6 31/6/6 32/5/6
f 30/12/5 26/11/5 24/10/5
f 23/13/5 24/10/5 26/11/5
f 19/9/5 23/13/5 26/11/5
f 31/6/5 23/13/5 19/9/5
f 20/7/5 31/6/5 19/9/5
f 32/5/5 31/6/5 20/7/5

g bunTop

v -0.07956 0.32 9.023893E-16
v -0.05625741 0.32 -0.05625741
v -0.05625741 0.32 0.05625741
v 0 0.32 0.07956
v 0 0.32 -0.07956
v 0.05625741 0.32 0.05625741
v 0.05625741 0.32 -0.05625741
v 0.07956 0.32 9.023893E-16
v -0.18 0.2 -1.804779E-16
v -0.1272792 0.2 0.1272792
v -0.1272792 0.2 -0.1272792
v -9.023893E-17 0.2 -0.18
v -9.023893E-17 0.2 0.18
v 0.1272792 0.2 -0.1272792
v 0.1272792 0.2 0.1272792
v 0.18 0.2 -1.804779E-16
v 0.1872 0.23 -1.804779E-16
v 0.1323704 0.23 -0.1323704
v 0.1323704 0.23 0.1323704
v -9.023893E-17 0.23 0.1872
v -0.1323704 0.23 0.1323704
v -0.1872 0.23 -1.804779E-16
v -0.1323704 0.23 -0.1323704
v -9.023893E-17 0.23 -0.1872
v -0.15912 0.29 9.023893E-16
v -0.1125148 0.29 -0.1125148
v 0.15912 0.29 9.023893E-16
v 0.1125148 0.29 -0.1125148
v -9.023893E-17 0.29 0.15912
v -0.1125148 0.29 0.1125148
v -9.023893E-17 0.29 -0.15912
v 0.1125148 0.29 0.1125148

vn 0.9019729 -0.2164735 -0.3736094
vn 0.3736094 -0.2164735 0.9019729
vn -0.9019729 -0.2164735 0.3736094
vn -0.3736094 -0.2164735 -0.9019729
vn 0.9019729 -0.2164735 0.3736094
vn -0.9019729 -0.2164735 -0.3736094
vn -0.3736094 -0.2164735 0.9019729
vn 0.3736094 -0.2164735 -0.9019729
vn -0.9057198 0.4238769 0
vn -0.6404406 0.4238769 -0.6404406
vn 0.9057198 0.4238769 0
vn 0.6404406 0.4238769 -0.6404406
vn 0 0.4238769 0.9057198
vn -0.6404406 0.4238769 0.6404406
vn 0 0.4238769 -0.9057198
vn 0.6404406 0.4238769 0.6404406
vn -0.3528242 0.9356896 0
vn -0.2494843 0.9356896 -0.2494843
vn 0 0.9356896 0.3528242
vn 0.2494843 0.9356896 0.2494843
vn -0.2494843 0.9356896 0.2494843
vn 0 0.9356896 -0.3528242
vn 0.2494843 0.9356896 -0.2494843
vn 0.3528242 0.9356896 0

vt -3.132283 -4.263256E-14
vt -2.214859 2.214859
vt -2.214859 -2.214859
vt 0 -3.132283
vt 0 3.132283
vt 2.214859 -2.214859
vt 2.214859 2.214859
vt 3.132283 -4.263256E-14
vt 3.552714E-15 7.086614
vt 3.552714E-15 -7.086614
vt -2.71193 1.417291
vt -2.820407 2.627079
vt 2.71193 1.417291
vt 2.820407 2.627079
vt 2.397346 0.9553662
vt 2.820407 -1.618189
vt -2.397346 0.9553662
vt -2.820407 -1.618189
vt 2.397346 -4.019629
vt -2.397346 -4.019629
vt 1.198673 -0.8940268
vt -1.198673 -0.8940268

usemtl brownLight

f 35/16/6 34/15/6 33/14/6
f 34/15/6 35/16/6 36/17/6
f 34/15/6 36/17/6 37/18/6
f 37/18/6 36/17/6 38/19/6
f 37/18/6 38/19/6 39/20/6
f 39/20/6 38/19/6 40/21/6
f 43/7/5 42/6/5 41/5/5
f 42/6/5 43/7/5 44/22/5
f 42/6/5 44/22/5 45/23/5
f 45/23/5 44/22/5 46/11/5
f 45/23/5 46/11/5 47/10/5
f 47/10/5 46/11/5 48/12/5
f 46/26/11 49/25/11 48/24/11
f 49/25/11 46/26/11 50/27/11
f 51/27/12 45/24/12 47/26/12
f 45/24/12 51/27/12 52/25/12
f 54/25/13 42/26/13 53/27/13
f 42/26/13 54/25/13 41/24/13
f 55/27/14 44/24/14 43/26/14
f 44/24/14 55/27/14 56/25/14
f 47/24/15 49/27/15 51/25/15
f 49/27/15 47/24/15 48/26/15
f 55/25/16 41/26/16 54/27/16
f 41/26/16 55/25/16 43/24/16
f 52/27/17 42/24/17 45/26/17
f 42/24/17 52/27/17 53/25/17
f 56/27/18 46/24/18 44/26/18
f 46/24/18 56/27/18 50/25/18
f 58/30/20 54/29/19 57/28/19
f 54/29/19 58/30/20 55/31/20
f 49/31/21 60/28/22 59/30/21
f 60/28/22 49/31/21 50/29/22
f 61/28/23 53/31/24 52/29/23
f 53/31/24 61/28/23 62/30/24
f 58/28/20 56/31/25 55/29/20
f 56/31/25 58/28/20 63/30/25
f 62/28/24 54/31/19 53/29/24
f 54/31/19 62/28/24 57/30/19
f 63/28/25 50/31/22 56/29/25
f 50/31/22 63/28/25 60/30/22
f 64/28/26 52/31/23 51/29/26
f 52/31/23 64/28/26 61/30/23
f 49/29/21 64/30/26 51/31/26
f 64/30/26 49/29/21 59/28/21
f 33/34/27 58/33/28 57/32/27
f 58/33/28 33/34/27 34/35/28
f 64/32/30 36/35/29 61/33/29
f 36/35/29 64/32/30 38/34/30
f 62/32/31 33/35/27 57/33/27
f 33/35/27 62/32/31 35/34/31
f 34/34/28 63/33/32 58/32/28
f 63/33/32 34/34/28 37/35/32
f 37/34/32 60/33/33 63/32/32
f 60/33/33 37/34/32 39/35/33
f 64/33/30 40/34/34 38/35/30
f 40/34/34 64/33/30 59/32/34
f 61/32/29 35/35/31 62/33/31
f 35/35/31 61/32/29 36/34/29
f 40/35/34 60/32/33 39/34/33
f 60/32/33 40/35/34 59/33/34

g cheese

v -0.09405734 0.09559999 0.171
v -0.1238485 0.0556 0.1426984
v -0.1536396 0.09559999 0.1143968
v -0.1536396 0.09559999 -0.1143968
v -0.09405734 0.09559999 -0.171
v 0.09405734 0.09559999 0.171
v 0.09405734 0.09559999 -0.171
v 0.1536396 0.09559999 0.1143968
v 0.1536396 0.09559999 -0.1143968
v 0.1238485 0.0556 0.1426984
v -0.1238485 0.0556 -0.1426984
v 0.1238485 0.0556 -0.1426984

vn -2.461079 0 0.674141
vn 2.461079 0 0.674141
vn -2.461079 0 -0.674141
vn 2.461079 0 -0.674141

vt 3.535168 1.574803
vt 2.64765 -5.367994E-16
vt 1.760133 1.574803
vt -2.165354 -3.16057
vt -2.165354 3.16057
vt -1.325618 -4.72441
vt -1.325618 4.72441
vt 1.325618 -4.72441
vt 1.325618 4.72441
vt 2.165354 -3.16057
vt 2.165354 3.16057
vt -2.64765 -1.760267E-15
vt -3.535168 1.574803
vt -1.760133 1.574803
vt -2.64765 -1.111915E-16
vt 2.64765 8.102815E-16

usemtl yellow

f 67/38/35 66/37/35 65/36/35
f 65/41/6 68/40/6 67/39/6
f 68/40/6 65/41/6 69/42/6
f 69/42/6 65/41/6 70/43/6
f 69/42/6 70/43/6 71/44/6
f 71/44/6 70/43/6 72/45/6
f 71/44/6 72/45/6 73/46/6
f 72/49/36 70/48/36 74/47/36
f 69/48/37 75/50/37 68/49/37
f 71/36/38 73/38/38 76/51/38

g cheese

v 0.171 0.1956 0.09405734
v 0.1426984 0.1556 0.1238485
v 0.1143969 0.1956 0.1536396
v -0.1143968 0.1956 0.1536396
v -0.171 0.1956 0.09405737
v 0.171 0.1956 -0.09405737
v -0.171 0.1956 -0.09405734
v 0.1143968 0.1956 -0.1536396
v -0.1143969 0.1956 -0.1536396
v 0.1426984 0.1556 -0.1238485
v -0.1426984 0.1556 0.1238485
v -0.1426984 0.1556 -0.1238485

vn 0.6741413 0 2.46108
vn 0.6741408 0 -2.46108
vn -0.6741408 0 2.46108
vn -0.6741413 0 -2.46108


usemtl yellow

f 79/38/39 78/37/39 77/36/39
f 77/41/6 80/40/6 79/39/6
f 80/40/6 77/41/6 81/42/6
f 81/42/6 77/41/6 82/43/6
f 81/42/6 82/43/6 83/44/6
f 83/44/6 82/43/6 84/45/6
f 83/44/6 84/45/6 85/46/6
f 84/49/40 82/48/40 86/47/40
f 81/48/41 87/50/41 80/49/41
f 83/36/42 85/38/42 88/51/42

g patty

v -0.18 0.04 -1.804779E-16
v 3.609557E-16 0.04 -0.18
v 3.609557E-16 0.04 0.18
v 0.18 0.04 -1.804779E-16
v -0.18 0.0856 -1.804779E-16
v -0.1272792 0.0856 -0.1272792
v -0.1272792 0.0856 0.1272792
v 3.609557E-16 0.0856 0.18
v 3.609557E-16 0.0856 -0.18
v 0.1272792 0.0856 0.1272792
v 0.1272792 0.0856 -0.1272792
v 0.18 0.0856 -1.804779E-16
v -0.189 0.0628 -1.804779E-16
v -0.1336432 0.0628 -0.1336432
v 3.609557E-16 0.0628 -0.189
v 0.1336432 0.0628 -0.1336432
v 0.189 0.0628 -1.804779E-16
v -0.1336432 0.0628 0.1336432
v 3.609557E-16 0.0628 0.189
v 0.1336432 0.0628 0.1336432

vn 0 -1.14 0
vn 0 1.14 0
vn -0.8530905 0.4376354 -0.3533616
vn 0.8530905 -0.4376354 0.3533616
vn 0.3533616 -0.4376354 -0.8530905
vn -0.3533616 0.4376354 0.8530905
vn 0.8530905 -0.4376354 -0.3533616
vn -0.8530905 0.4376354 0.3533616
vn 0.3533616 -0.4376354 0.8530905
vn -0.3533616 0.4376354 -0.8530905
vn -0.8530905 -0.4376354 0.3533616
vn 0.8530905 0.4376354 -0.3533616
vn 0.8530905 0.4376354 0.3533616
vn -0.8530905 -0.4376354 -0.3533616
vn 0.3533616 0.4376354 0.8530905
vn -0.3533616 -0.4376354 -0.8530905
vn 0.3533616 0.4376354 -0.8530905
vn -0.3533616 -0.4376354 0.8530905

vt 7.086614 7.105427E-15
vt -1.421085E-14 7.086614
vt -1.421085E-14 -7.086614
vt -7.086614 7.105427E-15
vt 1.421085E-14 -7.086614
vt 1.421085E-14 7.086614
vt 2.71193 -1.059261
vt 2.847526 -1.912001
vt -2.71193 -1.059261
vt -2.847526 -1.912001
vt 2.71193 2.513401
vt -2.71193 2.513401
vt 2.847526 3.366141
vt -2.847526 3.366141
vt -7.440945 7.105427E-15
vt -5.261543 5.261543
vt -5.261543 -5.261543
vt 1.421085E-14 -7.440945
vt 1.421085E-14 7.440945
vt 5.261543 -5.261543
vt 5.261543 5.261543
vt 7.440945 7.105427E-15

usemtl brownDark

f 10/7/43 8/6/43 89/52/43
f 8/6/43 10/7/43 90/53/43
f 8/6/43 90/53/43 91/54/43
f 91/54/43 90/53/43 4/11/43
f 91/54/43 4/11/43 15/10/43
f 15/10/43 4/11/43 92/55/43
f 89/52/44 8/6/44 10/7/44
f 90/53/44 10/7/44 8/6/44
f 91/54/44 90/53/44 8/6/44
f 4/11/44 90/53/44 91/54/44
f 15/10/44 4/11/44 91/54/44
f 92/55/44 4/11/44 15/10/44
f 95/10/44 94/11/44 93/55/44
f 94/11/44 95/10/44 96/56/44
f 94/11/44 96/56/44 97/57/44
f 97/57/44 96/56/44 98/6/44
f 97/57/44 98/6/44 99/7/44
f 99/7/44 98/6/44 100/52/44
f 93/55/43 94/11/43 95/10/43
f 96/56/43 95/10/43 94/11/43
f 97/57/43 96/56/43 94/11/43
f 98/6/43 96/56/43 97/57/43
f 99/7/43 98/6/43 97/57/43
f 100/52/43 98/6/43 99/7/43
f 94/60/45 101/59/45 93/58/45
f 101/59/45 94/60/45 102/61/45
f 93/58/46 101/59/46 94/60/46
f 102/61/46 94/60/46 101/59/46
f 103/64/47 4/63/47 90/62/47
f 4/63/47 103/64/47 104/65/47
f 90/62/48 4/63/48 103/64/48
f 104/65/48 103/64/48 4/63/48
f 4/62/49 105/65/49 92/63/49
f 105/65/49 4/62/49 104/64/49
f 92/63/50 105/65/50 4/62/50
f 104/64/50 4/62/50 105/65/50
f 106/68/44 102/67/44 101/66/44
f 102/67/44 106/68/44 107/69/44
f 102/67/44 107/69/44 103/70/44
f 103/70/44 107/69/44 108/71/44
f 103/70/44 108/71/44 104/72/44
f 104/72/44 108/71/44 105/73/44
f 101/66/43 102/67/43 106/68/43
f 107/69/43 106/68/43 102/67/43
f 103/70/43 107/69/43 102/67/43
f 108/71/43 107/69/43 103/70/43
f 104/72/43 108/71/43 103/70/43
f 105/73/43 108/71/43 104/72/43
f 108/64/51 91/63/51 15/62/51
f 91/63/51 108/64/51 107/65/51
f 15/62/52 91/63/52 108/64/52
f 107/65/52 108/64/52 91/63/52
f 96/58/48 106/61/48 107/59/48
f 106/61/48 96/58/48 95/60/48
f 107/59/47 106/61/47 96/58/47
f 95/60/47 96/58/47 106/61/47
f 101/65/53 8/62/53 106/64/53
f 8/62/53 101/65/53 89/63/53
f 106/64/54 8/62/54 101/65/54
f 89/63/54 101/65/54 8/62/54
f 105/59/55 98/60/55 108/61/55
f 98/60/55 105/59/55 100/58/55
f 108/61/56 98/60/56 105/59/56
f 100/58/56 105/59/56 98/60/56
f 98/58/57 107/61/57 108/59/57
f 107/61/57 98/58/57 96/60/57
f 108/59/58 107/61/58 98/58/58
f 96/60/58 98/58/58 107/61/58
f 97/58/59 104/61/59 103/59/59
f 104/61/59 97/58/59 99/60/59
f 103/59/60 104/61/60 97/58/60
f 99/60/60 97/58/60 104/61/60
f 102/64/58 90/63/58 10/62/58
f 90/63/58 102/64/58 103/65/58
f 10/62/57 90/63/57 102/64/57
f 103/65/57 102/64/57 90/63/57
f 15/63/46 105/64/46 108/65/46
f 105/64/46 15/63/46 92/62/46
f 108/65/45 105/64/45 15/63/45
f 92/62/45 15/63/45 105/64/45
f 95/58/50 101/61/50 106/59/50
f 101/61/50 95/58/50 93/60/50
f 106/59/49 101/61/49 95/58/49
f 93/60/49 95/58/49 101/61/49
f 104/59/54 100/60/54 105/61/54
f 100/60/54 104/59/54 99/58/54
f 105/61/53 100/60/53 104/59/53
f 99/58/53 104/59/53 100/60/53
f 102/65/56 89/62/56 101/64/56
f 89/62/56 102/65/56 10/63/56
f 101/64/55 89/62/55 102/65/55
f 10/63/55 102/65/55 89/62/55
f 107/64/60 8/63/60 91/62/60
f 8/63/60 107/64/60 106/65/60
f 91/62/59 8/63/59 107/64/59
f 106/65/59 107/64/59 8/63/59
f 94/58/52 103/61/52 102/59/52
f 103/61/52 94/58/52 97/60/52
f 102/59/51 103/61/51 94/58/51
f 97/60/51 94/58/51 103/61/51

g patty

v 3.609557E-16 0.14 -0.18
v 3.609557E-16 0.14 0.18
v -0.18 0.1856 -1.804779E-16
v -0.1272792 0.1856 -0.1272792
v -0.1272792 0.1856 0.1272792
v 3.609557E-16 0.1856 0.18
v 3.609557E-16 0.1856 -0.18
v 0.1272792 0.1856 0.1272792
v 0.1272792 0.1856 -0.1272792
v 0.18 0.1856 -1.804779E-16
v -0.189 0.1628 -1.804779E-16
v -0.1336432 0.1628 -0.1336432
v 3.609557E-16 0.1628 -0.189
v 0.1336432 0.1628 -0.1336432
v 0.189 0.1628 -1.804779E-16
v -0.1336432 0.1628 0.1336432
v 3.609557E-16 0.1628 0.189
v 0.1336432 0.1628 0.1336432



usemtl brownDark

f 26/7/43 24/6/43 30/52/43
f 24/6/43 26/7/43 109/53/43
f 24/6/43 109/53/43 110/54/43
f 110/54/43 109/53/43 20/11/43
f 110/54/43 20/11/43 31/10/43
f 31/10/43 20/11/43 32/55/43
f 30/52/44 24/6/44 26/7/44
f 109/53/44 26/7/44 24/6/44
f 110/54/44 109/53/44 24/6/44
f 20/11/44 109/53/44 110/54/44
f 31/10/44 20/11/44 110/54/44
f 32/55/44 20/11/44 31/10/44
f 113/10/44 112/11/44 111/55/44
f 112/11/44 113/10/44 114/56/44
f 112/11/44 114/56/44 115/57/44
f 115/57/44 114/56/44 116/6/44
f 115/57/44 116/6/44 117/7/44
f 117/7/44 116/6/44 118/52/44
f 111/55/43 112/11/43 113/10/43
f 114/56/43 113/10/43 112/11/43
f 115/57/43 114/56/43 112/11/43
f 116/6/43 114/56/43 115/57/43
f 117/7/43 116/6/43 115/57/43
f 118/52/43 116/6/43 117/7/43
f 112/60/45 119/59/45 111/58/45
f 119/59/45 112/60/45 120/61/45
f 111/58/46 119/59/46 112/60/46
f 120/61/46 112/60/46 119/59/46
f 121/64/47 20/63/47 109/62/47
f 20/63/47 121/64/47 122/65/47
f 109/62/48 20/63/48 121/64/48
f 122/65/48 121/64/48 20/63/48
f 20/62/49 123/65/49 32/63/49
f 123/65/49 20/62/49 122/64/49
f 32/63/50 123/65/50 20/62/50
f 122/64/50 20/62/50 123/65/50
f 124/68/44 120/67/44 119/66/44
f 120/67/44 124/68/44 125/69/44
f 120/67/44 125/69/44 121/70/44
f 121/70/44 125/69/44 126/71/44
f 121/70/44 126/71/44 122/72/44
f 122/72/44 126/71/44 123/73/44
f 119/66/43 120/67/43 124/68/43
f 125/69/43 124/68/43 120/67/43
f 121/70/43 125/69/43 120/67/43
f 126/71/43 125/69/43 121/70/43
f 122/72/43 126/71/43 121/70/43
f 123/73/43 126/71/43 122/72/43
f 126/64/51 110/63/51 31/62/51
f 110/63/51 126/64/51 125/65/51
f 31/62/52 110/63/52 126/64/52
f 125/65/52 126/64/52 110/63/52
f 114/58/48 124/61/48 125/59/48
f 124/61/48 114/58/48 113/60/48
f 125/59/47 124/61/47 114/58/47
f 113/60/47 114/58/47 124/61/47
f 119/65/53 24/62/53 124/64/53
f 24/62/53 119/65/53 30/63/53
f 124/64/54 24/62/54 119/65/54
f 30/63/54 119/65/54 24/62/54
f 123/59/55 116/60/55 126/61/55
f 116/60/55 123/59/55 118/58/55
f 126/61/56 116/60/56 123/59/56
f 118/58/56 123/59/56 116/60/56
f 116/58/57 125/61/57 126/59/57
f 125/61/57 116/58/57 114/60/57
f 126/59/58 125/61/58 116/58/58
f 114/60/58 116/58/58 125/61/58
f 115/58/59 122/61/59 121/59/59
f 122/61/59 115/58/59 117/60/59
f 121/59/60 122/61/60 115/58/60
f 117/60/60 115/58/60 122/61/60
f 120/64/58 109/63/58 26/62/58
f 109/63/58 120/64/58 121/65/58
f 26/62/57 109/63/57 120/64/57
f 121/65/57 120/64/57 109/63/57
f 31/63/46 123/64/46 126/65/46
f 123/64/46 31/63/46 32/62/46
f 126/65/45 123/64/45 31/63/45
f 32/62/45 31/63/45 123/64/45
f 113/58/50 119/61/50 124/59/50
f 119/61/50 113/58/50 111/60/50
f 124/59/49 119/61/49 113/58/49
f 111/60/49 113/58/49 119/61/49
f 122/59/54 118/60/54 123/61/54
f 118/60/54 122/59/54 117/58/54
f 123/61/53 118/60/53 122/59/53
f 117/58/53 122/59/53 118/60/53
f 120/65/56 30/62/56 119/64/56
f 30/62/56 120/65/56 26/63/56
f 119/64/55 30/62/55 120/65/55
f 26/63/55 120/65/55 30/62/55
f 125/64/60 24/63/60 110/62/60
f 24/63/60 125/64/60 124/65/60
f 110/62/59 24/63/59 125/64/59
f 124/65/59 125/64/59 24/63/59
f 112/58/52 121/61/52 120/59/52
f 121/61/52 112/58/52 115/60/52
f 120/59/51 121/61/51 112/58/51
f 115/60/51 112/58/51 121/61/51

