# Created by Kenney (www.kenney.nl)

mtllib cabbage.mtl

g cabbage

v -0.04754479 0.258048 0.02745
v -0.04754479 0.258048 -0.02745
v -1.082867E-15 0.258048 0.0549
v -1.082867E-15 0.258048 -0.0549
v 0.04754479 0.258048 0.02745
v 0.04754479 0.258048 -0.02745
v 0.1104286 0.171376 0.063756
v 0.1104286 0.171376 -0.063756
v -0.1104286 0.171376 -0.063756
v -7.219114E-16 0.171376 -0.127512
v -0.1104286 0.171376 0.063756
v -0.189725 0.1162879 0.075
v -0.189725 0.1162879 -0.075
v -0.1755615 0.1811209 0.045
v -0.1755615 0.1811209 -0.045
v -7.219114E-16 0.171376 0.127512
v -0.1550398 0.1255909 0.085
v -0.1550398 0.1255909 -0.085
v -0.1271695 0.2431051 0.06246173
v -0.1179424 0.2820106 1.082867E-14
v -0.1271695 0.2431051 -0.06246173
v 0.1550398 0.1255909 0.085
v 0.1271695 0.2431051 0.06246173
v 0.1550398 0.1255909 -0.085
v 0.1179424 0.2820106 7.58007E-15
v 0.1271695 0.2431051 -0.06246173
v 0.189725 0.1162879 0.075
v 0.1755615 0.1811209 0.045
v 0.189725 0.1162879 -0.075
v 0.1755615 0.1811209 -0.045
v -0.02991062 0.1034962 0.2018067
v -0.1598144 0.1034962 0.1268067
v -0.04880961 0.1611976 0.1745407
v -0.1267519 0.1611976 0.1295407
v -0.003907744 0.1117759 0.1767684
v -0.1511321 0.1117759 0.09176841
v -0.009491281 0.2163636 0.1413628
v -0.1176782 0.2163636 0.07890111
v -0.05897122 0.2509894 0.1021411
v 0.003907744 0.1042404 -0.1767684
v 0.1511321 0.1042404 -0.09176841
v 0.009491281 0.2017773 -0.1413628
v 0.1176782 0.2017773 -0.07890111
v 0.05897122 0.2340688 -0.1021411
v 0.02991062 0.09651893 -0.2018067
v 0.1598144 0.09651893 -0.1268067
v 0.04880961 0.1503303 -0.1745407
v 0.1267519 0.1503303 -0.1295407
v 0.1511321 0.1343823 0.09176841
v 0.003907744 0.1343823 0.1767684
v 0.1176782 0.2601225 0.07890111
v 0.009491281 0.2601225 0.1413628
v 0.05897122 0.3017513 0.1021411
v 0.1598144 0.124428 0.1268067
v 0.02991062 0.124428 0.2018067
v 0.1267519 0.1937993 0.1295407
v 0.04880961 0.1937993 0.1745407
v -0.1598144 0.1267538 -0.1268067
v -0.02991062 0.1267538 -0.2018067
v -0.1267519 0.1974217 -0.1295407
v -0.04880961 0.1974217 -0.1745407
v -0.1511321 0.1368941 -0.09176841
v -0.003907744 0.1368941 -0.1767684
v -0.1176782 0.2649846 -0.07890111
v -0.009491281 0.2649846 -0.1413628
v -0.05897122 0.3073915 -0.1021411
v -3.248601E-15 0 0.09
v -0.07794229 0 0.045
v 8.301981E-15 0 -0.09
v 0.07794229 0 -0.045
v 0.07794229 0 0.045
v -0.07794229 0 -0.045

vn 0 1 0
vn 0.8094034 0.587253 0
vn -0.4047017 0.5872531 -0.7009639
vn -0.8094034 0.587253 0
vn -0.9769588 0.2134283 0
vn 0.9769588 -0.2134283 0
vn 0.4047017 0.5872531 0.7009639
vn -0.9730096 0.2307645 0
vn 0.9730096 -0.2307645 0
vn -0.4047017 0.5872531 0.7009639
vn 0.4047017 0.5872531 -0.7009639
vn 0.9730096 0.2307645 0
vn -0.9730096 -0.2307645 0
vn 0.9769588 0.2134283 0
vn -0.9769588 -0.2134283 0
vn -0.4855852 0.2383862 0.8410583
vn 0.4855852 -0.2383862 -0.8410583
vn -0.4831401 0.2574928 0.8368232
vn 0.4831401 -0.2574928 -0.8368232
vn 0.4807585 0.2747456 -0.8326981
vn -0.4807585 -0.2747456 0.8326981
vn 0.4835314 0.2545378 -0.8375009
vn -0.4835314 -0.2545378 0.8375009
vn 0.4881526 0.2163983 0.8455051
vn -0.4881526 -0.2163983 -0.8455051
vn 0.4898935 0.2000432 0.8485205
vn -0.4898935 -0.2000432 -0.8485205
vn -0.4902503 0.1965157 -0.8491384
vn 0.4902503 -0.1965157 0.8491384
vn -0.4885687 0.2126087 -0.8462259
vn 0.4885687 -0.2126087 0.8462259
vn -0.411588 -0.5677863 0.7128913
vn 0.411588 0.5677863 -0.7128913
vn -0.3396928 -0.7337815 0.5883651
vn 0.3396928 0.7337815 -0.5883651
vn 0.4019955 -0.5946416 -0.6962765
vn -0.4019955 0.5946416 0.6962765
vn 0.3267697 -0.7568924 -0.5659818
vn -0.3267697 0.7568924 0.5659818
vn -0.4912517 -0.1862451 0.8508728
vn 0.4912517 -0.1862451 -0.8508728
vn 0.4336932 -0.4976352 0.7511787
vn -0.4336932 0.4976352 -0.7511787
vn -0.435659 -0.4907185 -0.7545836
vn 0.435659 0.4907185 0.7545836
vn 0.4912517 -0.1862451 0.8508728
vn 0.3719479 -0.6682957 0.6442326
vn -0.3719479 0.6682957 -0.6442326
vn -0.3750053 -0.661426 -0.6495281
vn 0.3750053 0.661426 0.6495281
vn 0.9825033 -0.1862451 0
vn -0.4912517 -0.1862451 -0.8508728
vn 0 -1 0
vn -0.9825033 -0.1862451 0
vn -0.7209338 -0.6930041 0
vn 0.7209338 0.6930041 0
vn -0.8522308 -0.5231659 0
vn 0.8522308 0.5231659 0
vn 0.7209338 -0.6930041 0
vn -0.7209338 0.6930041 0
vn 0.8522308 -0.5231659 0
vn -0.8522308 0.5231659 0

vt -1.871842 -1.080709
vt -1.871842 1.080709
vt -4.263256E-14 -2.161417
vt -4.263256E-14 2.161417
vt 1.871842 -1.080709
vt 1.871842 1.080709
vt -2.510079 2.907983
vt -1.080709 7.123784
vt 2.510079 2.907983
vt 1.080709 7.123784
vt 2.952756 2.878573
vt -2.952756 2.878573
vt 1.771654 5.491253
vt -1.771654 5.491253
vt 3.346457 3.402499
vt -3.346457 3.402499
vt 2.459123 8.15738
vt 4.261555E-13 9.731576
vt -2.459123 8.15738
vt -5.011684E-14 9.731576
vt 2.952756 2.176559
vt -2.952756 2.176559
vt 1.771654 4.515703
vt -1.771654 4.515703
vt 3.346457 2.68052
vt -3.346457 2.68052
vt 2.459123 6.941836
vt -2.459123 6.941836
vt 1.083578E-13 8.352628
vt 3.346457 2.268994
vt -3.346457 2.268994
vt 2.459123 6.262718
vt -2.459123 6.262718
vt 1.049383E-12 7.584918
vt 2.952756 1.77353
vt -2.952756 1.77353
vt 1.771654 3.964245
vt -1.771654 3.964245
vt 3.346457 3.8444
vt -3.346457 3.8444
vt 2.459123 8.914949
vt -2.459123 8.914949
vt -1.270095E-13 10.59365
vt 2.952756 3.305503
vt -2.952756 3.305503
vt 1.771654 6.093
vt -1.771654 6.093
vt 2.952756 3.425127
vt -2.952756 3.425127
vt 1.771654 6.262661
vt -1.771654 6.262661
vt 3.346457 3.968564
vt -3.346457 3.968564
vt 2.459123 9.12949
vt -2.459123 9.12949
vt 2.224887E-13 10.83812
vt 1.771654 1.742306
vt -1.771654 1.742306
vt 3.346457 7.088217
vt -3.346457 7.088217
vt -2.952756 8.249234
vt 2.952756 8.249234
vt -1.771654 2.251677
vt 1.771654 2.251677
vt 1.771654 1.824714
vt -1.771654 1.824714
vt 3.346457 6.929193
vt -3.346457 6.929193
vt 1.771654 2.322596
vt -1.771654 2.322596
vt 2.952756 8.137023
vt -2.952756 8.137023
vt 1.771654 0.5715106
vt -1.771654 0.5715106
vt 2.510079 7.438751
vt -2.510079 7.438751
vt 1.771654 1.52704
vt -1.771654 1.52704
vt 3.346457 7.62656
vt -3.346457 7.62656
vt 1.771654 1.505816
vt -1.771654 1.505816
vt 3.346457 7.691308
vt -3.346457 7.691308
vt -1.771654 2.050728
vt -2.952756 8.635981
vt 1.771654 2.050728
vt 2.952756 8.635981
vt 2.952756 8.683296
vt 1.771654 2.029648
vt -2.952756 8.683296
vt -1.771654 2.029648
vt 3.068594 1.771654
vt 3.068594 -1.771654
vt -3.268497E-13 3.543307
vt 1.278977E-13 -3.543307
vt -3.068594 -1.771654
vt -3.068594 1.771654
vt 2.952756 8.477011
vt 1.771654 2.126548
vt -2.952756 8.477011
vt -1.771654 2.126548
vt 3.346457 7.407244
vt 1.771654 1.605384
vt -3.346457 7.407244
vt -1.771654 1.605384

usemtl green

f 3/3/1 2/2/1 1/1/1
f 2/2/1 3/3/1 4/4/1
f 4/4/1 3/3/1 5/5/1
f 4/4/1 5/5/1 6/6/1
f 8/9/2 5/8/2 7/7/2
f 5/8/2 8/9/2 6/10/2
f 2/10/3 10/7/3 9/9/3
f 10/7/3 2/10/3 4/8/3
f 1/10/4 9/7/4 11/9/4
f 9/7/4 1/10/4 2/8/4
f 14/13/5 13/12/5 12/11/5
f 13/12/5 14/13/5 15/14/5
f 12/11/6 13/12/6 14/13/6
f 15/14/6 14/13/6 13/12/6
f 5/10/7 16/7/7 7/9/7
f 16/7/7 5/10/7 3/8/7
f 19/17/8 18/16/8 17/15/8
f 18/16/8 19/17/8 20/18/8
f 18/16/8 20/18/8 21/19/8
f 17/15/9 18/16/9 19/17/9
f 20/18/9 19/17/9 18/16/9
f 21/19/9 20/18/9 18/16/9
f 3/10/10 11/7/10 16/9/10
f 11/7/10 3/10/10 1/8/10
f 4/10/11 8/7/11 10/9/11
f 8/7/11 4/10/11 6/8/11
f 24/15/12 23/19/12 22/16/12
f 23/19/12 24/15/12 25/20/12
f 25/20/12 24/15/12 26/17/12
f 22/16/13 23/19/13 24/15/13
f 25/20/13 24/15/13 23/19/13
f 26/17/13 24/15/13 25/20/13
f 29/11/14 28/14/14 27/12/14
f 28/14/14 29/11/14 30/13/14
f 27/12/15 28/14/15 29/11/15
f 30/13/15 29/11/15 28/14/15
f 33/23/16 32/22/16 31/21/16
f 32/22/16 33/23/16 34/24/16
f 31/21/17 32/22/17 33/23/17
f 34/24/17 33/23/17 32/22/17
f 37/27/18 36/26/18 35/25/18
f 36/26/18 37/27/18 38/28/18
f 38/28/18 37/27/18 39/29/18
f 35/25/19 36/26/19 37/27/19
f 38/28/19 37/27/19 36/26/19
f 39/29/19 37/27/19 38/28/19
f 42/32/20 41/31/20 40/30/20
f 41/31/20 42/32/20 43/33/20
f 43/33/20 42/32/20 44/34/20
f 40/30/21 41/31/21 42/32/21
f 43/33/21 42/32/21 41/31/21
f 44/34/21 42/32/21 43/33/21
f 47/37/22 46/36/22 45/35/22
f 46/36/22 47/37/22 48/38/22
f 45/35/23 46/36/23 47/37/23
f 48/38/23 47/37/23 46/36/23
f 51/41/24 50/40/24 49/39/24
f 50/40/24 51/41/24 52/42/24
f 52/42/24 51/41/24 53/43/24
f 49/39/25 50/40/25 51/41/25
f 52/42/25 51/41/25 50/40/25
f 53/43/25 51/41/25 52/42/25
f 56/46/26 55/45/26 54/44/26
f 55/45/26 56/46/26 57/47/26
f 54/44/27 55/45/27 56/46/27
f 57/47/27 56/46/27 55/45/27
f 60/50/28 59/49/28 58/48/28
f 59/49/28 60/50/28 61/51/28
f 58/48/29 59/49/29 60/50/29
f 61/51/29 60/50/29 59/49/29
f 64/54/30 63/53/30 62/52/30
f 63/53/30 64/54/30 65/55/30
f 65/55/30 64/54/30 66/56/30
f 62/52/31 63/53/31 64/54/31
f 65/55/31 64/54/31 63/53/31
f 66/56/31 64/54/31 65/55/31
f 35/59/32 68/58/32 67/57/32
f 68/58/32 35/59/32 36/60/32
f 67/57/33 68/58/33 35/59/33
f 36/60/33 35/59/33 68/58/33
f 68/63/34 31/62/34 32/61/34
f 31/62/34 68/63/34 67/64/34
f 32/61/35 31/62/35 68/63/35
f 67/64/35 68/63/35 31/62/35
f 40/67/36 70/66/36 69/65/36
f 70/66/36 40/67/36 41/68/36
f 69/65/37 70/66/37 40/67/37
f 41/68/37 40/67/37 70/66/37
f 45/71/38 70/70/38 69/69/38
f 70/70/38 45/71/38 46/72/38
f 69/69/39 70/70/39 45/71/39
f 46/72/39 45/71/39 70/70/39
f 16/75/40 68/74/40 67/73/40
f 68/74/40 16/75/40 11/76/40
f 10/75/41 70/74/41 69/73/41
f 70/74/41 10/75/41 8/76/41
f 49/79/42 67/78/42 71/77/42
f 67/78/42 49/79/42 50/80/42
f 71/77/43 67/78/43 49/79/43
f 50/80/43 49/79/43 67/78/43
f 62/83/44 69/82/44 72/81/44
f 69/82/44 62/83/44 63/84/44
f 72/81/45 69/82/45 62/83/45
f 63/84/45 62/83/45 69/82/45
f 7/75/46 67/74/46 71/73/46
f 67/74/46 7/75/46 16/76/46
f 71/87/47 55/86/47 67/85/47
f 55/86/47 71/87/47 54/88/47
f 67/85/48 55/86/48 71/87/48
f 54/88/48 71/87/48 55/86/48
f 59/91/49 72/90/49 58/89/49
f 72/90/49 59/91/49 69/92/49
f 58/89/50 72/90/50 59/91/50
f 69/92/50 59/91/50 72/90/50
f 71/74/51 8/75/51 7/76/51
f 8/75/51 71/74/51 70/73/51
f 9/75/52 69/74/52 72/73/52
f 69/74/52 9/75/52 10/76/52
f 69/95/53 68/94/53 72/93/53
f 68/94/53 69/95/53 67/96/53
f 67/96/53 69/95/53 71/97/53
f 71/97/53 69/95/53 70/98/53
f 9/76/54 68/73/54 11/75/54
f 68/73/54 9/76/54 72/74/54
f 13/101/55 68/100/55 12/99/55
f 68/100/55 13/101/55 72/102/55
f 12/99/56 68/100/56 13/101/56
f 72/102/56 13/101/56 68/100/56
f 18/105/57 68/104/57 17/103/57
f 68/104/57 18/105/57 72/106/57
f 17/103/58 68/104/58 18/105/58
f 72/106/58 18/105/58 68/104/58
f 71/102/59 29/99/59 27/101/59
f 29/99/59 71/102/59 70/100/59
f 27/101/60 29/99/60 71/102/60
f 70/100/60 71/102/60 29/99/60
f 71/106/61 24/103/61 22/105/61
f 24/103/61 71/106/61 70/104/61
f 22/105/62 24/103/62 71/106/62
f 70/104/62 71/106/62 24/103/62

usemtl _defaultMat

f 16/55/1 9/54/1 11/56/1
f 9/55/1 16/54/1 10/56/1
f 10/55/1 16/54/1 7/56/1
f 10/55/1 7/54/1 8/56/1

