# Created by Kenney (www.kenney.nl)

mtllib candyBarWrapper.mtl

g candyBarWrapper

v 0 4.512565E-18 -0.03726821
v 0 4.512565E-18 0.03726821
v 0.146224 4.512565E-18 -0.03726821
v 0.146224 4.512565E-18 0.03726821
v 0.146224 0.06 0.03726821
v 0 0.06 0.03726821
v 0 0.06 -0.03726821
v 0.146224 0.06 -0.03726821
v 0 0.06 0.01378924
v 0 0.06 -0.01378924
v -0.146224 4.512565E-18 -0.03726821
v -0.146224 0.04968066 -0.02924501
v 0 0.04968066 -0.02924501
v -0.146224 0.04968066 0.02924501
v -0.146224 0.06 0.01378924
v 0 0.04968066 0.02924501
v -0.146224 4.512565E-18 0.03726821
v -0.146224 0.06 -0.01378924
v -0.03 5.147676E-18 -0.05847216
v -0.03 0.07 -0.05847216
v -0.03 0.08120394 -0.04726822
v -0.03 0.08120394 0.04726822
v -0.03 0 0.05847216
v -0.03 0.07 0.05847216

vn 0 -1 0
vn 0 0 1
vn 0 0 -1
vn 1 0 0
vn 0 1 0
vn 0 0.1594299 -0.9872092
vn 0 0.8316652 0.5552774
vn -1 0 0
vn 0 0.1594299 0.9872092
vn 0 0.8316652 -0.5552774
vn 0.5771823 0 -0.8166154
vn -0.5771823 0 0.8166154
vn -0.5771823 -0.8166154 0
vn 0.5771823 0.8166154 0
vn -0.5771823 0 -0.8166154
vn 0.5771823 0 0.8166154

vt 0 1.467252
vt 0 -1.467252
vt -5.75685 1.467252
vt -5.75685 -1.467252
vt 5.75685 1.776601E-16
vt 0 1.776601E-16
vt 5.75685 2.362205
vt 0 2.362205
vt -5.75685 1.776601E-16
vt -5.75685 2.362205
vt -1.467252 1.776601E-16
vt -1.467252 2.362205
vt 1.467252 1.776601E-16
vt 1.467252 2.362205
vt -1.366671E-16 -1.467252
vt 6.377799E-16 -0.5428835
vt 5.75685 -1.467252
vt 6.377799E-16 0.5428835
vt -1.366671E-16 1.467252
vt 5.75685 1.467252
vt 5.75685 -0.233924
vt -1.868421E-15 -0.233924
vt 5.75685 1.747349
vt -1.466182E-15 1.747349
vt -5.75685 0.1285233
vt -5.75685 0.8601816
vt 1.11089E-15 0.1285233
vt 5.237927E-16 0.8601816
vt 1.151378 1.955931
vt 0.5428835 2.362205
vt -0.5428835 2.362205
vt -1.151378 1.955931
vt -5.75685 -0.5428835
vt -5.75685 0.5428835
vt -1.459542E-15 -0.233924
vt -5.75685 -0.233924
vt -1.145328E-15 1.747349
vt -5.75685 1.747349
vt 5.75685 0.8601816
vt 5.75685 0.1285233
vt -1.075116E-15 0.8601816
vt -2.280167E-15 0.1285233
vt 0.8468721 1.924363E-16
vt 0.8468721 2.362205
vt 2.293211 2.174407E-16
vt 2.293211 2.755906
vt -1.860953 2.809761
vt 1.860953 2.809761
vt -1.467252 1.363423
vt 1.467252 1.363423
vt -0.5428835 1.363423
vt 0.5428835 1.363423
vt 2.293211 2.659722E-17
vt 0.8468721 2.042573E-16

usemtl red

f 3/3/1 2/2/1 1/1/1
f 2/2/1 3/3/1 4/4/1
f 5/7/2 2/6/2 4/5/2
f 2/6/2 5/7/2 6/8/2
f 7/8/3 3/9/3 1/6/3
f 3/9/3 7/8/3 8/10/3
f 3/13/4 5/12/4 4/11/4
f 5/12/4 3/13/4 8/14/4
f 5/17/5 9/16/5 6/15/5
f 9/16/5 5/17/5 10/18/5
f 10/18/5 5/17/5 7/19/5
f 7/19/5 5/17/5 8/20/5

usemtl brownDark

f 12/23/6 1/22/6 11/21/6
f 1/22/6 12/23/6 13/24/6
f 16/27/7 15/26/7 14/25/7
f 15/26/7 16/27/7 9/28/7
f 14/29/8 11/11/8 17/13/8
f 11/11/8 14/29/8 15/30/8
f 11/11/8 15/30/8 18/31/8
f 11/11/8 18/31/8 12/32/8
f 1/1/1 17/17/1 11/20/1
f 17/17/1 1/1/1 2/2/1
f 9/16/5 18/34/5 15/33/5
f 18/34/5 9/16/5 10/18/5
f 6/14/8 16/29/8 2/13/8
f 16/29/8 6/14/8 9/30/8
f 16/37/9 17/36/9 2/35/9
f 17/36/9 16/37/9 14/38/9
f 10/41/10 12/40/10 18/39/10
f 12/40/10 10/41/10 13/42/10
f 7/12/8 13/32/8 10/31/8
f 13/32/8 7/12/8 1/11/8

usemtl white

f 19/45/11 7/44/11 1/43/11
f 7/44/11 19/45/11 20/46/11
f 1/43/12 7/44/12 19/45/12
f 20/46/12 19/45/12 7/44/12
f 7/49/13 22/48/13 21/47/13
f 22/48/13 7/49/13 6/50/13
f 6/50/13 7/49/13 10/51/13
f 6/50/13 10/51/13 9/52/13
f 21/47/14 22/48/14 7/49/14
f 6/50/14 7/49/14 22/48/14
f 10/51/14 7/49/14 6/50/14
f 9/52/14 10/51/14 6/50/14
f 24/46/15 2/54/15 23/53/15
f 2/54/15 24/46/15 6/44/15
f 23/53/16 2/54/16 24/46/16
f 6/44/16 24/46/16 2/54/16

