# Created by Kenney (www.kenney.nl)

mtllib canSmall.mtl

g canSmall

v -0.15 0 0
v -0.1306549 0 0
v -0.106066 0 -0.106066
v -0.09238696 0 -0.09238696
v 0 0 -0.15
v -9.023893E-17 0 -0.1306549
v 0.09238696 0 -0.09238696
v 0.106066 0 -0.106066
v 0.1306549 0 0
v 0.15 0 0
v -0.106066 0 0.106066
v -0.09238696 0 0.09238696
v 0 0 0.15
v 9.023893E-17 0 0.1306549
v 0.106066 0 0.106066
v 0.09238696 0 0.09238696
v -9.023893E-17 0.01 -0.1306549
v -0.09238696 0.01 -0.09238696
v 0.09238696 0.01 -0.09238696
v 0.1306549 0.01 0
v 0.09238696 0.1405253 0.09238696
v 0.09238696 0.1305253 0.09238696
v 0.1306549 0.1405253 0
v 0.1306549 0.1305253 0
v 0.09238696 0.1405253 -0.09238696
v 0.09238696 0.1305253 -0.09238696
v 9.023893E-17 0.1305253 0.1306549
v 9.023893E-17 0.1405253 0.1306549
v 0.09238696 0.01 0.09238696
v -0.1306549 0.1305253 0
v -0.1006549 0.1305253 0.02
v -0.09238696 0.1305253 0.09238696
v -0.03065489 0.1305253 0.03
v -0.03065489 0.1305253 -0.03
v -9.023893E-17 0.1305253 -0.1306549
v -0.1006549 0.1305253 -0.02
v -0.09238696 0.1305253 -0.09238696
v -0.15 0.1405253 0
v -0.1306549 0.1405253 0
v -0.106066 0.1405253 0.106066
v -0.09238696 0.1405253 0.09238696
v 0 0.1405253 0.15
v 0.106066 0.1405253 0.106066
v 0.15 0.1405253 0
v -0.106066 0.1405253 -0.106066
v -0.09238696 0.1405253 -0.09238696
v 0 0.1405253 -0.15
v -9.023893E-17 0.1405253 -0.1306549
v 0.106066 0.1405253 -0.106066
v -0.1306549 0.01 0
v -0.09238696 0.01 0.09238696
v 9.023893E-17 0.01 0.1306549
v -0.106066 0.1005253 0.106066
v -0.15 0.1005253 0
v 0 0.04 -0.15
v 0.106066 0.04 -0.106066
v 0.106066 0.04 0.106066
v 0.15 0.04 0
v -0.106066 0.1005253 -0.106066
v 0 0.1005253 -0.15
v 0.106066 0.1005253 0.106066
v 0 0.1005253 0.15
v 0.15 0.1005253 0
v 0.106066 0.1005253 -0.106066
v -0.106066 0.04 -0.106066
v -0.106066 0.04 0.106066
v -0.15 0.04 0
v 0 0.04 0.15
v -0.08676489 0.1305253 0.007953263
v -0.08676489 0.1305253 -0.007953263
v -0.0445449 0.1305253 0.01398469
v -0.0445449 0.1305253 -0.01398469

vn 0 -1 0
vn 0.3826834 0 0.9238795
vn -0.3826834 0 0.9238795
vn -0.9238795 0 0.3826834
vn -0.9238795 0 -0.3826834
vn -0.3826834 0 -0.9238795
vn 0 1 0
vn 0.9238795 0 0.3826834
vn 0.9238795 0 -0.3826834
vn 0.3826834 0 -0.9238795

vt 5.905512 0
vt 5.143893 0
vt 4.175828 4.175828
vt 3.637282 3.637282
vt 0 5.905512
vt 3.552714E-15 5.143893
vt -3.637282 3.637282
vt -4.175828 4.175828
vt -5.143893 0
vt -5.905512 0
vt 4.175828 -4.175828
vt 3.637282 -3.637282
vt 0 -5.905512
vt -3.552714E-15 -5.143893
vt -4.175828 -4.175828
vt -3.637282 -3.637282
vt 1.968483 0
vt -1.968483 0
vt 1.968483 0.3937008
vt -1.968483 0.3937008
vt 1.968483 5.53249
vt 1.968483 5.13879
vt -1.968483 5.53249
vt -1.968483 5.13879
vt -3.962791 -0.7874016
vt -1.206886 -1.181102
vt 3.552714E-15 -5.143893
vt -1.206886 1.181102
vt -3.552714E-15 5.143893
vt -3.962791 0.7874016
vt 2.259942 5.53249
vt 2.259942 3.957687
vt -2.259942 5.53249
vt -2.259942 3.957687
vt 2.259942 0
vt -2.259942 0
vt 2.259942 1.574803
vt -2.259942 1.574803
vt -3.415941 -0.3131206
vt -3.415941 0.3131206
vt -1.753736 -0.5505784
vt -1.753736 0.5505784

usemtl greyLight

f 3/3/1 2/2/1 1/1/1
f 2/2/1 3/3/1 4/4/1
f 4/4/1 3/3/1 5/5/1
f 4/4/1 5/5/1 6/6/1
f 6/6/1 5/5/1 7/7/1
f 7/7/1 5/5/1 8/8/1
f 7/7/1 8/8/1 9/9/1
f 9/9/1 8/8/1 10/10/1
f 2/2/1 11/11/1 1/1/1
f 11/11/1 2/2/1 12/12/1
f 11/11/1 12/12/1 13/13/1
f 13/13/1 12/12/1 14/14/1
f 13/13/1 14/14/1 15/15/1
f 15/15/1 9/9/1 10/10/1
f 15/15/1 14/14/1 16/16/1
f 15/15/1 16/16/1 9/9/1
f 17/19/2 4/18/2 6/17/2
f 4/18/2 17/19/2 18/20/2
f 19/19/3 6/18/3 7/17/3
f 6/18/3 19/19/3 17/20/3
f 19/20/4 9/17/4 20/19/4
f 9/17/4 19/20/4 7/18/4
f 23/23/5 22/22/5 21/21/5
f 22/22/5 23/23/5 24/24/5
f 25/23/4 24/22/4 23/21/4
f 24/22/4 25/23/4 26/24/4
f 28/21/6 22/24/6 27/22/6
f 22/24/6 28/21/6 21/23/6
f 20/20/5 16/17/5 29/19/5
f 16/17/5 20/20/5 9/18/5
f 32/16/7 31/25/7 30/9/7
f 31/25/7 32/16/7 33/26/7
f 33/26/7 32/16/7 27/27/7
f 33/26/7 27/27/7 34/28/7
f 34/28/7 27/27/7 35/29/7
f 35/29/7 27/27/7 26/4/7
f 26/4/7 27/27/7 22/12/7
f 26/4/7 22/12/7 24/2/7
f 36/30/7 30/9/7 31/25/7
f 30/9/7 36/30/7 37/7/7
f 37/7/7 36/30/7 34/28/7
f 37/7/7 34/28/7 35/29/7
f 40/15/7 39/9/7 38/10/7
f 39/9/7 40/15/7 41/16/7
f 41/16/7 40/15/7 42/13/7
f 41/16/7 42/13/7 28/27/7
f 28/27/7 42/13/7 43/11/7
f 28/27/7 43/11/7 21/12/7
f 21/12/7 43/11/7 23/2/7
f 23/2/7 43/11/7 44/1/7
f 39/9/7 45/8/7 38/10/7
f 45/8/7 39/9/7 46/7/7
f 45/8/7 46/7/7 47/5/7
f 47/5/7 46/7/7 48/29/7
f 47/5/7 48/29/7 25/4/7
f 47/5/7 25/4/7 49/3/7
f 49/3/7 25/4/7 23/2/7
f 49/3/7 23/2/7 44/1/7
f 25/21/3 35/24/3 26/22/3
f 35/24/3 25/21/3 48/23/3
f 48/21/2 37/24/2 35/22/2
f 37/24/2 48/21/2 46/23/2
f 37/22/8 39/23/8 30/24/8
f 39/23/8 37/22/8 46/21/8
f 30/22/9 41/23/9 32/24/9
f 41/23/9 30/22/9 39/21/9
f 41/21/10 27/24/10 32/22/10
f 27/24/10 41/21/10 28/23/10
f 18/4/1 51/12/1 50/2/1
f 51/12/1 18/4/1 52/14/1
f 52/14/1 18/4/1 17/6/1
f 52/14/1 17/6/1 19/7/1
f 52/14/1 19/7/1 29/16/1
f 29/16/1 19/7/1 20/9/1
f 52/19/6 16/18/6 14/17/6
f 16/18/6 52/19/6 29/20/6
f 51/19/10 14/18/10 12/17/10
f 14/18/10 51/19/10 52/20/10
f 2/17/9 51/20/9 12/18/9
f 51/20/9 2/17/9 50/19/9
f 4/17/8 50/20/8 2/18/8
f 50/20/8 4/17/8 18/19/8
f 38/33/4 53/32/4 40/31/4
f 53/32/4 38/33/4 54/34/4
f 55/37/10 8/36/10 5/35/10
f 8/36/10 55/37/10 56/38/10
f 10/35/8 57/38/8 15/36/8
f 57/38/8 10/35/8 58/37/8
f 45/31/6 60/34/6 59/32/6
f 60/34/6 45/31/6 47/33/6
f 43/31/2 62/34/2 61/32/2
f 62/34/2 43/31/2 42/33/2
f 45/33/5 54/32/5 38/31/5
f 54/32/5 45/33/5 59/34/5
f 8/35/9 58/38/9 10/36/9
f 58/38/9 8/35/9 56/37/9
f 64/32/9 44/33/9 63/34/9
f 44/33/9 64/32/9 49/31/9
f 47/31/10 64/34/10 60/32/10
f 64/34/10 47/31/10 49/33/10
f 65/37/6 5/36/6 3/35/6
f 5/36/6 65/37/6 55/38/6
f 67/38/4 11/35/4 66/37/4
f 11/35/4 67/38/4 1/36/4
f 65/38/5 1/35/5 67/37/5
f 1/35/5 65/38/5 3/36/5
f 42/31/3 53/34/3 62/32/3
f 53/34/3 42/31/3 40/33/3
f 63/32/8 43/33/8 61/34/8
f 43/33/8 63/32/8 44/31/8
f 68/37/3 11/36/3 13/35/3
f 11/36/3 68/37/3 66/38/3
f 57/37/2 13/36/2 15/35/2
f 13/36/2 57/37/2 68/38/2
f 71/41/7 70/40/7 69/39/7
f 70/40/7 71/41/7 72/42/7

usemtl purple

f 59/32/6 55/38/6 65/37/6
f 55/38/6 59/32/6 60/34/6
f 60/32/10 56/38/10 55/37/10
f 56/38/10 60/32/10 64/34/10
f 59/34/5 67/37/5 54/32/5
f 67/37/5 59/34/5 65/38/5
f 61/32/2 68/38/2 57/37/2
f 68/38/2 61/32/2 62/34/2
f 62/32/3 66/38/3 68/37/3
f 66/38/3 62/32/3 53/34/3
f 54/34/4 66/37/4 53/32/4
f 66/37/4 54/34/4 67/38/4
f 56/37/9 63/34/9 58/38/9
f 63/34/9 56/37/9 64/32/9
f 58/37/8 61/34/8 57/38/8
f 61/34/8 58/37/8 63/32/8

usemtl greyDark

f 31/25/7 69/39/7 36/30/7
f 69/39/7 31/25/7 33/26/7
f 69/39/7 33/26/7 71/41/7
f 71/41/7 33/26/7 72/42/7
f 70/40/7 36/30/7 69/39/7
f 36/30/7 70/40/7 34/28/7
f 34/28/7 70/40/7 72/42/7
f 34/28/7 72/42/7 33/26/7

