# Created by Kenney (www.kenney.nl)

mtllib cartonSmall.mtl

g cartonSmall

v -1.443823E-15 0.25 0.095
v -0.115 0.22 0.115
v 0 0.35 0.115
v 0.115 0.22 0.115
v 0.115 0.22 -0.115
v 0 0.35 -0.115
v -0.115 0.22 -0.115
v 0 0.25 -0.095
v -0.115 0 -0.115
v 0.115 0 -0.115
v -0.115 0.0511131 -0.115
v 0.115 0.0511131 -0.115
v 0.115 0 0.115
v 0.115 0.0511131 0.115
v -0.115 0 0.115
v -0.115 0.0511131 0.115
v -0.03139184 0.3145136 0.02275
v -0.0575 0.285 0.0455
v -0.03139184 0.3145136 1.443823E-14
v -0.03139184 0.3145136 -0.02275
v -0.0575 0.285 -0.0455
v -0.08360817 0.2554864 0.02275
v -0.08360817 0.2554864 1.443823E-14
v -0.08360817 0.2554864 -0.02275
v -0.115 0.1688869 0.115
v -0.115 0.1688869 -0.115
v 0.115 0.1688869 -0.115
v 0.115 0.1688869 0.115
v -0.08745986 0.311503 0.040495
v -0.1106961 0.2852359 0.0202475
v -0.06422359 0.33777 0.0202475
v -0.06422359 0.33777 1.443823E-14
v -0.1106961 0.2852359 1.443823E-14
v -0.06422359 0.33777 -0.0202475
v -0.1106961 0.2852359 -0.0202475
v -0.08745986 0.311503 -0.040495
v 0 0.3702731 0.115
v 0 0.3905463 0.09472685
v 0 0.3905463 -0.09472685
v 0 0.3702731 -0.115

vn 0.2164413 -0.1914673 0.9573365
vn 0 0.5547002 0.8320503
vn -0.2164413 -0.1914673 0.9573365
vn 0.7489966 0.6625739 0
vn 0.2164413 -0.1914673 -0.9573365
vn -0.2164413 -0.1914673 -0.9573365
vn 0 0.5547002 -0.8320503
vn 0 0 -1
vn 1 0 0
vn 0 0 1
vn -0.7489966 0.6625739 0
vn -1 0 0
vn 0 -1 0
vn 0.2486689 0.4436983 -0.8609852
vn -0.7394078 -0.6732579 0
vn 0.5780278 0.816017 0
vn -0.4100488 -0.3009391 0.8609852
vn -0.4100488 -0.3009391 -0.8609852
vn 0.2486689 0.4436983 0.8609852

vt 0 0
vt -4.527559 -4.527559
vt -4.527559 4.527559
vt 4.527559 -4.527559
vt -4.527559 2.012327
vt -4.527559 6.64909
vt 4.527559 2.012327
vt 4.527559 6.64909
vt 4.527559 4.527559
vt 1.594291 6.904174
vt 0.7971457 5.523477
vt 0.7971457 8.284871
vt 5.684373E-13 8.284871
vt 5.684396E-13 5.523477
vt -0.7971457 8.284871
vt -0.7971457 5.523477
vt -1.594291 6.904174
vt 2.671942 9.570625
vt 1.435896 10.86719
vt 3.750471 10.73493
vt 2.65039 11.88888
vt 0.8956693 9.653484
vt 5.684342E-13 9.653484
vt 0.7971457 11.23751
vt 5.684342E-13 11.23751
vt -0.7971457 11.23751
vt -0.8956693 9.653484
vt -0.7971457 9.749922
vt -5.683929E-13 9.749922
vt -0.8956693 8.1659
vt -5.68414E-13 8.1659
vt 0.7971457 9.749922
vt 0.8956693 8.1659
vt -2.586714 10.26153
vt -3.591913 11.4897
vt -1.273583 11.47996
vt -2.423227 12.57411
vt 2.586714 10.26153
vt 1.273583 11.47996
vt 3.591913 11.4897
vt 2.423227 12.57411
vt -2.671942 9.570625
vt -3.750471 10.73493
vt -1.435896 10.86719
vt -2.65039 11.88888
vt 4.527559 14.57768
vt 4.527559 13.77953
vt 3.729404 15.37584
vt -4.527559 13.77953
vt -3.729404 15.37584
vt -4.527559 14.57768

usemtl _defaultMat

f 3/1/1 2/1/1 1/1/1
f 1/1/2 2/1/2 4/1/2
f 3/1/3 1/1/3 4/1/3
f 5/1/4 3/1/4 4/1/4
f 3/1/4 5/1/4 6/1/4
f 6/1/5 8/1/5 7/1/5
f 6/1/6 5/1/6 8/1/6
f 8/4/7 5/3/7 7/2/7
f 11/4/8 10/3/8 9/2/8
f 10/4/8 11/3/8 12/2/8
f 10/4/9 14/3/9 13/2/9
f 14/4/9 10/3/9 12/2/9
f 14/4/10 15/3/10 13/2/10
f 15/4/10 14/3/10 16/2/10
f 3/4/11 17/3/11 2/2/11
f 17/4/11 3/3/11 6/2/11
f 2/4/11 17/3/11 18/2/11
f 17/4/11 6/3/11 19/2/11
f 19/4/11 6/3/11 20/2/11
f 20/4/11 6/3/11 21/2/11
f 2/4/11 22/3/11 7/2/11
f 22/4/11 2/3/11 18/2/11
f 7/4/11 22/3/11 23/2/11
f 7/4/11 23/3/11 24/2/11
f 7/4/11 24/3/11 21/2/11
f 7/4/11 21/3/11 6/2/11
f 11/7/12 15/6/12 16/5/12
f 15/7/12 11/6/12 9/5/12
f 7/7/12 25/6/12 2/5/12
f 25/7/12 7/6/12 26/5/12
f 7/7/8 27/6/8 26/5/8
f 27/7/8 7/6/8 5/5/8
f 27/5/9 4/8/9 28/6/9
f 4/5/9 27/8/9 5/6/9
f 4/6/10 25/7/10 28/8/10
f 25/6/10 4/7/10 2/8/10

usemtl purpleLight

f 10/3/13 15/4/13 9/9/13
f 15/4/13 10/3/13 13/2/13
f 31/12/11 30/11/11 29/10/11
f 30/11/11 31/12/11 32/13/11
f 30/11/11 32/13/11 33/14/11
f 33/14/11 32/13/11 34/15/11
f 33/14/11 34/15/11 35/16/11
f 35/16/11 34/15/11 36/17/11
f 36/20/14 20/19/14 21/18/14
f 20/19/14 36/20/14 34/21/14
f 30/24/15 23/23/15 22/22/15
f 23/23/15 30/24/15 33/25/15
f 23/23/15 33/25/15 35/26/15
f 23/23/15 35/26/15 24/27/15
f 17/30/16 32/29/16 31/28/16
f 32/29/16 17/30/16 19/31/16
f 19/31/16 34/32/16 32/29/16
f 34/32/16 19/31/16 20/33/16
f 18/36/17 30/35/17 22/34/17
f 30/35/17 18/36/17 29/37/17
f 35/40/18 21/39/18 24/38/18
f 21/39/18 35/40/18 36/41/18
f 17/44/19 29/43/19 18/42/19
f 29/43/19 17/44/19 31/45/19
f 26/6/12 16/7/12 25/8/12
f 16/7/12 26/6/12 11/5/12
f 26/8/8 12/5/8 11/7/8
f 12/5/8 26/8/8 27/6/8
f 12/7/9 28/6/9 14/5/9
f 28/6/9 12/7/9 27/8/9
f 28/8/10 16/5/10 14/7/10
f 16/5/10 28/8/10 25/6/10

usemtl white

f 38/48/12 3/47/12 37/46/12
f 3/47/12 38/48/12 6/49/12
f 6/49/12 38/48/12 39/50/12
f 6/49/12 39/50/12 40/51/12
f 37/46/9 3/47/9 38/48/9
f 6/49/9 38/48/9 3/47/9
f 39/50/9 38/48/9 6/49/9
f 40/51/9 39/50/9 6/49/9

