# Created by Kenney (www.kenney.nl)

mtllib cheeseSlicer.mtl

g cheeseSlicer

v -0.06230178 0.01143846 0.0253407
v -0.06230178 0.02703846 0.0253407
v -0.06230178 0.01143846 -0.0253407
v -0.06230178 0.02703846 -0.0253407
v -0.2840117 0.02923846 0.03248807
v -0.2840117 0.009238464 0.03248807
v -0.3092117 0.02923846 -1.082867E-14
v -0.3092117 0.009238464 -1.082867E-14
v -0.2840117 0.02923846 -0.03248807
v -0.2840117 0.009238464 -0.03248807
v 0.06163858 0 0.06857818
v 0.06163858 0 0.01248807
v 0.08327042 0.005796235 0.0959
v 0.06163858 0 -0.01248807
v 0.06163858 0 -0.06857818
v 0.08327042 0.005796235 -0.0959
v 0.08327042 0.005796235 0.06857818
v 0.08327042 0.005796235 -0.06857818
v -0.06230178 0.01923846 0.02248807
v -0.06230178 0.01923846 -0.02248807
v 0.3092117 0.005796235 0.04912368
v 0.1160303 0.005796235 0.06554234
v 0.1160303 0.005796235 -0.06533247
v 0.3092117 0.005796235 -0.04912368

vn 1 0 0
vn -0.7901589 0 0.612902
vn 0.009922388 0.9999508 0
vn 0 -1 0
vn 0 1 0
vn 0.009922388 -0.9999508 0
vn 0.03222078 0 -0.9994808
vn -0.7901589 0 -0.612902
vn 0.03222078 0 0.9994808
vn -0.258819 0.9659258 0
vn 0.258819 -0.9659258 0
vn 0.1533867 0.9881663 0
vn -0.1533867 -0.9881663 0

vt -0.9976652 0.4503332
vt -0.9976652 1.064506
vt 0.9976652 0.4503332
vt 0.9976652 1.064506
vt -5.842543 1.151121
vt -5.842543 0.363719
vt -7.461278 1.151121
vt -7.461278 0.363719
vt -1.279058 11.19243
vt 1.279058 11.19243
vt -0.9976652 2.463268
vt 0.9976652 2.463268
vt 11.18156 1.279058
vt 12.17369 4.263256E-13
vt 11.18156 -1.279058
vt -11.18156 -1.279058
vt -12.17369 4.263256E-13
vt -11.18156 1.279058
vt 1.279058 -11.1774
vt -1.279058 -11.1774
vt 0.9976652 -2.448237
vt -0.9976652 -2.448237
vt 11.21697 0.363719
vt 2.483698 0.4503332
vt 11.21697 1.151121
vt 2.483698 1.064506
vt 7.461278 1.151121
vt 7.461278 0.363719
vt 5.842543 1.151121
vt 5.842543 0.363719
vt -11.21697 0.363719
vt -11.21697 1.151121
vt -2.483698 0.4503332
vt -2.483698 1.064506
vt 2.699929 2.344027
vt 0.4916564 2.344027
vt 3.775591 3.225718
vt -0.4916564 2.344027
vt -2.699929 2.344027
vt -3.775591 3.225718
vt 2.699929 3.225718
vt -2.699929 3.225718
vt -0.8853571 2.539978
vt 0.8853571 2.539978
vt -0.4916564 -2.397999
vt 0.4916564 -2.397999
vt 3.278363 -3.775591
vt 3.278363 -2.699929
vt 12.17369 -1.934003
vt 4.568122 -2.580407
vt 4.568122 2.572145
vt 12.17369 1.934003
vt 3.278363 3.775591
vt 3.278363 2.699929

usemtl greyDark

f 3/3/1 2/2/1 1/1/1
f 2/2/1 3/3/1 4/4/1
f 7/7/2 6/6/2 5/5/2
f 6/6/2 7/7/2 8/8/2
f 2/11/3 9/10/3 5/9/3
f 9/10/3 2/11/3 4/12/3
f 6/15/4 8/14/4 10/13/4
f 9/18/5 7/17/5 5/16/5
f 3/21/6 6/20/6 10/19/6
f 6/20/6 3/21/6 1/22/6
f 9/25/7 3/24/7 10/23/7
f 3/24/7 9/25/7 4/26/7
f 9/29/8 8/28/8 7/27/8
f 8/28/8 9/29/8 10/30/8
f 1/33/9 5/32/9 6/31/9
f 5/32/9 1/33/9 2/34/9

usemtl white

f 13/37/10 12/36/10 11/35/10
f 12/36/10 13/37/10 14/38/10
f 14/38/10 13/37/10 15/39/10
f 15/39/10 13/37/10 16/40/10
f 16/40/10 13/37/10 17/41/10
f 16/40/10 17/41/10 18/42/10
f 11/35/11 12/36/11 13/37/11
f 14/38/11 13/37/11 12/36/11
f 15/39/11 13/37/11 14/38/11
f 16/40/11 13/37/11 15/39/11
f 17/41/11 13/37/11 16/40/11
f 18/42/11 17/41/11 16/40/11
f 12/45/12 20/44/12 19/43/12
f 20/44/12 12/45/12 14/46/12
f 19/43/13 20/44/13 12/45/13
f 14/46/13 12/45/13 20/44/13
f 21/49/5 17/48/5 13/47/5
f 17/48/5 21/49/5 22/50/5
f 22/50/5 21/49/5 23/51/5
f 24/52/5 23/51/5 21/49/5
f 16/53/5 23/51/5 24/52/5
f 23/51/5 16/53/5 18/54/5
f 13/47/4 17/48/4 21/49/4
f 22/50/4 21/49/4 17/48/4
f 23/51/4 21/49/4 22/50/4
f 21/49/4 23/51/4 24/52/4
f 24/52/4 23/51/4 16/53/4
f 18/54/4 16/53/4 23/51/4

