# Created by Kenney (www.kenney.nl)

mtllib cherries.mtl

g cherries

v 0.02520129 0.1660696 0.01493104
v 3.414161E-10 0.1405796 0.026081
v 3.414161E-10 0.170709 0.006895311
v -0.02520129 0.1660696 0.01493104
v -0.03564 0.154869 0.03433099
v 0.03564 0.154869 0.03433099
v 3.414161E-10 0.1088996 0.08095237
v 0.0286 6.203926E-18 -0.04284725
v 0.044 0.0302445 -0.04284725
v 0.0143 6.203926E-18 -0.06761558
v 0.022 0.0302445 -0.08095237
v -0.044 0.0302445 -0.04284725
v -0.0286 6.203926E-18 -0.04284725
v -0.022 0.0302445 -0.08095236
v -0.0143 6.203926E-18 -0.06761558
v -0.022 0.0302445 0.000228752
v 0.022 0.0302445 0.0002287514
v -0.0143 0.060489 0.01356554
v 0.0143 0.060489 0.01356554
v 0.0286 0 0.03833387
v 0.044 0.0302445 0.03833387
v 0.0143 0 0.01356554
v 0.022 0.0302445 0.07643899
v 0.0143 0.060489 0.0631022
v 0.0286 0.060489 0.03833387
v -0.022 0.0302445 -0.00474213
v -0.0143 6.203926E-18 -0.01807892
v -0.0143 0 0.01356554
v 0.022 0.0302445 -0.00474213
v 0.0143 6.203926E-18 -0.01807892
v -0.0143 0.060489 -0.01807892
v -0.0286 0.060489 -0.04284725
v -0.0143 0.060489 -0.06761558
v 0.0143 0.060489 -0.01807892
v 0.0143 0 0.0631022
v -0.0143 0 0.0631022
v -0.022 0.0302445 0.07643899
v -0.044 0.0302445 0.03833387
v -0.0143 0.060489 0.0631022
v -0.0286 0.060489 0.03833387
v -0.0286 0 0.03833387
v 0.0143 0.060489 -0.06761558
v 0.0286 0.060489 -0.04284725
v -0.004576 0.060489 0.04290987
v 0.004575999 0.060489 0.04290987
v 0.004575999 0.060489 0.03375787
v -0.004576 0.060489 0.03375787
v -0.004575999 0.060489 -0.03827124
v 0.004576001 0.060489 -0.03827124
v 0.004576001 0.060489 -0.04742325
v -0.004575999 0.060489 -0.04742325
v 0.004576 0.110099 -0.02727125
v -0.004575999 0.110099 -0.02727125
v 0.004576 0.159709 -0.002256688
v -0.004575999 0.159709 -0.002256689
v -0.004575999 0.170709 0.006895311
v -0.004575999 0.159709 0.006895311
v -0.004575999 0.170709 -0.01140869
v -0.004575999 0.159709 -0.01140869
v -0.004575999 0.110099 -0.03642325
v -0.004575999 0.110099 0.02275787
v -0.004575999 0.110099 0.03190987
v 0.004576001 0.110099 -0.03642325
v 0.004576 0.170709 -0.01140869
v 0.004576 0.170709 0.006895311
v 0.004576 0.110099 0.02275787
v 0.004576 0.110099 0.03190987
v 0.004576 0.159709 0.006895311
v 0.004576 0.159709 -0.01140869

vn -0.303791 0.6176592 0.7254022
vn 0 0.6337847 0.7735094
vn 0 0.537123 0.843504
vn 0 -0.537123 -0.843504
vn 0 -0.6337847 -0.7735094
vn 0.303791 -0.6176592 -0.7254022
vn 0.303791 0.6176592 0.7254022
vn -0.303791 -0.6176592 -0.7254022
vn 0.4122967 0.6751853 0.6116667
vn -0.4122967 -0.6751853 -0.6116667
vn -0.4122967 0.6751853 0.6116667
vn 0.4122967 -0.6751853 -0.6116667
vn -0.4201236 0.7858894 0.4537335
vn 0.4201236 -0.7858894 -0.4537335
vn 0.4201236 0.7858894 0.4537335
vn -0.4201236 -0.7858894 -0.4537335
vn 0.7924037 -0.4034789 -0.4574945
vn -0.7924037 -0.4034789 -0.4574944
vn 0 0.4034789 -0.914989
vn 0.7924037 0.4034789 0.4574944
vn -0.7924037 -0.4034789 0.4574945
vn 0 -0.4034789 -0.914989
vn 0.7924037 -0.4034789 0.4574944
vn -0.7924037 0.4034789 0.4574945
vn -0.7924037 0.4034789 -0.4574944
vn 0 0.4034789 0.914989
vn 0 -0.4034789 0.914989
vn 0.7924037 0.4034789 -0.4574945
vn 0 -1 0
vn 0 1 0
vn 0 -0.4502285 0.8929134
vn -1 0 0
vn 0 0.2164721 -0.9762889
vn 0 -0.4502285 -0.8929134
vn 0 0.4502285 0.8929134
vn 1 0 0
vn 0 0.4502285 -0.8929134
vn 0 0.2164721 0.9762889
vn 0 -0.2164721 -0.9762889
vn 0 -0.2164721 0.9762889
vn 0 0 -1
vn 0 0 1

vt 1.088792 5.345034
vt 0.2029559 4.162027
vt 0.05365764 5.560353
vt -0.2029559 4.162027
vt -1.088792 5.345034
vt -0.05365761 5.560353
vt -1.918972 4.270388
vt -1.151286 4.868189
vt -0.5739197 3.507726
vt 0.5739197 3.507726
vt 1.151286 4.868189
vt 1.918972 4.270388
vt 2.165342 0.8133209
vt 0.6976236 2.830317
vt 1.947873 3.740093
vt -2.165342 0.8133209
vt -1.947873 3.740093
vt -0.6976236 2.830317
vt 0.8979057 0.7337589
vt 0.5947561 2.035117
vt 2.02389 0.7337589
vt 2.327039 2.035117
vt -0.5947561 2.035117
vt -0.8979057 0.7337589
vt -2.327039 2.035117
vt -2.02389 0.7337589
vt 0.8661417 1.093137
vt -0.8661417 1.093137
vt 0.5629922 2.394495
vt -0.5629921 2.394495
vt -1.870004 0.08897807
vt -2.173154 1.390336
vt -0.7440199 0.08897807
vt -0.4408703 1.390336
vt -2.173154 0.179737
vt -1.870004 1.481095
vt -0.4408703 0.179737
vt -0.7440199 1.481095
vt -0.5947561 1.354489
vt -0.8979057 0.05313057
vt -2.327039 1.354489
vt -2.02389 0.05313057
vt 0.5629922 -0.2154886
vt -0.5629921 -0.2154886
vt 0.8661417 1.08587
vt -0.8661417 1.08587
vt 0.5947561 1.354489
vt 2.327039 1.354489
vt 0.8979057 0.05313059
vt 2.02389 0.05313059
vt -0.5947561 0.8245178
vt -2.327039 0.8245178
vt -0.8979057 2.125876
vt -2.02389 2.125876
vt -0.5947561 0.1438895
vt -2.327039 0.1438895
vt -0.8979057 1.445248
vt -2.02389 1.445248
vt 0.8661417 1.164832
vt -0.8661417 1.164832
vt 0.5629922 2.46619
vt -0.5629921 2.46619
vt 0.5629921 1.002378
vt -0.5629922 1.002378
vt 0.8661417 2.303736
vt -0.8661417 2.303736
vt 2.173154 0.179737
vt 0.4408703 0.179737
vt 1.870004 1.481095
vt 0.7440199 1.481095
vt -1.870004 2.090029
vt -0.7440199 2.090029
vt -2.173154 0.7886704
vt -0.4408703 0.7886704
vt 0.8661417 -0.1247296
vt -0.8661417 -0.1247296
vt 0.5629921 1.176628
vt -0.5629922 1.176628
vt 1.125984 -1.509207
vt 0.5629921 -2.484339
vt 0.5629922 -0.5340765
vt -0.5629921 -0.5340765
vt -0.5629922 -2.484339
vt -1.125984 -1.509207
vt 0.8661417 -0.1964246
vt -0.8661417 -0.1964246
vt 0.5629921 1.104934
vt -0.5629922 1.104934
vt 0.5629921 1.074073
vt -0.5629922 1.074073
vt 0.8661417 2.375431
vt -0.8661417 2.375431
vt 0.8979057 1.445248
vt 2.02389 1.445248
vt 0.5947561 0.1438895
vt 2.327039 0.1438895
vt -0.5629921 -2.484339
vt -0.1801575 -1.689365
vt 0.5629922 -2.484339
vt 0.1801575 -1.689365
vt 0.1801575 -1.32905
vt 0.5629921 -0.5340765
vt 1.125984 -1.509207
vt -0.1801575 -1.32905
vt -0.5629922 -0.5340765
vt -1.125984 -1.509207
vt 2.173154 1.390336
vt 1.870004 0.08897809
vt 0.4408703 1.390336
vt 0.7440199 0.08897809
vt -2.173154 1.99927
vt -0.4408703 1.99927
vt -1.870004 0.6979114
vt -0.7440199 0.6979114
vt 2.173154 1.99927
vt 1.870004 0.6979114
vt 0.4408703 1.99927
vt 0.7440199 0.6979114
vt -0.5629921 0.7117686
vt -0.1801574 1.506742
vt 0.5629922 0.7117686
vt 0.1801575 1.506742
vt 0.1801575 1.867057
vt 0.5629921 2.66203
vt 1.125984 1.6869
vt -0.1801574 1.867057
vt -0.5629922 2.66203
vt -1.125984 1.6869
vt 0.5947561 0.8245178
vt 0.8979057 2.125876
vt 2.327039 0.8245178
vt 2.02389 2.125876
vt 2.173154 0.7886704
vt 0.4408703 0.7886704
vt 1.870004 2.090029
vt 0.7440199 2.090029
vt 0.5629922 -0.2871836
vt -0.5629921 -0.2871836
vt 0.8661417 1.014175
vt -0.8661417 1.014175
vt 1.125984 1.6869
vt 0.5629921 0.7117686
vt 0.5629922 2.66203
vt -0.5629921 2.66203
vt -0.5629922 0.7117686
vt -1.125984 1.6869
vt 0.1801575 3.387031
vt -0.1801575 3.387031
vt 0.1801575 5.57442
vt -0.1801575 5.57442
vt 0.2714689 6.720827
vt 0.2714689 6.287756
vt -0.449161 6.720827
vt -0.08884601 6.287756
vt -0.449161 6.287756
vt -1.073671 4.334606
vt -1.433986 4.334606
vt -1.506742 2.381457
vt -1.867057 2.381457
vt 0.8959792 4.334606
vt 1.256294 4.334606
vt 1.32905 2.381457
vt 1.689365 2.381457
vt 0.1801575 1.920824
vt -0.1801575 1.920824
vt 0.1801575 3.92141
vt -0.1801575 3.92141
vt -0.1801575 -0.2714689
vt -0.1801575 0.449161
vt 1.344158E-08 -0.2714689
vt 0.1801575 0.449161
vt 0.1801575 -0.2714689
vt 0.1801575 3.467033
vt -0.1801575 3.467033
vt 0.1801575 5.654422
vt -0.1801575 5.654422
vt 0.1801575 3.304809
vt -0.1801575 3.304809
vt 0.1801575 5.492198
vt -0.1801575 5.492198
vt 0.08884601 6.287756
vt 0.449161 6.287756
vt 1.073671 4.334606
vt 1.433986 4.334606
vt 1.506742 2.381457
vt 1.867057 2.381457
vt 0.449161 6.720827
vt -0.2714689 6.720827
vt -0.2714689 6.287756
vt -0.8959792 4.334606
vt -1.256294 4.334606
vt -1.32905 2.381457
vt -1.689365 2.381457
vt 0.1801575 3.224807
vt -0.1801575 3.224807
vt 0.1801575 5.412196
vt -0.1801575 5.412196
vt 0.1801575 1.959289
vt -0.1801575 1.959289
vt 0.1801575 3.959875
vt -0.1801575 3.959875
vt 0.1801575 2.037287
vt -0.1801575 2.037287
vt 0.1801575 4.037873
vt -0.1801575 4.037873
vt 0.1801575 1.998822
vt -0.1801575 1.998822
vt 0.1801575 3.999408
vt -0.1801575 3.999408
vt 0.1801575 6.287756
vt -0.1801575 6.287756
vt 0.1801575 6.720827
vt -0.1801575 6.720827
vt 0.1801575 6.287756
vt -0.1801575 6.287756
vt 0.1801575 6.720827
vt -0.1801575 6.720827
vt 1.748675E-08 6.720827

usemtl green

f 3/3/3 2/2/2 1/1/1
f 1/1/6 2/2/5 3/3/4
f 3/6/3 4/5/7 2/4/2
f 2/4/5 4/5/8 3/6/4
f 2/9/2 4/8/7 5/7/9
f 5/7/10 4/8/8 2/9/5
f 6/12/11 1/11/1 2/10/2
f 2/10/5 1/11/6 6/12/12
f 6/15/13 2/14/13 7/13/13
f 7/13/14 2/14/14 6/15/14
f 2/18/15 5/17/15 7/16/15
f 7/16/16 5/17/16 2/18/16

usemtl red

f 10/21/17 9/20/17 8/19/17
f 9/20/17 10/21/17 11/22/17
f 14/25/18 13/24/18 12/23/18
f 13/24/18 14/25/18 15/26/18
f 18/29/19 17/28/19 16/27/19
f 17/28/19 18/29/19 19/30/19
f 22/33/17 21/32/17 20/31/17
f 21/32/17 22/33/17 17/34/17
f 21/37/20 24/36/20 23/35/20
f 24/36/20 21/37/20 25/38/20
f 12/41/21 27/40/21 26/39/21
f 27/40/21 12/41/21 13/42/21
f 16/45/22 22/44/22 28/43/22
f 22/44/22 16/45/22 17/46/22
f 30/49/23 9/48/23 29/47/23
f 9/48/23 30/49/23 8/50/23
f 31/53/24 12/52/24 26/51/24
f 12/52/24 31/53/24 32/54/24
f 32/57/25 14/56/25 12/55/25
f 14/56/25 32/57/25 33/58/25
f 34/61/26 26/60/26 29/59/26
f 26/60/26 34/61/26 31/62/26
f 23/65/27 36/64/27 35/63/27
f 36/64/27 23/65/27 37/66/27
f 39/69/24 38/68/24 37/67/24
f 38/68/24 39/69/24 40/70/24
f 21/73/28 19/72/28 25/71/28
f 19/72/28 21/73/28 17/74/28
f 24/77/26 37/76/26 23/75/26
f 37/76/26 24/77/26 39/78/26
f 28/81/29 36/80/29 41/79/29
f 36/80/29 28/81/29 22/82/29
f 36/80/29 22/82/29 35/83/29
f 35/83/29 22/82/29 20/84/29
f 33/87/19 11/86/19 14/85/19
f 11/86/19 33/87/19 42/88/19
f 14/91/22 10/90/22 15/89/22
f 10/90/22 14/91/22 11/92/22
f 9/95/28 42/94/28 43/93/28
f 42/94/28 9/95/28 11/96/28
f 24/99/30 44/98/30 39/97/30
f 44/98/30 24/99/30 45/100/30
f 45/100/30 24/99/30 46/101/30
f 46/101/30 24/99/30 19/102/30
f 19/102/30 24/99/30 25/103/30
f 47/104/30 39/97/30 44/98/30
f 19/102/30 47/104/30 46/101/30
f 18/105/30 39/97/30 47/104/30
f 18/105/30 47/104/30 19/102/30
f 39/97/30 18/105/30 40/106/30
f 16/109/18 41/108/18 38/107/18
f 41/108/18 16/109/18 28/110/18
f 35/113/23 21/112/23 23/111/23
f 21/112/23 35/113/23 20/114/23
f 38/117/21 36/116/21 37/115/21
f 36/116/21 38/117/21 41/118/21
f 34/121/30 48/120/30 31/119/30
f 48/120/30 34/121/30 49/122/30
f 49/122/30 34/121/30 50/123/30
f 50/123/30 34/121/30 42/124/30
f 42/124/30 34/121/30 43/125/30
f 51/126/30 31/119/30 48/120/30
f 42/124/30 51/126/30 50/123/30
f 33/127/30 31/119/30 51/126/30
f 33/127/30 51/126/30 42/124/30
f 31/119/30 33/127/30 32/128/30
f 9/131/20 34/130/20 29/129/20
f 34/130/20 9/131/20 43/132/20
f 40/135/25 16/134/25 38/133/25
f 16/134/25 40/135/25 18/136/25
f 29/139/27 27/138/27 30/137/27
f 27/138/27 29/139/27 26/140/27
f 15/143/29 27/142/29 13/141/29
f 27/142/29 15/143/29 10/144/29
f 27/142/29 10/144/29 30/145/29
f 30/145/29 10/144/29 8/146/29

usemtl brown

f 54/149/31 53/148/31 52/147/31
f 53/148/31 54/149/31 55/150/31
f 58/153/32 57/152/32 56/151/32
f 57/152/32 58/153/32 55/154/32
f 55/154/32 58/153/32 59/155/32
f 55/154/32 59/155/32 53/156/32
f 53/156/32 59/155/32 60/157/32
f 53/156/32 60/157/32 48/158/32
f 48/158/32 60/157/32 51/159/32
f 61/160/32 57/152/32 55/154/32
f 61/160/32 62/161/32 57/152/32
f 47/162/32 62/161/32 61/160/32
f 62/161/32 47/162/32 44/163/32
f 60/166/33 50/165/33 51/164/33
f 50/165/33 60/166/33 63/167/33
f 3/170/30 58/169/30 56/168/30
f 58/169/30 3/170/30 64/171/30
f 64/171/30 3/170/30 65/172/30
f 55/175/34 66/174/34 61/173/34
f 66/174/34 55/175/34 54/176/34
f 68/179/35 62/178/35 67/177/35
f 62/178/35 68/179/35 57/180/35
f 52/183/36 69/182/36 54/181/36
f 69/182/36 52/183/36 63/184/36
f 63/184/36 52/183/36 49/185/36
f 63/184/36 49/185/36 50/186/36
f 64/187/36 54/181/36 69/182/36
f 65/188/36 54/181/36 64/187/36
f 68/189/36 54/181/36 65/188/36
f 68/189/36 66/190/36 54/181/36
f 67/191/36 66/190/36 68/189/36
f 67/191/36 46/192/36 66/190/36
f 46/192/36 67/191/36 45/193/36
f 59/196/37 63/195/37 60/194/37
f 63/195/37 59/196/37 69/197/37
f 67/200/38 44/199/38 45/198/38
f 44/199/38 67/200/38 62/201/38
f 61/204/39 46/203/39 47/202/39
f 46/203/39 61/204/39 66/205/39
f 52/208/40 48/207/40 49/206/40
f 48/207/40 52/208/40 53/209/40
f 58/212/41 69/211/41 59/210/41
f 69/211/41 58/212/41 64/213/41
f 65/216/42 57/215/42 68/214/42
f 57/215/42 65/216/42 56/217/42
f 56/217/42 65/216/42 3/218/42

