# Created by Kenney (www.kenney.nl)

mtllib chinese.mtl

g chinese

v 0.1114732 0.316736 0.1178476
v 0.03936247 0.356736 0.07306553
v 0.06911339 0.356736 0.04331461
v 0.03936246 0.356736 -0.07306553
v -0.03936247 0.356736 -0.07306553
v 0.1114732 0.316736 -0.1178477
v -0.1114732 0.316736 -0.1178476
v -0.06911339 0.356736 -0.04331461
v -0.1114732 0.316736 0.1178477
v -0.06911337 0.356736 0.04331463
v -0.03936246 0.356736 0.07306553
v 0.03193432 0.356736 0.03894202
v 0.05157387 0.356736 0.01181104
v 0.06911337 0.356736 -0.04331463
v 0.034806 0.356736 -0.0003268644
v -0.01406981 0.356736 -0.001152777
v 0.02073213 0.356736 -0.0202427
v 0.03287004 0.356736 -0.03701057
v 0.005739064 0.356736 -0.05665012
v -0.0407121 0.356736 0.02783825
v -0.04631354 0.356736 0.007910531
v -0.006398841 0.356736 -0.03988225
v 0.01516645 0.356736 0.02680411
v -0.008468377 0.356736 0.01877494
v -0.122498 0.276736 0.1295029
v -0.122498 0.276736 -0.1295029
v 0.122498 0.276736 -0.1295029
v 0.122498 0.276736 0.1295029
v 0.1494374 0.276736 -0.1564423
v 0.1494375 0.276736 0.1564423
v 0.1881812 0.3296726 -0.1564424
v 0.1881812 0.3296726 0.1564423
v 0.2269249 0.3826092 -0.08776735
v 0.226925 0.3826092 0.08776729
v 0.116748 0 -0.116748
v -0.1494375 0.276736 -0.1564423
v -0.116748 0 -0.116748
v 0.1330927 0.138368 -0.01984718
v 0.116748 0 0.116748
v 0.087561 0 -7.450581E-09
v -0.087561 0 7.450581E-09
v -0.116748 0 0.116748
v -0.1494374 0.276736 0.1564423
v -0.1330927 0.138368 -0.01984714
v -0.1494375 0.2530134 -0.2176028
v 0.1494374 0.2530134 -0.2176028
v -0.08383748 0.2292908 -0.2787632
v 0.08383742 0.2292908 -0.2787632
v 0.08383748 0.2292908 0.2787632
v 0.1494375 0.2530134 0.2176028
v -0.08383742 0.2292908 0.2787632
v -0.1494374 0.2530134 0.2176028
v -0.1881812 0.3296726 0.1564424
v -0.1881812 0.3296726 -0.1564423
v -0.2269249 0.3826092 0.08776735
v -0.226925 0.3826092 -0.08776729

vn 0.3080212 0.9001366 0.3080212
vn -5.960464E-08 0.7458054 -0.6661639
vn -0.3080212 0.9001366 -0.3080212
vn -0.6865647 0.7270687 5.960464E-08
vn 0 1 0
vn 5.960464E-08 0.7458054 0.6661639
vn 0.6865647 0.7270687 -5.960464E-08
vn 0.3080212 0.9001366 -0.3080212
vn -0.3080212 0.9001366 0.3080212
vn -0.9640524 0.2657126 1.192093E-07
vn -1.192093E-07 0.2797477 -0.9600736
vn 0.9640524 0.2657126 -1.192093E-07
vn 1.192093E-07 0.2797477 0.9600736
vn 0.8069605 -0.5906057 -1.192093E-07
vn -0.8069605 0.5906057 1.192093E-07
vn 1.192093E-07 0.1419843 0.989869
vn -0.9930955 0.1173094 1.192093E-07
vn -0.9331267 0.2735956 -0.2332816
vn 0.9930955 0.1173094 -1.192093E-07
vn 0 -1 0
vn 0.9145232 0.3337295 0.2286307
vn -1.192093E-07 0.1419843 -0.989869
vn -0.9145232 0.3337295 0.2286309
vn 0.9331267 0.2735956 -0.2332818
vn 5.960464E-08 -0.7458054 0.6661639
vn 0.6865647 -0.7270687 -5.960464E-08
vn 2.980232E-08 -0.9323238 0.3616246
vn -2.980232E-08 0.9323238 -0.3616246
vn -5.960464E-08 -0.7458054 -0.6661639
vn -2.980232E-08 -0.9323238 -0.3616246
vn 2.980232E-08 0.9323238 0.3616246
vn -0.6865647 -0.7270687 5.960464E-08
vn -0.8069605 -0.5906057 1.192093E-07
vn 0.8069605 0.5906057 -1.192093E-07
vn 0.9640524 -0.2657126 -1.192093E-07
vn 1.192093E-07 -0.2797477 0.9600736
vn -0.9640524 -0.2657126 1.192093E-07
vn -1.192093E-07 -0.2797477 -0.9600736
vn -1.192093E-07 -0.1419843 -0.989869
vn 0.9930955 -0.1173094 -1.192093E-07
vn 0.9331267 -0.2735956 0.2332816
vn -0.9930955 -0.1173094 1.192093E-07
vn -0.9145232 -0.3337295 -0.2286307
vn 1.192093E-07 -0.1419843 0.989869
vn 0.9145232 -0.3337295 -0.2286309
vn -0.9331267 -0.2735956 0.2332818

vt -0.1774571 -0.3145028
vt -0.9382545 3.300683
vt 0.7182078 3.300683
vt -1.549703 7.210708
vt 1.549703 7.210708
vt -4.388708 4.84672
vt 4.388708 4.84672
vt 4.63967 5.370515
vt -4.63967 5.370515
vt 1.7053 7.664258
vt -1.7053 7.664258
vt -2.876595 -1.549703
vt -2.876595 1.549703
vt -1.7053 -2.720999
vt -1.7053 2.720999
vt -1.53315 -1.257256
vt -0.4650018 -2.030467
vt 1.7053 -2.720999
vt 0.01286858 -1.370315
vt 0.04538499 0.5539294
vt 0.7969567 -0.8162258
vt 1.457109 -1.294096
vt 2.230319 -0.2259477
vt 2.876595 -1.549703
vt -1.095994 1.602839
vt 1.7053 2.720999
vt -0.311438 1.823367
vt 1.570167 0.2519227
vt 2.876595 1.549703
vt -1.05528 -0.5971043
vt -0.7391708 0.3334007
vt -0.7182078 3.300683
vt 0.9382545 3.300683
vt 0.1774571 -0.3145028
vt 5.098539 9.221996
vt -5.098539 9.221996
vt 4.63967 10.85552
vt -4.63967 10.85552
vt -4.822756 9.033811
vt -4.388708 10.6741
vt 4.822756 9.033811
vt 4.388708 10.6741
vt 6.159146 12.26668
vt -6.159146 12.26668
vt 6.159146 14.84935
vt -6.159146 14.84935
vt 3.455406 17.43203
vt -3.455406 17.43203
vt -4.596378 0.6526136
vt 5.883364 11.65924
vt -5.883364 11.65924
vt 4.596378 0.6526136
vt 6.159146 11.51007
vt 0.7813842 6.024632
vt 4.596378 0.5391983
vt -6.159146 11.51007
vt -4.596378 0.5391983
vt 2.028909 6.578658
vt 0.8360891 0.9150012
vt 5.573927 0.9150012
vt -4.596378 4.596378
vt 3.552714E-15 -3.447284
vt 3.663736E-15 3.447284
vt -4.596378 -4.596378
vt 4.596378 -4.596378
vt 4.596378 4.596378
vt -0.7813842 6.024632
vt -6.159146 5.883364
vt -5.098539 -4.822756
vt -6.159146 -5.883364
vt 6.159146 -5.883364
vt 5.098539 -4.822756
vt 5.098539 4.822756
vt -5.098539 4.822756
vt 6.159146 5.883364
vt 0.5128013 6.894979
vt 0.8360891 1.11611
vt 5.573927 1.11611
vt -0.5128013 6.894979
vt -5.573927 1.11611
vt -0.8360891 1.11611
vt -2.028909 6.578658
vt -5.573927 0.9150012
vt -0.8360891 0.9150012
vt -5.883364 -1.802377
vt 5.883364 -1.802377
vt -5.883364 -4.385054
vt 5.883364 -4.385054
vt -3.300687 -6.967731
vt 3.300687 -6.967731

usemtl brownLight

f 3/3/1 2/2/1 1/1/1
f 6/6/2 5/5/2 4/4/2
f 5/5/2 6/6/2 7/7/2
f 7/1/3 8/3/3 5/2/3
f 10/10/4 7/9/4 9/8/4
f 7/9/4 10/10/4 8/11/4
f 3/14/5 11/13/5 2/12/5
f 11/13/5 3/14/5 10/15/5
f 10/15/5 3/14/5 12/16/5
f 12/16/5 3/14/5 13/17/5
f 13/17/5 3/14/5 14/18/5
f 13/17/5 14/18/5 15/19/5
f 15/19/5 14/18/5 16/20/5
f 16/20/5 14/18/5 17/21/5
f 17/21/5 14/18/5 18/22/5
f 18/22/5 14/18/5 19/23/5
f 19/23/5 14/18/5 4/24/5
f 20/25/5 10/15/5 12/16/5
f 10/15/5 20/25/5 8/26/5
f 8/26/5 16/20/5 17/21/5
f 8/26/5 20/25/5 21/27/5
f 8/26/5 21/27/5 16/20/5
f 8/26/5 17/21/5 22/28/5
f 8/26/5 22/28/5 19/23/5
f 8/26/5 19/23/5 5/29/5
f 5/29/5 19/23/5 4/24/5
f 23/30/5 20/25/5 12/16/5
f 20/25/5 23/30/5 24/31/5
f 24/31/5 23/30/5 15/19/5
f 24/31/5 15/19/5 16/20/5
f 1/7/6 11/4/6 9/6/6
f 11/4/6 1/7/6 2/5/6
f 6/8/7 3/11/7 1/9/7
f 3/11/7 6/8/7 14/10/7
f 6/34/8 4/33/8 14/32/8
f 10/32/9 9/34/9 11/33/9
f 9/37/10 26/36/10 25/35/10
f 26/36/10 9/37/10 7/38/10
f 26/41/11 6/40/11 27/39/11
f 6/40/11 26/41/11 7/42/11
f 6/37/12 28/36/12 27/35/12
f 28/36/12 6/37/12 1/38/12
f 1/42/13 25/39/13 28/41/13
f 25/39/13 1/42/13 9/40/13

usemtl white

f 31/45/14 30/44/14 29/43/14
f 30/44/14 31/45/14 32/46/14
f 32/46/14 31/45/14 33/47/14
f 32/46/14 33/47/14 34/48/14
f 29/43/15 30/44/15 31/45/15
f 32/46/15 31/45/15 30/44/15
f 33/47/15 31/45/15 32/46/15
f 34/48/15 33/47/15 32/46/15
f 29/51/16 36/50/16 35/49/16
f 37/52/16 35/49/16 36/50/16
f 35/55/17 38/54/17 29/53/17
f 29/53/17 38/54/17 30/56/17
f 39/57/17 30/56/17 38/54/17
f 35/60/18 40/59/18 38/58/18
f 41/63/5 40/62/5 37/61/5
f 35/64/5 37/61/5 40/62/5
f 40/62/5 41/63/5 39/65/5
f 42/66/5 39/65/5 41/63/5
f 42/55/19 44/67/19 43/53/19
f 36/56/19 43/53/19 44/67/19
f 44/67/19 37/57/19 36/56/19
f 30/70/5 28/69/5 43/68/5
f 28/69/5 30/70/5 29/71/5
f 28/69/5 29/71/5 27/72/5
f 27/72/5 29/71/5 26/73/5
f 25/74/5 43/68/5 28/69/5
f 43/68/5 25/74/5 36/75/5
f 36/75/5 25/74/5 26/73/5
f 36/75/5 26/73/5 29/71/5
f 43/68/20 28/69/20 30/70/20
f 29/71/20 30/70/20 28/69/20
f 27/72/20 29/71/20 28/69/20
f 26/73/20 29/71/20 27/72/20
f 28/69/20 43/68/20 25/74/20
f 36/75/20 25/74/20 43/68/20
f 26/73/20 25/74/20 36/75/20
f 29/71/20 26/73/20 36/75/20
f 42/78/21 41/77/21 44/76/21
f 30/50/22 39/52/22 43/51/22
f 42/49/22 43/51/22 39/52/22
f 40/81/23 39/80/23 38/79/23
f 41/84/24 37/83/24 44/82/24
f 4/4/25 5/5/25 6/6/25
f 7/7/25 6/6/25 5/5/25
f 9/8/26 7/9/26 10/10/26
f 8/11/26 10/10/26 7/9/26
f 2/12/20 11/13/20 3/14/20
f 10/15/20 3/14/20 11/13/20
f 12/16/20 3/14/20 10/15/20
f 13/17/20 3/14/20 12/16/20
f 14/18/20 3/14/20 13/17/20
f 15/19/20 14/18/20 13/17/20
f 16/20/20 14/18/20 15/19/20
f 17/21/20 14/18/20 16/20/20
f 18/22/20 14/18/20 17/21/20
f 19/23/20 14/18/20 18/22/20
f 4/24/20 14/18/20 19/23/20
f 12/16/20 10/15/20 20/25/20
f 8/26/20 20/25/20 10/15/20
f 17/21/20 16/20/20 8/26/20
f 21/27/20 20/25/20 8/26/20
f 16/20/20 21/27/20 8/26/20
f 22/28/20 17/21/20 8/26/20
f 19/23/20 22/28/20 8/26/20
f 5/29/20 19/23/20 8/26/20
f 4/24/20 19/23/20 5/29/20
f 12/16/20 20/25/20 23/30/20
f 24/31/20 23/30/20 20/25/20
f 15/19/20 23/30/20 24/31/20
f 16/20/20 15/19/20 24/31/20
f 45/87/27 29/86/27 36/85/27
f 29/86/27 45/87/27 46/88/27
f 46/88/27 45/87/27 47/89/27
f 46/88/27 47/89/27 48/90/27
f 36/85/28 29/86/28 45/87/28
f 46/88/28 45/87/28 29/86/28
f 47/89/28 45/87/28 46/88/28
f 48/90/28 47/89/28 46/88/28
f 9/6/29 11/4/29 1/7/29
f 2/5/29 1/7/29 11/4/29
f 51/90/30 50/87/30 49/89/30
f 50/87/30 51/90/30 52/88/30
f 50/87/30 52/88/30 43/86/30
f 50/87/30 43/86/30 30/85/30
f 49/89/31 50/87/31 51/90/31
f 52/88/31 51/90/31 50/87/31
f 43/86/31 52/88/31 50/87/31
f 30/85/31 43/86/31 50/87/31
f 1/9/32 3/11/32 6/8/32
f 14/10/32 6/8/32 3/11/32
f 53/45/33 36/44/33 43/43/33
f 36/44/33 53/45/33 54/46/33
f 54/46/33 53/45/33 55/47/33
f 54/46/33 55/47/33 56/48/33
f 43/43/34 36/44/34 53/45/34
f 54/46/34 53/45/34 36/44/34
f 55/47/34 53/45/34 54/46/34
f 56/48/34 55/47/34 54/46/34
f 25/35/35 26/36/35 9/37/35
f 7/38/35 9/37/35 26/36/35
f 27/39/36 6/40/36 26/41/36
f 7/42/36 26/41/36 6/40/36
f 27/35/37 28/36/37 6/37/37
f 1/38/37 6/37/37 28/36/37
f 28/41/38 25/39/38 1/42/38
f 9/40/38 1/42/38 25/39/38

usemtl red

f 35/49/39 36/50/39 29/51/39
f 36/50/39 35/49/39 37/52/39
f 29/53/40 38/54/40 35/55/40
f 30/56/40 38/54/40 29/53/40
f 38/54/40 30/56/40 39/57/40
f 38/58/41 40/59/41 35/60/41
f 37/61/20 40/62/20 41/63/20
f 40/62/20 37/61/20 35/64/20
f 39/65/20 41/63/20 40/62/20
f 41/63/20 39/65/20 42/66/20
f 43/53/42 44/67/42 42/55/42
f 44/67/42 43/53/42 36/56/42
f 36/56/42 37/57/42 44/67/42
f 44/76/43 41/77/43 42/78/43
f 43/51/44 39/52/44 30/50/44
f 39/52/44 43/51/44 42/49/44
f 38/79/45 39/80/45 40/81/45
f 44/82/46 37/83/46 41/84/46

usemtl green

f 13/17/5 23/30/5 12/16/5
f 23/30/5 13/17/5 15/19/5
f 18/22/5 22/28/5 17/21/5
f 22/28/5 18/22/5 19/23/5
f 24/31/5 21/27/5 20/25/5
f 21/27/5 24/31/5 16/20/5

g chopstick

v 0.1595187 0.5618991 -0.08146319
v 0.1433353 0.5670755 -0.07091331
v 0.1485967 0.5618991 -0.09821757
v 0.1324132 0.5670755 -0.08766768
v 0.04708273 0.1311148 -0.01413563
v 0.0416217 0.1311148 -0.02251282
v 0.05517446 0.1285266 -0.01941057
v 0.04971344 0.1285266 -0.02778776

vn 0.2168176 0.9659258 -0.1413417
vn -0.8115332 0.2480712 0.5290321
vn 0.5436596 -0.01073185 0.8392373
vn -0.2168176 -0.9659258 0.1413417
vn 0.8067153 -0.2695349 -0.5258913
vn -0.5484774 -0.01073185 -0.8360966

vt 0 4.415947
vt 0 5.203349
vt 0.7874016 4.415947
vt 0.7874016 5.203349
vt -0.1968504 -1.180295
vt -0.5905512 -1.180295
vt -6.40419E-18 16.53733
vt -0.7874016 16.53733
vt -1.084202E-19 17.06093
vt -4.776066 -0.001965177
vt -0.7605684 17.26473
vt -5.15635 0.09993795
vt -0.1968504 5.006498
vt -0.1968504 4.612798
vt -0.5905512 5.006498
vt -0.5905512 4.612798
vt 0.5905512 -1.287169
vt 0.1968504 -1.287169
vt 0.7874016 16.43046
vt 0 16.43046
vt -0.002264374 17.06938
vt 0.758304 17.27318
vt 4.773802 0.006485061
vt 5.154086 0.1083882

usemtl brown

f 59/93/47 58/92/47 57/91/47
f 58/92/47 59/93/47 60/94/47
f 58/97/48 62/96/48 61/95/48
f 62/96/48 58/97/48 60/98/48
f 58/101/49 63/100/49 57/99/49
f 63/100/49 58/101/49 61/102/49
f 62/105/50 63/104/50 61/103/50
f 63/104/50 62/105/50 64/106/50
f 59/109/51 63/108/51 64/107/51
f 63/108/51 59/109/51 57/110/51
f 64/113/52 60/112/52 59/111/52
f 60/112/52 64/113/52 62/114/52

g chopstick

v 0.1434553 0.5618991 0.05520639
v 0.1285272 0.5670755 0.04294433
v 0.1561499 0.5618991 0.03975171
v 0.1412218 0.5670755 0.02748966
v 0.04543369 0.1311148 -0.03177998
v 0.051781 0.1311148 -0.03950731
v 0.05289773 0.1285266 -0.02564896
v 0.05924503 0.1285266 -0.03337629

vn 0.1999982 0.9659258 0.1642803
vn -0.7485794 0.2480712 -0.61489
vn -0.6369133 -0.01073185 0.7708609
vn -0.1999982 -0.9659258 -0.1642803
vn 0.7441353 -0.2695349 0.6112395
vn 0.6324692 -0.01073185 -0.7745113


usemtl brown

f 67/93/53 66/92/53 65/91/53
f 66/92/53 67/93/53 68/94/53
f 66/97/54 70/96/54 69/95/54
f 70/96/54 66/97/54 68/98/54
f 66/101/55 71/100/55 65/99/55
f 71/100/55 66/101/55 69/102/55
f 70/105/56 71/104/56 69/103/56
f 71/104/56 70/105/56 72/106/56
f 67/109/57 71/108/57 72/107/57
f 71/108/57 67/109/57 65/110/57
f 72/113/58 68/112/58 67/111/58
f 68/112/58 72/113/58 70/114/58

