# Created by Kenney (www.kenney.nl)

mtllib chocolate.mtl

g chocolate

v -0.08293819 0.016872 0.06328581
v -0.1363978 0.016872 0.06328581
v -0.09042254 0.033744 0.05580145
v -0.1289135 0.033744 0.05580145
v 0.01731054 0.033744 0.01731054
v 0.05580145 0.033744 0.01731054
v 0.01731054 0.033744 0.05580145
v 0.05580145 0.033744 0.05580145
v 0.009826196 0.016872 0.009826196
v 0.06328581 0.016872 0.009826196
v -0.06328581 0.016872 -0.009826196
v -0.06328581 0.016872 -0.06328581
v -0.05580145 0.033744 -0.01731054
v -0.05580145 0.033744 -0.05580145
v -0.009826196 0.016872 -0.009826196
v -0.01731054 0.033744 -0.01731054
v 0.08293819 0.016872 0.009826196
v 0.1363978 0.016872 0.009826196
v 0.09042254 0.033744 0.01731054
v 0.1289135 0.033744 0.01731054
v -0.146224 0.016872 0.073112
v -0.146224 0 0.073112
v -0.146224 0.016872 -0.073112
v -0.146224 0 -0.073112
v -0.1363978 0.016872 -0.009826196
v -0.08293819 0.016872 -0.009826196
v -0.1363978 0.016872 0.009826196
v -0.08293819 0.016872 0.009826196
v -0.1363978 0.016872 -0.06328581
v 0.146224 0.016872 0.073112
v -0.06328581 0.016872 0.06328581
v -0.06328581 0.016872 0.009826196
v -0.009826196 0.016872 0.06328581
v 0.009826196 0.016872 0.06328581
v 0.009826196 0.016872 -0.009826196
v 0.009826196 0.016872 -0.06328581
v 0.06328581 0.016872 -0.009826196
v 0.06328581 0.016872 0.06328581
v 0.08293819 0.016872 0.06328581
v 0.08293819 0.016872 -0.009826196
v 0.08293819 0.016872 -0.06328581
v 0.1363978 0.016872 -0.009826196
v -0.009826196 0.016872 0.009826196
v -0.009826196 0.016872 -0.06328581
v 0.146224 0.016872 -0.073112
v -0.08293819 0.016872 -0.06328581
v 0.06328581 0.016872 -0.06328581
v 0.1363978 0.016872 -0.06328581
v 0.1363978 0.016872 0.06328581
v -0.01731054 0.033744 -0.05580145
v -0.1289135 0.033744 -0.05580145
v -0.09042254 0.033744 -0.05580145
v -0.05580145 0.033744 0.01731054
v -0.01731054 0.033744 0.01731054
v 0.09042254 0.033744 0.05580145
v 0.1289135 0.033744 0.05580145
v 0.01731054 0.033744 -0.05580145
v 0.05580145 0.033744 -0.05580145
v -0.1289135 0.033744 0.01731054
v -0.09042254 0.033744 0.01731054
v -0.09042254 0.033744 -0.01731054
v -0.1289135 0.033744 -0.01731054
v 0.146224 0 0.073112
v 0.146224 0 -0.073112
v 0.05580145 0.033744 -0.01731054
v 0.01731054 0.033744 -0.01731054
v 0.1289135 0.033744 -0.01731054
v 0.09042254 0.033744 -0.01731054
v 0.1289135 0.033744 -0.05580145
v 0.09042254 0.033744 -0.05580145
v -0.05580145 0.033744 0.05580145
v -0.01731054 0.033744 0.05580145

vn 0 0.4054905 0.9140993
vn 0 1 0
vn 0 0.4054905 -0.9140993
vn -0.9140993 0.4054905 0
vn -1 0 0
vn 0.9140993 0.4054905 0
vn 0 0 1
vn 0 -1 0
vn 0 0 -1
vn 1 0 0

vt -3.265283 -0.4031143
vt -5.369992 -0.4031143
vt -3.559942 0.3235594
vt -5.075333 0.3235594
vt 0.6815174 -0.6815174
vt 2.196908 -0.6815174
vt 0.6815174 -2.196908
vt 2.196908 -2.196908
vt -0.3868581 0.7640595
vt -2.491567 0.7640595
vt -0.6815174 1.490733
vt -2.196908 1.490733
vt -0.3868581 -0.4031143
vt -2.491567 -0.4031143
vt -0.6815174 0.3235594
vt -2.196908 0.3235594
vt -3.265283 0.7640595
vt -5.369992 0.7640595
vt -3.559942 1.490733
vt -5.075333 1.490733
vt 2.878425 0.664252
vt 2.878425 5.944932E-30
vt -2.878425 0.664252
vt -2.878425 5.944932E-30
vt -5.369992 0.3868581
vt -3.265283 0.3868581
vt -5.369992 -0.3868581
vt -3.265283 -0.3868581
vt -5.369992 2.491567
vt -5.75685 -2.878425
vt -5.369992 -2.491567
vt 5.75685 -2.878425
vt -3.265283 -2.491567
vt -2.491567 -2.491567
vt -2.491567 -0.3868581
vt -2.491567 2.491567
vt -2.491567 0.3868581
vt -0.3868581 -2.491567
vt 0.3868581 -2.491567
vt 0.3868581 0.3868581
vt 0.3868581 2.491567
vt 0.3868581 -0.3868581
vt 2.491567 0.3868581
vt 2.491567 -0.3868581
vt 2.491567 -2.491567
vt 3.265283 -2.491567
vt 3.265283 0.3868581
vt 3.265283 2.491567
vt 3.265283 -0.3868581
vt 5.369992 0.3868581
vt 5.369992 -0.3868581
vt -0.3868581 -0.3868581
vt -0.3868581 0.3868581
vt -0.3868581 2.491567
vt 5.75685 2.878425
vt -3.265283 2.491567
vt -5.75685 2.878425
vt 2.491567 2.491567
vt 5.369992 2.491567
vt 5.369992 -2.491567
vt 0.3868581 0.7640595
vt 0.6815174 1.490733
vt 2.491567 0.7640595
vt 2.196908 1.490733
vt 5.369992 -0.4031143
vt 3.265283 -0.4031143
vt 5.075333 0.3235594
vt 3.559942 0.3235594
vt 3.559942 -0.6815174
vt 5.075333 -0.6815174
vt 3.559942 -2.196908
vt 5.075333 -2.196908
vt 2.491567 1.931233
vt 0.3868581 1.931233
vt 2.196908 2.657907
vt 0.6815174 2.657907
vt 5.369992 0.7640595
vt 3.265283 0.7640595
vt 5.075333 1.490733
vt 3.559942 1.490733
vt -2.196908 2.196908
vt -0.6815174 2.196908
vt -2.196908 0.6815174
vt -0.6815174 0.6815174
vt -0.3868581 -1.570288
vt -2.491567 -1.570288
vt -0.6815174 -0.8436144
vt -2.196908 -0.8436144
vt 2.491567 -1.570288
vt 0.3868581 -1.570288
vt 2.196908 -0.8436144
vt 0.6815174 -0.8436144
vt 5.75685 5.521116E-43
vt -5.75685 5.521116E-43
vt 5.75685 0.664252
vt -5.75685 0.664252
vt 0.6815174 2.196908
vt 2.196908 2.196908
vt 0.6815174 0.6815174
vt 2.196908 0.6815174
vt 2.491567 -0.4031143
vt 0.3868581 -0.4031143
vt 2.196908 0.3235594
vt 0.6815174 0.3235594
vt -2.491567 1.931233
vt -2.196908 2.657907
vt -0.3868581 1.931233
vt -0.6815174 2.657907
vt 5.75685 -5.535129E-43
vt -5.75685 -5.535129E-43
vt -2.878425 0
vt 2.878425 0
vt -5.075333 2.196908
vt -3.559942 2.196908
vt -5.075333 0.6815174
vt -3.559942 0.6815174
vt -5.075333 -0.6815174
vt -3.559942 -0.6815174
vt -5.075333 -2.196908
vt -3.559942 -2.196908
vt 3.559942 2.196908
vt 5.075333 2.196908
vt 3.559942 0.6815174
vt 5.075333 0.6815174
vt -2.196908 -0.6815174
vt -0.6815174 -0.6815174
vt -2.196908 -2.196908
vt -0.6815174 -2.196908

usemtl brownDark

f 3/3/1 2/2/1 1/1/1
f 2/2/1 3/3/1 4/4/1
f 7/7/2 6/6/2 5/5/2
f 6/6/2 7/7/2 8/8/2
f 5/11/3 10/10/3 9/9/3
f 10/10/3 5/11/3 6/12/3
f 13/15/4 12/14/4 11/13/4
f 12/14/4 13/15/4 14/16/4
f 16/11/1 11/10/1 15/9/1
f 11/10/1 16/11/1 13/12/1
f 19/19/3 18/18/3 17/17/3
f 18/18/3 19/19/3 20/20/3
f 23/23/5 22/22/5 21/21/5
f 22/22/5 23/23/5 24/24/5
f 27/27/2 26/26/2 25/25/2
f 26/26/2 27/27/2 28/28/2
f 29/29/2 27/27/2 25/25/2
f 21/30/2 27/27/2 29/29/2
f 27/27/2 21/30/2 2/31/2
f 2/31/2 21/30/2 30/32/2
f 2/31/2 30/32/2 1/33/2
f 1/33/2 30/32/2 31/34/2
f 1/33/2 31/34/2 32/35/2
f 1/33/2 32/35/2 12/36/2
f 12/36/2 26/26/2 28/28/2
f 12/36/2 28/28/2 1/33/2
f 12/36/2 32/35/2 11/37/2
f 31/34/2 30/32/2 33/38/2
f 33/38/2 30/32/2 34/39/2
f 33/38/2 34/39/2 35/40/2
f 33/38/2 35/40/2 36/41/2
f 35/40/2 34/39/2 9/42/2
f 9/42/2 37/43/2 35/40/2
f 37/43/2 9/42/2 10/44/2
f 34/39/2 30/32/2 38/45/2
f 38/45/2 30/32/2 39/46/2
f 38/45/2 39/46/2 40/47/2
f 38/45/2 40/47/2 41/48/2
f 41/48/2 37/43/2 10/44/2
f 41/48/2 10/44/2 38/45/2
f 40/47/2 39/46/2 17/49/2
f 17/49/2 42/50/2 40/47/2
f 42/50/2 17/49/2 18/51/2
f 36/41/2 43/52/2 33/38/2
f 36/41/2 15/53/2 43/52/2
f 36/41/2 44/54/2 15/53/2
f 45/55/2 44/54/2 36/41/2
f 45/55/2 42/50/2 18/51/2
f 45/55/2 12/36/2 44/54/2
f 45/55/2 46/56/2 12/36/2
f 45/55/2 29/29/2 46/56/2
f 23/57/2 29/29/2 45/55/2
f 29/29/2 23/57/2 21/30/2
f 12/36/2 46/56/2 26/26/2
f 45/55/2 47/58/2 41/48/2
f 45/55/2 36/41/2 47/58/2
f 41/48/2 47/58/2 37/43/2
f 45/55/2 41/48/2 48/59/2
f 45/55/2 48/59/2 42/50/2
f 15/53/2 32/35/2 43/52/2
f 32/35/2 15/53/2 11/37/2
f 49/60/2 30/32/2 45/55/2
f 39/46/2 30/32/2 49/60/2
f 45/55/2 18/51/2 49/60/2
f 44/63/6 16/62/6 15/61/6
f 16/62/6 44/63/6 50/64/6
f 51/67/3 46/66/3 29/65/3
f 46/66/3 51/67/3 52/68/3
f 53/64/3 43/61/3 32/63/3
f 43/61/3 53/64/3 54/62/3
f 55/71/2 20/70/2 19/69/2
f 20/70/2 55/71/2 56/72/2
f 55/75/4 17/74/4 39/73/4
f 17/74/4 55/75/4 19/76/4
f 57/15/3 47/14/3 36/13/3
f 47/14/3 57/15/3 58/16/3
f 59/79/3 28/78/3 27/77/3
f 28/78/3 59/79/3 60/80/3
f 13/83/2 50/82/2 14/81/2
f 50/82/2 13/83/2 16/84/2
f 7/64/4 9/61/4 34/63/4
f 9/61/4 7/64/4 5/62/4
f 46/73/6 61/76/6 26/74/6
f 61/76/6 46/73/6 52/75/6
f 62/87/4 29/86/4 25/85/4
f 29/86/4 62/87/4 51/88/4
f 4/91/4 27/90/4 2/89/4
f 27/90/4 4/91/4 59/92/4
f 30/95/7 22/94/7 63/93/7
f 22/94/7 30/95/7 21/96/7
f 61/19/1 25/18/1 26/17/1
f 25/18/1 61/19/1 62/20/1
f 18/85/6 56/88/6 49/86/6
f 56/88/6 18/85/6 20/87/6
f 64/57/8 22/32/8 24/55/8
f 22/32/8 64/57/8 63/30/8
f 65/64/1 35/61/1 37/63/1
f 35/61/1 65/64/1 66/62/1
f 66/11/4 36/10/4 35/9/4
f 36/10/4 66/11/4 57/12/4
f 66/99/2 58/98/2 57/97/2
f 58/98/2 66/99/2 65/100/2
f 14/103/3 44/102/3 12/101/3
f 44/102/3 14/103/3 50/104/3
f 28/107/6 3/106/6 1/105/6
f 3/106/6 28/107/6 60/108/6
f 67/79/1 40/78/1 42/77/1
f 40/78/1 67/79/1 68/80/1
f 47/101/6 65/104/6 37/102/6
f 65/104/6 47/101/6 58/103/6
f 23/95/9 64/110/9 24/109/9
f 64/110/9 23/95/9 45/96/9
f 56/67/1 39/66/1 49/65/1
f 39/66/1 56/67/1 55/68/1
f 64/112/10 30/23/10 63/111/10
f 30/23/10 64/112/10 45/21/10
f 62/115/2 52/114/2 51/113/2
f 52/114/2 62/115/2 61/116/2
f 10/13/6 8/16/6 38/14/6
f 8/16/6 10/13/6 6/15/6
f 4/119/2 60/118/2 59/117/2
f 60/118/2 4/119/2 3/120/2
f 8/103/1 34/102/1 38/101/1
f 34/102/1 8/103/1 7/104/1
f 48/89/6 67/92/6 42/90/6
f 67/92/6 48/89/6 69/91/6
f 70/3/3 48/2/3 41/1/3
f 48/2/3 70/3/3 69/4/3
f 71/103/4 32/102/4 31/101/4
f 32/102/4 71/103/4 53/104/4
f 68/123/2 69/122/2 70/121/2
f 69/122/2 68/123/2 67/124/2
f 72/15/1 31/14/1 33/13/1
f 31/14/1 72/15/1 71/16/1
f 71/127/2 54/126/2 53/125/2
f 54/126/2 71/127/2 72/128/2
f 68/108/4 41/105/4 40/107/4
f 41/105/4 68/108/4 70/106/4
f 43/9/6 72/12/6 33/10/6
f 72/12/6 43/9/6 54/11/6

