# Created by Kenney (www.kenney.nl)

mtllib chopstickFancy.mtl

g chopstickFancy

v -0.005 0.005 -0.225
v 0.005 0.005 -0.225
v -0.005 0.015 -0.225
v 0.005 0.015 -0.225
v 0.01 0 0.225
v -0.01 0 0.225
v 0.01 0.02 0.225
v -0.01 0.02 0.225
v -0.009299064 0.01929906 0.1619157
v 0.009299064 0.01929906 0.1619157
v -0.009299064 0.0007009362 0.1619157
v 0.007992477 0.002007523 0.04432292
v 0.007992477 0.01799248 0.04432292
v -0.007992477 0.002007523 0.04432292
v -0.007992477 0.01799248 0.04432292
v 0.009299064 0.0007009362 0.1619157
v -0.008233585 0.01823359 0.06602272
v 0.008233585 0.01823359 0.06602272
v -0.008233585 0.001766414 0.06602272
v 0.008233585 0.001766414 0.06602272

vn 0 0 -1
vn 0 0 1
vn 0 0.9999382 -0.01111042
vn -0.9999382 0 -0.01111042
vn 0.9999382 0 -0.01111042
vn 0 -0.9999382 -0.01111042

vt 0.1968504 0.1968504
vt -0.1968504 0.1968504
vt 0.1968504 0.5905512
vt -0.1968504 0.5905512
vt 0.3937008 0
vt -0.3937008 0
vt 0.3937008 0.7874016
vt -0.3937008 0.7874016
vt 0.3937008 8.866469
vt 0.3661049 6.382684
vt -0.3937008 8.866469
vt -0.3661049 6.382684
vt 8.862095 0.7874016
vt 8.862095 9.844284E-20
vt 6.378309 0.7598057
vt 6.378309 0.02759591
vt -1.748385 0.07903634
vt -1.748385 0.7083653
vt 8.855534 0.1968504
vt 8.855534 0.5905512
vt 0.3146645 -1.744011
vt -0.3146645 -1.744011
vt 0.1968504 8.859908
vt -0.1968504 8.859908
vt 0.3146645 1.752759
vt 0.1968504 -8.85116
vt -0.3146645 1.752759
vt -0.1968504 -8.85116
vt 1.748385 0.7083653
vt 1.748385 0.07903634
vt -8.855534 0.5905512
vt -8.855534 0.1968504
vt -8.862095 -3.445499E-19
vt -8.862095 0.7874016
vt -6.378309 0.02759591
vt -6.378309 0.7598057
vt 0.3937008 -8.857721
vt -0.3937008 -8.857721
vt 0.3661049 -6.373935
vt -0.3661049 -6.373935
vt 0.3241569 2.607135
vt -0.3241569 2.607135
vt 2.602761 0.7178577
vt 2.602761 0.06954387
vt -2.602761 0.06954387
vt -2.602761 0.7178577
vt 0.3241569 -2.598387
vt -0.3241569 -2.598387

usemtl brown

f 3/3/1 2/2/1 1/1/1
f 2/2/1 3/3/1 4/4/1
f 7/7/2 6/6/2 5/5/2
f 6/6/2 7/7/2 8/8/2
f 7/11/3 9/10/3 8/9/3
f 9/10/3 7/11/3 10/12/3
f 9/15/4 6/14/4 8/13/4
f 6/14/4 9/15/4 11/16/4
f 2/19/5 13/18/5 12/17/5
f 13/18/5 2/19/5 4/20/5
f 1/23/6 12/22/6 14/21/6
f 12/22/6 1/23/6 2/24/6
f 13/27/3 3/26/3 15/25/3
f 3/26/3 13/27/3 4/28/3
f 3/31/4 14/30/4 15/29/4
f 14/30/4 3/31/4 1/32/4
f 16/35/5 7/34/5 5/33/5
f 7/34/5 16/35/5 10/36/5
f 11/39/6 5/38/6 6/37/6
f 5/38/6 11/39/6 16/40/6

usemtl red

f 10/12/3 17/41/3 9/10/3
f 17/41/3 10/12/3 18/42/3
f 17/43/4 11/16/4 9/15/4
f 11/16/4 17/43/4 19/44/4
f 20/45/5 10/36/5 16/35/5
f 10/36/5 20/45/5 18/46/5
f 19/47/6 16/40/6 11/39/6
f 16/40/6 19/47/6 20/48/6

usemtl brownLight

f 18/42/3 15/25/3 17/41/3
f 15/25/3 18/42/3 13/27/3
f 15/29/4 19/44/4 17/43/4
f 19/44/4 15/29/4 14/30/4
f 12/17/5 18/46/5 20/45/5
f 18/46/5 12/17/5 13/18/5
f 14/21/6 20/48/6 19/47/6
f 20/48/6 14/21/6 12/22/6

