# Created by Kenney (www.kenney.nl)

mtllib cookingFork.mtl

g cookingFork

v -0.3161362 0 -0.03248807
v -0.3413362 0 -7.219114E-16
v -0.3161362 0 0.03248807
v -0.3161362 0.02 0.03248807
v -0.3413362 0.02 -7.219114E-16
v -0.3161362 0.02 -0.03248807
v -0.09442633 0.0178 0.0253407
v -0.09442633 0.0178 -0.0253407
v -0.09442633 0.0022 -0.0253407
v -0.09442633 0.0022 0.0253407
v 0.144345 0.01933292 0.03746422
v 0.144345 0.01933292 0.01248807
v 0.3065053 0.06278365 0.03746422
v 0.3413362 0.07211657 0.01248807
v 0.144345 0.01933292 -0.03746422
v 0.109514 0.01 -0.01248807
v 0.109514 0.01 0.01248807
v 0.144345 0.01933292 -0.01248807
v 0.3413362 0.07211657 -0.01248807
v 0.3065053 0.06278365 -0.03746422
v -0.09442633 0.01 0.02248807
v -0.09442633 0.01 -0.02248807

vn 0 -1 0
vn 0 1 0
vn 0.009922388 0.9999508 0
vn -0.7901589 0 0.612902
vn 0.009922388 -0.9999508 0
vn 0.03222078 0 -0.9994808
vn 0.03222078 0 0.9994808
vn 1 0 0
vn -0.7901589 0 -0.612902
vn -0.258819 0.9659258 0
vn 0.258819 -0.9659258 0

vt 12.44631 1.279058
vt 13.43843 2.842171E-14
vt 12.44631 -1.279058
vt -12.44631 -1.279058
vt -13.43843 2.842171E-14
vt -12.44631 1.279058
vt -1.279058 12.45351
vt 1.279058 12.45351
vt -0.9976652 3.724342
vt 0.9976652 3.724342
vt -6.617708 0.7874016
vt -6.617708 0
vt -8.236444 0.7874016
vt -8.236444 0
vt 1.279058 -12.4457
vt -1.279058 -12.4457
vt 0.9976652 -3.71653
vt -0.9976652 -3.71653
vt 12.48106 -1.542555E-18
vt 3.747787 0.08661418
vt 12.48106 0.7874016
vt 3.747787 0.7007874
vt -12.48106 -1.542555E-18
vt -12.48106 0.7874016
vt -3.747787 0.08661418
vt -3.747787 0.7007874
vt -0.9976652 0.08661418
vt -0.9976652 0.7007874
vt 0.9976652 0.08661418
vt 0.9976652 0.7007874
vt 8.236444 0.7874016
vt 8.236444 0
vt 6.617708 0.7874016
vt 6.617708 0
vt 1.474969 5.686231
vt 0.4916564 5.686231
vt 1.474969 12.29571
vt 0.4916564 13.71538
vt -1.474969 5.686231
vt -0.4916564 4.26656
vt 0.4916564 4.26656
vt -0.4916564 5.686231
vt -0.4916564 13.71538
vt -1.474969 12.29571
vt -3.717572 -0.8853571
vt -3.717572 0.8853571
vt 4.311576 -0.4916564
vt 4.311576 0.4916564

usemtl brown

f 3/3/1 2/2/1 1/1/1
f 6/6/2 5/5/2 4/4/2
f 7/9/3 6/8/3 4/7/3
f 6/8/3 7/9/3 8/10/3
f 5/13/4 3/12/4 4/11/4
f 3/12/4 5/13/4 2/14/4
f 9/17/5 3/16/5 1/15/5
f 3/16/5 9/17/5 10/18/5
f 6/21/6 9/20/6 1/19/6
f 9/20/6 6/21/6 8/22/6
f 10/25/7 4/24/7 3/23/7
f 4/24/7 10/25/7 7/26/7
f 9/29/8 7/28/8 10/27/8
f 7/28/8 9/29/8 8/30/8
f 6/33/9 2/32/9 5/31/9
f 2/32/9 6/33/9 1/34/9

usemtl white

f 13/37/10 12/36/10 11/35/10
f 12/36/10 13/37/10 14/38/10
f 15/39/10 11/35/10 12/36/10
f 16/40/10 11/35/10 15/39/10
f 11/35/10 16/40/10 17/41/10
f 15/39/10 12/36/10 18/42/10
f 15/39/10 18/42/10 19/43/10
f 15/39/10 19/43/10 20/44/10
f 11/35/11 12/36/11 13/37/11
f 14/38/11 13/37/11 12/36/11
f 12/36/11 11/35/11 15/39/11
f 15/39/11 11/35/11 16/40/11
f 17/41/11 16/40/11 11/35/11
f 18/42/11 12/36/11 15/39/11
f 19/43/11 18/42/11 15/39/11
f 20/44/11 19/43/11 15/39/11
f 17/47/2 22/46/2 21/45/2
f 22/46/2 17/47/2 16/48/2
f 21/45/1 22/46/1 17/47/1
f 16/48/1 17/47/1 22/46/1

