# Created by Kenney (www.kenney.nl)

mtllib cookie.mtl

g cookie

v -0.06517975 0.039816 -0.004463979
v -0.04736066 0.039816 -0.02228307
v -0.06517975 0.04977 -0.004463979
v -0.04736066 0.04977 -0.02228307
v -0.04736066 0.039816 0.01335511
v -0.02954157 0.039816 -0.004463979
v 0.03877888 0.039816 0.04245055
v 0.03877888 0.04977 0.04245055
v 0.02617888 0.039816 0.02062672
v 0.04251852 0.039816 -0.03675627
v 0.04251852 0.04977 -0.03675627
v 0.02469943 0.039816 -0.05457536
v 0.02469943 0.04977 -0.05457536
v 0.01695504 0.039816 0.05505056
v 0.01695504 0.04977 0.05505056
v 0.004355041 0.039816 0.03322671
v 0.006880338 0.039816 -0.03675627
v 0.02469943 0.039816 -0.01893718
v -0.09119376 0.039816 0
v -0.04559688 0.039816 0.07897612
v 0.04559688 0.039816 0.07897612
v -0.04559688 0.039816 -0.07897612
v 0.04559688 0.039816 -0.07897612
v 0.09119376 0.039816 0
v -0.054936 0.019908 0.09515195
v -0.0504 0 0.08729536
v -0.109872 0.019908 0
v -0.1008 0 0
v -0.054936 0.019908 -0.09515195
v -0.0504 0 -0.08729536
v 0.054936 0.019908 0.09515195
v 0.109872 0.019908 0
v 0.0504 0 -0.08729536
v 0.054936 0.019908 -0.09515195
v 0.1008 0 0
v 0.0504 0 0.08729536

vn -0.7071068 0 -0.7071068
vn 0.2597756 0.9300716 0.2597756
vn 0.8660254 0 -0.5
vn 0.7071068 0 -0.7071068
vn 0.5 0 0.8660254
vn -0.8660254 0 0.5
vn -0.1836891 0.9300716 -0.318159
vn -0.2597756 0.9300716 0.2597756
vn 0.7071068 0 0.7071068
vn -0.7071068 0 0.7071068
vn 0 1 0
vn -0.8055634 -0.3670922 0.4650923
vn -0.8055634 -0.3670922 -0.4650923
vn 0.6721249 0.6306063 0.3880515
vn 0 -0.3670923 -0.9301845
vn 0.8055634 -0.3670922 -0.4650923
vn 0 0.6306063 0.776103
vn 0 -0.3670923 0.9301845
vn 0.6721249 0.6306063 -0.3880515
vn 0 -1 0
vn 0 0.6306063 -0.776103
vn -0.6721249 0.6306063 0.3880515
vn 0.8055634 -0.3670922 0.4650923
vn -0.6721249 0.6306063 -0.3880515

vt 1.690257 1.567559
vt 0.6981313 1.567559
vt 1.690257 1.959449
vt 0.6981313 1.959449
vt -1.690257 2.523083
vt -0.6981313 2.523083
vt -1.690257 1.456363
vt -0.6981313 1.456363
vt -2.210736 1.567559
vt -2.210736 1.959449
vt -1.21861 1.567559
vt 1.938801 1.567559
vt 0.9466753 1.567559
vt 1.938801 1.959449
vt -0.1604142 1.567559
vt -0.1604142 1.959449
vt 0.8317117 1.567559
vt 0.8317117 1.959449
vt 0.486544 1.567559
vt -0.5055819 1.567559
vt 0.486544 1.959449
vt -0.5055819 1.959449
vt 2.210736 1.959449
vt 2.210736 1.567559
vt 1.21861 1.567559
vt 0.5055819 1.709282
vt -0.486544 1.709282
vt 0.5055819 2.776002
vt -0.486544 2.776002
vt -0.8317117 1.705732
vt -0.8317117 2.772452
vt 0.1604142 1.705732
vt 0.1604142 2.772452
vt -1.214793 1.567559
vt -2.206919 1.567559
vt -2.206919 1.959449
vt 2.206919 1.567559
vt 1.214793 1.567559
vt 2.206919 1.959449
vt -1.938801 1.959449
vt -0.9466753 1.567559
vt -1.938801 1.567559
vt -3.590306 0
vt -2.566132 0.1757472
vt -1.795153 -3.109296
vt -1.864593 -0.5257918
vt -1.163054 0.1757472
vt 0.6675213 -2.167345
vt 1.795153 -3.109296
vt 0.1714583 -1.308138
vt 1.526728 -1.671282
vt 1.673957 1.447097
vt -1.795153 3.109296
vt -1.864593 0.8772862
vt 1.795153 3.109296
vt 0.2708794 1.447097
vt 0.9724185 2.148636
vt 3.590306 0
vt 1.030665 -0.8120754
vt 0.9724184 0.7455584
vt 2.162835 2.104238
vt 1.984252 1.261632
vt -2.162835 2.104238
vt -1.984252 1.261632
vt -2.162835 -1.754045
vt -1.795153 -0.7441542
vt 2.162835 -1.754045
vt 1.795153 -0.7441542
vt 3.968504 0
vt 1.984252 -3.436825
vt 1.984252 3.436825
vt -1.984252 3.436825
vt -1.984252 -3.436825
vt -3.968504 0

usemtl brownDark

f 3/3/1 2/2/1 1/1/1
f 2/2/1 3/3/1 4/4/1
f 5/7/2 4/6/2 3/5/2
f 4/6/2 5/7/2 6/8/2
f 9/11/3 8/10/3 7/9/3
f 4/14/4 6/13/4 2/12/4
f 12/17/4 11/16/4 10/15/4
f 11/16/4 12/17/4 13/18/4
f 8/21/5 14/20/5 7/19/5
f 14/20/5 8/21/5 15/22/5
f 16/25/6 14/24/6 15/23/6
f 15/28/7 9/27/7 16/26/7
f 9/27/7 15/28/7 8/29/7
f 18/32/8 13/31/8 17/30/8
f 13/31/8 18/32/8 11/33/8
f 13/36/1 12/35/1 17/34/1
f 11/39/9 18/38/9 10/37/9
f 1/42/10 5/41/10 3/40/10

usemtl brown

f 20/45/11 1/44/11 19/43/11
f 1/44/11 20/45/11 5/46/11
f 5/46/11 20/45/11 6/47/11
f 6/47/11 20/45/11 14/48/11
f 14/48/11 20/45/11 21/49/11
f 6/47/11 14/48/11 16/50/11
f 14/48/11 21/49/11 7/51/11
f 7/51/11 21/49/11 10/52/11
f 1/44/11 22/53/11 19/43/11
f 22/53/11 1/44/11 2/54/11
f 22/53/11 2/54/11 6/47/11
f 22/53/11 6/47/11 23/55/11
f 23/55/11 10/52/11 21/49/11
f 23/55/11 6/47/11 17/56/11
f 17/56/11 6/47/11 16/50/11
f 23/55/11 17/56/11 12/57/11
f 23/55/11 12/57/11 10/52/11
f 23/55/11 21/49/11 24/58/11
f 9/59/11 17/56/11 16/50/11
f 10/52/11 9/59/11 7/51/11
f 17/56/11 9/59/11 18/60/11
f 18/60/11 9/59/11 10/52/11
f 27/63/12 26/62/12 25/61/12
f 26/62/12 27/63/12 28/64/12
f 29/63/13 28/62/13 27/61/13
f 28/62/13 29/63/13 30/64/13
f 32/67/14 21/66/14 31/65/14
f 21/66/14 32/67/14 24/68/14
f 29/61/15 33/64/15 30/62/15
f 33/64/15 29/61/15 34/63/15
f 33/62/16 32/63/16 35/64/16
f 32/63/16 33/62/16 34/61/16
f 21/68/17 25/65/17 31/67/17
f 25/65/17 21/68/17 20/66/17
f 31/61/18 26/64/18 36/62/18
f 26/64/18 31/61/18 25/63/18
f 34/67/19 24/66/19 32/65/19
f 24/66/19 34/67/19 23/68/19
f 30/71/20 26/70/20 28/69/20
f 26/70/20 30/71/20 33/72/20
f 26/70/20 33/72/20 36/73/20
f 36/73/20 33/72/20 35/74/20
f 22/68/21 34/65/21 29/67/21
f 34/65/21 22/68/21 23/66/21
f 20/68/22 27/65/22 25/67/22
f 27/65/22 20/68/22 19/66/22
f 36/64/23 32/61/23 31/63/23
f 32/61/23 36/64/23 35/62/23
f 22/66/24 27/67/24 19/68/24
f 27/67/24 22/66/24 29/65/24

