# Created by Kenney (www.kenney.nl)

mtllib cookingSpoon.mtl

g cookingSpoon

v 0.1549461 0 0.02016244
v 0.1549461 0 -0.02016244
v 0.1915419 0 0.04129101
v 0.1915419 0 -0.04129101
v 0.2671041 0 0.01796164
v 0.2671041 0 -0.01796164
v 0.3327984 0.0144 0.0432
v 0.3327984 0.0144 -0.0432
v 0.1180518 0.0144 -0.0432
v 0.1928764 0.0144 -0.0864
v 0.1928764 0.0144 0.0864
v 0.1180518 0.0144 0.0432
v 0.1180518 0.0144 0.0253407
v 0.1180518 0.0144 0.01876393
v 0.1180518 0.0144 -0.01876393
v 0.1180518 0.0144 -0.0253407
v -0.3075984 0.0044 -0.03248807
v -0.3075984 0.0244 -0.03248807
v -0.3075984 0.0044 0.03248807
v -0.3075984 0.0244 0.03248807
v -0.3327984 0.0244 0
v -0.3327984 0.0044 0

vn 0 1 0
vn 0 -1 0
vn -0.2141138 0.9768088 0
vn 0.2141138 -0.9768088 0
vn 0.1755687 0.9363239 0.304094
vn -0.1755687 -0.9363239 -0.304094
vn -0.09271785 0.9493256 -0.3003071
vn 0.09271785 -0.9493256 0.3003071
vn 0.1755687 0.9363239 -0.304094
vn -0.1755687 -0.9363239 0.304094
vn -0.09271785 0.9493256 0.3003071
vn 0.09271785 -0.9493256 -0.3003071
vn 0.3635915 0.9315585 0
vn -0.3635915 -0.9315585 0
vn 0.0167893 0 -0.9998591
vn 0.02348698 -0.9997241 0
vn 0.02348698 0.9997241 0
vn -0.7901589 0 0.612902
vn -0.7901589 0 -0.612902
vn 0.0167893 0 0.9998591

vt 6.10024 -0.7937968
vt 6.10024 0.7937968
vt 7.541018 -1.62563
vt 7.541018 1.62563
vt 10.51591 -0.7071512
vt 10.51591 0.7071512
vt 0.7071512 10.27203
vt -0.7071512 10.27203
vt 1.700787 12.91983
vt -1.700787 12.91983
vt 4.875429 -0.597676
vt 8.277003 -0.597676
vt 5.679862 -2.212226
vt 7.343528 -2.212226
vt -6.725848 3.586465
vt -9.839302 3.586465
vt -6.252143 5.390281
vt -12.01746 5.390281
vt -4.875429 -0.597676
vt -5.679862 -2.212226
vt -8.277003 -0.597676
vt -7.343528 -2.212226
vt 6.725848 3.586465
vt 6.252143 5.390281
vt 9.839302 3.586465
vt 12.01746 5.390281
vt -1.700787 -4.123483
vt -0.9976652 -4.123483
vt -0.7937968 -5.682731
vt -0.7387373 -4.123483
vt 0.7387373 -4.123483
vt 0.9976652 -4.123483
vt 1.700787 -4.123483
vt 0.7937968 -5.682731
vt 12.12994 0.1732284
vt -4.630305 0.5669292
vt 12.12994 0.9606299
vt 1.279058 -12.10277
vt -1.279058 -12.10277
vt 0.9976652 4.659743
vt -0.9976652 4.659743
vt 0.7387373 4.659743
vt -0.7387373 4.659743
vt -1.279058 12.1294
vt 1.279058 12.1294
vt -0.9976652 -4.633112
vt 0.9976652 -4.633112
vt -0.7387373 -4.633112
vt 0.7387373 -4.633112
vt -12.11017 -1.279058
vt -13.1023 0
vt -12.11017 1.279058
vt -6.411691 0.9606299
vt -6.411691 0.1732284
vt -8.030426 0.9606299
vt -8.030426 0.1732284
vt 12.11017 1.279058
vt 13.1023 0
vt 12.11017 -1.279058
vt 8.030426 0.9606299
vt 8.030426 0.1732284
vt 6.411691 0.9606299
vt 6.411691 0.1732284
vt 4.630305 0.5669292
vt -12.12994 0.1732284
vt -12.12994 0.9606299

usemtl brown

f 3/3/1 2/2/1 1/1/1
f 2/2/1 3/3/1 4/4/1
f 4/4/1 3/3/1 5/5/1
f 4/4/1 5/5/1 6/6/1
f 1/1/2 2/2/2 3/3/2
f 4/4/2 3/3/2 2/2/2
f 5/5/2 3/3/2 4/4/2
f 6/6/2 5/5/2 4/4/2
f 7/9/3 6/8/3 5/7/3
f 6/8/3 7/9/3 8/10/3
f 5/7/4 6/8/4 7/9/4
f 8/10/4 7/9/4 6/8/4
f 2/13/5 10/12/5 9/11/5
f 10/12/5 2/13/5 4/14/5
f 9/11/6 10/12/6 2/13/6
f 4/14/6 2/13/6 10/12/6
f 11/17/7 5/16/7 3/15/7
f 5/16/7 11/17/7 7/18/7
f 3/15/8 5/16/8 11/17/8
f 7/18/8 11/17/8 5/16/8
f 11/21/9 1/20/9 12/19/9
f 1/20/9 11/21/9 3/22/9
f 12/19/10 1/20/10 11/21/10
f 3/22/10 11/21/10 1/20/10
f 6/25/11 10/24/11 4/23/11
f 10/24/11 6/25/11 8/26/11
f 4/23/12 10/24/12 6/25/12
f 8/26/12 6/25/12 10/24/12
f 1/29/13 13/28/13 12/27/13
f 13/28/13 1/29/13 14/30/13
f 14/30/13 1/29/13 15/31/13
f 15/31/13 1/29/13 16/32/13
f 16/32/13 1/29/13 9/33/13
f 9/33/13 1/29/13 2/34/13
f 12/27/14 13/28/14 1/29/14
f 14/30/14 1/29/14 13/28/14
f 15/31/14 1/29/14 14/30/14
f 16/32/14 1/29/14 15/31/14
f 9/33/14 1/29/14 16/32/14
f 2/34/14 1/29/14 9/33/14
f 18/37/15 16/36/15 17/35/15
f 16/40/16 19/39/16 17/38/16
f 19/39/16 16/40/16 13/41/16
f 13/41/16 16/40/16 15/42/16
f 13/41/16 15/42/16 14/43/16
f 13/46/17 18/45/17 20/44/17
f 18/45/17 13/46/17 16/47/17
f 16/47/17 13/46/17 14/48/17
f 16/47/17 14/48/17 15/49/17
f 18/52/1 21/51/1 20/50/1
f 21/55/18 19/54/18 20/53/18
f 19/54/18 21/55/18 22/56/18
f 19/59/2 22/58/2 17/57/2
f 18/62/19 22/61/19 21/60/19
f 22/61/19 18/62/19 17/63/19
f 20/66/20 19/65/20 13/64/20

