# Created by Kenney (www.kenney.nl)

mtllib corn.mtl

g corn

v -0.09633093 0.2127082 0.14471
v -0.08693028 0.1930805 0.08414766
v -0.07715712 0.2127082 0.15578
v -0.02940887 0.1930805 0.1173577
v -0.04330127 0.03309909 0.025
v -2.887646E-15 0.03309909 0.05
v -0.07382219 0.1476241 0.04358379
v -0.0008335732 0.1476241 0.08572379
v 0.04330127 0.03309909 -0.025
v -2.887646E-15 0.03309909 -0.05
v 0.07135633 0.1193262 -0.03931278
v -0.001632294 0.1193262 -0.08145279
v 0.02499727 0.1529728 -0.1097165
v 0.08251867 0.1529728 -0.07650653
v -0.08251829 0.2373307 -0.1207859
v -0.06334449 0.2373307 -0.1318559
v -0.08084133 0.2131058 -0.07360128
v -0.02331992 0.2131058 -0.1068113
v -0.07123331 0.1270256 0.04214
v -0.07123331 0.1270256 -0.04214
v -0.04330127 0.03309909 -0.025
v 0.0004949583 0.1610299 -0.08342271
v -0.07249366 0.1610299 -0.04128271
v -0.1104651 0.1638511 0.03321
v -0.1104651 0.1638511 -0.03321
v 0.1181195 0.185413 0.03321
v 0.1181195 0.185413 -0.03321
v 0.1781274 0.2035698 0.01107
v 0.1781274 0.2035698 -0.01107
v 0.07478329 0.1423655 0.04214
v 0.04330127 0.03309909 0.025
v 0.07478329 0.1423655 -0.04214
v -0.1650916 0.1791428 0.01107
v -0.1650916 0.1791428 -0.01107
v 0.03086133 0 0.0178178
v 0 0 0.0356356
v 0.07061052 0.1667274 -0.144441
v 0.08978432 0.1667274 -0.133371
v -0.0004949583 0.1610299 0.08342271
v 0.07249366 0.1610299 0.04128271
v 0.02331992 0.2131058 0.1068113
v 0.08084133 0.2131058 0.07360128
v 0.06334449 0.2373307 0.1318559
v 0.08251829 0.2373307 0.1207859
v -0.03086133 0 0.0178178
v -0.03086133 0 -0.0178178
v 0 0 -0.0356356
v 0.03086133 0 -0.0178178
v -5.775291E-15 0.1580991 0.0605
v -0.05239454 0.1580991 0.03025
v -2.887646E-15 0.2830991 0.05
v -0.04330127 0.2830991 0.025
v -0.04330127 0.2830991 -0.025
v -0.02559948 0.3161982 0.01477986
v -0.02559948 0.3161982 -0.01477986
v 0.04330127 0.2830991 0.025
v 0.02559948 0.3161982 0.01477986
v 2.887646E-15 0.3161982 0.02955973
v -2.887646E-15 0.2830991 -0.05
v 0.04330127 0.2830991 -0.025
v 2.887646E-15 0.3161982 -0.02955973
v 0.02559948 0.3161982 -0.01477986
v 0.05239454 0.1580991 0.03025
v 0.05239454 0.1580991 -0.03025
v -5.775291E-15 0.1580991 -0.0605
v -0.05239454 0.1580991 -0.03025

vn 0.1624123 0.9457744 -0.2813063
vn -0.1624123 -0.9457744 0.2813063
vn 0.482253 0.2640611 -0.8352867
vn -0.482253 -0.2640611 0.8352867
vn 0.3685163 0.6758572 -0.6382889
vn -0.3685163 -0.6758572 0.6382889
vn -0.4780585 0.2929851 0.8280216
vn 0.4780585 -0.2929851 -0.8280216
vn -0.3324791 0.7468805 0.5758708
vn 0.3324791 -0.7468805 -0.5758708
vn 0.2511536 0.8646892 0.4350109
vn -0.2511536 -0.8646892 -0.4350109
vn 0.9585142 0.2850448 0
vn -0.9585142 -0.2850448 0
vn 0.4878758 0.2188806 0.8450257
vn -0.4878758 -0.2188806 -0.8450257
vn 0.4254063 0.5254691 0.7368254
vn -0.4254063 -0.5254691 -0.7368254
vn 0.6843935 0.7291129 0
vn -0.6843935 -0.7291129 0
vn -0.2896073 0.9571456 0
vn 0.2896073 -0.9571456 0
vn -0.9609104 0.2768592 0
vn 0.9609104 -0.2768592 0
vn -0.7047394 0.7094663 0
vn 0.7047394 -0.7094663 0
vn 0.2695687 0.9629812 0
vn -0.2695687 -0.9629812 0
vn 0.4680353 -0.351812 0.810661
vn -0.1258685 0.9677957 0.2180106
vn 0.1258685 -0.9677957 -0.2180106
vn -0.4254063 0.5254691 -0.7368254
vn 0.4254063 -0.5254691 0.7368254
vn -0.2511536 0.8646892 -0.4350109
vn 0.2511536 -0.8646892 0.4350109
vn -0.9360706 -0.351812 0
vn 0.4680353 -0.351812 -0.810661
vn 0.9360706 -0.351812 0
vn -0.4878758 0.2188806 -0.8450257
vn 0.4878758 -0.2188806 0.8450257
vn 0 -1 0
vn -0.4680353 -0.351812 -0.810661
vn -0.4680353 -0.351812 0.810661
vn -0.4986822 0.07255441 0.8637429
vn -0.881811 0.4716031 0
vn 0.4409055 0.4716032 0.7636707
vn -0.4409055 0.4716032 0.7636707
vn 0.4409055 0.4716032 -0.7636707
vn 0.9973645 0.0725544 0
vn 0.4986822 0.07255441 -0.8637429
vn -0.4986822 0.07255441 -0.8637429
vn -0.4986822 -0.07255441 -0.8637429
vn -0.9973645 0.0725544 0
vn 0.4986822 0.07255441 0.8637429
vn 0.4986822 -0.07255441 0.8637429
vn 0.4986822 -0.07255441 -0.8637429
vn -0.9973645 -0.0725544 0
vn -0.4986822 -0.07255441 0.8637429
vn 0.9973645 -0.0725544 0
vn -0.4409055 0.4716032 -0.7636707
vn 0.881811 0.4716031 0
vn 0 1 0

vt 0.4358268 9.180054
vt 1.30748 6.801096
vt -0.4358268 9.180054
vt -1.30748 6.801096
vt 0.984252 1.707026
vt -0.984252 1.707026
vt 1.659055 6.381812
vt -1.659055 6.381812
vt 1.30748 8.698238
vt 1.659055 6.270095
vt -1.30748 8.698238
vt -1.659055 6.270095
vt 0.984252 1.745403
vt -0.984252 1.745403
vt 1.659055 5.295979
vt -1.659055 5.295979
vt -1.659055 5.174112
vt -1.30748 7.166225
vt 1.659055 5.174112
vt 1.30748 7.166225
vt -0.4358268 9.659012
vt 0.4358268 9.659012
vt -1.30748 7.760303
vt 1.30748 7.760303
vt -1.659055 5.592933
vt 1.659055 5.592933
vt -0.984252 1.73499
vt 0.984252 1.73499
vt 0.984252 1.644657
vt -0.984252 1.644657
vt 1.659055 6.806468
vt -1.659055 6.806468
vt 1.659055 6.883439
vt -1.659055 6.883439
vt 1.30748 9.293175
vt -1.30748 9.293175
vt -1.30748 7.585832
vt 1.30748 7.585832
vt -1.659055 5.467425
vt 1.659055 5.467425
vt 1.30748 6.565138
vt -1.30748 6.565138
vt 0.4358268 9.033432
vt -0.4358268 9.033432
vt 1.659055 6.200982
vt 0.984252 1.724158
vt -1.659055 6.200982
vt -0.984252 1.724158
vt 1.659055 6.03885
vt -1.659055 6.03885
vt 1.30748 8.443686
vt -1.30748 8.443686
vt -0.4358268 8.16029
vt 0.4358268 8.16029
vt -1.30748 5.926965
vt 1.30748 5.926965
vt 0.7014882 0.4274563
vt -0.7014882 0.4274563
vt 0.984252 1.819567
vt -0.984252 1.819567
vt -1.30748 5.612692
vt -0.4358268 7.763815
vt 1.30748 5.612692
vt 0.4358268 7.763815
vt 1.215013 0.7014882
vt 1.215013 -0.7014882
vt 0 1.402976
vt 0 -1.402976
vt -1.215013 0.7014882
vt -1.215013 -0.7014882
vt 1.190945 6.058305
vt -1.190945 6.058305
vt 0.984252 10.99257
vt -0.984252 10.99257
vt 0.984252 9.024364
vt -0.984252 9.024364
vt 0.5818844 10.50213
vt -0.5818844 10.50213
vt 0.984252 1.423368
vt -0.984252 1.423368
vt 1.190945 6.357633
vt -1.190945 6.357633
vt -1.007853 -0.5818844
vt -1.007853 0.5818844
vt 1.136868E-13 -1.163769
vt 1.136868E-13 1.163769
vt 1.007853 -0.5818844
vt 1.007853 0.5818844

usemtl green

f 3/3/1 2/2/1 1/1/1
f 2/2/1 3/3/1 4/4/1
f 1/1/2 2/2/2 3/3/2
f 4/4/2 3/3/2 2/2/2
f 7/7/3 6/6/3 5/5/3
f 6/6/3 7/7/3 8/8/3
f 5/5/4 6/6/4 7/7/4
f 8/8/4 7/7/4 6/6/4
f 4/11/5 7/10/5 2/9/5
f 7/10/5 4/11/5 8/12/5
f 2/9/6 7/10/6 4/11/6
f 8/12/6 4/11/6 7/10/6
f 11/15/7 10/14/7 9/13/7
f 10/14/7 11/15/7 12/16/7
f 9/13/8 10/14/8 11/15/8
f 12/16/8 11/15/8 10/14/8
f 11/19/9 13/18/9 12/17/9
f 13/18/9 11/19/9 14/20/9
f 12/17/10 13/18/10 11/19/10
f 14/20/10 11/19/10 13/18/10
f 17/23/11 16/22/11 15/21/11
f 16/22/11 17/23/11 18/24/11
f 15/21/12 16/22/12 17/23/12
f 18/24/12 17/23/12 16/22/12
f 5/27/13 20/26/13 19/25/13
f 20/26/13 5/27/13 21/28/13
f 19/25/14 20/26/14 5/27/14
f 21/28/14 5/27/14 20/26/14
f 22/31/15 21/30/15 10/29/15
f 21/30/15 22/31/15 23/32/15
f 10/29/16 21/30/16 22/31/16
f 23/32/16 22/31/16 21/30/16
f 18/35/17 23/34/17 22/33/17
f 23/34/17 18/35/17 17/36/17
f 22/33/18 23/34/18 18/35/18
f 17/36/18 18/35/18 23/34/18
f 19/39/19 25/38/19 24/37/19
f 25/38/19 19/39/19 20/40/19
f 24/37/20 25/38/20 19/39/20
f 20/40/20 19/39/20 25/38/20
f 28/43/21 27/42/21 26/41/21
f 27/42/21 28/43/21 29/44/21
f 26/41/22 27/42/22 28/43/22
f 29/44/22 28/43/22 27/42/22
f 32/47/23 31/46/23 30/45/23
f 31/46/23 32/47/23 9/48/23
f 30/45/24 31/46/24 32/47/24
f 9/48/24 32/47/24 31/46/24
f 26/51/25 32/50/25 30/49/25
f 32/50/25 26/51/25 27/52/25
f 30/49/26 32/50/26 26/51/26
f 27/52/26 26/51/26 32/50/26
f 24/55/27 34/54/27 33/53/27
f 34/54/27 24/55/27 25/56/27
f 33/53/28 34/54/28 24/55/28
f 25/56/28 24/55/28 34/54/28
f 31/59/29 36/58/29 35/57/29
f 36/58/29 31/59/29 6/60/29
f 14/63/30 37/62/30 13/61/30
f 37/62/30 14/63/30 38/64/30
f 13/61/31 37/62/31 14/63/31
f 38/64/31 14/63/31 37/62/31
f 41/35/32 40/34/32 39/33/32
f 40/34/32 41/35/32 42/36/32
f 39/33/33 40/34/33 41/35/33
f 42/36/33 41/35/33 40/34/33
f 43/22/34 42/23/34 41/24/34
f 42/23/34 43/22/34 44/21/34
f 41/24/35 42/23/35 43/22/35
f 44/21/35 43/22/35 42/23/35
f 21/60/36 45/57/36 5/59/36
f 45/57/36 21/60/36 46/58/36
f 10/59/37 48/58/37 47/57/37
f 48/58/37 10/59/37 9/60/37
f 35/58/38 9/59/38 31/60/38
f 9/59/38 35/58/38 48/57/38
f 39/31/39 31/30/39 6/29/39
f 31/30/39 39/31/39 40/32/39
f 6/29/40 31/30/40 39/31/40
f 40/32/40 39/31/40 31/30/40
f 47/67/41 45/66/41 46/65/41
f 45/66/41 47/67/41 36/68/41
f 36/68/41 47/67/41 48/69/41
f 36/68/41 48/69/41 35/70/41
f 21/59/42 47/58/42 46/57/42
f 47/58/42 21/59/42 10/60/42
f 6/59/43 45/58/43 36/57/43
f 45/58/43 6/59/43 5/60/43

usemtl yellow

f 51/73/44 50/72/44 49/71/44
f 50/72/44 51/73/44 52/74/44
f 54/77/45 53/76/45 52/75/45
f 53/76/45 54/77/45 55/78/45
f 57/77/46 51/76/46 56/75/46
f 51/76/46 57/77/46 58/78/46
f 58/77/47 52/76/47 51/75/47
f 52/76/47 58/77/47 54/78/47
f 61/77/48 60/76/48 59/75/48
f 60/76/48 61/77/48 62/78/48
f 64/71/49 56/74/49 63/72/49
f 56/74/49 64/71/49 60/73/49
f 59/73/50 64/72/50 65/71/50
f 64/72/50 59/73/50 60/74/50
f 53/73/51 65/72/51 66/71/51
f 65/72/51 53/73/51 59/74/51
f 66/81/52 10/80/52 21/79/52
f 10/80/52 66/81/52 65/82/52
f 52/73/53 66/72/53 50/71/53
f 66/72/53 52/73/53 53/74/53
f 56/73/54 49/72/54 63/71/54
f 49/72/54 56/73/54 51/74/54
f 63/81/55 6/80/55 31/79/55
f 6/80/55 63/81/55 49/82/55
f 65/81/56 9/80/56 10/79/56
f 9/80/56 65/81/56 64/82/56
f 66/82/57 5/79/57 50/81/57
f 5/79/57 66/82/57 21/80/57
f 49/81/58 5/80/58 6/79/58
f 5/80/58 49/81/58 50/82/58
f 31/80/59 64/81/59 63/82/59
f 64/81/59 31/80/59 9/79/59
f 55/77/60 59/76/60 53/75/60
f 59/76/60 55/77/60 61/78/60
f 60/75/61 57/78/61 56/76/61
f 57/78/61 60/75/61 62/77/61
f 58/85/62 55/84/62 54/83/62
f 55/84/62 58/85/62 61/86/62
f 61/86/62 58/85/62 57/87/62
f 61/86/62 57/87/62 62/88/62

