# Created by Kenney (www.kenney.nl)

mtllib cup.mtl

g cup

v -0.1268359 0.1290022 0.01000001
v -0.08438814 0.1535094 0.01000001
v -0.1268359 0.1290022 -0.00999999
v -0.08438814 0.1535094 -0.00999999
v -0.06215288 0.02 -0.03588397
v -0.06215288 0.02 0.03588399
v -0.06755748 0.2 -0.03900433
v -0.06755748 0.2 0.03900434
v 7.450597E-09 -9.026875E-20 0.08900001
v 0.07707627 -9.026875E-20 0.0445
v -0.07707626 -9.026875E-20 0.04450001
v -0.07707627 -9.026875E-20 -0.0445
v 0.07707626 -9.026875E-20 -0.04450001
v -7.450581E-09 -9.026875E-20 -0.08900001
v -0.07806923 0.02084679 -0.00999999
v -0.07914653 0.04346431 -0.00999999
v -0.1458846 0.06 -0.00999999
v -0.1268359 0.07099777 -0.00999999
v -0.1458846 0.14 -0.00999999
v -0.08540778 0.1749163 -0.00999999
v -0.08540778 0.1749163 0.01000001
v -0.1458846 0.14 0.01000002
v -0.1458846 0.06 0.01000002
v -0.1268359 0.07099777 0.01000001
v -0.07914653 0.04346431 0.01000001
v -0.07806923 0.02084679 0.01000001
v 7.450595E-09 0.02 0.07176797
v 0.06215288 0.02 0.03588397
v 0.06215288 0.02 -0.03588399
v -7.450579E-09 0.02 -0.07176797
v 0.06755748 0.2 0.03900433
v 7.450595E-09 0.2 0.07800866
v 0.06755748 0.2 -0.03900434
v -7.450581E-09 0.2 -0.07800866
v 1.490118E-08 0.2 0.1
v 0.08660255 0.2 0.05
v 0.08660254 0.2 -0.05000002
v -1.490116E-08 0.2 -0.1
v -0.08660254 0.2 0.05000002
v -0.08660255 0.2 -0.05

vn 0.5000001 -0.8660254 -5.960464E-08
vn 0.9995496 0.03001202 -1.192093E-07
vn 0 -1 0
vn -1.192093E-07 0 -1
vn 1.192093E-07 0 1
vn 0 1 0
vn -0.4997749 0.03001202 -0.8656353
vn -0.4997747 0.03001202 0.8656354
vn 1 0 -1.192093E-07
vn 0.9988676 -0.04757745 -1.192093E-07
vn 0.4997749 0.03001202 0.8656353
vn -0.5000001 0.8660254 5.960464E-08
vn -0.9988676 -0.04757745 1.192093E-07
vn -1 0 1.192093E-07
vn -0.9995496 0.03001202 1.192093E-07
vn 0.5000001 0.8660254 -5.960464E-08
vn -0.499434 -0.04757746 -0.8650447
vn -0.5000001 -0.8660254 5.960464E-08
vn 0.4994338 -0.04757746 -0.8650448
vn 0.4997747 0.03001202 -0.8656354
vn 0.499434 -0.04757746 0.8650447
vn -0.4994338 -0.04757746 0.8650448

vt 0 0

usemtl _defaultMat

f 3/1/1 2/1/1 1/1/1
f 2/1/1 3/1/1 4/1/1
f 7/1/2 6/1/2 5/1/2
f 6/1/2 7/1/2 8/1/2
f 11/1/3 10/1/3 9/1/3
f 10/1/3 11/1/3 12/1/3
f 10/1/3 12/1/3 13/1/3
f 13/1/3 12/1/3 14/1/3
f 17/1/4 16/1/4 15/1/4
f 16/1/4 17/1/4 18/1/4
f 18/1/4 17/1/4 3/1/4
f 19/1/4 3/1/4 17/1/4
f 20/1/4 3/1/4 19/1/4
f 3/1/4 20/1/4 4/1/4
f 21/1/5 1/1/5 2/1/5
f 1/1/5 21/1/5 22/1/5
f 1/1/5 22/1/5 23/1/5
f 23/1/5 24/1/5 1/1/5
f 23/1/5 25/1/5 24/1/5
f 25/1/5 23/1/5 26/1/5
f 28/1/6 6/1/6 27/1/6
f 6/1/6 28/1/6 5/1/6
f 5/1/6 28/1/6 29/1/6
f 5/1/6 29/1/6 30/1/6
f 28/1/7 32/1/7 31/1/7
f 32/1/7 28/1/7 27/1/7
f 34/1/8 29/1/8 33/1/8
f 29/1/8 34/1/8 30/1/8
f 3/1/9 24/1/9 18/1/9
f 24/1/9 3/1/9 1/1/9
f 36/1/6 32/1/6 35/1/6
f 32/1/6 36/1/6 31/1/6
f 31/1/6 36/1/6 37/1/6
f 31/1/6 37/1/6 33/1/6
f 33/1/6 37/1/6 34/1/6
f 34/1/6 37/1/6 38/1/6
f 32/1/6 39/1/6 35/1/6
f 39/1/6 32/1/6 8/1/6
f 39/1/6 8/1/6 40/1/6
f 40/1/6 34/1/6 38/1/6
f 40/1/6 8/1/6 7/1/6
f 40/1/6 7/1/6 34/1/6
f 37/1/10 10/1/10 13/1/10
f 10/1/10 37/1/10 36/1/10
f 34/1/11 5/1/11 30/1/11
f 5/1/11 34/1/11 7/1/11
f 21/1/12 19/1/12 22/1/12
f 19/1/12 21/1/12 20/1/12
f 11/1/13 26/1/13 12/1/13
f 26/1/13 11/1/13 39/1/13
f 12/1/13 26/1/13 15/1/13
f 26/1/13 39/1/13 25/1/13
f 25/1/13 39/1/13 2/1/13
f 25/1/13 2/1/13 4/1/13
f 2/1/13 39/1/13 21/1/13
f 15/1/13 40/1/13 12/1/13
f 40/1/13 25/1/13 4/1/13
f 40/1/13 21/1/13 39/1/13
f 40/1/13 15/1/13 16/1/13
f 40/1/13 16/1/13 25/1/13
f 40/1/13 4/1/13 20/1/13
f 40/1/13 20/1/13 21/1/13
f 23/1/14 19/1/14 17/1/14
f 19/1/14 23/1/14 22/1/14
f 31/1/15 29/1/15 28/1/15
f 29/1/15 31/1/15 33/1/15
f 25/1/16 18/1/16 24/1/16
f 18/1/16 25/1/16 16/1/16
f 12/1/17 38/1/17 14/1/17
f 38/1/17 12/1/17 40/1/17
f 17/1/18 26/1/18 23/1/18
f 26/1/18 17/1/18 15/1/18
f 13/1/19 38/1/19 37/1/19
f 38/1/19 13/1/19 14/1/19
f 6/1/20 32/1/20 27/1/20
f 32/1/20 6/1/20 8/1/20
f 35/1/21 10/1/21 36/1/21
f 10/1/21 35/1/21 9/1/21
f 39/1/22 9/1/22 35/1/22
f 9/1/22 39/1/22 11/1/22

