# Created by Kenney (www.kenney.nl)

mtllib cupTea.mtl

g cupTea

v -0.1028386 0.14 4.981189E-14
v -0.05141932 0.14 -0.08906087
v -0.09358315 0.11 4.764615E-14
v -0.04679158 0.11 -0.08104539
v -0.0624375 0.14 0.1081449
v -0.05625 0.06 0.09742786
v -0.124875 0.14 5.558718E-14
v -0.1155388 0.117864 0.01024
v -0.122294 0.1233148 5.558718E-14
v -0.1108283 0.0874123 0.01024
v -0.1125 0.06 5.269953E-14
v -0.1175835 0.09286309 5.414336E-14
v -0.0624375 0.14 -0.1081449
v -0.1155388 0.117864 -0.01024
v -0.1108283 0.0874123 -0.01024
v -0.05625 0.06 -0.09742786
v -0.045 0 0.07794229
v -0.09619041 0.03227326 0.01024
v -0.1013551 0.03028036 5.05338E-14
v -0.08890748 0.01285214 0.01024
v -0.09 0 4.692424E-14
v -0.09407222 0.01085924 4.836806E-14
v 0.09358315 0.11 -1.443823E-15
v 0.04679158 0.11 -0.08104539
v 0.1028386 0.14 -3.609557E-15
v 0.05141932 0.14 -0.08906087
v -0.04679158 0.11 0.08104539
v 0.04679158 0.11 0.08104539
v -0.05141932 0.14 0.08906087
v 0.05141932 0.14 0.08906087
v -0.09619041 0.03227326 -0.01024
v -0.08890748 0.01285214 -0.01024
v -0.045 0 -0.07794229
v 0.045 0 -0.07794229
v 0.05625 0.06 -0.09742786
v 0.0624375 0.14 0.1081449
v 0.124875 0.14 -9.384848E-15
v 0.0624375 0.14 -0.1081449
v 0.045 0 0.07794229
v 0.05625 0.06 0.09742786
v 0.09 0 0
v 0.1125 0.06 -6.497203E-15
v -0.1556998 0.01523888 -0.01024
v -0.1283858 0.01985009 -0.01024
v -0.1793086 0.03428876 -0.01024
v -0.1426754 0.03138029 -0.01024
v -0.1662841 0.05043017 -0.01024
v -0.1950478 0.04698869 -0.01024
v -0.1709404 0.05418728 -0.01024
v -0.1777916 0.1005802 -0.01024
v -0.1604958 0.08662429 -0.01024
v -0.1309986 0.1036877 -0.01024
v -0.1290571 0.1287719 -0.01024
v -0.1263423 0.09993058 -0.01024
v -0.132091 -0.003811009 -0.01024
v -0.1777916 0.1005802 0.01024
v -0.1290571 0.1287719 0.01024
v -0.1950478 0.04698869 0.01024
v -0.1793086 0.03428876 0.01024
v -0.1556998 0.01523888 0.01024
v -0.132091 -0.003811009 0.01024
v -0.1283858 0.01985009 0.01024
v -0.1263423 0.09993058 0.01024
v -0.1309986 0.1036877 0.01024
v -0.1426754 0.03138029 0.01024
v -0.1662841 0.05043017 0.01024
v -0.1709404 0.05418728 0.01024
v -0.1604958 0.08662429 0.01024

vn 0.8366764 0.258128 0.4830554
vn -0.8583576 -0.1327772 0.4955729
vn -0.8583576 -0.1327772 -0.4955729
vn -0.8236778 -0.3088792 0.4755506
vn -0.8366764 0.258128 0.4830554
vn 0 0.258128 0.9661107
vn 0 0.258128 -0.9661107
vn -0.8236778 -0.3088792 -0.4755506
vn 0 -0.3088792 -0.9511013
vn 0 1 0
vn 0 -0.3088792 0.9511013
vn 0.8236778 -0.3088792 -0.4755506
vn 0.8236778 -0.3088792 0.4755506
vn 0 -0.1327772 0.9911459
vn 0.8583576 -0.1327772 0.4955729
vn 0 0 -1
vn -0.5007295 0.8656038 0
vn 0.6279631 0.7782431 0
vn -0.9518715 0.3064975 0
vn -0.6279631 -0.7782431 0
vn 0.3599968 -0.9329535 0
vn 0 0 1
vn 0 -0.1327772 -0.9911459
vn -0.3599968 0.9329535 0
vn 0.5007295 -0.8656038 0
vn 0.9518715 -0.3064975 0
vn -0.8366764 0.258128 -0.4830554
vn 0.8583576 -0.1327772 -0.4955729
vn 0.8366764 0.258128 -0.4830554
vn 0 -1 0

vt 0 0
vt 3.684376 5.684342E-14
vt 1.842188 -3.190763
vt 1.842188 3.190763
vt -3.684376 -1.875833E-12
vt -1.842188 3.190763
vt -1.842188 -3.190763

usemtl _defaultMat

f 3/1/1 2/1/1 1/1/1
f 2/1/1 3/1/1 4/1/1
f 7/1/2 6/1/2 5/1/2
f 6/1/2 7/1/2 8/1/2
f 8/1/2 7/1/2 9/1/2
f 10/1/2 6/1/2 8/1/2
f 6/1/2 10/1/2 11/1/2
f 11/1/2 10/1/2 12/1/2
f 13/1/3 9/1/3 7/1/3
f 9/1/3 13/1/3 14/1/3
f 14/1/3 13/1/3 15/1/3
f 15/1/3 13/1/3 16/1/3
f 11/1/3 15/1/3 16/1/3
f 15/1/3 11/1/3 12/1/3
f 11/1/4 17/1/4 6/1/4
f 17/1/4 11/1/4 18/1/4
f 18/1/4 11/1/4 19/1/4
f 20/1/4 17/1/4 18/1/4
f 17/1/4 20/1/4 21/1/4
f 21/1/4 20/1/4 22/1/4
f 25/1/5 24/1/5 23/1/5
f 24/1/5 25/1/5 26/1/5
f 26/1/6 4/1/6 24/1/6
f 4/1/6 26/1/6 2/1/6
f 29/1/7 28/1/7 27/1/7
f 28/1/7 29/1/7 30/1/7
f 16/1/8 19/1/8 11/1/8
f 19/1/8 16/1/8 31/1/8
f 31/1/8 16/1/8 32/1/8
f 32/1/8 16/1/8 33/1/8
f 21/1/8 32/1/8 33/1/8
f 32/1/8 21/1/8 22/1/8
f 16/1/9 34/1/9 33/1/9
f 34/1/9 16/1/9 35/1/9
f 5/1/10 1/1/10 7/1/10
f 1/1/10 5/1/10 29/1/10
f 29/1/10 5/1/10 36/1/10
f 29/1/10 36/1/10 30/1/10
f 30/1/10 36/1/10 25/1/10
f 25/1/10 36/1/10 37/1/10
f 1/1/10 13/1/10 7/1/10
f 13/1/10 1/1/10 2/1/10
f 13/1/10 2/1/10 38/1/10
f 38/1/10 25/1/10 37/1/10
f 38/1/10 2/1/10 26/1/10
f 38/1/10 26/1/10 25/1/10
f 40/1/11 17/1/11 39/1/11
f 17/1/11 40/1/11 6/1/11
f 34/1/12 42/1/12 41/1/12
f 42/1/12 34/1/12 35/1/12
f 39/1/13 42/1/13 40/1/13
f 42/1/13 39/1/13 41/1/13
f 36/4/14 6/3/14 40/2/14
f 6/4/14 36/3/14 5/2/14
f 40/4/15 37/3/15 36/2/15
f 37/4/15 40/3/15 42/2/15
f 45/4/16 44/3/16 43/2/16
f 44/4/16 45/3/16 46/2/16
f 46/4/16 45/3/16 47/2/16
f 47/4/16 45/3/16 48/2/16
f 47/4/16 48/3/16 49/2/16
f 49/4/16 48/3/16 50/2/16
f 49/4/16 50/3/16 51/2/16
f 51/4/16 50/3/16 52/2/16
f 52/4/16 50/3/16 53/2/16
f 52/4/16 53/3/16 14/2/16
f 54/4/16 14/3/16 15/2/16
f 14/4/16 54/3/16 52/2/16
f 43/4/16 32/3/16 55/2/16
f 32/4/16 43/3/16 44/2/16
f 32/4/16 44/3/16 31/2/16
f 56/4/17 53/3/17 50/2/17
f 53/4/17 56/3/17 57/2/17
f 8/4/18 9/3/18 57/2/18
f 57/4/18 14/3/18 53/2/18
f 14/4/18 57/3/18 9/2/18
f 56/4/19 48/3/19 58/2/19
f 48/4/19 56/3/19 50/2/19
f 45/4/20 58/3/20 48/2/20
f 58/4/20 45/3/20 59/2/20
f 59/4/20 45/3/20 43/2/20
f 59/4/20 43/3/20 60/2/20
f 60/4/20 43/3/20 55/2/20
f 60/4/20 55/3/20 61/2/20
f 32/4/21 61/3/21 55/2/21
f 61/4/21 32/3/21 22/2/21
f 20/4/21 61/3/21 22/2/21
f 20/4/22 60/3/22 61/2/22
f 60/4/22 20/3/22 62/2/22
f 62/4/22 20/3/22 18/2/22
f 8/4/22 63/3/22 10/2/22
f 63/4/22 8/3/22 64/2/22
f 62/4/22 59/3/22 60/2/22
f 59/4/22 62/3/22 65/2/22
f 59/4/22 65/3/22 66/2/22
f 59/4/22 66/3/22 58/2/22
f 58/4/22 66/3/22 67/2/22
f 58/4/22 67/3/22 56/2/22
f 56/4/22 67/3/22 68/2/22
f 56/4/22 68/3/22 64/2/22
f 56/4/22 64/3/22 57/2/22
f 57/4/22 64/3/22 8/2/22
f 13/4/23 35/3/23 16/2/23
f 35/4/23 13/3/23 38/2/23
f 18/4/24 19/3/24 62/2/24
f 62/4/24 31/3/24 44/2/24
f 31/4/24 62/3/24 19/2/24
f 67/4/18 47/3/18 49/2/18
f 47/4/18 67/3/18 66/2/18
f 47/4/18 66/3/18 46/2/18
f 46/4/18 66/3/18 65/2/18
f 52/4/25 68/3/25 51/2/25
f 68/4/25 52/3/25 64/2/25
f 54/4/20 64/3/20 52/2/20
f 64/4/20 54/3/20 63/2/20
f 63/4/20 54/3/20 15/2/20
f 63/4/20 15/3/20 12/2/20
f 10/4/20 63/3/20 12/2/20
f 49/4/26 68/3/26 67/2/26
f 68/4/26 49/3/26 51/2/26
f 25/4/27 28/3/27 30/2/27
f 28/4/27 25/3/27 23/2/27
f 65/4/18 44/3/18 46/2/18
f 44/4/18 65/3/18 62/2/18
f 35/4/28 37/3/28 42/2/28
f 37/4/28 35/3/28 38/2/28
f 27/4/29 1/3/29 29/2/29
f 1/4/29 27/3/29 3/2/29
f 33/4/30 17/3/30 21/2/30
f 17/4/30 33/3/30 34/2/30
f 17/4/30 34/3/30 39/2/30
f 39/4/30 34/3/30 41/2/30

usemtl brownDarkest

f 27/7/10 4/6/10 3/5/10
f 4/6/10 27/7/10 24/4/10
f 24/4/10 27/7/10 28/3/10
f 24/4/10 28/3/10 23/2/10

