# Created by Kenney (www.kenney.nl)

mtllib cupThea.mtl

g cupThea

v -0.1268359 0.1290022 -0.01
v -0.1268359 0.1290022 0.01
v -0.08438813 0.1535094 -0.01
v -0.08438813 0.1535094 0.01
v -0.07707626 8.014827E-32 -0.0445
v -0.07707626 8.014827E-32 0.0445
v 0 8.014827E-32 -0.089
v 0 8.014827E-32 0.089
v 0.07707626 8.014827E-32 -0.0445
v 0.07707626 8.014827E-32 0.0445
v -0.07806922 0.02084679 -0.01
v -0.07914653 0.04346431 -0.01
v -0.1458846 0.06 -0.01
v -0.1268359 0.07099777 -0.01
v -0.1458846 0.14 -0.01
v -0.08540777 0.1749163 -0.01
v -0.07806922 0.02084679 0.01
v -0.1458846 0.06 0.01
v -0.07914653 0.04346431 0.01
v -0.1268359 0.07099777 0.01
v -0.1458846 0.14 0.01
v -0.08540777 0.1749163 0.01
v -3.609557E-16 0.17 0.07696854
v 0.0666567 0.17 0.03848427
v -7.219114E-16 0.2 0.07800865
v 0.06755748 0.2 0.03900433
v 0.06755748 0.2 -0.03900433
v 0.0666567 0.17 -0.03848427
v -7.219114E-16 0.17 -0.07696854
v -0.0666567 0.17 -0.03848427
v -2.887646E-15 0.2 -0.07800865
v -0.06755748 0.2 -0.03900433
v -0.08660254 0.2 0.05
v -0.06755748 0.2 0.03900433
v -7.219114E-16 0.2 0.1
v 0.08660254 0.2 0.05
v 0.08660254 0.2 -0.05
v -0.08660254 0.2 -0.05
v -3.609557E-16 0.2 -0.1
v -0.0666567 0.17 0.03848427
v -0.04894887 0.17 0.02826064
v -0.04894887 0.17 -0.02826064
v -3.609557E-16 0.17 0.05652128
v 0.04894887 0.17 0.02826064
v 0.04894887 0.17 -0.02826064
v -7.219114E-16 0.17 -0.05652128

vn 0.5 -0.8660254 0
vn 0 -1 0
vn 0 0 -1
vn 0 0 1
vn -0.5 -0.8660254 0
vn -0.5 0.8660254 0
vn -1 0 0
vn -0.4997748 0.03001202 -0.8656352
vn -0.9995494 0.03001202 0
vn 0.4997748 0.03001202 0.8656352
vn 0.5 0.8660254 0
vn 1 0 0
vn 0 1 0
vn 0.9988675 -0.04757745 0
vn -0.4994338 -0.04757746 -0.8650447
vn -0.4994338 -0.04757746 0.8650447
vn -0.9988675 -0.04757745 0
vn 0.4994338 -0.04757746 -0.8650447
vn 0.4994338 -0.04757746 0.8650447
vn -0.4997748 0.03001202 0.8656352
vn 0.9995494 0.03001202 0
vn 0.4997748 0.03001202 -0.8656352

vt 0 0
vt -2.62428 1.515129
vt -1.927121 -1.112624
vt -2.62428 -1.515129
vt -1.421085E-14 -3.030257
vt -1.927121 1.112624
vt -1.421085E-14 -2.225247
vt 2.62428 -1.515129
vt 1.927121 -1.112624
vt 1.927121 1.112624
vt -2.842171E-14 3.030257
vt -2.842171E-14 2.225247
vt 2.62428 1.515129

usemtl _defaultMat

f 3/1/1 2/1/1 1/1/1
f 2/1/1 3/1/1 4/1/1
f 7/1/2 6/1/2 5/1/2
f 6/1/2 7/1/2 8/1/2
f 8/1/2 7/1/2 9/1/2
f 8/1/2 9/1/2 10/1/2
f 13/1/3 12/1/3 11/1/3
f 12/1/3 13/1/3 14/1/3
f 14/1/3 13/1/3 15/1/3
f 14/1/3 15/1/3 1/1/3
f 1/1/3 15/1/3 3/1/3
f 3/1/3 15/1/3 16/1/3
f 19/1/4 18/1/4 17/1/4
f 18/1/4 19/1/4 20/1/4
f 18/1/4 20/1/4 21/1/4
f 21/1/4 20/1/4 2/1/4
f 21/1/4 2/1/4 4/1/4
f 21/1/4 4/1/4 22/1/4
f 11/1/5 18/1/5 13/1/5
f 18/1/5 11/1/5 17/1/5
f 21/1/6 16/1/6 15/1/6
f 16/1/6 21/1/6 22/1/6
f 21/1/7 13/1/7 18/1/7
f 13/1/7 21/1/7 15/1/7
f 25/1/8 24/1/8 23/1/8
f 24/1/8 25/1/8 26/1/8
f 27/1/9 24/1/9 26/1/9
f 24/1/9 27/1/9 28/1/9
f 31/1/10 30/1/10 29/1/10
f 30/1/10 31/1/10 32/1/10
f 20/1/11 12/1/11 14/1/11
f 12/1/11 20/1/11 19/1/11
f 14/1/12 2/1/12 20/1/12
f 2/1/12 14/1/12 1/1/12
f 35/1/13 34/1/13 33/1/13
f 34/1/13 35/1/13 25/1/13
f 25/1/13 35/1/13 36/1/13
f 25/1/13 36/1/13 26/1/13
f 26/1/13 36/1/13 27/1/13
f 27/1/13 36/1/13 37/1/13
f 32/1/13 33/1/13 34/1/13
f 32/1/13 38/1/13 33/1/13
f 38/1/13 32/1/13 39/1/13
f 39/1/13 27/1/13 37/1/13
f 39/1/13 32/1/13 31/1/13
f 39/1/13 31/1/13 27/1/13
f 10/1/14 37/1/14 36/1/14
f 37/1/14 10/1/14 9/1/14
f 38/1/15 7/1/15 5/1/15
f 7/1/15 38/1/15 39/1/15
f 35/1/16 6/1/16 8/1/16
f 6/1/16 35/1/16 33/1/16
f 4/1/17 12/1/17 19/1/17
f 12/1/17 4/1/17 3/1/17
f 17/1/17 4/1/17 19/1/17
f 17/1/17 22/1/17 4/1/17
f 6/1/17 22/1/17 17/1/17
f 33/1/17 22/1/17 6/1/17
f 22/1/17 33/1/17 38/1/17
f 22/1/17 38/1/17 16/1/17
f 16/1/17 38/1/17 3/1/17
f 3/1/17 38/1/17 5/1/17
f 17/1/17 5/1/17 6/1/17
f 5/1/17 12/1/17 3/1/17
f 5/1/17 17/1/17 11/1/17
f 5/1/17 11/1/17 12/1/17
f 39/1/18 9/1/18 7/1/18
f 9/1/18 39/1/18 37/1/18
f 36/1/19 8/1/19 10/1/19
f 8/1/19 36/1/19 35/1/19
f 27/1/20 29/1/20 28/1/20
f 29/1/20 27/1/20 31/1/20
f 40/1/21 32/1/21 34/1/21
f 32/1/21 40/1/21 30/1/21
f 34/1/22 23/1/22 40/1/22
f 23/1/22 34/1/22 25/1/22

usemtl brown

f 40/4/13 41/3/13 30/2/13
f 41/3/13 40/4/13 23/5/13
f 30/2/13 41/3/13 42/6/13
f 41/3/13 23/5/13 43/7/13
f 43/7/13 23/5/13 24/8/13
f 43/7/13 24/8/13 44/9/13
f 44/9/13 24/8/13 45/10/13
f 42/6/13 29/11/13 30/2/13
f 29/11/13 42/6/13 46/12/13
f 29/11/13 46/12/13 45/10/13
f 29/11/13 45/10/13 28/13/13
f 28/13/13 45/10/13 24/8/13

usemtl brownDark

f 41/3/13 46/12/13 42/6/13
f 46/12/13 41/3/13 43/7/13
f 46/12/13 43/7/13 45/10/13
f 45/10/13 43/7/13 44/9/13

g label

v -0.0195225 0.1007219 -0.103414
v -0.06758329 0.1137556 -0.07373809
v -0.07979786 0.1007219 -0.06861395
v -0.07458314 0.1821366 -0.05958178
v -0.0635408 0.1768687 -0.06673629
v -0.05437617 0.1869663 -0.07053386
v -0.05837011 0.2 -0.0663
v -0.02823243 0.2 -0.0837
v -0.03006742 0.1137556 -0.09539789
v -0.01430777 0.1821366 -0.09438177
v -0.02602492 0.1768687 -0.08839609
v -0.03389603 0.1869663 -0.08235807

vn -0.4959472 0.1270646 -0.8590058

vt -2.740157 3.552714E-15
vt -0.5173307 0.5173307
vt 1.421085E-14 3.231496
vt -0.5173307 3.022407
vt -0.9045586 3.423197
vt -0.6850393 3.940528
vt -2.055118 3.940528
vt -2.222827 0.5173307
vt -2.740157 3.231496
vt -2.222827 3.022407
vt -1.835599 3.423197

usemtl green

f 49/1/23 48/15/23 47/14/23
f 48/15/23 49/1/23 50/16/23
f 48/15/23 50/16/23 51/17/23
f 51/17/23 50/16/23 52/18/23
f 52/18/23 50/16/23 53/19/23
f 52/18/23 53/19/23 54/20/23
f 55/21/23 47/14/23 48/15/23
f 47/14/23 55/21/23 56/22/23
f 56/22/23 55/21/23 57/23/23
f 56/22/23 57/23/23 58/24/23
f 56/22/23 58/24/23 54/20/23
f 54/20/23 58/24/23 52/18/23

usemtl brown

f 51/17/23 55/21/23 48/15/23
f 55/21/23 51/17/23 57/23/23
f 57/23/23 51/17/23 58/24/23
f 58/24/23 51/17/23 52/18/23

