# Created by Kenney (www.kenney.nl)

mtllib cuttingBoardJapanese.mtl

g cuttingBoardJapanese

v -0.245 0.04 -0.2273733
v -0.22295 0.04 -0.34
v -0.245 0.04 -0.42
v 0.04005728 0.04 -0.42
v -0.225 0.04 -0.2023733
v 0.06505729 0.04 -0.4
v 0.22295 0.04 -0.34
v 0.09005728 0.04 -0.42
v 0.1300573 0.04 -0.42
v 0.1550573 0.04 -0.4
v 0.1800573 0.04 -0.42
v 0.245 0.04 -0.42
v 0.22295 0.04 -0.27
v 0.225 0.04 0.2004961
v 0.22295 0.04 0.27
v 0.22295 0.04 0.34
v 0.245 0.04 0.1754961
v -0.22295 0.04 0.34
v -0.245 0.04 0.42
v -0.245 0.04 -0.1773733
v -0.1144448 0.04 0.42
v -0.08944478 0.04 0.4
v -0.06444478 0.04 0.42
v 0.245 0.04 0.42
v 0.245 0.04 0.225496
v -0.22295 0.04 0.27
v -0.22295 0.04 -0.27
v -0.22295 0 -0.27
v -0.22295 0 -0.34
v 0.22295 0 -0.27
v 0.22295 0 -0.34
v 0.245 0.08 0.42
v 0.245 0.08 0.225496
v -0.1144448 0.08 0.42
v -0.245 0.08 0.42
v -0.245 0.08 -0.2273733
v -0.245 0.08 -0.42
v 0.1800573 0.08 -0.42
v 0.245 0.08 -0.42
v -0.22295 0 0.27
v -0.22295 0 0.34
v 0.22295 0 0.27
v 0.22295 0 0.34
v -0.245 0.08 -0.1773733
v -0.225 0.08 -0.2023733
v 0.04005728 0.08 -0.42
v -0.08944478 0.08 0.4
v -0.06444478 0.08 0.42
v 0.06505729 0.08 -0.4
v 0.09005728 0.08 -0.42
v 0.1300573 0.08 -0.42
v 0.1550573 0.08 -0.4
v 0.225 0.08 0.2004961
v 0.245 0.08 0.1754961

vn 0 -1 0
vn -1 0 0
vn 0 0 1
vn 0 0 -1
vn 1 0 0
vn 0 1 0
vn 0.6246951 0 -0.7808689
vn -0.6246951 0 -0.7808689
vn -0.7808689 0 -0.6246951
vn -0.7808689 0 0.6246951
vn -0.6246951 0 0.7808689
vn 0.6246951 0 0.7808689
vn 0.7808689 0 0.6246951
vn 0.7808689 0 -0.6246951

vt 9.645669 8.951706
vt 8.777559 13.38583
vt 9.645669 16.53543
vt -1.577058 16.53543
vt 8.858268 7.967454
vt -2.561311 15.74803
vt -8.777559 13.38583
vt -3.545563 16.53543
vt -5.120366 16.53543
vt -6.104618 15.74803
vt -7.08887 16.53543
vt -9.645669 16.53543
vt -8.777559 10.62992
vt -8.858268 -7.893546
vt -8.777559 -10.62992
vt -8.777559 -13.38583
vt -9.645669 -6.909294
vt 8.777559 -13.38583
vt 9.645669 -16.53543
vt 9.645669 6.983202
vt 4.5057 -16.53543
vt 3.521448 -15.74803
vt 2.537196 -16.53543
vt -9.645669 -16.53543
vt -9.645669 -8.877797
vt 8.777559 -10.62992
vt 8.777559 10.62992
vt -10.62992 1.574803
vt -10.62992 0
vt -13.38583 1.574803
vt -13.38583 0
vt 8.777559 0
vt -8.777559 0
vt 8.777559 1.574803
vt -8.777559 1.574803
vt 10.62992 0
vt 10.62992 1.574803
vt 13.38583 0
vt 13.38583 1.574803
vt -16.53543 1.574803
vt -16.53543 3.149606
vt -8.877797 1.574803
vt -8.877797 3.149606
vt -4.5057 1.574803
vt -9.645669 1.574803
vt -4.5057 3.149606
vt -9.645669 3.149606
vt -8.951706 3.149606
vt -8.951706 1.574803
vt -7.08887 1.574803
vt -9.64567 1.574803
vt -7.08887 3.149606
vt -9.64567 3.149606
vt -9.645669 6.983202
vt -4.5057 -16.53543
vt -8.858268 7.967454
vt 1.577058 16.53543
vt -9.645669 8.951706
vt -3.521448 -15.74803
vt -2.537196 -16.53543
vt 2.561311 15.74803
vt 3.545563 16.53543
vt 5.120366 16.53543
vt 6.104618 15.74803
vt 8.858268 -7.893546
vt 7.08887 16.53543
vt 9.645669 -8.877797
vt 9.645669 -6.909294
vt 6.33127 1.574803
vt 5.070812 1.574803
vt 6.33127 3.149606
vt 5.070812 3.149606
vt -14.60462 1.574803
vt -15.86508 1.574803
vt -14.60462 3.149606
vt -15.86508 3.149606
vt -3.545563 1.574803
vt -5.120366 1.574803
vt -3.545563 3.149606
vt -5.120366 3.149606
vt 9.098127 1.574803
vt 7.83767 1.574803
vt 9.098127 3.149606
vt 7.83767 3.149606
vt -11.83776 1.574803
vt -13.09822 1.574803
vt -11.83776 3.149606
vt -13.09822 3.149606
vt 9.645669 1.574803
vt -1.577058 1.574803
vt 9.645669 3.149606
vt -1.577058 3.149606
vt 0.5726371 3.149606
vt 0.5726371 1.574803
vt -0.6878204 3.149606
vt -0.6878204 1.574803
vt -11.75525 3.149606
vt -11.75525 1.574803
vt -13.01571 3.149606
vt -13.01571 1.574803
vt 16.53543 3.149606
vt 16.53543 1.574803
vt -6.983202 3.149606
vt -6.983202 1.574803
vt 8.348386 1.574803
vt 7.087928 1.574803
vt 8.348386 3.149606
vt 7.087928 3.149606
vt -12.58751 1.574803
vt -13.84796 1.574803
vt -12.58751 3.149606
vt -13.84796 3.149606
vt -2.537196 1.574803
vt -2.537196 3.149606
vt -0.6301073 1.574803
vt -0.6301073 3.149606
vt 0.6303503 1.574803
vt 0.6303503 3.149606
vt -12.958 1.574803
vt -12.958 3.149606
vt -11.69754 1.574803
vt -11.69754 3.149606
vt -6.909294 1.574803
vt -6.909294 3.149606

usemtl brownLight

f 3/3/1 2/2/1 1/1/1
f 2/2/1 3/3/1 4/4/1
f 1/1/1 2/2/1 5/5/1
f 2/2/1 4/4/1 6/6/1
f 2/2/1 6/6/1 7/7/1
f 7/7/1 6/6/1 8/8/1
f 7/7/1 8/8/1 9/9/1
f 7/7/1 9/9/1 10/10/1
f 7/7/1 10/10/1 11/11/1
f 7/7/1 11/11/1 12/12/1
f 7/7/1 12/12/1 13/13/1
f 13/13/1 12/12/1 14/14/1
f 13/13/1 14/14/1 15/15/1
f 15/15/1 14/14/1 16/16/1
f 14/14/1 12/12/1 17/17/1
f 18/18/1 5/5/1 2/2/1
f 19/19/1 5/5/1 18/18/1
f 5/5/1 19/19/1 20/20/1
f 19/19/1 18/18/1 21/21/1
f 21/21/1 18/18/1 22/22/1
f 22/22/1 18/18/1 16/16/1
f 22/22/1 16/16/1 23/23/1
f 23/23/1 16/16/1 24/24/1
f 24/24/1 16/16/1 14/14/1
f 24/24/1 14/14/1 25/25/1
f 26/26/1 13/13/1 15/15/1
f 18/18/1 27/27/1 26/26/1
f 13/13/1 26/26/1 27/27/1
f 18/18/1 2/2/1 27/27/1
f 2/30/2 28/29/2 27/28/2
f 28/29/2 2/30/2 29/31/2
f 13/34/3 28/33/3 30/32/3
f 28/33/3 13/34/3 27/35/3
f 2/34/4 31/33/4 29/32/4
f 31/33/4 2/34/4 7/35/4
f 31/38/5 13/37/5 30/36/5
f 13/37/5 31/38/5 7/39/5
f 31/7/1 28/27/1 29/2/1
f 28/27/1 31/7/1 30/13/1
f 25/42/5 32/41/5 24/40/5
f 32/41/5 25/42/5 33/43/5
f 34/46/3 19/45/3 21/44/3
f 19/45/3 34/46/3 35/47/3
f 37/41/2 1/49/2 36/48/2
f 1/49/2 37/41/2 3/40/2
f 38/52/4 12/51/4 11/50/4
f 12/51/4 38/52/4 39/53/4
f 42/15/1 41/18/1 40/26/1
f 41/18/1 42/15/1 43/16/1
f 42/29/5 16/30/5 43/31/5
f 16/30/5 42/29/5 15/28/5
f 16/34/3 41/33/3 43/32/3
f 41/33/3 16/34/3 18/35/3
f 26/37/2 41/38/2 18/39/2
f 41/38/2 26/37/2 40/36/2
f 26/34/4 42/33/4 40/32/4
f 42/33/4 26/34/4 15/35/4
f 34/55/6 44/54/6 35/24/6
f 44/54/6 34/55/6 45/56/6
f 46/57/6 45/56/6 34/55/6
f 46/57/6 36/58/6 45/56/6
f 36/58/6 46/57/6 37/12/6
f 46/57/6 34/55/6 47/59/6
f 46/57/6 47/59/6 48/60/6
f 46/57/6 48/60/6 32/19/6
f 46/57/6 32/19/6 49/61/6
f 49/61/6 32/19/6 50/62/6
f 50/62/6 32/19/6 51/63/6
f 51/63/6 32/19/6 52/64/6
f 52/64/6 32/19/6 53/65/6
f 52/64/6 53/65/6 38/66/6
f 53/65/6 32/19/6 33/67/6
f 53/65/6 39/3/6 38/66/6
f 39/3/6 53/65/6 54/68/6
f 51/71/7 10/70/7 9/69/7
f 10/70/7 51/71/7 52/72/7
f 52/75/8 11/74/8 10/73/8
f 11/74/8 52/75/8 38/76/8
f 50/79/4 9/78/4 8/77/4
f 9/78/4 50/79/4 51/80/4
f 46/83/7 6/82/7 4/81/7
f 6/82/7 46/83/7 49/84/7
f 49/87/8 8/86/8 6/85/8
f 8/86/8 49/87/8 50/88/8
f 37/91/4 4/90/4 3/89/4
f 4/90/4 37/91/4 46/92/4
f 45/95/9 20/94/9 44/93/9
f 20/94/9 45/95/9 5/96/9
f 36/99/10 5/98/10 45/97/10
f 5/98/10 36/99/10 1/100/10
f 44/103/2 19/102/2 35/101/2
f 19/102/2 44/103/2 20/104/2
f 48/107/11 22/106/11 23/105/11
f 22/106/11 48/107/11 47/108/11
f 47/111/12 21/110/12 22/109/12
f 21/110/12 47/111/12 34/112/12
f 32/91/3 23/113/3 24/89/3
f 23/113/3 32/91/3 48/114/3
f 17/117/13 53/116/13 14/115/13
f 53/116/13 17/117/13 54/118/13
f 14/121/14 33/120/14 25/119/14
f 33/120/14 14/121/14 53/122/14
f 12/102/5 54/124/5 17/123/5
f 54/124/5 12/102/5 39/101/5

