# Created by Kenney (www.kenney.nl)

mtllib egg.mtl

g egg

v -0.0408764 0 -0.0236
v -0.0408764 0 0.0236
v 0 0 -0.0472
v 0 0 0.0472
v 0.0408764 0 -0.0236
v 0.0408764 0 0.0236
v 0 0.0354 -0.067024
v 0.05804449 0.0354 -0.033512
v 0.05804449 0.0354 0.033512
v 0.05804449 0.1062 0.033512
v 0.05804449 0.1062 -0.033512
v 0 0.1062 -0.067024
v 0 0.0354 0.067024
v -0.05804449 0.0354 0.033512
v 0 0.1062 0.067024
v -0.05804449 0.1062 0.033512
v -0.05804449 0.1062 -0.033512
v -0.05804449 0.0354 -0.033512
v -0.02902224 0.1652 0.016756
v -0.02902224 0.1652 -0.016756
v 0 0.1652 -0.033512
v 0 0.1652 0.033512
v 0.02902224 0.1652 0.016756
v 0.02902224 0.1652 -0.016756

vn 0 -1 0
vn 0.4498848 -0.4363651 -0.7792234
vn 1 0 0
vn 0.5 0 -0.8660254
vn -0.4498848 -0.4363651 0.7792234
vn 0.5 0 0.8660254
vn 0.8997696 -0.4363651 0
vn -1 0 0
vn -0.5 0 -0.8660254
vn -0.8973147 0.4413913 0
vn -0.4486574 0.4413913 -0.7770974
vn -0.8997696 -0.4363651 0
vn 0.4498848 -0.4363651 0.7792234
vn 0 1 0
vn -0.5 0 0.8660254
vn 0.4486574 0.4413913 -0.7770974
vn 0.8973147 0.4413913 0
vn -0.4486574 0.4413913 0.7770974
vn 0.4486574 0.4413913 0.7770974
vn -0.4498848 -0.4363651 -0.7792234

vt 1.609307 0.9291338
vt 1.609307 -0.9291338
vt 0 1.858268
vt 0 -1.858268
vt -1.609307 0.9291338
vt -1.609307 -0.9291338
vt 0.9291338 0.7022455
vt -0.9291338 0.7022455
vt 1.31937 2.251198
vt -1.31937 2.251198
vt -1.31937 1.393701
vt -1.31937 4.181102
vt 1.31937 1.393701
vt 1.31937 4.181102
vt 1.31937 2.74309
vt -1.31937 2.74309
vt 0.659685 5.331741
vt -0.659685 5.331741
vt -1.142608 -0.659685
vt -1.142608 0.659685
vt 0 -1.31937
vt 0 1.31937
vt 1.142608 -0.659685
vt 1.142608 0.659685

usemtl brownLight

f 3/3/1 2/2/1 1/1/1
f 2/2/1 3/3/1 4/4/1
f 4/4/1 3/3/1 5/5/1
f 4/4/1 5/5/1 6/6/1
f 7/9/2 5/8/2 3/7/2
f 5/8/2 7/9/2 8/10/2
f 8/13/3 10/12/3 9/11/3
f 10/12/3 8/13/3 11/14/3
f 12/14/4 8/11/4 7/13/4
f 8/11/4 12/14/4 11/12/4
f 13/9/5 2/8/5 4/7/5
f 2/8/5 13/9/5 14/10/5
f 10/14/6 13/11/6 9/13/6
f 13/11/6 10/14/6 15/12/6
f 6/8/7 8/9/7 9/10/7
f 8/9/7 6/8/7 5/7/7
f 17/12/8 14/13/8 16/14/8
f 14/13/8 17/12/8 18/11/8
f 17/14/9 7/11/9 18/13/9
f 7/11/9 17/14/9 12/12/9
f 19/17/10 17/16/10 16/15/10
f 17/16/10 19/17/10 20/18/10
f 20/17/11 12/16/11 17/15/11
f 12/16/11 20/17/11 21/18/11
f 18/10/12 2/7/12 14/9/12
f 2/7/12 18/10/12 1/8/12
f 9/9/13 4/8/13 6/7/13
f 4/8/13 9/9/13 13/10/13
f 22/21/14 20/20/14 19/19/14
f 20/20/14 22/21/14 21/22/14
f 21/22/14 22/21/14 23/23/14
f 21/22/14 23/23/14 24/24/14
f 15/14/15 14/11/15 13/13/15
f 14/11/15 15/14/15 16/12/15
f 21/17/16 11/16/16 12/15/16
f 11/16/16 21/17/16 24/18/16
f 11/15/17 23/18/17 10/16/17
f 23/18/17 11/15/17 24/17/17
f 22/17/18 16/16/18 15/15/18
f 16/16/18 22/17/18 19/18/18
f 23/17/19 15/16/19 10/15/19
f 15/16/19 23/17/19 22/18/19
f 18/9/20 3/8/20 1/7/20
f 3/8/20 18/9/20 7/10/20

