# Created by Kenney (www.kenney.nl)

mtllib eggHalf.mtl

g eggHalf

v -0.05804449 0.0826 0.033512
v -0.05804449 0.0826 1.082867E-15
v -0.02902224 0.0826 0.050268
v -0.05804449 0.0826 -0.033512
v -0.02902224 0.0826 -0.050268
v -0.02406049 0.0826 0.01389133
v 0 0.0826 0.067024
v 0 0.0826 0.02778265
v 0.02902224 0.0826 0.050268
v 0.02406049 0.0826 0.01389133
v 0.02406049 0.0826 -0.01389133
v -0.02406049 0.0826 -0.01389133
v 0 0.0826 -0.067024
v 0 0.0826 -0.02778265
v 0.02902224 0.0826 -0.050268
v 0.05804449 0.0826 0.033512
v 0.05804449 0.0826 -0.033512
v 0.05804449 0.0826 1.082867E-15
v -0.05804449 0.0354 0.033512
v -0.0408764 0 0.0236
v -0.05804449 0.0354 -0.033512
v -0.0408764 0 -0.0236
v 0.05804449 0.0354 0.033512
v 0.05804449 0.0354 -0.033512
v 0.05804449 0.1062 0.033512
v 0.05804449 0.1062 -0.033512
v -3.609557E-16 0 -0.0472
v -3.609557E-16 0 0.0472
v 0.0408764 0 -0.0236
v 0.0408764 0 0.0236
v 0 0.0354 -0.067024
v 0 0.0354 0.067024
v 0 0.1062 -0.067024
v -0.05804449 0.1062 -0.033512
v 0 0.1062 0.067024
v -0.05804449 0.1062 0.033512

vn 0 1 0
vn -0.8997696 -0.4363651 0
vn 1 0 0
vn 0 -1 0
vn 0.4498848 -0.4363651 -0.7792234
vn 0.4498848 -0.4363651 0.7792234
vn -0.5 0 -0.8660254
vn 0.5 0 0.8660254
vn -0.4498848 -0.4363651 -0.7792234
vn -0.4498848 -0.4363651 0.7792234
vn -1 0 0
vn -0.5 0 0.8660254
vn 0.8997696 -0.4363651 0
vn 0.5 0 -0.8660254

vt 0 0
vt 1.31937 2.251198
vt 0.9291338 0.7022455
vt -1.31937 2.251198
vt -0.9291338 0.7022455
vt -1.31937 1.393701
vt -1.31937 3.251969
vt 1.31937 1.393701
vt -4.263256E-14 3.251969
vt 1.31937 3.251969
vt -1.31937 4.181102
vt 1.31937 4.181102
vt 1.609307 0.9291338
vt 1.609307 -0.9291338
vt 1.421085E-14 1.858268
vt 1.421085E-14 -1.858268
vt -1.609307 0.9291338
vt -1.609307 -0.9291338
vt -2.4869E-14 3.251969
vt -3.58602E-14 3.251969
vt 4.218847E-15 3.251969
vt 1.310063E-14 3.251969
vt 4.626312E-14 3.251969
vt -1.809664E-14 3.251969
vt -1.887379E-14 3.251969
vt 2.4869E-14 3.251969
vt 1.820766E-14 3.251969
vt 4.868349E-14 3.251969
vt -0.9472632 -0.5469027
vt -0.9472632 0.5469027
vt 0 -1.093805
vt 0 1.093805
vt 0.9472632 -0.5469027
vt 0.9472632 0.5469027

usemtl _defaultMat

f 3/1/1 2/1/1 1/1/1
f 2/1/1 3/1/1 4/1/1
f 4/1/1 3/1/1 5/1/1
f 5/1/1 3/1/1 6/1/1
f 6/1/1 3/1/1 7/1/1
f 6/1/1 7/1/1 8/1/1
f 8/1/1 7/1/1 9/1/1
f 8/1/1 9/1/1 10/1/1
f 10/1/1 9/1/1 11/1/1
f 12/1/1 5/1/1 6/1/1
f 5/1/1 12/1/1 13/1/1
f 13/1/1 12/1/1 14/1/1
f 13/1/1 14/1/1 11/1/1
f 13/1/1 11/1/1 15/1/1
f 15/1/1 11/1/1 9/1/1
f 15/1/1 9/1/1 16/1/1
f 15/1/1 16/1/1 17/1/1
f 17/1/1 16/1/1 18/1/1

usemtl brownLight

f 21/4/2 20/3/2 19/2/2
f 20/3/2 21/4/2 22/5/2
f 24/8/3 16/7/3 23/6/3
f 16/7/3 24/8/3 18/9/3
f 18/9/3 24/8/3 17/10/3
f 18/9/3 25/11/3 16/7/3
f 26/12/3 18/9/3 17/10/3
f 27/15/4 20/14/4 22/13/4
f 20/14/4 27/15/4 28/16/4
f 28/16/4 27/15/4 29/17/4
f 28/16/4 29/17/4 30/18/4
f 31/2/5 29/5/5 27/3/5
f 29/5/5 31/2/5 24/4/5
f 23/2/6 28/5/6 30/3/6
f 28/5/6 23/2/6 32/4/6
f 4/10/7 31/6/7 21/8/7
f 31/6/7 4/10/7 13/7/7
f 13/7/7 4/10/7 5/19/7
f 33/11/7 13/7/7 5/20/7
f 34/12/7 5/20/7 4/10/7
f 16/10/8 32/6/8 23/8/8
f 32/6/8 16/10/8 7/7/8
f 7/7/8 16/10/8 9/21/8
f 25/12/8 9/22/8 16/10/8
f 35/11/8 7/7/8 9/22/8
f 21/2/9 27/5/9 22/3/9
f 27/5/9 21/2/9 31/4/9
f 32/2/10 20/5/10 28/3/10
f 20/5/10 32/2/10 19/4/10
f 2/23/11 19/8/11 1/10/11
f 19/8/11 2/23/11 21/6/11
f 21/6/11 2/23/11 4/7/11
f 2/23/11 1/10/11 36/12/11
f 4/7/11 2/23/11 34/11/11
f 7/10/12 19/6/12 32/8/12
f 19/6/12 7/10/12 1/7/12
f 1/7/12 7/10/12 3/24/12
f 35/12/12 3/25/12 7/10/12
f 36/11/12 1/7/12 3/25/12
f 16/7/11 25/11/11 18/9/11
f 17/10/11 18/9/11 26/12/11
f 30/5/13 24/2/13 23/4/13
f 24/2/13 30/5/13 29/3/13
f 13/10/14 24/6/14 31/8/14
f 24/6/14 13/10/14 17/7/14
f 17/7/14 13/10/14 15/26/14
f 26/11/14 17/7/14 15/27/14
f 33/12/14 15/27/14 13/10/14
f 16/10/7 9/22/7 25/12/7
f 9/22/7 7/7/7 35/11/7
f 5/20/8 13/7/8 33/11/8
f 4/10/8 5/20/8 34/12/8
f 7/10/14 3/25/14 35/12/14
f 3/25/14 1/7/14 36/11/14
f 36/12/3 1/10/3 2/28/3
f 34/11/3 2/28/3 4/7/3
f 15/27/12 17/7/12 26/11/12
f 13/10/12 15/27/12 33/12/12

usemtl yellow

f 8/31/1 12/30/1 6/29/1
f 12/30/1 8/31/1 14/32/1
f 14/32/1 8/31/1 10/33/1
f 14/32/1 10/33/1 11/34/1

