# Created by Kenney (www.kenney.nl)

mtllib frappe.mtl

g frappe

v 0.08072817 0.2814473 0.08072817
v 0.1141669 0.2814473 1.804779E-16
v 0.07880184 0.244466 0.07880184
v 0.1114426 0.244466 1.804779E-16
v 5.414336E-16 0.244466 0.1114426
v -0.07880184 0.244466 0.07880184
v 5.414336E-16 0.2814473 0.1141669
v -0.08072817 0.2814473 0.08072817
v 1.263345E-15 0.244466 -0.1114426
v 1.263345E-15 0.2814473 -0.1141669
v -0.07892662 0.2468613 -0.07892662
v -0.08072817 0.2814473 -0.08072817
v -0.1141669 0.2814473 1.804779E-16
v -0.1114426 0.244466 1.804779E-16
v 0.07880184 0.244466 -0.07880184
v 0.08072817 0.2814473 -0.08072817
v 1.804779E-16 0 0.0765
v -0.05409367 0 0.05409367
v 1.804779E-16 0.034 0.08261999
v -0.05842116 0.034 0.05842116
v -0.1270344 0.3069473 1.804779E-16
v -0.1141669 0.3069473 1.804779E-16
v -0.08982689 0.3069473 -0.08982689
v -0.08072817 0.3069473 -0.08072817
v 1.624301E-15 0.3069473 -0.1270344
v 1.263345E-15 0.3069473 -0.1141669
v 0.08982689 0.3069473 -0.08982689
v 0.08072817 0.3069473 -0.08072817
v 0.1141669 0.3069473 1.804779E-16
v 0.1270344 0.3069473 1.804779E-16
v -0.08982689 0.3069473 0.08982689
v -0.08072817 0.3069473 0.08072817
v 5.414336E-16 0.3069473 0.1270344
v 5.414336E-16 0.3069473 0.1141669
v 0.08072817 0.3069473 0.08072817
v 0.08982689 0.3069473 0.08982689
v -0.08533555 0.3324473 0.08533555
v -0.1206827 0.3324473 1.804779E-16
v -0.08533555 0.3324473 -0.08533555
v 1.624301E-15 0.3324473 -0.1206827
v 0.08533555 0.3324473 0.08533555
v 0.1206827 0.3324473 1.804779E-16
v 1.804779E-16 0 -0.0765
v 0.05409367 0 -0.05409367
v 1.804779E-16 0.034 -0.08261999
v 0.05842116 0.034 -0.05842116
v 0.08533555 0.3324473 -0.08533555
v 5.414336E-16 0.3324473 0.1206827
v -0.05409367 0 -0.05409367
v -0.05842116 0.034 -0.05842116
v -0.08261999 0.034 -1.804779E-16
v -0.0765 0 -1.804779E-16
v 0.0765 0 -1.804779E-16
v 0.08261999 0.034 -1.804779E-16
v 0.05842116 0.034 0.05842116
v 0.05409367 0 0.05409367
v -0.09593855 0.034 -1.804779E-16
v -0.0678388 0.034 -0.0678388
v 5.414336E-16 0.034 -0.09593855
v 0.0678388 0.034 -0.0678388
v 0.09593855 0.034 -1.804779E-16
v -0.0678388 0.034 0.0678388
v 1.804779E-16 0.034 0.09593855
v 0.0678388 0.034 0.0678388
v 0.02512337 0.4224473 0.02512337
v 0.03552981 0.4224473 -1.804779E-16
v 0.0262079 0.4219266 0.0262079
v 0.03706357 0.4219266 -1.804779E-16
v 0.03424227 0.4163234 0.03424227
v 0.04842588 0.4163234 -1.804779E-16
v 0.04169074 0.4092849 0.04169074
v 0.05895961 0.4092849 -1.804779E-16
v 0.04842588 0.4009318 0.04842588
v 0.06848454 0.4009318 1.804779E-16
v 0.05433244 0.3914069 0.05433244
v 0.07683767 0.3914069 1.804779E-16
v 0.05930935 0.3808731 0.05930935
v 0.08387609 0.3808731 1.804779E-16
v 0.06327146 0.3695108 0.06327146
v 0.08947936 0.3695108 1.804779E-16
v 0.06615099 0.3575144 0.06615099
v 0.09355161 0.3575144 1.804779E-16
v 0.06789864 0.345089 0.06789864
v 0.09602318 0.345089 -1.804779E-16
v 0.06848454 0.3324473 0.06848454
v 0.09685176 0.3324473 1.804779E-16
v 0.0262079 0.4219266 -0.0262079
v 0.03424227 0.4163234 -0.03424227
v 0.04169074 0.4092849 -0.04169074
v 0.04842588 0.4009318 -0.04842588
v 0.05433244 0.3914069 -0.05433244
v 0.05930935 0.3808731 -0.05930935
v 0.06327146 0.3695108 -0.06327146
v 0.06615099 0.3575144 -0.06615099
v 0.06789864 0.345089 -0.06789864
v 0.06848454 0.3324473 -0.06848454
v 1.263345E-15 0.4224473 -0.03552981
v 1.263345E-15 0.4219266 -0.03706357
v 0.02512337 0.4224473 -0.02512337
v 1.624301E-15 0.4163234 -0.04842588
v 1.624301E-15 0.4092849 -0.05895961
v 1.263345E-15 0.4009318 -0.06848454
v 1.624301E-15 0.3914069 -0.07683767
v 1.263345E-15 0.3808731 -0.08387609
v 1.985256E-15 0.3695108 -0.08947936
v 1.624301E-15 0.3575144 -0.09355161
v 1.624301E-15 0.345089 -0.09602318
v 1.624301E-15 0.3324473 -0.09685176
v -0.0262079 0.4219266 -0.0262079
v -0.02512337 0.4224473 -0.02512337
v -0.03424227 0.4163234 -0.03424227
v -0.04169074 0.4092849 -0.04169074
v -0.04842588 0.4009318 -0.04842588
v -0.05433244 0.3914069 -0.05433244
v -0.05930935 0.3808731 -0.05930935
v -0.06327146 0.3695108 -0.06327146
v -0.06615099 0.3575144 -0.06615099
v -0.06789864 0.345089 -0.06789864
v -0.06848454 0.3324473 -0.06848454
v -0.04842588 0.4163234 1.804779E-16
v -0.03706357 0.4219266 1.804779E-16
v -0.03552981 0.4224473 1.804779E-16
v -0.05895961 0.4092849 1.804779E-16
v -0.06848454 0.4009318 1.804779E-16
v -0.07683767 0.3914069 1.804779E-16
v -0.08387609 0.3808731 1.804779E-16
v -0.08947936 0.3695108 1.804779E-16
v -0.09355161 0.3575144 1.804779E-16
v -0.09602318 0.345089 1.804779E-16
v -0.09685176 0.3324473 1.804779E-16
v -0.03424227 0.4163234 0.03424227
v -0.0262079 0.4219266 0.0262079
v -0.04169074 0.4092849 0.04169074
v -0.04842588 0.4009318 0.04842588
v -0.05433244 0.3914069 0.05433244
v -0.05930935 0.3808731 0.05930935
v -0.06327146 0.3695108 0.06327146
v -0.06615099 0.3575144 0.06615099
v -0.06789864 0.345089 0.06789864
v -0.06848454 0.3324473 0.06848454
v 5.414336E-16 0.4163234 0.04842588
v 1.804779E-16 0.4219266 0.03706357
v 5.414336E-16 0.4092849 0.05895961
v 1.804779E-16 0.4009318 0.06848454
v 1.804779E-16 0.3914069 0.07683767
v 5.414336E-16 0.3808731 0.08387609
v 1.804779E-16 0.3695108 0.08947936
v 1.804779E-16 0.3575144 0.09355161
v 5.414336E-16 0.345089 0.09602318
v 5.414336E-16 0.3324473 0.09685176
v 1.804779E-16 0.4224473 0.03552981
v -0.02512337 0.4224473 0.02512337

vn 0.9217473 -0.06790096 0.3818003
vn -0.3818003 -0.06790096 0.9217473
vn -0.3818003 -0.06790096 -0.9217473
vn 0.3818003 -0.06790096 0.9217473
vn -0.9217473 -0.06790096 -0.3818003
vn -0.9217473 -0.06790096 0.3818003
vn 0.9217473 -0.06790096 -0.3818003
vn 0.3818003 -0.06790096 -0.9217473
vn -0.3774992 -0.1640454 0.9113636
vn 0 -1 0
vn -0.9003468 0.2242647 0.3729359
vn -0.3729359 0.2242647 -0.9003468
vn -0.9003468 0.2242647 -0.3729359
vn 0.9003468 0.2242647 0.3729359
vn 0.3774992 -0.1640454 -0.9113636
vn 0.3729359 0.2242647 -0.9003468
vn 0.9003468 0.2242647 -0.3729359
vn -0.3729359 0.2242647 0.9003468
vn -0.3774992 -0.1640454 -0.9113636
vn 0.3729359 0.2242647 0.9003468
vn -0.9113636 -0.1640454 0.3774992
vn 0.9113636 -0.1640454 -0.3774992
vn 0.9113636 -0.1640454 0.3774992
vn -0.9113636 -0.1640454 -0.3774992
vn -0.3826834 0 -0.9238795
vn 0.3826834 0 -0.9238795
vn -0.9238795 0 0.3826834
vn 0.3826834 0 0.9238795
vn 0.9238795 0 0.3826834
vn 0.3774992 -0.1640454 0.9113636
vn 0.9238795 0 -0.3826834
vn -0.3826834 0 0.9238795
vn -0.9238795 0 -0.3826834
vn 0.3186277 0.9386467 0.1319799
vn 0.3911713 0.9059425 0.1620285
vn 0.5008447 0.8403073 0.2074567
vn 0.5993798 0.7609895 0.2482713
vn 0.6855603 0.67035 0.2839684
vn 0.7586784 0.5706583 0.3142549
vn 0.818415 0.4639793 0.3389986
vn 0.864709 0.3521218 0.3581742
vn 0.897639 0.2366398 0.3718143
vn 0.917329 0.1188714 0.3799701
vn 0.9221904 0.06044355 0.3819837
vn 0.3911713 0.9059425 -0.1620285
vn 0.5008447 0.8403073 -0.2074567
vn 0.5993798 0.7609895 -0.2482713
vn 0.6855603 0.67035 -0.2839684
vn 0.7586784 0.5706583 -0.3142549
vn 0.818415 0.4639793 -0.3389986
vn 0.864709 0.3521218 -0.3581742
vn 0.897639 0.2366398 -0.3718143
vn 0.917329 0.1188714 -0.3799701
vn 0.9221904 0.06044355 -0.3819837
vn 0.1319799 0.9386467 -0.3186277
vn 0.1620285 0.9059425 -0.3911713
vn 0.2074567 0.8403073 -0.5008447
vn 0.2482713 0.7609895 -0.5993798
vn 0.2839684 0.67035 -0.6855603
vn 0.3142549 0.5706583 -0.7586784
vn 0.3389986 0.4639794 -0.818415
vn 0.3581742 0.3521218 -0.864709
vn 0.3718143 0.2366398 -0.897639
vn 0.3799701 0.1188714 -0.917329
vn 0.3819837 0.06044355 -0.9221904
vn -0.1620285 0.9059425 -0.3911713
vn -0.1319799 0.9386467 -0.3186277
vn -0.2074567 0.8403073 -0.5008447
vn -0.2482713 0.7609895 -0.5993798
vn -0.2839684 0.67035 -0.6855603
vn -0.3142549 0.5706583 -0.7586784
vn -0.3389986 0.4639794 -0.818415
vn -0.3581742 0.3521218 -0.864709
vn -0.3718143 0.2366398 -0.897639
vn -0.3799701 0.1188714 -0.917329
vn -0.3819837 0.06044355 -0.9221904
vn -0.5008447 0.8403073 -0.2074567
vn -0.3911713 0.9059425 -0.1620285
vn -0.3186277 0.9386467 -0.1319799
vn -0.5993798 0.7609895 -0.2482713
vn -0.6855603 0.67035 -0.2839684
vn -0.7586784 0.5706583 -0.3142549
vn -0.818415 0.4639793 -0.3389986
vn -0.864709 0.3521218 -0.3581742
vn -0.897639 0.2366398 -0.3718143
vn -0.917329 0.1188714 -0.3799701
vn -0.9221904 0.06044355 -0.3819837
vn -0.5008447 0.8403073 0.2074567
vn -0.3911713 0.9059425 0.1620285
vn -0.5993798 0.7609895 0.2482713
vn -0.6855603 0.67035 0.2839684
vn -0.7586784 0.5706583 0.3142549
vn -0.818415 0.4639793 0.3389986
vn -0.864709 0.3521218 0.3581742
vn -0.897639 0.2366398 0.3718143
vn -0.917329 0.1188714 0.3799701
vn -0.9221904 0.06044355 0.3819837
vn -0.2074567 0.8403073 0.5008447
vn -0.1620285 0.9059425 0.3911713
vn -0.2482713 0.7609895 0.5993798
vn -0.2839684 0.67035 0.6855603
vn -0.3142549 0.5706583 0.7586784
vn -0.3389986 0.4639794 0.818415
vn -0.3581742 0.3521218 0.864709
vn -0.3718143 0.2366398 0.897639
vn -0.3799701 0.1188714 0.917329
vn -0.3819837 0.06044355 0.9221904
vn 0 1 0
vn 0.1620285 0.9059425 0.3911713
vn 0.2074567 0.8403073 0.5008447
vn 0.2482713 0.7609895 0.5993798
vn 0.3799701 0.1188714 0.917329
vn 0.3718143 0.2366398 0.897639
vn 0.3819837 0.06044355 0.9221904
vn 0.3389986 0.4639794 0.818415
vn 0.3142549 0.5706583 0.7586784
vn 0.3581742 0.3521218 0.864709
vn 0.1319799 0.9386467 0.3186277
vn 0.2839684 0.67035 0.6855603
vn -0.3186277 0.9386467 0.1319799
vn -0.1319799 0.9386467 0.3186277
vn 0.3186277 0.9386467 -0.1319799

vt -1.72007 11.33699
vt 1.72007 11.33699
vt -1.679026 9.877671
vt 1.679026 9.877671
vt 1.681684 9.972193
vt -1.681684 9.972193
vt -1.445437 1.57244
vt 1.445437 1.57244

usemtl brownDark

f 3/3/1 2/2/1 1/1/1
f 2/2/1 3/3/1 4/4/1
f 7/2/2 6/3/2 5/4/2
f 6/3/2 7/2/2 8/1/2
f 11/5/3 10/1/3 9/3/3
f 10/1/3 11/5/3 12/2/3
f 1/2/4 5/3/4 3/4/4
f 5/3/4 1/2/4 7/1/4
f 12/1/5 14/4/5 13/2/5
f 14/4/5 12/1/5 11/6/5
f 13/1/6 6/4/6 8/2/6
f 6/4/6 13/1/6 14/3/6
f 15/4/7 2/1/7 4/3/7
f 2/1/7 15/4/7 16/2/7
f 10/2/8 15/3/8 9/4/8
f 15/3/8 10/2/8 16/1/8

usemtl _defaultMat

f 19/3/9 18/2/9 17/1/9
f 18/3/9 19/2/9 20/1/9
f 23/4/10 22/1/10 21/6/10
f 22/4/10 23/1/10 24/6/10
f 24/4/10 23/1/10 25/6/10
f 24/4/10 25/1/10 26/6/10
f 28/4/10 25/1/10 27/6/10
f 26/4/10 25/1/10 28/6/10
f 28/4/10 27/1/10 29/6/10
f 29/4/10 27/1/10 30/6/10
f 22/4/10 31/1/10 21/6/10
f 31/4/10 22/1/10 32/6/10
f 31/4/10 32/1/10 33/6/10
f 33/4/10 32/1/10 34/6/10
f 33/4/10 34/1/10 35/6/10
f 33/4/10 35/1/10 36/6/10
f 36/4/10 35/1/10 29/6/10
f 36/4/10 29/1/10 30/6/10
f 37/4/11 21/1/11 31/3/11
f 21/4/11 37/1/11 38/3/11
f 39/4/12 25/1/12 23/3/12
f 25/4/12 39/1/12 40/3/12
f 39/4/13 21/1/13 38/3/13
f 21/4/13 39/1/13 23/3/13
f 30/4/14 41/1/14 36/3/14
f 41/4/14 30/1/14 42/3/14
f 45/4/15 44/1/15 43/3/15
f 44/4/15 45/1/15 46/3/15
f 40/4/16 27/1/16 25/3/16
f 27/4/16 40/1/16 47/3/16
f 27/4/17 42/1/17 30/3/17
f 42/4/17 27/1/17 47/3/17
f 48/4/18 31/1/18 33/3/18
f 31/4/18 48/1/18 37/3/18
f 50/4/19 43/1/19 49/3/19
f 43/4/19 50/1/19 45/3/19
f 41/4/20 33/1/20 36/3/20
f 33/4/20 41/1/20 48/3/20
f 51/4/21 18/1/21 20/3/21
f 18/4/21 51/1/21 52/3/21
f 44/4/22 54/1/22 53/3/22
f 54/4/22 44/1/22 46/3/22
f 56/4/23 54/1/23 55/3/23
f 54/4/23 56/1/23 53/3/23
f 50/4/24 52/1/24 51/3/24
f 52/4/24 50/1/24 49/3/24
f 24/4/25 10/1/25 12/3/25
f 10/4/25 24/1/25 26/3/25
f 26/4/26 16/1/26 10/3/26
f 16/4/26 26/1/26 28/3/26
f 22/4/27 8/1/27 32/3/27
f 8/4/27 22/1/27 13/3/27
f 35/4/28 7/1/28 1/3/28
f 7/4/28 35/1/28 34/3/28
f 2/4/29 35/1/29 1/3/29
f 35/4/29 2/1/29 29/3/29
f 55/4/30 17/1/30 56/3/30
f 17/4/30 55/1/30 19/3/30
f 16/4/31 29/1/31 2/3/31
f 29/4/31 16/1/31 28/3/31
f 34/4/32 8/1/32 7/3/32
f 8/4/32 34/1/32 32/3/32
f 24/4/33 13/1/33 22/3/33
f 13/4/33 24/1/33 12/3/33
f 58/4/10 51/1/10 57/3/10
f 51/4/10 58/1/10 50/3/10
f 50/4/10 58/1/10 59/3/10
f 50/4/10 59/1/10 45/3/10
f 45/4/10 59/1/10 46/3/10
f 46/4/10 59/1/10 60/3/10
f 46/4/10 60/1/10 54/3/10
f 54/4/10 60/1/10 61/3/10
f 51/4/10 62/1/10 57/3/10
f 62/4/10 51/1/10 20/3/10
f 62/4/10 20/1/10 63/3/10
f 63/4/10 20/1/10 19/3/10
f 63/4/10 19/1/10 55/3/10
f 63/4/10 55/1/10 64/3/10
f 64/4/10 55/1/10 54/3/10
f 64/4/10 54/1/10 61/3/10
f 49/4/10 18/1/10 52/3/10
f 18/4/10 49/1/10 43/3/10
f 18/4/10 43/1/10 17/3/10
f 17/4/10 43/1/10 44/3/10
f 17/4/10 44/1/10 56/3/10
f 56/4/10 44/1/10 53/3/10
f 67/3/35 66/2/34 65/1/34
f 66/3/34 67/2/35 68/1/35
f 69/3/36 68/2/35 67/1/35
f 68/3/35 69/2/36 70/1/36
f 71/3/37 70/2/36 69/1/36
f 70/3/36 71/2/37 72/1/37
f 73/3/38 72/2/37 71/1/37
f 72/3/37 73/2/38 74/1/38
f 76/3/39 73/2/38 75/1/39
f 73/3/38 76/2/39 74/1/38
f 78/3/40 75/2/39 77/1/40
f 75/3/39 78/2/40 76/1/39
f 80/3/41 77/2/40 79/1/41
f 77/3/40 80/2/41 78/1/40
f 82/3/42 79/2/41 81/1/42
f 79/3/41 82/2/42 80/1/41
f 84/3/43 81/2/42 83/1/43
f 81/3/42 84/2/43 82/1/42
f 86/3/44 83/2/43 85/1/44
f 83/3/43 86/2/44 84/1/43
f 68/3/45 88/2/46 87/1/45
f 88/3/46 68/2/45 70/1/46
f 70/3/46 89/2/47 88/1/46
f 89/3/47 70/2/46 72/1/47
f 72/3/47 90/2/48 89/1/47
f 90/3/48 72/2/47 74/1/48
f 91/3/49 74/2/48 76/1/49
f 74/3/48 91/2/49 90/1/48
f 92/3/50 76/2/49 78/1/50
f 76/3/49 92/2/50 91/1/49
f 93/3/51 78/2/50 80/1/51
f 78/3/50 93/2/51 92/1/50
f 94/3/52 80/2/51 82/1/52
f 80/3/51 94/2/52 93/1/51
f 84/3/53 94/2/52 82/1/52
f 94/3/52 84/2/53 95/1/53
f 96/3/54 84/2/53 86/1/54
f 84/3/53 96/2/54 95/1/53
f 99/3/55 98/2/56 97/1/55
f 98/3/56 99/2/55 87/1/56
f 87/3/56 100/2/57 98/1/56
f 100/3/57 87/2/56 88/1/57
f 88/3/57 101/2/58 100/1/57
f 101/3/58 88/2/57 89/1/58
f 101/3/58 90/2/59 102/1/59
f 90/3/59 101/2/58 89/1/58
f 102/3/59 91/2/60 103/1/60
f 91/3/60 102/2/59 90/1/59
f 103/3/60 92/2/61 104/1/61
f 92/3/61 103/2/60 91/1/60
f 104/3/61 93/2/62 105/1/62
f 93/3/62 104/2/61 92/1/61
f 105/3/62 94/2/63 106/1/63
f 94/3/63 105/2/62 93/1/62
f 106/3/63 95/2/64 107/1/64
f 95/3/64 106/2/63 94/1/63
f 107/3/64 96/2/65 108/1/65
f 96/3/65 107/2/64 95/1/64
f 110/3/67 98/2/66 109/1/66
f 98/3/66 110/2/67 97/1/67
f 109/3/66 100/2/68 111/1/68
f 100/3/68 109/2/66 98/1/66
f 111/3/68 101/2/69 112/1/69
f 101/3/69 111/2/68 100/1/68
f 112/3/69 102/2/70 113/1/70
f 102/3/70 112/2/69 101/1/69
f 113/3/70 103/2/71 114/1/71
f 103/3/71 113/2/70 102/1/70
f 114/3/71 104/2/72 115/1/72
f 104/3/72 114/2/71 103/1/71
f 115/3/72 105/2/73 116/1/73
f 105/3/73 115/2/72 104/1/72
f 116/3/73 106/2/74 117/1/74
f 106/3/74 116/2/73 105/1/73
f 117/3/74 107/2/75 118/1/75
f 107/3/75 117/2/74 106/1/74
f 118/3/75 108/2/76 119/1/76
f 108/3/76 118/2/75 107/1/75
f 121/3/78 111/2/77 120/1/77
f 122/7/79 109/5/78 121/3/78
f 111/3/77 121/2/78 109/1/78
f 120/3/77 112/2/80 123/1/80
f 112/3/80 120/2/77 111/1/77
f 123/3/80 113/2/81 124/1/81
f 113/3/81 123/2/80 112/1/80
f 113/3/81 125/2/82 124/1/81
f 125/3/82 113/2/81 114/1/82
f 114/3/82 126/2/83 125/1/82
f 126/3/83 114/2/82 115/1/83
f 115/3/83 127/2/84 126/1/83
f 127/3/84 115/2/83 116/1/84
f 116/3/84 128/2/85 127/1/84
f 128/3/85 116/2/84 117/1/85
f 117/3/85 129/2/86 128/1/85
f 129/3/86 117/2/85 118/1/86
f 118/3/86 130/2/87 129/1/86
f 130/3/87 118/2/86 119/1/87
f 131/3/88 121/2/89 120/1/88
f 121/3/89 131/2/88 132/1/89
f 133/3/90 120/2/88 123/1/90
f 120/3/88 133/2/90 131/1/88
f 134/3/91 123/2/90 124/1/91
f 123/3/90 134/2/91 133/1/90
f 134/3/91 125/2/92 135/1/92
f 125/3/92 134/2/91 124/1/91
f 135/3/92 126/2/93 136/1/93
f 126/3/93 135/2/92 125/1/92
f 136/3/93 127/2/94 137/1/94
f 127/3/94 136/2/93 126/1/93
f 137/3/94 128/2/95 138/1/95
f 128/3/95 137/2/94 127/1/94
f 138/3/95 129/2/96 139/1/96
f 129/3/96 138/2/95 128/1/95
f 139/3/96 130/2/97 140/1/97
f 130/3/97 139/2/96 129/1/96
f 141/3/98 132/2/99 131/1/98
f 132/3/99 141/2/98 142/1/99
f 143/3/100 131/2/98 133/1/100
f 131/3/98 143/2/100 141/1/98
f 144/3/101 133/2/100 134/1/101
f 133/3/100 144/2/101 143/1/100
f 144/3/101 135/2/102 145/1/102
f 135/3/102 144/2/101 134/1/101
f 145/3/102 136/2/103 146/1/103
f 136/3/103 145/2/102 135/1/102
f 146/3/103 137/2/104 147/1/104
f 137/3/104 146/2/103 136/1/103
f 147/3/104 138/2/105 148/1/105
f 138/3/105 147/2/104 137/1/104
f 148/3/105 139/2/106 149/1/106
f 139/3/106 148/2/105 138/1/105
f 149/3/106 140/2/107 150/1/107
f 140/3/107 149/2/106 139/1/106
f 37/3/108 130/2/108 38/1/108
f 130/3/108 37/2/108 140/1/108
f 140/3/108 37/2/108 48/1/108
f 140/3/108 48/2/108 150/1/108
f 150/3/108 48/2/108 41/1/108
f 150/3/108 41/2/108 85/1/108
f 85/3/108 41/2/108 86/1/108
f 86/3/108 41/2/108 42/1/108
f 130/3/108 39/2/108 38/1/108
f 39/3/108 130/2/108 119/1/108
f 39/3/108 119/2/108 40/1/108
f 40/3/108 119/2/108 108/1/108
f 40/3/108 108/2/108 96/1/108
f 40/3/108 96/2/108 47/1/108
f 47/3/108 96/2/108 86/1/108
f 47/3/108 86/2/108 42/1/108
f 141/3/110 67/2/109 142/1/109
f 67/3/109 141/2/110 69/1/110
f 71/3/111 141/2/110 143/1/111
f 141/3/110 71/2/111 69/1/110
f 81/3/113 149/2/112 83/1/112
f 149/3/112 81/2/113 148/1/113
f 83/3/112 150/2/114 85/1/114
f 150/3/114 83/2/112 149/1/112
f 75/3/116 146/2/115 77/1/115
f 146/3/115 75/2/116 145/1/116
f 77/3/115 147/2/117 79/1/117
f 147/3/117 77/2/115 146/1/115
f 79/3/117 148/2/113 81/1/113
f 148/3/113 79/2/117 147/1/117
f 67/3/109 151/2/118 142/1/109
f 151/3/118 67/2/109 65/1/118
f 73/3/119 143/2/111 144/1/119
f 143/3/111 73/2/119 71/1/111
f 73/3/119 145/2/116 75/1/116
f 145/3/116 73/2/119 144/1/119
f 152/7/108 110/5/108 122/3/108
f 110/7/108 152/5/108 151/3/108
f 110/7/108 151/5/108 97/3/108
f 97/7/108 151/5/108 65/3/108
f 97/7/108 65/5/108 99/3/108
f 99/7/108 65/5/108 66/3/108
f 132/7/89 122/5/120 121/3/89
f 122/7/120 132/5/89 152/3/120
f 142/7/99 152/5/121 132/3/99
f 152/7/121 142/5/99 151/3/121
f 109/7/78 122/5/79 110/3/79
f 66/7/122 87/5/45 99/3/122
f 87/7/45 66/5/122 68/3/45

usemtl brownLight

f 11/6/5 57/8/5 14/4/5
f 57/8/5 11/6/5 58/7/5
f 14/3/6 62/8/6 6/4/6
f 62/8/6 14/3/6 57/7/6
f 5/4/2 62/7/2 63/8/2
f 62/7/2 5/4/2 6/3/2
f 3/4/4 63/7/4 64/8/4
f 63/7/4 3/4/4 5/3/4
f 64/7/1 4/4/1 3/3/1
f 4/4/1 64/7/1 61/8/1
f 61/7/7 15/4/7 4/3/7
f 15/4/7 61/7/7 60/8/7
f 9/4/8 60/7/8 59/8/8
f 60/7/8 9/4/8 15/3/8
f 11/5/3 59/7/3 58/8/3
f 59/7/3 11/5/3 9/3/3

g straw

v -0.005699006 0.399299 -0.005699006
v 0.005699006 0.399299 -0.005699006
v -0.0081 0.499299 -0.0081
v 0.0081 0.499299 -0.0081
v -0.0081 0.499299 0.0081
v -0.005699006 0.399299 0.005699006
v 0.0081 0.499299 0.0081
v 0.005699006 0.399299 0.005699006

vn 0 -0.02400302 -0.9997118
vn 0 0.02400302 0.9997118
vn -0.9997118 -0.02400302 0
vn 0.9997118 0.02400302 0
vn 0 -0.02400302 0.9997118
vn 0 0.02400302 -0.9997118
vn 0.9997118 -0.02400302 0
vn -0.9997118 0.02400302 0

vt 0.2243703 0.005385565
vt -0.2243703 0.005385565
vt 0.3188976 3.943528
vt -0.3188976 3.943528
vt -0.3188976 -0.3188976
vt -0.3188976 0.3188976
vt 0.3188976 -0.3188976
vt 0.3188976 0.3188976

usemtl brownDarkest

f 155/11/123 154/10/123 153/9/123
f 154/10/123 155/11/123 156/12/123
f 153/9/124 154/10/124 155/11/124
f 156/12/124 155/11/124 154/10/124
f 155/12/125 158/9/125 157/11/125
f 158/9/125 155/12/125 153/10/125
f 157/11/126 158/9/126 155/12/126
f 153/10/126 155/12/126 158/9/126
f 159/15/108 155/14/108 157/13/108
f 155/14/108 159/15/108 156/16/108
f 157/13/10 155/14/10 159/15/10
f 156/16/10 159/15/10 155/14/10
f 159/11/127 158/10/127 160/9/127
f 158/10/127 159/11/127 157/12/127
f 160/9/128 158/10/128 159/11/128
f 157/12/128 159/11/128 158/10/128
f 160/10/129 156/11/129 159/12/129
f 156/11/129 160/10/129 154/9/129
f 159/12/130 156/11/130 160/10/130
f 154/9/130 160/10/130 156/11/130

