# Created by Kenney (www.kenney.nl)

mtllib fryingPan.mtl

g fryingPan

v 2.980241E-08 0.056494 0.223248
v -0.1312219 0.056494 0.1806114
v 0.1312219 0.056494 0.1806114
v -0.2123215 0.056494 0.06898746
v 0.2123215 0.056494 0.0689874
v -0.2123215 0.056494 -0.0689874
v 0.2123215 0.056494 -0.06898746
v -0.1312219 0.056494 -0.1806114
v 0.1312219 0.056494 -0.1806114
v -2.980255E-08 0.056494 -0.223248
v -0.1284439 0 0.1767879
v -0.2078266 0 0.067527
v -0.1361505 0.026568 0.1873952
v -0.2202962 0.026568 0.07157859
v -0.2078266 0 -0.06752694
v -0.1284439 0 -0.1767878
v -0.2202962 0.026568 -0.07157853
v -0.1361506 0.026568 -0.1873951
v -2.980255E-08 0 -0.2185218
v -2.980256E-08 0.026568 -0.2316331
v 0.3824072 0.073747 -0.01580006
v 0.3824072 0.105347 -0.01580006
v 0.3009131 0.073747 -0.01580003
v 0.3126358 0.085347 -0.01580003
v 0.3126358 0.105347 -0.01580003
v 0.3824072 0.105347 0.01579994
v 0.3824072 0.073747 0.01579994
v 0.3126358 0.105347 0.01579997
v 0.3126358 0.085347 0.01579997
v 0.3009131 0.073747 0.01579997
v 0.1361506 0.026568 0.1873951
v 0.1284439 0 0.1767878
v 2.980241E-08 0.026568 0.2316331
v 2.980241E-08 0 0.2185218
v 0.3126358 0.085347 -0.1015816
v 0.3126358 0.105347 -0.1015816
v 0.2078266 0 0.06752694
v 0.2202962 0.026568 0.07157853
v 0.1284439 0 -0.1767879
v 0.2078266 0 -0.067527
v 0.1361505 0.026568 -0.1873952
v 0.2202962 0.026568 -0.07157859
v 2.980244E-08 0.026568 0.2662671
v -0.1565078 0.026568 0.2154146
v -0.253235 0.026568 0.08228108
v -0.253235 0.026568 -0.08228102
v -0.1565079 0.026568 -0.2154146
v -2.980258E-08 0.026568 -0.2662671
v 0.1565079 0.026568 0.2154146
v 0.253235 0.026568 0.08228102
v 0.253235 0.026568 -0.08228108
v 0.1565078 0.026568 -0.2154146
v -0.3126358 0.085347 0.1015816
v -0.3126358 0.085347 -0.1015815
v 0.1782076 0.105347 -0.2452818
v 0.1680871 0.068947 -0.2313521
v -2.980261E-08 0.105347 -0.303185
v -2.98026E-08 0.068947 -0.2859668
v 0.1932196 0.085347 -0.2659439
v 0.1932196 0.105347 -0.2659439
v 0.1932196 0.105347 0.2659439
v 0.1932196 0.085347 0.2659439
v 2.980249E-08 0.105347 0.3287247
v 2.980249E-08 0.085347 0.3287247
v 0.3126358 0.085347 0.1015815
v 0.3126358 0.105347 0.1015815
v -2.980262E-08 0.085347 -0.3287247
v -2.980262E-08 0.105347 -0.3287247
v -0.1932196 0.085347 -0.2659439
v -0.1932196 0.105347 -0.2659439
v -0.1932196 0.085347 0.2659439
v -0.3126358 0.105347 0.1015816
v -0.3126358 0.105347 -0.1015815
v -0.2719706 0.068947 0.08836864
v -0.1680871 0.068947 0.2313521
v -0.2883461 0.105347 0.09368935
v -0.1782076 0.105347 0.2452818
v -0.1680871 0.068947 -0.231352
v -0.1782077 0.105347 -0.2452818
v -0.2719706 0.068947 -0.08836856
v -0.2883461 0.105347 -0.09368929
v 0.2719706 0.068947 -0.08836864
v -0.1932196 0.105347 0.2659439
v 2.980245E-08 0.068947 0.2859668
v 0.1782077 0.105347 0.2452818
v 2.980247E-08 0.105347 0.303185
v 0.1680871 0.068947 0.231352
v 0.2883461 0.105347 -0.09368935
v 0.2883461 0.105347 0.09368929
v 0.2719706 0.068947 0.08836856
v 0.4337662 0.1206487 0.03110164
v 0.4337662 0.1206487 -0.03110176
v 0.4337662 0.05844529 0.03110164
v 0.4337662 0.05844529 -0.03110176
v 0.6881662 0.05844529 -0.03110176
v 0.6881662 0.1206487 -0.03110176
v 0.7093662 0.06559868 -0.02394837
v 0.7093662 0.06559868 0.02394825
v 0.7093662 0.1134953 -0.02394837
v 0.7093662 0.1134953 0.02394825
v 0.6881662 0.05844529 0.03110164
v 0.6881662 0.1206487 0.03110164

vn 0 1 0
vn -0.7323638 -0.4248765 0.5320935
vn -0.7323639 -0.4248765 -0.5320934
vn -0.2797382 -0.4248765 -0.8609452
vn -0.9052515 -0.4248765 1.192093E-07
vn -1.192093E-07 0 -1
vn 1.192093E-07 0 1
vn 0.2797382 -0.4248765 0.8609452
vn 1 0 -1.192093E-07
vn 0.7323639 -0.4248765 0.5320934
vn 0.7323638 -0.4248765 -0.5320935
vn 0 -1 0
vn 0.2797379 -0.4248765 -0.8609453
vn -0.2797379 -0.4248765 0.8609453
vn 0.9052515 -0.4248765 -1.192093E-07
vn -0.7033766 -0.7108174 5.960464E-08
vn -0.2818123 0.4102701 0.8673295
vn 0.8090171 0 -0.5877854
vn 0.3090172 0 0.9510566
vn -0.3090172 0 -0.9510566
vn -0.5690436 -0.7108174 0.4134345
vn -1 0 1.192093E-07
vn 0.7377944 0.41027 -0.5360391
vn 0.5690438 -0.7108174 0.4134344
vn 0.3090169 0 -0.9510567
vn 0.2818125 0.4102701 0.8673294
vn 0.7377945 0.41027 0.5360391
vn -0.2173554 -0.7108173 -0.6689509
vn 0.7033766 -0.7108174 -5.960464E-08
vn -0.1852193 0.9808527 0.06018142
vn -0.1144718 0.9808527 0.157557
vn 0.2173554 -0.7108173 0.6689509
vn -0.3090169 0 0.9510567
vn -0.2173553 -0.7108173 0.6689509
vn 0.5690436 -0.7108174 -0.4134345
vn 0.1144718 0.9808527 -0.157557
vn 0.1852193 0.9808527 -0.06018142
vn -2.980232E-08 0.9808527 -0.1947511
vn 0.8090172 0 0.5877852
vn -0.2818125 0.4102701 -0.8673294
vn 0.2818123 0.4102701 -0.8673295
vn 0.2173553 -0.7108173 -0.6689509
vn -0.7377944 0.41027 0.5360391
vn 0.1852193 0.9808527 0.06018139
vn 0.1144719 0.9808527 0.157557
vn 2.980232E-08 0.9808527 0.1947511
vn -0.1144719 0.9808527 -0.157557
vn 0.9119642 0.4102701 -1.192093E-07
vn -0.8090172 0 -0.5877852
vn -0.5690438 -0.7108174 -0.4134344
vn -0.8090171 0 0.5877854
vn -0.7377945 0.41027 -0.5360391
vn -0.1852193 0.9808527 -0.06018139
vn -0.9119642 0.4102701 1.192093E-07
vn -0.2855331 0.9583689 2.980232E-08
vn -0.2855331 -0.9583689 2.980232E-08
vn 0.3197142 -0.9475141 -2.980232E-08
vn -0.285533 0 0.958369
vn 0.319714 0 -0.9475142
vn 0.3197143 0 0.9475142
vn -0.2855332 0 -0.958369
vn 0.3197142 0.9475141 -2.980232E-08

vt -8.789291 -3.36442E-12
vt -7.110686 5.166215
vt -7.110686 -5.166215
vt -2.71604 8.359113
vt -2.71604 -8.359113
vt 2.71604 8.359113
vt 2.71604 -8.359113
vt 7.110686 5.166215
vt 7.110686 -5.166215
vt 8.789291 9.055867E-12
vt 2.658541 3.476402
vt -2.658541 3.476402
vt 2.818054 4.631865
vt -2.818054 4.631865
vt -15.0554 2.903425
vt -15.0554 4.14752
vt -11.84697 2.903425
vt -12.3085 3.360118
vt -12.3085 4.14752
vt 15.0554 4.14752
vt 15.0554 2.903425
vt 12.3085 4.14752
vt 12.3085 3.360118
vt 11.84697 2.903425
vt 3.999273 3.360118
vt 0.6220472 3.360118
vt 3.999273 4.14752
vt 0.6220472 4.14752
vt 10.48295 -4.639844E-12
vt 9.119413 -3.680611E-12
vt 8.480888 6.161726
vt 7.377761 5.360257
vt 3.239411 9.969882
vt 2.818054 8.673078
vt -3.239411 9.969882
vt -2.818054 8.673078
vt -7.377761 5.360257
vt -8.480888 6.161726
vt -9.119413 9.169554E-12
vt -10.48295 1.015721E-11
vt 8.480888 -6.161726
vt 7.377761 -5.360257
vt 3.239411 -9.969882
vt 2.818054 -8.673078
vt -3.239411 -9.969882
vt -2.818054 -8.673078
vt -7.377761 -5.360257
vt -8.480888 -6.161726
vt 8.603221 -3.335998E-12
vt 6.960152 -5.056846
vt 6.960152 5.056846
vt 2.658541 8.182149
vt 2.658541 -8.182149
vt -2.658541 8.182149
vt -2.658541 -8.182149
vt -6.960152 5.056846
vt -6.960152 -5.056846
vt -8.603221 8.800072E-12
vt 3.999273 11.11252
vt 3.239411 7.822486
vt -3.999273 11.11252
vt -3.239411 7.822486
vt 3.688555 8.439859
vt 3.479079 6.868448
vt -3.688555 8.439859
vt -3.479079 6.868448
vt -3.999273 3.360118
vt -3.999273 4.14752
vt -0.6220472 3.360118
vt -0.6220472 4.14752
vt -0.6220472 10.46323
vt 0.6220472 10.46323
vt 0.6220472 11.11252
vt -0.6220472 11.11252
vt 2.71604 8.637235
vt -2.71604 8.637235
vt 3.479079 11.03626
vt -3.479079 11.03626
vt 0.6220472 -11.84697
vt 0.6220472 -15.0554
vt -0.6220472 -11.84697
vt -0.6220472 -15.0554
vt 0.6220472 -12.3085
vt -0.6220472 -12.3085
vt 3.688555 -11.35221
vt -3.688555 -11.35221
vt -3.999273 -12.3085
vt -9.656764 -7.016049
vt -10.47023 -7.607069
vt -11.93642 -5.687895E-12
vt -12.94192 -6.398437E-12
vt 3.999273 -12.3085
vt 9.656764 -7.016049
vt 10.47023 -7.607069
vt 11.93642 1.118039E-11
vt 12.94192 1.189093E-11
vt -10.47023 7.607069
vt -9.656764 7.016049
vt -3.999273 12.3085
vt -3.688555 11.35221
vt 3.999273 12.3085
vt 3.688555 11.35221
vt 9.656764 7.016049
vt 10.47023 7.607069
vt 1.224477 17.72272
vt 0.6220472 15.61288
vt -1.224477 17.72272
vt -0.6220472 15.61288
vt 1.224477 -15.70944
vt -1.224477 -15.70944
vt 0.6220472 -13.5996
vt -0.6220472 -13.5996
vt -27.09315 2.300996
vt -27.09315 4.749949
vt -17.07741 2.300996
vt -17.07741 4.749949
vt 0.942847 2.582625
vt -0.942847 2.582625
vt 0.942847 4.468319
vt -0.942847 4.468319
vt 1.224477 -17.07741
vt 1.224477 -27.09315
vt -1.224477 -17.07741
vt -1.224477 -27.09315
vt -1.224477 26.40681
vt -0.942847 27.28769
vt 1.224477 26.40681
vt 0.942847 27.28769
vt 16.71608 4.749949
vt 16.71608 2.300996
vt 14.60624 4.14752
vt 14.60624 2.903425
vt -26.16054 2.582625
vt -26.16054 4.468319
vt -25.27966 2.300996
vt -25.27966 4.749949
vt 26.16054 4.468319
vt 26.16054 2.582625
vt 25.27966 4.749949
vt 25.27966 2.300996
vt -16.71608 2.300996
vt -16.71608 4.749949
vt -14.60624 2.903425
vt -14.60624 4.14752
vt 27.09315 4.749949
vt 27.09315 2.300996
vt 17.07741 4.749949
vt 17.07741 2.300996
vt -1.224477 -24.15252
vt 1.224477 -24.15252
vt -0.942847 -25.0334
vt 0.942847 -25.0334

usemtl greyDark

f 3/3/1 2/2/1 1/1/1
f 2/2/1 3/3/1 4/4/1
f 4/4/1 3/3/1 5/5/1
f 4/4/1 5/5/1 6/6/1
f 6/6/1 5/5/1 7/7/1
f 6/6/1 7/7/1 8/8/1
f 8/8/1 7/7/1 9/9/1
f 8/8/1 9/9/1 10/10/1
f 13/13/2 12/12/2 11/11/2
f 12/12/2 13/13/2 14/14/2
f 17/13/3 16/12/3 15/11/3
f 16/12/3 17/13/3 18/14/3
f 16/11/4 20/14/4 19/12/4
f 20/14/4 16/11/4 18/13/4
f 14/13/5 15/12/5 12/11/5
f 15/12/5 14/13/5 17/14/5
f 23/17/6 22/16/6 21/15/6
f 22/16/6 23/17/6 24/18/6
f 25/19/6 22/16/6 24/18/6
f 28/22/7 27/21/7 26/20/7
f 27/21/7 28/22/7 29/23/7
f 27/21/7 29/23/7 30/24/7
f 33/14/8 32/11/8 31/13/8
f 32/11/8 33/14/8 34/12/8
f 36/27/9 24/26/9 35/25/9
f 24/26/9 36/27/9 25/28/9
f 38/13/10 32/12/10 37/11/10
f 32/12/10 38/13/10 31/14/10
f 41/13/11 40/12/11 39/11/11
f 40/12/11 41/13/11 42/14/11
f 44/31/12 33/30/12 43/29/12
f 33/30/12 44/31/12 13/32/12
f 13/32/12 44/31/12 45/33/12
f 13/32/12 45/33/12 14/34/12
f 14/34/12 45/33/12 46/35/12
f 14/34/12 46/35/12 17/36/12
f 17/36/12 46/35/12 18/37/12
f 18/37/12 46/35/12 47/38/12
f 18/37/12 47/38/12 20/39/12
f 20/39/12 47/38/12 48/40/12
f 33/30/12 49/41/12 43/29/12
f 49/41/12 33/30/12 31/42/12
f 49/41/12 31/42/12 50/43/12
f 50/43/12 31/42/12 38/44/12
f 50/43/12 38/44/12 51/45/12
f 51/45/12 38/44/12 42/46/12
f 51/45/12 42/46/12 41/47/12
f 51/45/12 41/47/12 52/48/12
f 52/48/12 41/47/12 20/39/12
f 52/48/12 20/39/12 48/40/12
f 39/12/13 20/13/13 41/14/13
f 20/13/13 39/12/13 19/11/13
f 11/51/12 32/50/12 34/49/12
f 32/50/12 11/51/12 12/52/12
f 32/50/12 12/52/12 37/53/12
f 37/53/12 12/52/12 15/54/12
f 37/53/12 15/54/12 40/55/12
f 40/55/12 15/54/12 16/56/12
f 40/55/12 16/56/12 39/57/12
f 39/57/12 16/56/12 19/58/12
f 13/14/14 34/11/14 33/13/14
f 34/11/14 13/14/14 11/12/14
f 42/13/15 37/12/15 40/11/15
f 37/12/15 42/13/15 38/14/15
f 54/61/16 45/60/16 53/59/16
f 45/60/16 54/61/16 46/62/16
f 57/65/17 56/64/17 55/63/17
f 56/64/17 57/65/17 58/66/17
f 60/27/18 35/67/18 59/25/18
f 35/67/18 60/27/18 36/68/18
f 63/68/19 62/25/19 61/27/19
f 62/25/19 63/68/19 64/67/19
f 28/70/9 65/67/9 29/69/9
f 65/67/9 28/70/9 66/68/9
f 69/25/20 68/68/20 67/67/20
f 68/68/20 69/25/20 70/27/20
f 53/61/21 44/60/21 71/59/21
f 44/60/21 53/61/21 45/62/21
f 72/27/22 54/67/22 53/25/22
f 54/67/22 72/27/22 73/68/22
f 76/63/23 75/66/23 74/64/23
f 75/66/23 76/63/23 77/65/23
f 49/62/24 65/59/24 62/61/24
f 65/59/24 49/62/24 50/60/24
f 67/25/25 60/68/25 59/67/25
f 60/68/25 67/25/25 68/27/25
f 57/63/26 78/66/26 58/64/26
f 78/66/26 57/63/26 79/65/26
f 79/63/27 80/66/27 78/64/27
f 80/66/27 79/63/27 81/65/27
f 69/59/28 48/62/28 47/60/28
f 48/62/28 69/59/28 67/61/28
f 51/60/29 30/71/29 50/62/29
f 30/71/29 51/60/29 23/72/29
f 23/72/29 51/60/29 24/73/29
f 24/73/29 51/60/29 35/59/29
f 29/74/29 50/62/29 30/71/29
f 50/62/29 29/74/29 65/61/29
f 82/77/30 9/76/31 7/75/30
f 9/76/31 82/77/30 56/78/31
f 43/62/32 62/59/32 64/61/32
f 62/59/32 43/62/32 49/60/32
f 83/68/33 64/25/33 63/27/33
f 64/25/33 83/68/33 71/67/33
f 71/61/34 43/60/34 64/59/34
f 43/60/34 71/61/34 44/62/34
f 52/60/35 35/61/35 51/62/35
f 35/61/35 52/60/35 59/59/35
f 2/76/36 74/77/37 75/78/36
f 74/77/37 2/76/36 4/75/37
f 1/76/38 75/77/36 84/78/38
f 75/77/36 1/76/38 2/75/36
f 66/27/39 62/67/39 65/25/39
f 62/67/39 66/27/39 61/68/39
f 87/66/40 86/63/40 85/65/40
f 86/63/40 87/66/40 84/64/40
f 84/66/41 77/63/41 86/65/41
f 77/63/41 84/66/41 75/64/41
f 48/60/42 59/61/42 52/62/42
f 59/61/42 48/60/42 67/59/42
f 88/63/43 56/66/43 82/64/43
f 56/66/43 88/63/43 55/65/43
f 8/75/45 80/78/44 6/76/44
f 80/78/44 8/75/45 78/77/45
f 56/77/31 10/76/46 9/75/31
f 10/76/46 56/77/31 58/78/46
f 23/81/12 27/80/12 30/79/12
f 27/80/12 23/81/12 21/82/12
f 22/80/1 25/83/1 26/82/1
f 25/83/1 28/84/1 26/82/1
f 88/85/1 28/84/1 25/83/1
f 89/86/1 28/84/1 88/85/1
f 89/86/1 66/87/1 28/84/1
f 85/88/1 66/87/1 89/86/1
f 85/88/1 61/89/1 66/87/1
f 86/90/1 61/89/1 85/88/1
f 61/89/1 86/90/1 63/91/1
f 88/85/1 25/83/1 36/92/1
f 88/85/1 36/92/1 55/93/1
f 55/93/1 36/92/1 60/94/1
f 55/93/1 60/94/1 57/95/1
f 57/95/1 60/94/1 68/96/1
f 86/90/1 83/97/1 63/91/1
f 83/97/1 86/90/1 77/98/1
f 83/97/1 77/98/1 72/99/1
f 72/99/1 77/98/1 76/100/1
f 72/99/1 76/100/1 73/101/1
f 73/101/1 76/100/1 81/102/1
f 73/101/1 81/102/1 79/103/1
f 73/101/1 79/103/1 70/104/1
f 70/104/1 79/103/1 57/95/1
f 70/104/1 57/95/1 68/96/1
f 87/78/47 1/75/38 84/77/38
f 1/75/38 87/78/47 3/76/47
f 81/63/48 74/66/48 80/64/48
f 74/66/48 81/63/48 76/65/48
f 73/27/49 69/67/49 54/25/49
f 69/67/49 73/27/49 70/68/49
f 54/59/50 47/62/50 46/60/50
f 47/62/50 54/59/50 69/61/50
f 83/27/51 53/67/51 71/25/51
f 53/67/51 83/27/51 72/68/51
f 85/63/52 90/66/52 87/64/52
f 90/66/52 85/63/52 89/65/52
f 10/75/46 78/78/45 8/76/45
f 78/78/45 10/75/46 58/77/46
f 82/78/30 5/75/53 90/77/53
f 5/75/53 82/78/30 7/76/30
f 90/78/53 3/75/47 87/77/47
f 3/75/47 90/78/53 5/76/53
f 4/76/37 80/77/44 74/78/37
f 80/77/44 4/76/37 6/75/44
f 89/63/54 82/66/54 90/64/54
f 82/66/54 89/63/54 88/65/54

usemtl brown

f 92/107/55 26/106/55 91/105/55
f 26/106/55 92/107/55 22/108/55
f 27/111/56 94/110/56 93/109/56
f 94/110/56 27/111/56 21/112/56
f 94/115/6 96/114/6 95/113/6
f 96/114/6 94/115/6 92/116/6
f 99/119/9 98/118/9 97/117/9
f 98/118/9 99/119/9 100/120/9
f 94/123/12 101/122/12 93/121/12
f 101/122/12 94/123/12 95/124/12
f 95/127/57 98/126/57 101/125/57
f 98/126/57 95/127/57 97/128/57
f 26/131/58 93/130/58 91/129/58
f 93/130/58 26/131/58 27/132/58
f 95/135/59 99/134/59 97/133/59
f 99/134/59 95/135/59 96/136/59
f 102/139/60 98/138/60 100/137/60
f 98/138/60 102/139/60 101/140/60
f 21/143/61 92/142/61 94/141/61
f 92/142/61 21/143/61 22/144/61
f 102/124/1 92/121/1 91/123/1
f 92/121/1 102/124/1 96/122/1
f 91/147/7 101/146/7 102/145/7
f 101/146/7 91/147/7 93/148/7
f 100/151/62 96/150/62 102/149/62
f 96/150/62 100/151/62 99/152/62

