# Created by Kenney (www.kenney.nl)

mtllib fryingPanLid.mtl

g fryingPanLid

v -0.2062779 0.04 -0.06702377
v -0.2062779 0.04 0.06702377
v -0.2422107 0.04 0.07869902
v -0.1496944 0.04 0.2060367
v -0.1274868 0.04 0.1754705
v 3.304098E-13 0.04 0.2546754
v 2.809589E-13 0.04 0.2168935
v 0.1274868 0.04 0.1754705
v 0.1496944 0.04 0.2060367
v 0.2062779 0.04 0.06702377
v 0.2422107 0.04 0.07869902
v 0.2422107 0.04 -0.07869902
v -0.2422107 0.04 -0.07869902
v -0.1496944 0.04 -0.2060367
v -0.1274868 0.04 -0.1754705
v -3.297782E-13 0.04 -0.2546754
v -2.805077E-13 0.04 -0.2168935
v 0.1496944 0.04 -0.2060367
v 0.1274868 0.04 -0.1754705
v 0.2062779 0.04 -0.06702377
v -0.288346 4.511946E-17 0.09368931
v -0.1782077 4.511946E-17 0.2452818
v -0.288346 4.511946E-17 -0.09368931
v -0.1782077 4.511946E-17 -0.2452818
v 0.1782077 4.511946E-17 -0.2452818
v 0.288346 4.511946E-17 -0.09368931
v -3.92404E-13 4.511946E-17 -0.303185
v 3.935771E-13 4.511946E-17 0.303185
v 0.1782077 4.511946E-17 0.2452818
v 0.288346 4.511946E-17 0.09368931
v 2.809589E-13 0 0.2168935
v 0.1274868 0 0.1754705
v 0.2062779 0 0.06702377
v 0.2062779 0 -0.06702377
v 0.1274868 0 -0.1754705
v -2.805077E-13 0 -0.2168935
v -0.1274868 0 -0.1754705
v -0.2062779 0 -0.06702377
v -0.2062779 0 0.06702377
v -0.1274868 0 0.1754705
v -0.08518153 0.04 -0.01957218
v -0.05754291 0.04 -0.01957218
v -0.05754291 0.04 0.01957218
v -0.08518153 0.04 0.01957218
v 0.05754291 0.04 -0.01957218
v 0.08518153 0.04 -0.01957218
v 0.08518153 0.04 0.01957218
v 0.05754291 0.04 0.01957218
v -0.08261903 0.08761882 0.01957218
v -0.08403447 0.08344908 0.01957218
v -0.08261903 0.08761882 -0.01957218
v -0.08403447 0.08344908 -0.01957218
v -0.07822503 0.09522945 0.01957218
v -0.07822503 0.09522945 -0.01957218
v -0.07532165 0.09854012 0.01957218
v -0.07532165 0.09854012 -0.01957218
v -0.05743258 0.07551497 0.01957218
v -0.05728033 0.07628033 0.01957218
v -0.05743258 0.07551497 -0.01957218
v -0.05728033 0.07628033 -0.01957218
v 0.07822503 0.09522945 0.01957218
v 0.07822503 0.09522945 -0.01957218
v 0.08067144 0.09156813 0.01957218
v 0.08067144 0.09156813 -0.01957218
v -0.06440035 0.1058375 -0.01957218
v -0.06023062 0.1072529 -0.01957218
v -0.06440035 0.1058375 0.01957218
v -0.06023062 0.1072529 0.01957218
v -0.05702949 0.07701929 0.01957218
v -0.05668435 0.07771917 0.01957218
v -0.05702949 0.07701929 -0.01957218
v -0.05668435 0.07771917 -0.01957218
v 0.05450071 0.07990281 -0.01957218
v 0.05450071 0.07990281 0.01957218
v 0.05514956 0.07946927 -0.01957218
v 0.05514956 0.07946927 0.01957218
v 0.05573627 0.07895473 0.01957218
v 0.0562508 0.07836803 0.01957218
v 0.05573627 0.07895473 -0.01957218
v 0.0562508 0.07836803 -0.01957218
v -0.05591181 0.108112 -0.01957218
v -0.05591181 0.108112 0.01957218
v -0.05306187 0.0804988 -0.01957218
v -0.05306187 0.0804988 0.01957218
v -0.0522965 0.08065104 -0.01957218
v -0.0522965 0.08065104 0.01957218
v -0.05754291 0.07383148 0.01957218
v -0.05754291 0.07383148 -0.01957218
v 0.05668435 0.07771917 0.01957218
v 0.05668435 0.07771917 -0.01957218
v -0.0562508 0.07836803 0.01957218
v -0.05573627 0.07895473 0.01957218
v -0.0562508 0.07836803 -0.01957218
v -0.05573627 0.07895473 -0.01957218
v -0.05514956 0.07946926 -0.01957218
v 0.05306187 0.08049881 -0.01957218
v 0.05306187 0.08049881 0.01957218
v 0.05380082 0.08024796 -0.01957218
v 0.05380082 0.08024796 0.01957218
v -0.08518153 0.07473627 0.01957218
v -0.08518153 0.07473627 -0.01957218
v -0.05061301 0.08076139 -0.01957218
v -0.05061301 0.08076139 0.01957218
v -0.06834967 0.1038899 -0.01957218
v -0.06834967 0.1038899 0.01957218
v 0.0559118 0.108112 -0.01957218
v 0.06023062 0.1072529 -0.01957218
v 0.0559118 0.108112 0.01957218
v 0.06023062 0.1072529 0.01957218
v 0.0515178 0.1084 -0.01957218
v 0.0515178 0.1084 0.01957218
v 0.05754291 0.07383148 0.01957218
v 0.08518153 0.07473627 0.01957218
v 0.05743258 0.07551497 0.01957218
v 0.08489353 0.07913027 0.01957218
v 0.05728033 0.07628034 0.01957218
v 0.05702949 0.07701929 0.01957218
v 0.08403447 0.08344909 0.01957218
v 0.0522965 0.08065104 0.01957218
v 0.05061301 0.08076139 0.01957218
v 0.08261903 0.08761883 0.01957218
v -0.08067144 0.09156813 0.01957218
v 0.07532165 0.09854012 0.01957218
v -0.07201098 0.1014435 0.01957218
v 0.07201098 0.1014435 0.01957218
v 0.06834967 0.1038899 0.01957218
v 0.06440035 0.1058375 0.01957218
v -0.0515178 0.1084 0.01957218
v -0.08489353 0.07913027 0.01957218
v -0.05514956 0.07946926 0.01957218
v -0.05450071 0.07990281 0.01957218
v -0.05380082 0.08024796 0.01957218
v 0.06834967 0.1038899 -0.01957218
v 0.07201098 0.1014435 -0.01957218
v -0.08489353 0.07913027 -0.01957218
v 0.08261903 0.08761883 -0.01957218
v 0.08403447 0.08344909 -0.01957218
v -0.08067144 0.09156813 -0.01957218
v 0.06440035 0.1058375 -0.01957218
v 0.05702949 0.07701929 -0.01957218
v -0.05380082 0.08024796 -0.01957218
v 0.08518153 0.07473627 -0.01957218
v -0.0515178 0.1084 -0.01957218
v -0.05450071 0.07990281 -0.01957218
v 0.07532165 0.09854012 -0.01957218
v -0.07201098 0.1014435 -0.01957218
v 0.08489353 0.07913027 -0.01957218
v 0.05061301 0.08076139 -0.01957218
v 0.05754291 0.07383148 -0.01957218
v 0.05743258 0.07551497 -0.01957218
v 0.05728033 0.07628034 -0.01957218
v 0.0522965 0.08065104 -0.01957218

vn 0 1 0
vn -0.5299711 0.7555593 0.3850465
vn -0.5299711 0.7555593 -0.3850465
vn 0.5299711 0.7555593 -0.3850465
vn -0.6550803 0.7555593 0
vn 0.2024309 0.7555593 -0.6230184
vn -0.2024309 0.7555593 0.6230184
vn -0.2024309 0.7555593 -0.6230184
vn 0.2024309 0.7555593 0.6230184
vn 0.6550803 0.7555593 0
vn 0.5299711 0.7555593 0.3850465
vn -0.309017 0 -0.9510565
vn -0.809017 0 -0.5877852
vn -1 0 0
vn -0.809017 0 0.5877852
vn -0.309017 0 0.9510565
vn 0.309017 0 0.9510565
vn 0.809017 0 0.5877852
vn 1 0 0
vn 0.809017 0 -0.5877852
vn 0.309017 0 -0.9510565
vn 0 -1 0
vn -0.9238795 0.3826834 0
vn -0.9659258 0.258819 0
vn -0.7933533 0.6087614 0
vn -0.7071068 0.7071068 0
vn 0.9914449 -0.1305262 0
vn 0.9659258 -0.258819 0
vn 0.7933533 0.6087614 0
vn 0.8660254 0.5 0
vn -0.3826834 0.9238795 0
vn -0.2588191 0.9659258 0
vn 0.9238795 -0.3826834 0
vn 0.8660254 -0.5 0
vn -0.5 -0.8660254 0
vn -0.6087614 -0.7933533 0
vn -0.7071068 -0.7071068 0
vn -0.7933533 -0.6087614 0
vn -0.1305262 0.9914449 0
vn 0.2588191 -0.9659258 0
vn 0.1305262 -0.9914449 0
vn 0.9978589 -0.06540311 0
vn -0.8660254 -0.5 0
vn 0.7933533 -0.6087614 0
vn 0.7071068 -0.7071068 0
vn 0.6087614 -0.7933533 0
vn -0.258819 -0.9659258 0
vn -0.3826834 -0.9238795 0
vn 0.06540314 -0.9978589 0
vn -0.5 0.8660254 0
vn 0.1305262 0.9914449 0
vn 0.258819 0.9659258 0
vn 0.06540311 0.9978589 0
vn 0 0 1
vn 0.5 0.8660254 0
vn 0.6087614 0.7933533 0
vn -0.9914449 0.1305262 0
vn 0.9238795 0.3826834 0
vn 0.9659258 0.2588191 0
vn -0.8660254 0.5 0
vn 0.3826834 0.9238795 0
vn -0.9238795 -0.3826834 0
vn 0.3826834 -0.9238795 0
vn 0.5 -0.8660254 0
vn 0.7071068 0.7071068 0
vn -0.6087614 0.7933533 0
vn 0.9978589 0.06540314 0
vn 0.9914449 0.1305262 0
vn 0 0 -1
vn -0.9659258 -0.2588191 0
vn -0.9914449 -0.1305262 0
vn -0.1305262 -0.9914449 0
vn -0.06540311 -0.9978589 0
vn -0.9978589 0.06540311 0
vn -0.06540314 0.9978589 0
vn -0.9978589 -0.06540314 0

vt -8.121179 2.638731
vt -8.121179 -2.638731
vt -9.535853 -3.098387
vt -5.893482 -8.111682
vt -5.019165 -6.908288
vt 1.300826E-11 -10.02659
vt 1.106137E-11 -8.539113
vt 5.019165 -6.908288
vt 5.893482 -8.111682
vt 8.121179 -2.638731
vt 9.535853 -3.098387
vt 9.535853 3.098387
vt -9.535853 3.098387
vt -5.893482 8.111682
vt -5.019165 6.908288
vt -1.298339E-11 10.02659
vt -1.104361E-11 8.539113
vt 5.893482 8.111682
vt 5.019165 6.908288
vt 8.121179 2.638731
vt -3.688555 -8.577265
vt -3.098387 -6.17328
vt 3.688555 -8.577265
vt 3.098387 -6.17328
vt 2.638731 0
vt -2.638731 0
vt 2.638731 1.574803
vt -2.638731 1.574803
vt 11.35221 3.688555
vt 11.35221 -3.688555
vt 7.016049 9.656764
vt 1.544898E-11 11.93642
vt 1.104361E-11 8.539113
vt -7.016049 9.656764
vt -11.35221 3.688555
vt 7.016049 -9.656764
vt -1.549516E-11 -11.93642
vt -1.106137E-11 -8.539113
vt -7.016049 -9.656764
vt -11.35221 -3.688555
vt 3.353604 0.7705584
vt 2.265469 0.7705584
vt 2.265469 -0.7705584
vt 3.353604 -0.7705584
vt -2.265469 0.7705584
vt -3.353604 0.7705584
vt -3.353604 -0.7705584
vt -2.265469 -0.7705584

usemtl greyDark

f 3/3/1 2/2/1 1/1/1
f 2/2/1 3/3/1 4/4/1
f 2/2/1 4/4/1 5/5/1
f 5/5/1 4/4/1 6/6/1
f 5/5/1 6/6/1 7/7/1
f 7/7/1 6/6/1 8/8/1
f 8/8/1 6/6/1 9/9/1
f 8/8/1 9/9/1 10/10/1
f 10/10/1 9/9/1 11/11/1
f 10/10/1 11/11/1 12/12/1
f 1/1/1 13/13/1 3/3/1
f 13/13/1 1/1/1 14/14/1
f 14/14/1 1/1/1 15/15/1
f 14/14/1 15/15/1 16/16/1
f 16/16/1 15/15/1 17/17/1
f 16/16/1 17/17/1 18/18/1
f 18/18/1 17/17/1 19/19/1
f 18/18/1 19/19/1 20/20/1
f 18/18/1 20/20/1 12/12/1
f 12/12/1 20/20/1 10/10/1
f 22/23/2 3/22/2 21/21/2
f 3/22/2 22/23/2 4/24/2
f 13/24/3 24/21/3 23/23/3
f 24/21/3 13/24/3 14/22/3
f 12/22/4 25/23/4 18/24/4
f 25/23/4 12/22/4 26/21/4
f 21/23/5 13/22/5 23/21/5
f 13/22/5 21/23/5 3/24/5
f 16/24/6 25/21/6 27/23/6
f 25/21/6 16/24/6 18/22/6
f 28/23/7 4/22/7 22/21/7
f 4/22/7 28/23/7 6/24/7
f 14/24/8 27/21/8 24/23/8
f 27/21/8 14/24/8 16/22/8
f 28/21/9 9/24/9 6/22/9
f 9/24/9 28/21/9 29/23/9
f 11/22/10 26/23/10 12/24/10
f 26/23/10 11/22/10 30/21/10
f 29/21/11 11/24/11 9/22/11
f 11/24/11 29/21/11 30/23/11
f 7/27/12 32/26/12 31/25/12
f 32/26/12 7/27/12 8/28/12
f 10/28/13 32/25/13 8/27/13
f 32/25/13 10/28/13 33/26/13
f 20/28/14 33/25/14 10/27/14
f 33/25/14 20/28/14 34/26/14
f 19/28/15 34/25/15 20/27/15
f 34/25/15 19/28/15 35/26/15
f 19/27/16 36/26/16 35/25/16
f 36/26/16 19/27/16 17/28/16
f 17/27/17 37/26/17 36/25/17
f 37/26/17 17/27/17 15/28/17
f 37/25/18 1/28/18 38/26/18
f 1/28/18 37/25/18 15/27/18
f 38/25/19 2/28/19 39/26/19
f 2/28/19 38/25/19 1/27/19
f 39/25/20 5/28/20 40/26/20
f 5/28/20 39/25/20 2/27/20
f 5/27/21 31/26/21 40/25/21
f 31/26/21 5/27/21 7/28/21
f 24/31/22 21/30/22 23/29/22
f 21/30/22 24/31/22 38/20/22
f 38/20/22 24/31/22 37/19/22
f 37/19/22 24/31/22 27/32/22
f 37/19/22 27/32/22 36/33/22
f 36/33/22 27/32/22 25/34/22
f 36/33/22 25/34/22 35/15/22
f 35/15/22 25/34/22 34/1/22
f 34/1/22 25/34/22 26/35/22
f 34/1/22 26/35/22 33/2/22
f 39/10/22 21/30/22 38/20/22
f 21/30/22 39/10/22 22/36/22
f 22/36/22 39/10/22 40/8/22
f 22/36/22 40/8/22 28/37/22
f 28/37/22 40/8/22 31/38/22
f 28/37/22 31/38/22 32/5/22
f 28/37/22 32/5/22 29/39/22
f 29/39/22 32/5/22 33/2/22
f 29/39/22 33/2/22 30/40/22
f 30/40/22 33/2/22 26/35/22

usemtl glass

f 15/19/22 2/10/22 1/20/22
f 2/10/22 15/19/22 5/8/22
f 5/8/22 15/19/22 41/41/22
f 41/41/22 15/19/22 17/33/22
f 41/41/22 17/33/22 42/42/22
f 42/42/22 17/33/22 43/43/22
f 44/44/22 5/8/22 41/41/22
f 5/8/22 44/44/22 7/38/22
f 7/38/22 44/44/22 43/43/22
f 7/38/22 43/43/22 17/33/22
f 7/38/22 17/33/22 45/45/22
f 45/45/22 17/33/22 19/15/22
f 45/45/22 19/15/22 46/46/22
f 46/46/22 19/15/22 47/47/22
f 48/48/22 7/38/22 45/45/22
f 7/38/22 48/48/22 8/5/22
f 8/5/22 48/48/22 47/47/22
f 8/5/22 47/47/22 19/15/22
f 8/5/22 19/15/22 20/1/22
f 8/5/22 20/1/22 10/2/22
f 1/20/1 2/10/1 15/19/1
f 5/8/1 15/19/1 2/10/1
f 41/41/1 15/19/1 5/8/1
f 17/33/1 15/19/1 41/41/1
f 42/42/1 17/33/1 41/41/1
f 43/43/1 17/33/1 42/42/1
f 41/41/1 5/8/1 44/44/1
f 7/38/1 44/44/1 5/8/1
f 43/43/1 44/44/1 7/38/1
f 17/33/1 43/43/1 7/38/1
f 45/45/1 17/33/1 7/38/1
f 19/15/1 17/33/1 45/45/1
f 46/46/1 19/15/1 45/45/1
f 47/47/1 19/15/1 46/46/1
f 45/45/1 7/38/1 48/48/1
f 8/5/1 48/48/1 7/38/1
f 47/47/1 48/48/1 8/5/1
f 19/15/1 47/47/1 8/5/1
f 20/1/1 19/15/1 8/5/1
f 10/2/1 20/1/1 8/5/1
f 38/20/1 39/10/1 37/19/1
f 40/8/1 37/19/1 39/10/1
f 36/33/1 37/19/1 40/8/1
f 31/38/1 36/33/1 40/8/1
f 35/15/1 36/33/1 31/38/1
f 32/5/1 35/15/1 31/38/1
f 34/1/1 35/15/1 32/5/1
f 33/2/1 34/1/1 32/5/1

usemtl _defaultMat

f 51/5/23 50/1/24 49/2/23
f 50/5/24 51/1/23 52/2/24
f 55/5/26 54/1/25 53/2/25
f 54/5/25 55/1/26 56/2/26
f 59/5/27 58/1/28 57/2/27
f 58/5/28 59/1/27 60/2/28
f 63/5/30 62/1/29 61/2/29
f 62/5/29 63/1/30 64/2/30
f 67/5/31 66/1/32 65/2/31
f 66/5/32 67/1/31 68/2/32
f 71/5/33 70/1/34 69/2/33
f 70/5/34 71/1/33 72/2/34
f 75/5/36 74/1/35 73/2/35
f 74/5/35 75/1/36 76/2/36
f 79/5/37 78/1/38 77/2/37
f 76/5/36 79/1/37 77/2/37
f 78/5/38 79/1/37 80/2/38
f 68/5/32 81/1/39 66/2/32
f 81/5/39 68/1/32 82/2/39
f 85/5/41 84/1/40 83/2/40
f 84/5/40 85/1/41 86/2/41
f 88/5/42 57/1/27 87/2/42
f 57/5/27 88/1/42 59/2/27
f 80/5/38 89/1/43 78/2/38
f 89/5/43 80/1/38 90/2/43
f 93/5/44 92/1/45 91/2/44
f 92/5/45 93/1/44 94/2/45
f 95/5/46 92/1/45 94/2/45
f 98/5/48 97/1/47 96/2/47
f 97/5/47 98/1/48 99/2/48
f 101/5/14 44/1/14 100/2/14
f 44/5/14 101/1/14 41/2/14
f 102/5/49 86/1/41 85/2/41
f 86/5/41 102/1/49 103/2/49
f 105/5/50 65/1/31 104/2/50
f 65/5/31 105/1/50 67/2/31
f 108/5/51 107/1/52 106/2/51
f 107/5/52 108/1/51 109/2/52
f 73/5/35 99/1/48 98/2/48
f 99/5/48 73/1/35 74/2/35
f 111/5/53 106/1/51 110/2/53
f 106/5/51 111/1/53 108/2/51
f 47/5/54 112/1/54 48/2/54
f 112/5/54 47/1/54 113/2/54
f 112/5/54 113/1/54 114/2/54
f 114/5/54 113/1/54 115/2/54
f 114/5/54 115/1/54 116/2/54
f 116/5/54 115/1/54 117/2/54
f 117/5/54 115/1/54 89/2/54
f 89/5/54 115/1/54 78/2/54
f 78/5/54 115/1/54 77/2/54
f 77/5/54 115/1/54 76/2/54
f 76/5/54 115/1/54 118/2/54
f 76/5/54 118/1/54 74/2/54
f 74/5/54 118/1/54 99/2/54
f 99/5/54 118/1/54 97/2/54
f 97/5/54 118/1/54 119/2/54
f 119/5/54 118/1/54 120/2/54
f 120/5/54 118/1/54 50/2/54
f 50/5/54 118/1/54 49/2/54
f 49/5/54 118/1/54 121/2/54
f 49/5/54 121/1/54 122/2/54
f 122/5/54 121/1/54 63/2/54
f 122/5/54 63/1/54 53/2/54
f 53/5/54 63/1/54 61/2/54
f 53/5/54 61/1/54 55/2/54
f 55/5/54 61/1/54 123/2/54
f 55/5/54 123/1/54 124/2/54
f 124/5/54 123/1/54 125/2/54
f 124/5/54 125/1/54 105/2/54
f 105/5/54 125/1/54 126/2/54
f 105/5/54 126/1/54 67/2/54
f 67/5/54 126/1/54 127/2/54
f 67/5/54 127/1/54 68/2/54
f 68/5/54 127/1/54 109/2/54
f 68/5/54 109/1/54 82/2/54
f 82/5/54 109/1/54 108/2/54
f 82/5/54 108/1/54 128/2/54
f 128/5/54 108/1/54 111/2/54
f 43/5/54 100/1/54 44/2/54
f 100/5/54 43/1/54 87/2/54
f 100/5/54 87/1/54 57/2/54
f 100/5/54 57/1/54 129/2/54
f 129/5/54 57/1/54 58/2/54
f 129/5/54 58/1/54 69/2/54
f 129/5/54 69/1/54 70/2/54
f 129/5/54 70/1/54 91/2/54
f 129/5/54 91/1/54 92/2/54
f 129/5/54 92/1/54 130/2/54
f 129/5/54 130/1/54 50/2/54
f 50/5/54 130/1/54 131/2/54
f 50/5/54 131/1/54 132/2/54
f 50/5/54 132/1/54 84/2/54
f 50/5/54 84/1/54 86/2/54
f 50/5/54 86/1/54 103/2/54
f 50/5/54 103/1/54 120/2/54
f 126/5/55 134/1/56 133/2/55
f 134/5/56 126/1/55 125/2/56
f 52/5/24 129/1/57 50/2/24
f 129/5/57 52/1/24 135/2/57
f 118/5/59 136/1/58 121/2/58
f 136/5/58 118/1/59 137/2/59
f 54/5/25 122/1/60 53/2/25
f 122/5/60 54/1/25 138/2/60
f 127/5/61 133/1/55 139/2/61
f 133/5/55 127/1/61 126/2/55
f 90/5/43 117/1/62 89/2/43
f 117/5/62 90/1/43 140/2/62
f 42/5/19 87/1/19 43/2/19
f 87/5/19 42/1/19 88/2/19
f 83/5/40 132/1/63 141/2/63
f 132/5/63 83/1/40 84/2/40
f 46/5/19 113/1/19 47/2/19
f 113/5/19 46/1/19 142/2/19
f 128/5/1 110/1/1 143/2/1
f 110/5/1 128/1/1 111/2/1
f 109/5/52 139/1/61 107/2/52
f 139/5/61 109/1/52 127/2/61
f 144/5/64 130/1/46 95/2/46
f 130/5/46 144/1/64 131/2/64
f 62/5/29 123/1/65 61/2/29
f 123/5/65 62/1/29 145/2/65
f 60/5/28 69/1/33 58/2/28
f 69/5/33 60/1/28 71/2/33
f 55/5/26 146/1/66 56/2/26
f 146/5/66 55/1/26 124/2/66
f 142/5/67 115/1/68 113/2/67
f 115/5/68 142/1/67 147/2/68
f 101/5/69 42/1/69 41/2/69
f 42/5/69 101/1/69 88/2/69
f 88/5/69 101/1/69 59/2/69
f 59/5/69 101/1/69 135/2/69
f 59/5/69 135/1/69 60/2/69
f 60/5/69 135/1/69 71/2/69
f 71/5/69 135/1/69 72/2/69
f 72/5/69 135/1/69 93/2/69
f 93/5/69 135/1/69 94/2/69
f 94/5/69 135/1/69 95/2/69
f 95/5/69 135/1/69 52/2/69
f 95/5/69 52/1/69 144/2/69
f 144/5/69 52/1/69 141/2/69
f 141/5/69 52/1/69 83/2/69
f 83/5/69 52/1/69 85/2/69
f 85/5/69 52/1/69 102/2/69
f 102/5/69 52/1/69 148/2/69
f 149/5/69 46/1/69 45/2/69
f 46/5/69 149/1/69 142/2/69
f 142/5/69 149/1/69 150/2/69
f 142/5/69 150/1/69 147/2/69
f 147/5/69 150/1/69 151/2/69
f 147/5/69 151/1/69 140/2/69
f 147/5/69 140/1/69 90/2/69
f 147/5/69 90/1/69 80/2/69
f 147/5/69 80/1/69 79/2/69
f 147/5/69 79/1/69 75/2/69
f 147/5/69 75/1/69 137/2/69
f 137/5/69 75/1/69 73/2/69
f 137/5/69 73/1/69 98/2/69
f 137/5/69 98/1/69 96/2/69
f 137/5/69 96/1/69 152/2/69
f 137/5/69 152/1/69 148/2/69
f 137/5/69 148/1/69 52/2/69
f 137/5/69 52/1/69 51/2/69
f 137/5/69 51/1/69 136/2/69
f 136/5/69 51/1/69 138/2/69
f 136/5/69 138/1/69 64/2/69
f 64/5/69 138/1/69 54/2/69
f 64/5/69 54/1/69 62/2/69
f 62/5/69 54/1/69 56/2/69
f 62/5/69 56/1/69 145/2/69
f 145/5/69 56/1/69 146/2/69
f 145/5/69 146/1/69 134/2/69
f 134/5/69 146/1/69 104/2/69
f 134/5/69 104/1/69 133/2/69
f 133/5/69 104/1/69 65/2/69
f 133/5/69 65/1/69 139/2/69
f 139/5/69 65/1/69 66/2/69
f 139/5/69 66/1/69 107/2/69
f 107/5/69 66/1/69 81/2/69
f 107/5/69 81/1/69 106/2/69
f 106/5/69 81/1/69 143/2/69
f 106/5/69 143/1/69 110/2/69
f 92/5/45 95/1/46 130/2/46
f 72/5/34 91/1/44 70/2/34
f 91/5/44 72/1/34 93/2/44
f 151/5/70 114/1/71 116/2/70
f 114/5/71 151/1/70 150/2/71
f 136/5/58 63/1/30 121/2/58
f 63/5/30 136/1/58 64/2/30
f 122/5/60 51/1/23 49/2/23
f 51/5/23 122/1/60 138/2/60
f 96/5/47 119/1/72 152/2/72
f 119/5/72 96/1/47 97/2/47
f 152/5/72 120/1/73 148/2/73
f 120/5/73 152/1/72 119/2/72
f 135/5/57 100/1/74 129/2/57
f 100/5/74 135/1/57 101/2/74
f 147/5/68 118/1/59 115/2/68
f 118/5/59 147/1/68 137/2/59
f 82/5/39 143/1/75 81/2/39
f 143/5/75 82/1/39 128/2/75
f 141/5/63 131/1/64 144/2/64
f 131/5/64 141/1/63 132/2/63
f 150/5/71 112/1/76 114/2/71
f 112/5/76 150/1/71 149/2/76
f 124/5/66 104/1/50 146/2/66
f 104/5/50 124/1/66 105/2/50
f 149/5/14 48/1/14 112/2/14
f 48/5/14 149/1/14 45/2/14
f 140/5/62 116/1/70 117/2/62
f 116/5/70 140/1/62 151/2/70
f 148/5/22 103/1/22 102/2/22
f 103/5/22 148/1/22 120/2/22
f 79/5/37 76/1/36 75/2/36
f 125/5/56 145/1/65 134/2/56
f 145/5/65 125/1/56 123/2/65
f 46/5/22 48/1/22 45/2/22
f 48/5/22 46/1/22 47/2/22
f 42/5/22 44/1/22 41/2/22
f 44/5/22 42/1/22 43/2/22
f 37/19/22 39/10/22 38/20/22
f 39/10/22 37/19/22 40/8/22
f 40/8/22 37/19/22 36/33/22
f 40/8/22 36/33/22 31/38/22
f 31/38/22 36/33/22 35/15/22
f 31/38/22 35/15/22 32/5/22
f 32/5/22 35/15/22 34/1/22
f 32/5/22 34/1/22 33/2/22

