# Created by Kenney (www.kenney.nl)

mtllib gingerBreadCutter.mtl

g gingerBreadCutter

v -0.07120228 0 -0.01887489
v -0.1295667 0 -0.03668253
v -0.07120228 0.042 -0.01887489
v -0.1295667 0.042 -0.03668253
v 0.002796728 0.042 -0.06556921
v 0.002796728 0 -0.06556921
v 0.04679673 0.042 -0.1177794
v 0.04679673 0 -0.1177794
v -0.1295667 0 0.03668253
v -0.07120228 0 0.01887489
v -0.1295667 0.042 0.03668253
v -0.07120228 0.042 0.01887489
v 0.05879673 0 -0.04156922
v 0.05879673 0.042 -0.04156922
v 0.08879673 0 -0.09353074
v 0.08879673 0.042 -0.09353074
v 0.1307967 0 9.023893E-17
v 0.1307967 0.042 9.023893E-17
v 0.1067967 0 -0.04156922
v 0.1067967 0.042 -0.04156922
v 0.1067967 0 0.04156922
v 0.1067967 0.042 0.04156922
v 0.08879673 0 0.09353074
v 0.04679673 0 0.1177794
v 0.08879673 0.042 0.09353074
v 0.04679673 0.042 0.1177794
v 0.002796728 0.042 0.06556921
v 0.002796728 0 0.06556921
v -0.113808 0 0.08833193
v -0.113808 0.042 0.08833193
v -0.1459704 0.042 0.02794861
v -0.0843431 0.042 0.009145432
v -0.0843431 0.042 -0.009145432
v -0.1459704 0.042 -0.02794861
v -0.1229191 0.042 0.1034994
v -0.002271086 0.042 0.07994737
v 0.04383864 0.042 0.134661
v 0.1067474 0.042 0.09834062
v 0.08155728 0.042 0.05471003
v 0.05879673 0.042 0.04156922
v 0.1143836 0.042 0.05471003
v 0.1459704 0.042 9.023893E-17
v 0.1143836 0.042 -0.05471003
v 0.08155728 0.042 -0.05471003
v 0.1067474 0.042 -0.09834062
v 0.04383864 0.042 -0.134661
v -0.002271086 0.042 -0.07994737
v -0.113808 0.042 -0.08833193
v -0.1229191 0.042 -0.1034994
v -0.113808 0 -0.08833193
v 0.05879673 0 0.04156922

vn -0.2918296 0 0.9564703
vn 0.2918296 0 -0.9564703
vn -0.7646695 0 -0.6444226
vn 0.7646695 0 0.6444226
vn -0.2918296 0 -0.9564703
vn 0.2918296 0 0.9564703
vn 0.8660254 0 0.5
vn -0.8660254 0 -0.5
vn 0.8660254 0 -0.5
vn -0.8660254 0 0.5
vn 0 0 -1
vn 0 0 1
vn 0.5 0 0.8660254
vn -0.5 0 -0.8660254
vn -0.7646695 0 0.6444226
vn 0.7646695 0 -0.6444226
vn 0.1915961 0 0.9814739
vn -0.1915961 0 -0.9814739
vn -0.9564703 0 0.2918296
vn 0.9564703 0 -0.2918296
vn 0 1 0
vn 0 -1 0
vn -1 0 0
vn 1 0 0
vn -0.9564703 0 -0.2918296
vn 0.9564703 0 0.2918296
vn 0.5 0 -0.8660254
vn -0.5 0 0.8660254
vn 0.1915961 0 -0.9814739
vn -0.1915961 0 0.9814739

vt -2.898075 0
vt -5.300465 0
vt -2.898075 1.653543
vt -5.300465 1.653543
vt -2.044924 1.653543
vt -2.044924 0
vt -4.73304 1.653543
vt -4.73304 0
vt 5.300465 0
vt 2.898075 0
vt 5.300465 1.653543
vt 2.898075 1.653543
vt 2.574739 0
vt 2.574739 1.653543
vt 4.936944 0
vt 4.936944 1.653543
vt -2.574739 0
vt -2.574739 1.653543
vt -0.684975 0
vt -0.684975 1.653543
vt -2.314832 0
vt -4.204596 0
vt -2.314832 1.653543
vt -4.204596 1.653543
vt 0.684975 0
vt 0.684975 1.653543
vt 1.186411 0
vt -0.7229359 0
vt 1.186411 1.653543
vt -0.7229359 1.653543
vt 4.73304 1.653543
vt 4.73304 0
vt 2.044924 1.653543
vt 2.044924 0
vt -0.3865312 0
vt -5.063921 0
vt -0.3865312 1.653543
vt -5.063921 1.653543
vt 2.018675 1.653543
vt 2.018675 0
vt -0.1073096 1.653543
vt -0.1073096 0
vt -5.746868 -1.100339
vt -3.320594 -0.3600564
vt -5.101053 -1.444194
vt -2.803239 -0.7431058
vt -3.320594 0.3600564
vt -2.803239 0.7431058
vt -5.101053 1.444194
vt -5.746868 1.100339
vt -4.839333 -4.074779
vt -4.480628 -3.477635
vt -0.08941282 -3.147535
vt 0.1101074 -2.581465
vt 1.725931 -5.301615
vt 1.842391 -4.636986
vt 4.202654 -3.871678
vt 3.495934 -3.682313
vt 3.210917 -2.153938
vt 2.314832 -1.636583
vt 4.204596 -1.636583
vt 4.503291 -2.153938
vt 5.149477 -3.552714E-15
vt 5.746868 -3.552714E-15
vt 4.503291 2.153938
vt 4.204596 1.636583
vt 3.210917 2.153938
vt 2.314832 1.636583
vt 3.495934 3.682313
vt 4.202654 3.871678
vt 1.842391 4.636986
vt 1.725931 5.301615
vt 0.1101074 2.581465
vt -0.08941282 3.147535
vt -4.480628 3.477635
vt -4.839333 4.074779
vt 0.7431058 1.653543
vt 0.7431058 0
vt -0.7431058 1.653543
vt -0.7431058 0
vt 0.1073096 1.653543
vt 0.1073096 0
vt -2.018675 1.653543
vt -2.018675 0
vt 0.7229359 0
vt -1.186411 0
vt 0.7229359 1.653543
vt -1.186411 1.653543
vt 4.204596 0
vt 2.314832 0
vt 4.204596 1.653543
vt 2.314832 1.653543
vt -4.936944 0
vt -4.936944 1.653543
vt 5.063921 0
vt 0.3865312 0
vt 5.063921 1.653543
vt 0.3865312 1.653543

usemtl white

f 3/3/1 2/2/1 1/1/1
f 2/2/1 3/3/1 4/4/1
f 1/1/2 2/2/2 3/3/2
f 4/4/2 3/3/2 2/2/2
f 7/7/3 6/6/3 5/5/3
f 6/6/3 7/7/3 8/8/3
f 5/5/4 6/6/4 7/7/4
f 8/8/4 7/7/4 6/6/4
f 11/11/5 10/10/5 9/9/5
f 10/10/5 11/11/5 12/12/5
f 9/9/6 10/10/6 11/11/6
f 12/12/6 11/11/6 10/10/6
f 15/15/7 14/14/7 13/13/7
f 14/14/7 15/15/7 16/16/7
f 13/13/8 14/14/8 15/15/8
f 16/16/8 15/15/8 14/14/8
f 19/19/9 18/18/9 17/17/9
f 18/18/9 19/19/9 20/20/9
f 17/17/10 18/18/10 19/19/10
f 20/20/10 19/19/10 18/18/10
f 14/23/11 19/22/11 13/21/11
f 19/22/11 14/23/11 20/24/11
f 13/21/12 19/22/12 14/23/12
f 20/24/12 14/23/12 19/22/12
f 17/13/7 22/26/7 21/25/7
f 22/26/7 17/13/7 18/14/7
f 21/25/8 22/26/8 17/13/8
f 18/14/8 17/13/8 22/26/8
f 25/29/13 24/28/13 23/27/13
f 24/28/13 25/29/13 26/30/13
f 23/27/14 24/28/14 25/29/14
f 26/30/14 25/29/14 24/28/14
f 27/33/15 24/32/15 26/31/15
f 24/32/15 27/33/15 28/34/15
f 26/31/16 24/32/16 27/33/16
f 28/34/16 27/33/16 24/32/16
f 27/37/17 29/36/17 28/35/17
f 29/36/17 27/37/17 30/38/17
f 28/35/18 29/36/18 27/37/18
f 30/38/18 27/37/18 29/36/18
f 11/41/19 29/40/19 30/39/19
f 29/40/19 11/41/19 9/42/19
f 30/39/20 29/40/20 11/41/20
f 9/42/20 11/41/20 29/40/20
f 11/45/21 32/44/21 31/43/21
f 32/44/21 11/45/21 12/46/21
f 32/44/21 12/46/21 33/47/21
f 3/48/21 33/47/21 12/46/21
f 4/49/21 33/47/21 3/48/21
f 33/47/21 4/49/21 34/50/21
f 35/51/21 11/45/21 31/43/21
f 11/45/21 35/51/21 30/52/21
f 30/52/21 35/51/21 36/53/21
f 30/52/21 36/53/21 27/54/21
f 27/54/21 36/53/21 37/55/21
f 27/54/21 37/55/21 26/56/21
f 26/56/21 37/55/21 38/57/21
f 26/56/21 38/57/21 25/58/21
f 39/59/21 25/58/21 38/57/21
f 25/58/21 39/59/21 40/60/21
f 39/59/21 22/61/21 40/60/21
f 22/61/21 39/59/21 41/62/21
f 22/61/21 41/62/21 18/63/21
f 18/63/21 41/62/21 42/64/21
f 43/65/21 18/63/21 42/64/21
f 43/65/21 20/66/21 18/63/21
f 44/67/21 20/66/21 43/65/21
f 20/66/21 44/67/21 14/68/21
f 44/67/21 16/69/21 14/68/21
f 16/69/21 44/67/21 45/70/21
f 45/70/21 7/71/21 16/69/21
f 46/72/21 7/71/21 45/70/21
f 46/72/21 5/73/21 7/71/21
f 47/74/21 5/73/21 46/72/21
f 47/74/21 48/75/21 5/73/21
f 49/76/21 48/75/21 47/74/21
f 49/76/21 4/49/21 48/75/21
f 4/49/21 49/76/21 34/50/21
f 31/43/22 32/44/22 11/45/22
f 12/46/22 11/45/22 32/44/22
f 33/47/22 12/46/22 32/44/22
f 12/46/22 33/47/22 3/48/22
f 3/48/22 33/47/22 4/49/22
f 34/50/22 4/49/22 33/47/22
f 31/43/22 11/45/22 35/51/22
f 30/52/22 35/51/22 11/45/22
f 36/53/22 35/51/22 30/52/22
f 27/54/22 36/53/22 30/52/22
f 37/55/22 36/53/22 27/54/22
f 26/56/22 37/55/22 27/54/22
f 38/57/22 37/55/22 26/56/22
f 25/58/22 38/57/22 26/56/22
f 38/57/22 25/58/22 39/59/22
f 40/60/22 39/59/22 25/58/22
f 40/60/22 22/61/22 39/59/22
f 41/62/22 39/59/22 22/61/22
f 18/63/22 41/62/22 22/61/22
f 42/64/22 41/62/22 18/63/22
f 42/64/22 18/63/22 43/65/22
f 18/63/22 20/66/22 43/65/22
f 43/65/22 20/66/22 44/67/22
f 14/68/22 44/67/22 20/66/22
f 14/68/22 16/69/22 44/67/22
f 45/70/22 44/67/22 16/69/22
f 16/69/22 7/71/22 45/70/22
f 45/70/22 7/71/22 46/72/22
f 7/71/22 5/73/22 46/72/22
f 46/72/22 5/73/22 47/74/22
f 5/73/22 48/75/22 47/74/22
f 47/74/22 48/75/22 49/76/22
f 48/75/22 4/49/22 49/76/22
f 34/50/22 49/76/22 4/49/22
f 3/79/23 10/78/23 12/77/23
f 10/78/23 3/79/23 1/80/23
f 12/77/24 10/78/24 3/79/24
f 1/80/24 3/79/24 10/78/24
f 48/83/25 2/82/25 4/81/25
f 2/82/25 48/83/25 50/84/25
f 4/81/26 2/82/26 48/83/26
f 50/84/26 48/83/26 2/82/26
f 7/87/27 15/86/27 8/85/27
f 15/86/27 7/87/27 16/88/27
f 8/85/28 15/86/28 7/87/28
f 16/88/28 7/87/28 15/86/28
f 22/91/12 51/90/12 21/89/12
f 51/90/12 22/91/12 40/92/12
f 21/89/11 51/90/11 22/91/11
f 40/92/11 22/91/11 51/90/11
f 51/17/9 25/94/9 23/93/9
f 25/94/9 51/17/9 40/18/9
f 23/93/10 25/94/10 51/17/10
f 40/18/10 51/17/10 25/94/10
f 48/97/29 6/96/29 50/95/29
f 6/96/29 48/97/29 5/98/29
f 50/95/30 6/96/30 48/97/30
f 5/98/30 48/97/30 6/96/30

