# Created by Kenney (www.kenney.nl)

mtllib gingerBread.mtl

g gingerBread

v -0.04157872 0.03 0.01
v -0.04157872 0.03 -0.01
v -0.02157872 0.03 0.01
v -0.02157872 0.03 -0.01
v -0.001578724 0.03 0.01
v -0.001578724 0.03 -0.01
v 0.01842128 0.03 0.01
v 0.01842128 0.03 -0.01
v -0.1301817 0 -0.03668253
v -0.1144229 0 -0.08833193
v -0.117401 0.03 -0.04348748
v -0.1073241 0.03 -0.07651435
v 0.1061817 0 0.04156922
v 0.1002705 0.03 0.03133068
v 0.1301817 0 9.023893E-17
v 0.1183593 0.03 9.023893E-17
v 0.002181742 0 -0.06556921
v 0.006130281 0.03 -0.05436661
v 0.0484865 0.03 -0.1046264
v 0.04618174 0 -0.1177794
v 0.04044807 0.03 -0.03133068
v 0.07419563 0.03 -0.08978318
v 0.05818174 0 -0.04156922
v 0.08818174 0 -0.09353074
v 0.1061817 0 -0.04156922
v 0.1002705 0.03 -0.03133068
v 0.08818174 0 0.09353074
v 0.04618174 0 0.1177794
v 0.07419563 0.03 0.08978318
v 0.0484865 0.03 0.1046264
v -0.07181726 0 -0.01887489
v -0.06157872 0.03 -0.0264555
v 0.05818174 0 0.04156922
v 0.04044807 0.03 0.03133068
v 0.002181742 0 0.06556921
v 0.006130281 0.03 0.05436661
v -0.117401 0.03 0.04348748
v -0.06157872 0.03 0.0264555
v -0.1073241 0.03 0.07651435
v -0.07181726 0 0.01887489
v -0.1144229 0 0.08833193
v -0.1301817 0 0.03668253

vn 0 1 0
vn -0.905205 0.3229923 -0.276188
vn 0.8196078 0.3229924 0.4732008
vn 0.1813269 0.3229923 -0.9288684
vn -0.7236845 0.3229923 -0.6098826
vn 0 0.3229923 -0.9464015
vn 0.8196078 0.3229924 -0.4732008
vn 0.4732008 0.3229924 0.8196078
vn -0.276188 0.3229923 0.905205
vn -0.7236845 0.3229923 0.6098826
vn 0 0.3229923 0.9464015
vn -0.9464015 0.3229923 0
vn 0 -1 0
vn 0.4732008 0.3229924 -0.8196078
vn 0.1813269 0.3229923 0.9288684
vn -0.276188 0.3229923 -0.905205
vn -0.905205 0.3229923 0.276188

vt 0 0
vt 0.1143754 -1.719489
vt -2.011609 -1.719489
vt -0.2887167 -0.4714966
vt -1.648163 -0.4714966
vt 0.672869 -1.433637
vt 0.9055943 -0.1856442
vt 2.562633 -1.433637
vt 2.329907 -0.1856442
vt 5.087684 -0.8236621
vt 0.4102947 -0.8236621
vt 4.724239 0.4243307
vt 0.1732174 0.4243307
vt -1.792243 0.731892
vt -2.029321 -0.5161008
vt -4.379936 0.731892
vt -4.717438 -0.5161008
vt 1.864457 0.8715636
vt 4.521745 0.8715636
vt 2.562633 -0.3764292
vt 4.924838 -0.3764292
vt -2.29062 -0.5286039
vt -4.180384 -0.5286039
vt -1.592444 0.7193889
vt -3.947658 0.7193889
vt -2.562633 -1.433637
vt -2.329907 -0.1856442
vt -0.672869 -1.433637
vt -0.9055943 -0.1856442
vt 1.165443 -1.590685
vt -0.7439042 -1.590685
vt 0.7623511 -0.342692
vt -0.4064028 -0.342692
vt -2.921234 -0.03694237
vt -5.323623 -0.03694237
vt -2.622784 1.21105
vt -4.920531 1.21105
vt -4.924838 -0.3764292
vt -4.521745 0.8715636
vt -2.562633 -0.3764292
vt -1.864457 0.8715636
vt 4.717438 -0.5161008
vt 2.029321 -0.5161008
vt 4.379936 0.731892
vt 1.792243 0.731892
vt 4.180384 -0.5286039
vt 2.29062 -0.5286039
vt 3.947658 0.7193889
vt 1.592444 0.7193889
vt -4.622086 -1.712106
vt -2.424359 -1.041555
vt -4.225359 -3.012376
vt 0.2413496 -2.140418
vt -1.636958 -0.3937008
vt -2.424359 1.041555
vt -0.8495561 -0.3937008
vt -0.8495561 0.3937008
vt -0.06215449 -0.3937008
vt 0.7252471 -0.3937008
vt 1.908918 -4.119148
vt 0.7252471 0.3937008
vt 1.592444 -1.233491
vt 2.921088 -3.534771
vt -1.636958 0.3937008
vt 0.2413496 2.140418
vt -4.225359 3.012376
vt -4.622086 1.712106
vt -0.06215449 0.3937008
vt 1.908918 4.119148
vt 1.592444 1.233491
vt 3.947658 -1.233491
vt 3.947658 1.233491
vt 4.659815 -3.552714E-15
vt 2.921088 3.534771
vt 1.041555 0.3347477
vt 0.7431058 -0.9132451
vt -1.041555 0.3347477
vt -0.7431058 -0.9132451
vt 5.125266 1.444194
vt 2.827451 0.7431058
vt 4.50484 3.477635
vt -0.08589537 2.581465
vt 2.827451 -0.7431058
vt -0.08589537 -2.581465
vt 4.50484 -3.477635
vt 5.125266 -1.444194
vt -1.818179 4.636986
vt -1.818179 -4.636986
vt -2.29062 1.636583
vt -3.471722 3.682313
vt -2.29062 -1.636583
vt -4.180384 -1.636583
vt -4.180384 1.636583
vt -5.125266 -3.552714E-15
vt -3.471722 -3.682313
vt 0.7439042 -1.590685
vt -1.165443 -1.590685
vt 0.4064028 -0.342692
vt -0.7623511 -0.342692
vt -0.4102947 -0.8236621
vt -5.087684 -0.8236621
vt -0.1732174 0.4243307
vt -4.724239 0.4243307
vt 5.323623 -0.03694237
vt 2.921234 -0.03694237
vt 4.920531 1.21105
vt 2.622784 1.21105
vt 2.011609 -1.719489
vt -0.1143754 -1.719489
vt 1.648163 -0.4714966
vt 0.2887167 -0.4714966

usemtl _defaultMat

f 3/1/1 2/1/1 1/1/1
f 2/1/1 3/1/1 4/1/1
f 7/1/1 6/1/1 5/1/1
f 6/1/1 7/1/1 8/1/1

usemtl brown

f 11/4/2 10/3/2 9/2/2
f 10/3/2 11/4/2 12/5/2
f 15/8/3 14/7/3 13/6/3
f 14/7/3 15/8/3 16/9/3
f 12/12/4 17/11/4 10/10/4
f 17/11/4 12/12/4 18/13/4
f 19/16/5 17/15/5 18/14/5
f 17/15/5 19/16/5 20/17/5
f 23/20/3 22/19/3 21/18/3
f 22/19/3 23/20/3 24/21/3
f 21/24/6 25/23/6 23/22/6
f 25/23/6 21/24/6 26/25/6
f 25/28/7 16/27/7 15/26/7
f 16/27/7 25/28/7 26/29/7
f 29/32/8 28/31/8 27/30/8
f 28/31/8 29/32/8 30/33/8
f 32/36/9 9/35/9 31/34/9
f 9/35/9 32/36/9 11/37/9
f 33/40/7 29/39/7 27/38/7
f 29/39/7 33/40/7 34/41/7
f 30/44/10 35/43/10 28/42/10
f 35/43/10 30/44/10 36/45/10
f 14/48/11 33/47/11 13/46/11
f 33/47/11 14/48/11 34/49/11
f 39/52/1 38/51/1 37/50/1
f 38/51/1 39/52/1 36/53/1
f 38/51/1 36/53/1 1/54/1
f 38/51/1 1/54/1 32/55/1
f 1/54/1 36/53/1 3/56/1
f 3/56/1 36/53/1 4/57/1
f 4/57/1 36/53/1 5/58/1
f 5/58/1 36/53/1 7/59/1
f 7/59/1 36/53/1 30/60/1
f 7/59/1 30/60/1 8/61/1
f 8/61/1 30/60/1 34/62/1
f 34/62/1 30/60/1 29/63/1
f 2/64/1 32/55/1 1/54/1
f 18/65/1 32/55/1 2/64/1
f 18/65/1 2/64/1 4/57/1
f 12/66/1 32/55/1 18/65/1
f 32/55/1 12/66/1 11/67/1
f 18/65/1 4/57/1 6/68/1
f 6/68/1 4/57/1 5/58/1
f 18/65/1 6/68/1 8/61/1
f 18/65/1 8/61/1 19/69/1
f 19/69/1 8/61/1 21/70/1
f 21/70/1 8/61/1 34/62/1
f 14/71/1 21/70/1 34/62/1
f 21/70/1 14/71/1 26/72/1
f 26/72/1 14/71/1 16/73/1
f 19/69/1 21/70/1 22/74/1
f 32/77/12 40/76/12 38/75/12
f 40/76/12 32/77/12 31/78/12
f 10/81/13 31/80/13 9/79/13
f 31/80/13 10/81/13 17/82/13
f 31/80/13 17/82/13 40/83/13
f 35/84/13 40/83/13 17/82/13
f 41/85/13 40/83/13 35/84/13
f 40/83/13 41/85/13 42/86/13
f 35/84/13 17/82/13 20/87/13
f 35/84/13 20/87/13 28/88/13
f 28/88/13 20/87/13 23/89/13
f 23/89/13 20/87/13 24/90/13
f 28/88/13 23/89/13 33/91/13
f 23/89/13 13/92/13 33/91/13
f 13/92/13 23/89/13 25/93/13
f 13/92/13 25/93/13 15/94/13
f 27/95/13 28/88/13 33/91/13
f 19/98/14 24/97/14 20/96/14
f 24/97/14 19/98/14 22/99/14
f 36/102/15 41/101/15 35/100/15
f 41/101/15 36/102/15 39/103/15
f 37/106/16 40/105/16 42/104/16
f 40/105/16 37/106/16 38/107/16
f 39/110/17 42/109/17 41/108/17
f 42/109/17 39/110/17 37/111/17

