# Created by Kenney (www.kenney.nl)

mtllib glassWine.mtl

g glassWine

v -0.05621932 0.3266 0.09846481
v -0.1133827 0.3266 0.0005450473
v -0.04385107 0.4998623 0.07680255
v -0.0884385 0.4998623 0.0004251369
v -0.09068233 0 0.0004359233
v -0.04496364 0 0.07875115
v -0.04571868 0 -0.07831524
v 0.04496364 0 -0.07875115
v 0.04571868 0 0.07831524
v 0.09068233 0 -0.0004359233
v 0.04571868 0.01761593 0.07831524
v 0.09068233 0.01761593 -0.0004359233
v 0.05716337 0.3266 0.09791977
v 0.04458743 0.4998623 0.07637741
v 0.1133827 0.3266 -0.0005450473
v 0.0884385 0.4998623 -0.0004251369
v -0.04496364 0.01761593 0.07875115
v 0.04385107 0.4998623 -0.07680255
v 0.05621932 0.3266 -0.09846481
v 0.04496364 0.01761593 -0.07875115
v -0.05716337 0.3266 -0.09791977
v -0.04458743 0.4998623 -0.07637741
v -0.09068233 0.01761593 0.0004359233
v -0.04571868 0.01761593 -0.07831524
v 0.07411319 0.4998623 -0.0003562731
v 0.08045454 0.3266 -0.0003867568
v 0.03674805 0.4998623 -0.06436204
v 0.03989233 0.3266 -0.06986905
v -0.04056221 0.3266 -0.0694823
v -0.03736513 0.4998623 -0.06400577
v -0.08045454 0.3266 0.0003867568
v -0.03989233 0.3266 0.06986905
v 0.04056221 0.3266 0.0694823
v -0.03674805 0.4998623 0.06436204
v 0.03736513 0.4998623 0.06400577
v -0.07411319 0.4998623 0.0003562731
v -0.01167083 0.04999181 5.610339E-05
v -0.005884 0.04999181 -0.01007918
v -0.005786826 0.04999181 0.01013528
v 0.005786826 0.04999181 -0.01013528
v 0.005884 0.04999181 0.01007918
v 0.01167083 0.04999181 -5.610339E-05
v -0.02516983 0.2685286 -0.04311544
v -0.005884 0.2532295 -0.01007918
v 0.02475415 0.2685286 -0.04335544
v 0.005786826 0.2532295 -0.01013528
v 0.09305602 0.2932804 -0.000447334
v 0.04614061 0.2932804 -0.08081254
v -0.01167083 0.2532295 5.610339E-05
v 0.005884 0.2532295 0.01007918
v 0.02516983 0.2685286 0.04311544
v 0.01167083 0.2532295 -5.610339E-05
v 0.04992399 0.2685286 -0.000239992
v -0.005786826 0.2532295 0.01013528
v -0.04992399 0.2685286 0.000239992
v -0.02475415 0.2685286 0.04335544
v -0.09305602 0.2932804 0.000447334
v -0.04691541 0.2932804 -0.0803652
v 0.04691541 0.2932804 0.0803652
v -0.04614061 0.2932804 0.08081254

vn -0.8569765 0.1237233 0.5002837
vn 0 -1 0
vn 0.8684189 0 0.4958312
vn 0.8617466 0.1237232 0.4920216
vn 0.004807092 0 0.9999884
vn 0.8569765 0.1237233 -0.5002837
vn 0.8636119 0 -0.5041573
vn -0.8617466 0.1237232 -0.4920216
vn -0.004770159 0.1237233 -0.9923053
vn -0.8684189 0 -0.4958312
vn -0.8636119 0 0.5041573
vn -0.004807092 0 -0.9999884
vn 0.004770159 0.1237233 0.9923053
vn -0.8631784 -0.03168071 0.5039042
vn 0.004804679 -0.03168071 0.9994864
vn 0 1 0
vn -0.004804679 -0.03168071 -0.9994864
vn 0.867983 -0.03168071 0.4955823
vn -0.867983 -0.03168071 -0.4955823
vn 0.8631784 -0.03168071 -0.5039042
vn -0.3714135 0.9039257 -0.2120617
vn -0.002055942 0.9039257 -0.4276844
vn -0.002015422 -0.9078662 -0.4192552
vn 0.7635925 -0.467137 -0.4457683
vn 0.3640934 -0.9078662 0.2078822
vn 0.3693576 0.9039257 -0.2156227
vn 0.362078 -0.9078662 -0.211373
vn 0.002055942 0.9039257 0.4276844
vn -0.362078 -0.9078662 0.211373
vn 0.002015422 -0.9078662 0.4192552
vn 0.3714135 0.9039257 0.2120617
vn -0.3640934 -0.9078662 -0.2078822
vn -0.3693576 0.9039257 0.2156227
vn -0.767843 -0.467137 -0.4384064
vn 0.004250358 -0.4671369 0.8841746
vn -0.004250358 -0.4671369 -0.8841746
vn -0.4770315 -0.8336005 0.2784803
vn -0.7635925 -0.467137 0.4457683
vn 0.002655284 -0.8336005 0.5523615
vn -0.002655284 -0.8336005 -0.5523615
vn 0.767843 -0.467137 0.4384064
vn -0.4796867 -0.8336005 -0.2738812
vn 0.4770315 -0.8336005 -0.2784803
vn 0.4796867 -0.8336005 0.2738812
vn 0.8569765 -0.1237233 -0.5002837
vn -0.8617466 -0.1237232 -0.4920216
vn -0.8569765 -0.1237233 0.5002837
vn 0.8617466 -0.1237232 0.4920216
vn 0.004770159 -0.1237233 0.9923053
vn -0.004770159 -0.1237233 -0.9923053
vn 0.8631784 0.03168071 -0.5039042
vn -0.004804679 0.03168071 -0.9994864
vn 0.004804679 0.03168071 0.9994864
vn -0.867983 0.03168071 -0.4955823
vn 0.867983 0.03168071 0.4955823
vn -0.8631784 0.03168071 0.5039042
vn 0.3714135 -0.9039257 0.2120617
vn 0.002055942 -0.9039257 0.4276844
vn 0.002015422 0.9078662 0.4192552
vn -0.7635925 0.467137 0.4457683
vn -0.3640934 0.9078662 -0.2078822
vn -0.3693576 -0.9039257 0.2156227
vn -0.362078 0.9078662 0.211373
vn -0.002055942 -0.9039257 -0.4276844
vn 0.362078 0.9078662 -0.211373
vn -0.002015422 0.9078662 -0.4192552
vn -0.3714135 -0.9039257 -0.2120617
vn 0.3640934 0.9078662 0.2078822
vn 0.3693576 -0.9039257 -0.2156227
vn 0.767843 0.467137 0.4384064
vn -0.004250358 0.4671369 -0.8841746
vn 0.004250358 0.4671369 0.8841746
vn 0.4770315 0.8336005 -0.2784803
vn 0.7635925 0.467137 -0.4457683
vn -0.002655284 0.8336005 -0.5523615
vn 0.002655284 0.8336005 0.5523615
vn -0.767843 0.467137 -0.4384064
vn 0.4796867 0.8336005 0.2738812
vn -0.4770315 0.8336005 0.2784803
vn -0.4796867 0.8336005 -0.2738812

vt 2.231968 12.28118
vt -2.231968 12.28118
vt 1.740935 19.15534
vt -1.740935 19.15534
vt 3.57017 -0.01716234
vt 1.770222 -3.100439
vt 1.799948 3.083277
vt -1.770222 3.100439
vt -1.799948 -3.083277
vt -3.57017 0.01716234
vt -1.785106 0
vt -1.785106 0.6935404
vt 1.785106 0
vt 1.785106 0.6935404
vt 1.458938 19.58969
vt 1.583769 12.76491
vt -1.458938 19.58969
vt -1.583769 12.76491
vt -3.481831 -0.01673768
vt -2.917842 -0.0140265
vt -1.72642 -3.023723
vt -1.446774 -2.533939
vt 1.755411 -3.006985
vt 1.471068 -2.519912
vt 2.917842 0.0140265
vt 3.481831 0.01673768
vt -1.755411 3.006985
vt -1.471068 2.519912
vt 1.72642 3.023723
vt 1.446774 2.533939
vt 1.785106 -2.498223
vt -1.785106 -2.498223
vt 0.2297433 0.4820735
vt -0.2297433 0.4820735
vt 0.982767 5.977786
vt 0.2297433 4.541148
vt -0.982767 5.977786
vt -0.2297433 4.541148
vt -1.831833 11.69136
vt -2.231968 13.17498
vt 1.831833 11.69136
vt 2.231968 13.17498
vt 0.2297433 9.969666
vt 0.2297433 1.968181
vt -0.2297433 9.969666
vt -0.2297433 1.968181
vt -1.831833 9.02277
vt 1.831833 9.02277
vt -0.982767 7.258586
vt 0.982767 7.258586

usemtl _defaultMat

f 3/3/1 2/2/1 1/1/1
f 2/2/1 3/3/1 4/4/1
f 7/7/2 6/6/2 5/5/2
f 6/6/2 7/7/2 8/8/2
f 6/6/2 8/8/2 9/9/2
f 9/9/2 8/8/2 10/10/2
f 10/13/3 11/12/3 9/11/3
f 11/12/3 10/13/3 12/14/3
f 15/1/4 14/4/4 13/2/4
f 14/4/4 15/1/4 16/3/4
f 11/14/5 6/11/5 9/13/5
f 6/11/5 11/14/5 17/12/5
f 15/2/6 18/3/6 16/4/6
f 18/3/6 15/2/6 19/1/6
f 8/13/7 12/12/7 10/11/7
f 12/12/7 8/13/7 20/14/7
f 4/3/8 21/2/8 2/1/8
f 21/2/8 4/3/8 22/4/8
f 22/3/9 19/2/9 21/1/9
f 19/2/9 22/3/9 18/4/9
f 24/12/10 5/13/10 23/14/10
f 5/13/10 24/12/10 7/11/10
f 23/12/11 6/13/11 17/14/11
f 6/13/11 23/12/11 5/11/11
f 24/14/12 8/11/12 7/13/12
f 8/11/12 24/14/12 20/12/12
f 14/3/13 1/2/13 13/1/13
f 1/2/13 14/3/13 3/4/13
f 27/17/14 26/16/14 25/15/14
f 26/16/14 27/17/14 28/18/14
f 27/15/15 29/18/15 28/16/15
f 29/18/15 27/15/15 30/17/15
f 32/18/16 29/15/16 31/17/16
f 29/18/16 32/15/16 28/17/16
f 28/18/16 32/15/16 33/17/16
f 28/18/16 33/15/16 26/17/16
f 34/15/17 33/18/17 32/16/17
f 33/18/17 34/15/17 35/17/17
f 29/16/18 36/17/18 31/18/18
f 36/17/18 29/16/18 30/15/18
f 35/15/19 26/18/19 33/16/19
f 26/18/19 35/15/19 25/17/19
f 3/21/16 36/20/16 4/19/16
f 36/20/16 3/21/16 34/22/16
f 34/22/16 3/21/16 14/23/16
f 34/22/16 14/23/16 35/24/16
f 35/24/16 14/23/16 25/25/16
f 25/25/16 14/23/16 16/26/16
f 36/20/16 22/27/16 4/19/16
f 22/27/16 36/20/16 30/28/16
f 22/27/16 30/28/16 18/29/16
f 18/29/16 25/25/16 16/26/16
f 18/29/16 30/28/16 27/30/16
f 18/29/16 27/30/16 25/25/16
f 31/16/20 34/17/20 32/18/20
f 34/17/20 31/16/20 36/15/20
f 37/33/21 24/32/21 23/31/21
f 24/32/21 37/33/21 38/34/21
f 38/32/2 39/33/2 37/34/2
f 39/32/2 38/33/2 40/34/2
f 39/32/2 40/33/2 41/34/2
f 41/32/2 40/33/2 42/34/2
f 38/33/22 20/32/22 24/31/22
f 20/32/22 38/33/22 40/34/22
f 45/37/23 44/36/23 43/35/23
f 44/36/23 45/37/23 46/38/23
f 48/41/24 15/40/24 47/39/24
f 15/40/24 48/41/24 19/42/24
f 44/45/10 37/44/10 49/43/10
f 37/44/10 44/45/10 38/46/10
f 44/43/12 40/46/12 38/44/12
f 40/46/12 44/43/12 46/45/12
f 52/36/25 51/37/25 50/38/25
f 51/37/25 52/36/25 53/35/25
f 42/34/26 20/31/26 40/33/26
f 20/31/26 42/34/26 12/32/26
f 49/45/11 39/44/11 54/43/11
f 39/44/11 49/45/11 37/46/11
f 45/35/27 52/38/27 46/36/27
f 52/38/27 45/35/27 53/37/27
f 42/44/3 50/45/3 41/46/3
f 50/45/3 42/44/3 52/43/3
f 40/44/7 52/45/7 42/46/7
f 52/45/7 40/44/7 46/43/7
f 11/31/28 39/34/28 17/32/28
f 39/34/28 11/31/28 41/33/28
f 49/38/29 56/35/29 55/37/29
f 56/35/29 49/38/29 54/36/29
f 54/38/30 51/35/30 56/37/30
f 51/35/30 54/38/30 50/36/30
f 50/43/5 39/46/5 41/44/5
f 39/46/5 50/43/5 54/45/5
f 11/32/31 42/33/31 41/34/31
f 42/33/31 11/32/31 12/31/31
f 43/37/32 49/36/32 55/35/32
f 49/36/32 43/37/32 44/38/32
f 17/31/33 37/34/33 23/32/33
f 37/34/33 17/31/33 39/33/33
f 21/40/34 57/41/34 2/42/34
f 57/41/34 21/40/34 58/39/34
f 13/42/35 60/39/35 59/41/35
f 60/39/35 13/42/35 1/40/35
f 21/42/36 48/39/36 58/41/36
f 48/39/36 21/42/36 19/40/36
f 55/49/37 60/48/37 57/47/37
f 60/48/37 55/49/37 56/50/37
f 2/40/38 60/41/38 1/42/38
f 60/41/38 2/40/38 57/39/38
f 56/49/39 59/48/39 60/47/39
f 59/48/39 56/49/39 51/50/39
f 48/47/40 43/50/40 58/48/40
f 43/50/40 48/47/40 45/49/40
f 59/39/41 15/42/41 13/40/41
f 15/42/41 59/39/41 47/41/41
f 58/47/42 55/50/42 57/48/42
f 55/50/42 58/47/42 43/49/42
f 48/48/43 53/49/43 45/50/43
f 53/49/43 48/48/43 47/47/43
f 53/50/44 59/47/44 51/49/44
f 59/47/44 53/50/44 47/48/44

usemtl [Translucent_Glass_Gray]

f 1/1/45 2/2/45 3/3/45
f 4/4/45 3/3/45 2/2/45
f 5/5/16 6/6/16 7/7/16
f 8/8/16 7/7/16 6/6/16
f 9/9/16 8/8/16 6/6/16
f 10/10/16 8/8/16 9/9/16
f 9/11/10 11/12/10 10/13/10
f 12/14/10 10/13/10 11/12/10
f 13/2/46 14/4/46 15/1/46
f 16/3/46 15/1/46 14/4/46
f 9/13/12 6/11/12 11/14/12
f 17/12/12 11/14/12 6/11/12
f 16/4/47 18/3/47 15/2/47
f 19/1/47 15/2/47 18/3/47
f 10/11/11 12/12/11 8/13/11
f 20/14/11 8/13/11 12/12/11
f 2/1/48 21/2/48 4/3/48
f 22/4/48 4/3/48 21/2/48
f 21/1/49 19/2/49 22/3/49
f 18/4/49 22/3/49 19/2/49
f 23/14/3 5/13/3 24/12/3
f 7/11/3 24/12/3 5/13/3
f 17/14/7 6/13/7 23/12/7
f 5/11/7 23/12/7 6/13/7
f 7/13/5 8/11/5 24/14/5
f 20/12/5 24/14/5 8/11/5
f 13/1/50 1/2/50 14/3/50
f 3/4/50 14/3/50 1/2/50
f 25/15/51 26/16/51 27/17/51
f 28/18/51 27/17/51 26/16/51
f 28/16/52 29/18/52 27/15/52
f 30/17/52 27/15/52 29/18/52
f 32/16/53 33/18/53 34/15/53
f 35/17/53 34/15/53 33/18/53
f 31/18/54 36/17/54 29/16/54
f 30/15/54 29/16/54 36/17/54
f 33/16/55 26/18/55 35/15/55
f 25/17/55 35/15/55 26/18/55
f 4/19/2 36/20/2 3/21/2
f 34/22/2 3/21/2 36/20/2
f 14/23/2 3/21/2 34/22/2
f 35/24/2 14/23/2 34/22/2
f 25/25/2 14/23/2 35/24/2
f 16/26/2 14/23/2 25/25/2
f 4/19/2 22/27/2 36/20/2
f 30/28/2 36/20/2 22/27/2
f 18/29/2 30/28/2 22/27/2
f 16/26/2 25/25/2 18/29/2
f 27/30/2 30/28/2 18/29/2
f 25/25/2 27/30/2 18/29/2
f 32/18/56 34/17/56 31/16/56
f 36/15/56 31/16/56 34/17/56
f 23/31/57 24/32/57 37/33/57
f 38/34/57 37/33/57 24/32/57
f 24/31/58 20/32/58 38/33/58
f 40/34/58 38/33/58 20/32/58
f 43/35/59 44/36/59 45/37/59
f 46/38/59 45/37/59 44/36/59
f 47/39/60 15/40/60 48/41/60
f 19/42/60 48/41/60 15/40/60
f 49/43/3 37/44/3 44/45/3
f 38/46/3 44/45/3 37/44/3
f 38/44/5 40/46/5 44/43/5
f 46/45/5 44/43/5 40/46/5
f 50/38/61 51/37/61 52/36/61
f 53/35/61 52/36/61 51/37/61
f 40/33/62 20/31/62 42/34/62
f 12/32/62 42/34/62 20/31/62
f 54/43/7 39/44/7 49/45/7
f 37/46/7 49/45/7 39/44/7
f 46/36/63 52/38/63 45/35/63
f 53/37/63 45/35/63 52/38/63
f 41/46/10 50/45/10 42/44/10
f 52/43/10 42/44/10 50/45/10
f 42/46/11 52/45/11 40/44/11
f 46/43/11 40/44/11 52/45/11
f 17/32/64 39/34/64 11/31/64
f 41/33/64 11/31/64 39/34/64
f 55/37/65 56/35/65 49/38/65
f 54/36/65 49/38/65 56/35/65
f 56/37/66 51/35/66 54/38/66
f 50/36/66 54/38/66 51/35/66
f 41/44/12 39/46/12 50/43/12
f 54/45/12 50/43/12 39/46/12
f 41/34/67 42/33/67 11/32/67
f 12/31/67 11/32/67 42/33/67
f 55/35/68 49/36/68 43/37/68
f 44/38/68 43/37/68 49/36/68
f 23/32/69 37/34/69 17/31/69
f 39/33/69 17/31/69 37/34/69
f 2/42/70 57/41/70 21/40/70
f 58/39/70 21/40/70 57/41/70
f 59/41/71 60/39/71 13/42/71
f 1/40/71 13/42/71 60/39/71
f 58/41/72 48/39/72 21/42/72
f 19/40/72 21/42/72 48/39/72
f 57/47/73 60/48/73 55/49/73
f 56/50/73 55/49/73 60/48/73
f 1/42/74 60/41/74 2/40/74
f 57/39/74 2/40/74 60/41/74
f 60/47/75 59/48/75 56/49/75
f 51/50/75 56/49/75 59/48/75
f 58/48/76 43/50/76 48/47/76
f 45/49/76 48/47/76 43/50/76
f 13/40/77 15/42/77 59/39/77
f 47/41/77 59/39/77 15/42/77
f 57/48/78 55/50/78 58/47/78
f 43/49/78 58/47/78 55/50/78
f 45/50/79 53/49/79 48/48/79
f 47/47/79 48/48/79 53/49/79
f 51/49/80 59/47/80 53/50/80
f 47/48/80 53/50/80 59/47/80

