# Created by Kenney (www.kenney.nl)

mtllib glass.mtl

g glass

v -0.06651075 0 -0.0384
v -2.707168E-16 0 -0.0768
v -0.0798129 0.285143 -0.04608
v 0 0.285143 -0.09216
v -2.707168E-16 0 0.0768
v -0.06651075 0 0.0384
v 0 0.285143 0.09216
v -0.0798129 0.285143 0.04608
v 0.0798129 0.285143 0.04608
v 0.0798129 0.285143 -0.04608
v 0.06651075 0 0.0384
v 0.06651075 0 -0.0384
v -0.05594931 0.03354624 0.03230235
v -0.05594931 0.03354624 -0.03230235
v 0 0.03354624 0.0646047
v -3.609557E-16 0.03354624 -0.0646047
v 0.05594931 0.03354624 -0.03230235
v 0.05594931 0.03354624 0.03230235
v 9.023893E-17 0.285143 0.07443585
v 0.06446334 0.285143 0.03721793
v 0.06446334 0.285143 -0.03721793
v -3.609557E-16 0.285143 -0.07443585
v -0.06446334 0.285143 -0.03721793
v -0.06446334 0.285143 0.03721793

vn -0.4994568 -0.04660011 -0.8650845
vn -0.4994568 -0.04660011 0.8650845
vn 0.9989136 -0.04660012 0
vn 0.4994568 -0.04660011 0.8650845
vn 0.4994568 -0.04660011 -0.8650845
vn -0.9989136 -0.04660012 0
vn 0 -1 0
vn 0 1 0
vn -0.499714 0.0338206 -0.86553
vn -0.499714 0.0338206 0.86553
vn 0.499714 0.0338206 0.86553
vn -0.9994279 0.0338206 0
vn 0.9994279 0.0338206 0
vn 0.499714 0.0338206 -0.86553

vt 0 0

usemtl _defaultMat

f 3/1/1 2/1/1 1/1/1
f 2/1/1 3/1/1 4/1/1
f 7/1/2 6/1/2 5/1/2
f 6/1/2 7/1/2 8/1/2
f 11/1/3 10/1/3 9/1/3
f 10/1/3 11/1/3 12/1/3
f 9/1/4 5/1/4 11/1/4
f 5/1/4 9/1/4 7/1/4
f 4/1/5 12/1/5 2/1/5
f 12/1/5 4/1/5 10/1/5
f 3/1/6 6/1/6 8/1/6
f 6/1/6 3/1/6 1/1/6
f 2/1/7 6/1/7 1/1/7
f 6/1/7 2/1/7 5/1/7
f 5/1/7 2/1/7 12/1/7
f 5/1/7 12/1/7 11/1/7
f 15/1/8 14/1/8 13/1/8
f 14/1/8 15/1/8 16/1/8
f 16/1/8 15/1/8 17/1/8
f 17/1/8 15/1/8 18/1/8
f 19/1/9 18/1/9 15/1/9
f 18/1/9 19/1/9 20/1/9
f 21/1/10 16/1/10 17/1/10
f 16/1/10 21/1/10 22/1/10
f 22/1/11 14/1/11 16/1/11
f 14/1/11 22/1/11 23/1/11
f 21/1/12 18/1/12 20/1/12
f 18/1/12 21/1/12 17/1/12
f 13/1/13 23/1/13 24/1/13
f 23/1/13 13/1/13 14/1/13
f 24/1/14 15/1/14 13/1/14
f 15/1/14 24/1/14 19/1/14
f 8/1/8 24/1/8 3/1/8
f 24/1/8 8/1/8 7/1/8
f 24/1/8 7/1/8 19/1/8
f 19/1/8 7/1/8 9/1/8
f 19/1/8 9/1/8 20/1/8
f 20/1/8 9/1/8 21/1/8
f 23/1/8 3/1/8 24/1/8
f 3/1/8 23/1/8 4/1/8
f 4/1/8 23/1/8 22/1/8
f 4/1/8 22/1/8 21/1/8
f 4/1/8 21/1/8 10/1/8
f 10/1/8 21/1/8 9/1/8

