# Created by Kenney (www.kenney.nl)

mtllib hotDogRaw.mtl

g hotDogRaw

v -0.29295 0.04832422 0.02710662
v -0.29295 0.0248492 0.01355331
v -0.29295 0.07179924 0.01355331
v -0.29295 0.07179924 -0.01355331
v -0.29295 0.0248492 -0.01355331
v -0.29295 0.04832422 -0.02710662
v -0.23715 0.09664843 -0.0279
v 0.23715 0.09664843 -0.0279
v -0.23715 0.09664843 0.0279
v 0.23715 0.09664843 0.0279
v -0.23715 5.639933E-17 -0.0279
v 0.23715 6.174598E-14 -0.0279
v -0.23715 0.04832422 -0.0558
v 0.23715 0.04832422 -0.0558
v -0.23715 0 0.0279
v -0.26505 0.01884644 0.017019
v -0.23715 0.04832422 0.0558
v -0.26505 0.04832422 0.034038
v 0.26505 0.01884644 -0.017019
v 0.26505 0.04832422 -0.034038
v 0.29295 0.0248492 -0.01355331
v 0.29295 0.04832422 -0.02710662
v 0.26505 0.03401018 -0.008264214
v 0.26505 0.04832422 -0.01652843
v 0.23715 6.165575E-14 0.0279
v 0.26505 0.07780199 -0.017019
v 0.23715 0.04832422 0.0558
v 0.26505 0.01884644 0.017019
v 0.26505 0.04832422 0.034038
v 0.26505 0.07780199 0.017019
v 0.29295 0.0248492 0.01355331
v 0.26505 0.03401018 0.008264213
v 0.29295 0.04832422 0.02710662
v 0.26505 0.04832422 0.01652843
v 0.26505 0.06263825 -0.008264214
v 0.29295 0.07179924 -0.01355331
v 0.26505 0.06263825 0.008264213
v 0.29295 0.07179924 0.01355331
v -0.26505 0.04832422 -0.034038
v -0.26505 0.07780199 -0.017019
v -0.26505 0.03401018 -0.008264214
v -0.26505 0.03401018 0.008264214
v -0.26505 0.04832422 -0.01652843
v -0.26505 0.07780199 0.017019
v -0.26505 0.04832422 0.01652843
v -0.26505 0.06263825 0.008264214
v -0.26505 0.06263825 -0.008264214
v -0.26505 0.01884644 -0.017019

vn -1 0 0
vn 0 1 0
vn 0 -0.5 -0.8660254
vn -0.5597574 -0.4143283 0.7176377
vn 0.5597574 -0.4143283 -0.7176377
vn -0.311964 -0.475047 -0.8228055
vn 0 -1 0
vn 0.5597574 0.4143283 -0.7176377
vn 0.5597574 -0.4143283 0.7176377
vn 0.5597574 0.4143283 0.7176377
vn -0.311964 -0.475047 0.8228055
vn -0.311964 0.475047 -0.8228055
vn 0 0.5 -0.8660254
vn 0.5597574 -0.8286566 0
vn -0.311964 -0.9500939 0
vn 0 -0.5 0.8660254
vn -0.311964 0.9500939 0
vn -0.5597574 0.4143283 -0.7176377
vn 1 0 0
vn 0.311964 -0.9500939 0
vn 0.311964 -0.475047 -0.8228055
vn 0 0.5 0.8660254
vn 0.5597574 0.8286566 0
vn -0.311964 0.475047 0.8228055
vn 0.311964 0.9500939 0
vn -0.5597574 -0.8286566 0
vn -0.5597574 0.8286566 0
vn 0.311964 -0.475047 0.8228055
vn -0.5597574 0.4143283 0.7176377
vn 0.311964 0.475047 0.8228055
vn -0.5597574 -0.4143283 -0.7176377
vn 0.311964 0.475047 -0.8228055

vt 1.06719 1.902528
vt 0.5335949 0.9783148
vt 0.5335949 2.826742
vt -0.5335949 2.826742
vt -0.5335949 0.9783148
vt -1.06719 1.902528
vt -9.336615 1.098425
vt 9.336615 1.098425
vt -9.336615 -1.098425
vt 9.336615 -1.098425
vt 9.336615 0.5492126
vt -9.336615 0.5492126
vt 9.336615 2.746063
vt -9.336615 2.746063
vt -6.686376 2.738058
vt -7.815957 3.553313
vt -6.010809 4.828455
vt -7.403862 4.828455
vt -6.686375 2.738058
vt -10.97352 -0.8444987
vt -11.16269 0.2057911
vt -9.872613 -0.4346295
vt -9.987961 0.2057911
vt -6.010809 -1.365368
vt -7.403862 -1.365368
vt -6.686375 0.7250291
vt -7.815957 -0.09022599
vt 6.686375 2.738058
vt 6.010809 4.828455
vt 7.815957 3.553313
vt 7.403862 4.828455
vt 6.010809 -1.365368
vt 6.686375 0.725029
vt 7.403862 -1.365368
vt 7.815957 -0.09022601
vt 10.97352 -0.8444986
vt 9.872613 -0.4346294
vt 11.16269 0.2057912
vt 9.987961 0.2057912
vt -9.987961 3.142508
vt -11.16269 3.142508
vt -9.872613 3.782929
vt -10.97352 4.192798
vt 1.098425 7.736846
vt -1.098425 7.736846
vt 0.6700394 9.062396
vt -0.6700394 9.062396
vt -0.3253626 -9.496552
vt 0.3253629 -9.496552
vt -0.5335947 -10.65268
vt 0.533595 -10.65268
vt -0.3253626 10.68359
vt -0.5335947 11.83972
vt 0.3253629 10.68359
vt 0.533595 11.83972
vt 7.815957 -0.09022599
vt 6.686376 0.7250291
vt -1.340079 1.902528
vt -0.6700395 3.063071
vt -0.6700395 0.741986
vt -0.6507256 1.902528
vt -0.3253629 1.338983
vt 0.6700392 0.741986
vt 0.3253626 1.338983
vt 0.6507254 1.902528
vt -0.3253629 2.466073
vt 0.6700392 3.063071
vt 0.3253626 2.466073
vt 1.340079 1.902528
vt 0.5335949 -10.65268
vt -0.5335949 -10.65268
vt 0.3253627 -9.496552
vt -0.3253627 -9.496552
vt 10.97352 -0.8444986
vt 9.872613 -0.4346294
vt 11.16269 0.2057911
vt 9.987961 0.2057911
vt 1.098425 -5.606938
vt 0.6700394 -6.932487
vt -1.098425 -5.606938
vt -0.6700394 -6.932487
vt 9.987961 3.142508
vt 9.872613 3.782929
vt 11.16269 3.142508
vt 10.97352 4.192798
vt -1.06719 1.902528
vt -0.533595 2.826742
vt -0.533595 0.9783148
vt 0.5335947 0.9783148
vt 0.5335947 2.826742
vt 1.06719 1.902528
vt 1.340079 1.902528
vt 0.6700394 0.741986
vt 0.6700394 3.063071
vt 0.6507255 1.902528
vt 0.3253627 2.466073
vt -0.6700394 3.063071
vt -0.3253627 2.466073
vt -0.6507255 1.902528
vt 0.3253627 1.338983
vt -0.6700394 0.741986
vt -0.3253627 1.338983
vt -1.340079 1.902528
vt 0.5335949 11.83972
vt 0.3253627 10.68359
vt -0.5335949 11.83972
vt -0.3253627 10.68359
vt -0.6700394 9.062396
vt -1.098425 7.736846
vt -0.6700394 -6.932487
vt -1.098425 -5.606938
vt -10.97352 -0.8444986
vt -11.16269 0.2057911
vt -9.872613 -0.4346294
vt -9.987961 0.2057911
vt -7.815957 -0.09022599
vt -6.686376 0.7250291
vt -10.97352 4.192798
vt 6.686376 2.738058

usemtl brownLight

f 3/3/1 2/2/1 1/1/1
f 2/2/1 3/3/1 4/4/1
f 2/2/1 4/4/1 5/5/1
f 5/5/1 4/4/1 6/6/1
f 9/9/2 8/8/2 7/7/2
f 8/8/2 9/9/2 10/10/2
f 13/13/3 12/12/3 11/11/3
f 12/12/3 13/13/3 14/14/3
f 17/17/4 16/16/4 15/15/4
f 16/16/4 17/17/4 18/18/4
f 14/17/5 19/16/5 12/19/5
f 19/16/5 14/17/5 20/18/5
f 23/22/6 22/21/6 21/20/6
f 22/21/6 23/22/6 24/23/6
f 12/7/7 15/10/7 11/8/7
f 15/10/7 12/7/7 25/9/7
f 8/26/8 20/25/8 14/24/8
f 20/25/8 8/26/8 26/27/8
f 28/30/9 27/29/9 25/28/9
f 27/29/9 28/30/9 29/31/9
f 29/34/10 10/33/10 27/32/10
f 10/33/10 29/34/10 30/35/10
f 33/38/11 32/37/11 31/36/11
f 32/37/11 33/38/11 34/39/11
f 35/42/12 22/41/12 24/40/12
f 22/41/12 35/42/12 36/43/12
f 7/13/13 14/12/13 13/11/13
f 14/12/13 7/13/13 8/14/13
f 19/46/14 25/45/14 12/44/14
f 25/45/14 19/46/14 28/47/14
f 21/50/15 32/49/15 23/48/15
f 32/49/15 21/50/15 31/51/15
f 25/11/16 17/14/16 15/12/16
f 17/14/16 25/11/16 27/13/16
f 37/54/17 36/53/17 35/52/17
f 36/53/17 37/54/17 38/55/17
f 40/56/18 13/32/18 39/34/18
f 13/32/18 40/56/18 7/57/18
f 28/60/19 30/59/19 29/58/19
f 30/59/19 28/60/19 34/61/19
f 34/61/19 28/60/19 32/62/19
f 32/62/19 28/60/19 19/63/19
f 32/62/19 19/63/19 23/64/19
f 23/64/19 19/63/19 24/65/19
f 37/66/19 30/59/19 34/61/19
f 30/59/19 37/66/19 26/67/19
f 26/67/19 24/65/19 19/63/19
f 26/67/19 37/66/19 35/68/19
f 26/67/19 35/68/19 24/65/19
f 26/67/19 19/63/19 20/69/19
f 41/72/20 2/71/20 5/70/20
f 2/71/20 41/72/20 42/73/20
f 6/76/21 41/75/21 5/74/21
f 41/75/21 6/76/21 43/77/21
f 27/11/22 9/14/22 17/12/22
f 9/14/22 27/11/22 10/13/22
f 10/80/23 26/79/23 8/78/23
f 26/79/23 10/80/23 30/81/23
f 33/84/24 37/83/24 34/82/24
f 37/83/24 33/84/24 38/85/24
f 31/88/19 38/87/19 33/86/19
f 38/87/19 31/88/19 21/89/19
f 38/87/19 21/89/19 36/90/19
f 36/90/19 21/89/19 22/91/19
f 44/94/1 16/93/1 18/92/1
f 16/93/1 44/94/1 45/95/1
f 45/95/1 44/94/1 46/96/1
f 46/96/1 44/94/1 40/97/1
f 46/96/1 40/97/1 47/98/1
f 47/98/1 40/97/1 43/99/1
f 42/100/1 16/93/1 45/95/1
f 16/93/1 42/100/1 48/101/1
f 48/101/1 43/99/1 40/97/1
f 48/101/1 42/100/1 41/102/1
f 48/101/1 41/102/1 43/99/1
f 48/101/1 40/97/1 39/103/1
f 3/106/25 47/105/25 4/104/25
f 47/105/25 3/106/25 46/107/25
f 11/109/26 16/46/26 48/108/26
f 16/46/26 11/109/26 15/44/26
f 44/79/27 7/111/27 40/110/27
f 7/111/27 44/79/27 9/78/27
f 42/114/28 1/113/28 2/112/28
f 1/113/28 42/114/28 45/115/28
f 17/24/29 44/116/29 18/25/29
f 44/116/29 17/24/29 9/117/29
f 45/40/30 3/118/30 1/41/30
f 3/118/30 45/40/30 46/42/30
f 48/30/31 13/29/31 11/119/31
f 13/29/31 48/30/31 39/31/31
f 4/85/32 43/82/32 6/84/32
f 43/82/32 4/85/32 47/83/32

