# Created by Kenney (www.kenney.nl)

mtllib hotDog.mtl

g hotDog

v -0.1768112 0.1315627 -0.07595775
v 0.1768112 0.1315627 -0.07595775
v -0.1768112 0.1315627 -0.04696831
v 0.1768112 0.1315627 -0.04696831
v -0.2140112 0.1121838 2.774847E-14
v -0.2140112 0.1184064 -0.03557465
v -0.1768112 3.6988E-09 0.03620301
v -0.1768112 0.02285727 0.06383514
v 0.1768112 0 0.03620301
v 0.1768112 0.02285727 0.06383514
v -0.1768112 0.1315627 0.04696831
v 0.1768112 0.1315627 0.04696831
v -0.1768112 0.1315627 0.07595775
v 0.1768112 0.1315627 0.07595775
v -0.2140112 0.1184064 0.03557465
v 0.1768112 0.08770845 0.101277
v -0.1768112 0.08770846 0.101277
v -0.2140112 0.01315627 0.02896241
v -0.2140112 0.03144209 0.05106812
v -0.2140112 0.1184064 -0.0607662
v 0.1768112 0.02285727 -0.06383514
v 0.2140112 0.03144208 -0.05106812
v 0.1768112 0.08770845 -0.101277
v 0.2140112 0.08332303 -0.0810216
v 0.2140112 0.1121838 -4.786047E-14
v 0.2140112 0.08332303 0.0810216
v 0.2140112 0.1184064 0.0607662
v 0.2140112 0.03144208 0.05106812
v 0.2140112 0.1184064 0.03557465
v 0.2140112 0.01315627 0.02896241
v 0.2140112 0.01315627 -0.02896241
v 0.2140112 0.1184064 -0.03557465
v 0.2140112 0.1184064 -0.0607662
v -0.1768112 0.02285727 -0.06383514
v -0.1768112 0.08770846 -0.101277
v -0.2140112 0.08332304 0.0810216
v -0.2140112 0.1184064 0.0607662
v -0.2140112 0.01315627 -0.02896241
v -0.2140112 0.03144209 -0.05106812
v -0.2140112 0.08332304 -0.0810216
v -0.1768112 3.698817E-09 -0.03620301
v 0.1768112 9.475088E-15 -0.03620301
v 0.1768112 3.33884E-15 -5.635421E-14

vn 0 1 0
vn -0.2834756 0.9446373 0.165233
vn 0 -0.770541 0.6373905
vn -0.2834756 0.9446373 -0.165233
vn 0 -0.5 0.8660254
vn -0.3686432 -0.7162725 0.5924996
vn -0.3334253 0.9427766 0
vn 0.3814154 -0.4622018 -0.8005571
vn 0 0.9244078 0.3814057
vn 0 0.9244078 -0.3814057
vn 1 0 0
vn 0 -0.5 -0.8660254
vn -1 0 0
vn 0.4686348 0.441696 -0.76504
vn -0.3814155 -0.4622019 -0.8005572
vn 0 -0.770541 -0.6373905
vn 0.3334253 0.9427766 0
vn -0.3686432 -0.7162725 -0.5924996
vn 0.3686432 -0.7162726 0.5924996
vn 0.3814154 -0.4622018 0.8005571
vn -0.3814155 -0.4622019 0.8005572
vn -0.4686347 0.441696 0.7650399
vn 0.2834756 0.9446373 0.165233
vn -0.4686347 0.441696 -0.7650399
vn 0.3334253 -0.9427766 0
vn -0.3334253 -0.9427766 0
vn 0 0.5 0.8660254
vn 0.4686348 0.441696 0.76504
vn 0 0.5 -0.8660254
vn 0 -1 0
vn 0.3686432 -0.7162726 -0.5924996
vn 0.2834756 0.9446373 -0.165233

vt -6.961071 2.990463
vt 6.961071 2.990463
vt -6.961071 1.849146
vt 6.961071 1.849146
vt -4.242987 -5.427126
vt -5.453013 -4.680487
vt -5.103026 -3.101891
vt -6.961071 1.098264
vt -6.961071 2.510103
vt 6.961071 1.098264
vt 6.961071 2.510103
vt -6.961071 -1.849146
vt 6.961071 -1.849146
vt -6.961071 -2.990463
vt 6.961071 -2.990463
vt 5.453013 -4.680487
vt 4.242987 -5.427126
vt 5.103026 -3.101891
vt 6.961071 2.035927
vt -6.961071 2.035927
vt 6.961071 4.984104
vt -6.961071 4.984105
vt -6.551599 4.243094
vt -6.091837 5.274755
vt -5.157485 3.500836
vt -4.582782 4.790411
vt -2.39237 -6.389175
vt -2.990463 -4.835713
vt -1.400577 -6.389175
vt -1.849146 -4.835713
vt -5.20331 3.230529
vt -6.741675 3.611668
vt -4.569282 6.109723
vt -6.234453 5.915023
vt -8.425638 1.684549
vt -6.961071 3.684907
vt 8.425638 1.684549
vt 6.961071 3.684906
vt 8.425638 1.684549
vt -8.425638 1.684549
vt 6.961071 3.684907
vt -6.961071 3.684906
vt -3.189827 3.280434
vt -2.39237 4.66167
vt -2.010556 1.237877
vt -1.400577 4.66167
vt -1.140252 0.5179632
vt 2.272498E-12 4.416685
vt 1.140252 0.5179632
vt 1.400577 4.66167
vt 2.010556 1.237877
vt 2.39237 4.66167
vt 3.189827 3.280434
vt -6.961071 2.035927
vt -6.961071 4.984104
vt 6.961071 2.035927
vt 6.961071 4.984105
vt 3.189827 3.280435
vt 2.010556 1.237877
vt 1.140252 0.5179633
vt -4.705861E-13 4.416686
vt -1.140252 0.5179633
vt -2.010556 1.237877
vt -3.189827 3.280435
vt -5.518591 -0.2023164
vt -5.935143 1.33724
vt -3.853158 -0.009871954
vt -4.373848 1.914573
vt 5.20331 3.230529
vt 4.569282 6.109723
vt 6.741675 3.611668
vt 6.234453 5.915023
vt 6.961071 1.098264
vt -6.961071 1.098264
vt 6.961071 2.510103
vt -6.961071 2.510103
vt 6.551599 4.243094
vt 5.157485 3.500836
vt 6.091837 5.274755
vt 4.582782 4.790411
vt 5.157485 3.500835
vt 4.582782 4.790411
vt 6.5516 4.243094
vt 6.091837 5.274755
vt 6.741675 3.611668
vt 2.990463 -4.835713
vt 2.39237 -6.389175
vt 1.849146 -4.835713
vt 1.400577 -6.389175
vt -6.741675 3.611668
vt -5.518591 -0.2023164
vt -5.935143 1.33724
vt -3.853158 -0.009871831
vt 4.242987 -5.427126
vt 5.518591 -0.2023164
vt 3.853158 -0.009871831
vt 5.935143 1.33724
vt 4.373848 1.914573
vt 1.425315 6.562734
vt -1.705655E-12 6.562734
vt 1.140252 8.116196
vt -1.425315 6.562734
vt -1.140252 8.116196
vt 6.961071 0.9968207
vt -6.961071 0.9968211
vt -6.961071 2.990463
vt 5.518591 -0.2023164
vt 3.853158 -0.009871954
vt 5.935143 1.33724
vt -6.961071 0.9968207
vt 6.961071 0.9968211
vt 6.961071 2.990463
vt 6.961071 1.425315
vt 6.961071 -1.425315
vt -6.961071 1.425315
vt -6.961071 -1.425315
vt -6.961071 2.21867E-12
vt -5.157485 3.500835
vt -6.5516 4.243094
vt -4.582782 4.790411
vt -6.091837 5.274755
vt -4.242987 -5.427126

usemtl brownLight

f 3/3/1 2/2/1 1/1/1
f 2/2/1 3/3/1 4/4/1
f 3/7/2 6/6/2 5/5/2
f 9/10/3 8/9/3 7/8/3
f 8/9/3 9/10/3 10/11/3
f 13/14/1 12/13/1 11/12/1
f 12/13/1 13/14/1 14/15/1
f 11/18/4 5/17/4 15/16/4
f 16/21/5 8/20/5 10/19/5
f 8/20/5 16/21/5 17/22/5
f 7/25/6 19/24/6 18/23/6
f 19/24/6 7/25/6 8/26/6
f 6/29/7 1/28/7 20/27/7
f 1/28/7 6/29/7 3/30/7
f 23/33/8 22/32/8 21/31/8
f 22/32/8 23/33/8 24/34/8
f 25/37/9 3/36/9 5/35/9
f 3/36/9 25/37/9 4/38/9
f 11/41/10 25/40/10 5/39/10
f 25/40/10 11/41/10 12/42/10
f 28/45/11 27/44/11 26/43/11
f 27/44/11 28/45/11 29/46/11
f 29/46/11 28/45/11 30/47/11
f 29/46/11 30/47/11 25/48/11
f 25/48/11 30/47/11 31/49/11
f 25/48/11 31/49/11 32/50/11
f 32/50/11 31/49/11 22/51/11
f 32/50/11 22/51/11 33/52/11
f 33/52/11 22/51/11 24/53/11
f 34/56/12 23/55/12 21/54/12
f 23/55/12 34/56/12 35/57/12
f 37/52/13 19/59/13 36/58/13
f 19/59/13 37/52/13 15/50/13
f 19/59/13 15/50/13 18/60/13
f 18/60/13 15/50/13 5/61/13
f 18/60/13 5/61/13 38/62/13
f 38/62/13 5/61/13 6/46/13
f 38/62/13 6/46/13 39/63/13
f 39/63/13 6/46/13 20/44/13
f 39/63/13 20/44/13 40/64/13
f 23/67/14 33/66/14 24/65/14
f 33/66/14 23/67/14 2/68/14
f 39/71/15 35/70/15 34/69/15
f 35/70/15 39/71/15 40/72/15
f 34/75/16 42/74/16 41/73/16
f 42/74/16 34/75/16 21/76/16
f 14/28/17 29/29/17 12/30/17
f 29/29/17 14/28/17 27/27/17
f 39/79/18 41/78/18 38/77/18
f 41/78/18 39/79/18 34/80/18
f 30/83/19 10/82/19 9/81/19
f 10/82/19 30/83/19 28/84/19
f 28/85/20 16/70/20 10/69/20
f 16/70/20 28/85/20 26/72/20
f 4/88/17 33/87/17 2/86/17
f 33/87/17 4/88/17 32/89/17
f 17/33/21 19/90/21 8/31/21
f 19/90/21 17/33/21 36/34/21
f 17/93/22 37/92/22 36/91/22
f 37/92/22 17/93/22 13/68/22
f 25/94/23 32/16/23 4/18/23
f 20/97/24 35/96/24 40/95/24
f 35/96/24 20/97/24 1/98/24
f 31/101/25 43/100/25 42/99/25
f 43/100/25 31/101/25 9/102/25
f 9/102/25 31/101/25 30/103/25
f 41/102/26 18/101/26 38/103/26
f 18/101/26 41/102/26 7/99/26
f 14/2/27 17/105/27 16/104/27
f 17/105/27 14/2/27 13/106/27
f 27/109/28 16/108/28 26/107/28
f 16/108/28 27/109/28 14/98/28
f 35/111/29 2/1/29 23/110/29
f 2/1/29 35/111/29 1/112/29
f 42/115/30 7/114/30 41/113/30
f 7/114/30 42/115/30 9/116/30
f 9/116/30 42/115/30 43/117/30
f 21/120/31 31/119/31 42/118/31
f 31/119/31 21/120/31 22/121/31
f 25/122/32 12/7/32 29/6/32
f 37/87/7 11/88/7 15/89/7
f 11/88/7 37/87/7 13/86/7

g sauce

v -0.231577 0.1399494 -4.018875E-09
v -0.1929808 0.1462494 0.01108203
v -0.231577 0.1399494 0.02216407
v -0.1543847 0.1399494 -0.02216408
v -0.1543847 0.1462494 -0.02216408
v -0.1929808 0.1399494 -0.01108204
v -0.1929808 0.1462494 -0.01108204
v 0.07719233 0.1399494 0.02216407
v 0.07719233 0.1462494 0.02216407
v 0.1157885 0.1399494 0.01108203
v 0.1157885 0.1462494 0.01108203
v -0.07719233 0.1399494 0.02216407
v -0.07719233 0.1462494 0.02216407
v -0.03859616 0.1399494 0.01108203
v -0.03859616 0.1462494 0.01108203
v -5.9176E-12 0.1399494 -0.02216408
v -5.9176E-12 0.1462494 -0.02216408
v -0.03859616 0.1399494 -0.01108204
v -0.03859616 0.1462494 -0.01108204
v 0.03859616 0.1399494 -0.01108204
v 0.03859616 0.1462494 -0.01108204
v -0.1157885 0.1399494 -0.01108204
v -0.1157885 0.1462494 -0.01108204
v -0.1929808 0.1399494 0.01108203
v -0.1157885 0.1399494 0.01108203
v -0.1157885 0.1462494 0.01108203
v 0.1543847 0.1399494 -0.02216408
v 0.1929808 0.1399494 -0.01108204
v 0.1543847 0.1462494 -0.02216408
v 0.1929808 0.1462494 -0.01108204
v 0.231577 0.1399494 0.02216407
v 0.1929808 0.1399494 0.01108203
v 0.1929808 0.1462494 0.01108203
v 0.1157885 0.1399494 -0.01108204
v 0.1157885 0.1462494 -0.01108204
v 0.03859616 0.1399494 0.01108203
v 0.03859616 0.1462494 0.01108203
v -5.904152E-12 0.1462494 -4.019018E-09
v -0.1543847 0.1462494 -4.018924E-09
v 0.1543847 0.1462494 -4.019112E-09
v -0.07719233 0.1462494 -4.018971E-09
v 0.07719233 0.1462494 -4.019065E-09
v 0.231577 0.1399494 -4.019156E-09
v -0.1543847 0.1525494 -4.018926E-09
v -0.07719233 0.1525494 -0.02216408
v -0.07719233 0.1399494 -0.02216408
v 0.07719233 0.1525494 -4.019066E-09
v -5.889983E-12 0.1525494 0.02216407
v -5.889983E-12 0.1399494 0.02216407
v -0.1929808 0.1525494 -0.01108204
v -0.1929808 0.1525494 0.01108203
v -0.231577 0.1399494 -0.02216408
v 0.231577 0.1399494 -0.02216408
v 0.1929808 0.1525494 -0.01108204
v 0.1929808 0.1525494 0.01108203
v 0.1543847 0.1525494 -4.019113E-09
v 0.1543847 0.1525494 0.02216407
v 0.07719233 0.1525494 -0.02216408
v -5.903431E-12 0.1525494 -4.019019E-09
v -0.07719233 0.1525494 -4.018972E-09
v -0.1543847 0.1525494 0.02216407
v 0.07719233 0.1399494 -0.02216408
v -0.1543847 0.1399494 0.02216407
v 0.1543847 0.1399494 0.02216407

vn -0.1610967 0.9869386 -2.73282E-13
vn -0.2759771 -3.613364E-13 -0.9611642
vn 0.2759771 3.613364E-13 0.9611642
vn 0.2759771 -3.613364E-13 -0.9611642
vn -0.2759771 3.613364E-13 0.9611642
vn -2.638897E-26 1 -3.759361E-13
vn 0.1610967 0.9869386 -4.687697E-13
vn -0.3103389 0.950626 -1.690795E-13
vn 0.3103389 0.950626 -5.456698E-13

vt -2.919317E-14 -8.99812
vt 0.4363006 -7.458477
vt 0.8726013 -8.99812
vt 5.601269 -4.012113E-14
vt 5.601269 0.2480315
vt 7.182199 -3.390388E-14
vt 7.182199 0.2480315
vt 2.680225 6.621208E-15
vt 2.680225 0.2480315
vt 4.261156 1.283846E-14
vt 4.261156 0.2480315
vt -3.161861 6.910422E-28
vt -3.161861 0.2480315
vt -1.580931 6.217249E-15
vt -1.580931 0.2480315
vt -0.240818 1.700081E-15
vt -0.240818 0.2480315
vt 1.340113 7.91733E-15
vt 1.340113 0.2480315
vt 0.240818 -6.602061E-15
vt -1.340113 -3.848122E-16
vt 0.240818 0.2480315
vt -1.340113 0.2480315
vt 6.082905 6.708591E-17
vt 4.501974 6.284335E-15
vt 6.082905 0.2480315
vt 4.501974 0.2480315
vt -7.423018 -4.694466E-14
vt -9.003948 -5.316191E-14
vt -7.423018 0.2480315
vt -2.680225 2.313733E-14
vt -4.261156 2.935458E-14
vt -2.680225 0.2480315
vt -4.261156 0.2480315
vt -5.601269 6.881979E-14
vt -7.182199 7.503704E-14
vt -5.601269 0.2480315
vt -7.182199 0.2480315
vt 9.003948 1.38221E-13
vt 7.423018 1.444382E-13
vt 7.423018 0.2480315
vt -6.082905 4.931189E-15
vt -6.082905 0.2480315
vt -4.501974 1.114844E-14
vt -4.501974 0.2480315
vt 3.161861 -5.226203E-29
vt 1.580931 6.217249E-15
vt 3.161861 0.2480315
vt 1.580931 0.2480315
vt -1.519534 -0.4363006
vt 1.421085E-14 -2.842171E-14
vt 1.421085E-14 -0.8726013
vt 1.519534 -0.4363006
vt 4.558602 -0.4363006
vt 6.078136 -2.842171E-14
vt 6.078136 -0.8726013
vt 7.59767 -0.4363006
vt -7.59767 -0.4363006
vt -6.078136 -2.842171E-14
vt -6.078136 -0.8726013
vt -4.558602 -0.4363006
vt 1.519534 0.4363006
vt 3.039068 0.8726013
vt 3.039068 -2.842171E-14
vt 4.558602 0.4363006
vt -4.558602 0.4363006
vt -3.039068 0.8726013
vt -3.039068 -2.842171E-14
vt -1.519534 0.4363006
vt 2.765025E-14 -8.99812
vt -0.8726013 -8.99812
vt -0.4363006 -7.458477
vt 5.842087 0.2480315
vt 5.842087 0.496063
vt 2.680225 0.496063
vt 2.680225 -5.459406E-15
vt 4.261156 -1.167666E-14
vt 2.921043 0.2480315
vt 2.921043 0.496063
vt -0.240818 0.496063
vt -0.240818 2.579192E-14
vt 1.340113 1.957467E-14
vt -0.4363006 -7.068595
vt 0.4363006 -7.068595
vt -0.8726013 -8.667051
vt -2.277053E-13 -8.667051
vt 0.8726013 -8.667051
vt 2.471045E-13 -8.667051
vt -7.59767 0.4363006
vt -6.078136 2.131628E-14
vt -6.078136 0.8726013
vt -3.039068 -0.8726013
vt -3.039068 2.131628E-14
vt -1.421085E-14 2.131628E-14
vt -1.421085E-14 0.8726013
vt 3.039068 -0.8726013
vt 3.039068 2.131628E-14
vt 6.078136 2.131628E-14
vt 6.078136 0.8726013
vt 7.59767 0.4363006
vt 7.423018 1.405934E-13
vt 9.003948 1.468106E-13
vt 7.423018 0.496063
vt 5.815224E-15 0.2480315
vt -7.77616E-15 0.496063
vt -3.161861 0.496063
vt -3.161861 1.24345E-14
vt -7.182199 6.368958E-14
vt -5.601269 6.990683E-14
vt -5.601269 0.496063
vt -7.182199 0.496063
vt -8.76313 5.747233E-14
vt 3.161861 1.24345E-14
vt 3.161861 0.496063
vt 2.150271E-14 0.2480315
vt -1.954177E-14 0.496063
vt -2.921043 0.2480315
vt -2.921043 0.496063
vt -6.082905 0.496063
vt -6.082905 5.052282E-16
vt -4.501974 -5.712021E-15
vt -4.261156 -1.856539E-14
vt -2.680225 -1.234814E-14
vt -2.680225 0.496063
vt -5.842087 0.2480315
vt -5.842087 0.496063
vt -7.423018 0.496063
vt -9.003948 6.020504E-14
vt -7.423018 5.398779E-14
vt -1.340113 1.51222E-14
vt 0.240818 2.133945E-14
vt 0.240818 0.496063
vt 4.501974 -3.107744E-15
vt 6.082905 3.109505E-15
vt 6.082905 0.496063
vt 8.76313 1.042165E-14
vt 7.182199 0.496063
vt 5.601269 0.496063
vt 5.601269 2.285615E-14
vt 7.182199 1.66389E-14

usemtl yellow

f 46/125/33 45/124/33 44/123/33
f 49/128/34 48/127/34 47/126/34
f 48/127/34 49/128/34 50/129/34
f 53/132/35 52/131/35 51/130/35
f 52/131/35 53/132/35 54/133/35
f 57/136/35 56/135/35 55/134/35
f 56/135/35 57/136/35 58/137/35
f 61/140/34 60/139/34 59/138/34
f 60/139/34 61/140/34 62/141/34
f 60/144/36 63/143/36 59/142/36
f 63/143/36 60/144/36 64/145/36
f 48/148/36 65/147/36 47/146/36
f 65/147/36 48/148/36 66/149/36
f 45/152/35 46/151/35 67/150/35
f 56/155/37 68/154/37 55/153/37
f 68/154/37 56/155/37 69/156/37
f 72/159/36 71/158/36 70/157/36
f 71/158/36 72/159/36 73/160/36
f 76/163/37 75/162/37 74/161/37
f 77/166/34 72/165/34 70/164/34
f 72/165/34 77/166/34 78/167/34
f 52/170/37 79/169/37 51/168/37
f 79/169/37 52/170/37 80/171/37
f 60/174/38 81/173/38 64/172/38
f 81/173/38 60/174/38 62/175/38
f 48/178/38 82/177/38 66/176/38
f 82/177/38 48/178/38 50/179/38
f 72/182/38 83/181/38 73/180/38
f 83/181/38 72/182/38 78/183/38
f 84/186/38 56/185/38 58/184/38
f 56/185/38 84/186/38 69/187/38
f 85/190/38 52/189/38 54/188/38
f 52/189/38 85/190/38 80/191/38
f 76/194/39 74/193/39 86/192/39

usemtl red

f 87/196/34 66/133/34 82/195/34
f 88/197/34 66/133/34 87/196/34
f 89/198/34 66/133/34 88/197/34
f 66/133/34 89/198/34 65/199/34
f 90/201/35 80/141/35 85/200/35
f 91/202/35 80/141/35 90/201/35
f 92/203/35 80/141/35 91/202/35
f 80/141/35 92/203/35 79/204/35
f 95/207/40 94/206/40 93/205/40
f 94/206/40 95/207/40 44/208/40
f 97/206/41 86/210/41 96/209/41
f 86/210/41 97/206/41 98/205/41
f 99/212/38 98/211/38 97/180/38
f 98/211/38 99/212/38 100/213/38
f 100/213/38 99/212/38 101/214/38
f 100/213/38 101/214/38 90/215/38
f 90/215/38 101/214/38 102/216/38
f 90/215/38 102/216/38 91/217/38
f 91/217/38 102/216/38 88/218/38
f 91/217/38 88/218/38 103/219/38
f 103/219/38 88/218/38 87/220/38
f 103/219/38 87/220/38 104/221/38
f 104/221/38 87/220/38 93/179/38
f 104/221/38 93/179/38 94/222/38
f 95/224/36 50/163/36 49/223/36
f 50/163/36 95/224/36 93/225/36
f 50/163/36 93/225/36 82/195/36
f 82/195/36 93/225/36 87/196/36
f 102/227/34 64/137/34 81/226/34
f 101/228/34 64/137/34 102/227/34
f 105/229/34 64/137/34 101/228/34
f 64/137/34 105/229/34 63/136/34
f 106/231/37 45/160/37 67/230/37
f 45/160/37 106/231/37 104/232/37
f 94/233/37 45/160/37 104/232/37
f 45/160/37 94/233/37 44/234/37
f 89/235/36 62/171/36 61/169/36
f 62/171/36 89/235/36 88/236/36
f 62/171/36 88/236/36 81/237/36
f 81/237/36 88/236/36 102/238/36
f 103/240/35 69/167/35 84/239/35
f 104/241/35 69/167/35 103/240/35
f 106/242/35 69/167/35 104/241/35
f 69/167/35 106/242/35 68/243/35
f 105/245/36 78/156/36 77/244/36
f 78/156/36 105/245/36 101/246/36
f 78/156/36 101/246/36 83/247/36
f 83/247/36 101/246/36 99/248/36
f 99/248/34 73/152/34 83/247/34
f 97/249/34 73/152/34 99/248/34
f 96/250/34 73/152/34 97/249/34
f 73/152/34 96/250/34 71/251/34
f 92/253/37 58/145/37 57/252/37
f 58/145/37 92/253/37 91/254/37
f 58/145/37 91/254/37 84/239/37
f 84/239/37 91/254/37 103/240/37
f 107/256/37 54/149/37 53/255/37
f 54/149/37 107/256/37 100/257/37
f 54/149/37 100/257/37 85/200/37
f 85/200/37 100/257/37 90/201/37
f 98/259/35 76/129/35 86/258/35
f 100/260/35 76/129/35 98/259/35
f 107/261/35 76/129/35 100/260/35
f 76/129/35 107/261/35 75/262/35

g sausage

v 0.23715 0.04330093 -0.0279
v 0.26505 0.06214738 -0.017019
v 0.23715 0.09162515 -0.05580001
v 0.26505 0.09162515 -0.034038
v 0.23715 0.09162515 0.0558
v -0.23715 0.09162515 0.0558
v 0.23715 0.1399494 0.0279
v -0.23715 0.1399494 0.0279
v -0.23715 0.04330094 -0.0279
v -0.23715 0.09162515 -0.05580001
v -0.23715 0.1399494 -0.02790001
v 0.23715 0.1399494 -0.02790001
v -0.23715 0.04330094 0.0279
v 0.23715 0.04330093 0.0279
v 0.29295 0.09162515 0.02710662
v 0.29295 0.1151002 0.01355331
v 0.29295 0.0681501 0.01355331
v 0.29295 0.0681501 -0.01355331
v 0.29295 0.1151002 -0.01355332
v 0.29295 0.09162515 -0.02710662
v -0.26505 0.09162515 0.034038
v -0.26505 0.1211029 0.017019
v -0.26505 0.1211029 -0.017019
v -0.29295 0.09162515 -0.02710662
v -0.26505 0.09162515 -0.01652843
v -0.29295 0.1151002 -0.01355331
v -0.26505 0.1059392 -0.008264217
v -0.26505 0.06214739 0.017019
v -0.29295 0.09162515 0.02710662
v -0.29295 0.06815013 0.01355331
v -0.29295 0.1151002 0.01355331
v -0.29295 0.06815013 -0.01355331
v -0.26505 0.07731111 0.008264209
v -0.26505 0.09162515 0.01652842
v -0.26505 0.06214739 -0.017019
v -0.26505 0.09162515 -0.034038
v -0.26505 0.1059392 0.00826421
v -0.26505 0.07731111 -0.008264217
v 0.26505 0.09162515 0.034038
v 0.26505 0.1211029 0.017019
v 0.26505 0.0773111 -0.008264218
v 0.26505 0.0773111 0.008264209
v 0.26505 0.09162515 0.01652842
v 0.26505 0.1059392 0.00826421
v 0.26505 0.1059392 -0.008264217
v 0.26505 0.09162515 -0.01652843
v 0.26505 0.1211029 -0.017019
v 0.26505 0.06214738 0.017019

vn 0.5205743 -0.3853253 -0.667403
vn 0 0.465 0.8054036
vn 0 -0.465 -0.8054036
vn 0 0.93 0
vn 0 0.465 -0.8054036
vn 0 -0.93 0
vn 0 -0.465 0.8054036
vn 0.93 0 0
vn -0.5205743 0.3853253 0.667403
vn -0.5205743 0.7706506 0
vn 0.2901265 0.4417937 -0.7652091
vn -0.5205743 -0.3853253 0.6674031
vn -0.93 0 0
vn 0.2901265 -0.4417937 0.7652091
vn -0.5205743 -0.3853253 -0.667403
vn -0.5205743 0.3853253 -0.6674031
vn 0.2901265 0.8835874 0
vn 0.2901265 -0.4417937 -0.7652091
vn 0.2901265 0.4417937 0.7652091
vn -0.5205743 -0.7706506 0
vn 0.2901265 -0.8835874 0
vn 0.5205743 0.3853253 0.667403
vn -0.2901265 -0.8835874 0
vn -0.2901265 -0.4417937 0.7652091
vn -0.2901265 0.8835874 0
vn -0.2901265 -0.4417937 -0.7652091
vn -0.2901265 0.4417937 -0.7652091
vn -0.2901265 0.4417937 0.7652091
vn 0.5205743 0.7706506 0
vn 0.5205743 -0.7706506 0
vn 0.5205743 -0.3853253 0.6674031
vn 0.5205743 0.3853253 -0.6674031

vt -1.181102 17.45072
vt -0.7204725 18.87605
vt 1.181102 17.45072
vt 0.7204725 18.87605
vt 1.181102 22.44094
vt 1.181102 2.362205
vt -1.181102 22.44094
vt -1.181102 2.362205
vt -1.147516 1.776357E-15
vt -0.5737579 0.9937779
vt -0.5737579 -0.9937779
vt 0.5737579 -0.9937779
vt 0.5737579 0.9937779
vt 1.147516 1.776357E-15
vt 1.181102 3.102568
vt 0.7204725 1.677247
vt -1.181102 3.102568
vt -0.7204725 1.677247
vt -0.5737579 -0.3100229
vt -0.3498524 0.9331198
vt 0.5737579 -0.3100229
vt 0.3498524 0.9331198
vt 1.147516 -1.776357E-15
vt 0.573758 -0.9937779
vt 0.573758 0.9937779
vt -0.5737579 0.9937779
vt -0.5737579 -0.9937779
vt -1.147516 -1.776357E-15
vt 0.5737579 -0.3100229
vt -0.5737579 -0.3100229
vt 0.3498524 0.9331198
vt -0.3498524 0.9331198
vt 1.440945 5.329071E-15
vt 0.7204725 -1.247895
vt 0.7204725 1.247895
vt 0.6997048 1.776357E-15
vt 0.3498524 0.6059622
vt -0.7204724 1.247895
vt -0.3498524 0.6059622
vt -0.6997048 -1.776357E-15
vt 0.3498524 -0.6059622
vt -0.7204724 -1.247895
vt -0.3498524 -0.6059622
vt -1.440945 5.329071E-15
vt -0.5737579 -0.3100229
vt 0.573758 -0.3100229
vt 0.5737579 -0.3100229
vt -0.573758 -0.3100229
vt 0.3498524 22.6322
vt -0.3498524 22.6322
vt 0.5737579 23.87535
vt -0.5737579 23.87535
vt -1.440945 8.881784E-15
vt -0.7204725 1.247895
vt -0.7204725 -1.247895
vt -0.6997048 1.776357E-15
vt -0.3498524 -0.6059622
vt 0.3498524 -0.6059622
vt 0.6997048 5.329071E-15
vt -0.3498524 0.6059622
vt 0.3498524 0.6059622
vt 1.440945 8.881784E-15

usemtl brown

f 110/265/42 109/264/42 108/263/42
f 109/264/42 110/265/42 111/266/42
f 114/269/43 113/268/43 112/267/43
f 113/268/43 114/269/43 115/270/43
f 117/268/44 108/269/44 116/270/44
f 108/269/44 117/268/44 110/267/44
f 114/267/45 118/270/45 115/268/45
f 118/270/45 114/267/45 119/269/45
f 118/268/46 110/269/46 117/270/46
f 110/269/46 118/268/46 119/267/46
f 108/267/47 120/270/47 116/268/47
f 120/270/47 108/267/47 121/269/47
f 112/269/48 120/268/48 121/267/48
f 120/268/48 112/269/48 113/270/48
f 124/273/49 123/272/49 122/271/49
f 123/272/49 124/273/49 125/274/49
f 123/272/49 125/274/49 126/275/49
f 126/275/49 125/274/49 127/276/49
f 115/279/50 128/278/50 113/277/50
f 128/278/50 115/279/50 129/280/50
f 129/278/51 118/279/51 130/280/51
f 118/279/51 129/278/51 115/277/51
f 133/283/52 132/282/52 131/281/52
f 132/282/52 133/283/52 134/284/52
f 113/279/53 135/278/53 120/277/53
f 135/278/53 113/279/53 128/280/53
f 138/287/54 137/286/54 136/285/54
f 137/286/54 138/287/54 133/288/54
f 137/286/54 133/288/54 139/289/54
f 139/289/54 133/288/54 131/290/54
f 140/293/55 136/292/55 137/291/55
f 136/292/55 140/293/55 141/294/55
f 142/280/56 117/277/56 116/279/56
f 117/277/56 142/280/56 143/278/56
f 129/297/54 135/296/54 128/295/54
f 135/296/54 129/297/54 141/298/54
f 141/298/54 129/297/54 144/299/54
f 144/299/54 129/297/54 130/300/54
f 144/299/54 130/300/54 134/301/54
f 134/301/54 130/300/54 132/302/54
f 140/303/54 135/296/54 141/298/54
f 135/296/54 140/303/54 142/304/54
f 142/304/54 132/302/54 130/300/54
f 142/304/54 140/303/54 145/305/54
f 142/304/54 145/305/54 132/302/54
f 142/304/54 130/300/54 143/306/54
f 143/280/57 118/277/57 117/279/57
f 118/277/57 143/280/57 130/278/57
f 138/308/58 134/282/58 133/307/58
f 134/282/58 138/308/58 144/284/58
f 131/283/59 145/294/59 139/281/59
f 145/294/59 131/283/59 132/293/59
f 141/284/60 138/292/60 136/291/60
f 138/292/60 141/284/60 144/282/60
f 116/277/61 135/280/61 142/278/61
f 135/280/61 116/277/61 120/279/61
f 145/293/62 137/310/62 139/309/62
f 137/310/62 145/293/62 140/294/62
f 146/266/63 114/263/63 112/265/63
f 114/263/63 146/266/63 147/264/63
f 125/313/64 149/312/64 148/311/64
f 149/312/64 125/313/64 124/314/64
f 122/314/65 149/311/65 124/313/65
f 149/311/65 122/314/65 150/312/65
f 123/313/66 152/312/66 151/311/66
f 152/312/66 123/313/66 126/314/66
f 148/312/67 127/313/67 125/314/67
f 127/313/67 148/312/67 153/311/67
f 153/312/68 126/313/68 127/314/68
f 126/313/68 153/312/68 152/311/68
f 123/314/69 150/311/69 122/313/69
f 150/311/69 123/314/69 151/312/69
f 147/266/70 119/263/70 114/265/70
f 119/263/70 147/266/70 154/264/70
f 109/266/71 121/263/71 108/265/71
f 121/263/71 109/266/71 155/264/71
f 155/266/72 112/263/72 121/265/72
f 112/263/72 155/266/72 146/264/72
f 119/265/73 111/264/73 110/263/73
f 111/264/73 119/265/73 154/266/73
f 155/317/49 147/316/49 146/315/49
f 147/316/49 155/317/49 150/318/49
f 150/318/49 155/317/49 149/319/49
f 149/319/49 155/317/49 109/296/49
f 149/319/49 109/296/49 148/320/49
f 148/320/49 109/296/49 153/321/49
f 151/322/49 147/316/49 150/318/49
f 147/316/49 151/322/49 154/297/49
f 154/297/49 153/321/49 109/296/49
f 154/297/49 151/322/49 152/323/49
f 154/297/49 152/323/49 153/321/49
f 154/297/49 109/296/49 111/324/49

