# Created by Kenney (www.kenney.nl)

mtllib leek.mtl

g leek

v 0.04288647 0.5940889 0.02214
v 0.0269005 0.4139 0.01466083
v 0.04288647 0.5940889 -0.02214
v 0.0269005 0.4139 -0.01466083
v 0.07972783 0.6705574 0.03321
v 0.07972783 0.6705574 -0.03321
v 0.1364703 0.7102032 0.01107
v 0.1364703 0.7102032 -0.01107
v -0.05130054 0.8081552 0.03321
v -0.08704831 0.8474299 0.01107
v -0.05130054 0.8081552 -0.03321
v -0.08704831 0.8474299 -0.01107
v -0.03321 0.754904 -0.05130054
v -0.01107 0.785953 -0.08704831
v 0.03321 0.754904 -0.05130054
v 0.01107 0.785953 -0.08704831
v -0.02809048 0.7324023 0.02214
v -0.02809048 0.7324023 -0.02214
v 0.009820567 0.5539 -0.01801932
v -0.009820567 0.5539 -0.01801932
v 0.02214 0.6950168 -0.02809048
v -0.02214 0.6950168 -0.02809048
v -0.01801932 0.5539 0.009820567
v -0.01801932 0.5539 -0.009820567
v -0.03321 0.7674743 0.05130054
v 0.03321 0.7674743 0.05130054
v -0.01107 0.8004651 0.08704831
v 0.01107 0.8004651 0.08704831
v -0.009820567 0.5539 0.01801932
v 0.009820567 0.5539 0.01801932
v -0.02214 0.703842 0.02809048
v 0.02214 0.703842 0.02809048
v 0.01466083 0.4139 -0.0269005
v -0.01466083 0.4139 -0.0269005
v 0.02214 0.6258869 -0.04288647
v -0.02214 0.6258869 -0.04288647
v 0.03321 0.7158499 -0.07972782
v -0.03321 0.7158499 -0.07972783
v -0.01107 0.7624919 -0.1364703
v 0.01107 0.7624919 -0.1364703
v -0.03321 0.6705574 0.07972783
v 0.03321 0.6705574 0.07972783
v -0.01107 0.7102032 0.1364703
v 0.01107 0.7102032 0.1364703
v -0.01466083 0.4139 0.0269005
v 0.01466083 0.4139 0.0269005
v -0.02214 0.5940889 0.04288647
v 0.02214 0.5940889 0.04288647
v 0.02809048 0.7324023 0.02214
v 0.01801932 0.5539 0.009820567
v 0.02809048 0.7324023 -0.02214
v 0.01801932 0.5539 -0.009820567
v 0.05130054 0.8081552 0.03321
v 0.05130054 0.8081552 -0.03321
v 0.08704831 0.8474299 0.01107
v 0.08704831 0.8474299 -0.01107
v -0.07972783 0.6705574 0.03321
v -0.07972783 0.6705574 -0.03321
v -0.04288647 0.5940889 0.02214
v -0.04288647 0.5940889 -0.02214
v -0.1364703 0.7102032 0.01107
v -0.1364703 0.7102032 -0.01107
v -0.0269005 0.4139 0.01466083
v -0.0269005 0.4139 -0.01466083
v -0.01684901 0.153076 -0.0309155
v 0.01684901 0.153076 -0.0309155
v -0.01684901 0.153076 0.0309155
v -0.0309155 0.153076 0.01684901
v -0.0309155 0.153076 -0.01684901
v 0.0309155 0.153076 -0.01684901
v 0.0309155 0.153076 0.01684901
v 0.01684901 0.153076 0.0309155
v -0.02308084 0.032802 0.04235
v -0.01846467 0 0.03388
v -0.04235 0.032802 0.02308084
v -0.03388 0 0.01846467
v 0.01846467 0 0.03388
v 0.02308084 0.032802 0.04235
v 0.04235 0.032802 0.02308084
v 0.04235 0.032802 -0.02308084
v 0.03388 0 0.01846467
v 0.03388 0 -0.01846467
v -0.03388 0 -0.01846467
v -0.01846467 0 -0.03388
v -0.04235 0.032802 -0.02308084
v -0.02308084 0.032802 -0.04235
v 0.01846467 0 -0.03388
v 0.02308084 0.032802 -0.04235

vn -0.9960877 0.08837079 0
vn 0.9960877 -0.08837079 0
vn -0.5727449 0.8197336 0
vn 0.5727449 -0.8197336 0
vn -0.900895 0.4340371 0
vn 0.900895 -0.4340371 0
vn 0.7395322 0.6731212 0
vn -0.7395322 -0.6731212 0
vn 0 0.7549819 0.6557456
vn 0 -0.7549819 -0.6557456
vn 0.9561278 0.2929498 0
vn -0.9561278 -0.2929498 0
vn 0 0.07118649 0.997463
vn 0 -0.07118649 -0.997463
vn 0.9984121 0.05633076 0
vn -0.9984121 -0.05633076 0
vn 0 0.3613722 0.9324217
vn 0 -0.3613722 -0.9324217
vn 0 0.7348772 -0.6782002
vn 0 -0.7348772 0.6782002
vn 0 0.06701609 -0.9977519
vn 0 -0.06701609 0.9977519
vn 0 0.3426688 -0.9394563
vn 0 -0.3426688 0.9394563
vn 0 0.0751967 0.9971687
vn 0 -0.0751967 -0.9971687
vn 0 0.3789704 0.9254088
vn 0 -0.3789704 -0.9254088
vn 0 0.7725114 0.6350009
vn 0 -0.7725114 -0.6350009
vn 0 0.8197336 -0.5727449
vn 0 -0.8197336 0.5727449
vn 0 0.08837079 -0.9960877
vn 0 -0.08837079 0.9960877
vn 0 0.4340371 -0.900895
vn 0 -0.4340371 0.900895
vn -0.9984121 0.05633076 0
vn 0.9984121 -0.05633076 0
vn -0.9561278 0.2929498 0
vn 0.9561278 -0.2929498 0
vn -0.7395322 0.6731212 0
vn 0.7395322 -0.6731212 0
vn 0.900895 0.4340371 0
vn -0.900895 -0.4340371 0
vn 0.5727449 0.8197336 0
vn -0.5727449 -0.8197336 0
vn 0.9960877 0.08837079 0
vn -0.9960877 -0.08837079 0
vn 0 0.0153917 -0.9998815
vn -0.7070069 0.01681476 0.7070069
vn -0.9998815 0.0153917 0
vn -0.7070069 0.01681476 -0.7070069
vn 0.7070069 0.01681476 -0.7070069
vn 0.9998815 0.0153917 0
vn 0 0.0153917 0.9998815
vn 0.7070069 0.01681476 0.7070069
vn -0.6805467 -0.2715002 0.6805467
vn 0 -0.2500155 0.9682418
vn 0.9682418 -0.2500155 0
vn -0.6805467 -0.2715002 -0.6805467
vn 0 -0.2500155 -0.9682418
vn 0 -1 0
vn 0 0.09464368 -0.9955113
vn -0.7033234 0.103307 0.7033234
vn -0.9682418 -0.2500155 0
vn -0.7033234 0.103307 -0.7033234
vn 0.9955113 0.09464368 0
vn 0.6805467 -0.2715002 -0.6805467
vn -0.9955113 0.09464368 0
vn 0.6805467 -0.2715002 0.6805467
vn 0.7033234 0.103307 0.7033234
vn 0.7033234 0.103307 -0.7033234
vn 0 0.09464368 0.9955113
vn 0 0.06330974 -0.9979939
vn 0 0.06330974 0.9979939
vn 0.9979939 0.06330974 0
vn 0.7054148 0.0691379 0.7054148
vn -0.7054148 0.0691379 -0.7054148
vn -0.7054148 0.0691379 0.7054148
vn -0.9979939 0.06330974 0
vn 0.7054148 0.0691379 -0.7054148
vn 0 1 0

vt 0.8716536 23.44703
vt 0.577198 16.32511
vt -0.8716536 23.44703
vt -0.577198 16.32511
vt 1.30748 17.69346
vt -1.30748 17.69346
vt 0.4358268 20.41868
vt -0.4358268 20.41868
vt 1.30748 25.14593
vt 0.8716536 21.80417
vt -1.30748 25.14593
vt -0.8716536 21.80417
vt -1.30748 24.8893
vt -0.4358268 26.98015
vt 1.30748 24.8893
vt 0.4358268 26.98015
vt -1.30748 21.01401
vt -0.4358268 22.87815
vt 1.30748 21.01401
vt 0.4358268 22.87815
vt -1.30748 31.01292
vt 1.30748 31.01292
vt -0.8716536 27.89367
vt 0.8716536 27.89367
vt 0.3866365 21.80226
vt -0.3866365 21.80226
vt 0.8716536 27.37218
vt -0.8716536 27.37218
vt -0.8716536 28.85125
vt 0.8716536 28.85125
vt -0.3866365 21.81242
vt 0.3866365 21.81242
vt 0.8716536 25.91338
vt -0.8716536 25.91338
vt 1.30748 28.44203
vt -1.30748 28.44203
vt 1.30748 21.97641
vt -1.30748 21.97641
vt 0.4358268 23.89155
vt -0.4358268 23.89155
vt 0.3866365 21.8056
vt -0.3866365 21.8056
vt 0.8716536 27.72213
vt -0.8716536 27.72213
vt 0.8716536 26.41159
vt -0.8716536 26.41159
vt 1.30748 29.07825
vt -1.30748 29.07825
vt 0.577198 16.32878
vt -0.577198 16.32878
vt 0.8716536 24.69842
vt -0.8716536 24.69842
vt 0.8716536 23.44307
vt -0.8716536 23.44307
vt 1.30748 27.2704
vt -1.30748 27.2704
vt -1.30748 20.3211
vt -0.4358268 23.21291
vt 1.30748 20.3211
vt 0.4358267 23.21291
vt 0.7094221 0.3866365
vt 0.7094221 -0.3866365
vt 0.3866365 0.7094221
vt 0.577198 16.19554
vt -0.577198 16.19554
vt 0.3866365 21.71843
vt -0.3866365 21.71843
vt -0.3407383 16.17629
vt -0.2282438 21.70132
vt 0.3407383 16.17629
vt 0.2282438 21.70132
vt -0.7094221 -0.3866365
vt -0.7094221 0.3866365
vt -0.3866365 -0.7094221
vt -0.3866365 0.7094221
vt 0.3866365 -0.7094221

usemtl green

f 3/3/1 2/2/1 1/1/1
f 2/2/1 3/3/1 4/4/1
f 1/1/2 2/2/2 3/3/2
f 4/4/2 3/3/2 2/2/2
f 7/7/3 6/6/3 5/5/3
f 6/6/3 7/7/3 8/8/3
f 5/5/4 6/6/4 7/7/4
f 8/8/4 7/7/4 6/6/4
f 6/11/5 1/10/5 5/9/5
f 1/10/5 6/11/5 3/12/5
f 5/9/6 1/10/6 6/11/6
f 3/12/6 6/11/6 1/10/6
f 11/15/7 10/14/7 9/13/7
f 10/14/7 11/15/7 12/16/7
f 9/13/8 10/14/8 11/15/8
f 12/16/8 11/15/8 10/14/8
f 15/19/9 14/18/9 13/17/9
f 14/18/9 15/19/9 16/20/9
f 13/17/10 14/18/10 15/19/10
f 16/20/10 15/19/10 14/18/10
f 17/23/11 11/22/11 9/21/11
f 11/22/11 17/23/11 18/24/11
f 9/21/12 11/22/12 17/23/12
f 18/24/12 17/23/12 11/22/12
f 21/27/13 20/26/13 19/25/13
f 20/26/13 21/27/13 22/28/13
f 19/25/14 20/26/14 21/27/14
f 22/28/14 21/27/14 20/26/14
f 23/31/15 18/30/15 17/29/15
f 18/30/15 23/31/15 24/32/15
f 17/29/16 18/30/16 23/31/16
f 24/32/16 23/31/16 18/30/16
f 15/35/17 22/34/17 21/33/17
f 22/34/17 15/35/17 13/36/17
f 21/33/18 22/34/18 15/35/18
f 13/36/18 15/35/18 22/34/18
f 27/39/19 26/38/19 25/37/19
f 26/38/19 27/39/19 28/40/19
f 25/37/20 26/38/20 27/39/20
f 28/40/20 27/39/20 26/38/20
f 31/43/21 30/42/21 29/41/21
f 30/42/21 31/43/21 32/44/21
f 29/41/22 30/42/22 31/43/22
f 32/44/22 31/43/22 30/42/22
f 25/47/23 32/46/23 31/45/23
f 32/46/23 25/47/23 26/48/23
f 31/45/24 32/46/24 25/47/24
f 26/48/24 25/47/24 32/46/24
f 35/51/25 34/50/25 33/49/25
f 34/50/25 35/51/25 36/52/25
f 33/49/26 34/50/26 35/51/26
f 36/52/26 35/51/26 34/50/26
f 37/55/27 36/54/27 35/53/27
f 36/54/27 37/55/27 38/56/27
f 35/53/28 36/54/28 37/55/28
f 38/56/28 37/55/28 36/54/28
f 37/59/29 39/58/29 38/57/29
f 39/58/29 37/59/29 40/60/29
f 38/57/30 39/58/30 37/59/30
f 40/60/30 37/59/30 39/58/30
f 43/7/31 42/6/31 41/5/31
f 42/6/31 43/7/31 44/8/31
f 41/5/32 42/6/32 43/7/32
f 44/8/32 43/7/32 42/6/32
f 47/1/33 46/4/33 45/2/33
f 46/4/33 47/1/33 48/3/33
f 45/2/34 46/4/34 47/1/34
f 48/3/34 47/1/34 46/4/34
f 41/9/35 48/12/35 47/10/35
f 48/12/35 41/9/35 42/11/35
f 47/10/36 48/12/36 41/9/36
f 42/11/36 41/9/36 48/12/36
f 51/29/37 50/32/37 49/30/37
f 50/32/37 51/29/37 52/31/37
f 49/30/38 50/32/38 51/29/38
f 52/31/38 51/29/38 50/32/38
f 54/21/39 49/24/39 53/22/39
f 49/24/39 54/21/39 51/23/39
f 53/22/40 49/24/40 54/21/40
f 51/23/40 54/21/40 49/24/40
f 55/16/41 54/13/41 53/15/41
f 54/13/41 55/16/41 56/14/41
f 53/15/42 54/13/42 55/16/42
f 56/14/42 55/16/42 54/13/42
f 59/12/43 58/9/43 57/11/43
f 58/9/43 59/12/43 60/10/43
f 57/11/44 58/9/44 59/12/44
f 60/10/44 59/12/44 58/9/44
f 57/6/45 62/7/45 61/8/45
f 62/7/45 57/6/45 58/5/45
f 61/8/46 62/7/46 57/6/46
f 58/5/46 57/6/46 62/7/46
f 63/4/47 60/1/47 59/3/47
f 60/1/47 63/4/47 64/2/47
f 59/3/48 60/1/48 63/4/48
f 64/2/48 63/4/48 60/1/48

usemtl _defaultMat

f 34/30/49 66/31/49 65/32/49
f 66/30/49 34/31/49 33/32/49
f 45/30/50 68/31/50 67/32/50
f 68/30/50 45/31/50 63/32/50
f 63/30/51 69/31/51 68/32/51
f 69/30/51 63/31/51 64/32/51
f 34/30/52 69/31/52 64/32/52
f 69/30/52 34/31/52 65/32/52
f 70/30/53 33/31/53 4/32/53
f 33/30/53 70/31/53 66/32/53
f 70/30/54 2/31/54 71/32/54
f 2/30/54 70/31/54 4/32/54
f 46/30/55 67/31/55 72/32/55
f 67/30/55 46/31/55 45/32/55
f 71/30/56 46/31/56 72/32/56
f 46/30/56 71/31/56 2/32/56
f 75/13/57 74/16/57 73/14/57
f 74/13/57 75/16/57 76/14/57
f 78/13/58 74/16/58 77/14/58
f 74/13/58 78/16/58 73/14/58
f 81/13/59 80/16/59 79/14/59
f 80/13/59 81/16/59 82/14/59
f 85/13/60 84/16/60 83/14/60
f 84/13/60 85/16/60 86/14/60
f 86/13/61 87/16/61 84/14/61
f 87/13/61 86/16/61 88/14/61
f 84/1/62 76/4/62 83/2/62
f 76/1/62 84/4/62 74/2/62
f 74/1/62 84/4/62 87/2/62
f 74/1/62 87/4/62 77/2/62
f 77/1/62 87/4/62 82/2/62
f 77/1/62 82/4/62 81/2/62
f 65/1/63 88/4/63 86/2/63
f 88/1/63 65/4/63 66/2/63
f 67/1/64 75/4/64 73/2/64
f 75/1/64 67/4/64 68/2/64
f 85/1/65 76/4/65 75/2/65
f 76/1/65 85/4/65 83/2/65
f 65/1/66 85/4/66 69/2/66
f 85/1/66 65/4/66 86/2/66
f 80/1/67 71/4/67 79/2/67
f 71/1/67 80/4/67 70/2/67
f 87/1/68 80/4/68 82/2/68
f 80/1/68 87/4/68 88/2/68
f 68/1/69 85/4/69 75/2/69
f 85/1/69 68/4/69 69/2/69
f 77/1/70 79/4/70 78/2/70
f 79/1/70 77/4/70 81/2/70
f 79/1/71 72/4/71 78/2/71
f 72/1/71 79/4/71 71/2/71
f 80/63/72 66/62/72 70/61/72
f 66/63/72 80/62/72 88/61/72
f 72/63/73 73/62/73 78/61/73
f 73/63/73 72/62/73 67/61/73

usemtl greenDark

f 20/66/74 33/65/74 34/64/74
f 33/65/74 20/66/74 19/67/74
f 30/66/75 45/65/75 46/64/75
f 45/65/75 30/66/75 29/67/75
f 4/64/76 50/67/76 2/65/76
f 50/67/76 4/64/76 52/66/76
f 2/70/77 30/69/77 46/68/77
f 30/69/77 2/70/77 50/71/77
f 24/71/78 34/68/78 64/70/78
f 34/68/78 24/71/78 20/69/78
f 29/71/79 63/68/79 45/70/79
f 63/68/79 29/71/79 23/69/79
f 23/66/80 64/65/80 63/64/80
f 64/65/80 23/66/80 24/67/80
f 19/71/81 4/68/81 33/70/81
f 4/68/81 19/71/81 52/69/81
f 29/74/82 24/73/82 23/72/82
f 24/73/82 29/74/82 20/75/82
f 20/75/82 29/74/82 30/76/82
f 20/75/82 30/76/82 19/63/82
f 19/63/82 30/76/82 50/62/82
f 19/63/82 50/62/82 52/61/82

