# Created by Kenney (www.kenney.nl)

mtllib lemonHalf.mtl

g lemonHalf

v -0.08660254 0.112 0.05
v -0.07621023 0.072 0.044
v -0.08660254 0.112 -0.05
v -0.07621023 0.072 -0.044
v -1.082867E-15 0.016 0.032508
v -3.609557E-16 0.04 0.06959999
v 0.02815275 0.016 0.016254
v 0.06027536 0.04 0.0348
v -3.609557E-16 0 0.021156
v -0.01832163 0 0.010578
v -0.02815275 0.016 0.016254
v 0.01832163 0 0.010578
v 0.07621023 0.072 0.044
v 3.609557E-16 0.072 0.088
v 0.08660254 0.112 0.05
v 3.609557E-16 0.112 0.1
v 3.609557E-16 0.072 -0.088
v 3.609557E-16 0.112 -0.1
v -0.06027536 0.04 -0.0348
v -3.609557E-16 0.04 -0.06959999
v 0.06027536 0.04 -0.0348
v 0.07621023 0.072 -0.044
v -1.082867E-15 0.016 -0.032508
v 0.02815275 0.016 -0.016254
v -0.02815275 0.016 -0.016254
v -0.01832163 0 -0.010578
v -0.06027536 0.04 0.0348
v 0.01832163 0 -0.010578
v -3.609557E-16 0 -0.021156
v 0.08660254 0.112 -0.05
v -0.06790655 0.112 0.03585593
v -0.06790655 0.112 -0.03585593
v -0.036014 0.112 0.01172829
v -0.036014 0.112 -0.01172829
v -0.028164 0.112 0.02532489
v -0.028164 0.112 -0.02532489
v -0.002901123 0.112 -0.07673676
v -0.06500542 0.112 -0.04088083
v -0.01173628 0.112 -0.006775943
v -0.01173628 0.112 0.006775943
v -0.002901123 0.112 0.07673676
v -0.06500542 0.112 0.04088083
v -0.007850003 0.112 0.03705318
v 3.609557E-16 0.112 0.01355189
v 0.007850003 0.112 0.03705318
v 0.01173628 0.112 0.006775943
v 0.028164 0.112 0.02532489
v 0.06500542 0.112 0.04088083
v 0.002901123 0.112 0.07673676
v 0.01173628 0.112 -0.006775943
v 0.028164 0.112 -0.02532489
v 0.036014 0.112 0.01172829
v 0.036014 0.112 -0.01172829
v 0.06790655 0.112 0.03585593
v 0.06790655 0.112 -0.03585593
v 0.007850003 0.112 -0.03705318
v 3.609557E-16 0.112 -0.01355189
v -0.007850003 0.112 -0.03705318
v 0.06500542 0.112 -0.04088083
v 0.002901123 0.112 -0.07673676

vn -0.9678678 -0.2514594 0
vn 0.2992656 -0.8010995 0.5183433
vn -0.4260077 -0.5235166 0.737867
vn 0.4260077 -0.5235166 0.737867
vn 0.4839339 -0.2514594 0.8381981
vn -0.4839339 -0.2514594 -0.8381981
vn -0.4475774 -0.4457554 -0.7752268
vn 0.4475774 -0.4457554 -0.7752268
vn 0.2992656 -0.8010995 -0.5183433
vn -0.4839339 -0.2514594 0.8381981
vn 0.5985312 -0.8010995 0
vn -0.8520154 -0.5235167 0
vn -0.8951548 -0.4457555 0
vn 0.8520154 -0.5235167 0
vn -0.4260077 -0.5235166 -0.737867
vn -0.2992656 -0.8010995 0.5183433
vn 0.9678678 -0.2514594 0
vn -0.5985312 -0.8010995 0
vn 0.4839339 -0.2514594 -0.8381981
vn 0.4475774 -0.4457554 0.7752268
vn 0 1 0
vn 0.4260077 -0.5235166 -0.737867
vn -0.2992656 -0.8010995 -0.5183433
vn -0.4475774 -0.4457554 0.7752268
vn 0.8951548 -0.4457555 0
vn 0 -1 0

vt 1.968504 5.125127
vt 1.732283 3.498042
vt -1.968504 5.125127
vt -1.732283 3.498042
vt -0.6399212 1.264947
vt -1.370079 2.843615
vt 0.6399212 1.264947
vt 1.370079 2.843615
vt 0.4164567 0.3776252
vt -0.4164567 0.3776252
vt 0.6399212 1.116956
vt -0.6399212 1.116956
vt 1.370079 2.467491
vt -1.370079 2.467491
vt 1.732283 3.874892
vt -1.732283 3.874892
vt -2.673486 -1.411651
vt -2.673486 1.411651
vt -1.417874 -0.4617437
vt -1.417874 0.4617437
vt -1.108819 -0.997043
vt -1.108819 0.997043
vt -0.1142174 3.021132
vt -2.559269 1.609481
vt -0.4620582 0.2667694
vt -0.4620582 -0.2667694
vt -0.1142174 -3.021132
vt -2.559269 -1.609481
vt -0.3090552 -1.458787
vt 1.421085E-14 -0.5335388
vt 0.3090552 -1.458787
vt 0.4620582 -0.2667694
vt 1.108819 -0.997043
vt 2.559269 -1.609481
vt 0.1142174 -3.021132
vt 0.4620582 0.2667694
vt 1.108819 0.997043
vt 1.417874 -0.4617437
vt 1.417874 0.4617437
vt 2.673486 -1.411651
vt 2.673486 1.411651
vt 0.3090552 1.458787
vt 1.421085E-14 0.5335388
vt -0.3090552 1.458787
vt 2.559269 1.609481
vt 0.1142174 3.021132
vt 0.7213241 0.4164567
vt 0.7213241 -0.4164567
vt 1.421085E-14 0.8329134
vt 1.421085E-14 -0.8329134
vt -0.7213241 0.4164567
vt -0.7213241 -0.4164567

usemtl yellow

f 3/3/1 2/2/1 1/1/1
f 2/2/1 3/3/1 4/4/1
f 7/7/2 6/6/2 5/5/2
f 6/6/2 7/7/2 8/8/2
f 5/11/3 10/10/3 9/9/3
f 10/10/3 5/11/3 11/12/3
f 7/11/4 9/10/4 12/9/4
f 9/10/4 7/11/4 5/12/4
f 15/1/5 14/4/5 13/2/5
f 14/4/5 15/1/5 16/3/5
f 3/1/6 17/4/6 4/2/6
f 17/4/6 3/1/6 18/3/6
f 4/15/7 20/14/7 19/13/7
f 20/14/7 4/15/7 17/16/7
f 17/15/8 21/14/8 20/13/8
f 21/14/8 17/15/8 22/16/8
f 20/8/9 24/5/9 23/7/9
f 24/5/9 20/8/9 21/6/9
f 16/1/10 2/4/10 14/2/10
f 2/4/10 16/1/10 1/3/10
f 21/8/11 7/5/11 24/7/11
f 7/5/11 21/8/11 8/6/11
f 25/12/12 10/9/12 11/11/12
f 10/9/12 25/12/12 26/10/12
f 4/16/13 27/13/13 2/15/13
f 27/13/13 4/16/13 19/14/13
f 12/10/14 24/11/14 7/12/14
f 24/11/14 12/10/14 28/9/14
f 25/11/15 29/10/15 26/9/15
f 29/10/15 25/11/15 23/12/15
f 11/5/16 6/8/16 27/6/16
f 6/8/16 11/5/16 5/7/16
f 13/4/17 30/1/17 15/3/17
f 30/1/17 13/4/17 22/2/17
f 25/5/18 27/8/18 19/6/18
f 27/8/18 25/5/18 11/7/18
f 18/1/19 22/4/19 17/2/19
f 22/4/19 18/1/19 30/3/19
f 13/15/20 6/14/20 8/13/20
f 6/14/20 13/15/20 14/16/20
f 33/19/21 32/18/21 31/17/21
f 32/18/21 33/19/21 34/20/21
f 34/20/21 33/19/21 35/21/21
f 34/20/21 35/21/21 36/22/21
f 37/23/21 36/22/21 35/21/21
f 36/22/21 37/23/21 38/24/21
f 37/23/21 35/21/21 39/25/21
f 39/25/21 35/21/21 40/26/21
f 35/21/21 41/27/21 40/26/21
f 41/27/21 35/21/21 42/28/21
f 40/26/21 41/27/21 43/29/21
f 43/29/21 44/30/21 40/26/21
f 44/30/21 43/29/21 45/31/21
f 44/30/21 45/31/21 46/32/21
f 45/31/21 47/33/21 46/32/21
f 45/31/21 48/34/21 47/33/21
f 48/34/21 45/31/21 49/35/21
f 46/32/21 47/33/21 50/36/21
f 51/37/21 50/36/21 47/33/21
f 52/38/21 51/37/21 47/33/21
f 51/37/21 52/38/21 53/39/21
f 53/39/21 52/38/21 54/40/21
f 53/39/21 54/40/21 55/41/21
f 51/37/21 56/42/21 50/36/21
f 56/42/21 57/43/21 50/36/21
f 58/44/21 57/43/21 56/42/21
f 57/43/21 58/44/21 39/25/21
f 59/45/21 56/42/21 51/37/21
f 56/42/21 59/45/21 60/46/21
f 37/23/21 39/25/21 58/44/21
f 23/11/22 28/10/22 29/9/22
f 28/10/22 23/11/22 24/12/22
f 20/6/23 25/7/23 19/8/23
f 25/7/23 20/6/23 23/5/23
f 14/15/24 27/14/24 6/13/24
f 27/14/24 14/15/24 2/16/24
f 8/14/25 22/15/25 13/16/25
f 22/15/25 8/14/25 21/13/25

usemtl _defaultMat

f 1/14/21 31/15/21 3/16/21
f 31/14/21 1/15/21 42/16/21
f 42/14/21 1/15/21 16/16/21
f 42/14/21 16/15/21 41/16/21
f 41/14/21 45/15/21 43/16/21
f 45/14/21 41/15/21 16/16/21
f 45/14/21 16/15/21 49/16/21
f 3/14/21 38/15/21 18/16/21
f 38/14/21 3/15/21 32/16/21
f 32/14/21 3/15/21 31/16/21
f 18/14/21 38/15/21 37/16/21
f 56/14/21 37/15/21 58/16/21
f 37/14/21 56/15/21 60/16/21
f 37/14/21 60/15/21 18/16/21
f 53/14/21 59/15/21 51/16/21
f 59/14/21 53/15/21 55/16/21
f 15/14/21 49/15/21 16/16/21
f 49/14/21 15/15/21 48/16/21
f 48/14/21 15/15/21 54/16/21
f 54/14/21 15/15/21 55/16/21
f 60/14/21 30/15/21 18/16/21
f 30/14/21 60/15/21 59/16/21
f 30/14/21 59/15/21 55/16/21
f 30/14/21 55/15/21 15/16/21
f 48/14/21 52/15/21 47/16/21
f 52/14/21 48/15/21 54/16/21
f 42/14/21 33/15/21 31/16/21
f 33/14/21 42/15/21 35/16/21
f 34/14/21 38/15/21 32/16/21
f 38/14/21 34/15/21 36/16/21
f 44/23/21 39/25/21 40/44/21
f 39/23/21 44/25/21 57/44/21
f 57/23/21 44/25/21 46/44/21
f 57/23/21 46/25/21 50/44/21

usemtl brownDark

f 29/49/26 10/48/26 26/47/26
f 10/48/26 29/49/26 9/50/26
f 9/50/26 29/49/26 28/51/26
f 9/50/26 28/51/26 12/52/26

