# Created by Kenney (www.kenney.nl)

mtllib lemon.mtl

g lemon

v 0.08660254 0.112 0.05
v 0.07621023 0.152 0.044
v 0.08660254 0.112 -0.05
v 0.07621023 0.152 -0.044
v 3.609557E-16 0.112 0.1
v -0.08660254 0.112 0.05
v 3.609557E-16 0.152 0.088
v -0.07621023 0.152 0.044
v -0.07621023 0.072 -0.044
v 3.609557E-16 0.072 -0.088
v -0.08660254 0.112 -0.05
v 3.609557E-16 0.112 -0.1
v 0.02815275 0.016 0.016254
v 0.02815275 0.016 -0.016254
v 0.01832163 0 0.010578
v 0.01832163 0 -0.010578
v -0.06027536 0.04 0.0348
v -3.609557E-16 0.04 0.06959999
v -0.02815275 0.016 0.016254
v -1.082867E-15 0.016 0.032508
v 0.06027536 0.04 0.0348
v 0.07621023 0.072 0.044
v 3.609557E-16 0.072 0.088
v -3.609557E-16 0.04 -0.06959999
v 0.06027536 0.04 -0.0348
v 0.07621023 0.072 -0.044
v -0.07621023 0.072 0.044
v -0.06027536 0.04 -0.0348
v -3.609557E-16 0 -0.021156
v -1.082867E-15 0.016 -0.032508
v 3.609557E-16 0.152 -0.088
v -3.609557E-16 0.184 0.06959999
v -0.06027536 0.184 0.0348
v -0.02815275 0.016 -0.016254
v -0.01832163 0 -0.010578
v -0.07621023 0.152 -0.044
v 0.06027536 0.184 0.0348
v 0.06027536 0.184 -0.0348
v -0.06027536 0.184 -0.0348
v -3.609557E-16 0.184 -0.06959999
v -3.609557E-16 0 0.021156
v -0.01832163 0 0.010578
v -1.082867E-15 0.208 0.032508
v -0.02815275 0.208 0.016254
v -3.609557E-16 0.224 0.021156
v -0.01832163 0.224 0.010578
v 0.02815275 0.208 0.016254
v 0.01832163 0.224 0.010578
v 0.02815275 0.208 -0.016254
v 0.01832163 0.224 -0.010578
v -0.02815275 0.208 -0.016254
v -1.082867E-15 0.208 -0.032508
v -0.01832163 0.224 -0.010578
v -3.609557E-16 0.224 -0.021156

vn 0.9678678 0.2514594 0
vn -0.4839339 0.2514594 0.8381981
vn -0.4839339 -0.2514594 -0.8381981
vn 0.8520154 -0.5235167 0
vn -0.2992656 -0.8010995 0.5183433
vn 0.4475774 -0.4457554 0.7752268
vn 0.4475774 -0.4457554 -0.7752268
vn -0.8951548 -0.4457555 0
vn 0.4260077 -0.5235166 -0.737867
vn 0.5985312 -0.8010995 0
vn 0.4839339 0.2514594 -0.8381981
vn -0.4475774 0.4457554 0.7752268
vn 0.2992656 -0.8010995 0.5183433
vn -0.4475774 -0.4457554 0.7752268
vn -0.4839339 -0.2514594 0.8381981
vn -0.2992656 -0.8010995 -0.5183433
vn 0.4839339 -0.2514594 0.8381981
vn 0.4839339 -0.2514594 -0.8381981
vn -0.5985312 -0.8010995 0
vn -0.4260077 -0.5235166 -0.737867
vn 0.8951548 -0.4457555 0
vn -0.4475774 -0.4457554 -0.7752268
vn 0.4839339 0.2514594 0.8381981
vn -0.4839339 0.2514594 -0.8381981
vn 0.8951548 0.4457555 0
vn 0.4475774 0.4457554 0.7752268
vn -0.4475774 0.4457554 -0.7752268
vn 0.4475774 0.4457554 -0.7752268
vn -0.8951548 0.4457555 0
vn 0.2992656 -0.8010995 -0.5183433
vn -0.4260077 -0.5235166 0.737867
vn 0.4260077 -0.5235166 0.737867
vn -0.9678678 0.2514594 0
vn -0.9678678 -0.2514594 0
vn -0.8520154 -0.5235167 0
vn 0.9678678 -0.2514594 0
vn -0.4260077 0.5235166 0.737867
vn 0.8520154 0.5235167 0
vn -0.4260077 0.5235166 -0.737867
vn 0.5985312 0.8010995 0
vn -0.2992656 0.8010995 0.5183433
vn 0.2992656 0.8010995 -0.5183433
vn -0.5985312 0.8010995 0
vn 0.4260077 0.5235166 -0.737867
vn 0.4260077 0.5235166 0.737867
vn -0.2992656 0.8010995 -0.5183433
vn 0.2992656 0.8010995 0.5183433
vn -0.8520154 0.5235167 0
vn 0 1 0
vn 0 -1 0

vt -1.968504 3.4104
vt -1.732283 5.037485
vt 1.968504 3.4104
vt 1.732283 5.037485
vt 1.732283 3.498042
vt -1.732283 3.498042
vt 1.968504 5.125127
vt -1.968504 5.125127
vt -0.6399212 1.116956
vt 0.6399212 1.116956
vt -0.4164567 0.3776252
vt 0.4164567 0.3776252
vt -1.370079 2.843615
vt 1.370079 2.843615
vt -0.6399212 1.264947
vt 0.6399212 1.264947
vt 1.370079 2.467491
vt -1.370079 2.467491
vt 1.732283 3.874892
vt -1.732283 3.874892
vt 1.732283 4.019386
vt -1.732283 4.019386
vt 1.370079 5.426788
vt -1.370079 5.426788
vt 0.6399212 6.396881
vt -0.6399212 6.396881
vt 0.4164567 7.136212
vt -0.4164567 7.136212
vt -0.6399212 4.013439
vt 0.6399212 4.013439
vt -1.370079 2.434771
vt 1.370079 2.434771
vt -0.7213241 -0.4164567
vt -0.7213241 0.4164567
vt -1.421085E-14 -0.8329134
vt -1.421085E-14 0.8329134
vt 0.7213241 -0.4164567
vt 0.7213241 0.4164567
vt 1.421085E-14 0.8329134
vt 1.421085E-14 -0.8329134

usemtl yellow

f 3/3/1 2/2/1 1/1/1
f 2/2/1 3/3/1 4/4/1
f 7/4/2 6/1/2 5/3/2
f 6/1/2 7/4/2 8/2/2
f 11/7/3 10/6/3 9/5/3
f 10/6/3 11/7/3 12/8/3
f 15/11/4 14/10/4 13/9/4
f 14/10/4 15/11/4 16/12/4
f 19/15/5 18/14/5 17/13/5
f 18/14/5 19/15/5 20/16/5
f 22/19/6 18/18/6 21/17/6
f 18/18/6 22/19/6 23/20/6
f 10/19/7 25/18/7 24/17/7
f 25/18/7 10/19/7 26/20/7
f 9/20/8 17/17/8 27/19/8
f 17/17/8 9/20/8 28/18/8
f 30/10/9 16/11/9 29/12/9
f 16/11/9 30/10/9 14/9/9
f 25/14/10 13/15/10 14/16/10
f 13/15/10 25/14/10 21/13/10
f 31/4/11 3/1/11 12/3/11
f 3/1/11 31/4/11 4/2/11
f 32/23/12 8/22/12 7/21/12
f 8/22/12 32/23/12 33/24/12
f 13/16/13 18/13/13 20/15/13
f 18/13/13 13/16/13 21/14/13
f 23/19/14 17/18/14 18/17/14
f 17/18/14 23/19/14 27/20/14
f 5/7/15 27/6/15 23/5/15
f 27/6/15 5/7/15 6/8/15
f 24/13/16 34/16/16 28/14/16
f 34/16/16 24/13/16 30/15/16
f 1/7/17 23/6/17 22/5/17
f 23/6/17 1/7/17 5/8/17
f 12/7/18 26/6/18 10/5/18
f 26/6/18 12/7/18 3/8/18
f 34/15/19 17/14/19 28/13/19
f 17/14/19 34/15/19 19/16/19
f 34/10/20 29/11/20 35/12/20
f 29/11/20 34/10/20 30/9/20
f 21/18/21 26/19/21 22/20/21
f 26/19/21 21/18/21 25/17/21
f 9/19/22 24/18/22 28/17/22
f 24/18/22 9/19/22 10/20/22
f 2/4/23 5/1/23 1/3/23
f 5/1/23 2/4/23 7/2/23
f 36/4/24 12/1/24 11/3/24
f 12/1/24 36/4/24 31/2/24
f 4/21/25 37/24/25 2/22/25
f 37/24/25 4/21/25 38/23/25
f 37/23/26 7/22/26 2/21/26
f 7/22/26 37/23/26 32/24/26
f 39/23/27 31/22/27 36/21/27
f 31/22/27 39/23/27 40/24/27
f 40/23/28 4/22/28 31/21/28
f 4/22/28 40/23/28 38/24/28
f 33/23/29 36/22/29 8/21/29
f 36/22/29 33/23/29 39/24/29
f 24/14/30 14/15/30 30/16/30
f 14/15/30 24/14/30 25/13/30
f 20/10/31 42/11/31 41/12/31
f 42/11/31 20/10/31 19/9/31
f 13/10/32 41/11/32 15/12/32
f 41/11/32 13/10/32 20/9/32
f 8/4/33 11/1/33 6/3/33
f 11/1/33 8/4/33 36/2/33
f 11/8/34 27/5/34 6/7/34
f 27/5/34 11/8/34 9/6/34
f 34/9/35 42/12/35 19/10/35
f 42/12/35 34/9/35 35/11/35
f 22/6/36 3/7/36 1/8/36
f 3/7/36 22/6/36 26/5/36
f 45/27/37 44/26/37 43/25/37
f 44/26/37 45/27/37 46/28/37
f 49/25/38 48/28/38 47/26/38
f 48/28/38 49/25/38 50/27/38
f 53/27/39 52/26/39 51/25/39
f 52/26/39 53/27/39 54/28/39
f 37/31/40 49/30/40 47/29/40
f 49/30/40 37/31/40 38/32/40
f 32/32/41 44/29/41 33/31/41
f 44/29/41 32/32/41 43/30/41
f 49/29/42 40/32/42 52/30/42
f 40/32/42 49/29/42 38/31/42
f 44/30/43 39/31/43 33/32/43
f 39/31/43 44/30/43 51/29/43
f 54/27/44 49/26/44 52/25/44
f 49/26/44 54/27/44 50/28/44
f 48/27/45 43/26/45 47/25/45
f 43/26/45 48/27/45 45/28/45
f 51/30/46 40/31/46 39/32/46
f 40/31/46 51/30/46 52/29/46
f 32/31/47 47/30/47 43/29/47
f 47/30/47 32/31/47 37/32/47
f 46/27/48 51/26/48 44/25/48
f 51/26/48 46/27/48 53/28/48

usemtl brownDark

f 45/35/49 53/34/49 46/33/49
f 53/34/49 45/35/49 54/36/49
f 54/36/49 45/35/49 48/37/49
f 54/36/49 48/37/49 50/38/49
f 29/39/50 42/37/50 35/38/50
f 42/37/50 29/39/50 41/40/50
f 41/40/50 29/39/50 16/34/50
f 41/40/50 16/34/50 15/33/50

