# Created by Kenney (www.kenney.nl)

mtllib lollypop.mtl

g lollypop

v 0.0116 0.2986 0.09376168
v 0.0116 0.2986 0.07214899
v 0.0116 0.2174 0.04688084
v 0.0116 0.2361171 0.0360745
v 0.0116 0.2174 0
v 0.0116 0.2361171 -0.0360745
v 0.0116 0.2174 -0.04688084
v 0.0116 0.2986 -0.07214899
v 0.0116 0.2986 -0.09376168
v 0.0116 0.3798 0.04688084
v 0.0116 0.3610829 0.0360745
v 0.0116 0.3798 -0.04688084
v 0.0116 0.3610829 -0.0360745
v -0.0116 0.2986 0.0501211
v -0.0116 0.2986 0.03028874
v -0.0116 0.3420061 0.02506055
v -0.0116 0.3248308 0.01514437
v -0.0116 0.3420061 -0.02506055
v -0.0116 0.3248308 -0.01514437
v -0.0116 0.2986 -0.03028874
v -0.0116 0.2986 -0.0501211
v -0.0116 0.2551938 0.02506055
v -0.0116 0.2723692 0.01514437
v -0.0116 0.2551938 -0.02506055
v -0.0116 0.2723692 -0.01514437
v -0.0116 0.2986 0.09376168
v -0.0116 0.3798 0.04688084
v -0.0116 0.3798 -0.04688084
v 0.0116 0.2986 0.04891563
v 0.0116 0.2986 0.02628385
v 0.0116 0.2562378 0.02445782
v 0.0116 0.2758375 0.01314193
v 0.0116 0.2562378 -0.02445782
v 0.0116 0.2758375 -0.01314193
v 0.0116 0.2986 -0.02628385
v 0.0116 0.2986 -0.04891563
v 0.0116 0.3409622 0.02445782
v 0.0116 0.3213625 0.01314193
v 0.0116 0.3409622 -0.02445782
v 0.0116 0.3213625 -0.01314193
v -0.0116 0.2174 -0.04688084
v -0.0116 0.2174 0
v 3.654677E-15 0.2174 -0.0116
v -0.0116 0.2174 0.04688084
v 3.654677E-15 0.2174 0.0116
v -0.0116 0.2986 -0.09376168
v -0.0116 0.2986 0.07200367
v -0.0116 0.360957 0.03600184
v -0.0116 0.360957 -0.03600184
v -0.0116 0.2986 -0.07200367
v -0.0116 0.236243 0.03600184
v -0.0116 0.236243 -0.03600184
v -0.019256 6.429524E-16 0
v 0 3.158362E-16 0.019256
v 0 3.158362E-16 -0.019256
v 0.019256 0 0

vn 1 0 0
vn -1 0 0
vn 0 0.5 0.8660254
vn 0 1 0
vn 0 -1 0
vn 0 -0.5 -0.8660254
vn 0 -0.5 0.8660254
vn 0 0.5 -0.8660254
vn -0.7068877 0.02489389 0.7068877
vn 0.7068877 0.02489389 -0.7068877
vn -0.7068877 0.02489389 -0.7068877
vn 0.7068877 0.02489389 0.7068877

vt -3.691405 11.75591
vt -2.840512 11.75591
vt -1.845702 8.559055
vt -1.420256 9.29595
vt 0 8.559055
vt 1.420256 9.29595
vt 1.845702 8.559055
vt 2.840512 11.75591
vt 3.691405 11.75591
vt -1.845702 14.95276
vt -1.420256 14.21586
vt 1.845702 14.95276
vt 1.420256 14.21586
vt 1.973271 11.75591
vt 1.19247 11.75591
vt 0.9866357 13.46481
vt 0.596235 12.78862
vt -0.9866357 13.46481
vt -0.596235 12.78862
vt -1.19247 11.75591
vt -1.973271 11.75591
vt 0.9866357 10.047
vt 0.596235 10.7232
vt -0.9866357 10.047
vt -0.596235 10.7232
vt 0.4566929 8.335211
vt -0.4566929 8.335211
vt 0.4566929 12.02662
vt -0.4566929 12.02662
vt -0.4566929 -1.845702
vt -0.4566929 1.845702
vt 0.4566929 -1.845702
vt 0.4566929 1.845702
vt -1.925812 11.75591
vt -1.034797 11.75591
vt -0.9629061 10.0881
vt -0.5173987 10.85975
vt 0.9629061 10.0881
vt 0.5173987 10.85975
vt 1.034797 11.75591
vt 1.925812 11.75591
vt -0.9629061 13.42371
vt -0.5173987 12.65207
vt 0.9629061 13.42371
vt 0.5173987 12.65207
vt 0.4566929 0
vt -6.145506E-16 0.4566929
vt -0.4566929 0
vt -6.145506E-16 -0.4566929
vt 2.83479 11.75591
vt 1.417395 14.21091
vt -1.417395 14.21091
vt -2.83479 11.75591
vt 1.417395 9.300905
vt -1.417395 9.300905
vt 0.7581102 0
vt 2.117375E-28 -0.7581102
vt 2.117375E-28 0.7581102
vt -0.7581102 0
vt 0.5360649 -0.01334474
vt -0.5360649 -0.01334474
vt 0.3229307 8.548364
vt -0.3229307 8.548364

usemtl purpleLight

f 3/3/1 2/2/1 1/1/1
f 2/2/1 3/3/1 4/4/1
f 4/4/1 3/3/1 5/5/1
f 4/4/1 5/5/1 6/6/1
f 6/6/1 5/5/1 7/7/1
f 6/6/1 7/7/1 8/8/1
f 8/8/1 7/7/1 9/9/1
f 2/2/1 10/10/1 1/1/1
f 10/10/1 2/2/1 11/11/1
f 10/10/1 11/11/1 12/12/1
f 12/12/1 8/8/1 9/9/1
f 12/12/1 11/11/1 13/13/1
f 12/12/1 13/13/1 8/8/1
f 16/16/2 15/15/2 14/14/2
f 15/15/2 16/16/2 17/17/2
f 17/17/2 16/16/2 18/18/2
f 17/17/2 18/18/2 19/19/2
f 19/19/2 18/18/2 20/20/2
f 20/20/2 18/18/2 21/21/2
f 15/15/2 22/22/2 14/14/2
f 22/22/2 15/15/2 23/23/2
f 22/22/2 23/23/2 24/24/2
f 24/24/2 20/20/2 21/21/2
f 24/24/2 23/23/2 25/25/2
f 24/24/2 25/25/2 20/20/2
f 10/28/3 26/27/3 1/26/3
f 26/27/3 10/28/3 27/29/3
f 10/32/4 28/31/4 27/30/4
f 28/31/4 10/32/4 12/33/4
f 31/36/1 30/35/1 29/34/1
f 30/35/1 31/36/1 32/37/1
f 32/37/1 31/36/1 33/38/1
f 32/37/1 33/38/1 34/39/1
f 34/39/1 33/38/1 35/40/1
f 35/40/1 33/38/1 36/41/1
f 30/35/1 37/42/1 29/34/1
f 37/42/1 30/35/1 38/43/1
f 37/42/1 38/43/1 39/44/1
f 39/44/1 35/40/1 36/41/1
f 39/44/1 38/43/1 40/45/1
f 39/44/1 40/45/1 35/40/1
f 7/31/5 42/46/5 41/33/5
f 42/46/5 7/31/5 43/47/5
f 43/47/5 7/31/5 5/48/5
f 45/49/5 44/32/5 42/46/5
f 44/32/5 45/49/5 3/30/5
f 3/30/5 45/49/5 5/48/5
f 41/26/6 9/29/6 7/27/6
f 9/29/6 41/26/6 46/28/6
f 27/12/2 47/50/2 26/9/2
f 47/50/2 27/12/2 48/51/2
f 48/51/2 27/12/2 28/10/2
f 48/51/2 28/10/2 49/52/2
f 49/52/2 28/10/2 50/53/2
f 50/53/2 28/10/2 46/1/2
f 47/50/2 44/7/2 26/9/2
f 44/7/2 47/50/2 51/54/2
f 44/7/2 51/54/2 42/5/2
f 42/5/2 51/54/2 52/55/2
f 42/5/2 52/55/2 41/3/2
f 41/3/2 52/55/2 50/53/2
f 41/3/2 50/53/2 46/1/2
f 1/28/7 44/27/7 3/26/7
f 44/27/7 1/28/7 26/29/7
f 46/26/8 12/29/8 9/27/8
f 12/29/8 46/26/8 28/28/8

usemtl brown

f 55/58/5 54/57/5 53/56/5
f 54/57/5 55/58/5 56/59/5
f 45/62/9 53/61/9 54/60/9
f 53/61/9 45/62/9 42/63/9
f 55/60/10 5/63/10 56/61/10
f 5/63/10 55/60/10 43/62/10
f 53/60/11 43/63/11 55/61/11
f 43/63/11 53/60/11 42/62/11

usemtl _defaultMat

f 48/31/2 14/32/2 47/33/2
f 14/31/2 48/32/2 16/33/2
f 16/31/2 48/32/2 49/33/2
f 16/31/2 49/32/2 18/33/2
f 21/31/2 49/32/2 50/33/2
f 18/31/2 49/32/2 21/33/2
f 14/31/2 51/32/2 47/33/2
f 51/31/2 14/32/2 22/33/2
f 51/31/2 22/32/2 52/33/2
f 52/31/2 22/32/2 24/33/2
f 52/31/2 24/32/2 21/33/2
f 52/31/2 21/32/2 50/33/2
f 32/44/1 38/40/1 30/41/1
f 38/44/1 32/40/1 34/41/1
f 38/44/1 34/40/1 40/41/1
f 40/44/1 34/40/1 35/41/1
f 17/63/2 23/60/2 15/62/2
f 23/63/2 17/60/2 19/62/2
f 23/63/2 19/60/2 25/62/2
f 25/63/2 19/60/2 20/62/2
f 56/30/12 45/49/12 54/48/12
f 45/30/12 56/49/12 5/48/12
f 4/29/1 29/26/1 2/28/1
f 29/29/1 4/26/1 31/28/1
f 31/29/1 4/26/1 6/28/1
f 31/29/1 6/26/1 33/28/1
f 36/29/1 6/26/1 8/28/1
f 33/29/1 6/26/1 36/28/1
f 29/29/1 11/26/1 2/28/1
f 11/29/1 29/26/1 37/28/1
f 11/29/1 37/26/1 13/28/1
f 13/29/1 37/26/1 39/28/1
f 13/29/1 39/26/1 36/28/1
f 13/29/1 36/26/1 8/28/1

