# Created by Kenney (www.kenney.nl)

mtllib meatPatty.mtl

g meatPatty

v -0.1493894 0.0491556 0.08625
v -0.1299688 0.0624312 0.07503749
v 0 0.0491556 0.1725
v -0.08618618 0.0624312 0.1003154
v -0.03654294 0.0624312 0.1289769
v 0 0.0624312 0.150075
v -0.1493894 0.0132756 -0.08625
v -0.1493894 0.0132756 0.08625
v -0.1299688 0 -0.07503749
v -0.1299688 0 0.07503749
v 0 0.0132756 -0.1725
v 0 0 -0.150075
v 0.1493894 0.0132756 -0.08625
v 0.1299688 0 -0.07503749
v 0.1299688 0.0624312 0.07503749
v 0.1299688 0.0624312 -0.07503749
v 0.1493894 0.0491556 0.08625
v 0.1493894 0.0491556 -0.08625
v -0.1493894 0.0491556 -0.08625
v 0 0.0491556 -0.1725
v -0.1299688 0.0624312 -0.07503749
v -0.08618618 0.0624312 -0.1003154
v -0.03654294 0.0624312 -0.1289769
v 0 0.0624312 -0.150075
v 0 0 0.150075
v 0.1299688 0 0.07503749
v 0 0.0132756 0.1725
v 0.1493894 0.0132756 0.08625
v 0.03654294 0.0624312 0.1289769
v 0.08618618 0.0624312 0.1003154
v 0.03654294 0.0624312 -0.1289769
v 0.08618618 0.0624312 -0.1003154
v -0.04613917 0.0624312 0.1003154
v 3.609557E-16 0.0624312 0.1269538
v 0.04613917 0.0624312 0.1003154
v 0.09578241 0.0624312 0.07165384
v -0.09578241 0.0624312 0.07165384
v -0.1099453 0.0624312 0.06347692
v 0.1099453 0.0624312 0.06347692
v 0.1099453 0.0624312 0.04299231
v 0.1099453 0.0624312 0.01433077
v 0.1099453 0.0624312 -0.01433077
v 0.1099453 0.0624312 -0.04299231
v 0.1099453 0.0624312 -0.06347692
v -0.1099453 0.0624312 -0.01433077
v -0.1099453 0.0624312 -0.06347692
v -0.1099453 0.0624312 0.04299231
v -0.1099453 0.0624312 0.01433077
v -0.1099453 0.0624312 -0.04299231
v -0.09578241 0.0624312 -0.07165384
v 0.09578241 0.0624312 -0.07165384
v -0.04613917 0.0624312 -0.1003154
v 0.04613917 0.0624312 -0.1003154
v 3.609557E-16 0.0624312 -0.1269538

vn -0.2821654 0.8255488 0.4887249
vn -0.5643309 -0.8255488 0
vn 0.2821654 -0.8255488 -0.4887249
vn 0.5643309 0.8255488 0
vn -0.2821654 -0.8255488 -0.4887249
vn -0.2821654 0.8255488 -0.4887249
vn 0 -1 0
vn 0.2821654 -0.8255488 0.4887249
vn 1 0 0
vn -0.2821654 -0.8255488 0.4887249
vn -0.5643309 0.8255488 0
vn 0.5643309 -0.8255488 0
vn -1 0 0
vn 0.5 0 0.8660254
vn 0.5 0 -0.8660254
vn 0.2821654 0.8255488 0.4887249
vn -0.5 0 0.8660254
vn -0.5 0 -0.8660254
vn 0.2821654 0.8255488 -0.4887249
vn 0 1 0

vt -3.395669 -3.763315
vt -2.954232 -2.837153
vt 3.395669 -3.763315
vt -0.9638477 -2.837153
vt 1.292966 -2.837153
vt 2.954232 -2.837153
vt -3.395669 5.150395
vt 3.395669 5.150395
vt -2.954232 4.224234
vt 2.954232 4.224234
vt 0.9638477 -2.837153
vt -1.292966 -2.837153
vt 5.11688 2.954232
vt 5.11688 -2.954232
vt 0 5.908464
vt 0 -5.908464
vt -5.11688 2.954232
vt -5.11688 -2.954232
vt -3.395669 0.5226614
vt -3.395669 1.93526
vt 3.395669 0.5226614
vt 3.395669 1.93526
vt -3.393157 -3.949425
vt -1.816503 -3.949425
vt -1.438699 -5.077832
vt 1.421085E-14 -4.998183
vt 1.438699 -5.077832
vt 1.816503 -3.949425
vt 3.393157 -3.949425
vt 3.770961 -2.821018
vt -3.770961 -2.821018
vt -4.328553 -2.499091
vt 4.328553 -2.499091
vt 4.328553 -1.692611
vt 4.328553 -0.5642035
vt 4.328553 0.5642035
vt 4.328553 1.692611
vt 4.328553 2.499091
vt -4.328553 0.5642035
vt -4.328553 2.499091
vt -3.393157 3.949425
vt -4.328553 -1.692611
vt -4.328553 -0.5642035
vt -4.328553 1.692611
vt -3.770961 2.821018
vt 3.770961 2.821018
vt -1.816503 3.949425
vt 1.816503 3.949425
vt 3.393157 3.949425
vt -1.438699 5.077832
vt 1.421085E-14 4.998183
vt 1.438699 5.077832

usemtl brownDark

f 3/3/1 2/2/1 1/1/1
f 2/2/1 3/3/1 4/4/1
f 4/4/1 3/3/1 5/5/1
f 5/5/1 3/3/1 6/6/1
f 9/9/2 8/8/2 7/7/2
f 8/8/2 9/9/2 10/10/2
f 13/7/3 12/10/3 11/8/3
f 12/10/3 13/7/3 14/9/3
f 17/1/4 16/6/4 15/2/4
f 16/6/4 17/1/4 18/3/4
f 11/7/5 9/10/5 7/8/5
f 9/10/5 11/7/5 12/9/5
f 21/6/6 20/1/6 19/3/6
f 20/1/6 21/6/6 22/11/6
f 20/1/6 22/11/6 23/12/6
f 20/1/6 23/12/6 24/2/6
f 12/15/7 10/14/7 9/13/7
f 10/14/7 12/15/7 25/16/7
f 25/16/7 12/15/7 14/17/7
f 25/16/7 14/17/7 26/18/7
f 26/10/8 27/7/8 25/9/8
f 27/7/8 26/10/8 28/8/8
f 13/21/9 17/20/9 28/19/9
f 17/20/9 13/21/9 18/22/9
f 10/9/10 27/8/10 8/7/10
f 27/8/10 10/9/10 25/10/10
f 2/6/11 19/1/11 1/3/11
f 19/1/11 2/6/11 21/2/11
f 13/8/12 26/9/12 14/10/12
f 26/9/12 13/8/12 28/7/12
f 19/20/13 8/21/13 1/22/13
f 8/21/13 19/20/13 7/19/13
f 17/22/14 27/19/14 28/21/14
f 27/19/14 17/22/14 3/20/14
f 20/22/15 13/19/15 11/21/15
f 13/19/15 20/22/15 18/20/15
f 17/3/16 6/2/16 3/1/16
f 6/2/16 17/3/16 29/12/16
f 29/12/16 17/3/16 30/11/16
f 30/11/16 17/3/16 15/6/16
f 3/22/17 8/19/17 27/21/17
f 8/19/17 3/22/17 1/20/17
f 19/22/18 11/19/18 7/21/18
f 11/19/18 19/22/18 20/20/18
f 31/5/19 20/3/19 24/6/19
f 20/3/19 31/5/19 18/1/19
f 18/1/19 31/5/19 32/4/19
f 18/1/19 32/4/19 16/2/19
f 5/25/20 33/24/20 4/23/20
f 33/24/20 5/25/20 34/26/20
f 34/26/20 5/25/20 6/16/20
f 34/26/20 6/16/20 29/27/20
f 34/26/20 29/27/20 35/28/20
f 35/28/20 29/27/20 30/29/20
f 36/30/20 4/23/20 33/24/20
f 36/30/20 33/24/20 35/28/20
f 36/30/20 35/28/20 30/29/20
f 37/31/20 4/23/20 36/30/20
f 38/32/20 4/23/20 37/31/20
f 38/32/20 2/18/20 4/23/20
f 2/18/20 38/32/20 21/17/20
f 36/30/20 30/29/20 15/14/20
f 36/30/20 15/14/20 39/33/20
f 39/33/20 15/14/20 40/34/20
f 40/34/20 15/14/20 41/35/20
f 41/35/20 15/14/20 42/36/20
f 42/36/20 15/14/20 43/37/20
f 43/37/20 15/14/20 44/38/20
f 45/39/20 21/17/20 38/32/20
f 46/40/20 21/17/20 45/39/20
f 21/17/20 46/40/20 22/41/20
f 45/39/20 38/32/20 47/42/20
f 45/39/20 47/42/20 48/43/20
f 40/34/20 48/43/20 47/42/20
f 48/43/20 40/34/20 41/35/20
f 46/40/20 45/39/20 49/44/20
f 42/36/20 49/44/20 45/39/20
f 49/44/20 42/36/20 43/37/20
f 22/41/20 46/40/20 50/45/20
f 22/41/20 50/45/20 51/46/20
f 22/41/20 51/46/20 52/47/20
f 52/47/20 51/46/20 53/48/20
f 53/48/20 51/46/20 32/49/20
f 32/49/20 51/46/20 16/13/20
f 16/13/20 51/46/20 44/38/20
f 16/13/20 44/38/20 15/14/20
f 52/47/20 23/50/20 22/41/20
f 23/50/20 52/47/20 54/51/20
f 23/50/20 54/51/20 24/15/20
f 24/15/20 54/51/20 31/52/20
f 31/52/20 54/51/20 53/48/20
f 31/52/20 53/48/20 32/49/20

usemtl brownDarkest

f 37/31/20 47/42/20 38/32/20
f 47/42/20 37/31/20 40/34/20
f 40/34/20 37/31/20 36/30/20
f 40/34/20 36/30/20 39/33/20
f 53/48/20 54/51/20 52/47/20
f 41/35/20 45/39/20 48/43/20
f 45/39/20 41/35/20 42/36/20
f 35/28/20 33/24/20 34/26/20
f 43/37/20 46/40/20 49/44/20
f 46/40/20 43/37/20 50/45/20
f 50/45/20 43/37/20 51/46/20
f 51/46/20 43/37/20 44/38/20

