# Created by Kenney (www.kenney.nl)

mtllib mincemeatPie.mtl

g mincemeatPie

v -0.2510765 0.1359373 -0.1449591
v 3.609557E-16 0.1359373 -0.2899182
v -0.2160218 0.1659373 -0.1247203
v 3.609557E-16 0.1659373 -0.2494405
v 0.2160218 0.1659373 0.1247203
v 0.2160218 0.1659373 -0.1247203
v 0.2510765 0.1359373 0.1449591
v 0.2510765 0.1359373 -0.1449591
v -0.2510765 0.1359373 0.1449591
v -0.2160218 0.1659373 0.1247203
v 3.609557E-16 0.1359373 0.2899182
v 3.609557E-16 0.1659373 0.2494405
v 0.2654632 0.0965373 0.1532653
v 0.2654632 0.1359373 0.1532653
v 0.2654632 0.0965373 -0.1532653
v 0.2654632 0.1359373 -0.1532653
v -1.082867E-15 0.0965373 -0.3065305
v -1.082867E-15 0.1359373 -0.3065305
v -0.2654632 0.0965373 -0.1532653
v -0.2654632 0.1359373 -0.1532653
v -1.082867E-15 0.0965373 0.3065305
v -0.2654632 0.0965373 0.1532653
v -1.082867E-15 0.1359373 0.3065305
v -0.2654632 0.1359373 0.1532653
v -0.2510765 0.0965373 -0.1449591
v 3.248601E-15 0.0965373 -0.2899182
v 0.2510765 0.0965373 -0.1449591
v 0.2510765 0.0965373 0.1449591
v -0.2510765 0.0965373 0.1449591
v 1.804779E-15 0.0965373 0.2899182
v -0.08109003 0.1673173 0.02172801
v -0.03445432 0.1673173 5.324097E-15
v -0.05936202 0.1673173 0.05936202
v -0.01722716 0.1673173 0.02983831
v -0.01722716 0.1673173 -0.02983831
v -0.1141244 0.1673173 0.06588978
v -0.1141244 0.1673173 -0.06588978
v -4.692424E-15 0.1673173 0.1317796
v -0.04054501 0.1673173 0.07022602
v -0.02172801 0.1673173 0.08109003
v -0.05936202 0.1673173 -0.05936202
v -0.08109003 0.1673173 -0.02172801
v -4.692424E-15 0.1673173 -0.1317796
v -0.08109003 0.1673173 5.324097E-15
v -0.04054501 0.1673173 -0.07022602
v -0.02172801 0.1673173 -0.08109003
v 0.02172801 0.1673173 0.08109003
v 0.1141244 0.1673173 0.06588978
v 0.01722716 0.1673173 0.02983831
v 0.04054501 0.1673173 0.07022602
v 0.05936202 0.1673173 0.05936202
v 0.08109003 0.1673173 0.02172801
v 0.08109003 0.1673173 5.324097E-15
v 0.08109003 0.1673173 -0.02172801
v 0.01722716 0.1673173 -0.02983831
v 0.02172801 0.1673173 -0.08109003
v 0.1141244 0.1673173 -0.06588978
v 0.04054501 0.1673173 -0.07022602
v 0.05936202 0.1673173 -0.05936202
v 0.03445432 0.1673173 5.685052E-15
v -7.58007E-15 0.1450873 -0.1768919
v 1.082867E-15 0.1659373 -0.2162651
v 0.1531929 0.1450873 -0.08844595
v 0.1872911 0.1659373 -0.1081326
v -7.58007E-15 0.1450873 0.1768919
v 0.1531929 0.1450873 0.08844595
v 1.082867E-15 0.1659373 0.2162651
v 0.1872911 0.1659373 0.1081326
v -0.1531929 0.1450873 0.08844595
v -0.1872911 0.1659373 0.1081326
v -0.1872911 0.1659373 -0.1081326
v -0.1531929 0.1450873 -0.08844595
v -0.2194725 0 -0.1267125
v -0.2194725 0 0.1267125
v 1.082867E-15 0 -0.253425
v 1.082867E-15 0 0.253425
v 0.2194725 0 -0.1267125
v 0.2194725 0 0.1267125
v 3.609557E-16 0.0688125 -0.2899182
v 0.2510765 0.0688125 -0.1449591
v 0.2510765 0.0688125 0.1449591
v 3.609557E-16 0.0688125 0.2899182
v -0.2510765 0.0688125 0.1449591
v -0.2510765 0.0688125 -0.1449591

vn -0.3251028 0.7597583 -0.5630947
vn 0.6502057 0.7597583 0
vn -0.6502057 0.7597583 0
vn 0.3251028 0.7597583 -0.5630947
vn -0.3251028 0.7597583 0.5630947
vn 0.3251028 0.7597583 0.5630947
vn 1 0 0
vn 0.5 0 -0.8660254
vn -0.5 0 -0.8660254
vn -0.5 0 0.8660254
vn 0 -1 0
vn 0.5 0 0.8660254
vn -1 0 0
vn 0 1 0
vn -0.260836 0.8531461 0.4517811
vn -0.260836 0.8531461 -0.4517811
vn 0.247274 0.8691503 0.4282911
vn -0.247274 0.8691503 0.4282911
vn 0.260836 0.8531461 0.4517811
vn 0.247274 0.8691503 -0.4282911
vn 0.260836 0.8531461 -0.4517811
vn 0.4945479 0.8691503 0
vn -0.4945479 0.8691503 0
vn -0.247274 0.8691503 -0.4282911
vn 0.521672 0.8531461 0
vn -0.521672 0.8531461 0
vn 0.4543698 -0.4173637 -0.7869915
vn 0.4543698 -0.4173637 0.7869915
vn -0.4543698 -0.4173637 -0.7869915
vn -0.9087396 -0.4173637 0
vn 0.9087396 -0.4173637 0
vn -0.4543698 -0.4173637 0.7869915

vt 5.707051 -4.030325
vt -5.707051 -4.030325
vt 4.910247 -2.213819
vt -4.910247 -2.213819
vt -6.034065 3.800681
vt -6.034065 5.351862
vt 6.034065 3.800681
vt 6.034065 5.351862
vt 10.45131 -6.034065
vt 9.884903 5.707051
vt 10.45131 6.034065
vt 4.263256E-14 12.06813
vt -1.278977E-13 11.4141
vt -10.45131 6.034065
vt -9.884903 5.707051
vt -9.884903 -5.707051
vt 9.884903 -5.707051
vt 4.263256E-14 -12.06813
vt -7.105427E-14 -11.4141
vt -10.45131 -6.034065
vt -4.263256E-14 -12.06813
vt 1.421085E-14 -11.4141
vt -4.263256E-14 12.06813
vt 1.421085E-14 11.4141
vt -3.192521 -0.8554333
vt -1.356469 -2.096101E-13
vt -2.337087 -2.337087
vt -0.6782346 -1.174737
vt -0.6782346 1.174737
vt -4.493088 -2.594086
vt -4.493088 2.594086
vt -1.847411E-13 -5.188171
vt -1.59626 -2.764804
vt -0.8554333 -3.192521
vt -2.337087 2.337087
vt -3.192521 0.8554333
vt -1.847411E-13 5.188171
vt -3.192521 -2.096101E-13
vt -1.59626 2.764804
vt -0.8554333 3.192521
vt 0.8554333 -3.192521
vt 4.493088 -2.594086
vt 0.6782346 -1.174737
vt 1.59626 -2.764804
vt 2.337087 -2.337087
vt 3.192521 -0.8554333
vt 3.192521 -2.096101E-13
vt 3.192521 0.8554333
vt 0.6782346 1.174737
vt 0.8554333 3.192521
vt 4.493088 2.594086
vt 1.59626 2.764804
vt 2.337087 2.337087
vt 1.356469 -2.23821E-13
vt -3.482124 8.12535
vt -4.257188 9.698879
vt 3.482124 8.12535
vt 4.257188 9.698879
vt -3.482124 -2.417127
vt -2.594086 -0.647436
vt 3.482124 -2.417127
vt 2.594086 -0.647436
vt -8.504797 4.910247
vt -7.373666 -4.257188
vt -8.504797 -4.910247
vt 1.421085E-14 -9.820494
vt 4.263256E-14 -8.514376
vt 8.504797 -4.910247
vt 7.373666 -4.257188
vt 7.373666 4.257188
vt -7.373666 4.257188
vt 1.421085E-14 9.820494
vt 4.263256E-14 8.514376
vt 8.504797 4.910247

usemtl brown

f 3/3/1 2/2/1 1/1/1
f 2/2/1 3/3/1 4/4/1
f 7/2/2 6/3/2 5/4/2
f 6/3/2 7/2/2 8/1/2
f 10/3/3 1/2/3 9/1/3
f 1/2/3 10/3/3 3/4/3
f 6/4/4 2/1/4 4/3/4
f 2/1/4 6/4/4 8/2/4
f 11/1/5 10/4/5 9/2/5
f 10/4/5 11/1/5 12/3/5
f 7/1/6 12/4/6 11/2/6
f 12/4/6 7/1/6 5/3/6
f 15/7/7 14/6/7 13/5/7
f 14/6/7 15/7/7 16/8/7
f 18/8/8 15/5/8 17/7/8
f 15/5/8 18/8/8 16/6/8
f 20/8/9 17/5/9 19/7/9
f 17/5/9 20/8/9 18/6/9
f 23/8/10 22/5/10 21/7/10
f 22/5/10 23/8/10 24/6/10
f 19/11/11 25/10/11 22/9/11
f 25/10/11 19/11/11 17/12/11
f 25/10/11 17/12/11 26/13/11
f 26/13/11 17/12/11 15/14/11
f 26/13/11 15/14/11 27/15/11
f 27/15/11 15/14/11 28/16/11
f 29/17/11 22/9/11 25/10/11
f 22/9/11 29/17/11 21/18/11
f 21/18/11 29/17/11 30/19/11
f 21/18/11 30/19/11 13/20/11
f 13/20/11 30/19/11 28/16/11
f 13/20/11 28/16/11 15/14/11
f 14/8/12 21/5/12 13/7/12
f 21/5/12 14/8/12 23/6/12
f 20/6/13 22/7/13 24/8/13
f 22/7/13 20/6/13 19/5/13
f 24/20/14 9/16/14 20/14/14
f 9/16/14 24/20/14 23/21/14
f 9/16/14 23/21/14 11/22/14
f 11/22/14 23/21/14 14/9/14
f 11/22/14 14/9/14 7/17/14
f 7/17/14 14/9/14 8/10/14
f 1/15/14 20/14/14 9/16/14
f 20/14/14 1/15/14 18/23/14
f 18/23/14 1/15/14 2/24/14
f 18/23/14 2/24/14 16/11/14
f 16/11/14 2/24/14 8/10/14
f 16/11/14 8/10/14 14/9/14
f 33/27/14 32/26/14 31/25/14
f 32/26/14 33/27/14 34/28/14
f 32/26/14 34/28/14 35/29/14
f 31/25/14 36/30/14 33/27/14
f 36/30/14 31/25/14 37/31/14
f 33/27/14 36/30/14 38/32/14
f 33/27/14 38/32/14 39/33/14
f 39/33/14 38/32/14 40/34/14
f 40/34/14 38/32/14 34/28/14
f 41/35/14 32/26/14 35/29/14
f 32/26/14 41/35/14 42/36/14
f 41/35/14 37/31/14 42/36/14
f 42/36/14 37/31/14 31/25/14
f 37/31/14 41/35/14 43/37/14
f 43/37/14 35/29/14 34/28/14
f 43/37/14 34/28/14 38/32/14
f 42/36/14 31/25/14 44/38/14
f 43/37/14 41/35/14 45/39/14
f 43/37/14 45/39/14 46/40/14
f 43/37/14 46/40/14 35/29/14
f 43/37/14 38/32/14 47/41/14
f 47/41/14 38/32/14 48/42/14
f 43/37/14 47/41/14 49/43/14
f 47/41/14 48/42/14 50/44/14
f 50/44/14 48/42/14 51/45/14
f 51/45/14 48/42/14 52/46/14
f 52/46/14 48/42/14 53/47/14
f 53/47/14 48/42/14 54/48/14
f 55/49/14 43/37/14 49/43/14
f 51/45/14 55/49/14 49/43/14
f 56/50/14 43/37/14 55/49/14
f 43/37/14 56/50/14 57/51/14
f 57/51/14 54/48/14 48/42/14
f 57/51/14 56/50/14 58/52/14
f 57/51/14 58/52/14 59/53/14
f 57/51/14 59/53/14 54/48/14
f 60/54/14 59/53/14 55/49/14
f 59/53/14 60/54/14 54/48/14
f 55/49/14 51/45/14 60/54/14
f 60/54/14 51/45/14 52/46/14
f 63/57/15 62/56/15 61/55/15
f 62/56/15 63/57/15 64/58/15
f 67/58/16 66/55/16 65/57/16
f 66/55/16 67/58/16 68/56/16
f 66/61/17 38/60/17 65/59/17
f 38/60/17 66/61/17 48/62/17
f 65/61/18 36/60/18 69/59/18
f 36/60/18 65/61/18 38/62/18
f 10/65/14 70/64/14 3/63/14
f 70/64/14 10/65/14 12/66/14
f 70/64/14 12/66/14 67/67/14
f 67/67/14 12/66/14 5/68/14
f 67/67/14 5/68/14 68/69/14
f 68/69/14 5/68/14 64/70/14
f 71/71/14 3/63/14 70/64/14
f 3/63/14 71/71/14 4/72/14
f 4/72/14 71/71/14 62/73/14
f 4/72/14 62/73/14 6/74/14
f 6/74/14 62/73/14 64/70/14
f 6/74/14 64/70/14 5/68/14
f 72/55/19 62/58/19 71/56/19
f 62/58/19 72/55/19 61/57/19
f 43/62/20 63/59/20 61/61/20
f 63/59/20 43/62/20 57/60/20
f 67/56/21 69/57/21 70/58/21
f 69/57/21 67/56/21 65/55/21
f 66/59/22 57/62/22 48/60/22
f 57/62/22 66/59/22 63/61/22
f 36/62/23 72/59/23 69/61/23
f 72/59/23 36/62/23 37/60/23
f 37/62/24 61/59/24 72/61/24
f 61/59/24 37/62/24 43/60/24
f 69/55/25 71/58/25 70/56/25
f 71/58/25 69/55/25 72/57/25
f 68/58/26 63/55/26 66/57/26
f 63/55/26 68/58/26 64/56/26

usemtl brownDark

f 52/46/14 54/48/14 60/54/14
f 54/48/14 52/46/14 53/47/14
f 55/49/14 58/52/14 56/50/14
f 58/52/14 55/49/14 59/53/14
f 35/29/14 45/39/14 41/35/14
f 45/39/14 35/29/14 46/40/14
f 32/26/14 44/38/14 31/25/14
f 44/38/14 32/26/14 42/36/14
f 39/33/14 34/28/14 33/27/14
f 34/28/14 39/33/14 40/34/14
f 49/43/14 50/44/14 51/45/14
f 50/44/14 49/43/14 47/41/14

usemtl _defaultMat

f 75/44/11 74/43/11 73/41/11
f 74/44/11 75/43/11 76/41/11
f 76/44/11 75/43/11 77/41/11
f 76/44/11 77/43/11 78/41/11
f 79/44/27 77/43/27 75/41/27
f 77/44/27 79/43/27 80/41/27
f 81/44/28 76/43/28 78/41/28
f 76/44/28 81/43/28 82/41/28
f 80/44/7 28/43/7 81/41/7
f 28/44/7 80/43/7 27/41/7
f 26/44/8 80/43/8 79/41/8
f 80/44/8 26/43/8 27/41/8
f 25/44/13 83/43/13 29/41/13
f 83/44/13 25/43/13 84/41/13
f 84/44/29 75/43/29 73/41/29
f 75/44/29 84/43/29 79/41/29
f 84/44/30 74/43/30 83/41/30
f 74/44/30 84/43/30 73/41/30
f 78/44/31 80/43/31 81/41/31
f 80/44/31 78/43/31 77/41/31
f 82/44/32 74/43/32 76/41/32
f 74/44/32 82/43/32 83/41/32
f 30/59/10 83/62/10 82/60/10
f 83/59/10 30/62/10 29/60/10
f 25/59/9 79/62/9 84/60/9
f 79/59/9 25/62/9 26/60/9
f 28/59/12 82/62/12 81/60/12
f 82/59/12 28/62/12 30/60/12

