# Created by Kenney (www.kenney.nl)

mtllib mortarPestle.mtl

g mortarPestle

v -1.082867E-15 0 0.05402304
v -0.04678532 0 0.02701152
v -3.609557E-16 0.02701152 0.0659081
v -0.0570781 0.02701152 0.03295405
v -0.04678532 0 -0.02701152
v -1.082867E-15 0 -0.05402304
v 0.04678532 0 -0.02701152
v 0.04678532 0 0.02701152
v -3.609557E-16 0.02701152 -0.0659081
v 0.0570781 0.02701152 -0.03295405
v -0.0570781 0.02701152 -0.03295405
v 0.0570781 0.02701152 0.03295405
v 0.04595928 0.3131421 0.02653461
v 0.04595928 0.3131421 -0.02653461
v 0.03481764 0.2861305 0.02010197
v 0.03481764 0.2861305 -0.02010197
v 1.082867E-15 0.2861305 0.04020395
v -0.04595928 0.3131421 -0.02653461
v 2.887646E-15 0.3131421 -0.05306921
v -0.03538865 0.3401536 -0.02043165
v 2.887646E-15 0.3401536 -0.04086329
v -0.04595928 0.3131421 0.02653461
v -0.03481764 0.2861305 0.02010197
v -0.03481764 0.2861305 -0.02010197
v 1.082867E-15 0.2861305 -0.04020395
v 2.887646E-15 0.3131421 0.05306921
v -0.03538865 0.3401536 0.02043165
v 2.887646E-15 0.3401536 0.04086329
v 0.03538865 0.3401536 0.02043165
v 0.03538865 0.3401536 -0.02043165

vn -0.4672285 -0.3560759 0.8092635
vn 0 -1 0
vn 0.4672285 -0.3560759 -0.8092635
vn -0.9344569 -0.3560759 0
vn 0.4672285 -0.3560759 0.8092635
vn 0.9344569 -0.3560759 0
vn -0.4672285 -0.3560759 -0.8092635
vn 0.9244459 -0.3813132 0
vn 0.4981651 0.08559296 0.8628473
vn 0.9963302 0.08559297 0
vn -0.4656161 0.3644266 -0.8064707
vn -0.9244459 -0.3813132 0
vn 0.462223 -0.3813131 -0.8005937
vn 0.462223 -0.3813131 0.8005937
vn 0 1 0
vn -0.462223 -0.3813131 0.8005937
vn -0.462223 -0.3813131 -0.8005937
vn -0.9312322 0.3644265 0
vn -0.9963302 0.08559297 0
vn -0.4981651 0.08559296 -0.8628473
vn -0.4656161 0.3644266 0.8064707
vn 0.4981651 0.08559296 -0.8628473
vn -0.4981651 0.08559296 0.8628473
vn 0.4656161 0.3644266 -0.8064707
vn 0.4656161 0.3644266 0.8064707
vn 0.9312322 0.3644265 0

vt 1.063446 0.6558712
vt -1.063446 0.6558712
vt 1.297404 1.793907
vt -1.297404 1.793907
vt 1.841942 -1.063446
vt 4.263256E-14 -2.126891
vt 1.841942 1.063446
vt 4.263256E-14 2.126891
vt -1.841942 1.063446
vt -1.841942 -1.063446
vt -1.04467 12.08692
vt 1.04467 12.08692
vt -0.7914163 10.93656
vt 0.7914163 10.93656
vt 1.297404 0.8672011
vt -1.297404 0.8672011
vt 0.7914163 11.10631
vt -0.7914163 11.10631
vt 1.04467 10.82123
vt -1.04467 10.82123
vt 0.8043955 11.9632
vt -0.8043955 11.9632
vt -1.393254 -0.8043955
vt -1.393254 0.8043955
vt 1.136868E-13 -1.608791
vt 1.136868E-13 1.608791
vt 1.393254 -0.8043955
vt 1.393254 0.8043955

usemtl greyLight

f 3/3/1 2/2/1 1/1/1
f 2/2/1 3/3/1 4/4/1
f 5/7/2 1/6/2 2/5/2
f 1/6/2 5/7/2 6/8/2
f 1/6/2 6/8/2 7/9/2
f 1/6/2 7/9/2 8/10/2
f 9/3/3 7/2/3 6/1/3
f 7/2/3 9/3/3 10/4/3
f 11/4/4 2/1/4 4/3/4
f 2/1/4 11/4/4 5/2/4
f 12/3/5 1/2/5 8/1/5
f 1/2/5 12/3/5 3/4/5
f 8/2/6 10/3/6 12/4/6
f 10/3/6 8/2/6 7/1/6
f 11/3/7 6/2/7 5/1/7
f 6/2/7 11/3/7 9/4/7

usemtl greyDark

f 15/13/8 14/12/8 13/11/8
f 14/12/8 15/13/8 16/14/8
f 15/17/9 3/16/9 12/15/9
f 3/16/9 15/17/9 17/18/9
f 10/15/10 15/18/10 12/16/10
f 15/18/10 10/15/10 16/17/10
f 20/21/11 19/20/11 18/19/11
f 19/20/11 20/21/11 21/22/11
f 18/11/12 23/14/12 22/12/12
f 23/14/12 18/11/12 24/13/12
f 19/12/13 16/13/13 25/14/13
f 16/13/13 19/12/13 14/11/13
f 13/12/14 17/13/14 15/14/14
f 17/13/14 13/12/14 26/11/14
f 28/25/15 20/24/15 27/23/15
f 20/24/15 28/25/15 21/26/15
f 21/26/15 28/25/15 29/27/15
f 21/26/15 29/27/15 30/28/15
f 26/12/16 23/13/16 17/14/16
f 23/13/16 26/12/16 22/11/16
f 18/12/17 25/13/17 24/14/17
f 25/13/17 18/12/17 19/11/17
f 27/21/18 18/20/18 22/19/18
f 18/20/18 27/21/18 20/22/18
f 23/17/19 11/16/19 4/15/19
f 11/16/19 23/17/19 24/18/19
f 24/17/20 9/16/20 11/15/20
f 9/16/20 24/17/20 25/18/20
f 28/21/21 22/20/21 26/19/21
f 22/20/21 28/21/21 27/22/21
f 25/17/22 10/16/22 9/15/22
f 10/16/22 25/17/22 16/18/22
f 17/17/23 4/16/23 3/15/23
f 4/16/23 17/17/23 23/18/23
f 21/21/24 14/20/24 19/19/24
f 14/20/24 21/21/24 30/22/24
f 29/21/25 26/20/25 13/19/25
f 26/20/25 29/21/25 28/22/25
f 14/19/26 29/22/26 13/20/26
f 29/22/26 14/19/26 30/21/26

