# Created by Kenney (www.kenney.nl)

mtllib orange.mtl

g orange

v -0.05027529 0.0237 0.05027529
v -0.03351686 0 0.03351686
v -0.0711 0.0237 5.414336E-16
v -0.0474 0 8.121503E-16
v 0.05027529 0.0237 0.05027529
v 0.0711 0.0237 5.414336E-16
v 0.03351686 0 0.03351686
v 0.0474 0 8.121503E-16
v 0.03351686 0 -0.03351686
v 0.05027529 0.0237 -0.05027529
v 0 0.0237 -0.0711
v 9.023893E-17 0 -0.0474
v -0.05027529 0.0237 -0.05027529
v -0.03351686 0 -0.03351686
v 9.023893E-17 0 0.0474
v 0 0.0237 0.0711
v -0.05027529 0.1185 -0.05027529
v 0 0.1185 -0.0711
v -0.03351686 0.1422 -0.03351686
v 9.023893E-17 0.1422 -0.0474
v 0 0.1185 0.0711
v -0.05027529 0.1185 0.05027529
v 9.023893E-17 0.1422 0.0474
v -0.03351686 0.1422 0.03351686
v 0.05027529 0.1185 0.05027529
v 0.03351686 0.1422 0.03351686
v -0.0711 0.1185 7.219114E-16
v -0.0474 0.1422 8.121503E-16
v 0.03351686 0.1422 -0.03351686
v 0.05027529 0.1185 -0.05027529
v 0.0474 0.1422 8.121503E-16
v 0.0711 0.1185 7.219114E-16
v -0.084846 0.0711 2.707168E-16
v -0.05999518 0.0711 -0.05999518
v -9.023893E-17 0.0711 0.084846
v -0.05999518 0.0711 0.05999518
v 0.05999518 0.0711 0.05999518
v -9.023893E-17 0.0711 -0.084846
v 0.084846 0.0711 2.707168E-16
v 0.05999518 0.0711 -0.05999518
v -0.029625 0.1422 8.121503E-16
v -0.01185 0.1422 0.01185
v 9.023893E-17 0.1422 0.029625
v 0.01185 0.1422 0.01185
v 0.029625 0.1422 8.121503E-16
v -0.01185 0.1422 -0.01185
v 9.023893E-17 0.1422 -0.029625
v 0.01185 0.1422 -0.01185
v 9.023893E-17 0.1522 -0.029625
v 0.029625 0.1522 8.121503E-16
v 9.023893E-17 0.1522 0.029625
v -0.029625 0.1522 8.121503E-16
v -0.00338937 0.1422 0.00338937
v 0.00338937 0.1422 0.00338937
v 0.00338937 0.1422 -0.00338937
v -0.00338937 0.1422 -0.00338937
v -0.005084055 0.1622 0.005084055
v -0.005084055 0.1622 -0.005084055
v 0.005084055 0.1622 0.005084055
v 0.005084055 0.1622 -0.005084055

vn -0.6785984 -0.6785984 0.2810847
vn 0.6785984 -0.6785984 0.2810847
vn 0.6785984 -0.6785984 -0.2810847
vn 0.2810847 -0.6785984 -0.6785984
vn -0.6785984 -0.6785984 -0.2810847
vn -0.2810847 -0.6785984 -0.6785984
vn -0.2810847 -0.6785984 0.6785984
vn -0.2810847 0.6785984 -0.6785984
vn -0.2810847 0.6785984 0.6785984
vn 0.2810847 0.6785984 0.6785984
vn -0.6785984 0.6785984 -0.2810847
vn -0.6785984 0.6785984 0.2810847
vn 0.6785984 0.6785984 -0.2810847
vn 0.6785984 0.6785984 0.2810847
vn 0.2810847 0.6785984 -0.6785984
vn 0 -1 0
vn 0.2810847 -0.6785984 0.6785984
vn -0.8924046 -0.2587973 -0.369646
vn -0.8924046 0.2587973 -0.369646
vn -0.369646 -0.2587973 0.8924046
vn -0.369646 0.2587973 0.8924046
vn -0.8924046 -0.2587973 0.369646
vn -0.8924046 0.2587973 0.369646
vn 0.369646 -0.2587973 0.8924046
vn 0.369646 0.2587973 0.8924046
vn -0.369646 -0.2587973 -0.8924046
vn -0.369646 0.2587973 -0.8924046
vn 0.8924046 -0.2587973 0.369646
vn 0.8924046 0.2587973 0.369646
vn 0.8924046 0.2587973 -0.369646
vn 0.369646 0.2587973 -0.8924046
vn 0.8924046 -0.2587973 -0.369646
vn 0.369646 -0.2587973 -0.8924046
vn 0 1 0
vn -0.8320503 0 -0.5547002
vn 0.8320503 0 -0.5547002
vn 0 0.8715428 0.4903195
vn 0.5547002 0 -0.8320503
vn 0.5547002 0 0.8320503
vn 0.8320503 0 0.5547002
vn -0.8320503 0 0.5547002
vn -0.5547002 0 -0.8320503
vn -0.5547002 0 0.8320503
vn 0.4903195 0.8715428 0
vn 0 0.8715428 -0.4903195
vn -0.4903195 0.8715428 0
vn 0 -0.08443169 -0.9964293
vn 0 -0.08443169 0.9964293
vn -0.9964293 -0.08443169 0
vn 0.9964293 -0.08443169 0

vt 1.071212 2.440297
vt 0.7141415 1.169965
vt -1.071212 2.440297
vt -0.7141415 1.169965
vt 1.071212 1.6718
vt -1.071212 1.6718
vt 0.7141415 2.942132
vt -0.7141415 2.942132
vt 1.866142 -3.197442E-14
vt 1.319561 -1.319561
vt 1.319561 1.319561
vt -3.552714E-15 1.866142
vt -3.552714E-15 -1.866142
vt -1.319561 1.319561
vt -1.319561 -1.319561
vt -1.866142 -3.197442E-14
vt 1.071212 1.570567
vt -1.071212 1.570567
vt 1.278313 3.502528
vt -1.278313 3.502528
vt 1.071212 3.837129
vt 1.278313 1.905168
vt -1.071212 3.837129
vt -1.278313 1.905168
vt -1.166339 -3.197442E-14
vt 3.552714E-15 -1.866142
vt -0.4665354 -0.4665354
vt 3.552714E-15 -1.166339
vt 0.4665354 -0.4665354
vt 1.166339 -3.197442E-14
vt 3.552714E-15 1.866142
vt -0.4665354 0.4665354
vt 3.552714E-15 1.166339
vt 0.4665354 0.4665354
vt -0.9704524 5.992126
vt -0.1293937 5.598425
vt -0.9704524 5.598425
vt 0.9704524 5.598425
vt 0.1293937 5.598425
vt 0.9704524 5.992126
vt -0.4665354 3.151622
vt 3.54035E-15 3.95457
vt 0.4665354 3.151622
vt -0.1334398 -0.1334398
vt 0.1334398 -0.1334398
vt 0.1334398 0.1334398
vt -0.1334398 0.1334398
vt -3.197442E-14 3.95457
vt -3.577533E-15 3.95457
vt 3.197442E-14 3.95457
vt -0.2001596 -0.2001596
vt -0.2001596 0.2001596
vt 0.2001596 -0.2001596
vt 0.2001596 0.2001596
vt 0.1334398 5.589701
vt -0.1334398 5.589701
vt 0.2001596 6.379924
vt -0.2001596 6.379924

usemtl orange

f 3/3/1 2/2/1 1/1/1
f 2/2/1 3/3/1 4/4/1
f 7/4/2 6/1/2 5/3/2
f 6/1/2 7/4/2 8/2/2
f 10/1/3 8/4/3 9/2/3
f 8/4/3 10/1/3 6/3/3
f 10/3/4 12/2/4 11/1/4
f 12/2/4 10/3/4 9/4/4
f 13/3/5 4/2/5 3/1/5
f 4/2/5 13/3/5 14/4/5
f 11/3/6 14/2/6 13/1/6
f 14/2/6 11/3/6 12/4/6
f 16/1/7 2/4/7 15/2/7
f 2/4/7 16/1/7 1/3/7
f 19/7/8 18/6/8 17/5/8
f 18/6/8 19/7/8 20/8/8
f 23/7/9 22/6/9 21/5/9
f 22/6/9 23/7/9 24/8/9
f 26/7/10 21/6/10 25/5/10
f 21/6/10 26/7/10 23/8/10
f 28/7/11 17/6/11 27/5/11
f 17/6/11 28/7/11 19/8/11
f 24/7/12 27/6/12 22/5/12
f 27/6/12 24/7/12 28/8/12
f 31/8/13 30/5/13 29/7/13
f 30/5/13 31/8/13 32/6/13
f 32/5/14 26/8/14 25/6/14
f 26/8/14 32/5/14 31/7/14
f 20/7/15 30/6/15 18/5/15
f 30/6/15 20/7/15 29/8/15
f 14/11/16 2/10/16 4/9/16
f 2/10/16 14/11/16 12/12/16
f 2/10/16 12/12/16 15/13/16
f 15/13/16 12/12/16 9/14/16
f 15/13/16 9/14/16 7/15/16
f 7/15/16 9/14/16 8/16/16
f 5/1/17 15/4/17 7/2/17
f 15/4/17 5/1/17 16/3/17
f 33/19/18 13/18/18 3/17/18
f 13/18/18 33/19/18 34/20/18
f 17/23/19 33/22/19 27/21/19
f 33/22/19 17/23/19 34/24/19
f 35/19/20 1/18/20 16/17/20
f 1/18/20 35/19/20 36/20/20
f 21/21/21 36/24/21 35/22/21
f 36/24/21 21/21/21 22/23/21
f 33/20/22 1/17/22 36/19/22
f 1/17/22 33/20/22 3/18/22
f 22/21/23 33/24/23 36/22/23
f 33/24/23 22/21/23 27/23/23
f 37/19/24 16/18/24 5/17/24
f 16/18/24 37/19/24 35/20/24
f 25/21/25 35/24/25 37/22/25
f 35/24/25 25/21/25 21/23/25
f 34/19/26 11/18/26 13/17/26
f 11/18/26 34/19/26 38/20/26
f 17/21/27 38/24/27 34/22/27
f 38/24/27 17/21/27 18/23/27
f 5/18/28 39/19/28 37/20/28
f 39/19/28 5/18/28 6/17/28
f 39/22/29 25/23/29 37/24/29
f 25/23/29 39/22/29 32/21/29
f 39/24/30 30/21/30 32/23/30
f 30/21/30 39/24/30 40/22/30
f 18/21/31 40/24/31 38/22/31
f 40/24/31 18/21/31 30/23/31
f 10/17/32 39/20/32 6/18/32
f 39/20/32 10/17/32 40/19/32
f 38/19/33 10/18/33 11/17/33
f 10/18/33 38/19/33 40/20/33
f 24/15/34 19/14/34 28/16/34
f 19/14/34 24/15/34 41/25/34
f 41/25/34 24/15/34 23/26/34
f 41/25/34 23/26/34 42/27/34
f 42/27/34 23/26/34 43/28/34
f 43/28/34 23/26/34 26/10/34
f 43/28/34 26/10/34 44/29/34
f 44/29/34 26/10/34 45/30/34
f 41/25/34 20/31/34 19/14/34
f 20/31/34 41/25/34 46/32/34
f 20/31/34 46/32/34 47/33/34
f 20/31/34 47/33/34 48/34/34
f 20/31/34 48/34/34 29/11/34
f 29/11/34 48/34/34 45/30/34
f 29/11/34 45/30/34 26/10/34
f 29/11/34 26/10/34 31/9/34

usemtl green

f 47/37/35 46/36/35 49/35/35
f 49/40/36 48/39/36 47/38/36
f 48/43/37 49/42/37 46/41/37
f 50/35/38 45/37/38 48/36/38
f 50/40/39 44/39/39 45/38/39
f 44/36/40 51/35/40 43/37/40
f 42/39/41 43/38/41 51/40/41
f 52/40/42 46/39/42 41/38/42
f 52/35/43 41/37/43 42/36/43
f 42/27/34 53/44/34 46/32/34
f 53/44/34 42/27/34 44/29/34
f 53/44/34 44/29/34 54/45/34
f 54/45/34 44/29/34 55/46/34
f 56/47/34 46/32/34 53/44/34
f 46/32/34 56/47/34 48/34/34
f 48/34/34 56/47/34 55/46/34
f 48/34/34 55/46/34 44/29/34
f 46/43/44 52/48/44 42/41/44
f 44/41/45 42/43/45 51/49/45
f 50/50/46 48/41/46 44/43/46
f 59/53/34 58/52/34 57/51/34
f 58/52/34 59/53/34 60/54/34
f 58/57/47 55/56/47 56/55/47
f 55/56/47 58/57/47 60/58/47
f 59/57/48 53/56/48 54/55/48
f 53/56/48 59/57/48 57/58/48
f 58/58/49 53/55/49 57/57/49
f 53/55/49 58/58/49 56/56/49
f 54/56/50 60/57/50 59/58/50
f 60/57/50 54/56/50 55/55/50

