# Created by Kenney (www.kenney.nl)

mtllib peanutButter.mtl

g peanutButter

v -0.08019084 0.261 -0.08019084
v -1.082867E-15 0.261 -0.113407
v -0.08019084 0.2958 -0.08019084
v -1.082867E-15 0.2958 -0.113407
v -0.08019084 0.2958 0.08019084
v -0.08019084 0.261 0.08019084
v -0.113407 0.2958 0
v -0.113407 0.261 0
v 0.08019084 0.261 0.08019084
v -1.082867E-15 0.261 0.113407
v 0.08019084 0.2958 0.08019084
v -1.082867E-15 0.2958 0.113407
v -0.1002762 0.261 0
v -0.07090598 0.261 -0.07090598
v -1.082867E-15 0.261 -0.1002762
v 0.08019084 0.261 -0.08019084
v 0.07090598 0.261 -0.07090598
v 0.1002762 0.261 0
v 0.113407 0.261 0
v -0.07090598 0.261 0.07090598
v -1.082867E-15 0.261 0.1002762
v 0.07090598 0.261 0.07090598
v 0.08019084 0.2958 -0.08019084
v -0.09706604 0.2958 0
v -0.06863604 0.2958 0.06863604
v -1.082867E-15 0.2958 0.09706604
v 0.06863604 0.2958 0.06863604
v 0.09706604 0.2958 0
v 0.113407 0.2958 0
v -0.06863604 0.2958 -0.06863604
v -1.082867E-15 0.2958 -0.09706604
v 0.06863604 0.2958 -0.06863604
v -0.08444745 0.2784 -7.219114E-16
v -0.05971336 0.2784 -0.05971336
v -0.05971336 0.2784 0.05971336
v -1.443823E-15 0.2784 0.08444745
v -1.443823E-15 0.2784 -0.08444745
v 0.05971336 0.2784 0.05971336
v 0.05971336 0.2784 -0.05971336
v 0.08444745 0.2784 -7.219114E-16
v -0.117972 0.2262 0
v -0.0834188 0.2262 -0.0834188
v -0.1002762 0.2436 0
v -0.07090598 0.2436 -0.07090598
v 0.07090598 0.2436 0.07090598
v 0.1002762 0.2436 0
v -7.219114E-16 0.2262 -0.117972
v -1.082867E-15 0.2436 -0.1002762
v -0.0834188 0.2262 0.0834188
v -0.07090598 0.2436 0.07090598
v -1.082867E-15 0.2436 0.1002762
v 0.07090598 0.2436 -0.07090598
v 0.0834188 0.2262 0.0834188
v 0.117972 0.2262 0
v 0.0834188 0.2262 -0.0834188
v -7.219114E-16 0.2262 0.117972
v -0.0834188 0.202275 -0.0834188
v -7.219114E-16 0.202275 -0.117972
v -0.117972 0.0348 0
v -0.1044 0 -7.219114E-16
v -0.0834188 0.0348 -0.0834188
v -0.07382195 0 -0.07382195
v 0.0834188 0.202275 -0.0834188
v 3.609557E-16 0 -0.1044
v 0.07382195 0 -0.07382195
v -7.219114E-16 0.0348 -0.117972
v 0.0834188 0.0348 -0.0834188
v 3.609557E-16 0 0.1044
v -0.07382195 0 0.07382195
v -7.219114E-16 0.0348 0.117972
v -0.0834188 0.0348 0.0834188
v 0.07382195 0 0.07382195
v 0.1044 0 -7.219114E-16
v -0.117972 0.058725 0
v -0.0834188 0.058725 -0.0834188
v -7.219114E-16 0.058725 -0.117972
v 0.0834188 0.0348 0.0834188
v 0.0834188 0.058725 0.0834188
v -7.219114E-16 0.058725 0.117972
v 0.117972 0.0348 0
v 0.117972 0.058725 0
v 0.0834188 0.058725 -0.0834188
v -7.219114E-16 0.202275 0.117972
v -0.0834188 0.202275 0.0834188
v -0.117972 0.202275 0
v -0.0834188 0.058725 0.0834188
v 0.0834188 0.202275 0.0834188
v 0.117972 0.202275 0

vn -0.3826834 0 -0.9238795
vn -0.9238795 0 0.3826834
vn 0.3826834 0 0.9238795
vn 0 -1 0
vn 0.3826834 0 -0.9238795
vn -0.3826834 0 0.9238795
vn 0 1 0
vn -0.9238795 0 -0.3826834
vn 0.9238795 0 0.3826834
vn -0.3179215 0.5566176 -0.7675303
vn 0.3179215 0.5566176 0.7675303
vn -0.7675303 0.5566176 -0.3179215
vn 0.7675303 0.5566176 0.3179215
vn -0.7675303 0.5566176 0.3179215
vn 0.3179215 0.5566176 -0.7675303
vn 0.9238795 0 -0.3826834
vn 0.7675303 0.5566176 -0.3179215
vn -0.3179215 0.5566176 0.7675303
vn -0.6733035 0.6847497 -0.2788914
vn -0.2788914 0.6847497 -0.6733035
vn -0.6733035 0.6847497 0.2788914
vn 0.6733035 0.6847497 0.2788914
vn 0.2788914 0.6847497 -0.6733035
vn 0.6733035 0.6847497 -0.2788914
vn -0.2788914 0.6847497 0.6733035
vn 0.2788914 0.6847497 0.6733035
vn -0.8691799 -0.3389802 -0.3600261
vn 0.3600261 -0.3389802 -0.8691799
vn -0.3600261 -0.3389802 0.8691799
vn 0.3600261 -0.3389802 0.8691799
vn -0.3600261 -0.3389802 -0.8691799
vn -0.8691799 -0.3389802 0.3600261
vn 0.8691799 -0.3389802 -0.3600261
vn 0.8691799 -0.3389802 0.3600261

vt 1.708621 10.27559
vt -1.708621 10.27559
vt 1.708621 11.64567
vt -1.708621 11.64567
vt 4.464842 0
vt 3.947882 0
vt 3.15712 3.15712
vt 2.791574 2.791574
vt 4.263256E-14 4.464842
vt 4.263256E-14 3.947882
vt -3.15712 3.15712
vt -2.791574 2.791574
vt -3.947882 0
vt -4.464842 0
vt 3.15712 -3.15712
vt 2.791574 -2.791574
vt 4.263256E-14 -4.464842
vt 4.263256E-14 -3.947882
vt -2.791574 -2.791574
vt -3.15712 -3.15712
vt -3.821497 0
vt -2.702207 -2.702207
vt -4.263256E-14 -4.464842
vt -4.263256E-14 -3.821497
vt 2.702207 -2.702207
vt 3.821497 0
vt -2.702207 2.702207
vt -4.263256E-14 4.464842
vt -4.263256E-14 3.821497
vt 2.702207 2.702207
vt -3.324703 2.842171E-14
vt -2.35092 2.35092
vt -2.35092 -2.35092
vt -5.684342E-14 -3.324703
vt -5.684342E-14 3.324703
vt 2.35092 -2.35092
vt 2.35092 2.35092
vt 3.324703 2.842171E-14
vt 1.272309 10.81547
vt -1.272309 10.81547
vt 1.462424 11.64005
vt -1.462424 11.64005
vt 1.777399 3.55187
vt -1.777399 3.55187
vt 1.510789 4.491853
vt -1.510789 4.491853
vt -1.510789 9.590551
vt -1.510789 10.27559
vt 1.510789 9.590551
vt 1.510789 10.27559
vt 1.777399 7.963583
vt -1.777399 7.963583
vt 1.777399 8.905512
vt -1.777399 8.905512
vt 1.777399 2.743532
vt 1.572919 1.287231
vt -1.777399 2.743532
vt -1.572919 1.287231
vt 4.110236 2.842171E-14
vt 2.906376 -2.906376
vt 2.906376 2.906376
vt -1.421085E-14 4.110236
vt -1.421085E-14 -4.110236
vt -2.906376 2.906376
vt -2.906376 -2.906376
vt -4.110236 2.842171E-14
vt 1.777399 2.312008
vt 1.777399 1.370079
vt -1.777399 2.312008
vt -1.777399 1.370079

usemtl brownDark

f 3/3/1 2/2/1 1/1/1
f 2/2/1 3/3/1 4/4/1
f 7/4/2 6/1/2 5/3/2
f 6/1/2 7/4/2 8/2/2
f 11/3/3 10/2/3 9/1/3
f 10/2/3 11/3/3 12/4/3
f 1/7/4 13/6/4 8/5/4
f 13/6/4 1/7/4 14/8/4
f 14/8/4 1/7/4 2/9/4
f 14/8/4 2/9/4 15/10/4
f 15/10/4 2/9/4 16/11/4
f 15/10/4 16/11/4 17/12/4
f 17/12/4 16/11/4 18/13/4
f 18/13/4 16/11/4 19/14/4
f 13/6/4 6/15/4 8/5/4
f 6/15/4 13/6/4 20/16/4
f 6/15/4 20/16/4 10/17/4
f 10/17/4 20/16/4 21/18/4
f 10/17/4 21/18/4 22/19/4
f 10/17/4 22/19/4 9/20/4
f 9/20/4 22/19/4 18/13/4
f 9/20/4 18/13/4 19/14/4
f 4/3/5 16/2/5 2/1/5
f 16/2/5 4/3/5 23/4/5
f 12/3/6 6/2/6 10/1/6
f 6/2/6 12/3/6 5/4/6
f 5/20/7 24/21/7 7/14/7
f 24/21/7 5/20/7 25/22/7
f 25/22/7 5/20/7 12/23/7
f 25/22/7 12/23/7 26/24/7
f 26/24/7 12/23/7 11/15/7
f 26/24/7 11/15/7 27/25/7
f 27/25/7 11/15/7 28/26/7
f 28/26/7 11/15/7 29/5/7
f 24/21/7 3/11/7 7/14/7
f 3/11/7 24/21/7 30/27/7
f 3/11/7 30/27/7 4/28/7
f 4/28/7 30/27/7 31/29/7
f 4/28/7 31/29/7 32/30/7
f 4/28/7 32/30/7 23/7/7
f 23/7/7 32/30/7 28/26/7
f 23/7/7 28/26/7 29/5/7
f 3/4/8 8/1/8 7/3/8
f 8/1/8 3/4/8 1/2/8
f 19/1/9 11/4/9 9/2/9
f 11/4/9 19/1/9 29/3/9
f 35/33/7 34/32/7 33/31/7
f 34/32/7 35/33/7 36/34/7
f 34/32/7 36/34/7 37/35/7
f 37/35/7 36/34/7 38/36/7
f 37/35/7 38/36/7 39/37/7
f 39/37/7 38/36/7 40/38/7
f 26/41/10 38/40/10 36/39/10
f 38/40/10 26/41/10 27/42/10
f 31/41/11 34/40/11 37/39/11
f 34/40/11 31/41/11 30/42/11
f 28/42/12 38/39/12 27/41/12
f 38/39/12 28/42/12 40/40/12
f 33/40/13 30/41/13 24/42/13
f 30/41/13 33/40/13 34/39/13
f 32/42/14 40/39/14 28/41/14
f 40/39/14 32/42/14 39/40/14
f 25/41/15 36/40/15 35/39/15
f 36/40/15 25/41/15 26/42/15
f 16/1/16 29/4/16 19/2/16
f 29/4/16 16/1/16 23/3/16
f 35/40/17 24/41/17 25/42/17
f 24/41/17 35/40/17 33/39/17
f 32/41/18 37/40/18 39/39/18
f 37/40/18 32/41/18 31/42/18

usemtl brownLight

f 43/45/19 42/44/19 41/43/19
f 42/44/19 43/45/19 44/46/19
f 46/49/9 22/48/9 45/47/9
f 22/48/9 46/49/9 18/50/9
f 44/45/20 47/44/20 42/43/20
f 47/44/20 44/45/20 48/46/20
f 49/43/21 43/46/21 41/44/21
f 43/46/21 49/43/21 50/45/21
f 21/50/6 50/47/6 51/49/6
f 50/47/6 21/50/6 20/48/6
f 52/49/16 18/48/16 46/47/16
f 18/48/16 52/49/16 17/50/16
f 53/44/22 46/45/22 45/46/22
f 46/45/22 53/44/22 54/43/22
f 14/48/8 43/49/8 13/50/8
f 43/49/8 14/48/8 44/47/8
f 22/50/3 51/47/3 45/49/3
f 51/47/3 22/50/3 21/48/3
f 15/50/5 52/47/5 48/49/5
f 52/47/5 15/50/5 17/48/5
f 52/46/23 47/43/23 48/45/23
f 47/43/23 52/46/23 55/44/23
f 13/48/2 50/49/2 20/50/2
f 50/49/2 13/48/2 43/47/2
f 14/50/1 48/47/1 44/49/1
f 48/47/1 14/50/1 15/48/1
f 46/46/24 55/43/24 52/45/24
f 55/43/24 46/46/24 54/44/24
f 56/43/25 50/46/25 49/44/25
f 50/46/25 56/43/25 51/45/25
f 56/44/26 45/45/26 51/46/26
f 45/45/26 56/44/26 53/43/26
f 42/53/1 58/52/1 57/51/1
f 58/52/1 42/53/1 47/54/1
f 61/57/27 60/56/27 59/55/27
f 60/56/27 61/57/27 62/58/27
f 47/53/5 63/52/5 58/51/5
f 63/52/5 47/53/5 55/54/5
f 66/55/28 65/58/28 64/56/28
f 65/58/28 66/55/28 67/57/28
f 70/55/29 69/58/29 68/56/29
f 69/58/29 70/55/29 71/57/29
f 62/61/4 69/60/4 60/59/4
f 69/60/4 62/61/4 64/62/4
f 69/60/4 64/62/4 68/63/4
f 68/63/4 64/62/4 65/64/4
f 68/63/4 65/64/4 72/65/4
f 72/65/4 65/64/4 73/66/4
f 75/69/8 59/68/8 74/67/8
f 59/68/8 75/69/8 61/70/8
f 75/67/1 66/70/1 61/68/1
f 66/70/1 75/67/1 76/69/1
f 78/67/3 70/70/3 77/68/3
f 70/70/3 78/67/3 79/69/3
f 67/68/16 81/69/16 80/70/16
f 81/69/16 67/68/16 82/67/16
f 56/53/6 84/52/6 83/51/6
f 84/52/6 56/53/6 49/54/6
f 41/54/2 84/51/2 49/53/2
f 84/51/2 41/54/2 85/52/2
f 74/69/2 71/68/2 86/67/2
f 71/68/2 74/69/2 59/70/2
f 79/67/6 71/70/6 70/68/6
f 71/70/6 79/67/6 86/69/6
f 77/55/30 68/58/30 72/56/30
f 68/58/30 77/55/30 70/57/30
f 88/51/9 53/54/9 87/52/9
f 53/54/9 88/51/9 54/53/9
f 61/55/31 64/58/31 62/56/31
f 64/58/31 61/55/31 66/57/31
f 59/57/32 69/56/32 71/55/32
f 69/56/32 59/57/32 60/58/32
f 73/58/33 67/55/33 80/57/33
f 67/55/33 73/58/33 65/56/33
f 80/68/9 78/69/9 77/70/9
f 78/69/9 80/68/9 81/67/9
f 76/67/5 67/70/5 66/68/5
f 67/70/5 76/67/5 82/69/5
f 42/54/8 85/51/8 41/53/8
f 85/51/8 42/54/8 57/52/8
f 53/53/3 83/52/3 87/51/3
f 83/52/3 53/53/3 56/54/3
f 63/51/16 54/54/16 88/52/16
f 54/54/16 63/51/16 55/53/16
f 72/58/34 80/55/34 77/57/34
f 80/55/34 72/58/34 73/56/34

usemtl green

f 57/52/8 74/67/8 85/51/8
f 74/67/8 57/52/8 75/69/8
f 83/51/6 86/69/6 79/67/6
f 86/69/6 83/51/6 84/52/6
f 58/51/5 82/69/5 76/67/5
f 82/69/5 58/51/5 63/52/5
f 85/52/2 86/67/2 84/51/2
f 86/67/2 85/52/2 74/69/2
f 87/51/3 79/69/3 78/67/3
f 79/69/3 87/51/3 83/52/3
f 82/67/16 88/52/16 81/69/16
f 88/52/16 82/67/16 63/51/16
f 81/67/9 87/52/9 78/69/9
f 87/52/9 81/67/9 88/51/9
f 57/51/1 76/69/1 75/67/1
f 76/69/1 57/51/1 58/52/1

