# Created by Kenney (www.kenney.nl)

mtllib pearHalf.mtl

g pearHalf

v 0.05583315 0.03196 0.05583315
v 0 0.03196 0.07896
v 0.06940061 0.06859114 0.06940061
v 0 0.06859114 0.09814728
v 0 0.157016 -0.05176641
v 0 0.1206342 -0.08931402
v 0.03660438 0.157016 -0.03660438
v 0.06315455 0.1206342 -0.06315455
v 0 0.06859114 -0.09814728
v 0.06940061 0.06859114 -0.06940061
v 0.05176641 0.157016 -3.609557E-16
v 0.08931402 0.1206342 0
v 0 0 0.044744
v 0.03163878 0 0.03163878
v 0.03660438 0.157016 0.03660438
v 0.02725283 0.204316 0.02725283
v 0.03854132 0.204316 -3.609557E-16
v 0.09814728 0.06859114 0
v 0.07896 0.03196 -3.609557E-16
v 0.05583315 0.03196 -0.05583315
v 0 0.204316 -0.03854132
v 0.02725283 0.204316 -0.02725283
v 0 0.03196 -0.07896
v 0 0 -0.044744
v 0.03163878 0 -0.03163878
v 0 0.1206342 0.08931402
v 0 0.157016 0.05176641
v 0.06315455 0.1206342 0.06315455
v 0.044744 0 -7.219114E-16
v 0 0.204316 0.03854132
v 0 0.227016 0.01953391
v 0 0.227016 0.005381376
v 0.01381256 0.227016 0.01381256
v 0.005381376 0.227016 0.005381376
v 0.005381376 0.227016 -0.005381376
v 0.01381256 0.227016 -0.01381256
v 0 0.227016 -0.01953391
v 0 0.227016 -0.005381376
v 0.01953391 0.227016 0
v 0 0.07134246 0.08078832
v 0 0.1124697 0.07380781
v 0 0.1481916 0.03694118
v 0 0.1963757 0.02346892
v 0 0.2103622 0.01175758
v 0 0.2103622 0.005381376
v 0 0.2103622 -0.005381376
v 0 0.2103622 -0.01175758
v 0 0.1963757 -0.02346892
v 0 0.1481916 -0.03694118
v 0 0.1124697 -0.07380781
v 0 0.07134246 -0.08078832
v 0 0.04219672 -0.06552187
v 0 0.0166538 -0.03817592
v 0 0.0266538 -1.443823E-15
v 0 0.0166538 0.03817592
v 0 0.04219672 0.06552187
v 0.0096096 0.2707534 0.0096096
v 0.0096096 0.2707534 -0.0096096
v 0 0.2707534 -0.0096096
v 0 0.2707534 0.0096096
v 0 0.07215909 0.02483564
v 0 0.0695709 0.01517638
v 0 0.09018351 0.01482963
v 0 0.08888941 0.01
v 0 0.08888941 -0.01
v 0 0.0695709 -0.01517638
v 0 0.09018351 -0.01482963
v 0 0.07215909 -0.02483564

vn 0.3444687 -0.4356005 0.8316211
vn 0.2769628 0.6900741 -0.6686473
vn 0.3780635 0.1549167 -0.9127261
vn 0.6686473 0.6900741 -0.2769628
vn 0.2720776 -0.7032194 0.6568533
vn 0.8945169 0.2501071 0.3705211
vn 0.8316211 -0.4356005 -0.3444687
vn 0.3705211 0.2501071 -0.8945169
vn 0.2720776 -0.7032194 -0.6568533
vn 0.9127261 0.1549167 -0.3780635
vn 0.2769628 0.6900741 0.6686473
vn 0.6568533 -0.7032194 -0.2720776
vn 0.3705211 0.2501071 0.8945169
vn 0.3444687 -0.4356005 -0.8316211
vn 0 -1 0
vn 0.8316211 -0.4356005 0.3444687
vn 0.6686473 0.6900741 0.2769628
vn 0.3780635 0.1549167 0.9127261
vn 0 1 0
vn 0.8945169 0.2501071 -0.3705211
vn 0.9127261 0.1549167 0.3780635
vn 0.3026848 0.6118762 -0.7307458
vn 0.6568533 -0.7032194 0.2720776
vn 0.7307458 0.6118762 0.3026848
vn 0.7307458 0.6118762 -0.3026848
vn -1 0 0
vn 0.3026848 0.6118762 0.7307458
vn 0.9953597 -0.09622436 0
vn 0 -0.09622436 -0.9953597
vn 0 -0.09622436 0.9953597

vt 1.189633 2.383674
vt -1.189633 2.383674
vt 1.478714 3.985837
vt -1.478714 3.985837
vt 0.7799271 3.174611
vt 1.34563 1.195508
vt -0.7799271 3.174611
vt -1.34563 1.195508
vt 1.478714 2.114796
vt -1.478714 2.114796
vt 1.34563 4.188775
vt -1.34563 4.188775
vt -0.6741255 1.144478
vt -1.189633 2.914261
vt 0.6741255 1.144478
vt 1.189633 2.914261
vt -0.7799271 5.514337
vt -0.5806742 7.437668
vt 0.7799271 5.514337
vt 0.5806742 7.437668
vt 0 1.761575
vt 0 -1.761575
vt -1.245621 1.245621
vt -1.245621 -1.245621
vt -1.761575 2.842171E-14
vt -5.789245E-15 -0.7690514
vt -5.789245E-15 -0.2118652
vt 0.5438015 -0.5438015
vt 0.2118652 -0.2118652
vt 0.2118652 0.2118652
vt 0.5438015 0.5438015
vt -5.789245E-15 0.7690514
vt -5.789245E-15 0.2118652
vt 0.7690514 -1.721541E-15
vt 0.5806742 5.504609
vt -0.5806742 5.504609
vt 0.2943032 6.634511
vt -0.2943032 6.634511
vt 3.180643 2.808758
vt 2.905819 4.427942
vt 3.5163 4.74938
vt 2.038048 6.181732
vt 1.454377 5.834316
vt 1.517375 8.043937
vt 0.7690514 8.937637
vt 0.9239731 7.731327
vt 0.4628968 8.281977
vt 0.2118652 8.937637
vt 0.2118652 8.281977
vt -0.2118652 8.937637
vt -0.2118652 8.281977
vt -0.7690514 8.937637
vt -0.4628968 8.281977
vt -0.9239731 7.731327
vt -1.517375 8.043937
vt -1.454377 5.834316
vt -2.038048 6.181732
vt -2.905819 4.427942
vt -3.5163 4.74938
vt -3.180643 2.808758
vt -3.864066 2.700439
vt -3.108661 1.258268
vt -2.579601 1.661288
vt -1.761575 0
vt -1.502989 0.6556615
vt -5.684342E-14 1.049362
vt 1.502989 0.6556615
vt 1.761575 0
vt 2.579601 1.661288
vt 3.108661 1.258268
vt 3.864066 2.700439
vt -0.3783307 10.64652
vt 0.3783307 10.64652
vt -0.2118652 8.916551
vt 0.2118652 8.916551
vt 5.273936E-18 8.916551
vt 9.417743E-18 10.64652
vt 9.635482E-15 8.916551
vt 1.720622E-14 10.64652
vt -5.004939E-14 -0.3783307
vt -5.004939E-14 0.3783307
vt 0.3783307 -0.3783307
vt 0.3783307 0.3783307
vt 0.3783307 10.65958
vt -0.3783307 10.65958
vt 0.9777811 2.840909
vt 0.5974953 2.739012
vt 0.5838436 3.550532
vt 0.3937008 3.499583
vt -0.3937008 3.499583
vt -0.5974953 2.739012
vt -0.5838436 3.550532
vt -0.9777811 2.840909

usemtl green

f 3/3/1 2/2/1 1/1/1
f 2/2/1 3/3/1 4/4/1
f 7/7/2 6/6/2 5/5/2
f 6/6/2 7/7/2 8/8/2
f 6/11/3 10/10/3 9/9/3
f 10/10/3 6/11/3 8/12/3
f 11/7/4 8/6/4 7/5/4
f 8/6/4 11/7/4 12/8/4
f 14/15/5 2/14/5 13/13/5
f 2/14/5 14/15/5 1/16/5
f 11/19/6 16/18/6 15/17/6
f 16/18/6 11/19/6 17/20/6
f 19/2/7 10/3/7 18/4/7
f 10/3/7 19/2/7 20/1/7
f 21/20/8 7/17/8 5/19/8
f 7/17/8 21/20/8 22/18/8
f 20/14/9 24/15/9 23/16/9
f 24/15/9 20/14/9 25/13/9
f 10/9/10 12/12/10 18/10/10
f 12/12/10 10/9/10 8/11/10
f 28/6/11 27/7/11 26/8/11
f 27/7/11 28/6/11 15/5/11
f 20/16/12 29/13/12 25/15/12
f 29/13/12 20/16/12 19/14/12
f 16/20/13 27/17/13 15/19/13
f 27/17/13 16/20/13 30/18/13
f 9/3/14 20/2/14 23/1/14
f 20/2/14 9/3/14 10/4/14
f 25/23/15 13/22/15 24/21/15
f 13/22/15 25/23/15 14/24/15
f 14/24/15 25/23/15 29/25/15
f 1/2/16 18/3/16 3/4/16
f 18/3/16 1/2/16 19/1/16
f 28/8/17 11/5/17 15/7/17
f 11/5/17 28/8/17 12/6/17
f 28/11/18 4/10/18 3/9/18
f 4/10/18 28/11/18 26/12/18
f 33/28/19 32/27/19 31/26/19
f 32/27/19 33/28/19 34/29/19
f 34/29/19 33/28/19 35/30/19
f 36/31/19 35/30/19 33/28/19
f 37/32/19 35/30/19 36/31/19
f 35/30/19 37/32/19 38/33/19
f 36/31/19 33/28/19 39/34/19
f 7/19/20 17/18/20 11/17/20
f 17/18/20 7/19/20 22/20/20
f 18/9/21 28/12/21 3/10/21
f 28/12/21 18/9/21 12/11/21
f 37/37/22 22/36/22 21/35/22
f 22/36/22 37/37/22 36/38/22
f 29/15/23 1/14/23 14/13/23
f 1/14/23 29/15/23 19/16/23
f 17/35/24 33/38/24 16/36/24
f 33/38/24 17/35/24 39/37/24
f 17/36/25 36/37/25 39/38/25
f 36/37/25 17/36/25 22/35/25
f 26/41/26 41/40/26 40/39/26
f 41/40/26 26/41/26 27/42/26
f 41/40/26 27/42/26 42/43/26
f 42/43/26 27/42/26 30/44/26
f 42/43/26 30/44/26 31/45/26
f 42/43/26 31/45/26 43/46/26
f 43/46/26 31/45/26 44/47/26
f 44/47/26 31/45/26 32/48/26
f 44/47/26 32/48/26 45/49/26
f 45/49/26 32/48/26 38/50/26
f 45/49/26 38/50/26 46/51/26
f 46/51/26 38/50/26 37/52/26
f 46/51/26 37/52/26 47/53/26
f 47/53/26 37/52/26 48/54/26
f 48/54/26 37/52/26 21/55/26
f 48/54/26 21/55/26 49/56/26
f 49/56/26 21/55/26 5/57/26
f 49/56/26 5/57/26 50/58/26
f 50/58/26 5/57/26 6/59/26
f 50/58/26 6/59/26 51/60/26
f 9/61/26 51/60/26 6/59/26
f 23/62/26 51/60/26 9/61/26
f 23/62/26 52/63/26 51/60/26
f 24/64/26 52/63/26 23/62/26
f 24/64/26 53/65/26 52/63/26
f 24/64/26 54/66/26 53/65/26
f 24/64/26 55/67/26 54/66/26
f 13/68/26 55/67/26 24/64/26
f 13/68/26 56/69/26 55/67/26
f 2/70/26 56/69/26 13/68/26
f 2/70/26 40/39/26 56/69/26
f 2/70/26 26/41/26 40/39/26
f 26/41/26 2/70/26 4/71/26
f 33/37/27 30/36/27 16/35/27
f 30/36/27 33/37/27 31/38/27

usemtl brown

f 34/74/28 58/73/28 57/72/28
f 58/73/28 34/74/28 35/75/28
f 59/77/29 35/74/29 38/76/29
f 35/74/29 59/77/29 58/72/29
f 57/73/30 32/78/30 34/75/30
f 32/78/30 57/73/30 60/79/30
f 57/82/19 59/81/19 60/80/19
f 59/81/19 57/82/19 58/83/19
f 59/85/26 32/48/26 60/84/26
f 32/48/26 59/85/26 38/50/26

usemtl brownDark

f 63/88/26 62/87/26 61/86/26
f 62/87/26 63/88/26 64/89/26
f 67/92/26 66/91/26 65/90/26
f 66/91/26 67/92/26 68/93/26

usemtl brownLight

f 43/46/26 61/86/26 42/43/26
f 61/86/26 43/46/26 63/88/26
f 63/88/26 43/46/26 44/47/26
f 63/88/26 44/47/26 64/89/26
f 64/89/26 44/47/26 45/49/26
f 55/67/26 42/43/26 61/86/26
f 56/69/26 42/43/26 55/67/26
f 56/69/26 41/40/26 42/43/26
f 41/40/26 56/69/26 40/39/26
f 55/67/26 61/86/26 54/66/26
f 54/66/26 64/89/26 45/49/26
f 54/66/26 61/86/26 62/87/26
f 54/66/26 62/87/26 64/89/26
f 54/66/26 45/49/26 46/51/26
f 54/66/26 46/51/26 65/90/26
f 47/53/26 65/90/26 46/51/26
f 65/90/26 47/53/26 67/92/26
f 67/92/26 47/53/26 48/54/26
f 67/92/26 48/54/26 68/93/26
f 68/93/26 48/54/26 49/56/26
f 54/66/26 65/90/26 66/91/26
f 54/66/26 66/91/26 53/65/26
f 53/65/26 66/91/26 68/93/26
f 53/65/26 68/93/26 49/56/26
f 53/65/26 49/56/26 50/58/26
f 53/65/26 50/58/26 52/63/26
f 52/63/26 50/58/26 51/60/26

usemtl _defaultMat

f 34/36/19 38/37/19 32/38/19
f 38/36/19 34/37/19 35/38/19

