# Created by Kenney (www.kenney.nl)

mtllib pepper.mtl

g pepper

v -0.01152378 0.07083395 -0.005734042
v -0.02984156 0.03873732 -0.008537056
v -0.03750956 0.03873732 -0.06113706
v -0.04808614 0.03033442 0.1507376
v -0.02619452 0.02193152 0.1038722
v -0.05195044 0.03873732 0.1478044
v -0.03392311 0.03873732 0.09800591
v -0.01445928 0.01402291 0.04976581
v 0.01234035 0.01402291 0.05957308
v 0.02511178 0.006640683 -0.0001280136
v -0.01445928 0.06345172 0.04976581
v 0.02511178 0.07083395 -0.0001280136
v -0.01073733 0.02193152 0.1156049
v -0.003008731 0.03873732 0.1214712
v 0.02574016 0.03873732 0.06447671
v 0.04342956 0.03873732 0.002675001
v -0.04035755 0.03033442 0.1566039
v -0.02619452 0.05554311 0.1038722
v -0.02785909 0.03873732 0.04486217
v -0.01152378 0.006640683 -0.005734042
v 0.01234035 0.06345172 0.05957308
v -0.01514456 0 -0.06113706
v -0.04808614 0.04714021 0.1507376
v -0.03649325 0.03873732 0.159537
v -0.04035755 0.04714021 0.1566039
v -0.01073733 0.05554311 0.1156049
v 0.02958544 0.07747463 -0.06113706
v 0.05195044 0.03873732 -0.06113706
v -0.01514456 0.07747463 -0.06113706
v -0.00875456 0.06640683 -0.08953705
v 0.02319544 0.06640683 -0.08953705
v 0.02958544 0 -0.06113706
v -0.00875456 0.0110678 -0.08953705
v 0.02319544 0.0110678 -0.08953705
v -0.02472956 0.03873732 -0.08953705
v 0.03917044 0.03873732 -0.08953705
v 0.0003306908 0.03184757 -0.08953705
v 0.0003306908 0.04562707 -0.08953705
v 0.01411019 0.04562707 -0.08953705
v 0.01411019 0.03184757 -0.08953705
v 0.0003306908 0.05862707 -0.1069371
v 0.01411019 0.05862707 -0.1069371
v 0.02711019 0.03184757 -0.1069371
v 0.02711019 0.04562707 -0.1069371
v 0.0003306908 0.01884757 -0.1069371
v 0.01411019 0.01884757 -0.1069371
v -0.01266931 0.04562707 -0.1069371
v -0.01266931 0.03184757 -0.1069371
v -0.003389774 0.0281271 -0.159537
v 0.01783065 0.0281271 -0.159537
v -0.003389774 0.04934753 -0.159537
v 0.01783065 0.04934753 -0.159537

vn -0.8635858 0.4893271 0.1215674
vn -0.8662671 0.4833565 0.126284
vn -0.8625 0.491701 0.1196828
vn -0.8234635 -0.4827475 -0.2980982
vn -0.03454982 -0.9922437 0.1194095
vn -0.04165594 -0.9926265 0.1138302
vn -0.0265483 -0.9917158 0.1256774
vn -0.03454982 0.9922437 0.1194095
vn -0.020013 0.9912087 0.1307856
vn -0.0265483 0.9917158 0.1256774
vn 0.7760895 -0.4947022 0.3910942
vn 0.7764153 -0.4937619 0.3916358
vn 0.7753672 -0.4967752 0.3898975
vn 0.8334094 -0.4983466 0.2389131
vn 0.8331307 -0.4990265 0.2384656
vn 0.8337523 -0.4975074 0.2394651
vn -0.09911257 -0.9864718 0.130576
vn -0.04904907 -0.9897622 0.1340329
vn -0.07298646 -0.9908642 0.113407
vn -0.05575924 -0.9901707 0.1282688
vn -0.8815957 0.4599223 -0.1061155
vn -0.8899081 0.4446935 -0.1015439
vn -0.8693168 0.4812719 -0.1125421
vn -0.020013 -0.9912087 0.1307856
vn -0.04165594 0.9926265 0.1138302
vn -0.8690855 0.4942663 0.01977638
vn -0.8766216 0.4803854 0.02764874
vn -0.8728499 0.4874141 0.0236742
vn -0.8625 -0.491701 0.1196828
vn -0.8635858 -0.4893271 0.1215674
vn -0.8602048 -0.4966395 0.1157453
vn -0.8813358 -0.4713562 0.03271994
vn -0.8766216 -0.4803854 0.02764874
vn -0.8728499 -0.4874141 0.0236742
vn -0.8899081 -0.4446935 -0.1015439
vn -0.8815957 -0.4599223 -0.1061155
vn -0.8693168 -0.4812719 -0.1125421
vn -0.8234635 0.4827475 -0.2980982
vn 0.650674 -0.4990222 0.5723636
vn 0.8331307 0.4990265 0.2384656
vn 0.8334094 0.4983466 0.2389131
vn 0.8337523 0.4975074 0.2394651
vn 0.7751044 -0.4975252 0.3894635
vn -0.6045992 0 0.7965299
vn -0.09911257 0.9864718 0.130576
vn 0.8590638 0.4986499 0.1155753
vn 0.8600656 0.4965591 0.117116
vn 0.8595026 0.4977364 0.1162489
vn 0.650674 0.4990222 0.5723636
vn -0.07298646 0.9908642 0.113407
vn -0.04904907 0.9897622 0.1340329
vn -0.05575924 0.9901707 0.1282688
vn -0.8634362 -0.4910589 -0.1154953
vn -0.0163744 0.9941234 0.1070072
vn -0.009961077 0.9936905 0.111714
vn -0.006145951 0.993403 0.1145104
vn 0.8584455 0.4999316 0.114629
vn -0.8690855 -0.4942663 0.01977638
vn 0 0.9317456 -0.3631119
vn -0.8813358 0.4713562 0.03271994
vn 0 -0.9317456 -0.3631119
vn -0.08088517 -0.9910107 0.1065623
vn 0 0.992893 0.1190095
vn 0.8339944 0.4969133 0.2398554
vn 0.8339944 -0.4969133 0.2398554
vn 0.7764153 0.4937619 0.3916358
vn 0.7760895 0.4947022 0.3910942
vn 0.7753672 0.4967752 0.3898975
vn -0.8069153 -0.4658727 -0.3631119
vn 0.8069153 0.4658727 -0.3631119
vn 0 0 -1
vn 0.8590638 -0.4986499 0.1155753
vn 0.8595026 -0.4977364 0.1162489
vn 0.8600656 -0.4965591 0.117116
vn -0.8069153 0.4658727 -0.3631119
vn 0.7751044 0.4975252 0.3894635
vn -0.8634362 0.4910589 -0.1154953
vn -0.8662671 -0.4833565 0.126284
vn -0.8602048 0.4966395 0.1157453
vn -0.006298924 -0.9936529 0.112313
vn -0.01838923 -0.9925826 0.1201741
vn -0.01034132 -0.9933182 0.1149439
vn 0 -0.9941282 0.1082084
vn 0.8069153 -0.4658727 -0.3631119
vn -0.08088517 0.9910107 0.1065623
vn 0.8584455 -0.4999316 0.114629
vn 0 0.8011036 0.5985257
vn 0 -0.8011036 -0.5985257
vn 0.8011036 0 0.5985257
vn -0.8011036 0 -0.5985257
vn 0 -0.8011036 0.5985257
vn 0 0.8011036 -0.5985257
vn -0.8011036 0 0.5985257
vn 0.8011036 0 -0.5985257
vn 0 0.9985905 0.05307459
vn 0 -0.9985905 0.05307459
vn -0.9985905 0 0.05307459
vn 0.9985905 0 0.05307459

vt -0.2888357 2.240067
vt -0.5020689 0.7965975
vt -2.594824 0.7965975
vt 6.224576 0.9300587
vt 4.196291 0.5523034
vt 6.167779 1.307814
vt 4.082697 1.307814
vt 0.1387353 2.087495
vt 1.262268 2.087495
vt 0.9267061 -0.3102626
vt -0.2663501 -1.674545
vt -0.482619 0.52214
vt 0.9765149 0.52214
vt -4.254052 1.57659
vt -4.323226 2.337455
vt -1.810049 2.337455
vt -2.121156 1.033587
vt -2.161589 2.156393
vt 0.3692571 2.156393
vt 2.080069 5.987991
vt 2.46207 5.987991
vt 1.651037 3.969931
vt 2.41504 3.969931
vt 0.1387353 2.093541
vt 0.4369126 4.275087
vt 1.262268 2.093541
vt 4.180009 1.709146
vt 3.985036 0.9704406
vt 1.879186 0.9704406
vt -0.482619 -0.1185767
vt -0.2663501 2.078109
vt 0.9765149 -0.1185767
vt 1.262268 -1.717774
vt 0.1387353 -1.717774
vt 0.9267061 0.6799836
vt -0.2360125 2.202631
vt 1.945826 1.868299
vt -0.3627452 0.7490114
vt -2.582404 1.891167
vt -0.2842349 0.4352801
vt -2.464984 0.1340622
vt 1.72432 1.892564
vt 1.936815 0.789309
vt -0.3794605 1.892564
vt 3.985036 1.761555
vt 4.180009 1.02285
vt 1.879186 1.761555
vt 6.224576 1.741168
vt 6.167779 1.363412
vt 4.196291 2.118923
vt 4.082697 1.363412
vt -5.664984 2.853469
vt -3.669025 2.853469
vt -5.678761 2.471717
vt -3.696579 2.089964
vt -2.161589 0.4868548
vt -2.121156 1.60966
vt 0.3692571 0.4868548
vt -4.256648 1.577737
vt -1.813232 2.340485
vt -1.877585 1.218796
vt 2.46207 1.194268
vt 2.080069 1.194268
vt 2.653071 1.525091
vt 1.889068 1.525091
vt 2.46207 1.855914
vt 2.080069 1.855914
vt 2.080069 -5.487972
vt 1.651037 -3.469911
vt 2.46207 -5.487972
vt 2.41504 -3.469911
vt 0.1383886 1.934535
vt 2.54212 2.235737
vt 2.660923 0.4787255
vt -5.664984 -0.2102143
vt -5.678761 0.1715384
vt -3.669025 -0.2102143
vt -3.696579 0.5532911
vt 0.4369126 -3.839747
vt 0.1387353 -1.658202
vt 1.262268 -1.658202
vt 4.190085 0.9878734
vt 2.017461 0.6304481
vt 1.896052 1.747402
vt 0.9765149 0.4555068
vt -0.482619 0.4555068
vt 0.7872987 2.870635
vt 0.1219173 0.4665839
vt 0.1358498 1.925651
vt 2.656502 0.4665839
vt 1.945826 0.7832571
vt -0.2360125 0.4489245
vt -0.3627452 1.902544
vt 0.5962425 -1.135127
vt 0.3446677 -2.335144
vt -1.164781 -1.135127
vt -0.9132063 -2.335144
vt 1.936815 1.900778
vt 1.72432 0.7975225
vt -0.3794605 0.7975225
vt 0.5962425 2.242684
vt -1.164781 2.242684
vt 0.3446677 3.442701
vt -0.9132063 3.442701
vt 1.651037 3.961514
vt 2.41504 3.961514
vt 1.805011 1.634146
vt -0.4536921 0.5560318
vt -0.5962425 2.752866
vt 1.164781 2.752866
vt 0.3713743 0.4924734
vt -2.119746 1.613709
vt 0.278102 1.948623
vt -2.119746 1.03324
vt 0.3713743 2.154475
vt 0.278102 0.6983258
vt -4.323226 0.3149752
vt -4.254052 1.07584
vt -1.810049 0.3149752
vt -1.588961 2.437022
vt -1.950292 0.7134665
vt -2.815064 2.437022
vt -3.073158 1.205911
vt 1.716983 1.743955
vt 2.839849 1.251511
vt 1.355652 0.02039935
vt 2.581756 0.02039935
vt 0.3446677 0.4357404
vt -0.9132063 0.4357404
vt 0.9736047 1.525091
vt -0.01301933 1.253841
vt -0.01301933 1.796341
vt 0.3446677 2.614442
vt -0.5555193 1.796341
vt -0.5555193 1.253841
vt -1.542143 1.525091
vt -0.9132063 2.614442
vt 0.1383886 0.7130321
vt 2.660923 2.168842
vt 2.54212 0.4118301
vt -1.950292 1.985493
vt -1.588961 0.261937
vt -3.073158 1.493048
vt -2.815064 0.261937
vt -1.813232 0.3053941
vt -4.256648 1.068142
vt -1.877585 1.427083
vt 2.017461 2.026646
vt 4.190085 1.669221
vt 1.896052 0.9096921
vt -0.5020689 1.873604
vt -0.2888357 0.430135
vt -2.594824 1.873604
vt -2.464984 2.513365
vt -0.2842349 2.212147
vt -2.582404 0.7562601
vt -0.9534624 -2.272108
vt -0.482619 -0.1215956
vt 0.9765149 -0.1215956
vt -0.5962425 -2.392838
vt 0.9886528 0.02328015
vt 1.164781 -2.392838
vt 1.355652 2.67856
vt 2.581756 2.67856
vt 1.716983 0.9550041
vt 2.839849 1.447449
vt 2.41504 -3.553452
vt 1.651037 -3.553452
vt 1.805011 -1.226083
vt 0.1358498 0.7160046
vt 0.1219173 2.175072
vt 2.656502 2.175072
vt 0.01301933 3.899112
vt 0.01301933 4.754231
vt 0.5555193 3.899112
vt 0.5555193 4.754231
vt 3.156448 1.253841
vt 3.156448 1.796341
vt 4.011567 1.253841
vt 4.011567 1.796341
vt 0.01301933 -2.073499
vt 0.5555193 -2.073499
vt 0.01301933 -2.928618
vt 0.5555193 -2.928618
vt -2.816163 1.796341
vt -2.816163 1.253841
vt -3.671282 1.796341
vt -3.671282 1.253841
vt 0.1334557 1.107366
vt -0.7019943 1.107366
vt 0.1334557 1.942816
vt -0.7019943 1.942816
vt -0.1334557 6.375248
vt 0.7019943 6.375248
vt 0.01301933 3.615453
vt 0.5555193 3.615453
vt -0.1334557 -6.213361
vt 0.01301933 -3.453565
vt 0.7019943 -6.213361
vt 0.5555193 -3.453565
vt -3.519422 1.796341
vt -3.519422 1.253841
vt -6.279217 1.942816
vt -6.279217 1.107366
vt 3.549597 1.253841
vt 3.549597 1.796341
vt 6.309392 1.107366
vt 6.309392 1.942816

usemtl red

f 3/3/3 2/2/2 1/1/1
f 6/6/4 5/5/4 4/4/4
f 5/5/4 6/6/4 7/7/4
f 10/10/7 9/9/6 8/8/5
f 12/13/10 1/12/9 11/11/8
f 15/16/13 14/15/12 13/14/11
f 16/19/16 15/18/15 9/17/14
f 5/22/17 17/21/17 4/20/17
f 17/21/17 5/22/17 13/23/17
f 9/26/20 5/25/19 8/24/18
f 19/29/23 7/28/22 18/27/21
f 10/32/7 8/31/5 20/30/24
f 12/35/10 11/34/8 21/33/25
f 2/38/28 11/37/27 1/36/26
f 22/41/31 20/40/30 3/39/29
f 2/44/34 8/43/33 19/42/32
f 19/47/37 5/46/36 7/45/35
f 18/50/38 6/49/38 23/48/38
f 6/49/38 18/50/38 7/51/38
f 17/54/39 14/53/39 24/52/39
f 14/53/39 17/54/39 13/55/39
f 16/58/42 21/57/41 15/56/40
f 9/61/43 15/60/13 13/59/11
f 24/64/44 4/63/44 17/62/44
f 4/63/44 24/64/44 6/65/44
f 6/65/44 24/64/44 25/66/44
f 6/65/44 25/66/44 23/67/44
f 25/70/45 18/69/45 23/68/45
f 18/69/45 25/70/45 26/71/45
f 28/74/48 27/73/47 12/72/46
f 14/77/49 25/76/49 24/75/49
f 25/76/49 14/77/49 26/78/49
f 21/81/52 11/80/51 18/79/50
f 19/84/37 8/83/53 5/82/36
f 27/87/56 1/86/55 12/85/54
f 28/90/48 12/89/46 16/88/57
f 2/93/34 20/92/58 8/91/33
f 27/96/59 30/95/59 29/94/59
f 30/95/59 27/96/59 31/97/59
f 2/100/28 19/99/60 11/98/27
f 33/103/61 32/102/61 22/101/61
f 32/102/61 33/103/61 34/104/61
f 9/107/20 13/106/62 5/105/19
f 27/110/56 29/109/63 1/108/55
f 12/113/64 21/112/41 16/111/42
f 10/116/65 16/115/16 9/114/14
f 15/119/68 26/118/67 14/117/66
f 35/122/69 22/121/69 3/120/69
f 22/121/69 35/122/69 33/123/69
f 28/126/70 31/125/70 27/124/70
f 31/125/70 28/126/70 36/127/70
f 35/130/71 34/129/71 33/128/71
f 34/129/71 35/130/71 37/131/71
f 37/131/71 35/130/71 38/132/71
f 38/132/71 35/130/71 30/133/71
f 38/132/71 30/133/71 39/134/71
f 40/135/71 34/129/71 37/131/71
f 34/129/71 40/135/71 36/136/71
f 36/136/71 40/135/71 39/134/71
f 36/136/71 39/134/71 31/137/71
f 31/137/71 39/134/71 30/133/71
f 32/140/74 28/139/73 10/138/72
f 30/143/75 3/142/75 29/141/75
f 3/142/75 30/143/75 35/144/75
f 21/147/76 26/146/67 15/145/68
f 19/150/23 18/149/21 11/148/77
f 3/153/29 20/152/30 2/151/78
f 3/156/3 1/155/1 29/154/79
f 10/159/82 20/158/81 22/157/80
f 32/162/83 10/161/82 22/160/80
f 32/165/84 36/164/84 28/163/84
f 36/164/84 32/165/84 34/166/84
f 21/169/52 18/168/50 26/167/85
f 28/172/73 16/171/86 10/170/72

usemtl green

f 39/175/87 41/174/87 38/173/87
f 41/174/87 39/175/87 42/176/87
f 38/173/88 41/174/88 39/175/88
f 42/176/88 39/175/88 41/174/88
f 43/179/89 39/178/89 40/177/89
f 39/178/89 43/179/89 44/180/89
f 40/177/90 39/178/90 43/179/90
f 44/180/90 43/179/90 39/178/90
f 45/183/91 40/182/91 37/181/91
f 40/182/91 45/183/91 46/184/91
f 37/181/92 40/182/92 45/183/92
f 46/184/92 45/183/92 40/182/92
f 47/187/93 37/186/93 38/185/93
f 37/186/93 47/187/93 48/188/93
f 38/185/94 37/186/94 47/187/94
f 48/188/94 47/187/94 37/186/94
f 51/191/71 50/190/71 49/189/71
f 50/190/71 51/191/71 52/192/71
f 38/195/95 52/194/95 51/193/95
f 52/194/95 38/195/95 39/196/95
f 50/199/96 37/198/96 49/197/96
f 37/198/96 50/199/96 40/200/96
f 51/203/97 37/202/97 38/201/97
f 37/202/97 51/203/97 49/204/97
f 50/207/98 39/206/98 40/205/98
f 39/206/98 50/207/98 52/208/98

