# Created by Kenney (www.kenney.nl)

mtllib pie.mtl

g pie

v -0.0324 0.116424 0.0324
v -0.0324 0.116424 -0.0324
v 0.0324 0.116424 0.0324
v 0.0324 0.116424 -0.0324
v -0.162 0.116424 0.0324
v -0.162 0.116424 -0.0324
v -0.0972 0.116424 0.0324
v -0.0972 0.116424 -0.0324
v -0.0324 0.116424 0.162
v -0.0324 0.116424 0.0972
v 0.0324 0.116424 0.162
v 0.0324 0.116424 0.0972
v 0.0972 0.116424 0.162
v 0.0972 0.116424 0.0972
v 0.162 0.116424 0.162
v 0.162 0.116424 0.0972
v 0.2052 0.116424 0.0324
v 0.2052 0.116424 -0.0324
v 0.2376 0.116424 0.0324
v 0.2376 0.116424 -0.0324
v -0.162 0.116424 -0.0972
v -0.162 0.116424 -0.162
v -0.0972 0.116424 -0.0972
v -0.0972 0.116424 -0.162
v -0.0324 0.116424 0.2052
v 0.0324 0.116424 0.2052
v -0.0324 0.116424 0.2376
v 0.0324 0.116424 0.2376
v -0.0324 0.116424 -0.2376
v 0.0324 0.116424 -0.2376
v -0.0324 0.116424 -0.2052
v 0.0324 0.116424 -0.2052
v -0.0324 0.116424 -0.0972
v -0.0324 0.116424 -0.162
v 0.0324 0.116424 -0.0972
v 0.0324 0.116424 -0.162
v -0.162 0.116424 0.162
v -0.162 0.116424 0.0972
v -0.0972 0.116424 0.162
v -0.0972 0.116424 0.0972
v 0.0972 0.116424 -0.0972
v 0.0972 0.116424 -0.162
v 0.162 0.116424 -0.0972
v 0.162 0.116424 -0.162
v -0.2376 0.116424 0.0324
v -0.2376 0.116424 -0.0324
v -0.2052 0.116424 0.0324
v -0.2052 0.116424 -0.0324
v 0.0972 0.116424 0.0324
v 0.0972 0.116424 -0.0324
v 0.162 0.116424 0.0324
v 0.162 0.116424 -0.0324
v -0.4115352 0.116424 0.2376
v -0.374123 0.049896 0.216
v -0.4752 0.116424 0
v -0.432 0.049896 0
v -0.432357 0.116424 7.219114E-16
v -0.3744321 0.116424 0.2161785
v -0.2376 0.116424 0.4115352
v -0.2161785 0.116424 0.3744321
v -7.219114E-16 0.116424 0.4752
v -7.219114E-16 0.116424 0.432357
v 0.2376 0.116424 0.4115352
v 0.2161785 0.116424 0.3744321
v 0.3744321 0.116424 0.2161785
v 0.4115352 0.116424 0.2376
v 0.432357 0.116424 0
v 0.4752 0.116424 0
v -0.4115352 0.116424 -0.2376
v -0.3744321 0.116424 -0.2161785
v -0.2376 0.116424 -0.4115352
v -0.2161785 0.116424 -0.3744321
v -7.219114E-16 0.116424 -0.4752
v -7.219114E-16 0.116424 -0.432357
v 0.2161785 0.116424 -0.3744321
v 0.2376 0.116424 -0.4115352
v 0.3744321 0.116424 -0.2161785
v 0.4115352 0.116424 -0.2376
v 0.20088 0 0.3479344
v -1.443823E-15 0 0.40176
v 0.216 0.049896 0.374123
v -7.219114E-16 0.049896 0.432
v -0.216 0.049896 0.374123
v 0.432 0.049896 0
v 0.374123 0.049896 -0.216
v -0.40176 0 0
v -0.3479344 0 0.20088
v -0.3479344 0 -0.20088
v -0.20088 0 0.3479344
v -0.20088 0 -0.3479344
v -1.443823E-15 0 -0.40176
v 0.20088 0 -0.3479344
v 0.3479344 0 0.20088
v 0.3479344 0 -0.20088
v 0.40176 0 0
v 0.216 0.049896 -0.374123
v -0.374123 0.049896 -0.216
v -7.219114E-16 0.049896 -0.432
v -0.216 0.049896 -0.374123
v 0.374123 0.049896 0.216
v 0.2032078 0.149688 -0.3519662
v 0.3519662 0.149688 -0.2032078
v 0.4064156 0.149688 7.219114E-16
v -0.3326338 0.116424 7.219114E-16
v -0.2880693 0.116424 -0.1663169
v -0.2880693 0.116424 0.1663169
v -0.2856137 0.116424 7.219114E-16
v -0.2473487 0.116424 0.1428069
v -0.1663169 0.116424 0.2880693
v -0.1428069 0.116424 0.2473487
v -7.219114E-16 0.116424 0.3326338
v -7.219114E-16 0.116424 0.2856137
v 0.1663169 0.116424 0.2880693
v 0.1428069 0.116424 0.2473487
v 0.2473487 0.116424 0.1428069
v 0.2880693 0.116424 0.1663169
v 0.2856137 0.116424 7.219114E-16
v 0.2880693 0.116424 -0.1663169
v 0.3326338 0.116424 7.219114E-16
v -0.2473487 0.116424 -0.1428069
v -0.1663169 0.116424 -0.2880693
v -0.1428069 0.116424 -0.2473487
v -1.443823E-15 0.116424 -0.3326338
v -1.443823E-15 0.116424 -0.2856137
v 0.1428069 0.116424 -0.2473487
v 0.1663169 0.116424 -0.2880693
v 0.2473487 0.116424 -0.1428069
v -0.2032078 0.149688 -0.3519662
v -7.219114E-16 0.149688 -0.4064156
v -0.3236734 0.149688 0.1868729
v -0.1868729 0.149688 0.3236734
v -0.3519662 0.149688 -0.2032078
v 0.3519662 0.149688 0.2032078
v -0.3519662 0.149688 0.2032078
v -0.2032078 0.149688 0.3519662
v -0.4064156 0.149688 7.219114E-16
v -7.219114E-16 0.149688 0.4064156
v 0.2032078 0.149688 0.3519662
v -0.3737458 0.149688 7.219114E-16
v -7.219114E-16 0.149688 0.3737458
v 0.1868729 0.149688 0.3236734
v 0.3236734 0.149688 0.1868729
v 0.3737458 0.149688 7.219114E-16
v -0.3236734 0.149688 -0.1868729
v -0.1868729 0.149688 -0.3236734
v -7.219114E-16 0.149688 -0.3737458
v 0.1868729 0.149688 -0.3236734
v 0.3236734 0.149688 -0.1868729

vn 0 1 0
vn -0.8182843 -0.5313535 0.2192586
vn 0.2233603 -0.5052073 0.8335921
vn -0.5990257 -0.5313534 0.5990257
vn 0.8182843 -0.5313535 -0.2192586
vn 0 -1 0
vn 0.5990257 -0.5313534 -0.5990257
vn -0.8335921 -0.5052073 -0.2233603
vn 0.2233603 -0.5052073 -0.8335921
vn 0.6102318 -0.5052073 -0.6102318
vn -0.2192586 -0.5313535 -0.8182843
vn -0.8335921 -0.5052073 0.2233603
vn -0.8182843 -0.5313535 -0.2192586
vn 0.2192586 -0.5313535 0.8182843
vn 0.5990257 -0.5313534 0.5990257
vn -0.2233603 -0.5052073 -0.8335921
vn 0.2192586 -0.5313535 -0.8182843
vn -0.6102318 -0.5052073 -0.6102318
vn -0.2192586 -0.5313535 0.8182843
vn 0.6102318 -0.5052073 0.6102318
vn 0.8182843 -0.5313535 0.2192586
vn 0.8335921 -0.5052073 0.2233603
vn 0.8335921 -0.5052073 -0.2233603
vn -0.2233603 -0.5052073 0.8335921
vn -0.5990257 -0.5313534 -0.5990257
vn -0.6102318 -0.5052073 0.6102318
vn 0.5647919 0.6016813 -0.5647919
vn 0.77152 0.6016813 -0.2067281
vn -0.2067281 0.6016813 -0.77152
vn 0.4540577 0.766592 -0.4540577
vn -0.5647919 0.6016813 -0.5647919
vn 0.2067281 0.6016813 -0.77152
vn 0.77152 0.6016813 0.2067281
vn -0.5647919 0.6016813 0.5647919
vn -0.77152 0.6016813 0.2067281
vn -0.2067281 0.6016813 0.77152
vn 0.5647919 0.6016813 0.5647919
vn -0.77152 0.6016813 -0.2067281
vn -0.4540577 0.766592 -0.4540577
vn 0.1661966 0.766592 -0.6202543
vn 0.2067281 0.6016813 0.77152
vn 0.6202543 0.766592 0.1661966
vn -0.1661966 0.766592 0.6202543
vn 0.1661966 0.766592 0.6202543
vn 0.6202543 0.766592 -0.1661966
vn -0.4540577 0.766592 0.4540577
vn -0.1661966 0.766592 -0.6202543
vn -0.6202543 0.766592 -0.1661966
vn -0.6202543 0.766592 0.1661966
vn 0.4540577 0.766592 0.4540577

vt -1.275591 -1.275591
vt -1.275591 1.275591
vt 1.275591 -1.275591
vt 1.275591 1.275591
vt -6.377953 -1.275591
vt -6.377953 1.275591
vt -3.826772 -1.275591
vt -3.826772 1.275591
vt -1.275591 -6.377953
vt -1.275591 -3.826772
vt 1.275591 -6.377953
vt 1.275591 -3.826772
vt 3.826772 -6.377953
vt 3.826772 -3.826772
vt 6.377953 -6.377953
vt 6.377953 -3.826772
vt 8.07874 -1.275591
vt 8.07874 1.275591
vt 9.354331 -1.275591
vt 9.354331 1.275591
vt -6.377953 3.826772
vt -6.377953 6.377953
vt -3.826772 3.826772
vt -3.826772 6.377953
vt -1.275591 -8.07874
vt 1.275591 -8.07874
vt -1.275591 -9.354331
vt 1.275591 -9.354331
vt -1.275591 9.354331
vt 1.275591 9.354331
vt -1.275591 8.07874
vt 1.275591 8.07874
vt -1.275591 3.826772
vt -1.275591 6.377953
vt 1.275591 3.826772
vt 1.275591 6.377953
vt -6.377953 -6.377953
vt -6.377953 -3.826772
vt -3.826772 -6.377953
vt -3.826772 -3.826772
vt 3.826772 3.826772
vt 3.826772 6.377953
vt 6.377953 3.826772
vt 6.377953 6.377953
vt -9.354331 -1.275591
vt -9.354331 1.275591
vt -8.07874 -1.275591
vt -8.07874 1.275591
vt 3.826772 -1.275591
vt 3.826772 1.275591
vt 6.377953 -1.275591
vt 6.377953 1.275591
vt 4.842158 13.4852
vt 4.401962 10.39341
vt -4.842158 13.4852
vt -4.401962 10.39341
vt -18.70866 0
vt -17.02193 -2.842171E-14
vt -16.20218 -9.354331
vt -14.74142 -8.510965
vt -9.354331 -16.20218
vt -8.510965 -14.74142
vt -2.842171E-14 -18.70866
vt -2.842171E-14 -17.02193
vt 9.354331 -16.20218
vt 8.510965 -14.74142
vt 14.74142 -8.510965
vt 16.20218 -9.354331
vt 17.02193 0
vt 18.70866 0
vt -16.20218 9.354331
vt -14.74142 8.510965
vt -9.354331 16.20218
vt -8.510965 14.74142
vt -2.842171E-14 18.70866
vt -2.842171E-14 17.02193
vt 8.510965 14.74142
vt 9.354331 16.20218
vt 14.74142 8.510965
vt 16.20218 9.354331
vt 4.093824 7.71874
vt -4.093824 7.71874
vt 4.401962 9.995002
vt -4.401962 9.995002
vt 15.81732 0
vt 13.6982 -7.908661
vt 13.6982 7.908661
vt 7.908661 -13.6982
vt 7.908661 13.6982
vt 5.684342E-14 15.81732
vt 5.684342E-14 -15.81732
vt -7.908661 13.6982
vt -7.908661 -13.6982
vt -13.6982 -7.908661
vt -13.6982 7.908661
vt -15.81732 0
vt 4.141263 -4.592093
vt 4.4056 -6.231691
vt -4.141263 -4.592093
vt -4.4056 -6.231691
vt -13.09582 -2.842171E-14
vt -11.34131 6.547909
vt -11.34131 -6.547909
vt -11.24463 -2.842171E-14
vt -9.738139 -5.622317
vt -6.547909 -11.34131
vt -5.622317 -9.738139
vt -2.842171E-14 -13.09582
vt -2.842171E-14 -11.24463
vt 6.547909 -11.34131
vt 5.622317 -9.738139
vt 9.738139 -5.622317
vt 11.34131 -6.547909
vt 11.24463 -2.842171E-14
vt 11.34131 6.547909
vt 13.09582 -2.842171E-14
vt -9.738139 5.622317
vt -6.547909 11.34131
vt -5.622317 9.738139
vt -5.684342E-14 13.09582
vt -5.684342E-14 11.24463
vt 5.622317 9.738139
vt 6.547909 11.34131
vt 9.738139 5.622317
vt 3.808367 14.67983
vt 3.389447 12.64038
vt -3.808367 14.67983
vt -3.389447 12.64038
vt -16.00061 -2.842171E-14
vt -14.7144 -2.842171E-14
vt -13.85694 -8.000307
vt -12.74305 -7.357201
vt -8.000307 -13.85694
vt -7.357201 -12.74305
vt -2.842171E-14 -16.00061
vt -2.842171E-14 -14.7144
vt 8.000307 -13.85694
vt 7.357201 -12.74305
vt 12.74305 -7.357201
vt 13.85694 -8.000307
vt 14.7144 -2.842171E-14
vt 16.00061 -2.842171E-14
vt -13.85694 8.000307
vt -12.74305 7.357201
vt -8.000307 13.85694
vt -7.357201 12.74305
vt -2.842171E-14 16.00061
vt -2.842171E-14 14.7144
vt 7.357201 12.74305
vt 8.000307 13.85694
vt 12.74305 7.357201
vt 13.85694 8.000307

usemtl brownDark

f 3/3/1 2/2/1 1/1/1
f 2/2/1 3/3/1 4/4/1
f 7/7/1 6/6/1 5/5/1
f 6/6/1 7/7/1 8/8/1
f 11/11/1 10/10/1 9/9/1
f 10/10/1 11/11/1 12/12/1
f 15/15/1 14/14/1 13/13/1
f 14/14/1 15/15/1 16/16/1
f 19/19/1 18/18/1 17/17/1
f 18/18/1 19/19/1 20/20/1
f 23/23/1 22/22/1 21/21/1
f 22/22/1 23/23/1 24/24/1
f 27/27/1 26/26/1 25/25/1
f 26/26/1 27/27/1 28/28/1
f 31/31/1 30/30/1 29/29/1
f 30/30/1 31/31/1 32/32/1
f 35/35/1 34/34/1 33/33/1
f 34/34/1 35/35/1 36/36/1
f 39/39/1 38/38/1 37/37/1
f 38/38/1 39/39/1 40/40/1
f 43/43/1 42/42/1 41/41/1
f 42/42/1 43/43/1 44/44/1
f 47/47/1 46/46/1 45/45/1
f 46/46/1 47/47/1 48/48/1
f 51/51/1 50/50/1 49/49/1
f 50/50/1 51/51/1 52/52/1

usemtl greyLight

f 55/55/2 54/54/2 53/53/2
f 54/54/2 55/55/2 56/56/2
f 53/59/1 57/58/1 55/57/1
f 57/58/1 53/59/1 58/60/1
f 58/60/1 53/59/1 59/61/1
f 58/60/1 59/61/1 60/62/1
f 60/62/1 59/61/1 61/63/1
f 60/62/1 61/63/1 62/64/1
f 62/64/1 61/63/1 63/65/1
f 62/64/1 63/65/1 64/66/1
f 64/66/1 63/65/1 65/67/1
f 65/67/1 63/65/1 66/68/1
f 65/67/1 66/68/1 67/69/1
f 67/69/1 66/68/1 68/70/1
f 57/58/1 69/71/1 55/57/1
f 69/71/1 57/58/1 70/72/1
f 69/71/1 70/72/1 71/73/1
f 71/73/1 70/72/1 72/74/1
f 71/73/1 72/74/1 73/75/1
f 73/75/1 72/74/1 74/76/1
f 73/75/1 74/76/1 75/77/1
f 73/75/1 75/77/1 76/78/1
f 76/78/1 75/77/1 77/79/1
f 76/78/1 77/79/1 78/80/1
f 78/80/1 77/79/1 67/69/1
f 78/80/1 67/69/1 68/70/1
f 81/83/3 80/82/3 79/81/3
f 80/82/3 81/83/3 82/84/3
f 53/55/4 83/54/4 59/53/4
f 83/54/4 53/55/4 54/56/4
f 85/54/5 68/55/5 84/56/5
f 68/55/5 85/54/5 78/53/5
f 88/87/6 87/86/6 86/85/6
f 87/86/6 88/87/6 89/88/6
f 89/88/6 88/87/6 90/89/6
f 89/88/6 90/89/6 91/90/6
f 89/88/6 91/90/6 80/91/6
f 80/91/6 91/90/6 92/92/6
f 80/91/6 92/92/6 79/93/6
f 79/93/6 92/92/6 93/94/6
f 93/94/6 92/92/6 94/95/6
f 93/94/6 94/95/6 95/96/6
f 96/54/7 78/55/7 85/56/7
f 78/55/7 96/54/7 76/53/7
f 97/84/8 86/81/8 56/83/8
f 86/81/8 97/84/8 88/82/8
f 98/83/9 92/82/9 91/81/9
f 92/82/9 98/83/9 96/84/9
f 92/81/10 85/84/10 94/82/10
f 85/84/10 92/81/10 96/83/10
f 71/53/11 98/56/11 99/54/11
f 98/56/11 71/53/11 73/55/11
f 56/84/12 87/81/12 54/83/12
f 87/81/12 56/84/12 86/82/12
f 69/55/13 56/54/13 55/53/13
f 56/54/13 69/55/13 97/56/13
f 63/53/14 82/56/14 81/54/14
f 82/56/14 63/53/14 61/55/14
f 81/56/15 66/53/15 63/55/15
f 66/53/15 81/56/15 100/54/15
f 99/83/16 91/82/16 90/81/16
f 91/82/16 99/83/16 98/84/16
f 73/53/17 96/56/17 98/54/17
f 96/56/17 73/53/17 76/55/17
f 97/83/18 90/82/18 88/81/18
f 90/82/18 97/83/18 99/84/18
f 61/53/19 83/56/19 82/54/19
f 83/56/19 61/53/19 59/55/19
f 79/82/20 100/83/20 81/84/20
f 100/83/20 79/82/20 93/81/20
f 100/56/21 68/53/21 66/55/21
f 68/53/21 100/56/21 84/54/21
f 93/82/22 84/83/22 100/84/22
f 84/83/22 93/82/22 95/81/22
f 94/81/23 84/84/23 95/82/23
f 84/84/23 94/81/23 85/83/23
f 82/83/24 89/82/24 80/81/24
f 89/82/24 82/83/24 83/84/24
f 69/53/25 99/56/25 97/54/25
f 99/56/25 69/53/25 71/55/25
f 54/84/26 89/81/26 83/83/26
f 89/81/26 54/84/26 87/82/26

usemtl brown

f 102/99/27 75/98/27 101/97/27
f 75/98/27 102/99/27 77/100/27
f 67/100/28 102/97/28 103/99/28
f 102/97/28 67/100/28 77/98/28
f 106/103/1 105/102/1 104/101/1
f 105/102/1 106/103/1 107/104/1
f 107/104/1 106/103/1 108/105/1
f 108/105/1 106/103/1 109/106/1
f 108/105/1 109/106/1 110/107/1
f 110/107/1 109/106/1 111/108/1
f 110/107/1 111/108/1 112/109/1
f 112/109/1 111/108/1 113/110/1
f 112/109/1 113/110/1 114/111/1
f 114/111/1 113/110/1 115/112/1
f 115/112/1 113/110/1 116/113/1
f 115/112/1 116/113/1 117/114/1
f 117/114/1 116/113/1 118/115/1
f 118/115/1 116/113/1 119/116/1
f 120/117/1 105/102/1 107/104/1
f 105/102/1 120/117/1 121/118/1
f 121/118/1 120/117/1 122/119/1
f 121/118/1 122/119/1 123/120/1
f 123/120/1 122/119/1 124/121/1
f 123/120/1 124/121/1 125/122/1
f 123/120/1 125/122/1 126/123/1
f 126/123/1 125/122/1 127/124/1
f 126/123/1 127/124/1 118/115/1
f 118/115/1 127/124/1 117/114/1
f 128/97/29 74/100/29 72/98/29
f 74/100/29 128/97/29 129/99/29
f 131/127/30 106/126/30 130/125/30
f 106/126/30 131/127/30 109/128/30
f 132/97/31 72/100/31 70/98/31
f 72/100/31 132/97/31 128/99/31
f 129/97/32 75/100/32 74/98/32
f 75/100/32 129/97/32 101/99/32
f 67/98/33 133/99/33 65/100/33
f 133/99/33 67/98/33 103/97/33
f 60/98/34 134/99/34 58/100/34
f 134/99/34 60/98/34 135/97/34
f 134/97/35 57/100/35 58/98/35
f 57/100/35 134/97/35 136/99/35
f 137/97/36 60/100/36 62/98/36
f 60/100/36 137/97/36 135/99/36
f 64/100/37 133/97/37 138/99/37
f 133/97/37 64/100/37 65/98/37
f 132/99/38 57/98/38 136/97/38
f 57/98/38 132/99/38 70/100/38
f 134/131/1 139/130/1 136/129/1
f 139/130/1 134/131/1 130/132/1
f 130/132/1 134/131/1 135/133/1
f 130/132/1 135/133/1 131/134/1
f 131/134/1 135/133/1 137/135/1
f 131/134/1 137/135/1 140/136/1
f 140/136/1 137/135/1 138/137/1
f 140/136/1 138/137/1 141/138/1
f 141/138/1 138/137/1 142/139/1
f 142/139/1 138/137/1 133/140/1
f 142/139/1 133/140/1 143/141/1
f 143/141/1 133/140/1 103/142/1
f 139/130/1 132/143/1 136/129/1
f 132/143/1 139/130/1 144/144/1
f 132/143/1 144/144/1 128/145/1
f 128/145/1 144/144/1 145/146/1
f 128/145/1 145/146/1 129/147/1
f 129/147/1 145/146/1 146/148/1
f 129/147/1 146/148/1 147/149/1
f 129/147/1 147/149/1 101/150/1
f 101/150/1 147/149/1 148/151/1
f 101/150/1 148/151/1 102/152/1
f 102/152/1 148/151/1 143/141/1
f 102/152/1 143/141/1 103/142/1
f 141/125/39 116/128/39 113/126/39
f 116/128/39 141/125/39 142/127/39
f 140/127/40 109/126/40 131/125/40
f 109/126/40 140/127/40 111/128/40
f 138/97/41 62/100/41 64/98/41
f 62/100/41 138/97/41 137/99/41
f 104/128/42 144/125/42 139/127/42
f 144/125/42 104/128/42 105/126/42
f 126/126/43 146/127/43 123/128/43
f 146/127/43 126/126/43 147/125/43
f 121/128/44 146/125/44 145/127/44
f 146/125/44 121/128/44 123/126/44
f 130/127/45 104/126/45 139/125/45
f 104/126/45 130/127/45 106/128/45
f 118/126/46 147/127/46 126/128/46
f 147/127/46 118/126/46 148/125/46
f 141/127/47 111/126/47 140/125/47
f 111/126/47 141/127/47 113/128/47
f 142/125/48 119/128/48 116/126/48
f 119/128/48 142/125/48 143/127/48
f 119/126/49 148/127/49 118/128/49
f 148/127/49 119/126/49 143/125/49
f 105/128/50 145/125/50 144/127/50
f 145/125/50 105/128/50 121/126/50

usemtl brownLight

f 31/31/1 34/34/1 32/32/1
f 34/34/1 31/31/1 9/9/1
f 34/34/1 9/9/1 10/10/1
f 34/34/1 10/10/1 1/1/1
f 34/34/1 1/1/1 2/2/1
f 34/34/1 2/2/1 33/33/1
f 32/32/1 34/34/1 36/36/1
f 29/29/1 9/9/1 31/31/1
f 24/24/1 9/9/1 29/29/1
f 24/24/1 27/27/1 9/9/1
f 23/23/1 27/27/1 24/24/1
f 8/8/1 27/27/1 23/23/1
f 7/7/1 27/27/1 8/8/1
f 40/40/1 27/27/1 7/7/1
f 39/39/1 27/27/1 40/40/1
f 39/39/1 112/109/1 27/27/1
f 39/39/1 110/107/1 112/109/1
f 37/37/1 110/107/1 39/39/1
f 47/47/1 110/107/1 37/37/1
f 45/45/1 110/107/1 47/47/1
f 45/45/1 108/105/1 110/107/1
f 120/117/1 108/105/1 45/45/1
f 108/105/1 120/117/1 107/104/1
f 47/47/1 37/37/1 48/48/1
f 27/27/1 112/109/1 28/28/1
f 28/28/1 112/109/1 114/111/1
f 28/28/1 114/111/1 13/13/1
f 13/13/1 114/111/1 15/15/1
f 15/15/1 114/111/1 115/112/1
f 15/15/1 115/112/1 16/16/1
f 16/16/1 115/112/1 51/51/1
f 51/51/1 115/112/1 52/52/1
f 52/52/1 115/112/1 17/17/1
f 52/52/1 17/17/1 43/43/1
f 43/43/1 17/17/1 44/44/1
f 17/17/1 115/112/1 19/19/1
f 19/19/1 115/112/1 20/20/1
f 20/20/1 115/112/1 127/124/1
f 127/124/1 115/112/1 117/114/1
f 42/42/1 28/28/1 13/13/1
f 42/42/1 26/26/1 28/28/1
f 42/42/1 36/36/1 26/26/1
f 35/35/1 26/26/1 36/36/1
f 4/4/1 26/26/1 35/35/1
f 3/3/1 26/26/1 4/4/1
f 12/12/1 26/26/1 3/3/1
f 11/11/1 26/26/1 12/12/1
f 11/11/1 25/25/1 26/26/1
f 25/25/1 11/11/1 9/9/1
f 9/9/1 27/27/1 25/25/1
f 125/122/1 36/36/1 42/42/1
f 125/122/1 32/32/1 36/36/1
f 125/122/1 30/30/1 32/32/1
f 124/121/1 30/30/1 125/122/1
f 124/121/1 29/29/1 30/30/1
f 124/121/1 24/24/1 29/29/1
f 122/119/1 24/24/1 124/121/1
f 122/119/1 22/22/1 24/24/1
f 122/119/1 48/48/1 22/22/1
f 122/119/1 46/46/1 48/48/1
f 120/117/1 46/46/1 122/119/1
f 46/46/1 120/117/1 45/45/1
f 22/22/1 48/48/1 37/37/1
f 22/22/1 37/37/1 38/38/1
f 22/22/1 38/38/1 5/5/1
f 22/22/1 5/5/1 6/6/1
f 22/22/1 6/6/1 21/21/1
f 8/8/1 21/21/1 6/6/1
f 21/21/1 8/8/1 23/23/1
f 40/40/1 5/5/1 38/38/1
f 5/5/1 40/40/1 7/7/1
f 42/42/1 13/13/1 14/14/1
f 42/42/1 14/14/1 49/49/1
f 42/42/1 49/49/1 50/50/1
f 42/42/1 50/50/1 41/41/1
f 52/52/1 41/41/1 50/50/1
f 41/41/1 52/52/1 43/43/1
f 16/16/1 49/49/1 14/14/1
f 49/49/1 16/16/1 51/51/1
f 125/122/1 42/42/1 44/44/1
f 125/122/1 44/44/1 127/124/1
f 127/124/1 44/44/1 18/18/1
f 18/18/1 44/44/1 17/17/1
f 127/124/1 18/18/1 20/20/1
f 4/4/1 33/33/1 2/2/1
f 33/33/1 4/4/1 35/35/1
f 12/12/1 1/1/1 10/10/1
f 1/1/1 12/12/1 3/3/1

