# Created by Kenney (www.kenney.nl)

mtllib pizzaBox.mtl

g pizzaBox

v -0.4709 0.09 -0.4759
v -0.4431904 0.09 0.4481904
v -0.4709 0.09 0.4759
v 0.4709 0.09 0.4759
v 0.4431904 0.09 0.4481904
v 0.4431904 0.09 -0.4481904
v -0.4431904 0.09 -0.4481904
v 0.4709 0.09 -0.4759
v -0.4431904 0.02 0.4481904
v -0.4431904 0.02 -0.4481904
v 0.4431904 0.02 0.4481904
v 0.4431904 0.02 -0.4481904
v -0.4709 0 -0.4759
v 0.4709 0 -0.4759
v 0.4709 0 0.4759
v -0.4709 0 0.4759

vn 0 1 0
vn -1 0 0
vn 0 0 -1
vn 0 0 1
vn 1 0 0
vn 0 -1 0

vt 0 0

usemtl _defaultMat

f 3/1/1 2/1/1 1/1/1
f 2/1/1 3/1/1 4/1/1
f 2/1/1 4/1/1 5/1/1
f 5/1/1 4/1/1 6/1/1
f 7/1/1 1/1/1 2/1/1
f 1/1/1 7/1/1 8/1/1
f 8/1/1 7/1/1 6/1/1
f 8/1/1 6/1/1 4/1/1
f 11/1/1 10/1/1 9/1/1
f 10/1/1 11/1/1 12/1/1
f 6/1/2 11/1/2 5/1/2
f 11/1/2 6/1/2 12/1/2
f 1/1/3 14/1/3 13/1/3
f 14/1/3 1/1/3 8/1/3
f 6/1/4 10/1/4 12/1/4
f 10/1/4 6/1/4 7/1/4
f 14/1/5 4/1/5 15/1/5
f 4/1/5 14/1/5 8/1/5
f 14/1/6 16/1/6 13/1/6
f 16/1/6 14/1/6 15/1/6
f 1/1/2 16/1/2 3/1/2
f 16/1/2 1/1/2 13/1/2
f 10/1/5 2/1/5 9/1/5
f 2/1/5 10/1/5 7/1/5
f 4/1/4 16/1/4 15/1/4
f 16/1/4 4/1/4 3/1/4
f 2/1/3 11/1/3 9/1/3
f 11/1/3 2/1/3 5/1/3

g lid

v 0.4535795 0.08000001 0.4481904
v 0.4709 0.09 0.4481904
v 0.4535795 0.08000001 0.4203385
v 0.4709 0.09 -0.4481904
v 0.4535795 0.08000001 -0.4203385
v 0.4535795 0.08000001 -0.4481904
v 0.0105423 0.8473629 -0.4203385
v 0.0105423 0.8473629 0.4203385
v 0.0138548 0.8816254 0.4481904
v -0.06408748 0.8366255 0.4481904
v 0.0138548 0.8816254 -0.4481904
v -0.06408748 0.8366255 -0.4481904
v 0.3575706 0.1062923 0.4481904
v 0.3575706 0.1062923 -0.4481904
v -0.05007946 0.8123628 0.4203385
v -0.05007946 0.8123628 -0.4203385
v 0.3575706 0.1062923 0.4203385
v 0.3575706 0.1062923 -0.4203385

vn 0.5 -0.8660253 0
vn -0.8660253 -0.5 0
vn -0.5 0.8660253 0
vn 0.8660253 0.5 0
vn -0.2641276 -0.9644877 0


usemtl _defaultMat

f 19/1/7 18/1/7 17/1/7
f 18/1/7 19/1/7 20/1/7
f 20/1/7 19/1/7 21/1/7
f 20/1/7 21/1/7 22/1/7
f 19/1/8 23/1/8 21/1/8
f 23/1/8 19/1/8 24/1/8
f 27/1/9 26/1/9 25/1/9
f 26/1/9 27/1/9 28/1/9
f 25/1/4 17/1/4 18/1/4
f 17/1/4 25/1/4 26/1/4
f 17/1/4 26/1/4 29/1/4
f 27/1/10 18/1/10 20/1/10
f 18/1/10 27/1/10 25/1/10
f 22/1/3 27/1/3 20/1/3
f 27/1/3 22/1/3 28/1/3
f 28/1/3 22/1/3 30/1/3
f 32/1/7 24/1/7 31/1/7
f 24/1/7 32/1/7 23/1/7
f 33/1/3 24/1/3 19/1/3
f 24/1/3 33/1/3 31/1/3
f 23/1/4 34/1/4 21/1/4
f 34/1/4 23/1/4 32/1/4
f 29/1/11 19/1/11 17/1/11
f 19/1/11 29/1/11 33/1/11
f 34/1/11 22/1/11 21/1/11
f 22/1/11 34/1/11 30/1/11
f 26/1/8 33/1/8 29/1/8
f 33/1/8 26/1/8 31/1/8
f 31/1/8 26/1/8 32/1/8
f 28/1/8 32/1/8 26/1/8
f 30/1/8 32/1/8 28/1/8
f 32/1/8 30/1/8 34/1/8

