# Created by Kenney (www.kenney.nl)

mtllib plate.mtl

g plate

v -0.3441 0 0
v -0.2979994 0 0.17205
v -0.2979994 0 -0.17205
v -0.17205 0 0.2979994
v -0.17205 0 -0.2979994
v 1.804779E-15 0 -0.3441
v 1.804779E-15 0 0.3441
v 0.17205 0 -0.2979994
v 0.17205 0 0.2979994
v 0.2979994 0 0.17205
v 0.2979994 0 -0.17205
v 0.3441 0 0
v -3.609557E-16 0.06 -0.445887
v 3.609557E-16 0.02 -0.37
v 0.2229435 0.06 -0.3861495
v 0.185 0.02 -0.3204294
v 0.3204294 0.02 -0.185
v 0.37 0.02 -7.219114E-16
v 0.3861495 0.06 -0.2229435
v 0.445887 0.06 -7.219114E-16
v -0.3861495 0.06 -0.2229435
v -0.3204294 0.02 -0.185
v -0.2229435 0.06 -0.3861495
v -0.185 0.02 -0.3204294
v -0.3861495 0.06 0.2229435
v -0.2229435 0.06 0.3861495
v -0.3204294 0.02 0.185
v -0.185 0.02 0.3204294
v 0.185 0.02 0.3204294
v 0.2229435 0.06 0.3861495
v 0.3204294 0.02 0.185
v 0.3861495 0.06 0.2229435
v -3.609557E-16 0.06 0.445887
v 3.609557E-16 0.02 0.37
v -0.445887 0.06 -7.219114E-16
v -0.37 0.02 -7.219114E-16
v -0.257508 0.05 -7.219114E-16
v -0.2230084 0.05 -0.128754
v -0.2230084 0.05 0.128754
v -0.128754 0.05 0.2230084
v -0.128754 0.05 -0.2230084
v 3.248601E-15 0.05 0.257508
v 3.248601E-15 0.05 -0.257508
v 0.128754 0.05 0.2230084
v 0.128754 0.05 -0.2230084
v 0.2230084 0.05 0.128754
v 0.2230084 0.05 -0.128754
v 0.257508 0.05 -7.219114E-16
v -0.3861495 0.09 0.2229435
v -0.445887 0.09 -7.219114E-16
v 0.2229435 0.09 0.3861495
v 0.3861495 0.09 0.2229435
v -3.609557E-16 0.09 -0.445887
v 0.2229435 0.09 -0.3861495
v 0.445887 0.09 -7.219114E-16
v 0.3861495 0.09 -0.2229435
v -0.2229435 0.09 0.3861495
v -3.609557E-16 0.09 0.445887
v -0.3861495 0.09 -0.2229435
v -0.2229435 0.09 -0.3861495
v -0.3840031 0.09 -7.219114E-16
v -0.3325564 0.09 0.1920015
v -0.1920015 0.09 0.3325564
v 0 0.09 0.3840031
v 0.1920015 0.09 0.3325564
v 0.3325564 0.09 0.1920015
v 0.3840031 0.09 -7.219114E-16
v -0.3325564 0.09 -0.1920015
v -0.1920015 0.09 -0.3325564
v 0 0.09 -0.3840031
v 0.1920015 0.09 -0.3325564
v 0.3325564 0.09 -0.1920015

vn 0 -1 0
vn 0.1239779 -0.8778074 -0.4626918
vn 0.4626918 -0.8778074 -0.1239779
vn -0.3387139 -0.8778074 -0.3387139
vn -0.3387139 -0.8778074 0.3387139
vn 0.3387139 -0.8778074 0.3387139
vn -0.1239779 -0.8778074 0.4626918
vn -0.4626918 -0.8778074 -0.1239779
vn -0.1239779 -0.8778074 -0.4626918
vn 0.3387139 -0.8778074 -0.3387139
vn 0.1239779 -0.8778074 0.4626918
vn -0.4626918 -0.8778074 0.1239779
vn 0.4626918 -0.8778074 0.1239779
vn 0 1 0
vn -0.9659258 0 0.258819
vn 0.7071068 0 0.7071068
vn 0.258819 0 -0.9659258
vn 0.9659258 0 -0.258819
vn -0.7071068 0 0.7071068
vn -0.258819 0 0.9659258
vn 0.9659258 0 0.258819
vn -0.7071068 0 -0.7071068
vn 0.258819 0 0.9659258
vn 0.7071068 0 -0.7071068
vn -0.258819 0 -0.9659258
vn -0.9659258 0 -0.258819
vn 0 0.9534653 0.3015026
vn -0.1507513 0.9534653 0.261109
vn 0.1507513 0.9534653 0.261109
vn -0.261109 0.9534653 0.1507513
vn -0.3015026 0.9534653 0
vn 0.261109 0.9534653 0.1507513
vn 0.3015026 0.9534653 0
vn 0.261109 0.9534653 -0.1507513
vn 0.1507513 0.9534653 -0.261109
vn -0.261109 0.9534653 -0.1507513
vn -0.1507513 0.9534653 -0.261109
vn 0 0.9534653 -0.3015026
vn -0.6031519 -0.7810817 0.161614
vn -0.4415378 -0.7810817 0.4415378
vn 0.4415378 -0.7810817 0.4415378
vn 0.161614 -0.7810817 -0.6031519
vn 0.6031519 -0.7810817 -0.161614
vn -0.161614 -0.7810817 -0.6031519
vn 0.6031519 -0.7810817 0.161614
vn 0.4415378 -0.7810817 -0.4415378
vn -0.6031519 -0.7810817 -0.161614
vn 0.161614 -0.7810817 0.6031519
vn -0.4415378 -0.7810817 -0.4415378
vn -0.161614 -0.7810817 0.6031519

vt 0 0

usemtl _defaultMat

f 3/1/1 2/1/1 1/1/1
f 2/1/1 3/1/1 4/1/1
f 4/1/1 3/1/1 5/1/1
f 4/1/1 5/1/1 6/1/1
f 4/1/1 6/1/1 7/1/1
f 7/1/1 6/1/1 8/1/1
f 7/1/1 8/1/1 9/1/1
f 9/1/1 8/1/1 10/1/1
f 10/1/1 8/1/1 11/1/1
f 10/1/1 11/1/1 12/1/1
f 15/1/2 14/1/2 13/1/2
f 14/1/2 15/1/2 16/1/2
f 19/1/3 18/1/3 17/1/3
f 18/1/3 19/1/3 20/1/3
f 23/1/4 22/1/4 21/1/4
f 22/1/4 23/1/4 24/1/4
f 27/1/5 26/1/5 25/1/5
f 26/1/5 27/1/5 28/1/5
f 31/1/6 30/1/6 29/1/6
f 30/1/6 31/1/6 32/1/6
f 28/1/7 33/1/7 26/1/7
f 33/1/7 28/1/7 34/1/7
f 21/1/8 36/1/8 35/1/8
f 36/1/8 21/1/8 22/1/8
f 13/1/9 24/1/9 23/1/9
f 24/1/9 13/1/9 14/1/9
f 15/1/10 17/1/10 16/1/10
f 17/1/10 15/1/10 19/1/10
f 34/1/11 30/1/11 33/1/11
f 30/1/11 34/1/11 29/1/11
f 36/1/12 25/1/12 35/1/12
f 25/1/12 36/1/12 27/1/12
f 18/1/13 32/1/13 31/1/13
f 32/1/13 18/1/13 20/1/13
f 39/1/14 38/1/14 37/1/14
f 38/1/14 39/1/14 40/1/14
f 38/1/14 40/1/14 41/1/14
f 41/1/14 40/1/14 42/1/14
f 41/1/14 42/1/14 43/1/14
f 43/1/14 42/1/14 44/1/14
f 43/1/14 44/1/14 45/1/14
f 45/1/14 44/1/14 46/1/14
f 45/1/14 46/1/14 47/1/14
f 47/1/14 46/1/14 48/1/14
f 50/1/15 25/1/15 49/1/15
f 25/1/15 50/1/15 35/1/15
f 32/1/16 51/1/16 30/1/16
f 51/1/16 32/1/16 52/1/16
f 53/1/17 15/1/17 13/1/17
f 15/1/17 53/1/17 54/1/17
f 19/1/18 55/1/18 20/1/18
f 55/1/18 19/1/18 56/1/18
f 49/1/19 26/1/19 57/1/19
f 26/1/19 49/1/19 25/1/19
f 58/1/20 26/1/20 33/1/20
f 26/1/20 58/1/20 57/1/20
f 20/1/21 52/1/21 32/1/21
f 52/1/21 20/1/21 55/1/21
f 59/1/22 23/1/22 21/1/22
f 23/1/22 59/1/22 60/1/22
f 51/1/23 33/1/23 30/1/23
f 33/1/23 51/1/23 58/1/23
f 54/1/24 19/1/24 15/1/24
f 19/1/24 54/1/24 56/1/24
f 60/1/25 13/1/25 23/1/25
f 13/1/25 60/1/25 53/1/25
f 59/1/26 35/1/26 50/1/26
f 35/1/26 59/1/26 21/1/26
f 49/1/14 59/1/14 50/1/14
f 59/1/14 49/1/14 61/1/14
f 61/1/14 49/1/14 62/1/14
f 62/1/14 49/1/14 57/1/14
f 62/1/14 57/1/14 63/1/14
f 63/1/14 57/1/14 58/1/14
f 63/1/14 58/1/14 64/1/14
f 64/1/14 58/1/14 51/1/14
f 64/1/14 51/1/14 65/1/14
f 65/1/14 51/1/14 66/1/14
f 66/1/14 51/1/14 52/1/14
f 66/1/14 52/1/14 67/1/14
f 68/1/14 59/1/14 61/1/14
f 59/1/14 68/1/14 60/1/14
f 60/1/14 68/1/14 69/1/14
f 60/1/14 69/1/14 53/1/14
f 53/1/14 69/1/14 70/1/14
f 53/1/14 70/1/14 54/1/14
f 54/1/14 70/1/14 71/1/14
f 54/1/14 71/1/14 72/1/14
f 54/1/14 72/1/14 56/1/14
f 56/1/14 72/1/14 67/1/14
f 56/1/14 67/1/14 52/1/14
f 56/1/14 52/1/14 55/1/14
f 43/1/27 71/1/28 70/1/27
f 71/1/28 43/1/27 45/1/28
f 70/1/27 41/1/29 43/1/27
f 41/1/29 70/1/27 69/1/29
f 47/1/30 71/1/28 45/1/28
f 71/1/28 47/1/30 72/1/30
f 48/1/31 72/1/30 47/1/30
f 72/1/30 48/1/31 67/1/31
f 69/1/29 38/1/32 41/1/29
f 38/1/32 69/1/29 68/1/32
f 68/1/32 37/1/33 38/1/32
f 37/1/33 68/1/32 61/1/33
f 62/1/34 37/1/33 61/1/33
f 37/1/33 62/1/34 39/1/34
f 63/1/35 39/1/34 62/1/34
f 39/1/34 63/1/35 40/1/35
f 48/1/31 66/1/36 67/1/31
f 66/1/36 48/1/31 46/1/36
f 46/1/36 65/1/37 66/1/36
f 65/1/37 46/1/36 44/1/37
f 42/1/38 65/1/37 44/1/37
f 65/1/37 42/1/38 64/1/38
f 64/1/38 40/1/35 63/1/35
f 40/1/35 64/1/38 42/1/38
f 1/1/39 27/1/39 36/1/39
f 27/1/39 1/1/39 2/1/39
f 2/1/40 28/1/40 27/1/40
f 28/1/40 2/1/40 4/1/40
f 10/1/41 29/1/41 9/1/41
f 29/1/41 10/1/41 31/1/41
f 16/1/42 6/1/42 14/1/42
f 6/1/42 16/1/42 8/1/42
f 17/1/43 12/1/43 11/1/43
f 12/1/43 17/1/43 18/1/43
f 14/1/44 5/1/44 24/1/44
f 5/1/44 14/1/44 6/1/44
f 12/1/45 31/1/45 10/1/45
f 31/1/45 12/1/45 18/1/45
f 16/1/46 11/1/46 8/1/46
f 11/1/46 16/1/46 17/1/46
f 22/1/47 1/1/47 36/1/47
f 1/1/47 22/1/47 3/1/47
f 7/1/48 29/1/48 34/1/48
f 29/1/48 7/1/48 9/1/48
f 24/1/49 3/1/49 22/1/49
f 3/1/49 24/1/49 5/1/49
f 4/1/50 34/1/50 28/1/50
f 34/1/50 4/1/50 7/1/50

