# Created by Kenney (www.kenney.nl)

mtllib popsicle.mtl

g popsicle

v 0.025 0.170411 0.08748315
v -0.025 0.170411 0.08748315
v 0.025 0.1745065 0.08887336
v -0.025 0.1745065 0.08887336
v 0.025 0.1629359 0.08316742
v -0.025 0.1629359 0.08316742
v 0.025 0.166532 0.08557025
v -0.025 0.166532 0.08557025
v 0.025 0.1596842 0.08031575
v -0.025 0.1596842 0.08031575
v -0.025 0.15 -0.05693593
v 0.025 0.15 -0.05693593
v -0.025 0.1502829 -0.06125166
v 0.025 0.1502829 -0.06125166
v -0.025 0.1502829 0.06125166
v -0.025 0.1511266 0.06549355
v 0.025 0.1502829 0.06125166
v 0.025 0.1511266 0.06549355
v -0.025 0.15 0.05693593
v 0.025 0.15 0.05693593
v 0.025 0.1629359 -0.08316742
v 0.025 0.166532 -0.08557025
v -0.025 0.1629359 -0.08316742
v -0.025 0.166532 -0.08557025
v 0.025 0.1745065 -0.08887336
v 0.025 0.1787483 -0.08971713
v -0.025 0.1745065 -0.08887336
v -0.025 0.1787483 -0.08971713
v 0.025 0.170411 -0.08748315
v -0.025 0.170411 -0.08748315
v 0.025 0.1830641 0.09
v 0.025 0.4 0.09
v 0.025 0.1787483 0.08971713
v 0.025 0.4232937 0.08693332
v 0.025 0.445 0.07794229
v 0.025 0.1568326 0.07706406
v 0.025 0.4636396 0.06363961
v 0.025 0.1544297 0.07346796
v 0.025 0.1525169 0.069589
v 0.025 0.4779423 0.045
v 0.025 0.4869333 0.02329371
v 0.025 0.49 0
v 0.025 0.4869333 -0.02329371
v 0.025 0.4779423 -0.045
v 0.025 0.4636396 -0.06363961
v 0.025 0.1511266 -0.06549355
v 0.025 0.445 -0.07794229
v 0.025 0.1525169 -0.069589
v 0.025 0.1544297 -0.07346796
v 0.025 0.1568326 -0.07706406
v 0.025 0.1596842 -0.08031575
v 0.025 0.4232937 -0.08693332
v 0.025 0.4 -0.09
v 0.025 0.1830641 -0.09
v -0.025 0.1568326 -0.07706406
v -0.025 0.1596842 -0.08031575
v -0.025 0.1568326 0.07706406
v -0.025 0.1830641 -0.09
v -0.025 0.1525169 0.069589
v -0.025 0.1544297 0.07346796
v -0.025 0.445 -0.07794229
v -0.025 0.4636396 -0.06363961
v -0.025 0.4 -0.09
v -0.025 0.4232937 -0.08693332
v -0.025 0.4779423 0.045
v -0.025 0.4869333 0.02329371
v -0.025 0.49 0
v -0.025 0.445 0.07794229
v -0.025 0.4636396 0.06363961
v -0.025 0.4 0.09
v -0.025 0.1830641 0.09
v -0.025 0.4232937 0.08693332
v -0.025 0.1787483 0.08971713
v -0.025 0.4869333 -0.02329371
v -0.025 0.4779423 -0.045
v -0.025 0.1511266 -0.06549355
v -0.025 0.1525169 -0.069589
v -0.025 0.1544297 -0.07346796
v -0.005 0.15 -0.02
v 0.005 0.15 -0.02
v 0.005 0.15 0.02
v -0.005 0.15 0.02
v 0.005 0.005857864 0.01414214
v -0.005 0.005857864 0.01414214
v 0.005 0.01 0.01732051
v -0.005 0.01 0.01732051
v -0.005 0.002679492 0.01
v 0.005 0.002679492 0.01
v 0.005 0.02 0.02
v -0.005 0.02 0.02
v 0.005 0.01482362 -0.01931852
v 0.005 0.02 -0.02
v -0.005 0.01482362 -0.01931852
v -0.005 0.02 -0.02
v 0.005 0.01 -0.01732051
v -0.005 0.01 -0.01732051
v 0.005 0.01482362 0.01931852
v 0.005 0.0006814835 0.005176381
v 0.005 0 0
v 0.005 0.0006814835 -0.005176381
v 0.005 0.002679492 -0.01
v 0.005 0.005857864 -0.01414214
v -0.005 0.005857864 -0.01414214
v -0.005 0.0006814835 -0.005176381
v -0.005 0.002679492 -0.01
v -0.005 0.0006814835 0.005176381
v -0.005 8.940174E-16 0
v -0.005 0.01482362 0.01931852

vn 0 -0.3826834 0.9238795
vn 0 -0.258819 0.9659258
vn 0 -0.6087614 0.7933533
vn 0 -0.5 0.8660254
vn 0 -0.7071068 0.7071068
vn 0 -0.9978589 -0.06540313
vn 0 -0.9914449 -0.1305262
vn 0 -0.9914449 0.1305262
vn 0 -0.9659258 0.258819
vn 0 -0.9978589 0.06540313
vn 0 -0.6087614 -0.7933533
vn 0 -0.5 -0.8660254
vn 0 -0.258819 -0.9659258
vn 0 -0.1305262 -0.9914449
vn 0 -0.3826834 -0.9238795
vn 1 0 0
vn 0 -0.7933533 -0.6087614
vn 0 -0.7071068 -0.7071068
vn 0 -0.7933533 0.6087614
vn 0 -0.06540313 -0.9978589
vn 0 -0.9238795 0.3826834
vn 0 -0.8660254 0.5
vn 0 0.5 -0.8660254
vn 0 0.7071068 -0.7071068
vn 0 0.1305262 -0.9914449
vn 0 0.258819 -0.9659258
vn 0 0.8660254 0.5
vn 0 0.9659258 0.258819
vn 0 1 0
vn 0 0.5 0.8660254
vn 0 0.7071068 0.7071068
vn -1 0 0
vn 0 0.9659258 -0.258819
vn 0 0.1305262 0.9914449
vn 0 0.258819 0.9659258
vn 0 -0.1305262 0.9914449
vn 0 -1 0
vn 0 -0.9659258 -0.258819
vn 0 0 -1
vn 0 -0.9238795 -0.3826834
vn 0 -0.8660254 -0.5
vn 0 0.8660254 -0.5
vn 0 -0.06540313 0.9978589
vn 0 0 1

vt 0.984252 7.460151
vt -0.984252 7.460151
vt 0.984252 7.630426
vt -0.984252 7.630426
vt 0.984252 7.15282
vt -0.984252 7.15282
vt 0.984252 7.323095
vt -0.984252 7.323095
vt 0.984252 6.811529
vt -0.984252 6.811529
vt 0.984252 6.981804
vt -0.984252 6.981804
vt 0.984252 2.623012
vt -0.984252 2.623012
vt 0.984252 2.793287
vt -0.984252 2.793287
vt -0.984252 3.519428
vt -0.984252 3.689703
vt 0.984252 3.519428
vt 0.984252 3.689703
vt -0.984252 7.420933
vt -0.984252 7.591208
vt 0.984252 7.420933
vt 0.984252 7.591208
vt -3.543307 7.207247
vt -3.543307 15.74803
vt -3.532171 7.037336
vt -3.422572 16.66511
vt -3.498951 6.870333
vt -3.444218 6.709095
vt -3.368908 6.556379
vt -3.068594 17.51969
vt -3.274308 6.414801
vt -3.162038 6.286781
vt -3.034018 6.174511
vt -2.505497 18.25353
vt -2.89244 6.079911
vt -2.739724 6.004601
vt -2.578486 5.949867
vt -2.411483 5.916648
vt -1.771654 18.81663
vt -2.241572 5.905512
vt 2.241572 5.905512
vt -0.9170753 19.1706
vt 0 19.29134
vt 0.9170753 19.1706
vt 1.771654 18.81663
vt 2.505497 18.25353
vt 2.411483 5.916648
vt 2.578486 5.949867
vt 3.068594 17.51969
vt 2.739724 6.004601
vt 2.89244 6.079911
vt 3.034018 6.174511
vt 3.162038 6.286781
vt 3.422572 16.66511
vt 3.274308 6.414801
vt 3.368908 6.556379
vt 3.444218 6.709095
vt 3.543307 15.74803
vt 3.498951 6.870333
vt 3.532171 7.037336
vt 3.543307 7.207247
vt 0.984252 6.352233
vt -0.984252 6.352233
vt 0.984252 6.522509
vt -0.984252 6.522509
vt -0.984252 7.253284
vt -0.984252 7.423559
vt 0.984252 7.253284
vt 0.984252 7.423559
vt 0.984252 7.370268
vt -0.984252 7.370268
vt 0.984252 7.540543
vt -0.984252 7.540543
vt -0.984252 5.112951
vt -0.984252 5.283226
vt 0.984252 5.112951
vt 0.984252 5.283226
vt -0.984252 12.03126
vt -0.984252 12.95625
vt 0.984252 12.03126
vt 0.984252 12.95625
vt -0.984252 15.15081
vt -0.984252 16.0758
vt 0.984252 15.15081
vt 0.984252 16.0758
vt -0.984252 5.564016
vt -0.984252 6.489005
vt 0.984252 5.564016
vt 0.984252 6.489005
vt -0.984252 1.593036
vt -0.984252 2.518025
vt 0.984252 1.593036
vt 0.984252 2.518025
vt -1.064791E-31 19.29134
vt 0.984252 -2.241572
vt 0.1968504 0.7874016
vt 0.984252 2.241572
vt -0.984252 2.241572
vt -0.1968504 0.7874016
vt -0.1968504 -0.7874016
vt 0.1968504 -0.7874016
vt -0.984252 -2.241572
vt -0.984252 14.08679
vt -0.984252 15.01178
vt 0.984252 14.08679
vt 0.984252 15.01178
vt -0.984252 7.207247
vt -0.984252 15.74803
vt 0.984252 7.207247
vt 0.984252 15.74803
vt -0.984252 4.354168
vt -0.984252 4.524443
vt 0.984252 4.354168
vt 0.984252 4.524443
vt 0.984252 5.782794
vt -0.984252 5.782794
vt 0.984252 5.953068
vt -0.984252 5.953068
vt 0.984252 9.1243
vt -0.984252 9.1243
vt 0.984252 10.04929
vt -0.984252 10.04929
vt 0.1968504 0.5219111
vt -0.1968504 0.5219111
vt 0.1968504 0.7274642
vt -0.1968504 0.7274642
vt -0.1968504 0.3765632
vt -0.1968504 0.5821162
vt 0.1968504 0.3765632
vt 0.1968504 0.5821162
vt 0.1968504 5.905512
vt -0.1968504 5.905512
vt -0.1968504 0.6778887
vt -0.1968504 0.8834417
vt 0.1968504 0.6778887
vt 0.1968504 0.8834417
vt -0.1968504 0.6246877
vt -0.1968504 0.8302407
vt 0.1968504 0.6246877
vt 0.1968504 0.8302407
vt -0.7874016 0.7874016
vt -0.7874016 5.905512
vt -0.7605715 0.5836071
vt 0.7874016 5.905512
vt -0.6819097 0.3937008
vt -0.556777 0.2306246
vt -0.3937008 0.1054918
vt -0.2037945 0.02683006
vt 0 1.76013E-14
vt 0.2037945 0.02683006
vt 0.3937008 0.1054918
vt 0.556777 0.2306246
vt 0.6819097 0.3937008
vt 0.7605715 0.5836071
vt 0.7874016 0.7874016
vt 0.1968504 0.198549
vt -0.1968504 0.198549
vt 0.1968504 0.4041021
vt -0.1968504 0.4041021
vt 0.1968504 1.371455E-13
vt -0.1968504 -1.325513E-13
vt 0.1968504 0.2055531
vt -0.1968504 0.2055531
vt 0 1.759624E-14
vt -0.1968504 1.371455E-13
vt 0.1968504 -1.325513E-13

usemtl yellow

f 3/3/2 2/2/1 1/1/1
f 2/2/1 3/3/2 4/4/2
f 7/7/4 6/6/3 5/5/3
f 6/6/3 7/7/4 8/8/4
f 5/11/3 10/10/5 9/9/5
f 10/10/5 5/11/3 6/12/3
f 13/15/7 12/14/6 11/13/6
f 12/14/6 13/15/7 14/16/7
f 17/19/8 16/18/9 15/17/8
f 16/18/9 17/19/8 18/20/9
f 20/13/10 15/16/8 19/14/10
f 15/16/8 20/13/10 17/15/8
f 23/5/11 22/8/12 21/6/11
f 22/8/12 23/5/11 24/7/12
f 27/23/13 26/22/14 25/21/13
f 26/22/14 27/23/13 28/24/14
f 30/1/15 25/4/13 29/2/15
f 25/4/13 30/1/15 27/3/13
f 33/27/16 32/26/16 31/25/16
f 32/26/16 33/27/16 34/28/16
f 34/28/16 33/27/16 3/29/16
f 34/28/16 3/29/16 1/30/16
f 34/28/16 1/30/16 7/31/16
f 34/28/16 7/31/16 35/32/16
f 35/32/16 7/31/16 5/33/16
f 35/32/16 5/33/16 9/34/16
f 35/32/16 9/34/16 36/35/16
f 35/32/16 36/35/16 37/36/16
f 37/36/16 36/35/16 38/37/16
f 37/36/16 38/37/16 39/38/16
f 37/36/16 39/38/16 18/39/16
f 37/36/16 18/39/16 17/40/16
f 37/36/16 17/40/16 40/41/16
f 40/41/16 17/40/16 20/42/16
f 40/41/16 20/42/16 12/43/16
f 40/41/16 12/43/16 41/44/16
f 41/44/16 12/43/16 42/45/16
f 42/45/16 12/43/16 43/46/16
f 43/46/16 12/43/16 44/47/16
f 44/47/16 12/43/16 45/48/16
f 45/48/16 12/43/16 14/49/16
f 45/48/16 14/49/16 46/50/16
f 45/48/16 46/50/16 47/51/16
f 47/51/16 46/50/16 48/52/16
f 47/51/16 48/52/16 49/53/16
f 47/51/16 49/53/16 50/54/16
f 47/51/16 50/54/16 51/55/16
f 47/51/16 51/55/16 52/56/16
f 52/56/16 51/55/16 21/57/16
f 52/56/16 21/57/16 22/58/16
f 52/56/16 22/58/16 29/59/16
f 52/56/16 29/59/16 53/60/16
f 53/60/16 29/59/16 25/61/16
f 53/60/16 25/61/16 26/62/16
f 53/60/16 26/62/16 54/63/16
f 56/66/18 50/65/17 55/64/17
f 50/65/17 56/66/18 51/67/18
f 36/64/19 10/67/5 57/65/19
f 10/67/5 36/64/19 9/66/5
f 28/70/14 54/69/20 26/68/14
f 54/69/20 28/70/14 58/71/20
f 1/74/1 8/73/4 7/72/4
f 8/73/4 1/74/1 2/75/1
f 39/78/21 60/77/22 59/76/21
f 60/77/22 39/78/21 38/79/22
f 61/82/23 45/81/24 47/80/23
f 45/81/24 61/82/23 62/83/24
f 63/86/25 52/85/26 53/84/25
f 52/85/26 63/86/25 64/87/26
f 40/90/27 66/89/28 65/88/27
f 66/89/28 40/90/27 41/91/28
f 41/94/28 67/93/29 66/92/28
f 67/93/29 41/94/28 42/95/29
f 37/83/31 68/80/30 35/82/30
f 68/80/30 37/83/31 69/81/31
f 72/56/32 71/63/32 70/60/32
f 71/63/32 72/56/32 73/62/32
f 73/62/32 72/56/32 4/61/32
f 4/61/32 72/56/32 2/59/32
f 2/59/32 72/56/32 8/58/32
f 8/58/32 72/56/32 68/51/32
f 8/58/32 68/51/32 6/57/32
f 6/57/32 68/51/32 10/55/32
f 10/55/32 68/51/32 57/54/32
f 57/54/32 68/51/32 69/48/32
f 57/54/32 69/48/32 60/53/32
f 60/53/32 69/48/32 59/52/32
f 59/52/32 69/48/32 16/50/32
f 16/50/32 69/48/32 15/49/32
f 15/49/32 69/48/32 65/47/32
f 15/49/32 65/47/32 19/43/32
f 19/43/32 65/47/32 11/42/32
f 11/42/32 65/47/32 66/46/32
f 11/42/32 66/46/32 67/96/32
f 11/42/32 67/96/32 74/44/32
f 11/42/32 74/44/32 75/41/32
f 11/42/32 75/41/32 62/36/32
f 11/42/32 62/36/32 13/40/32
f 13/40/32 62/36/32 76/39/32
f 76/39/32 62/36/32 61/32/32
f 76/39/32 61/32/32 77/38/32
f 77/38/32 61/32/32 78/37/32
f 78/37/32 61/32/32 55/35/32
f 55/35/32 61/32/32 56/34/32
f 56/34/32 61/32/32 64/28/32
f 56/34/32 64/28/32 23/33/32
f 23/33/32 64/28/32 24/31/32
f 24/31/32 64/28/32 30/30/32
f 30/30/32 64/28/32 63/26/32
f 30/30/32 63/26/32 27/29/32
f 27/29/32 63/26/32 28/27/32
f 28/27/32 63/26/32 58/25/32
f 67/95/29 43/92/33 74/94/33
f 43/92/33 67/95/29 42/93/29
f 34/87/35 70/84/34 32/86/34
f 70/84/34 34/87/35 72/85/35
f 33/24/36 4/21/2 3/23/2
f 4/21/2 33/24/36 73/22/36
f 11/99/37 79/98/37 19/97/37
f 79/98/37 11/99/37 12/100/37
f 79/98/37 12/100/37 80/101/37
f 80/101/37 12/100/37 81/102/37
f 82/103/37 19/97/37 79/98/37
f 19/97/37 82/103/37 20/104/37
f 20/104/37 82/103/37 81/102/37
f 20/104/37 81/102/37 12/100/37
f 64/107/26 47/106/23 52/105/26
f 47/106/23 64/107/26 61/108/23
f 76/20/38 14/17/7 13/19/7
f 14/17/7 76/20/38 46/18/38
f 58/111/39 53/110/39 54/109/39
f 53/110/39 58/111/39 63/112/39
f 18/115/9 59/114/21 16/113/9
f 59/114/21 18/115/9 39/116/21
f 78/79/41 48/76/40 77/78/40
f 48/76/40 78/79/41 49/77/41
f 55/119/17 49/118/41 78/117/41
f 49/118/41 55/119/17 50/120/17
f 75/123/42 45/122/24 62/121/24
f 45/122/24 75/123/42 44/124/42
f 77/116/40 46/113/38 76/115/38
f 46/113/38 77/116/40 48/114/40
f 56/9/18 21/12/11 51/10/18
f 21/12/11 56/9/18 23/11/11
f 24/72/12 29/75/15 22/73/12
f 29/75/15 24/72/12 30/74/15
f 38/117/22 57/120/19 60/118/22
f 57/120/19 38/117/22 36/119/19
f 31/71/43 73/68/36 33/70/36
f 73/68/36 31/71/43 71/69/43
f 37/121/31 65/124/27 69/122/31
f 65/124/27 37/121/31 40/123/27
f 35/108/30 72/105/35 34/107/35
f 72/105/35 35/108/30 68/106/30
f 32/112/44 71/109/44 31/111/44
f 71/109/44 32/112/44 70/110/44
f 74/91/33 44/88/42 75/90/42
f 44/88/42 74/91/33 43/89/33

usemtl brownLight

f 85/127/4 84/126/5 83/125/5
f 84/126/5 85/127/4 86/128/4
f 88/131/22 84/130/5 87/129/22
f 84/130/5 88/131/22 83/132/5
f 81/133/44 90/101/44 89/98/44
f 90/101/44 81/133/44 82/134/44
f 93/137/13 92/136/14 91/135/13
f 92/136/14 93/137/13 94/138/14
f 96/141/12 91/140/13 95/139/12
f 91/140/13 96/141/12 93/142/13
f 94/98/39 80/134/39 92/101/39
f 80/134/39 94/98/39 79/133/39
f 97/145/16 81/144/16 89/143/16
f 81/144/16 97/145/16 80/146/16
f 80/146/16 97/145/16 85/147/16
f 80/146/16 85/147/16 83/148/16
f 80/146/16 83/148/16 88/149/16
f 80/146/16 88/149/16 98/150/16
f 80/146/16 98/150/16 99/151/16
f 80/146/16 99/151/16 100/152/16
f 80/146/16 100/152/16 101/153/16
f 80/146/16 101/153/16 102/154/16
f 80/146/16 102/154/16 95/155/16
f 80/146/16 95/155/16 91/156/16
f 80/146/16 91/156/16 92/157/16
f 103/125/18 95/128/12 102/126/18
f 95/128/12 103/125/18 96/127/12
f 105/160/41 100/159/38 104/158/38
f 100/159/38 105/160/41 101/161/41
f 98/158/9 87/161/22 106/159/9
f 87/161/22 98/158/9 88/160/22
f 104/164/38 99/163/37 107/162/37
f 99/163/37 104/164/38 100/165/38
f 79/144/32 90/157/32 82/146/32
f 90/157/32 79/144/32 108/156/32
f 108/156/32 79/144/32 86/155/32
f 86/155/32 79/144/32 84/154/32
f 84/154/32 79/144/32 87/153/32
f 87/153/32 79/144/32 106/152/32
f 106/152/32 79/144/32 107/166/32
f 107/166/32 79/144/32 104/150/32
f 104/150/32 79/144/32 105/149/32
f 105/149/32 79/144/32 103/148/32
f 103/148/32 79/144/32 96/147/32
f 96/147/32 79/144/32 93/145/32
f 93/145/32 79/144/32 94/143/32
f 103/132/18 101/129/41 105/131/41
f 101/129/41 103/132/18 102/130/18
f 89/138/36 108/135/2 97/137/2
f 108/135/2 89/138/36 90/136/36
f 97/142/2 86/139/4 85/141/4
f 86/139/4 97/142/2 108/140/2
f 99/168/37 106/165/9 107/167/37
f 106/165/9 99/168/37 98/164/9

