# Created by Kenney (www.kenney.nl)

mtllib potLid.mtl

g potLid

v 0.09279473 0.05 -0.2855928
v 0.1015815 0.02 -0.3126358
v 0.2429397 0.05 -0.1765061
v 0.2659439 0.02 -0.1932196
v 0.3287247 0.02 0
v 0.30029 0.05 0
v 0.2659439 0.02 0.1932196
v 0.2429397 0.05 0.1765061
v -0.30029 0.05 0
v -0.3287247 0.02 0
v -0.2429397 0.05 -0.1765061
v -0.2659439 0.02 -0.1932196
v -0.1015815 0.02 -0.3126358
v -0.09279473 0.05 -0.2855928
v 0.1015815 0.02 0.3126358
v -0.1015815 0.02 0.3126358
v 0.09279473 0.05 0.2855928
v -0.09279473 0.05 0.2855928
v -0.1015815 0 -0.3126358
v 0.1015815 0 -0.3126358
v -0.3287247 0 0
v -0.2659439 0 -0.1932196
v -0.2659439 0.02 0.1932196
v -0.2659439 0 0.1932196
v 0.3287247 0 0
v 0.2659439 0 -0.1932196
v -0.1015815 0 0.3126358
v 0.1015815 0 0.3126358
v 0.2659439 0 0.1932196
v -0.2429397 0.05 0.1765061
v -0.2419181 0.05 0
v -0.1957158 0.05 0.1421959
v -0.0747568 0.05 0.2300778
v 0.0747568 0.05 0.2300778
v 0.1957158 0.05 0.1421959
v 0.2419181 0.05 0
v -0.1957158 0.05 -0.1421959
v -0.0747568 0.05 -0.2300778
v 0.0747568 0.05 -0.2300778
v 0.1957158 0.05 -0.1421959
v -0.01957218 0.1172529 0.06023062
v 0.01957218 0.1172529 0.06023062
v -0.01957218 0.1158375 0.06440035
v 0.01957218 0.1158375 0.06440035
v -0.01957218 0.118112 0.0559118
v 0.01957218 0.118112 0.0559118
v 0.01957218 0.08836803 -0.0562508
v -0.01957218 0.08836803 -0.0562508
v 0.01957218 0.08895474 -0.05573627
v -0.01957218 0.08895474 -0.05573627
v -0.01957218 0.1172529 -0.06023062
v 0.01957218 0.1172529 -0.06023062
v -0.01957218 0.118112 -0.05591181
v 0.01957218 0.118112 -0.05591181
v -0.01957218 0.1184 -0.0515178
v 0.01957218 0.1184 -0.0515178
v 0.01957218 0.05 0.08518153
v -0.01957218 0.05 0.08518153
v 0.01957218 0.08473627 0.08518153
v -0.01957218 0.08473627 0.08518153
v 0.01957218 0.08913027 0.08489352
v -0.01957218 0.08913027 0.08489352
v 0.01957218 0.09344909 0.08403447
v -0.01957218 0.09344909 0.08403447
v -0.01957218 0.1015681 -0.08067144
v 0.01957218 0.1015681 -0.08067144
v -0.01957218 0.1052295 -0.07822503
v 0.01957218 0.1052295 -0.07822503
v 0.01957218 0.05 0.05754291
v 0.01957218 0.09761883 0.08261903
v 0.01957218 0.1015681 0.08067144
v 0.01957218 0.1052295 0.07822503
v 0.01957218 0.1085401 0.07532165
v 0.01957218 0.1114435 0.07201098
v 0.01957218 0.1138899 0.06834967
v 0.01957218 0.08383148 0.05754291
v 0.01957218 0.08551497 0.05743257
v 0.01957218 0.08628034 0.05728033
v 0.01957218 0.08701929 0.05702949
v 0.01957218 0.08771918 0.05668434
v 0.01957218 0.08836803 0.0562508
v 0.01957218 0.08895474 0.05573627
v 0.01957218 0.1184 0.0515178
v 0.01957218 0.08946927 0.05514956
v 0.01957218 0.08990281 0.05450071
v 0.01957218 0.09024796 0.05380082
v 0.01957218 0.09049881 0.05306187
v 0.01957218 0.09065104 0.0522965
v 0.01957218 0.09076139 0.05061301
v 0.01957218 0.09076139 -0.05061301
v 0.01957218 0.09065105 -0.0522965
v 0.01957218 0.09049881 -0.05306187
v 0.01957218 0.09024797 -0.05380082
v 0.01957218 0.08990282 -0.05450071
v 0.01957218 0.08946927 -0.05514956
v 0.01957218 0.08771918 -0.05668435
v 0.01957218 0.08701929 -0.05702949
v 0.01957218 0.08628035 -0.05728033
v 0.01957218 0.08551497 -0.05743258
v 0.01957218 0.08383148 -0.05754292
v 0.01957218 0.05 -0.05754292
v 0.01957218 0.05 -0.08518153
v 0.01957218 0.1158375 -0.06440035
v 0.01957218 0.1138899 -0.06834967
v 0.01957218 0.1114435 -0.07201098
v 0.01957218 0.1085401 -0.07532165
v 0.01957218 0.09761883 -0.08261903
v 0.01957218 0.09344909 -0.08403447
v 0.01957218 0.08913027 -0.08489353
v 0.01957218 0.08473627 -0.08518153
v -0.01957218 0.1114435 -0.07201098
v -0.01957218 0.1138899 -0.06834967
v -0.01957218 0.08701929 0.05702949
v -0.01957218 0.08771918 0.05668434
v -0.01957218 0.08946927 -0.05514956
v -0.01957218 0.08990282 -0.05450071
v -0.01957218 0.05 0.05754291
v -0.01957218 0.08383148 0.05754291
v -0.01957218 0.1184 0.0515178
v -0.01957218 0.08551497 0.05743257
v -0.01957218 0.09065105 -0.0522965
v -0.01957218 0.09076139 -0.05061301
v -0.01957218 0.05 -0.05754292
v -0.01957218 0.08383148 -0.05754292
v -0.01957218 0.08836803 0.0562508
v -0.01957218 0.08701929 -0.05702949
v -0.01957218 0.08771918 -0.05668435
v -0.01957218 0.08473627 -0.08518153
v -0.01957218 0.08913027 -0.08489353
v -0.01957218 0.08628034 0.05728033
v -0.01957218 0.08895474 0.05573627
v -0.01957218 0.08946927 0.05514956
v -0.01957218 0.08990281 0.05450071
v -0.01957218 0.09024796 0.05380082
v -0.01957218 0.09049881 0.05306187
v -0.01957218 0.09065104 0.0522965
v -0.01957218 0.09076139 0.05061301
v -0.01957218 0.09049881 -0.05306187
v -0.01957218 0.09024797 -0.05380082
v -0.01957218 0.08628035 -0.05728033
v -0.01957218 0.08551497 -0.05743258
v -0.01957218 0.05 -0.08518153
v -0.01957218 0.1158375 -0.06440035
v -0.01957218 0.1085401 -0.07532165
v -0.01957218 0.09761883 -0.08261903
v -0.01957218 0.09344909 -0.08403447
v -0.01957218 0.09761883 0.08261903
v -0.01957218 0.1015681 0.08067144
v -0.01957218 0.1052295 0.07822503
v -0.01957218 0.1085401 0.07532165
v -0.01957218 0.1114435 0.07201098
v -0.01957218 0.1138899 0.06834967

vn 0.436586 0.6695527 -0.6009092
vn 0.7064111 0.6695527 -0.2295269
vn 0.7064111 0.6695527 0.2295269
vn -0.7064111 0.6695527 -0.2295269
vn 0 0.6695527 -0.7427646
vn 0 0.6695527 0.7427646
vn 0 0 -1
vn -0.9510565 0 -0.309017
vn -0.9510565 0 0.309017
vn 0.9510565 0 -0.309017
vn -0.5877852 0 0.809017
vn -0.5877852 0 -0.809017
vn 0 -1 0
vn 0 0 1
vn 0.9510565 0 0.309017
vn 0.5877852 0 -0.809017
vn 0.5877852 0 0.809017
vn 0 1 0
vn -0.7064111 0.6695527 0.2295269
vn 0.436586 0.6695527 0.6009092
vn -0.436586 0.6695527 -0.6009092
vn -0.436586 0.6695527 0.6009092
vn 0 0.9659258 0.2588191
vn 0 0.9238795 0.3826834
vn 0 0.9914449 0.1305262
vn 0 -0.6087614 0.7933533
vn 0 -0.7071068 0.7071068
vn 0 0.9659258 -0.258819
vn 0 0.9914449 -0.1305262
vn 0 0.9978589 -0.06540311
vn 0 0.1305262 0.9914449
vn 0 0.258819 0.9659258
vn 0 0.5 -0.8660254
vn 0 0.6087614 -0.7933533
vn 1 0 0
vn 0 0.7933533 -0.6087614
vn 0 0.8660254 -0.5
vn 0 -0.3826834 -0.9238795
vn 0 -0.5 -0.8660254
vn 0 -0.7933533 0.6087614
vn 0 -0.8660254 0.5
vn 0 0.9978589 0.06540314
vn 0 -0.06540311 -0.9978589
vn 0 -0.1305262 -0.9914449
vn 0 -0.9914449 0.1305262
vn 0 -0.9978589 0.06540311
vn 0 -0.6087614 -0.7933533
vn 0 -0.3826834 0.9238795
vn 0 -0.5 0.8660254
vn 0 0.06540314 -0.9978589
vn 0 0.1305262 -0.9914449
vn -1 0 0
vn 0 -0.2588191 0.9659258
vn 0 0.9238795 -0.3826834
vn 0 0.3826834 0.9238795
vn 0 0.7071068 -0.7071068
vn 0 -0.1305262 0.9914449
vn 0 -0.9659258 0.258819
vn 0 0.06540311 0.9978589
vn 0 0.8660254 0.5
vn 0 0.7933533 0.6087614
vn 0 -0.9238795 0.3826834
vn 0 0.7071068 0.7071068
vn 0 0.5 0.8660254
vn 0 0.6087614 0.7933533
vn 0 0.2588191 -0.9659258
vn 0 0.3826834 -0.9238795
vn 0 -0.06540314 0.9978589
vn 0 -0.9978589 -0.06540314
vn 0 -0.9914449 -0.1305262
vn 0 -0.8660254 -0.5
vn 0 -0.7933533 -0.6087614
vn 0 -0.258819 -0.9659258
vn 0 -0.9659258 -0.2588191
vn 0 -0.9238795 -0.3826834
vn 0 -0.7071068 -0.7071068

vt 3.653336 -6.066189
vt 3.999273 -7.656332
vt -3.653336 -6.066189
vt -3.999273 -7.656332
vt 3.999273 0
vt -3.999273 0
vt 3.999273 0.7874016
vt -3.999273 0.7874016
vt 12.94192 0
vt 10.47023 -7.607069
vt 10.47023 7.607069
vt 3.999273 12.3085
vt 3.999273 -12.3085
vt -3.999273 12.3085
vt -3.999273 -12.3085
vt -10.47023 7.607069
vt -10.47023 -7.607069
vt -12.94192 0
vt -11.82244 0
vt -9.564557 6.949058
vt -9.564557 -6.949058
vt -9.524334 0
vt -7.705348 -5.598263
vt -3.653336 -11.24381
vt -2.943181 -9.05818
vt 3.653336 -11.24381
vt 2.943181 -9.05818
vt 7.705348 -5.598263
vt 9.564557 -6.949058
vt 9.524334 0
vt -7.705348 5.598263
vt -3.653336 11.24381
vt -2.943181 9.05818
vt 3.653336 11.24381
vt 2.943181 9.05818
vt 7.705348 5.598263
vt 9.564557 6.949058
vt 11.82244 0

usemtl greyDark

f 3/3/1 2/2/1 1/1/1
f 2/2/1 3/3/1 4/4/1
f 4/2/2 6/3/2 5/4/2
f 6/3/2 4/2/2 3/1/2
f 5/2/3 8/3/3 7/4/3
f 8/3/3 5/2/3 6/1/3
f 11/3/4 10/2/4 9/1/4
f 10/2/4 11/3/4 12/4/4
f 14/1/5 2/4/5 13/2/5
f 2/4/5 14/1/5 1/3/5
f 17/1/6 16/4/6 15/2/6
f 16/4/6 17/1/6 18/3/6
f 13/7/7 20/6/7 19/5/7
f 20/6/7 13/7/7 2/8/7
f 12/8/8 21/5/8 10/7/8
f 21/5/8 12/8/8 22/6/8
f 10/8/9 24/5/9 23/7/9
f 24/5/9 10/8/9 21/6/9
f 26/5/10 5/8/10 25/6/10
f 5/8/10 26/5/10 4/7/10
f 16/7/11 24/6/11 27/5/11
f 24/6/11 16/7/11 23/8/11
f 12/7/12 19/6/12 22/5/12
f 19/6/12 12/7/12 13/8/12
f 22/11/13 24/10/13 21/9/13
f 24/10/13 22/11/13 19/12/13
f 24/10/13 19/12/13 27/13/13
f 27/13/13 19/12/13 20/14/13
f 27/13/13 20/14/13 28/15/13
f 28/15/13 20/14/13 26/16/13
f 28/15/13 26/16/13 29/17/13
f 29/17/13 26/16/13 25/18/13
f 15/7/14 27/6/14 28/5/14
f 27/6/14 15/7/14 16/8/14
f 25/5/15 7/8/15 29/6/15
f 7/8/15 25/5/15 5/7/15
f 2/7/16 26/6/16 20/5/16
f 26/6/16 2/7/16 4/8/16
f 7/7/17 28/6/17 29/5/17
f 28/6/17 7/7/17 15/8/17
f 30/21/18 11/20/18 9/19/18
f 11/20/18 30/21/18 31/22/18
f 31/22/18 30/21/18 32/23/18
f 32/23/18 30/21/18 18/24/18
f 32/23/18 18/24/18 33/25/18
f 33/25/18 18/24/18 17/26/18
f 33/25/18 17/26/18 34/27/18
f 34/27/18 17/26/18 35/28/18
f 35/28/18 17/26/18 8/29/18
f 35/28/18 8/29/18 36/30/18
f 37/31/18 11/20/18 31/22/18
f 11/20/18 37/31/18 14/32/18
f 14/32/18 37/31/18 38/33/18
f 14/32/18 38/33/18 1/34/18
f 1/34/18 38/33/18 39/35/18
f 1/34/18 39/35/18 40/36/18
f 1/34/18 40/36/18 3/37/18
f 3/37/18 40/36/18 36/30/18
f 3/37/18 36/30/18 8/29/18
f 3/37/18 8/29/18 6/38/18
f 30/1/19 10/4/19 23/2/19
f 10/4/19 30/1/19 9/3/19
f 15/4/20 8/1/20 17/3/20
f 8/1/20 15/4/20 7/2/20
f 11/1/21 13/4/21 12/2/21
f 13/4/21 11/1/21 14/3/21
f 16/2/22 30/3/22 23/4/22
f 30/3/22 16/2/22 18/1/22

usemtl _defaultMat

f 43/3/24 42/2/23 41/1/23
f 42/3/23 43/2/24 44/1/24
f 41/3/23 46/2/25 45/1/25
f 46/3/25 41/2/23 42/1/23
f 49/3/27 48/2/26 47/1/26
f 48/3/26 49/2/27 50/1/27
f 53/3/29 52/2/28 51/1/28
f 52/3/28 53/2/29 54/1/29
f 55/3/30 54/2/29 53/1/29
f 54/3/29 55/2/30 56/1/30
f 59/3/14 58/2/14 57/1/14
f 58/3/14 59/2/14 60/1/14
f 63/3/32 62/2/31 61/1/31
f 62/3/31 63/2/32 64/1/32
f 67/3/34 66/2/33 65/1/33
f 66/3/33 67/2/34 68/1/34
f 57/3/35 61/2/35 59/1/35
f 61/3/35 57/2/35 69/1/35
f 61/3/35 69/2/35 63/1/35
f 63/3/35 69/2/35 70/1/35
f 70/3/35 69/2/35 71/1/35
f 71/3/35 69/2/35 72/1/35
f 72/3/35 69/2/35 73/1/35
f 73/3/35 69/2/35 74/1/35
f 74/3/35 69/2/35 75/1/35
f 75/3/35 69/2/35 44/1/35
f 44/3/35 69/2/35 42/1/35
f 42/3/35 69/2/35 76/1/35
f 76/3/35 46/2/35 42/1/35
f 46/3/35 76/2/35 77/1/35
f 46/3/35 77/2/35 78/1/35
f 46/3/35 78/2/35 79/1/35
f 46/3/35 79/2/35 80/1/35
f 46/3/35 80/2/35 81/1/35
f 46/3/35 81/2/35 82/1/35
f 46/3/35 82/2/35 83/1/35
f 83/3/35 82/2/35 84/1/35
f 83/3/35 84/2/35 85/1/35
f 83/3/35 85/2/35 86/1/35
f 83/3/35 86/2/35 87/1/35
f 83/3/35 87/2/35 88/1/35
f 83/3/35 88/2/35 89/1/35
f 83/3/35 89/2/35 56/1/35
f 56/3/35 89/2/35 90/1/35
f 56/3/35 90/2/35 91/1/35
f 56/3/35 91/2/35 54/1/35
f 54/3/35 91/2/35 92/1/35
f 54/3/35 92/2/35 93/1/35
f 54/3/35 93/2/35 94/1/35
f 54/3/35 94/2/35 95/1/35
f 54/3/35 95/2/35 49/1/35
f 54/3/35 49/2/35 47/1/35
f 54/3/35 47/2/35 52/1/35
f 52/3/35 47/2/35 96/1/35
f 52/3/35 96/2/35 97/1/35
f 52/3/35 97/2/35 98/1/35
f 52/3/35 98/2/35 99/1/35
f 52/3/35 99/2/35 100/1/35
f 52/3/35 100/2/35 101/1/35
f 52/3/35 101/2/35 102/1/35
f 52/3/35 102/2/35 103/1/35
f 103/3/35 102/2/35 104/1/35
f 104/3/35 102/2/35 105/1/35
f 105/3/35 102/2/35 106/1/35
f 106/3/35 102/2/35 68/1/35
f 68/3/35 102/2/35 66/1/35
f 66/3/35 102/2/35 107/1/35
f 107/3/35 102/2/35 108/1/35
f 108/3/35 102/2/35 109/1/35
f 109/3/35 102/2/35 110/1/35
f 112/3/37 105/2/36 111/1/36
f 105/3/36 112/2/37 104/1/37
f 114/3/39 79/2/38 113/1/38
f 79/3/38 114/2/39 80/1/39
f 95/3/40 116/2/41 115/1/40
f 116/3/41 95/2/40 94/1/41
f 118/3/7 69/2/7 117/1/7
f 69/3/7 118/2/7 76/1/7
f 45/3/25 83/2/42 119/1/42
f 83/3/42 45/2/25 46/1/25
f 120/3/44 76/2/43 118/1/43
f 76/3/43 120/2/44 77/1/44
f 91/3/45 122/2/46 121/1/45
f 122/3/46 91/2/45 90/1/46
f 100/3/14 123/2/14 101/1/14
f 123/3/14 100/2/14 124/1/14
f 125/3/47 80/2/39 114/1/39
f 80/3/39 125/2/47 81/1/47
f 96/3/49 126/2/48 97/1/48
f 126/3/48 96/2/49 127/1/49
f 129/3/51 110/2/50 128/1/50
f 110/3/50 129/2/51 109/1/51
f 45/3/52 118/2/52 41/1/52
f 118/3/52 45/2/52 120/1/52
f 120/3/52 45/2/52 130/1/52
f 130/3/52 45/2/52 113/1/52
f 113/3/52 45/2/52 114/1/52
f 114/3/52 45/2/52 125/1/52
f 125/3/52 45/2/52 131/1/52
f 131/3/52 45/2/52 119/1/52
f 131/3/52 119/2/52 132/1/52
f 132/3/52 119/2/52 133/1/52
f 133/3/52 119/2/52 134/1/52
f 134/3/52 119/2/52 135/1/52
f 135/3/52 119/2/52 136/1/52
f 136/3/52 119/2/52 137/1/52
f 137/3/52 119/2/52 55/1/52
f 137/3/52 55/2/52 122/1/52
f 122/3/52 55/2/52 121/1/52
f 121/3/52 55/2/52 53/1/52
f 121/3/52 53/2/52 138/1/52
f 138/3/52 53/2/52 139/1/52
f 139/3/52 53/2/52 116/1/52
f 116/3/52 53/2/52 115/1/52
f 115/3/52 53/2/52 50/1/52
f 50/3/52 53/2/52 48/1/52
f 48/3/52 53/2/52 51/1/52
f 48/3/52 51/2/52 127/1/52
f 127/3/52 51/2/52 126/1/52
f 126/3/52 51/2/52 140/1/52
f 140/3/52 51/2/52 141/1/52
f 141/3/52 51/2/52 124/1/52
f 124/3/52 51/2/52 123/1/52
f 123/3/52 51/2/52 142/1/52
f 142/3/52 51/2/52 143/1/52
f 142/3/52 143/2/52 112/1/52
f 142/3/52 112/2/52 111/1/52
f 142/3/52 111/2/52 144/1/52
f 142/3/52 144/2/52 67/1/52
f 142/3/52 67/2/52 65/1/52
f 142/3/52 65/2/52 145/1/52
f 142/3/52 145/2/52 146/1/52
f 142/3/52 146/2/52 129/1/52
f 142/3/52 129/2/52 128/1/52
f 62/3/52 58/2/52 60/1/52
f 58/3/52 62/2/52 117/1/52
f 117/3/52 62/2/52 64/1/52
f 117/3/52 64/2/52 147/1/52
f 117/3/52 147/2/52 148/1/52
f 117/3/52 148/2/52 149/1/52
f 117/3/52 149/2/52 150/1/52
f 117/3/52 150/2/52 151/1/52
f 117/3/52 151/2/52 152/1/52
f 117/3/52 152/2/52 43/1/52
f 117/3/52 43/2/52 41/1/52
f 117/3/52 41/2/52 118/1/52
f 97/3/48 140/2/53 98/1/53
f 140/3/53 97/2/48 126/1/48
f 51/3/28 103/2/54 143/1/54
f 103/3/54 51/2/28 52/1/28
f 70/3/55 64/2/32 63/1/32
f 64/3/32 70/2/55 147/1/55
f 144/3/56 68/2/34 67/1/34
f 68/3/34 144/2/56 106/1/56
f 98/3/53 141/2/57 99/1/57
f 141/3/57 98/2/53 140/1/53
f 92/3/58 121/2/45 138/1/58
f 121/3/45 92/2/58 91/1/45
f 61/3/31 60/2/59 59/1/59
f 60/3/59 61/2/31 62/1/31
f 151/3/61 75/2/60 152/1/60
f 75/3/60 151/2/61 74/1/61
f 94/3/41 139/2/62 116/1/41
f 139/3/62 94/2/41 93/1/62
f 150/3/63 74/2/61 151/1/61
f 74/3/61 150/2/63 73/1/63
f 72/3/65 148/2/64 71/1/64
f 148/3/64 72/2/65 149/1/65
f 145/3/67 108/2/66 146/1/66
f 108/3/66 145/2/67 107/1/67
f 99/3/57 124/2/68 100/1/68
f 124/3/68 99/2/57 141/1/57
f 89/3/69 136/2/70 137/1/69
f 136/3/70 89/2/69 88/1/70
f 47/3/26 127/2/49 96/1/49
f 127/3/49 47/2/26 48/1/26
f 71/3/64 147/2/55 70/1/55
f 147/3/55 71/2/64 148/1/64
f 85/3/71 132/2/72 133/1/71
f 132/3/72 85/2/71 84/1/72
f 111/3/36 106/2/56 144/1/56
f 106/3/56 111/2/36 105/1/36
f 113/3/38 78/2/73 130/1/73
f 78/3/73 113/2/38 79/1/38
f 87/3/74 134/2/75 135/1/74
f 134/3/75 87/2/74 86/1/75
f 130/3/73 77/2/44 120/1/44
f 77/3/44 130/2/73 78/1/73
f 143/3/54 104/2/37 112/1/37
f 104/3/37 143/2/54 103/1/54
f 93/3/62 138/2/58 139/1/62
f 138/3/58 93/2/62 92/1/58
f 128/3/7 102/2/7 142/1/7
f 102/3/7 128/2/7 110/1/7
f 86/3/75 133/2/71 134/1/75
f 133/3/71 86/2/75 85/1/71
f 73/3/63 149/2/65 72/1/65
f 149/3/65 73/2/63 150/1/63
f 65/3/33 107/2/67 145/1/67
f 107/3/67 65/2/33 66/1/33
f 152/3/60 44/2/24 43/1/24
f 44/3/24 152/2/60 75/1/60
f 119/3/18 56/2/18 55/1/18
f 56/3/18 119/2/18 83/1/18
f 146/3/66 109/2/51 129/1/51
f 109/3/51 146/2/66 108/1/66
f 49/3/27 115/2/40 50/1/27
f 115/3/40 49/2/27 95/1/40
f 88/3/70 135/2/74 136/1/70
f 135/3/74 88/2/70 87/1/74
f 131/3/76 81/2/47 125/1/47
f 81/3/47 131/2/76 82/1/76
f 90/3/13 137/2/13 122/1/13
f 137/3/13 90/2/13 89/1/13
f 84/3/72 131/2/76 132/1/72
f 131/3/76 84/2/72 82/1/76
f 117/3/18 101/2/18 123/1/18
f 101/3/18 117/2/18 69/1/18
f 32/3/18 37/2/18 31/1/18
f 37/3/18 32/2/18 33/1/18
f 37/3/18 33/2/18 38/1/18
f 38/3/18 33/2/18 58/1/18
f 58/3/18 33/2/18 34/1/18
f 38/3/18 58/2/18 142/1/18
f 142/3/18 58/2/18 123/1/18
f 123/3/18 58/2/18 117/1/18
f 58/3/18 34/2/18 57/1/18
f 142/3/18 39/2/18 38/1/18
f 39/3/18 142/2/18 102/1/18
f 39/3/18 102/2/18 101/1/18
f 39/3/18 101/2/18 69/1/18
f 39/3/18 69/2/18 57/1/18
f 39/3/18 57/2/18 34/1/18
f 39/3/18 34/2/18 35/1/18
f 39/3/18 35/2/18 40/1/18
f 40/3/18 35/2/18 36/1/18

