# Created by Kenney (www.kenney.nl)

mtllib pumpkin.mtl

g pumpkin

v -0.01284242 0.2291429 -0.01284242
v 0.01284242 0.2291429 -0.01284242
v -0.01284242 0.2291429 0.01284242
v 0.01284242 0.2291429 0.01284241
v -0.01781715 0.1724429 -0.01781715
v 0.01781715 0.1724429 -0.01781715
v 0.01781715 0.1724429 0.01781715
v -0.01781715 0.1724429 0.01781715
v -0.02790907 0.1481429 -0.02790907
v 0.02790907 0.1481429 -0.02790907
v -0.02790907 0.1481429 0.02790907
v 0.02790907 0.1481429 0.02790907
v -0.0703929 0.1481429 -7.36541E-11
v 2.52669E-15 0.1481429 0.0703929
v 0.0703929 0.1481429 -2.17167E-09
v -1.082867E-15 0.1481429 -0.0703929
v 0.06920519 0 0.1902598
v 0.1154706 0.03089333 0.1133262
v 0.1061232 2.413891E-15 0.1061232
v 0.1114846 0.01693426 0.1095299
v -0.119668 0.1161695 -0.119668
v -0.119668 0.05138266 -0.119668
v -0.08027802 0.1295521 -0.2094385
v -0.08027802 0.05730189 -0.2094385
v 0.08027802 0.1295521 0.2094385
v 0.06920519 0.186854 0.1902598
v 0.1093933 0.1487682 0.1119423
v 0.1061232 0.165869 0.1061232
v 0.03999596 0.1763606 -0.1396679
v 0.06920519 0.186854 -0.1902598
v 0.0939652 0.1635597 -0.0939652
v 0.1061232 0.165869 -0.1061232
v -0.1095299 0.01693426 0.1114846
v -0.1133262 0.03089333 0.1154706
v -0.08027802 0.05730189 0.2094385
v -0.119668 0.05138266 0.119668
v -0.1129292 0.1365138 -0.1157093
v -0.1093933 0.1487682 -0.1119423
v -0.1902598 0.186854 -0.06920519
v -0.1061232 0.165869 -0.1061232
v -0.08027802 0.1295521 0.2094385
v -0.119668 0.1161695 0.119668
v -0.06920518 0.186854 0.1902598
v -0.1157093 0.1365138 0.1129292
v -0.0703929 0.1481429 0.0703929
v -0.0703929 0.1481429 -0.0703929
v 0.0703929 0.1481429 -0.0703929
v 0.0703929 0.1481429 0.07039289
v -0.06920518 0 0.1902598
v 0.08027802 0.05730189 0.2094385
v 0.1061232 4.021272E-15 -0.1061232
v 0.1095299 0.01693426 -0.1114846
v 0.06920519 3.214762E-15 -0.1902598
v 0.08027802 0.05730189 -0.2094385
v -0.03999596 0.1763606 0.1396679
v 0.03999596 0.1763606 0.1396679
v 0.0939652 0.1635597 0.09396519
v 0.1157093 0.1365138 -0.1129292
v 0.119668 0.1161695 -0.119668
v 0.08027802 0.1295521 -0.2094385
v -0.1396679 0.1763606 -0.03999596
v -0.0939652 0.1635597 -0.0939652
v -0.0939652 0.1635597 0.0939652
v -0.1902598 1.607381E-15 -0.06920519
v -0.1061232 2.413891E-15 -0.1061232
v -0.2094385 0.05730189 -0.08027802
v -0.1114846 0.01693426 -0.1095299
v -0.1061232 0.165869 0.1061232
v -0.1119423 0.1487682 0.1093933
v -0.2094385 0.1295521 -0.08027802
v -0.1902598 1.607381E-15 0.06920519
v -0.1061232 8.065104E-16 0.1061232
v -0.06920519 3.214762E-15 -0.1902598
v 0.1902598 4.822142E-15 0.06920519
v 0.1902598 4.822142E-15 -0.06920519
v -0.1154706 0.03089333 -0.1133262
v 0.1133262 0.03089333 -0.1154706
v 0.119668 0.05138266 -0.119668
v 0.1119423 0.1487682 -0.1093933
v 0.119668 0.05138266 0.119668
v 0.119668 0.1161695 0.119668
v 0.1129292 0.1365138 0.1157093
v -0.2094385 0.05730189 0.08027802
v -0.2094385 0.1295521 0.08027802
v 0.2094385 0.05730189 0.08027802
v 0.2094385 0.1295521 0.08027802
v 0.2094385 0.05730189 -0.08027802
v 0.2094385 0.1295521 -0.08027802
v 0.1396679 0.1763606 -0.03999596
v 0.1902598 0.186854 -0.06920519
v 0.1396679 0.1763606 0.03999596
v 0.1902598 0.186854 0.06920519
v -0.1396679 0.1763606 0.03999596
v -0.1902598 0.186854 0.06920519
v -0.06920519 0.186854 -0.1902598
v -0.03999596 0.1763606 -0.1396679

vn 0 1 0
vn 0 0.08740209 -0.9961731
vn 0 0.08740209 0.9961731
vn -0.9961731 0.08740209 0
vn 0 0.3835439 -0.9235226
vn 0.9961731 0.08740209 0
vn -0.9235226 0.3835439 0
vn 0 0.3835439 0.9235226
vn 0.9235226 0.3835439 0
vn 0.8645365 -0.310391 0.3952644
vn 0.8629384 -0.3214937 0.389845
vn 0.8586115 -0.347632 0.3767469
vn -0.9157243 0 -0.4018072
vn 0.8962938 0.2998174 0.3267524
vn 0.9022248 0.2832024 0.3252487
vn 0.8925189 0.3099566 0.3276234
vn -0.0002673883 0.9628596 0.2700026
vn 0.04023926 0.9734934 0.2251477
vn -0.05509377 0.942688 0.3290958
vn -0.8670662 -0.3127293 0.38781
vn -0.8510717 -0.3445793 0.3961592
vn -0.8685073 -0.3097195 0.387
vn -0.3294294 0.3159054 -0.889764
vn -0.2988084 0.3581388 -0.8845621
vn -0.3387445 0.3026277 -0.8908808
vn -0.8917843 0.2888792 0.3482378
vn -0.8908808 0.3026277 0.3387445
vn -0.889764 0.3159054 0.3294295
vn -0.152612 0.8900709 0.4295152
vn 0 -0.3173904 0.948295
vn 0.8743052 -0.2973483 -0.383633
vn 0.8670662 -0.3127293 -0.38781
vn 0.8685073 -0.3097195 -0.387
vn 0 0.926118 -0.3772341
vn -0.0002673903 0.9628596 -0.2700026
vn -0.05509377 0.942688 -0.3290958
vn 0.04023926 0.9734934 -0.2251477
vn 0.889764 0.3159054 -0.3294294
vn 0.8908808 0.3026277 -0.3387445
vn 0.8917844 0.2888792 -0.3482378
vn 0.2700026 0.9628596 0.0002673883
vn 0.3290958 0.942688 0.05509377
vn 0.4295152 0.8900709 0.152612
vn 0 0.3173904 0.948295
vn -0.9157243 0 0.4018072
vn 0.05509376 0.942688 -0.3290958
vn 0.152612 0.8900709 -0.4295152
vn 0.0002673843 0.9628596 -0.2700026
vn -0.383633 -0.2973483 -0.8743052
vn -0.387 -0.3097195 -0.8685073
vn -0.38781 -0.3127293 -0.8670662
vn -0.8845621 0.3581388 0.2988084
vn 0.2251477 0.9734934 -0.04023926
vn -0.3482377 0.2888792 -0.8917843
vn -0.04023927 0.9734934 -0.2251477
vn 0 -1 0
vn -0.3961592 -0.3445793 -0.8510717
vn 0.8510717 -0.3445793 -0.3961592
vn 0.8845621 0.3581388 -0.2988084
vn 0.9157243 0 -0.4018072
vn 0.8657675 -0.3010893 0.3997398
vn -0.152612 0.8900709 -0.4295152
vn 0.9157243 0 0.4018072
vn 0 0.9791598 -0.2030909
vn 0.8746615 0.3541303 0.3309971
vn -0.4018072 0 0.9157243
vn 1 0 0
vn 0.3309971 0.3541302 -0.8746614
vn 0.3267524 0.2998174 -0.8962938
vn 0.3276235 0.3099566 -0.8925189
vn -1 0 0
vn -0.2030909 0.9791598 0
vn 0.3772341 0.926118 0
vn -0.3290958 0.942688 -0.05509376
vn -0.2700026 0.9628596 -0.0002673908
vn -0.2251477 0.9734934 0.04023926
vn -0.4295152 0.8900709 0.152612
vn -0.3290958 0.942688 0.05509377
vn -0.2700026 0.9628596 0.0002673883
vn -0.3772341 0.926118 0
vn 0.948295 0.3173904 0
vn -0.3267524 0.2998174 0.8962938
vn -0.3252488 0.2832024 0.9022248
vn -0.3276235 0.3099566 0.8925189
vn -0.948295 -0.3173904 0
vn 0 0 -1
vn -0.4018072 0 -0.9157243
vn -0.3767469 -0.347632 0.8586115
vn -0.3952644 -0.310391 0.8645365
vn -0.389845 -0.3214937 0.8629384
vn -0.9022248 0.2832024 -0.3252488
vn -0.8925189 0.3099566 -0.3276235
vn -0.8962938 0.2998174 -0.3267524
vn 0.4018072 0 0.9157243
vn 0 0.9791598 0.2030909
vn -0.2251477 0.9734934 -0.04023926
vn 0.3294294 0.3159054 0.889764
vn 0.2988084 0.3581388 0.8845621
vn 0.3387445 0.3026277 0.8908808
vn 0.948295 -0.3173904 0
vn -0.8629384 -0.3214937 -0.389845
vn -0.8645365 -0.310391 -0.3952645
vn -0.8657675 -0.3010893 -0.3997399
vn -0.948295 0.3173904 0
vn -0.4295152 0.8900709 -0.152612
vn 0.2251477 0.9734934 0.04023926
vn 0.2700026 0.9628596 -0.0002673883
vn 0.3290958 0.942688 -0.05509377
vn 0.3252488 0.2832024 -0.9022248
vn -0.8746614 0.3541302 -0.3309971
vn 0 0.3173904 -0.948295
vn -0.8743052 -0.2973483 0.3836331
vn 0 0 1
vn 0.4295152 0.8900709 -0.152612
vn 0.152612 0.8900709 0.4295152
vn 0.05509377 0.942688 0.3290958
vn 0.0002673883 0.9628596 0.2700026
vn 0.3952644 -0.310391 -0.8645365
vn 0.3997399 -0.3010893 -0.8657675
vn 0.389845 -0.3214937 -0.8629384
vn 0 -0.3173904 -0.948295
vn 0.383633 -0.2973483 0.8743052
vn 0.38781 -0.3127293 0.8670662
vn 0.387 -0.3097195 0.8685073
vn -0.3997399 -0.3010893 0.8657675
vn -0.8586115 -0.347632 -0.3767469
vn 0.3482377 0.2888792 0.8917843
vn 0.3767469 -0.347632 -0.8586115
vn 0.3961592 -0.3445793 0.8510717
vn 0.2030909 0.9791598 0
vn 0.4018072 0 -0.9157243
vn -0.04023926 0.9734934 0.2251477
vn -0.3309971 0.3541302 0.8746614
vn 0 0.926118 0.3772341

vt -0.5056069 0.5056069
vt 0.5056069 0.5056069
vt -0.5056069 -0.5056069
vt 0.5056069 -0.5056069
vt 0.7014627 6.701799
vt -0.7014627 6.701799
vt 0.5056069 8.942658
vt -0.5056069 8.942658
vt 0.7014627 6.701799
vt 1.098782 4.964919
vt -1.098782 4.964919
vt 0.7014627 6.000836
vt -0.7014627 6.000836
vt -0.7014627 6.701799
vt -0.5056069 8.942658
vt 0.7014627 6.000836
vt -1.098783 4.964919
vt -1.098782 1.098782
vt -1.098782 -1.098782
vt -2.771374 2.899834E-09
vt 3.285825E-14 -2.771374
vt 1.098782 -1.098782
vt 2.771374 8.549902E-08
vt 2.398517E-14 2.771374
vt 1.098782 1.098782
vt -0.7014627 6.000836
vt -5.764503 1.913627
vt -2.259004 3.210803
vt -2.147186 1.913627
vt -2.185193 2.624677
vt -2.421238 4.573603
vt -2.421238 2.022939
vt -6.280773 5.100477
vt -6.280773 2.25598
vt -6.685116 3.257697
vt -6.122636 5.609979
vt -2.685416 4.046529
vt -2.513555 4.748532
vt 2.517509 6.587839
vt 3.99997 8.394134
vt 4.292573 4.384354
vt 4.847981 4.781871
vt 2.159419 2.61122
vt 2.238614 3.196643
vt 6.141656 4.304179
vt 2.283069 4.055935
vt 2.754269 2.962774
vt 2.669845 3.479506
vt 6.224601 5.085474
vt 2.621193 4.200599
vt 6.531134 3.166109
vt 2.674875 2.615772
vt 5.986361 5.522555
vt 2.484432 3.452397
vt -2.771374 -2.771374
vt -2.771374 2.771374
vt 2.771374 2.771374
vt 2.771374 -2.771374
vt 1.683557 5.808765
vt -0.3572441 8.245973
vt 2.247325 7.140342
vt 2.724613 2.377426
vt -2.724614 2.377426
vt 3.160552 4.756412
vt -3.160552 4.756412
vt 2.147186 1.636827
vt 2.286586 2.335115
vt 5.764503 1.636827
vt 6.280773 3.999682
vt 2.771374 4.766798
vt 4.129936E-08 4.766798
vt 1.574644 7.71174
vt -1.574644 7.71174
vt -2.771374 4.766798
vt -2.517509 6.587839
vt -4.292573 4.384354
vt -3.99997 8.394134
vt -4.847981 4.781871
vt 2.484432 3.452397
vt -3.160552 2.219679
vt -2.724614 4.598665
vt 3.160552 2.219679
vt 2.724613 4.598665
vt 6.280773 5.100477
vt 6.280773 2.25598
vt 2.421238 4.573603
vt 2.421238 2.022939
vt 1.683557 5.808765
vt -0.357244 8.245973
vt 2.669845 3.479505
vt 7.490543 -2.724614
vt 4.178078 -4.178078
vt 7.490543 2.724614
vt 4.178078 4.178078
vt 2.724614 7.490543
vt 2.724613 -7.490543
vt -2.724614 7.490543
vt -2.724614 -7.490543
vt -4.178078 4.178078
vt -4.178078 -4.178078
vt -7.490543 -2.724614
vt -7.490543 2.724614
vt 2.283069 4.055935
vt -6.161291 4.05597
vt -2.302458 3.811589
vt -5.65851 1.690209
vt -2.145051 2.965668
vt 0.3572441 8.245973
vt -1.683557 5.808765
vt -2.247325 7.140342
vt -2.421239 4.573603
vt -2.421239 2.02294
vt 2.724614 8.828468
vt 1.574644 6.794271
vt -2.724613 8.828468
vt -1.574644 6.794271
vt -2.597575 3.498616
vt -2.687013 2.982729
vt -6.593252 2.689655
vt -2.738878 2.126271
vt -3.160552 2.25598
vt -3.160552 5.100477
vt 3.160552 2.25598
vt 3.160552 5.100477
vt -1.574644 6.794271
vt -2.724614 8.828468
vt -1.574644 7.71174
vt 2.89976E-09 4.766798
vt 4.292572 4.384354
vt 2.517508 6.587839
vt 4.84798 4.781871
vt 3.99997 8.394134
vt -8.54986E-08 4.766798
vt 2.771374 4.766798
vt 2.724614 4.598665
vt -2.685416 4.046529
vt 2.724614 2.377426
vt -2.147186 1.913627
vt -2.185192 2.624677
vt 2.669845 3.479505
vt -2.145051 2.965668
vt -2.302458 3.811589
vt 2.247325 7.140342
vt 2.286585 2.335115
vt -6.355664E-14 4.766798

usemtl green

f 3/3/1 2/2/1 1/1/1
f 2/2/1 3/3/1 4/4/1
f 1/7/2 6/6/2 5/5/2
f 6/6/2 1/7/2 2/8/2
f 4/7/3 8/6/3 7/5/3
f 8/6/3 4/7/3 3/8/3
f 3/7/4 5/6/4 8/9/4
f 5/6/4 3/7/4 1/8/4
f 5/12/5 10/11/5 9/10/5
f 10/11/5 5/12/5 6/13/5
f 6/5/6 4/15/6 7/14/6
f 4/15/6 6/5/6 2/7/6
f 8/16/7 9/11/7 11/10/7
f 9/11/7 8/16/7 5/13/7
f 7/12/8 11/17/8 12/10/8
f 11/17/8 7/12/8 8/13/8
f 13/20/1 11/19/1 9/18/1
f 11/19/1 13/20/1 14/21/1
f 11/19/1 14/21/1 12/22/1
f 12/22/1 14/21/1 15/23/1
f 9/18/1 16/24/1 13/20/1
f 16/24/1 9/18/1 10/25/1
f 16/24/1 10/25/1 15/23/1
f 15/23/1 10/25/1 12/22/1
f 10/10/9 7/26/9 12/11/9
f 7/26/9 10/10/9 6/12/9

usemtl orange

f 19/29/12 18/28/11 17/27/10
f 18/28/11 19/29/12 20/30/12
f 23/33/13 22/32/13 21/31/13
f 22/32/13 23/33/13 24/34/13
f 27/37/16 26/36/15 25/35/14
f 26/36/15 27/37/16 28/38/15
f 31/41/19 30/40/18 29/39/17
f 30/40/18 31/41/19 32/42/18
f 35/45/22 34/44/21 33/43/20
f 34/44/21 35/45/22 36/46/21
f 39/49/25 38/48/24 37/47/23
f 38/48/24 39/49/25 40/50/24
f 43/53/27 42/52/26 41/51/26
f 42/52/26 43/53/27 44/54/28
f 14/21/1 13/20/1 45/55/1
f 16/24/1 46/56/1 13/20/1
f 15/23/1 47/57/1 16/24/1
f 48/58/1 15/23/1 14/21/1
f 31/61/19 29/60/17 47/59/29
f 50/64/30 49/63/30 17/62/30
f 49/63/30 50/64/30 35/65/30
f 53/68/31 52/67/32 51/66/31
f 52/67/32 53/68/31 54/69/33
f 55/72/34 14/71/34 45/70/34
f 14/71/34 55/72/34 56/73/34
f 14/71/34 56/73/34 48/74/34
f 26/77/37 57/76/36 56/75/35
f 57/76/36 26/77/37 28/78/37
f 59/52/40 30/53/39 58/79/38
f 30/53/39 59/52/40 60/51/40
f 46/59/43 62/61/42 61/60/41
f 25/82/44 43/81/44 41/80/44
f 43/81/44 25/82/44 26/83/44
f 42/86/45 35/85/45 41/84/45
f 35/85/45 42/86/45 36/87/45
f 55/89/48 45/88/47 63/61/46
f 66/69/50 65/66/49 64/68/49
f 65/66/49 66/69/50 67/67/51
f 68/50/52 44/47/28 43/49/27
f 44/47/28 68/50/52 69/90/52
f 61/39/41 40/42/53 39/40/53
f 40/42/53 61/39/41 62/41/42
f 70/51/54 37/79/23 21/52/54
f 37/79/23 70/51/54 39/53/25
f 43/40/55 63/41/46 68/42/55
f 63/41/46 43/40/55 55/39/48
f 64/93/56 72/92/56 71/91/56
f 72/92/56 64/93/56 65/94/56
f 72/92/56 65/94/56 73/95/56
f 72/92/56 73/95/56 49/96/56
f 49/96/56 73/95/56 53/97/56
f 49/96/56 53/97/56 17/98/56
f 17/98/56 53/97/56 51/99/56
f 17/98/56 51/99/56 19/100/56
f 19/100/56 51/99/56 74/101/56
f 74/101/56 51/99/56 75/102/56
f 66/45/50 76/44/57 67/43/51
f 76/44/57 66/45/50 22/103/57
f 54/45/33 77/44/58 52/43/32
f 77/44/58 54/45/33 78/103/58
f 79/48/59 30/49/39 32/50/59
f 30/49/39 79/48/59 58/47/38
f 54/85/60 59/86/60 78/87/60
f 59/86/60 54/85/60 60/84/60
f 17/106/10 80/105/61 50/104/61
f 80/105/61 17/106/10 18/107/11
f 57/110/36 48/109/62 56/108/35
f 50/34/63 81/111/63 25/33/63
f 81/111/63 50/34/63 80/112/63
f 26/115/64 55/114/64 43/113/64
f 55/114/64 26/115/64 56/116/64
f 25/119/14 82/118/65 27/117/16
f 82/118/65 25/119/14 81/120/65
f 42/31/66 83/34/66 36/32/66
f 83/34/66 42/31/66 84/33/66
f 87/123/67 86/122/67 85/121/67
f 86/122/67 87/123/67 88/124/67
f 58/118/68 88/119/69 59/120/68
f 88/119/69 58/118/68 79/117/70
f 70/122/71 83/123/71 84/124/71
f 83/123/71 70/122/71 66/121/71
f 91/114/72 90/126/72 89/125/72
f 90/126/72 91/114/72 92/113/72
f 93/127/73 46/70/73 61/72/73
f 46/70/73 93/127/73 45/74/73
f 46/70/73 45/74/73 13/128/73
f 28/131/76 91/130/75 57/129/74
f 91/130/75 28/131/76 92/132/76
f 89/108/79 31/110/78 47/109/77
f 15/133/80 89/127/80 47/74/80
f 89/127/80 15/133/80 48/134/80
f 89/127/80 48/134/80 91/72/80
f 88/82/81 92/81/81 86/80/81
f 92/81/81 88/82/81 90/135/81
f 69/136/84 94/36/83 84/35/82
f 94/36/83 69/136/84 68/38/83
f 66/65/85 71/137/85 83/64/85
f 71/137/85 66/65/85 64/63/85
f 24/123/86 60/122/86 54/121/86
f 60/122/86 24/123/86 23/124/86
f 66/85/87 21/86/87 22/87/87
f 21/86/87 66/85/87 70/84/87
f 33/139/88 71/27/89 72/138/88
f 71/27/89 33/139/88 34/28/90
f 95/36/91 38/136/92 40/38/91
f 38/136/92 95/36/91 23/35/93
f 85/85/94 81/86/94 80/87/94
f 81/86/94 85/85/94 86/84/94
f 96/125/95 30/113/95 95/126/95
f 30/113/95 96/125/95 29/114/95
f 89/75/79 32/78/96 31/76/78
f 32/78/96 89/75/79 90/77/96
f 92/49/99 27/140/98 82/47/97
f 27/140/98 92/49/99 28/50/98
f 74/63/100 87/64/100 85/65/100
f 87/64/100 74/63/100 75/137/100
f 22/142/103 73/106/102 76/141/101
f 73/106/102 22/142/103 24/104/103
f 94/135/104 70/80/104 84/82/104
f 70/80/104 94/135/104 39/81/104
f 91/89/75 48/59/105 57/143/74
f 68/78/106 93/75/107 94/77/106
f 93/75/107 68/78/106 63/76/108
f 79/136/70 90/36/109 88/35/69
f 90/36/109 79/136/70 32/38/109
f 23/119/93 37/118/110 38/117/92
f 37/118/110 23/119/93 21/120/110
f 23/82/111 30/81/111 60/80/111
f 30/81/111 23/82/111 95/135/111
f 33/144/20 49/68/112 35/69/22
f 49/68/112 33/144/20 72/66/112
f 50/123/113 41/122/113 35/121/113
f 41/122/113 50/123/113 25/124/113
f 45/109/114 93/108/107 63/110/108
f 96/108/117 62/110/116 46/109/115
f 77/141/120 87/104/119 75/106/118
f 87/104/119 77/141/120 78/142/119
f 24/64/121 53/63/121 73/137/121
f 53/63/121 24/64/121 54/65/121
f 74/68/122 20/67/123 19/66/122
f 20/67/123 74/68/122 85/69/124
f 34/141/90 83/104/125 71/106/89
f 83/104/125 34/141/90 36/142/125
f 67/139/126 73/27/102 65/138/126
f 73/27/102 67/139/126 76/28/101
f 86/51/127 82/79/97 81/52/127
f 82/79/97 86/51/127 92/53/99
f 52/139/128 75/27/118 51/138/128
f 75/27/118 52/139/128 77/28/120
f 85/45/124 18/44/129 20/43/123
f 18/44/129 85/45/124 80/103/129
f 93/125/130 39/113/130 94/126/130
f 39/113/130 93/125/130 61/114/130
f 59/31/131 87/34/131 78/32/131
f 87/34/131 59/31/131 88/33/131
f 62/76/116 95/77/132 40/78/132
f 95/77/132 62/76/116 96/75/117
f 44/118/133 84/119/82 42/120/133
f 84/119/82 44/118/133 69/117/84
f 16/145/134 96/127/134 46/74/134
f 96/127/134 16/145/134 29/72/134
f 29/72/134 16/145/134 47/70/134

