# Created by Kenney (www.kenney.nl)

mtllib rollingPin.mtl

g rollingPin

v -0.3568278 -0.02895115 -0.01671496
v -0.3568278 -0.02895115 0.01671496
v -0.3068278 -0.02244275 -0.01295733
v -0.3068278 -0.02244275 0.01295733
v -0.3068278 0.02244276 0.01295733
v -0.3068278 0.02244276 -0.01295733
v -0.2468278 0.03400418 0.01963232
v -0.2468278 0.03400418 -0.01963232
v -0.4068278 5.516088E-09 0.02591466
v -0.4068278 -0.02244275 0.01295733
v -0.4068278 0.02244276 0.01295733
v -0.4068278 0.02244276 -0.01295733
v -0.4068278 -0.02244275 -0.01295733
v -0.4068278 6.60831E-09 -0.02591466
v -0.3568278 6.021625E-09 -0.03342991
v -0.3068278 5.118197E-09 -0.02591466
v -0.3568278 0.02895116 -0.01671496
v -0.2268278 -0.03400417 -0.01963232
v -0.2268278 4.207433E-09 -0.03926464
v -0.2468278 -0.03400417 -0.01963232
v -0.2468278 4.505455E-09 -0.03926464
v -0.3568278 0.02895116 0.01671496
v -0.3568278 4.61266E-09 0.03342991
v -0.3068278 4.025976E-09 0.02591466
v -0.2268278 0.03400418 -0.01963232
v -0.2468278 -0.03400417 0.01963232
v 0.2468278 -0.03400418 0.01963232
v 0.2468278 -4.505452E-09 0.03926464
v 0.3068278 -0.02244276 0.01295733
v 0.3068278 -5.118185E-09 0.02591466
v 0.4068278 -6.608298E-09 0.02591466
v 0.4068278 0.02244275 0.01295733
v 0.4068278 -0.02244276 0.01295733
v 0.4068278 0.02244275 -0.01295733
v 0.4068278 -0.02244276 -0.01295733
v 0.4068278 -5.516077E-09 -0.02591466
v 0.3568278 -6.021615E-09 0.03342991
v 0.3568278 0.02895115 0.01671496
v 0.3568278 -0.02895116 -0.01671496
v 0.3568278 -4.612649E-09 -0.03342991
v 0.3068278 -0.02244276 -0.01295733
v 0.3068278 -4.025964E-09 -0.02591466
v 0.3568278 -0.02895116 0.01671496
v -0.2268278 2.552552E-09 0.03926464
v -0.2468278 2.850574E-09 0.03926464
v -0.2268278 0.03400418 0.01963232
v 0.2468278 -0.03400418 -0.01963232
v 0.2468278 -2.850572E-09 -0.03926464
v 0.2268278 -0.03400418 0.01963232
v 0.2268278 -4.20743E-09 0.03926464
v -0.2268278 -0.03400417 0.01963232
v 0.3068278 0.02244275 0.01295733
v 0.3068278 0.02244275 -0.01295733
v 0.3568278 0.02895115 -0.01671496
v 0.2268278 0.03400417 0.01963232
v 0.2268278 0.03400417 -0.01963232
v 0.2468278 0.03400417 0.01963232
v 0.2468278 0.03400417 -0.01963232
v 0.2268278 -0.03400418 -0.01963232
v 0.2268278 -2.552549E-09 -0.03926464
v 0.2268278 -0.07014806 0.0405
v -0.2268278 -0.07014806 0.0405
v 0.2268278 -5.086937E-09 0.081
v -0.2268278 1.673043E-09 0.081
v -0.2268278 0.07014806 0.0405
v -0.2268278 0.07014806 -0.0405
v 0.2268278 0.07014806 0.0405
v 0.2268278 0.07014806 -0.0405
v 0.2268278 -1.673043E-09 -0.081
v -0.2268278 5.086937E-09 -0.081
v 0.2268278 -0.07014806 -0.0405
v -0.2268278 -0.07014806 -0.0405

vn 0.129079 -0.9916344 0
vn -0.1892097 0.9819368 0
vn -1 0 0
vn -0.129079 -0.4958171 -0.8587806
vn 0.129079 0.4958172 -0.8587806
vn 0 -0.5 -0.8660254
vn -0.129079 0.9916344 0
vn 0.129079 -0.4958172 0.8587806
vn 0 0.5 -0.8660254
vn 0.129079 0.9916344 0
vn -0.1892097 -0.9819368 0
vn -0.129079 0.4958171 0.8587806
vn 0.1892097 -0.4909683 0.8503821
vn 0.129079 0.4958171 0.8587806
vn 1 0 0
vn -0.1892097 -0.4909683 -0.8503821
vn -0.129079 -0.4958172 0.8587806
vn 0 0.5 0.8660254
vn 0.1892097 -0.4909683 -0.8503821
vn -0.1892097 0.4909683 0.8503821
vn 0 -0.5 0.8660254
vn -0.129079 -0.9916344 0
vn 0.129079 -0.4958171 -0.8587806
vn 0 1 0
vn -0.1892097 -0.4909683 0.8503821
vn -0.1892097 0.4909683 -0.8503821
vn 0.1892097 0.9819368 0
vn 0.1892097 -0.9819368 0
vn 0.1892097 0.4909683 -0.8503821
vn -0.129079 0.4958172 -0.8587806
vn 0 -1 0
vn 0.1892097 0.4909683 0.8503821

vt 0.6580715 -14.07794
vt -0.6580669 -14.07794
vt 0.5101331 -12.09283
vt -0.5101292 -12.09283
vt 0.5101298 -11.69445
vt -0.5101324 -11.69445
vt 0.7729249 -9.288795
vt -0.772927 -9.288795
vt 1.020262 -2.150016E-08
vt 0.5101311 -0.8835731
vt 0.5101312 0.8835731
vt -0.5101311 0.8835731
vt -0.5101312 -0.8835731
vt -1.020262 2.150067E-08
vt 13.79448 0.3681234
vt 13.69667 1.680622
vt 15.76311 0.6631812
vt 15.68728 1.680622
vt 12.0973 0.3899915
vt 12.02148 1.407432
vt 14.08792 0.3899915
vt 13.9901 1.70249
vt 8.930229 -0.7729258
vt 8.930229 0.7729261
vt 9.71763 -0.7729258
vt 9.71763 0.7729262
vt 0.5101286 -15.7688
vt -0.5101337 -15.7688
vt 0.6580669 -13.78369
vt -0.6580714 -13.78369
vt -13.9901 -1.70249
vt -14.08792 -0.389991
vt -12.02148 -1.407432
vt -12.0973 -0.3899911
vt -0.6580715 14.07794
vt 0.6580669 14.07794
vt -0.5101331 12.09283
vt 0.5101292 12.09283
vt -0.5101298 11.69445
vt 0.5101324 11.69445
vt -0.7729249 9.288795
vt 0.772927 9.288795
vt -13.69667 -1.680622
vt -15.68728 -1.680622
vt -13.79448 -0.3681229
vt -15.76311 -0.6631807
vt 9.317798 0.2403545
vt 9.149926 1.777064
vt 11.68069 0.7628359
vt 11.5699 1.777064
vt -12.0973 0.3899914
vt -14.08792 0.3899914
vt -12.02148 1.407432
vt -13.9901 1.70249
vt -1.020262 -2.15003E-08
vt -0.5101312 0.8835731
vt -0.5101311 -0.8835731
vt 0.5101311 0.8835731
vt 0.5101312 -0.8835731
vt 1.020262 2.150053E-08
vt 15.68728 -1.680622
vt 13.69667 -1.680622
vt 15.76311 -0.6631812
vt 13.79448 -0.3681234
vt 9.317798 0.2403547
vt 9.149926 1.777065
vt 11.68069 0.7628361
vt 11.5699 1.777065
vt -13.9901 -1.70249
vt -14.08792 -0.3899914
vt -12.02148 -1.407432
vt -12.0973 -0.3899914
vt 13.9901 -1.70249
vt 12.02148 -1.407432
vt 14.08792 -0.3899915
vt 12.0973 -0.3899915
vt -8.930229 -0.7729258
vt -9.71763 -0.7729258
vt -8.930229 0.7729261
vt -9.71763 0.7729262
vt -9.317798 0.2403544
vt -11.68069 0.7628357
vt -9.149926 1.777064
vt -11.5699 1.777064
vt -9.149926 -1.777064
vt -11.5699 -1.777064
vt -9.317798 -0.2403544
vt -11.68069 -0.7628357
vt 9.71763 -0.7729262
vt 8.930229 -0.7729261
vt 9.71763 0.7729258
vt 8.930229 0.7729258
vt -0.5101286 15.7688
vt 0.5101337 15.7688
vt -0.6580669 13.78369
vt 0.6580714 13.78369
vt -13.79448 0.3681229
vt -15.76311 0.6631807
vt -13.69667 1.680622
vt -15.68728 1.680622
vt 0.5101331 12.09283
vt -0.5101292 12.09283
vt 0.6580715 14.07794
vt -0.6580669 14.07794
vt -9.71763 -0.772926
vt -9.71763 0.772926
vt -8.930229 -0.772926
vt -8.930229 0.772926
vt -9.317798 0.2403548
vt -11.68069 0.7628362
vt -9.149926 1.777065
vt -11.5699 1.777065
vt 9.149926 -1.777064
vt 9.317798 -0.2403545
vt 11.5699 -1.777064
vt 11.68069 -0.7628359
vt 8.930229 -0.772926
vt 8.930229 0.772926
vt 9.71763 -0.772926
vt 9.71763 0.772926
vt -9.71763 -0.7729262
vt -9.71763 0.7729258
vt -8.930229 -0.7729261
vt -8.930229 0.7729258
vt 13.9901 -1.70249
vt 12.02148 -1.407432
vt 14.08792 -0.389991
vt 12.0973 -0.389991
vt -13.79448 0.3681235
vt -15.76311 0.6631814
vt -13.69667 1.680622
vt -15.68728 1.680622
vt -0.7729249 -9.288795
vt 0.772927 -9.288795
vt -0.5101298 -11.69445
vt 0.5101324 -11.69445
vt 0.7729249 9.288795
vt -0.772927 9.288795
vt 0.5101298 11.69445
vt -0.5101324 11.69445
vt -11.5699 -1.777065
vt -11.68069 -0.7628362
vt -9.149926 -1.777065
vt -9.317798 -0.2403548
vt -14.08792 0.389991
vt -13.9901 1.70249
vt -12.0973 0.3899911
vt -12.02148 1.407432
vt 0.6580669 13.78369
vt -0.6580714 13.78369
vt 0.5101286 15.7688
vt -0.5101337 15.7688
vt 14.08792 0.389991
vt 12.0973 0.389991
vt 13.9901 1.70249
vt 12.02148 1.407432
vt -0.5101331 -12.09283
vt 0.5101292 -12.09283
vt -0.6580715 -14.07794
vt 0.6580669 -14.07794
vt -0.6580669 -13.78369
vt 0.6580714 -13.78369
vt -0.5101286 -15.7688
vt 0.5101337 -15.7688
vt -15.68728 -1.680622
vt -15.76311 -0.6631814
vt -13.69667 -1.680622
vt -13.79448 -0.3681235
vt 11.5699 -1.777065
vt 9.149926 -1.777065
vt 11.68069 -0.7628361
vt 9.317798 -0.2403547
vt 13.69667 -1.680622
vt 13.79448 -0.368123
vt 15.68728 -1.680622
vt 15.76311 -0.6631808
vt 13.79448 0.368123
vt 13.69667 1.680622
vt 15.76311 0.6631808
vt 15.68728 1.680622
vt 8.930229 -1.594488
vt -8.930229 -1.594488
vt 8.930229 1.594488
vt -8.930229 1.594488
vt -8.930229 -1.594488
vt -8.930229 1.594488
vt 8.930229 -1.594488
vt 8.930229 1.594488
vt -8.930229 -1.594488
vt -8.930229 1.594488
vt 8.930229 -1.594488
vt 8.930229 1.594488
vt 3.188976 -6.720264E-08
vt 1.594488 -2.761734
vt 1.594488 2.761734
vt 1.545852 -3.257631E-08
vt 0.772926 1.338747
vt -1.594488 2.761734
vt -0.7729259 1.338747
vt -1.545852 3.257647E-08
vt 0.7729259 -1.338747
vt -1.594488 -2.761734
vt -0.772926 -1.338747
vt -3.188976 6.720264E-08
vt -1.545852 -3.257635E-08
vt -0.7729259 -1.338747
vt -1.594488 -2.761734
vt 1.594488 -2.761734
vt 0.772926 -1.338747
vt 1.545852 3.257643E-08
vt 1.594488 2.761734
vt 3.188976 6.720265E-08
vt -1.594488 2.761734
vt -3.188976 -6.720263E-08
vt -0.772926 1.338747
vt 0.7729259 1.338747

usemtl brownLight

f 3/3/1 2/2/1 1/1/1
f 2/2/1 3/3/1 4/4/1
f 7/7/2 6/6/2 5/5/2
f 6/6/2 7/7/2 8/8/2
f 11/11/3 10/10/3 9/9/3
f 10/10/3 11/11/3 12/12/3
f 10/10/3 12/12/3 13/13/3
f 13/13/3 12/12/3 14/14/3
f 13/17/4 15/16/4 1/15/4
f 15/16/4 13/17/4 14/18/4
f 15/21/5 6/20/5 16/19/5
f 6/20/5 15/21/5 17/22/5
f 20/25/6 19/24/6 18/23/6
f 19/24/6 20/25/6 21/26/6
f 22/29/7 12/28/7 11/27/7
f 12/28/7 22/29/7 17/30/7
f 4/33/8 23/32/8 2/31/8
f 23/32/8 4/33/8 24/34/8
f 21/25/9 25/24/9 19/23/9
f 25/24/9 21/25/9 8/26/9
f 5/37/10 17/36/10 22/35/10
f 17/36/10 5/37/10 6/38/10
f 20/41/11 4/40/11 3/39/11
f 4/40/11 20/41/11 26/42/11
f 22/45/12 9/44/12 23/43/12
f 9/44/12 22/45/12 11/46/12
f 29/49/13 28/48/13 27/47/13
f 28/48/13 29/49/13 30/50/13
f 5/53/14 23/52/14 24/51/14
f 23/52/14 5/53/14 22/54/14
f 33/57/15 32/56/15 31/55/15
f 32/56/15 33/57/15 34/58/15
f 34/58/15 33/57/15 35/59/15
f 34/58/15 35/59/15 36/60/15
f 32/63/14 37/62/14 31/61/14
f 37/62/14 32/63/14 38/64/14
f 3/67/16 21/66/16 20/65/16
f 21/66/16 3/67/16 16/68/16
f 41/71/4 40/70/4 39/69/4
f 40/70/4 41/71/4 42/72/4
f 37/75/17 29/74/17 43/73/17
f 29/74/17 37/75/17 30/76/17
f 46/79/18 45/78/18 44/77/18
f 45/78/18 46/79/18 7/80/18
f 48/83/19 41/82/19 47/81/19
f 41/82/19 48/83/19 42/84/19
f 7/87/20 24/86/20 45/85/20
f 24/86/20 7/87/20 5/88/20
f 28/91/21 49/90/21 27/89/21
f 49/90/21 28/91/21 50/92/21
f 44/79/21 26/78/21 51/77/21
f 26/78/21 44/79/21 45/80/21
f 1/95/22 10/94/22 13/93/22
f 10/94/22 1/95/22 2/96/22
f 40/99/23 35/98/23 39/97/23
f 35/98/23 40/99/23 36/100/23
f 38/103/7 53/102/7 52/101/7
f 53/102/7 38/103/7 54/104/7
f 46/107/24 8/106/24 7/105/24
f 8/106/24 46/107/24 25/108/24
f 45/111/25 4/110/25 26/109/25
f 4/110/25 45/111/25 24/112/25
f 16/115/26 8/114/26 21/113/26
f 8/114/26 16/115/26 6/116/26
f 57/119/24 56/118/24 55/117/24
f 56/118/24 57/119/24 58/120/24
f 59/123/6 48/122/6 47/121/6
f 48/122/6 59/123/6 60/124/6
f 15/127/23 3/126/23 1/125/23
f 3/126/23 15/127/23 16/128/23
f 23/131/17 10/130/17 2/129/17
f 10/130/17 23/131/17 9/132/17
f 60/123/9 58/122/9 48/121/9
f 58/122/9 60/123/9 56/124/9
f 52/135/27 58/134/27 57/133/27
f 58/134/27 52/135/27 53/136/27
f 41/139/28 27/138/28 47/137/28
f 27/138/28 41/139/28 29/140/28
f 48/143/29 53/142/29 42/141/29
f 53/142/29 48/143/29 58/144/29
f 42/147/30 54/146/30 40/145/30
f 54/146/30 42/147/30 53/148/30
f 59/108/31 27/105/31 49/107/31
f 27/105/31 59/108/31 47/106/31
f 57/91/18 50/90/18 28/89/18
f 50/90/18 57/91/18 55/92/18
f 35/151/1 43/150/1 39/149/1
f 43/150/1 35/151/1 33/152/1
f 38/155/12 30/154/12 37/153/12
f 30/154/12 38/155/12 52/156/12
f 39/159/22 29/158/22 41/157/22
f 29/158/22 39/159/22 43/160/22
f 32/163/10 54/162/10 38/161/10
f 54/162/10 32/163/10 34/164/10
f 40/167/5 34/166/5 36/165/5
f 34/166/5 40/167/5 54/168/5
f 18/118/31 26/119/31 20/120/31
f 26/119/31 18/118/31 51/117/31
f 52/171/32 28/170/32 30/169/32
f 28/170/32 52/171/32 57/172/32
f 14/175/30 17/174/30 15/173/30
f 17/174/30 14/175/30 12/176/30
f 33/179/8 37/178/8 43/177/8
f 37/178/8 33/179/8 31/180/8

usemtl brown

f 63/183/21 62/182/21 61/181/21
f 62/182/21 63/183/21 64/184/21
f 67/187/24 66/186/24 65/185/24
f 66/186/24 67/187/24 68/188/24
f 70/191/9 68/190/9 69/189/9
f 68/190/9 70/191/9 66/192/9
f 72/191/6 69/190/6 71/189/6
f 69/190/6 72/191/6 70/192/6
f 71/186/31 62/187/31 72/188/31
f 62/187/31 71/186/31 61/185/31
f 65/195/3 62/194/3 64/193/3
f 62/194/3 65/195/3 44/196/3
f 44/196/3 65/195/3 46/197/3
f 46/197/3 65/195/3 66/198/3
f 46/197/3 66/198/3 25/199/3
f 25/199/3 66/198/3 19/200/3
f 51/201/3 62/194/3 44/196/3
f 62/194/3 51/201/3 72/202/3
f 72/202/3 19/200/3 66/198/3
f 72/202/3 51/201/3 18/203/3
f 72/202/3 18/203/3 19/200/3
f 72/202/3 66/198/3 70/204/3
f 61/207/15 49/206/15 50/205/15
f 49/206/15 61/207/15 71/208/15
f 49/206/15 71/208/15 59/209/15
f 59/209/15 71/208/15 60/210/15
f 60/210/15 71/208/15 68/211/15
f 68/211/15 71/208/15 69/212/15
f 67/213/15 61/207/15 50/205/15
f 61/207/15 67/213/15 63/214/15
f 67/213/15 50/205/15 55/215/15
f 67/213/15 55/215/15 68/211/15
f 68/211/15 55/215/15 56/216/15
f 68/211/15 56/216/15 60/210/15
f 67/183/18 64/182/18 63/181/18
f 64/182/18 67/183/18 65/184/18

