# Created by Kenney (www.kenney.nl)

mtllib salad.mtl

g salad

v -0.2510765 0.2138248 -0.1449591
v -0.2199233 0.2138248 0.1269728
v -0.2510765 0.2138248 0.1449591
v -1.007066E-15 0.2138248 0.2899182
v -1.007066E-15 0.2138248 0.2539455
v 0.2510765 0.2138248 0.1449591
v 0.2199233 0.2138248 0.1269728
v 0.2199233 0.2138248 -0.1269728
v -0.2199233 0.2138248 -0.1269728
v -1.007066E-15 0.2138248 -0.2899182
v -1.007066E-15 0.2138248 -0.2539455
v 0.2510765 0.2138248 -0.1449591
v -0.133697 0 -0.07719
v -0.133697 0 0.07719
v 2.349822E-15 0 -0.15438
v 2.349822E-15 0 0.15438
v 0.133697 0 -0.07719
v 0.133697 0 0.07719
v -0.2013509 0.0430125 -0.11625
v -3.356888E-16 0.0430125 -0.2325
v -0.2194725 0.07788751 -0.1267125
v -3.356888E-16 0.07788751 -0.253425
v -0.2194725 0.07788751 0.1267125
v -0.2013509 0.0430125 0.11625
v -3.356888E-16 0.0430125 0.2325
v -3.356888E-16 0.07788751 0.253425
v 0.2013509 0.0430125 0.11625
v 0.2194725 0.07788751 0.1267125
v 0.2013509 0.0430125 -0.11625
v 0.2194725 0.07788751 -0.1267125
v 0.2510765 0.1467 0.1449591
v -1.007066E-15 0.1467 0.2899182
v -0.2510765 0.1467 -0.1449591
v -1.007066E-15 0.1467 -0.2899182
v -1.007066E-15 0.1787248 0.2310904
v 0.2001302 0.1787248 0.1155452
v -0.2001302 0.1787248 0.1155452
v -0.2001302 0.1787248 -0.1155452
v 0.2001302 0.1787248 -0.1155452
v -6.713776E-16 0.1787248 -0.2310904
v -0.2510765 0.1467 0.1449591
v 0.2510765 0.1467 -0.1449591
v -0.02908551 0.2387248 0.003751494
v 0.003266535 0.2387248 -0.004917212
v -0.007151738 0.2387248 0.09284565
v 0.007485372 0.2387248 0.07820854
v -2.349822E-15 0.2387248 0.1617633
v -0.03444307 0.2387248 -0.01624317
v -0.0422695 0.2387248 0.07030348
v -0.06019923 0.2387248 0.07916491
v -0.1400911 0.2387248 0.08088166
v -0.1400911 0.2387248 -0.08088166
v -0.09564492 0.2387248 0.007445998
v -0.03916629 0.2387248 -0.07241597
v 0.01653161 0.2387248 0.116529
v 0.1400911 0.2387248 0.08088166
v 0.03116872 0.2387248 0.1018919
v 0.0603509 0.2387248 0.07412082
v 0.04140669 0.2387248 0.06770856
v 0.03733809 0.2387248 -0.09580571
v 0.08599994 0.2387248 -0.001656001
v 0.08983876 0.2387248 -0.03297924
v 0.1044759 0.2387248 -0.04761635
v -0.04501372 0.2387248 -0.09154207
v -2.349822E-15 0.2387248 -0.1617633
v -0.0777152 0.2387248 -0.001415427
v 0.03149066 0.2387248 -0.1149318
v 0.1400911 0.2387248 -0.08088166
v 0.08079252 0.2387248 -0.07129969
v 0.06615541 0.2387248 -0.05666258
v 0.06705574 0.2387248 -0.008068261
v -0.00209102 0.2387248 -0.02491188
v -0.1601302 0.2587248 0.08554522
v -0.1601302 0.2587248 -0.08554522
v 0.005980761 0.2587248 0.1814494
v 0.1541494 0.2587248 0.09590421
v 0.1541494 0.2587248 -0.09590421
v 0.005980762 0.2587248 -0.1814494
v -0.005980762 0.2387248 -0.1814494
v -0.1541494 0.2387248 -0.09590421
v -0.1541494 0.2387248 0.09590421
v -0.005980763 0.2387248 0.1814494
v 0.1601302 0.2387248 0.08554522
v 0.1601302 0.2387248 -0.08554522
v 0.04781895 0.2733658 0.04876436
v 0.06064347 0.2733658 0.01087594
v 0.06676316 0.2733658 0.05517662
v 0.07958768 0.2733658 0.0172882
v -0.06906065 0.2733658 0.06123518
v -0.08678351 0.2733658 0.02537572
v -0.06885377 0.2733658 0.0165143
v -0.05113093 0.2733658 0.05237376
v -0.02004019 0.2733658 -0.07826341
v -0.02588763 0.2733658 -0.0973895
v 0.018212 0.2733658 -0.08995828
v 0.01236456 0.2733658 -0.1090844

vn 0 0.93 0
vn 0 -0.93 0
vn -0.4126208 -0.428808 -0.7146801
vn -0.8252416 -0.4288081 0
vn -0.4126208 -0.428808 0.7146801
vn 0.4126208 -0.428808 0.7146801
vn 0.4126208 -0.428808 -0.7146801
vn 0.8252416 -0.4288081 0
vn 0.465 0 0.8054036
vn -0.465 0 -0.8054036
vn -0.4050391 0.4568078 -0.7015483
vn 0.8100781 0.4568078 0
vn 0.4050391 0.4568078 -0.7015483
vn -0.4050391 0.4568078 0.7015483
vn -0.93 0 0
vn -0.465 0 0.8054036
vn 0.4050391 0.4568078 0.7015483
vn -0.8100781 0.4568078 0
vn 0.465 0 -0.8054036
vn 0.93 0 0
vn -0.4225639 -0.3881483 -0.7319021
vn -0.8451279 -0.3881483 0
vn 0.8451279 -0.3881483 0
vn -0.4225639 -0.3881483 0.7319021
vn 0.4225639 -0.3881483 -0.7319021
vn 0.4225639 -0.3881483 0.7319021
vn -0.249482 -0.7848153 -0.4321155
vn 0.249482 -0.7848153 0.4321155
vn -0.498964 -0.7848153 0
vn 0.498964 -0.7848153 0
vn 0.249482 -0.7848153 -0.4321155
vn -0.249482 -0.7848153 0.4321155
vn 0.3286977 0.6578233 -0.569321
vn 0.3286977 0.6578233 0.569321
vn 0.6573953 0.6578233 0
vn -0.6573953 0.6578233 0
vn -0.3286977 0.6578233 0.569321
vn -0.3286977 0.6578233 -0.569321
vn 0.8318173 -0.4159086 0
vn -0.8318173 0.4159086 0
vn -0.4159087 -0.4159087 -0.7203749
vn 0.4159087 0.4159087 0.7203749
vn -0.4159086 -0.4159086 0.7203749
vn 0.4159086 0.4159086 -0.7203749
vn 0.3869034 -0.5158712 0.6701363
vn -0.3869034 0.5158712 -0.6701363
vn 0.3869034 -0.5158712 -0.6701363
vn -0.3869034 0.5158712 0.6701363
vn -0.7738068 -0.5158712 0
vn 0.7738068 0.5158712 0
vn -0.8809056 0 -0.2981701
vn 0.2582229 0.465 -0.7628866
vn -0.2582229 0.465 0.7628866
vn 0.8809056 0 0.2981701
vn -0.8337324 0 0.4120562
vn -0.3568512 0.465 -0.7220334
vn 0.3568512 0.465 0.7220334
vn 0.8337324 0 -0.4120562
vn -0.7702113 0.465 0.2354772
vn 0.2719057 0 0.8893635
vn 0.7702113 0.465 -0.2354772
vn -0.2719057 0 -0.8893635

vt -10.62893 6.136614
vt -9.310104 -5.375191
vt -10.62893 -6.136614
vt -4.263256E-14 -12.27323
vt -4.263256E-14 -10.75038
vt 10.62893 -6.136614
vt 9.310104 -5.375191
vt 9.310104 5.375191
vt -9.310104 5.375191
vt -4.263256E-14 12.27323
vt -4.263256E-14 10.75038
vt 10.62893 6.136614
vt 5.659851 3.267717
vt 5.659851 -3.267717
vt -9.947598E-14 6.535433
vt -9.947598E-14 -6.535433
vt -5.659851 3.267717
vt -5.659851 -3.267717
vt 4.92126 5.545978
vt -4.92126 5.545978
vt 5.364173 7.209772
vt -5.364173 7.209772
vt 6.136614 6.210312
vt -6.136614 6.210312
vt 6.136614 9.051934
vt -6.136614 9.051934
vt 4.891424 10.75187
vt -4.891424 10.75187
vt 5.375191 12.45775
vt -5.375191 12.45775
vt 5.364173 6.874071
vt -5.364173 6.874071
vt 6.136614 10.07969
vt -6.136614 10.07969
vt 4.92126 8.170119
vt 3.267717 4.776277
vt -4.92126 8.170119
vt -3.267717 4.776277
vt -1.231289 -0.1588136
vt 0.1382836 0.2081624
vt -0.3027575 -3.930474
vt 0.3168814 -3.310835
vt -9.947598E-14 -6.847994
vt -1.458093 0.6876289
vt -1.789412 -2.976187
vt -2.548439 -3.351321
vt -5.930537 -3.423997
vt -5.930537 3.423997
vt -4.048976 -0.3152145
vt -1.658043 3.065616
vt 0.6998394 -4.933071
vt 5.930537 -3.423997
vt 1.319478 -4.313432
vt 2.55486 -3.137788
vt 1.752887 -2.866335
vt 1.580649 4.055783
vt 3.640671 0.07010419
vt 3.803182 1.396124
vt 4.422821 2.015763
vt -1.905585 3.875289
vt -9.947598E-14 6.847994
vt -3.28995 0.05991986
vt 1.333107 4.865456
vt 5.930537 3.423997
vt 3.420224 3.01836
vt 2.800585 2.398721
vt 2.838698 0.3415571
vt -0.08852004 1.054605
vt 3.423997 2.948834
vt 4.891424 -0.6444445
vt -3.423997 2.948834
vt -4.891424 -0.6444445
vt -4.891424 2.978384
vt -3.621422 6.7648
vt 4.891424 2.978384
vt 3.621422 6.7648
vt 4.891424 2.978383
vt -4.891424 2.978383
vt 3.621422 6.764799
vt -3.621422 6.764799
vt 3.621422 6.7648
vt 4.891424 1.595791
vt -4.891424 1.595791
vt 3.621422 4.648497
vt -3.621422 4.648497
vt 4.891424 1.595791
vt -4.891424 1.595791
vt 3.621422 4.648497
vt -3.621422 4.648497
vt 2.153023 10.10604
vt -1.23365 10.10604
vt 1.306355 11.57251
vt -0.3869816 11.57251
vt 2.02434 -2.064362
vt 2.567245 -0.4604159
vt 2.826313 -2.335815
vt 3.369218 -0.7318688
vt -3.426005 8.13526
vt -3.426005 9.828596
vt -2.579337 8.13526
vt -2.579337 9.828596
vt 3.426005 7.675573
vt 2.579337 7.675573
vt 3.426005 9.36891
vt 2.579337 9.36891
vt -2.153023 10.10604
vt -1.306355 11.57251
vt 1.23365 10.10604
vt 0.3869816 11.57251
vt 1.875274 10.10604
vt -1.511399 10.10604
vt 1.028606 11.57251
vt -0.664731 11.57251
vt -3.673842 -1.074241
vt -2.914816 -0.6991068
vt -2.923573 -2.592295
vt -2.164547 -2.21716
vt 2.922847 7.996385
vt 2.922847 9.689721
vt 3.769515 7.996385
vt 3.769515 9.689721
vt -2.922847 7.814447
vt -3.769515 7.814447
vt -2.922847 9.507784
vt -3.769515 9.507784
vt -1.875274 10.10604
vt -1.028606 11.57251
vt 1.511399 10.10604
vt 0.664731 11.57251
vt -3.416428 8.407437
vt -4.263096 8.407437
vt -3.416428 10.10077
vt -4.263096 10.10077
vt 2.697379 10.10604
vt -0.6892949 10.10604
vt 1.85071 11.57251
vt 0.1573735 11.57251
vt 3.416428 9.096732
vt 4.263096 9.096732
vt 3.416428 7.403395
vt 4.263096 7.403395
vt -1.095912 4.122831
vt 0.5234342 4.617914
vt -0.8483698 3.313158
vt 0.7709761 3.808241
vt -2.697379 10.10604
vt -1.85071 11.57251
vt 0.6892949 10.10604
vt -0.1573735 11.57251

usemtl brown

f 3/3/1 2/2/1 1/1/1
f 2/2/1 3/3/1 4/4/1
f 2/2/1 4/4/1 5/5/1
f 5/5/1 4/4/1 6/6/1
f 5/5/1 6/6/1 7/7/1
f 7/7/1 6/6/1 8/8/1
f 9/9/1 1/1/1 2/2/1
f 1/1/1 9/9/1 10/10/1
f 10/10/1 9/9/1 11/11/1
f 10/10/1 11/11/1 8/8/1
f 10/10/1 8/8/1 12/12/1
f 12/12/1 8/8/1 6/6/1
f 15/15/2 14/14/2 13/13/2
f 14/14/2 15/15/2 16/16/2
f 16/16/2 15/15/2 17/17/2
f 16/16/2 17/17/2 18/18/2
f 21/21/3 20/20/3 19/19/3
f 20/20/3 21/21/3 22/22/3
f 21/22/4 24/19/4 23/21/4
f 24/19/4 21/22/4 19/20/4
f 26/21/5 24/20/5 25/19/5
f 24/20/5 26/21/5 23/22/5
f 28/21/6 25/20/6 27/19/6
f 25/20/6 28/21/6 26/22/6
f 22/21/7 29/20/7 20/19/7
f 29/20/7 22/21/7 30/22/7
f 27/20/8 30/21/8 28/22/8
f 30/21/8 27/20/8 29/19/8
f 6/25/9 32/24/9 31/23/9
f 32/24/9 6/25/9 4/26/9
f 1/25/10 34/24/10 33/23/10
f 34/24/10 1/25/10 10/26/10
f 5/29/11 36/28/11 35/27/11
f 36/28/11 5/29/11 7/30/11
f 37/28/12 9/29/12 2/30/12
f 9/29/12 37/28/12 38/27/12
f 2/29/13 35/28/13 37/27/13
f 35/28/13 2/29/13 5/30/13
f 8/29/14 40/28/14 39/27/14
f 40/28/14 8/29/14 11/30/14
f 1/26/15 41/23/15 3/25/15
f 41/23/15 1/26/15 33/24/15
f 4/25/16 41/24/16 32/23/16
f 41/24/16 4/25/16 3/26/16
f 11/29/17 38/28/17 40/27/17
f 38/28/17 11/29/17 9/30/17
f 8/30/18 36/27/18 7/29/18
f 36/27/18 8/30/18 39/28/18
f 10/25/19 42/24/19 34/23/19
f 42/24/19 10/25/19 12/26/19
f 42/23/20 6/26/20 31/24/20
f 6/26/20 42/23/20 12/25/20
f 33/33/21 22/32/21 21/31/21
f 22/32/21 33/33/21 34/34/21
f 33/34/22 23/31/22 41/33/22
f 23/31/22 33/34/22 21/32/22
f 28/32/23 42/33/23 31/34/23
f 42/33/23 28/32/23 30/31/23
f 32/33/24 23/32/24 26/31/24
f 23/32/24 32/33/24 41/34/24
f 34/33/25 30/32/25 22/31/25
f 30/32/25 34/33/25 42/34/25
f 31/33/26 26/32/26 28/31/26
f 26/32/26 31/33/26 32/34/26
f 20/37/27 13/36/27 19/35/27
f 13/36/27 20/37/27 15/38/27
f 16/38/28 27/35/28 25/37/28
f 27/35/28 16/38/28 18/36/28
f 13/38/29 24/35/29 19/37/29
f 24/35/29 13/38/29 14/36/29
f 29/35/30 18/38/30 17/36/30
f 18/38/30 29/35/30 27/37/30
f 29/37/31 15/36/31 20/35/31
f 15/36/31 29/37/31 17/38/31
f 14/38/32 25/35/32 24/37/32
f 25/35/32 14/38/32 16/36/32

usemtl green

f 45/41/1 44/40/1 43/39/1
f 44/40/1 45/41/1 46/42/1
f 43/39/1 47/43/1 45/41/1
f 48/44/1 47/43/1 43/39/1
f 49/45/1 47/43/1 48/44/1
f 50/46/1 47/43/1 49/45/1
f 50/46/1 51/47/1 47/43/1
f 51/47/1 50/46/1 52/48/1
f 52/48/1 50/46/1 53/49/1
f 49/45/1 48/44/1 54/50/1
f 45/41/1 47/43/1 55/51/1
f 55/51/1 47/43/1 56/52/1
f 55/51/1 56/52/1 57/53/1
f 57/53/1 56/52/1 58/54/1
f 57/53/1 58/54/1 59/55/1
f 57/53/1 59/55/1 60/56/1
f 48/44/1 60/56/1 54/50/1
f 60/56/1 46/42/1 57/53/1
f 58/54/1 56/52/1 61/57/1
f 61/57/1 56/52/1 62/58/1
f 62/58/1 56/52/1 63/59/1
f 64/60/1 52/48/1 53/49/1
f 64/60/1 49/45/1 54/50/1
f 52/48/1 64/60/1 65/61/1
f 64/60/1 53/49/1 66/62/1
f 65/61/1 64/60/1 67/63/1
f 65/61/1 67/63/1 68/64/1
f 68/64/1 67/63/1 60/56/1
f 68/64/1 63/59/1 56/52/1
f 68/64/1 60/56/1 69/65/1
f 68/64/1 69/65/1 63/59/1
f 69/65/1 60/56/1 70/66/1
f 70/66/1 60/56/1 59/55/1
f 71/67/1 70/66/1 59/55/1
f 70/66/1 71/67/1 62/58/1
f 62/58/1 71/67/1 61/57/1
f 49/45/1 64/60/1 66/62/1
f 60/56/1 48/44/1 72/68/1
f 60/56/1 72/68/1 44/40/1
f 60/56/1 44/40/1 46/42/1
f 68/71/33 40/70/33 65/69/33
f 40/70/33 68/71/33 39/72/33
f 35/72/34 56/69/34 47/71/34
f 56/69/34 35/72/34 36/70/34
f 36/72/35 68/69/35 56/71/35
f 68/69/35 36/72/35 39/70/35
f 51/69/36 38/72/36 37/70/36
f 38/72/36 51/69/36 52/71/36
f 35/70/37 51/71/37 37/72/37
f 51/71/37 35/70/37 47/69/37
f 52/69/38 40/72/38 38/70/38
f 40/72/38 52/69/38 65/71/38
f 38/75/39 73/74/39 37/73/39
f 73/74/39 38/75/39 74/76/39
f 37/73/40 73/74/40 38/75/40
f 74/76/40 38/75/40 73/74/40
f 75/79/41 36/78/41 35/77/41
f 36/78/41 75/79/41 76/80/41
f 35/77/42 36/78/42 75/79/42
f 76/80/42 75/79/42 36/78/42
f 77/81/43 40/73/43 39/75/43
f 40/73/43 77/81/43 78/74/43
f 39/75/44 40/73/44 77/81/44
f 78/74/44 77/81/44 40/73/44
f 79/84/45 38/83/45 40/82/45
f 38/83/45 79/84/45 80/85/45
f 40/82/46 38/83/46 79/84/46
f 80/85/46 79/84/46 38/83/46
f 81/88/47 35/87/47 37/86/47
f 35/87/47 81/88/47 82/89/47
f 37/86/48 35/87/48 81/88/48
f 82/89/48 81/88/48 35/87/48
f 83/84/49 39/83/49 36/82/49
f 39/83/49 83/84/49 84/85/49
f 36/82/50 39/83/50 83/84/50
f 84/85/50 83/84/50 39/83/50

usemtl red

f 85/92/51 71/91/51 59/90/51
f 71/91/51 85/92/51 86/93/51
f 87/96/1 86/95/1 85/94/1
f 86/95/1 87/96/1 88/97/1
f 71/100/52 88/99/52 61/98/52
f 88/99/52 71/100/52 86/101/52
f 87/104/53 59/103/53 58/102/53
f 59/103/53 87/104/53 85/105/53
f 61/108/54 87/107/54 58/106/54
f 87/107/54 61/108/54 88/109/54
f 89/112/55 53/111/55 50/110/55
f 53/111/55 89/112/55 90/113/55
f 89/116/1 91/115/1 90/114/1
f 91/115/1 89/116/1 92/117/1
f 53/120/56 91/119/56 66/118/56
f 91/119/56 53/120/56 90/121/56
f 92/124/57 50/123/57 49/122/57
f 50/123/57 92/124/57 89/125/57
f 66/128/58 92/127/58 49/126/58
f 92/127/58 66/128/58 91/129/58
f 93/132/59 64/131/59 54/130/59
f 64/131/59 93/132/59 94/133/59
f 95/136/60 54/135/60 60/134/60
f 54/135/60 95/136/60 93/137/60
f 60/140/61 96/139/61 95/138/61
f 96/139/61 60/140/61 67/141/61
f 93/144/1 96/143/1 94/142/1
f 96/143/1 93/144/1 95/145/1
f 64/148/62 96/147/62 67/146/62
f 96/147/62 64/148/62 94/149/62

usemtl greenDark

f 62/58/1 69/65/1 70/66/1
f 69/65/1 62/58/1 63/59/1
f 43/39/1 72/68/1 48/44/1
f 72/68/1 43/39/1 44/40/1
f 55/51/1 46/42/1 45/41/1
f 46/42/1 55/51/1 57/53/1

