# Created by Kenney (www.kenney.nl)

mtllib sausageHalf.mtl

g sausageHalf

v 7.259541E-12 0.04623879 0.022
v 7.259541E-12 0.03743879 0.0132
v 7.259541E-12 0.05503878 0.0132
v 7.259541E-12 0.04623879 0.0044
v 7.259541E-12 0.07263879 0.022
v 7.259541E-12 0.06383879 0.0132
v 7.259541E-12 0.08143879 0.0132
v 7.259541E-12 0.07263879 0.0044
v 7.259541E-12 0.07263879 -0.0044
v 7.259541E-12 0.06383879 -0.0132
v 7.259541E-12 0.08143879 -0.0132
v 7.259541E-12 0.07263879 -0.022
v 7.259541E-12 0.04623879 -0.0044
v 7.259541E-12 0.03743879 -0.0132
v 7.259541E-12 0.05503878 -0.0132
v 7.259541E-12 0.04623879 -0.022
v 7.259541E-12 3.792291E-14 0.034317
v 7.259541E-12 0.05943879 0.068634
v 0.1166945 7.584159E-14 0.034317
v 0.1166945 0.05943879 0.068634
v 0.1510115 0.05943879 -0.02032997
v 0.1853285 0.05943879 -0.03334114
v 0.1510115 0.07704505 -0.01016498
v 0.1853285 0.08831306 -0.01667057
v 0.1510115 0.05943879 0.04186674
v 0.1510115 0.09569645 0.02093337
v 0.1510115 0.02318113 0.02093337
v 0.1510115 0.05943879 0.02032997
v 0.1510115 0.04183252 0.01016498
v 0.1510115 0.02318113 -0.02093337
v 0.1510115 0.04183252 -0.01016498
v 0.1510115 0.07704505 0.01016498
v 0.1510115 0.09569645 -0.02093337
v 0.1510115 0.05943879 -0.04186674
v 0.1853285 0.03056451 -0.01667057
v 7.259541E-12 0.1188776 0.034317
v 7.259541E-12 0.1188776 -0.034317
v 0.1166945 0.1188776 0.034317
v 0.1166945 0.1188776 -0.034317
v 0.1853285 0.03056451 0.01667057
v 7.259541E-12 3.801315E-14 -0.034317
v 0.1166945 7.595157E-14 -0.034317
v 0.1166945 0.05943879 -0.068634
v 0.1853285 0.05943879 0.03334114
v 7.259541E-12 0.05943879 -0.068634
v 0.1853285 0.08831306 0.01667057
v 7.259541E-12 0.05943879 0.05034621
v 7.259541E-12 0.1030399 0.02517311
v 7.259541E-12 0.1030399 -0.02517311
v 7.259541E-12 0.05943879 -0.05034621
v 7.259541E-12 0.01583769 0.02517311
v 7.259541E-12 0.01583769 -0.02517311

vn -1 0 0
vn 0 -0.5 0.8660254
vn -0.311964 0.475047 -0.8228055
vn 1 0 0
vn -0.311964 -0.475047 -0.8228055
vn 0 1 0
vn 0.5597574 -0.4143283 0.7176377
vn -0.311964 -0.9500939 0
vn 0 -1 0
vn 0 0.5 0.8660254
vn 0.5597574 -0.4143283 -0.7176377
vn -0.311964 -0.475047 0.8228055
vn 0 -0.5 -0.8660254
vn 0 0.5 -0.8660254
vn 0.5597574 0.8286566 0
vn -0.311964 0.475047 0.8228055
vn -0.311964 0.9500939 0
vn 0.5597574 -0.8286566 0
vn 0.5597574 0.4143283 -0.7176377
vn 0.5597574 0.4143283 0.7176377

vt 0.8661417 1.820425
vt 0.519685 1.473968
vt 0.519685 2.166881
vt 0.1732284 1.820425
vt 0.8661417 2.859795
vt 0.519685 2.513338
vt 0.519685 3.206251
vt 0.1732284 2.859795
vt -0.1732284 2.859795
vt -0.519685 2.513338
vt -0.519685 3.206251
vt -0.8661417 2.859795
vt -0.1732284 1.820425
vt -0.519685 1.473968
vt -0.519685 2.166881
vt -0.8661417 1.820425
vt 2.85318E-10 0.6755315
vt 2.848274E-10 3.377657
vt 4.594272 0.6755315
vt 4.594272 3.377657
vt -5.84293 2.704953
vt -7.287843 2.704953
vt -5.701053 3.492671
vt -7.055163 3.996809
vt -1.648297 2.34011
vt -0.8241485 3.767577
vt -0.8241485 0.9126428
vt -0.8003924 2.34011
vt -0.4001962 1.64695
vt 0.8241484 0.9126428
vt 0.4001961 1.64695
vt 0.8003923 2.34011
vt -0.4001962 3.03327
vt 0.8241484 3.767577
vt 0.4001961 3.03327
vt 1.648297 2.34011
vt -7.055163 0.1215985
vt -7.287843 1.413455
vt -5.701053 0.6257375
vt -5.84293 1.413455
vt 2.873279E-10 -1.351063
vt 2.873279E-10 1.351063
vt 4.594272 -1.351063
vt 4.594272 1.351063
vt 2.791647 1.612126
vt 1.9607 4.183315
vt 4.181033 2.61489
vt 3.674155 4.183315
vt -0.4001961 -5.134837
vt 0.4001962 -5.134837
vt -0.6563216 -6.556868
vt 0.6563218 -6.556868
vt -2.858087E-10 1.351063
vt -2.858087E-10 -1.351063
vt -4.594272 1.351063
vt -4.594272 -1.351063
vt 2.858405E-10 0.6755315
vt 2.858246E-10 3.377657
vt -2.791647 1.612126
vt -4.181033 2.61489
vt -1.9607 4.183315
vt -3.674155 4.183315
vt 7.055163 0.1215985
vt 5.701053 0.6257376
vt 7.287843 1.413455
vt 5.84293 1.413455
vt -2.85792E-10 0.6755315
vt -4.594272 0.6755315
vt -2.857753E-10 3.377657
vt -4.594272 3.377657
vt -2.867887E-10 0.6755315
vt -2.862987E-10 3.377657
vt 1.351063 -1.187286
vt 0.8241484 -2.817712
vt -1.351063 -1.187286
vt -0.8241484 -2.817712
vt 5.84293 2.704953
vt 5.701053 3.49267
vt 7.287843 2.704953
vt 7.055163 3.996809
vt -0.4001961 6.594897
vt -0.6563216 8.016929
vt 0.4001962 6.594897
vt 0.6563218 8.016929
vt -1.312644 2.34011
vt -0.6563218 3.476892
vt -0.6563218 1.203327
vt 0.6563216 1.203327
vt 0.6563216 3.476892
vt 1.312643 2.34011
vt 1.351063 3.807073
vt -1.351063 3.807073
vt 0.8241484 5.437499
vt -0.8241484 5.437499
vt -1.9607 0.07628133
vt -3.674155 0.07628133
vt -2.791647 2.64747
vt -4.181033 1.644707
vt 1.9607 0.07628132
vt 2.791647 2.64747
vt 3.674155 0.07628132
vt 4.181033 1.644707
vt 2.702126 2.34011
vt 1.982134 2.34011
vt 1.351063 4.68022
vt 0.9910672 4.056688
vt -1.351063 4.68022
vt -0.9910672 4.056688
vt -1.982134 2.34011
vt -2.702126 2.34011
vt 1.351063 1.493028E-12
vt 0.9910672 0.623531
vt -1.351063 1.496581E-12
vt -0.9910672 0.623531

usemtl white

f 3/3/1 2/2/1 1/1/1
f 2/2/1 3/3/1 4/4/1
f 7/7/1 6/6/1 5/5/1
f 6/6/1 7/7/1 8/8/1
f 11/11/1 10/10/1 9/9/1
f 10/10/1 11/11/1 12/12/1
f 15/15/1 14/14/1 13/13/1
f 14/14/1 15/15/1 16/16/1

usemtl brownLight

f 19/19/2 18/18/2 17/17/2
f 18/18/2 19/19/2 20/20/2
f 23/23/3 22/22/3 21/21/3
f 22/22/3 23/23/3 24/24/3
f 27/27/4 26/26/4 25/25/4
f 26/26/4 27/27/4 28/28/4
f 28/28/4 27/27/4 29/29/4
f 29/29/4 27/27/4 30/30/4
f 29/29/4 30/30/4 31/31/4
f 31/31/4 30/30/4 21/32/4
f 32/33/4 26/26/4 28/28/4
f 26/26/4 32/33/4 33/34/4
f 33/34/4 21/32/4 30/30/4
f 33/34/4 32/33/4 23/35/4
f 33/34/4 23/35/4 21/32/4
f 33/34/4 30/30/4 34/36/4
f 31/39/5 22/38/5 35/37/5
f 22/38/5 31/39/5 21/40/5
f 38/43/6 37/42/6 36/41/6
f 37/42/6 38/43/6 39/44/6
f 27/47/7 20/46/7 19/45/7
f 20/46/7 27/47/7 25/48/7
f 35/51/8 29/50/8 31/49/8
f 29/50/8 35/51/8 40/52/8
f 42/55/9 17/54/9 41/53/9
f 17/54/9 42/55/9 19/56/9
f 20/19/10 36/58/10 18/57/10
f 36/58/10 20/19/10 38/20/10
f 43/61/11 30/60/11 42/59/11
f 30/60/11 43/61/11 34/62/11
f 44/65/12 29/64/12 40/63/12
f 29/64/12 44/65/12 28/66/12
f 45/69/13 42/68/13 41/67/13
f 42/68/13 45/69/13 43/70/13
f 37/72/14 43/68/14 45/71/14
f 43/68/14 37/72/14 39/70/14
f 38/75/15 33/74/15 39/73/15
f 33/74/15 38/75/15 26/76/15
f 44/79/16 32/78/16 28/77/16
f 32/78/16 44/79/16 46/80/16
f 32/83/17 24/82/17 23/81/17
f 24/82/17 32/83/17 46/84/17
f 40/87/4 46/86/4 44/85/4
f 46/86/4 40/87/4 35/88/4
f 46/86/4 35/88/4 24/89/4
f 24/89/4 35/88/4 22/90/4
f 30/93/18 19/92/18 42/91/18
f 19/92/18 30/93/18 27/94/18
f 39/97/19 34/96/19 43/95/19
f 34/96/19 39/97/19 33/98/19
f 25/101/20 38/100/20 20/99/20
f 38/100/20 25/101/20 26/102/20
f 36/105/1 47/104/1 18/103/1
f 47/104/1 36/105/1 48/106/1
f 48/106/1 36/105/1 37/107/1
f 48/106/1 37/107/1 49/108/1
f 49/108/1 37/107/1 50/109/1
f 50/109/1 37/107/1 45/110/1
f 47/104/1 17/111/1 18/103/1
f 17/111/1 47/104/1 51/112/1
f 17/111/1 51/112/1 41/113/1
f 41/113/1 50/109/1 45/110/1
f 41/113/1 51/112/1 52/114/1
f 41/113/1 52/114/1 50/109/1

usemtl brownDark

f 48/106/1 51/112/1 47/104/1
f 51/112/1 48/106/1 5/5/1
f 5/5/1 48/106/1 7/7/1
f 7/7/1 48/106/1 49/108/1
f 7/7/1 49/108/1 8/8/1
f 8/8/1 49/108/1 9/9/1
f 8/8/1 9/9/1 4/4/1
f 9/9/1 49/108/1 11/11/1
f 11/11/1 49/108/1 12/12/1
f 12/12/1 49/108/1 16/16/1
f 1/1/1 51/112/1 5/5/1
f 2/2/1 51/112/1 1/1/1
f 51/112/1 2/2/1 52/114/1
f 52/114/1 2/2/1 4/4/1
f 52/114/1 16/16/1 49/108/1
f 52/114/1 4/4/1 13/13/1
f 13/13/1 4/4/1 9/9/1
f 52/114/1 13/13/1 14/14/1
f 52/114/1 14/14/1 16/16/1
f 52/114/1 49/108/1 50/109/1
f 10/10/1 13/13/1 9/9/1
f 13/13/1 10/10/1 15/15/1
f 15/15/1 10/10/1 12/12/1
f 15/15/1 12/12/1 16/16/1
f 3/3/1 8/8/1 4/4/1
f 1/1/1 6/6/1 3/3/1
f 3/3/1 6/6/1 8/8/1
f 6/6/1 1/1/1 5/5/1

