# Created by Kenney (www.kenney.nl)

mtllib shakerPepper.mtl

g shakerPepper

v -0.03229662 0.175 0.02576402
v -0.03229662 0.175 -0.02576402
v -0.02537038 0.196 0.02537038
v -0.02537038 0.196 -0.02537038
v 0.03229662 0.175 0.02576402
v 0.02537038 0.196 0.02537038
v 0.03229662 0.175 -0.02576402
v 0.02537038 0.196 -0.02537038
v 0.02576402 0.175 0.03229662
v -0.02576402 0.175 0.03229662
v -0.02576402 0.175 -0.03229662
v 0.02576402 0.175 -0.03229662
v 0.02576402 0.175 0.02576402
v 0.02576402 0.175 -0.02576402
v 0.02430568 0.154 0.02430568
v 0.02430568 0.154 -0.02430568
v -0.02430568 0.154 -0.02430568
v -0.02576402 0.175 -0.02576402
v -0.02430568 0.154 0.02430568
v -0.02576402 0.175 0.02576402
v 0.04746 0.021 -0.03358452
v 0.04746 0.133 -0.03358452
v 0.03358452 0.021 -0.04746
v 0.03358452 0.133 -0.04746
v -0.02972081 0 -0.042
v 0.02972081 0 -0.042
v -0.03358452 0.021 -0.04746
v 0.042 0.154 -0.02972081
v 0.02972081 0.154 -0.042
v 0.04746 0.133 0.03358452
v 0.042 0.154 0.02972081
v 0.04746 0.021 0.03358452
v 0.03358452 0.133 0.04746
v 0.02972081 0.154 0.042
v 0.042 0 0.02972081
v 0.042 0 -0.02972081
v 0.02972081 0 0.042
v 0.03358452 0.021 0.04746
v -0.03358452 0.133 0.04746
v -0.03358452 0.105 0.04746
v -0.04746 0.133 0.03358452
v -0.04746 0.105 0.03358452
v -0.03358452 0.021 0.04746
v -0.03358452 0.049 0.04746
v -0.03358452 0.049 -0.04746
v -0.03358452 0.105 -0.04746
v -0.03358452 0.133 -0.04746
v -0.04746 0.049 0.03358452
v -0.04746 0.021 0.03358452
v -0.04746 0.049 -0.03358452
v -0.04746 0.021 -0.03358452
v -0.02972081 0.154 0.042
v -0.04746 0.133 -0.03358452
v -0.042 0.154 0.02972081
v -0.042 0.154 -0.02972081
v -0.02972081 0 0.042
v -0.02972081 0.154 -0.042
v -0.042 0 -0.02972081
v -0.042 0 0.02972081
v -0.04746 0.105 -0.03358452

vn -0.9496793 0.313224 0
vn 0.9496793 0.313224 0
vn 0 0.313224 0.9496793
vn 0 0.313224 -0.9496793
vn 0 1 0
vn 0.9975974 -0.06927794 0
vn 0 -0.06927794 -0.9975974
vn 0 -0.06927794 0.9975974
vn -0.9975974 -0.06927794 0
vn 0 -1 0
vn -0.6865603 0.2393112 0.6865603
vn -0.6865603 0.2393112 -0.6865603
vn 0.6865603 0.2393112 -0.6865603
vn 0.6865603 0.2393112 0.6865603
vn 0.7071068 0 -0.7071068
vn 0 -0.2516339 -0.9678225
vn 0.674641 0.2995311 -0.674641
vn 0.9678225 0.2516339 0
vn 1 0 0
vn 0.674641 0.2995311 0.674641
vn 0.9678225 -0.2516339 0
vn 0.674641 -0.2995311 0.674641
vn -0.7071068 0 0.7071068
vn 0 0 1
vn 0 0 -1
vn -1 0 0
vn 0 0.2516339 0.9678225
vn -0.9678225 0.2516339 0
vn 0 -0.2516339 0.9678225
vn 0 0.2516339 -0.9678225
vn -0.674641 0.2995311 -0.674641
vn -0.674641 0.2995311 0.674641
vn 0.674641 -0.2995311 -0.674641
vn -0.674641 -0.2995311 -0.674641
vn -0.9678225 -0.2516339 0
vn -0.7071068 0 -0.7071068
vn 0.7071068 0 0.7071068
vn -0.674641 -0.2995311 0.674641

vt 1.014331 6.144795
vt -1.014331 6.144795
vt 0.998834 7.015375
vt -0.998834 7.015375
vt -0.998834 -0.998834
vt -0.998834 0.998834
vt 0.998834 -0.998834
vt 0.998834 0.998834
vt -1.014331 6.943481
vt 1.014331 6.943481
vt -0.9569165 6.114718
vt 0.9569165 6.114718
vt 1.014331 1.27152
vt 1.014331 1.014331
vt -1.014331 1.27152
vt -1.014331 1.014331
vt -1.27152 1.014331
vt -1.014331 -1.014331
vt -1.014331 -1.27152
vt -1.27152 -1.014331
vt 1.014331 -1.27152
vt 1.27152 -1.014331
vt 1.27152 1.014331
vt 1.014331 -1.014331
vt 0.18186 6.302759
vt -0.18186 6.302759
vt 9.015011E-14 7.154273
vt 6.028511E-14 7.154273
vt -6.006307E-14 7.154273
vt -9.05942E-14 7.154273
vt -1.322225 1.929134
vt -1.322225 4.133858
vt 1.322225 1.929134
vt 0.3862775 4.133858
vt 0.3862775 1.929134
vt -0.3862775 4.133858
vt -0.3862775 1.929134
vt 1.322225 4.133858

usemtl greyDark

f 3/3/1 2/2/1 1/1/1
f 2/2/1 3/3/1 4/4/1
f 7/1/2 6/4/2 5/2/2
f 6/4/2 7/1/2 8/3/2
f 6/3/3 10/2/3 9/1/3
f 10/2/3 6/3/3 3/4/3
f 4/3/4 12/2/4 11/1/4
f 12/2/4 4/3/4 8/4/4
f 6/7/5 4/6/5 3/5/5
f 4/6/5 6/7/5 8/8/5
f 15/11/6 14/10/6 13/9/6
f 14/10/6 15/11/6 16/12/6
f 18/10/7 16/11/7 17/12/7
f 16/11/7 18/10/7 14/9/7
f 13/10/8 19/11/8 15/12/8
f 19/11/8 13/10/8 20/9/8
f 18/9/9 19/12/9 20/10/9
f 19/12/9 18/9/9 17/11/9
f 12/15/10 18/14/10 11/13/10
f 18/14/10 12/15/10 14/16/10
f 14/16/10 12/15/10 7/17/10
f 14/16/10 7/17/10 13/18/10
f 13/18/10 7/17/10 9/19/10
f 9/19/10 7/17/10 5/20/10
f 10/21/10 11/13/10 18/14/10
f 10/21/10 13/18/10 9/19/10
f 1/22/10 11/13/10 10/21/10
f 11/13/10 1/22/10 2/23/10
f 10/21/10 18/14/10 20/24/10
f 10/21/10 20/24/10 13/18/10
f 3/27/11 1/26/11 10/25/11
f 11/26/12 2/25/12 4/28/12
f 12/25/13 8/29/13 7/26/13
f 6/30/14 9/26/14 5/25/14

usemtl _defaultMat

f 23/2/15 22/3/15 21/4/15
f 22/2/15 23/3/15 24/4/15
f 27/2/16 26/3/16 25/4/16
f 26/2/16 27/3/16 23/4/16
f 22/2/17 29/3/17 28/4/17
f 29/2/17 22/3/17 24/4/17
f 22/2/18 31/3/18 30/4/18
f 31/2/18 22/3/18 28/4/18
f 21/2/19 30/3/19 32/4/19
f 30/2/19 21/3/19 22/4/19
f 31/2/20 33/3/20 30/4/20
f 33/2/20 31/3/20 34/4/20
f 35/2/21 21/3/21 32/4/21
f 21/2/21 35/3/21 36/4/21
f 32/2/22 37/3/22 35/4/22
f 37/2/22 32/3/22 38/4/22
f 41/2/23 40/3/23 39/4/23
f 40/2/23 41/3/23 42/4/23
f 33/2/24 43/3/24 38/4/24
f 43/2/24 33/3/24 44/4/24
f 44/2/24 33/3/24 40/4/24
f 40/2/24 33/3/24 39/4/24
f 45/2/25 23/3/25 27/4/25
f 23/2/25 45/3/25 24/4/25
f 24/2/25 45/3/25 46/4/25
f 24/2/25 46/3/25 47/4/25
f 50/2/26 49/3/26 48/4/26
f 49/2/26 50/3/26 51/4/26
f 34/2/27 39/3/27 33/4/27
f 39/2/27 34/3/27 52/4/27
f 54/2/28 53/3/28 41/4/28
f 53/2/28 54/3/28 55/4/28
f 38/2/29 56/3/29 37/4/29
f 56/2/29 38/3/29 43/4/29
f 57/2/30 24/3/30 47/4/30
f 24/2/30 57/3/30 29/4/30
f 57/2/31 53/3/31 55/4/31
f 53/2/31 57/3/31 47/4/31
f 52/2/32 41/3/32 39/4/32
f 41/2/32 52/3/32 54/4/32
f 26/2/33 21/3/33 36/4/33
f 21/2/33 26/3/33 23/4/33
f 51/2/34 25/3/34 58/4/34
f 25/2/34 51/3/34 27/4/34
f 51/2/35 59/3/35 49/4/35
f 59/2/35 51/3/35 58/4/35
f 45/2/36 51/3/36 50/4/36
f 51/2/36 45/3/36 27/4/36
f 25/11/10 59/10/10 58/9/10
f 59/11/10 25/10/10 56/9/10
f 56/11/10 25/10/10 26/9/10
f 56/11/10 26/10/10 37/9/10
f 37/11/10 26/10/10 36/9/10
f 37/11/10 36/10/10 35/9/10
f 30/11/37 38/10/37 32/9/37
f 38/11/37 30/10/37 33/9/37
f 49/11/38 56/10/38 43/9/38
f 56/11/38 49/10/38 59/9/38
f 52/12/5 55/9/5 54/11/5
f 55/12/5 52/9/5 57/11/5
f 57/12/5 52/9/5 19/11/5
f 19/12/5 52/9/5 34/11/5
f 19/12/5 34/9/5 15/11/5
f 15/12/5 34/9/5 16/11/5
f 57/12/5 17/9/5 29/11/5
f 17/12/5 57/9/5 19/11/5
f 29/12/5 17/9/5 16/11/5
f 29/12/5 16/9/5 34/11/5
f 29/12/5 34/9/5 31/11/5
f 29/12/5 31/9/5 28/11/5
f 47/33/36 60/32/36 53/31/36
f 60/33/36 47/32/36 46/31/36
f 48/33/23 43/32/23 44/31/23
f 43/33/23 48/32/23 49/31/23
f 53/33/26 42/32/26 41/31/26
f 42/33/26 53/32/26 60/31/26

usemtl brownDark

f 46/36/36 50/35/36 60/34/36
f 50/35/36 46/36/36 45/37/36
f 42/36/23 44/35/23 40/34/23
f 44/35/23 42/36/23 48/37/23
f 60/32/26 48/33/26 42/38/26
f 48/33/26 60/32/26 50/31/26

