# Created by Kenney (www.kenney.nl)

mtllib shakerSalt.mtl

g shakerSalt

v -0.03229662 0.175 0.02576402
v -0.03229662 0.175 -0.02576402
v -0.02537038 0.196 0.02537038
v -0.02537038 0.196 -0.02537038
v 0.03229662 0.175 0.02576402
v 0.02537038 0.196 0.02537038
v 0.03229662 0.175 -0.02576402
v 0.02537038 0.196 -0.02537038
v 0.02576402 0.175 0.03229662
v -0.02576402 0.175 0.03229662
v -0.02576402 0.175 -0.03229662
v 0.02576402 0.175 -0.03229662
v 0.02576402 0.175 0.02576402
v 0.02576402 0.175 -0.02576402
v 0.02430568 0.154 0.02430568
v 0.02430568 0.154 -0.02430568
v -0.02430568 0.154 -0.02430568
v -0.02576402 0.175 -0.02576402
v -0.02430568 0.154 0.02430568
v -0.02576402 0.175 0.02576402
v 0.04746 0.021 -0.03358452
v 0.04746 0.133 -0.03358452
v 0.03358452 0.021 -0.04746
v 0.03358452 0.133 -0.04746
v -0.02972081 0 -0.042
v 0.02972081 0 -0.042
v -0.03358452 0.021 -0.04746
v 0.042 0.154 -0.02972081
v 0.02972081 0.154 -0.042
v 0.04746 0.133 0.03358452
v 0.042 0.154 0.02972081
v 0.04746 0.021 0.03358452
v 0.03358452 0.133 0.04746
v 0.02972081 0.154 0.042
v 0.042 0 0.02972081
v 0.042 0 -0.02972081
v 0.02972081 0 0.042
v 0.03358452 0.021 0.04746
v -0.03358452 0.133 0.04746
v -0.03358452 0.105 0.04746
v -0.04746 0.133 0.03358452
v -0.04746 0.105 0.03358452
v -0.03358452 0.021 0.04746
v -0.03358452 0.049 0.04746
v -0.03358452 0.049 -0.04746
v -0.03358452 0.105 -0.04746
v -0.03358452 0.133 -0.04746
v -0.04746 0.049 0.03358452
v -0.04746 0.021 0.03358452
v -0.04746 0.049 -0.03358452
v -0.04746 0.021 -0.03358452
v -0.02972081 0.154 0.042
v -0.04746 0.133 -0.03358452
v -0.042 0.154 0.02972081
v -0.042 0.154 -0.02972081
v -0.02972081 0 0.042
v -0.02972081 0.154 -0.042
v -0.042 0 -0.02972081
v -0.042 0 0.02972081
v -0.04746 0.105 -0.03358452

vn -0.9496793 0.313224 0
vn 0.9496793 0.313224 0
vn 0 0.313224 0.9496793
vn 0 0.313224 -0.9496793
vn 0 1 0
vn 0.9975974 -0.06927794 0
vn 0 -0.06927794 -0.9975974
vn 0 -0.06927794 0.9975974
vn -0.9975974 -0.06927794 0
vn 0 -1 0
vn -0.6865603 0.2393112 0.6865603
vn -0.6865603 0.2393112 -0.6865603
vn 0.6865603 0.2393112 -0.6865603
vn 0.6865603 0.2393112 0.6865603
vn 0.7071068 0 -0.7071068
vn 0 -0.2516339 -0.9678225
vn 0.674641 0.2995311 -0.674641
vn 0.9678225 0.2516339 0
vn 1 0 0
vn 0.674641 0.2995311 0.674641
vn 0.9678225 -0.2516339 0
vn 0.674641 -0.2995311 0.674641
vn -0.7071068 0 0.7071068
vn 0 0 1
vn 0 0 -1
vn -1 0 0
vn 0 0.2516339 0.9678225
vn -0.9678225 0.2516339 0
vn 0 -0.2516339 0.9678225
vn 0 0.2516339 -0.9678225
vn -0.674641 0.2995311 -0.674641
vn -0.674641 0.2995311 0.674641
vn 0.674641 -0.2995311 -0.674641
vn -0.674641 -0.2995311 -0.674641
vn -0.9678225 -0.2516339 0
vn -0.7071068 0 -0.7071068
vn 0.7071068 0 0.7071068
vn -0.674641 -0.2995311 0.674641

vt 1.014331 6.144795
vt -1.014331 6.144795
vt 0.998834 7.015375
vt -0.998834 7.015375
vt -0.998834 -0.998834
vt -0.998834 0.998834
vt 0.998834 -0.998834
vt 0.998834 0.998834
vt -1.014331 6.943481
vt 1.014331 6.943481
vt -0.9569165 6.114718
vt 0.9569165 6.114718
vt 1.014331 1.27152
vt 1.014331 1.014331
vt -1.014331 1.27152
vt -1.014331 1.014331
vt -1.27152 1.014331
vt -1.014331 -1.014331
vt -1.014331 -1.27152
vt -1.27152 -1.014331
vt 1.014331 -1.27152
vt 1.27152 -1.014331
vt 1.27152 1.014331
vt 1.014331 -1.014331
vt 0.18186 6.302759
vt -0.18186 6.302759
vt 9.037215E-14 7.154273
vt 6.028511E-14 7.154273
vt -5.984102E-14 7.154273
vt -9.05942E-14 7.154273
vt -0.3862775 0.8267717
vt -0.3862775 5.23622
vt 0.3862775 0.8267717
vt 0.3862775 5.23622
vt 1.170111 0.4160875
vt -1.170111 0.4160875
vt 1.322225 1.270347
vt -1.322225 1.270347
vt -0.3418385 5.186568
vt 0.3418385 5.186568
vt -0.3862775 4.320009
vt 0.3862775 4.320009
vt -1.322225 4.597553
vt -1.170111 5.451813
vt 1.322225 4.597553
vt 1.170111 5.451813
vt -1.322225 0.8267717
vt -1.322225 5.23622
vt 1.322225 0.8267717
vt 1.322225 5.23622
vt 0.3418385 0.5980514
vt -0.3418385 0.5980514
vt 0.3862775 1.46461
vt -0.3862775 1.46461
vt 0.3862775 4.133858
vt -0.3862775 4.133858
vt -1.322225 1.929134
vt -1.322225 4.133858
vt 1.322225 1.929134
vt 1.322225 4.133858
vt 0.3862775 1.929134
vt -0.3862775 1.929134
vt 1.653543 1.170111
vt 1.653543 -1.170111
vt 1.170111 1.653543
vt 1.170111 -1.653543
vt -1.170111 1.653543
vt -1.170111 -1.653543
vt -1.653543 1.170111
vt -1.653543 -1.170111
vt -0.9569165 -0.9569165
vt 0.9569165 -0.9569165
vt 0.9569165 0.9569165
vt -0.9569165 0.9569165

usemtl greyDark

f 3/3/1 2/2/1 1/1/1
f 2/2/1 3/3/1 4/4/1
f 7/1/2 6/4/2 5/2/2
f 6/4/2 7/1/2 8/3/2
f 6/3/3 10/2/3 9/1/3
f 10/2/3 6/3/3 3/4/3
f 4/3/4 12/2/4 11/1/4
f 12/2/4 4/3/4 8/4/4
f 6/7/5 4/6/5 3/5/5
f 4/6/5 6/7/5 8/8/5
f 15/11/6 14/10/6 13/9/6
f 14/10/6 15/11/6 16/12/6
f 18/10/7 16/11/7 17/12/7
f 16/11/7 18/10/7 14/9/7
f 13/10/8 19/11/8 15/12/8
f 19/11/8 13/10/8 20/9/8
f 18/9/9 19/12/9 20/10/9
f 19/12/9 18/9/9 17/11/9
f 12/15/10 18/14/10 11/13/10
f 18/14/10 12/15/10 14/16/10
f 14/16/10 12/15/10 7/17/10
f 14/16/10 7/17/10 13/18/10
f 13/18/10 7/17/10 9/19/10
f 9/19/10 7/17/10 5/20/10
f 10/21/10 11/13/10 18/14/10
f 10/21/10 13/18/10 9/19/10
f 1/22/10 11/13/10 10/21/10
f 11/13/10 1/22/10 2/23/10
f 10/21/10 18/14/10 20/24/10
f 10/21/10 20/24/10 13/18/10
f 3/27/11 1/26/11 10/25/11
f 11/26/12 2/25/12 4/28/12
f 12/25/13 8/29/13 7/26/13
f 6/30/14 9/26/14 5/25/14

usemtl brownDark

f 23/33/15 22/32/15 21/31/15
f 22/32/15 23/33/15 24/34/15
f 27/37/16 26/36/16 25/35/16
f 26/36/16 27/37/16 23/38/16
f 22/41/17 29/40/17 28/39/17
f 29/40/17 22/41/17 24/42/17
f 22/45/18 31/44/18 30/43/18
f 31/44/18 22/45/18 28/46/18
f 21/49/19 30/48/19 32/47/19
f 30/48/19 21/49/19 22/50/19
f 31/40/20 33/41/20 30/42/20
f 33/41/20 31/40/20 34/39/20
f 35/36/21 21/37/21 32/38/21
f 21/37/21 35/36/21 36/35/21
f 32/53/22 37/52/22 35/51/22
f 37/52/22 32/53/22 38/54/22
f 41/32/23 40/55/23 39/34/23
f 40/55/23 41/32/23 42/56/23
f 33/50/24 43/47/24 38/49/24
f 43/47/24 33/50/24 44/57/24
f 44/57/24 33/50/24 40/58/24
f 40/58/24 33/50/24 39/48/24
f 45/59/25 23/47/25 27/49/25
f 23/47/25 45/59/25 24/48/25
f 24/48/25 45/59/25 46/60/25
f 24/48/25 46/60/25 47/50/25
f 50/57/26 49/49/26 48/59/26
f 49/49/26 50/57/26 51/47/26
f 34/46/27 39/43/27 33/45/27
f 39/43/27 34/46/27 52/44/27
f 54/46/28 53/43/28 41/45/28
f 53/43/28 54/46/28 55/44/28
f 38/37/29 56/36/29 37/35/29
f 56/36/29 38/37/29 43/38/29
f 57/46/30 24/43/30 47/45/30
f 24/43/30 57/46/30 29/44/30
f 57/39/31 53/42/31 55/40/31
f 53/42/31 57/39/31 47/41/31
f 52/40/32 41/41/32 39/42/32
f 41/41/32 52/40/32 54/39/32
f 26/51/33 21/54/33 36/52/33
f 21/54/33 26/51/33 23/53/33
f 51/53/34 25/52/34 58/51/34
f 25/52/34 51/53/34 27/54/34
f 51/38/35 59/35/35 49/37/35
f 59/35/35 51/38/35 58/36/35
f 45/62/36 51/33/36 50/61/36
f 51/33/36 45/62/36 27/31/36
f 25/65/10 59/64/10 58/63/10
f 59/64/10 25/65/10 56/66/10
f 56/66/10 25/65/10 26/67/10
f 56/66/10 26/67/10 37/68/10
f 37/68/10 26/67/10 36/69/10
f 37/68/10 36/69/10 35/70/10
f 30/34/37 38/31/37 32/33/37
f 38/31/37 30/34/37 33/32/37
f 49/54/38 56/51/38 43/53/38
f 56/51/38 49/54/38 59/52/38
f 52/68/5 55/69/5 54/70/5
f 55/69/5 52/68/5 57/67/5
f 57/67/5 52/68/5 19/71/5
f 19/71/5 52/68/5 34/66/5
f 19/71/5 34/66/5 15/72/5
f 15/72/5 34/66/5 16/73/5
f 17/74/5 57/67/5 19/71/5
f 57/67/5 17/74/5 29/65/5
f 29/65/5 17/74/5 16/73/5
f 29/65/5 16/73/5 34/66/5
f 29/65/5 34/66/5 31/64/5
f 29/65/5 31/64/5 28/63/5
f 53/48/26 42/60/26 41/50/26
f 42/60/26 53/48/26 60/58/26
f 47/32/36 60/55/36 53/34/36
f 60/55/36 47/32/36 46/56/36
f 48/62/23 43/33/23 44/61/23
f 43/33/23 48/62/23 49/31/23

usemtl _defaultMat

f 60/30/26 48/26/26 42/25/26
f 48/30/26 60/26/26 50/25/26
f 46/55/36 50/32/36 60/56/36
f 50/55/36 46/32/36 45/56/36
f 42/33/23 44/62/23 40/31/23
f 44/33/23 42/62/23 48/31/23

