# Created by Kenney (www.kenney.nl)

mtllib skewer.mtl

g skewer

v -0.18835 0.04150128 -0.02
v -0.17835 0.04150128 -0.009999996
v -0.18835 0.05250128 -0.02
v -0.17835 0.05250128 -0.009999996
v -0.29835 0.04150128 -0.01999999
v -0.29835 0.04150128 0.01000001
v 0.29835 0.04150128 0.009999997
v 0.29835 0.04150128 -0.01
v -0.29835 0.05250128 -0.01999999
v -0.29835 0.05250128 0.01000001
v 0.29835 0.05250128 0.009999997
v 0.29835 0.05250128 -0.01

vn 0.7071068 0 -0.7071068
vn 0 -1 0
vn 0 1 0
vn 0 0 -1
vn -1 0 0
vn 0 0 1
vn 1 0 0

vt 5.800224 1.633909
vt 5.243447 1.633909
vt 5.800224 2.066979
vt 5.243447 2.066979
vt 11.74606 0.7874014
vt 11.74606 -0.393701
vt 7.415354 0.7874014
vt 7.021654 0.3937006
vt -11.74606 -0.3937007
vt -11.74606 0.3937009
vt -11.74606 0.7874014
vt -7.415354 0.7874014
vt -11.74606 -0.393701
vt -7.021654 0.3937006
vt 11.74606 -0.3937007
vt 11.74606 0.3937009
vt 11.74606 1.633909
vt 7.415354 1.633909
vt 11.74606 2.066979
vt 7.415354 2.066979
vt 0.3937008 2.066979
vt 0.3937008 1.633909
vt -0.7874015 2.066979
vt -0.7874015 1.633909
vt 7.021654 1.633909
vt -11.74606 1.633909
vt 7.021654 2.066979
vt -11.74606 2.066979
vt -0.3937008 1.633909
vt -0.3937008 2.066979
vt 0.3937007 1.633909
vt 0.3937007 2.066979

usemtl brownLight

f 3/3/1 2/2/1 1/1/1
f 2/2/1 3/3/1 4/4/1
f 1/7/2 6/6/2 5/5/2
f 6/6/2 1/7/2 2/8/2
f 6/6/2 2/8/2 7/9/2
f 7/9/2 2/8/2 8/10/2
f 10/13/3 3/12/3 9/11/3
f 3/12/3 10/13/3 4/14/3
f 4/14/3 10/13/3 11/15/3
f 4/14/3 11/15/3 12/16/3
f 9/19/4 1/18/4 5/17/4
f 1/18/4 9/19/4 3/20/4
f 9/23/5 6/22/5 10/21/5
f 6/22/5 9/23/5 5/24/5
f 4/27/4 8/26/4 2/25/4
f 8/26/4 4/27/4 12/28/4
f 11/19/6 6/26/6 7/17/6
f 6/26/6 11/19/6 10/28/6
f 8/31/7 11/30/7 7/29/7
f 11/30/7 8/31/7 12/32/7

g meat

v 0.036042 0.01342894 0.019383
v 0.036042 0.01342894 -0.01938301
v 0.03604199 0.04700128 0.038766
v 0.036042 0.04700128 -0.03876601
v 0.036042 0.08057362 0.019383
v 0.036042 0.08057362 -0.01938301
v 0.129226 0.01342894 -0.019383
v 0.129226 0.01342894 0.01938301
v 0.129226 0.04700128 -0.038766
v 0.129226 0.04700128 0.03876601
v 0.129226 0.08057362 -0.019383
v 0.129226 0.08057362 0.01938301
v 0.082634 0 -0.0271362
v 0.082634 0 0.0271362
v 0.08263399 0.04700128 0.05427241
v 0.082634 0.09400255 0.0271362
v 0.082634 0.09400255 -0.0271362
v 0.08263401 0.04700128 -0.05427241

vn -1.654016 0 -2.384186E-07
vn 1.654016 0 2.384186E-07
vn 0.5724933 -1.212328 5.960464E-08
vn 0.5724932 0.6061639 1.049907
vn 0.5724933 1.212328 5.960464E-08
vn 0.5724932 -0.6061639 1.049907
vn 0.5724934 -0.6061639 -1.049907
vn 0.5724934 0.6061639 -1.049907
vn -0.5724932 -0.6061639 -1.049907
vn -0.5724933 -1.212328 -5.960464E-08
vn -0.5724934 -0.6061639 1.049907
vn -0.5724934 0.6061639 1.049907
vn -0.5724933 1.212328 -5.960464E-08
vn -0.5724932 0.6061639 -1.049907

vt 0.5905512 0.4091459
vt -0.5905512 0.4091459
vt 1.181102 1.432011
vt -1.181102 1.432011
vt 0.5905512 2.454875
vt -0.5905512 2.454875
vt 0.8267717 -1.650588E-15
vt -0.8267717 -1.682529E-15
vt 0.5905512 1.182082
vt -0.5905512 1.182082
vt -0.6480563 0.5510629
vt -0.3240281 2.172547
vt 0.557397 0.5510629
vt 0.7888457 1.709266
vt 0.8267717 0.9913039
vt 0.5905512 -0.1907779
vt -0.8267717 0.9913039
vt -0.5905512 -0.1907779
vt -0.3240281 0.3568071
vt -0.6480563 1.978291
vt 0.7888457 0.8200883
vt 0.557397 1.978291
vt 0.6480563 1.978291
vt 0.3240281 0.3568071
vt -0.557397 1.978291
vt -0.7888457 0.8200883
vt 0.3240281 2.172547
vt 0.6480563 0.5510629
vt -0.7888457 1.709266
vt -0.557397 0.5510629
vt -0.8267717 1.682529E-15
vt 0.8267717 1.650588E-15

usemtl brownDark

f 15/35/8 14/34/8 13/33/8
f 14/34/8 15/35/8 16/36/8
f 16/36/8 15/35/8 17/37/8
f 16/36/8 17/37/8 18/38/8
f 21/35/9 20/34/9 19/33/9
f 20/34/9 21/35/9 22/36/9
f 22/36/9 21/35/9 23/37/9
f 22/36/9 23/37/9 24/38/9
f 19/41/10 26/40/10 25/39/10
f 26/40/10 19/41/10 20/42/10
f 22/45/11 28/44/11 27/43/11
f 28/44/11 22/45/11 24/46/11
f 28/49/12 23/48/12 29/47/12
f 23/48/12 28/49/12 24/50/12
f 20/53/13 27/52/13 26/51/13
f 27/52/13 20/53/13 22/54/13
f 21/57/14 25/56/14 30/55/14
f 25/56/14 21/57/14 19/58/14
f 23/61/15 30/60/15 29/59/15
f 30/60/15 23/61/15 21/62/15
f 30/52/16 14/53/16 16/54/16
f 14/53/16 30/52/16 25/51/16
f 26/64/17 14/42/17 25/63/17
f 14/42/17 26/64/17 13/41/17
f 26/56/18 15/57/18 13/58/18
f 15/57/18 26/56/18 27/55/18
f 15/62/19 28/59/19 17/61/19
f 28/59/19 15/62/19 27/60/19
f 18/50/20 28/47/20 29/49/20
f 28/47/20 18/50/20 17/48/20
f 29/44/21 16/45/21 18/46/21
f 16/45/21 29/44/21 30/43/21

g meat

v 0.169226 0.01342894 0.019383
v 0.169226 0.01342894 -0.01938301
v 0.169226 0.04700128 0.038766
v 0.169226 0.04700128 -0.03876601
v 0.169226 0.08057362 0.019383
v 0.169226 0.08057362 -0.01938301
v 0.26241 0.01342894 -0.019383
v 0.26241 0.01342894 0.019383
v 0.26241 0.04700128 -0.03876601
v 0.26241 0.04700128 0.038766
v 0.26241 0.08057362 -0.019383
v 0.26241 0.08057362 0.019383
v 0.215818 0 -0.0271362
v 0.215818 0 0.0271362
v 0.215818 0.04700128 0.0542724
v 0.215818 0.09400255 0.0271362
v 0.215818 0.09400255 -0.0271362
v 0.215818 0.04700128 -0.05427241



usemtl brownDark

f 33/35/8 32/34/8 31/33/8
f 32/34/8 33/35/8 34/36/8
f 34/36/8 33/35/8 35/37/8
f 34/36/8 35/37/8 36/38/8
f 39/35/9 38/34/9 37/33/9
f 38/34/9 39/35/9 40/36/9
f 40/36/9 39/35/9 41/37/9
f 40/36/9 41/37/9 42/38/9
f 37/41/10 44/40/10 43/39/10
f 44/40/10 37/41/10 38/42/10
f 40/45/11 46/44/11 45/43/11
f 46/44/11 40/45/11 42/46/11
f 46/49/12 41/48/12 47/47/12
f 41/48/12 46/49/12 42/50/12
f 38/53/13 45/52/13 44/51/13
f 45/52/13 38/53/13 40/54/13
f 39/57/14 43/56/14 48/55/14
f 43/56/14 39/57/14 37/58/14
f 41/61/15 48/60/15 47/59/15
f 48/60/15 41/61/15 39/62/15
f 48/52/16 32/53/16 34/54/16
f 32/53/16 48/52/16 43/51/16
f 44/64/17 32/42/17 43/63/17
f 32/42/17 44/64/17 31/41/17
f 44/56/18 33/57/18 31/58/18
f 33/57/18 44/56/18 45/55/18
f 33/62/19 46/59/19 35/61/19
f 46/59/19 33/62/19 45/60/19
f 36/50/20 46/47/20 47/49/20
f 46/47/20 36/50/20 35/48/20
f 47/44/21 34/45/21 36/46/21
f 34/45/21 47/44/21 48/43/21

g meat

v -0.097142 0.01342894 0.019383
v -0.097142 0.01342894 -0.019383
v -0.09714201 0.04700128 0.03876601
v -0.097142 0.04700128 -0.038766
v -0.097142 0.08057362 0.019383
v -0.097142 0.08057362 -0.019383
v -0.003957994 0.01342894 -0.019383
v -0.003957994 0.01342894 0.01938301
v -0.003957991 0.04700128 -0.038766
v -0.003957998 0.04700128 0.03876601
v -0.003957994 0.08057362 -0.019383
v -0.003957994 0.08057362 0.01938301
v -0.05055 1.127987E-17 -0.0271362
v -0.05055 1.127987E-17 0.0271362
v -0.05055001 0.04700128 0.05427241
v -0.05055 0.09400255 0.0271362
v -0.05055 0.09400255 -0.0271362
v -0.05054999 0.04700128 -0.0542724



usemtl brownDark

f 51/35/8 50/34/8 49/33/8
f 50/34/8 51/35/8 52/36/8
f 52/36/8 51/35/8 53/37/8
f 52/36/8 53/37/8 54/38/8
f 57/35/9 56/34/9 55/33/9
f 56/34/9 57/35/9 58/36/9
f 58/36/9 57/35/9 59/37/9
f 58/36/9 59/37/9 60/38/9
f 55/41/10 62/40/10 61/39/10
f 62/40/10 55/41/10 56/42/10
f 58/45/11 64/44/11 63/43/11
f 64/44/11 58/45/11 60/46/11
f 64/49/12 59/48/12 65/47/12
f 59/48/12 64/49/12 60/50/12
f 56/53/13 63/52/13 62/51/13
f 63/52/13 56/53/13 58/54/13
f 57/57/14 61/56/14 66/55/14
f 61/56/14 57/57/14 55/58/14
f 59/61/15 66/60/15 65/59/15
f 66/60/15 59/61/15 57/62/15
f 66/52/16 50/53/16 52/54/16
f 50/53/16 66/52/16 61/51/16
f 62/64/17 50/42/17 61/63/17
f 50/42/17 62/64/17 49/41/17
f 62/56/18 51/57/18 49/58/18
f 51/57/18 62/56/18 63/55/18
f 51/62/19 64/59/19 53/61/19
f 64/59/19 51/62/19 63/60/19
f 54/50/20 64/47/20 65/49/20
f 64/47/20 54/50/20 53/48/20
f 65/44/21 52/45/21 54/46/21
f 52/45/21 65/44/21 66/43/21

