# Created by Kenney (www.kenney.nl)

mtllib soda.mtl

g soda

v 0.1141669 0.2814473 1.804779E-16
v 0.08072817 0.2814473 -0.08072817
v 0.09593855 0.034 -1.804779E-16
v 0.0678388 0.034 -0.0678388
v 0.08072817 0.2814473 0.08072817
v 0.0678388 0.034 0.0678388
v 1.804779E-16 0.034 0.09593855
v -0.0678388 0.034 0.0678388
v 5.414336E-16 0.2814473 0.1141669
v -0.08072817 0.2814473 0.08072817
v 5.414336E-16 0.034 -0.09593855
v 1.263345E-15 0.2814473 -0.1141669
v -0.0678388 0.034 -0.0678388
v -0.08072817 0.2814473 -0.08072817
v -0.1141669 0.2814473 1.804779E-16
v -0.09593855 0.034 -1.804779E-16
v -0.0081 0.4324473 0.0081
v -0.0081 0.4324473 -0.0081
v 0.0081 0.4324473 0.0081
v 0.0081 0.4324473 -0.0081
v -0.005699006 0.3424473 0.005699006
v -0.005699006 0.3424473 -0.005699006
v 0.005699006 0.3424473 0.005699006
v 0.005699006 0.3424473 -0.005699006
v 1.804779E-16 0 0.0765
v -0.05409367 0 0.05409367
v 1.804779E-16 0.034 0.08261999
v -0.05842116 0.034 0.05842116
v -0.1270344 0.3069473 1.804779E-16
v -0.1141669 0.3069473 1.804779E-16
v -0.08982689 0.3069473 -0.08982689
v -0.08072817 0.3069473 -0.08072817
v 1.624301E-15 0.3069473 -0.1270344
v 1.263345E-15 0.3069473 -0.1141669
v 0.08072817 0.3069473 -0.08072817
v 0.08982689 0.3069473 -0.08982689
v 0.1141669 0.3069473 1.804779E-16
v 0.1270344 0.3069473 1.804779E-16
v -0.08982689 0.3069473 0.08982689
v -0.08072817 0.3069473 0.08072817
v 5.414336E-16 0.3069473 0.1270344
v 5.414336E-16 0.3069473 0.1141669
v 0.08072817 0.3069473 0.08072817
v 0.08982689 0.3069473 0.08982689
v 0.05395135 0.3239473 -0.05395135
v 0.06061949 0.3324473 -0.06061949
v 0.07629872 0.3239473 1.804779E-16
v 0.0857289 0.3324473 1.804779E-16
v -0.0857289 0.3324473 1.804779E-16
v -0.06061949 0.3324473 -0.06061949
v -0.07629872 0.3239473 1.804779E-16
v -0.05395135 0.3239473 -0.05395135
v -0.06061949 0.3324473 0.06061949
v -0.05395135 0.3239473 0.05395135
v 5.414336E-16 0.3324473 0.0857289
v 9.023893E-16 0.3239473 0.07629872
v 1.624301E-15 0.3324473 -0.0857289
v 1.624301E-15 0.3239473 -0.07629872
v 0.06061949 0.3324473 0.06061949
v 0.05395135 0.3239473 0.05395135
v -0.04348221 0.3424473 -1.804779E-16
v -0.03074657 0.3424473 -0.03074657
v -0.03074657 0.3424473 0.03074657
v 1.263345E-15 0.3424473 0.04348221
v 0.03074657 0.3424473 0.03074657
v 1.624301E-15 0.3424473 -0.04348221
v 0.03074657 0.3424473 -0.03074657
v 0.04348221 0.3424473 -1.804779E-16
v -0.08533555 0.3324473 0.08533555
v -0.1206827 0.3324473 1.804779E-16
v -0.08533555 0.3324473 -0.08533555
v 1.624301E-15 0.3324473 -0.1206827
v 0.08533555 0.3324473 0.08533555
v 0.1206827 0.3324473 1.804779E-16
v 1.804779E-16 0 -0.0765
v 0.05409367 0 -0.05409367
v 1.804779E-16 0.034 -0.08261999
v 0.05842116 0.034 -0.05842116
v 0.08533555 0.3324473 -0.08533555
v 5.414336E-16 0.3324473 0.1206827
v -0.05409367 0 -0.05409367
v -0.05842116 0.034 -0.05842116
v -0.08261999 0.034 -1.804779E-16
v -0.0765 0 -1.804779E-16
v 0.0765 0 -1.804779E-16
v 0.08261999 0.034 -1.804779E-16
v 0.05842116 0.034 0.05842116
v 0.05409367 0 0.05409367
v -0.05728541 0.3239473 -1.804779E-16
v -0.04050691 0.3239473 0.04050691
v 1.263345E-15 0.3239473 0.05728541
v 0.04050691 0.3239473 0.04050691
v 0.05728541 0.3239473 -1.804779E-16
v -0.04050691 0.3239473 -0.04050691
v 1.985256E-15 0.3239473 -0.05728541
v 0.04050691 0.3239473 -0.04050691

vn 0.9217473 -0.06790096 -0.3818003
vn 0.9217473 -0.06790096 0.3818003
vn -0.3818003 -0.06790096 0.9217473
vn 0.3818003 -0.06790096 -0.9217473
vn -0.3818003 -0.06790096 -0.9217473
vn 0.3818003 -0.06790096 0.9217473
vn -0.9217473 -0.06790096 -0.3818003
vn -0.9217473 -0.06790096 0.3818003
vn 0 1 0
vn -0.9996444 -0.02666822 0
vn 0 -0.02666822 0.9996444
vn 0 -0.02666822 -0.9996444
vn 0.9996444 -0.02666822 0
vn -0.3774992 -0.1640454 0.9113636
vn 0 -1 0
vn -0.6451728 0.7157759 0.2672393
vn 0.6451728 0.7157759 0.2672393
vn 0.2672393 0.7157759 -0.6451728
vn 0.2672393 0.7157759 0.6451728
vn 0.6451728 0.7157759 -0.2672393
vn -0.2672393 0.7157759 -0.6451728
vn -0.2672393 0.7157759 0.6451728
vn -0.6451728 0.7157759 -0.2672393
vn -0.9003468 0.2242647 0.3729359
vn -0.3729359 0.2242647 -0.9003468
vn -0.9003468 0.2242647 -0.3729359
vn 0.9003468 0.2242647 0.3729359
vn 0.3774992 -0.1640454 -0.9113636
vn 0.3729359 0.2242647 -0.9003468
vn 0.9003468 0.2242647 -0.3729359
vn -0.3729359 0.2242647 0.9003468
vn -0.3774992 -0.1640454 -0.9113636
vn 0.3729359 0.2242647 0.9003468
vn -0.9113636 -0.1640454 0.3774992
vn 0.9113636 -0.1640454 -0.3774992
vn 0.9113636 -0.1640454 0.3774992
vn -0.9113636 -0.1640454 -0.3774992
vn -0.3826834 0 -0.9238795
vn 0.3826834 0 -0.9238795
vn -0.9238795 0 0.3826834
vn 0.3826834 0 0.9238795
vn 0.9238795 0 0.3826834
vn 0.3774992 -0.1640454 0.9113636
vn 0.9238795 0 -0.3826834
vn -0.3826834 0 0.9238795
vn -0.9238795 0 -0.3826834
vn -0.3150786 0.5675482 0.7606671
vn 0.3150786 0.5675482 -0.7606671
vn 0.7606671 0.5675482 0.3150786
vn -0.7606671 0.5675482 -0.3150786
vn 0.7606671 0.5675482 -0.3150786
vn -0.3150786 0.5675482 -0.7606671
vn -0.7606671 0.5675482 0.3150786
vn 0.3150786 0.5675482 0.7606671

vt -1.72007 11.33699
vt 1.72007 11.33699
vt -1.445437 1.57244
vt 1.445437 1.57244
vt -0.3188976 -0.3188976
vt -0.3188976 0.3188976
vt 0.3188976 -0.3188976
vt 0.3188976 0.3188976
vt 0.3188976 17.02793
vt 0.2243703 13.48336
vt -0.3188976 17.02793
vt -0.2243703 13.48336

usemtl purple

f 3/3/1 2/2/1 1/1/1
f 2/2/1 3/3/1 4/4/1
f 6/3/2 1/2/2 5/1/2
f 1/2/2 6/3/2 3/4/2
f 9/2/3 8/3/3 7/4/3
f 8/3/3 9/2/3 10/1/3
f 12/2/4 4/3/4 11/4/4
f 4/3/4 12/2/4 2/1/4
f 14/2/5 11/3/5 13/4/5
f 11/3/5 14/2/5 12/1/5
f 5/2/6 7/3/6 6/4/6
f 7/3/6 5/2/6 9/1/6
f 14/1/7 16/4/7 15/2/7
f 16/4/7 14/1/7 13/3/7
f 15/1/8 8/4/8 10/2/8
f 8/4/8 15/1/8 16/3/8
f 19/7/9 18/6/9 17/5/9
f 18/6/9 19/7/9 20/8/9
f 18/11/10 21/10/10 17/9/10
f 21/10/10 18/11/10 22/12/10
f 19/9/11 21/12/11 23/10/11
f 21/12/11 19/9/11 17/11/11
f 18/9/12 24/12/12 22/10/12
f 24/12/12 18/9/12 20/11/12
f 23/12/13 20/9/13 19/11/13
f 20/9/13 23/12/13 24/10/13

usemtl _defaultMat

f 27/3/14 26/2/14 25/1/14
f 26/3/14 27/2/14 28/1/14
f 31/4/15 30/1/15 29/3/15
f 30/4/15 31/1/15 32/3/15
f 32/4/15 31/1/15 33/3/15
f 32/4/15 33/1/15 34/3/15
f 34/4/15 33/1/15 35/3/15
f 35/4/15 33/1/15 36/3/15
f 35/4/15 36/1/15 37/3/15
f 37/4/15 36/1/15 38/3/15
f 30/4/15 39/1/15 29/3/15
f 39/4/15 30/1/15 40/3/15
f 39/4/15 40/1/15 41/3/15
f 41/4/15 40/1/15 42/3/15
f 41/4/15 42/1/15 43/3/15
f 41/4/15 43/1/15 44/3/15
f 44/4/15 43/1/15 37/3/15
f 44/4/15 37/1/15 38/3/15
f 47/4/16 46/1/16 45/3/16
f 46/4/16 47/1/16 48/3/16
f 51/4/17 50/1/17 49/3/17
f 50/4/17 51/1/17 52/3/17
f 55/4/18 54/1/18 53/3/18
f 54/4/18 55/1/18 56/3/18
f 52/4/19 57/1/19 50/3/19
f 57/4/19 52/1/19 58/3/19
f 53/4/20 51/1/20 49/3/20
f 51/4/20 53/1/20 54/3/20
f 59/4/21 56/1/21 55/3/21
f 56/4/21 59/1/21 60/3/21
f 45/4/22 57/1/22 58/3/22
f 57/4/22 45/1/22 46/3/22
f 59/4/23 47/1/23 60/3/23
f 47/4/23 59/1/23 48/3/23
f 63/4/9 62/1/9 61/3/9
f 62/4/9 63/1/9 64/3/9
f 62/4/9 64/1/9 21/3/9
f 21/4/9 64/1/9 23/3/9
f 23/4/9 64/1/9 65/3/9
f 23/4/9 65/1/9 24/3/9
f 62/4/9 22/1/9 66/3/9
f 22/4/9 62/1/9 21/3/9
f 66/4/9 22/1/9 24/3/9
f 66/4/9 24/1/9 67/3/9
f 67/4/9 24/1/9 65/3/9
f 67/4/9 65/1/9 68/3/9
f 69/4/24 29/1/24 39/3/24
f 29/4/24 69/1/24 70/3/24
f 71/4/25 33/1/25 31/3/25
f 33/4/25 71/1/25 72/3/25
f 71/4/26 29/1/26 70/3/26
f 29/4/26 71/1/26 31/3/26
f 38/4/27 73/1/27 44/3/27
f 73/4/27 38/1/27 74/3/27
f 77/4/28 76/1/28 75/3/28
f 76/4/28 77/1/28 78/3/28
f 72/4/29 36/1/29 33/3/29
f 36/4/29 72/1/29 79/3/29
f 36/4/30 74/1/30 38/3/30
f 74/4/30 36/1/30 79/3/30
f 80/4/31 39/1/31 41/3/31
f 39/4/31 80/1/31 69/3/31
f 82/4/32 75/1/32 81/3/32
f 75/4/32 82/1/32 77/3/32
f 73/4/33 41/1/33 44/3/33
f 41/4/33 73/1/33 80/3/33
f 83/4/34 26/1/34 28/3/34
f 26/4/34 83/1/34 84/3/34
f 76/4/35 86/1/35 85/3/35
f 86/4/35 76/1/35 78/3/35
f 88/4/36 86/1/36 87/3/36
f 86/4/36 88/1/36 85/3/36
f 82/4/37 84/1/37 83/3/37
f 84/4/37 82/1/37 81/3/37
f 32/4/38 12/1/38 14/3/38
f 12/4/38 32/1/38 34/3/38
f 34/4/39 2/1/39 12/3/39
f 2/4/39 34/1/39 35/3/39
f 30/4/40 10/1/40 40/3/40
f 10/4/40 30/1/40 15/3/40
f 43/4/41 9/1/41 5/3/41
f 9/4/41 43/1/41 42/3/41
f 1/4/42 43/1/42 5/3/42
f 43/4/42 1/1/42 37/3/42
f 69/4/9 49/1/9 70/3/9
f 49/4/9 69/1/9 53/3/9
f 53/4/9 69/1/9 80/3/9
f 53/4/9 80/1/9 55/3/9
f 55/4/9 80/1/9 73/3/9
f 55/4/9 73/1/9 59/3/9
f 59/4/9 73/1/9 48/3/9
f 48/4/9 73/1/9 74/3/9
f 49/4/9 71/1/9 70/3/9
f 71/4/9 49/1/9 50/3/9
f 71/4/9 50/1/9 72/3/9
f 72/4/9 50/1/9 57/3/9
f 72/4/9 57/1/9 46/3/9
f 72/4/9 46/1/9 79/3/9
f 79/4/9 46/1/9 48/3/9
f 79/4/9 48/1/9 74/3/9
f 87/4/43 25/1/43 88/3/43
f 25/4/43 87/1/43 27/3/43
f 2/4/44 37/1/44 1/3/44
f 37/4/44 2/1/44 35/3/44
f 42/4/45 10/1/45 9/3/45
f 10/4/45 42/1/45 40/3/45
f 32/4/46 15/1/46 30/3/46
f 15/4/46 32/1/46 14/3/46
f 13/4/15 83/1/15 16/3/15
f 83/4/15 13/1/15 82/3/15
f 82/4/15 13/1/15 11/3/15
f 82/4/15 11/1/15 77/3/15
f 77/4/15 11/1/15 78/3/15
f 78/4/15 11/1/15 4/3/15
f 78/4/15 4/1/15 86/3/15
f 86/4/15 4/1/15 3/3/15
f 83/4/15 8/1/15 16/3/15
f 8/4/15 83/1/15 28/3/15
f 8/4/15 28/1/15 7/3/15
f 7/4/15 28/1/15 27/3/15
f 7/4/15 27/1/15 87/3/15
f 7/4/15 87/1/15 6/3/15
f 6/4/15 87/1/15 86/3/15
f 6/4/15 86/1/15 3/3/15
f 81/4/15 26/1/15 84/3/15
f 26/4/15 81/1/15 75/3/15
f 26/4/15 75/1/15 25/3/15
f 25/4/15 75/1/15 76/3/15
f 25/4/15 76/1/15 88/3/15
f 88/4/15 76/1/15 85/3/15
f 54/9/9 89/12/9 51/10/9
f 89/9/9 54/12/9 90/10/9
f 90/9/9 54/12/9 56/10/9
f 90/9/9 56/12/9 91/10/9
f 91/9/9 56/12/9 60/10/9
f 91/9/9 60/12/9 92/10/9
f 92/9/9 60/12/9 93/10/9
f 93/9/9 60/12/9 47/10/9
f 89/9/9 52/12/9 51/10/9
f 52/9/9 89/12/9 94/10/9
f 52/9/9 94/12/9 58/10/9
f 58/9/9 94/12/9 95/10/9
f 58/9/9 95/12/9 45/10/9
f 45/9/9 95/12/9 96/10/9
f 45/9/9 96/12/9 93/10/9
f 45/9/9 93/12/9 47/10/9
f 64/9/47 90/12/47 91/10/47
f 90/9/47 64/12/47 63/10/47
f 66/9/48 96/12/48 95/10/48
f 96/9/48 66/12/48 67/10/48
f 93/9/49 65/12/49 92/10/49
f 65/9/49 93/12/49 68/10/49
f 62/9/50 89/12/50 61/10/50
f 89/9/50 62/12/50 94/10/50
f 96/9/51 68/12/51 93/10/51
f 68/9/51 96/12/51 67/10/51
f 62/9/52 95/12/52 94/10/52
f 95/9/52 62/12/52 66/10/52
f 63/9/53 89/12/53 90/10/53
f 89/9/53 63/12/53 61/10/53
f 65/9/54 91/12/54 92/10/54
f 91/9/54 65/12/54 64/10/54

