# Created by Kenney (www.kenney.nl)

mtllib sodaGlass.mtl

g sodaGlass

v -0.11 0 -7.219114E-16
v -0.055 0 0.0952628
v -0.055 0 -0.0952628
v 0.055 0 -0.0952628
v 0.055 0 0.0952628
v 0.11 0 -7.219114E-16
v -0.055 0.03 0.0952628
v -0.11 0.03 -7.219114E-16
v -0.06545 0.34 0.1133627
v -0.06220099 0.2436178 0.1077353
v -0.1309 0.34 0
v -0.1241205 0.2394432 0
v 0.06220099 0.2436178 0.1077353
v 0.06545 0.34 0.1133627
v -0.06545 0.34 -0.1133627
v -0.06220099 0.2436178 -0.1077353
v -0.1088848 0.34 0
v -0.05444242 0.34 0.09429704
v 0.05444242 0.34 0.09429704
v 0.1088848 0.34 0
v 0.1309 0.34 0
v -0.05444242 0.34 -0.09429704
v 0.06545 0.34 -0.1133627
v 0.05444242 0.34 -0.09429704
v -0.055 0.03 -0.0952628
v 0.055 0.03 -0.0952628
v 0.055 0.03 0.0952628
v 0.11 0.03 -7.219114E-16
v 0.124402 0.2436178 0
v -0.09690751 0.28 1.443823E-15
v -0.04845376 0.28 -0.08392437
v 0.04845376 0.28 0.08392437
v 0.09690751 0.28 1.443823E-15
v -0.04845376 0.28 0.08392437
v 0.04845376 0.28 -0.08392437
v 0.06220099 0.2436178 -0.1077353

vn 0 -1 0
vn -0.8660254 0 0.5
vn -0.864553 -0.0582876 0.4991499
vn 0 -0.05828761 0.9982999
vn -0.864553 -0.0582876 -0.4991499
vn 0 1 0
vn 0 0 -1
vn 0 0 1
vn 0.8660254 0 0.5
vn -0.8660254 0 -0.5
vn 0.8660254 0 -0.5
vn 0.864553 -0.0582876 0.4991499
vn 0.8533671 0.170351 0.4926917
vn -0.8533671 0.170351 -0.4926917
vn 0.8533671 0.170351 -0.4926917
vn 0 0.170351 0.9853835
vn 0 -0.05828761 -0.9982999
vn 0 0.170351 -0.9853835
vn -0.8533671 0.170351 0.4926917
vn 0.864553 -0.0582876 -0.4991499

vt 0 0
vt 3.815256 -5.684342E-14
vt 1.907628 -3.304109
vt 1.907628 3.304109
vt -2.165354 1.397702
vt -2.443317 9.65754
vt 2.165354 1.397702
vt -2.448858 9.822174
vt 2.448858 9.822174
vt -3.815256 -5.684342E-14
vt -1.907628 3.304109
vt -1.907628 -3.304109
vt 2.443317 9.65754

usemtl _defaultMat

f 3/1/1 2/1/1 1/1/1
f 2/1/1 3/1/1 4/1/1
f 2/1/1 4/1/1 5/1/1
f 5/1/1 4/1/1 6/1/1
f 8/4/2 2/3/2 7/2/2
f 2/4/2 8/3/2 1/2/2
f 11/7/3 10/6/3 9/5/3
f 10/7/3 11/6/3 12/5/3
f 14/7/4 10/6/4 13/5/4
f 10/7/4 14/6/4 9/5/4
f 15/5/5 12/9/5 11/8/5
f 12/5/5 15/9/5 16/8/5
f 9/5/6 17/9/6 11/8/6
f 17/5/6 9/9/6 18/8/6
f 18/5/6 9/9/6 14/8/6
f 18/5/6 14/9/6 19/8/6
f 19/5/6 14/9/6 20/8/6
f 20/5/6 14/9/6 21/8/6
f 17/5/6 15/9/6 11/8/6
f 15/5/6 17/9/6 22/8/6
f 15/5/6 22/9/6 23/8/6
f 23/5/6 22/9/6 24/8/6
f 23/5/6 20/9/6 21/8/6
f 23/5/6 24/9/6 20/8/6
f 25/9/7 4/5/7 3/7/7
f 4/9/7 25/5/7 26/7/7
f 27/9/8 2/5/8 5/7/8
f 2/9/8 27/5/8 7/7/8
f 6/9/9 27/5/9 5/7/9
f 27/9/9 6/5/9 28/7/9
f 25/9/10 1/5/10 8/7/10
f 1/9/10 25/5/10 3/7/10
f 4/9/11 28/5/11 6/7/11
f 28/9/11 4/5/11 26/7/11
f 13/9/12 21/5/12 14/7/12
f 21/9/12 13/5/12 29/7/12
f 31/9/13 17/5/13 30/7/13
f 17/9/13 31/5/13 22/7/13
f 20/7/14 32/8/14 19/5/14
f 32/7/14 20/8/14 33/5/14
f 34/7/15 17/8/15 18/5/15
f 17/7/15 34/8/15 30/5/15
f 24/7/16 31/8/16 35/5/16
f 31/7/16 24/8/16 22/5/16
f 15/7/17 36/8/17 16/5/17
f 36/7/17 15/8/17 23/5/17
f 18/7/18 32/8/18 34/5/18
f 32/7/18 18/8/18 19/5/18
f 20/7/19 35/8/19 33/5/19
f 35/7/19 20/8/19 24/5/19
f 36/7/20 21/8/20 29/5/20
f 21/7/20 36/8/20 23/5/20

usemtl purple

f 34/12/6 31/11/6 30/10/6
f 31/11/6 34/12/6 32/3/6
f 31/11/6 32/3/6 35/4/6
f 35/4/6 32/3/6 33/2/6
f 13/9/4 7/5/4 27/7/4
f 7/5/4 13/9/4 10/8/4
f 12/6/3 7/7/3 10/9/3
f 7/7/3 12/6/3 8/5/3
f 27/5/12 29/9/12 13/8/12
f 29/9/12 27/5/12 28/7/12
f 16/9/17 26/5/17 25/7/17
f 26/5/17 16/9/17 36/8/17
f 28/5/20 36/9/20 29/8/20
f 36/9/20 28/5/20 26/7/20
f 16/8/5 8/7/5 12/13/5
f 8/7/5 16/8/5 25/5/5

g lemon

v -0.015 0.270718 0.1433627
v 0.01500001 0.270718 0.1433627
v -0.015 0.270718 0.06336272
v 0.01500001 0.270718 0.06336272
v -0.015 0.291353 0.1314491
v -0.015 0.34 0.1833627
v -0.015 0.34 0.1595355
v -0.01500001 0.409282 0.1433627
v -0.01500001 0.388647 0.1314491
v -0.01500001 0.388647 0.07527635
v -0.015 0.291353 0.07527635
v -0.015 0.34 0.02336272
v -0.015 0.34 0.04718997
v -0.01500001 0.409282 0.06336272
v 0.015 0.34 0.02336272
v 0.015 0.409282 0.06336272
v 0.015 0.409282 0.1433627
v 0.015 0.34 0.1833627
v 0.01500001 0.291353 0.07527635
v 0.015 0.34 0.04718997
v 0.015 0.388647 0.07527635
v 0.015 0.388647 0.1314491
v 0.01500001 0.291353 0.1314491
v 0.015 0.34 0.1595355

vn 1.192093E-07 -1 0
vn -1 -1.192093E-07 0
vn -5.960464E-08 0.5000001 -0.8660254
vn -1.192093E-07 1 0
vn 5.960464E-08 -0.5000001 -0.8660254
vn 5.960464E-08 -0.5000001 0.8660254
vn -5.960464E-08 0.5000001 0.8660254
vn 1 1.192093E-07 0

vt 1.574803 0.5905512
vt 1.574803 -0.5905512
vt -1.574803 0.5905512
vt -1.574803 -0.5905512
vt -2.727639 1.574803
vt -1.915237 -1.105763
vt -2.727639 -1.574803
vt 0 -3.149606
vt 0 -2.211525
vt 2.727639 -1.574803
vt 1.915237 -1.105763
vt 1.915237 1.105763
vt -1.915237 1.105763
vt 0 3.149606
vt 0 2.211525
vt 2.727639 1.574803
vt 3.114357E-15 3.149606
vt 3.114357E-15 2.211525
vt 3.114357E-15 -3.149606
vt 3.114357E-15 -2.211525

usemtl yellow

f 39/16/21 38/15/21 37/14/21
f 38/15/21 39/16/21 40/17/21
f 37/20/22 41/19/22 39/18/22
f 41/19/22 37/20/22 42/21/22
f 41/19/22 42/21/22 43/22/22
f 43/22/22 42/21/22 44/23/22
f 43/22/22 44/23/22 45/24/22
f 45/24/22 44/23/22 46/25/22
f 47/26/22 39/18/22 41/19/22
f 39/18/22 47/26/22 48/27/22
f 48/27/22 47/26/22 49/28/22
f 48/27/22 49/28/22 46/25/22
f 48/27/22 46/25/22 50/29/22
f 50/29/22 46/25/22 44/23/22
f 48/14/23 52/17/23 51/15/23
f 52/17/23 48/14/23 50/16/23
f 52/15/24 44/16/24 53/17/24
f 44/16/24 52/15/24 50/14/24
f 40/15/25 48/16/25 51/17/25
f 48/16/25 40/15/25 39/14/25
f 42/14/26 38/17/26 54/15/26
f 38/17/26 42/14/26 37/16/26
f 53/15/27 42/16/27 54/17/27
f 42/16/27 53/15/27 44/14/27
f 40/29/28 55/25/28 38/23/28
f 55/25/28 40/29/28 51/30/28
f 55/25/28 51/30/28 56/31/28
f 56/31/28 51/30/28 52/18/28
f 56/31/28 52/18/28 57/26/28
f 57/26/28 52/18/28 58/19/28
f 59/24/28 38/23/28 55/25/28
f 38/23/28 59/24/28 54/32/28
f 54/32/28 59/24/28 60/33/28
f 54/32/28 60/33/28 58/19/28
f 54/32/28 58/19/28 53/20/28
f 53/20/28 58/19/28 52/18/28

usemtl brownLight

f 43/22/22 47/26/22 41/19/22
f 47/26/22 43/22/22 49/28/22
f 49/28/22 43/22/22 45/24/22
f 49/28/22 45/24/22 46/25/22
f 56/31/28 59/24/28 55/25/28
f 59/24/28 56/31/28 60/33/28
f 60/33/28 56/31/28 57/26/28
f 60/33/28 57/26/28 58/19/28

g straw

v 0.01466922 0.4134382 -0.08617558
v 0.0179111 0.2519578 -0.04626327
v 0.01466922 0.4084039 -0.104964
v 0.0179111 0.2486016 -0.05878891
v 0.0308786 0.2519578 -0.04626327
v 0.03412047 0.4134382 -0.08617558
v 0.0308786 0.2486016 -0.05878891
v 0.03412047 0.4084039 -0.104964

vn -0.6481506 -0.0222418 0.005959672
vn 0 0.1455119 0.6320252
vn 0 -0.8454809 0.2265459
vn 0.6481506 -0.0222418 0.005959672
vn 0 -0.1899955 -0.6201058
vn 0 0.8454809 -0.2265459

vt 0 7.477726
vt -0.1968504 -0.005178481
vt -1.181102 7.477726
vt -0.984252 -0.005178481
vt 0.984252 -0.005178481
vt 0.1968504 -0.005178481
vt 1.181102 7.477726
vt 9.62965E-35 7.477726
vt -0.1968504 0.984252
vt -0.1968504 0.1968504
vt -0.984252 0.984252
vt -0.984252 0.1968504
vt 1.185237E-18 7.508797
vt 1.181102 7.508797
vt 0.1968504 0.0258924
vt 0.984252 0.0258924
vt -0.1968504 0.0258924
vt -0.984252 0.0258924
vt -5.137591E-18 7.508797
vt -1.181102 7.508797
vt 0 1.181102
vt 1.181102 0
vt 1.181102 1.181102

usemtl green

f 63/36/29 62/35/29 61/34/29
f 62/35/29 63/36/29 64/37/29
f 66/40/30 62/39/30 65/38/30
f 62/39/30 66/40/30 61/41/30
f 67/44/31 62/43/31 64/42/31
f 62/43/31 67/44/31 65/45/31
f 65/48/32 68/47/32 66/46/32
f 68/47/32 65/48/32 67/49/32
f 63/52/33 67/51/33 64/50/33
f 67/51/33 63/52/33 68/53/33
f 66/55/34 63/54/34 61/1/34
f 63/54/34 66/55/34 68/56/34

