# Created by Kenney (www.kenney.nl)

mtllib soy.mtl

g soy

v 0.03611846 0 0.020853
v 1.804779E-16 0 0.041706
v 0.04330127 0.02 0.025
v -1.804779E-16 0.02 0.05
v 1.804779E-16 0 -0.041706
v 0.03611846 0 -0.020853
v -1.804779E-16 0.02 -0.05
v 0.04330127 0.02 -0.025
v -0.03611846 0 -0.020853
v -0.04330127 0.02 -0.025
v -0.08266112 0.04 0.04772442
v -0.06831497 0.02 0.03944167
v -0.08266112 0.04 -0.04772442
v -0.06831497 0.02 -0.03944167
v 0.08266112 0.04 0.04772442
v 0.08266112 0.04 -0.04772442
v 0.06831497 0.02 0.03944167
v 0.06831497 0.02 -0.03944167
v -1.804779E-16 0.02 0.07888333
v 1.804779E-16 0.04 0.09544884
v -1.804779E-16 0.02 -0.07888333
v 1.804779E-16 0.04 -0.09544884
v -0.06346082 0.04 0.03663912
v -0.05330708 0.03 0.03077686
v 1.804779E-16 0.04 0.07327823
v -1.804779E-16 0.03 0.06155372
v -0.06346082 0.04 -0.03663912
v 1.804779E-16 0.04 -0.07327823
v -0.05330708 0.03 -0.03077686
v -1.804779E-16 0.03 -0.06155372
v 0.05330708 0.03 0.03077686
v 0.05330708 0.03 -0.03077686
v 0.06346082 0.04 0.03663912
v 0.06346082 0.04 -0.03663912
v -0.04330127 0.02 0.025
v -0.03611846 0 0.020853

vn 0.4705724 -0.3380034 0.8150554
vn 0.4705724 -0.3380034 -0.8150554
vn -0.4705724 -0.3380034 -0.8150554
vn -0.8125706 -0.5828628 0
vn 0.8125706 -0.5828628 0
vn 0.4062853 -0.5828628 0.7037068
vn -0.4062853 -0.5828628 -0.7037068
vn -0.4062853 -0.5828628 0.7037068
vn 0.3508463 0.7124798 -0.6076837
vn 0.3508463 0.7124798 0.6076837
vn -0.7016926 0.7124798 0
vn -0.3508463 0.7124798 0.6076837
vn 0.4062853 -0.5828628 -0.7037068
vn -0.3508463 0.7124798 -0.6076837
vn 0 -1 0
vn 0.7016926 0.7124798 0
vn 0 1 0
vn 0.9411449 -0.3380035 0
vn -0.4705724 -0.3380034 0.8150554
vn -0.9411449 -0.3380035 0

vt 0 0
vt 2.098704 1.211687
vt 2.098704 -1.211687
vt -7.105427E-15 2.423375
vt -2.098704 -1.211687
vt -2.098704 1.211687
vt -7.105427E-15 -2.423375

usemtl _defaultMat

f 3/1/1 2/1/1 1/1/1
f 2/1/1 3/1/1 4/1/1
f 7/1/2 6/1/2 5/1/2
f 6/1/2 7/1/2 8/1/2
f 10/1/3 5/1/3 9/1/3
f 5/1/3 10/1/3 7/1/3
f 13/1/4 12/1/4 11/1/4
f 12/1/4 13/1/4 14/1/4
f 17/1/5 16/1/5 15/1/5
f 16/1/5 17/1/5 18/1/5
f 15/1/6 19/1/6 17/1/6
f 19/1/6 15/1/6 20/1/6
f 13/1/7 21/1/7 14/1/7
f 21/1/7 13/1/7 22/1/7
f 20/4/8 12/3/8 19/2/8
f 12/4/8 20/3/8 11/2/8
f 25/4/9 24/3/9 23/2/9
f 24/4/9 25/3/9 26/2/9
f 29/4/10 28/3/10 27/2/10
f 28/4/10 29/3/10 30/2/10
f 33/4/11 32/3/11 31/2/11
f 32/4/11 33/3/11 34/2/11
f 32/4/12 28/3/12 30/2/12
f 28/4/12 32/3/12 34/2/12
f 22/4/13 18/3/13 21/2/13
f 18/4/13 22/3/13 16/2/13
f 25/4/14 31/3/14 26/2/14
f 31/4/14 25/3/14 33/2/14
f 14/4/15 10/3/15 12/2/15
f 10/4/15 14/3/15 21/2/15
f 10/4/15 21/3/15 7/2/15
f 7/4/15 21/3/15 18/2/15
f 7/4/15 18/3/15 8/2/15
f 8/4/15 18/3/15 3/2/15
f 12/4/15 35/3/15 19/2/15
f 35/4/15 12/3/15 10/2/15
f 19/4/15 35/3/15 4/2/15
f 19/4/15 4/3/15 3/2/15
f 19/4/15 3/3/15 17/2/15
f 17/4/15 3/3/15 18/2/15
f 5/4/15 36/3/15 9/2/15
f 36/4/15 5/3/15 2/2/15
f 2/4/15 5/3/15 6/2/15
f 2/4/15 6/3/15 1/2/15
f 24/4/16 27/3/16 23/2/16
f 27/4/16 24/3/16 29/2/16
f 11/4/17 23/3/17 13/2/17
f 23/4/17 11/3/17 20/2/17
f 23/4/17 20/3/17 25/2/17
f 25/4/17 20/3/17 15/2/17
f 25/4/17 15/3/17 33/2/17
f 33/4/17 15/3/17 34/2/17
f 13/4/17 27/3/17 22/2/17
f 27/4/17 13/3/17 23/2/17
f 22/4/17 27/3/17 28/2/17
f 22/4/17 28/3/17 34/2/17
f 22/4/17 34/3/17 16/2/17
f 16/4/17 34/3/17 15/2/17
f 1/4/18 8/3/18 3/2/18
f 8/4/18 1/3/18 6/2/18
f 4/4/19 36/3/19 2/2/19
f 36/4/19 4/3/19 35/2/19
f 10/4/20 36/3/20 35/2/20
f 36/4/20 10/3/20 9/2/20

usemtl brownDarkest

f 26/7/17 29/6/17 24/5/17
f 29/6/17 26/7/17 30/4/17
f 30/4/17 26/7/17 31/3/17
f 30/4/17 31/3/17 32/2/17

