# Created by Kenney (www.kenney.nl)

mtllib strawberry.mtl

g strawberry

v 0.02 0.01 -0.008284271
v 0.034 0.04 -0.01408326
v 0.008284271 0.01 -0.02
v 0.01408326 0.04 -0.034
v 0.008284271 0.01 0.02
v -0.008284271 0.01 0.02
v 0.01408326 0.04 0.034
v -0.01408326 0.04 0.034
v -0.05984 0.09 0.02478654
v -0.034 0.04 0.01408326
v -0.05984 0.09 -0.02478654
v -0.034 0.04 -0.01408326
v 0.0484704 0.13 -0.0200771
v 0.0200771 0.13 -0.0484704
v 0.05984 0.09 -0.02478654
v 0.02478654 0.09 -0.05984
v -0.008284271 0.01 -0.02
v -0.004085802 0 -0.009864
v 0.004085802 0 -0.009864
v 0.05984 0.09 0.02478654
v 0.02478654 0.09 0.05984
v 0.0484704 0.13 0.0200771
v 0.0200771 0.13 0.0484704
v -0.02 0.01 -0.008284271
v -0.009864 0 -0.004085802
v 0.034 0.04 0.01408326
v -0.02 0.01 0.008284271
v -0.009864 0 0.004085802
v -0.02478654 0.09 -0.05984
v -0.0200771 0.13 -0.0484704
v -0.0484704 0.13 -0.0200771
v -0.0484704 0.13 0.0200771
v -0.02478654 0.09 0.05984
v -0.0200771 0.13 0.0484704
v 0.009864 0 -0.004085802
v -0.004085802 0 0.009864
v 0.004085802 0 0.009864
v 0.009864 0 0.004085802
v 0.02 0.01 0.008284271
v -0.01408326 0.04 -0.034
v -0.03867057 0.16 0.02003855
v -0.03867057 0.16 -0.02003855
v -0.01253772 0.15 0.01253772
v -0.01253772 0.15 -0.01253772
v 0.004575649 0.15 0.004575649
v -0.004575649 0.15 0.004575649
v 0.006863474 0.177 0.006863474
v -0.006863474 0.177 0.006863474
v -0.02003855 0.16 -0.03867057
v 0.02003855 0.16 -0.03867057
v 0.01253772 0.15 -0.01253772
v -1.046772E-14 0.1351595 -0.05868763
v -0.02003855 0.16 0.03867057
v 0.02003855 0.16 0.03867057
v 0.01253772 0.15 0.01253772
v -5.775291E-15 0.1351595 0.05868763
v 0.05868763 0.1351595 2.887646E-15
v 0.03867057 0.16 0.02003855
v 0.03867057 0.16 -0.02003855
v -0.006863474 0.177 -0.006863474
v 0.006863474 0.177 -0.006863474
v 0.004575649 0.15 -0.004575649
v -0.004575649 0.15 -0.004575649
v -0.05868763 0.1351595 -2.887646E-15
v -0.0242352 0.15 0.01003855
v -0.01003855 0.15 0.0242352
v 2.887646E-15 0.15 0.0242352
v 0.01003855 0.15 0.0242352
v 0.0242352 0.15 0.01003855
v 0.0242352 0.15 -0.01003855
v 0.0242352 0.15 -4.331469E-15
v -0.01003855 0.15 -0.0242352
v -0.0242352 0.15 -1.443823E-15
v -0.0242352 0.15 -0.01003855
v -3.609557E-16 0.15 -0.0242352
v 0.01003855 0.15 -0.0242352

vn 0.6407682 -0.4228855 -0.6407682
vn 0 -0.4228855 0.9061831
vn -0.8883777 -0.4591136 0
vn 0.6801643 0.2734098 -0.6801643
vn 0 -0.7118664 -0.7023149
vn 0.6801643 0.2734098 0.6801643
vn -0.4966116 -0.7118664 -0.4966116
vn 0.8883777 -0.4591136 0
vn -0.7023149 -0.7118664 0
vn 0 0.2734098 -0.9618976
vn -0.6801643 0.2734098 -0.6801643
vn 0.9618976 0.2734098 0
vn -0.9618976 0.2734098 0
vn 0 0.2734098 0.9618976
vn 0.4966116 -0.7118664 -0.4966116
vn 0 -0.7118664 0.7023149
vn 0.4966116 -0.7118664 0.4966116
vn 0 -0.4228855 -0.9061831
vn 0 -1 0
vn -0.6801643 0.2734098 0.6801643
vn -0.4966116 -0.7118664 0.4966116
vn 0 -0.4591136 0.8883777
vn 0.7023149 -0.7118664 0
vn -0.6407682 -0.4228855 0.6407682
vn -0.9061831 -0.4228855 0
vn 0.9061831 -0.4228855 0
vn -0.6281778 -0.4591136 0.6281778
vn -0.6407682 -0.4228855 -0.6407682
vn 0 -0.4591136 -0.8883777
vn 0.6281778 -0.4591136 -0.6281778
vn 0.6407682 -0.4228855 0.6407682
vn -0.6281778 -0.4591136 -0.6281778
vn 0.6281778 -0.4591136 0.6281778
vn 0.3573878 0.9339561 0
vn -0.3573878 -0.9339561 0
vn 0 -0.08443169 0.9964293
vn 0 0.9339561 0.3573878
vn 0 -0.9339561 -0.3573878
vn 0 0.6274559 -0.7786521
vn 0 -0.6274559 0.7786521
vn 0 0.9339561 -0.3573878
vn 0 -0.9339561 0.3573878
vn 0 0.6274559 0.7786521
vn 0 -0.6274559 -0.7786521
vn 0.7786521 0.6274559 0
vn -0.7786521 -0.6274559 0
vn 0 1 0
vn -0.7786521 0.6274559 0
vn 0.7786521 -0.6274559 0
vn 0 -0.08443169 -0.9964293
vn -0.9964293 -0.08443169 0
vn 0.9964293 -0.08443169 0
vn -0.3573878 0.9339561 0
vn 0.3573878 -0.9339561 0
vn 0.4500705 0.7712802 0.4500705
vn -0.4500705 0.7712802 0.4500705
vn 0.6364958 0.7712802 0
vn 0 0.7712802 0.6364958
vn 0 0.7712802 -0.6364958
vn -0.6364958 0.7712802 0
vn -0.4500705 0.7712802 -0.4500705
vn 0.4500705 0.7712802 -0.4500705

vt -0.3261524 0.6897457
vt -0.5544591 1.993127
vt 0.3261524 0.6897457
vt 0.5544591 1.993127
vt 0.975848 4.229423
vt 0.5544591 2.013581
vt -0.975848 4.229423
vt -0.5544591 2.013581
vt -0.7904369 4.401355
vt 0.7904369 4.401355
vt -0.975848 2.764171
vt 0.975848 2.764171
vt 0.3261524 0.8370267
vt 0.1608584 0.2764508
vt -0.3261524 0.8370267
vt -0.1608584 0.2764508
vt 0.3883465 0.1608584
vt 0.3883465 -0.1608584
vt 0.1608584 0.3883465
vt 0.1608584 -0.3883465
vt -0.1608584 0.3883465
vt -0.1608584 -0.3883465
vt -0.3883465 0.1608584
vt -0.3883465 -0.1608584
vt -0.7889192 3.673176
vt 0.7889192 3.673176
vt -0.493611 2.571569
vt 0.493611 2.571569
vt 0.1801437 5.899635
vt -0.1801437 5.899635
vt 0.2702155 6.966436
vt -0.2702155 6.966436
vt 0.7889192 3.949617
vt 2.06449E-13 2.693634
vt -0.7889192 3.949617
vt -3.325131E-14 2.693634
vt 2.861013E-13 2.693634
vt -0.2702155 -0.2702155
vt -0.2702155 0.2702155
vt 0.2702155 -0.2702155
vt 0.2702155 0.2702155
vt -0.493611 -0.493611
vt -0.1801437 -0.1801437
vt 0.493611 -0.493611
vt 0.1801437 -0.1801437
vt 0.1801437 0.1801437
vt 0.493611 0.493611
vt -0.1801437 0.1801437
vt -0.493611 0.493611
vt -1.136868E-13 2.693634
vt -0.9541417 -0.3952184
vt -0.3952184 -0.9541417
vt 1.136868E-13 -0.9541417
vt 0.3952184 -0.9541417
vt 0.9541417 -0.3952184
vt 0.9541417 0.3952184
vt 0.9541417 1.705303E-13
vt -0.3952184 0.9541417
vt -0.9541417 5.684342E-14
vt -0.9541417 0.3952184
vt -1.421085E-14 0.9541417
vt 0.3952184 0.9541417
vt -0.3952184 3.022923
vt 0.3952184 3.022923
vt -0.7904369 1.785835
vt 0.7904369 1.785835
vt 1.36231E-13 3.022923
vt -1.881909E-13 3.022923
vt -6.810167E-14 3.022923
vt -1.048668E-13 3.022923

usemtl red

f 3/3/1 2/2/1 1/1/1
f 2/2/1 3/3/1 4/4/1
f 7/4/2 6/1/2 5/3/2
f 6/1/2 7/4/2 8/2/2
f 11/7/3 10/6/3 9/5/3
f 10/6/3 11/7/3 12/8/3
f 15/11/4 14/10/4 13/9/4
f 14/10/4 15/11/4 16/12/4
f 3/15/5 18/14/5 17/13/5
f 18/14/5 3/15/5 19/16/5
f 22/10/6 21/11/6 20/12/6
f 21/11/6 22/10/6 23/9/6
f 17/15/7 25/14/7 24/13/7
f 25/14/7 17/15/7 18/16/7
f 26/8/8 15/5/8 20/7/8
f 15/5/8 26/8/8 2/6/8
f 25/16/9 27/13/9 24/15/9
f 27/13/9 25/16/9 28/14/9
f 30/10/10 16/11/10 29/12/10
f 16/11/10 30/10/10 14/9/10
f 30/9/11 11/12/11 31/10/11
f 11/12/11 30/9/11 29/11/11
f 15/12/12 22/9/12 20/11/12
f 22/9/12 15/12/12 13/10/12
f 32/10/13 11/11/13 9/12/13
f 11/11/13 32/10/13 31/9/13
f 23/10/14 33/11/14 21/12/14
f 33/11/14 23/10/14 34/9/14
f 3/13/15 35/16/15 19/14/15
f 35/16/15 3/13/15 1/15/15
f 36/16/16 5/13/16 6/15/16
f 5/13/16 36/16/16 37/14/16
f 38/14/17 5/15/17 37/16/17
f 5/15/17 38/14/17 39/13/17
f 40/4/18 3/1/18 17/3/18
f 3/1/18 40/4/18 4/2/18
f 18/19/19 28/18/19 25/17/19
f 28/18/19 18/19/19 36/20/19
f 36/20/19 18/19/19 19/21/19
f 36/20/19 19/21/19 37/22/19
f 37/22/19 19/21/19 35/23/19
f 37/22/19 35/23/19 38/24/19
f 34/10/20 9/11/20 33/12/20
f 9/11/20 34/10/20 32/9/20
f 28/16/21 6/13/21 27/15/21
f 6/13/21 28/16/21 36/14/21
f 21/5/22 8/8/22 7/6/22
f 8/8/22 21/5/22 33/7/22
f 1/13/23 38/16/23 35/14/23
f 38/16/23 1/13/23 39/15/23
f 8/4/24 27/1/24 6/3/24
f 27/1/24 8/4/24 10/2/24
f 12/2/25 27/3/25 10/4/25
f 27/3/25 12/2/25 24/1/25
f 39/1/26 2/4/26 26/2/26
f 2/4/26 39/1/26 1/3/26
f 33/5/27 10/8/27 8/6/27
f 10/8/27 33/5/27 9/7/27
f 12/4/28 17/1/28 24/3/28
f 17/1/28 12/4/28 40/2/28
f 29/5/29 4/8/29 40/6/29
f 4/8/29 29/5/29 16/7/29
f 4/6/30 15/7/30 2/8/30
f 15/7/30 4/6/30 16/5/30
f 26/4/31 5/1/31 39/3/31
f 5/1/31 26/4/31 7/2/31
f 11/5/32 40/8/32 12/6/32
f 40/8/32 11/5/32 29/7/32
f 20/5/33 7/8/33 26/6/33
f 7/8/33 20/5/33 21/7/33

usemtl green

f 43/27/34 42/26/34 41/25/34
f 42/26/34 43/27/34 44/28/34
f 41/25/35 42/26/35 43/27/35
f 44/28/35 43/27/35 42/26/35
f 47/31/36 46/30/36 45/29/36
f 46/30/36 47/31/36 48/32/36
f 44/27/37 50/26/37 49/25/37
f 50/26/37 44/27/37 51/28/37
f 49/25/38 50/26/38 44/27/38
f 51/28/38 44/27/38 50/26/38
f 50/35/39 52/34/39 49/33/39
f 49/33/40 52/34/40 50/35/40
f 54/25/41 43/28/41 53/26/41
f 43/28/41 54/25/41 55/27/41
f 53/26/42 43/28/42 54/25/42
f 55/27/42 54/25/42 43/28/42
f 53/35/43 56/36/43 54/33/43
f 54/33/44 56/36/44 53/35/44
f 59/33/45 58/35/45 57/37/45
f 57/37/46 58/35/46 59/33/46
f 47/40/47 60/39/47 48/38/47
f 60/39/47 47/40/47 61/41/47
f 55/44/47 46/43/47 43/42/47
f 46/43/47 55/44/47 45/45/47
f 45/45/47 55/44/47 62/46/47
f 62/46/47 55/44/47 51/47/47
f 63/48/47 43/42/47 46/43/47
f 51/47/47 63/48/47 62/46/47
f 44/49/47 63/48/47 51/47/47
f 63/48/47 44/49/47 43/42/47
f 42/35/48 64/50/48 41/33/48
f 41/33/49 64/50/49 42/35/49
f 60/31/50 62/30/50 63/29/50
f 62/30/50 60/31/50 61/32/50
f 60/32/51 46/29/51 48/31/51
f 46/29/51 60/32/51 63/30/51
f 45/30/52 61/31/52 47/32/52
f 61/31/52 45/30/52 62/29/52
f 55/28/53 59/25/53 51/27/53
f 59/25/53 55/28/53 58/26/53
f 51/27/54 59/25/54 55/28/54
f 58/26/54 55/28/54 59/25/54

usemtl brownLight

f 65/51/47 43/42/47 44/49/47
f 43/42/47 65/51/47 66/52/47
f 43/42/47 66/52/47 55/44/47
f 55/44/47 66/52/47 67/53/47
f 55/44/47 67/53/47 68/54/47
f 55/44/47 68/54/47 69/55/47
f 55/44/47 69/55/47 70/56/47
f 70/56/47 69/55/47 71/57/47
f 72/58/47 65/51/47 44/49/47
f 72/58/47 73/59/47 65/51/47
f 73/59/47 72/58/47 74/60/47
f 72/58/47 44/49/47 51/47/47
f 70/56/47 51/47/47 55/44/47
f 72/58/47 51/47/47 75/61/47
f 75/61/47 51/47/47 76/62/47
f 76/62/47 51/47/47 70/56/47
f 23/65/55 69/64/55 68/63/55
f 69/64/55 23/65/55 22/66/55
f 34/66/56 65/63/56 32/65/56
f 65/63/56 34/66/56 66/64/56
f 71/67/57 13/66/57 70/64/57
f 13/66/57 71/67/57 69/63/57
f 13/66/57 69/63/57 22/65/57
f 23/66/58 66/63/58 34/65/58
f 66/63/58 23/66/58 67/68/58
f 67/68/58 23/66/58 68/64/58
f 72/64/59 14/65/59 30/66/59
f 14/65/59 72/64/59 75/69/59
f 14/65/59 75/69/59 76/63/59
f 32/66/60 74/63/60 31/65/60
f 74/63/60 32/66/60 73/70/60
f 73/70/60 32/66/60 65/64/60
f 74/64/61 30/65/61 31/66/61
f 30/65/61 74/64/61 72/63/61
f 70/63/62 14/66/62 76/64/62
f 14/66/62 70/63/62 13/65/62

