# Created by Kenney (www.kenney.nl)

mtllib styrofoam.mtl

g styrofoam

v 0.01456595 0.076032 0.3117947
v 0.01456595 0.076032 0.01456595
v 0.205945 0.076032 0.3117947
v 0.3117947 0.076032 0.01456595
v 0.3117947 0.076032 0.205945
v -0.379463 0.164736 -0.2434657
v -0.3503311 0.164736 0.2313989
v -0.379463 0.164736 0.2434657
v -0.2434657 0.164736 0.379463
v -0.2313989 0.164736 0.3503311
v 0.2434657 0.164736 0.379463
v 0.2313989 0.164736 0.3503311
v 0.3503311 0.164736 0.2313989
v 0.379463 0.164736 0.2434657
v 0.3503311 0.164736 -0.2313989
v -0.3503311 0.164736 -0.2313989
v -0.2434657 0.164736 -0.379463
v -0.2313989 0.164736 -0.3503311
v 0.2434657 0.164736 -0.379463
v 0.2313989 0.164736 -0.3503311
v 0.379463 0.164736 -0.2434657
v 0.01456595 0.076032 -0.01456595
v 0.01456595 0.139392 -0.01456595
v 0.01456595 0.076032 -0.3117947
v 0.01456595 0.139392 -0.3393207
v -0.01456595 0.139392 0.3393207
v -0.01456595 0.139392 -0.3393207
v 0.01456595 0.139392 0.3393207
v 0.01456595 0.139392 0.01456595
v 0.3393207 0.139392 0.01456595
v 0.3393207 0.139392 -0.01456595
v 0.3117947 0.076032 -0.01456595
v -0.01456595 0.076032 0.3117947
v -0.01456595 0.076032 -0.3117947
v -0.335808 0 -0.2154564
v -0.335808 0 0.2154564
v -0.2154564 0 -0.335808
v -0.2154564 0 0.335808
v 0.2154564 0 -0.335808
v 0.2154564 0 0.335808
v 0.335808 0 -0.2154564
v 0.335808 0 0.2154564
v -0.3117947 0.076032 0.205945
v -0.3117947 0.076032 -0.205945
v 0.3117947 0.076032 -0.205945
v 0.205945 0.076032 -0.3117947
v -0.205945 0.076032 -0.3117947
v -0.205945 0.076032 0.3117947

vn 0 1 0
vn 1 0 0
vn 0 0 1
vn 0 0 -1
vn -1 0 0
vn 0 -1 0
vn -0.9666349 -0.2561582 0
vn -0.6758536 -0.2940136 0.6758536
vn 0.6758536 -0.2940136 -0.6758536
vn 0.9666349 -0.2561582 0
vn 0.6758536 -0.2940136 0.6758536
vn 0 -0.2561582 -0.9666349
vn -0.6758536 -0.2940136 -0.6758536
vn 0.9171854 0.3984606 0
vn -0.6298901 0.4543973 0.6298901
vn 0 0.3984606 0.9171854
vn -0.9171854 0.3984606 0
vn 0 0.3984606 -0.9171854
vn 0 -0.2561582 0.9666349
vn 0.6298901 0.4543973 -0.6298901
vn -0.6298901 0.4543973 -0.6298901
vn 0.6298901 0.4543973 0.6298901

vt 0 0

usemtl _defaultMat

f 3/1/1 2/1/1 1/1/1
f 2/1/1 3/1/1 4/1/1
f 4/1/1 3/1/1 5/1/1
f 8/1/1 7/1/1 6/1/1
f 7/1/1 8/1/1 9/1/1
f 7/1/1 9/1/1 10/1/1
f 10/1/1 9/1/1 11/1/1
f 10/1/1 11/1/1 12/1/1
f 12/1/1 11/1/1 13/1/1
f 13/1/1 11/1/1 14/1/1
f 13/1/1 14/1/1 15/1/1
f 16/1/1 6/1/1 7/1/1
f 6/1/1 16/1/1 17/1/1
f 17/1/1 16/1/1 18/1/1
f 17/1/1 18/1/1 19/1/1
f 19/1/1 18/1/1 20/1/1
f 19/1/1 20/1/1 15/1/1
f 19/1/1 15/1/1 21/1/1
f 21/1/1 15/1/1 14/1/1
f 24/1/2 23/1/2 22/1/2
f 23/1/2 24/1/2 25/1/2
f 28/1/1 27/1/1 26/1/1
f 27/1/1 28/1/1 25/1/1
f 25/1/1 28/1/1 29/1/1
f 25/1/1 29/1/1 23/1/1
f 23/1/1 29/1/1 30/1/1
f 23/1/1 30/1/1 31/1/1
f 1/1/2 29/1/2 28/1/2
f 29/1/2 1/1/2 2/1/2
f 30/1/3 2/1/3 4/1/3
f 2/1/3 30/1/3 29/1/3
f 23/1/4 32/1/4 22/1/4
f 32/1/4 23/1/4 31/1/4
f 27/1/5 33/1/5 26/1/5
f 33/1/5 27/1/5 34/1/5
f 37/1/6 36/1/6 35/1/6
f 36/1/6 37/1/6 38/1/6
f 38/1/6 37/1/6 39/1/6
f 38/1/6 39/1/6 40/1/6
f 40/1/6 39/1/6 41/1/6
f 40/1/6 41/1/6 42/1/6
f 6/1/7 36/1/7 8/1/7
f 36/1/7 6/1/7 35/1/7
f 9/1/8 36/1/8 38/1/8
f 36/1/8 9/1/8 8/1/8
f 19/1/9 41/1/9 39/1/9
f 41/1/9 19/1/9 21/1/9
f 42/1/10 21/1/10 14/1/10
f 21/1/10 42/1/10 41/1/10
f 14/1/11 40/1/11 42/1/11
f 40/1/11 14/1/11 11/1/11
f 17/1/12 39/1/12 37/1/12
f 39/1/12 17/1/12 19/1/12
f 6/1/13 37/1/13 35/1/13
f 37/1/13 6/1/13 17/1/13
f 43/1/14 16/1/14 7/1/14
f 16/1/14 43/1/14 44/1/14
f 15/1/15 46/1/15 45/1/15
f 46/1/15 15/1/15 20/1/15
f 20/1/16 24/1/16 46/1/16
f 24/1/16 20/1/16 25/1/16
f 25/1/16 20/1/16 27/1/16
f 18/1/16 27/1/16 20/1/16
f 47/1/16 27/1/16 18/1/16
f 27/1/16 47/1/16 34/1/16
f 13/1/17 30/1/17 5/1/17
f 30/1/17 13/1/17 15/1/17
f 30/1/17 15/1/17 31/1/17
f 31/1/17 15/1/17 32/1/17
f 32/1/17 15/1/17 45/1/17
f 4/1/17 5/1/17 30/1/17
f 10/1/18 33/1/18 48/1/18
f 33/1/18 10/1/18 26/1/18
f 26/1/18 10/1/18 28/1/18
f 12/1/18 28/1/18 10/1/18
f 3/1/18 28/1/18 12/1/18
f 28/1/18 3/1/18 1/1/18
f 11/1/19 38/1/19 40/1/19
f 38/1/19 11/1/19 9/1/19
f 7/1/20 48/1/20 43/1/20
f 48/1/20 7/1/20 10/1/20
f 12/1/21 5/1/21 3/1/21
f 5/1/21 12/1/21 13/1/21
f 48/1/1 44/1/1 43/1/1
f 44/1/1 48/1/1 47/1/1
f 47/1/1 48/1/1 33/1/1
f 47/1/1 33/1/1 34/1/1
f 18/1/22 44/1/22 47/1/22
f 44/1/22 18/1/22 16/1/22
f 22/1/1 46/1/1 24/1/1
f 46/1/1 22/1/1 32/1/1
f 46/1/1 32/1/1 45/1/1

g lid

v 0.543956 0.1201744 -0.2154564
v 0.6041319 0.2244019 -0.335808
v 0.379463 0.164736 -0.2434657
v 0.4474617 0.2825131 -0.379463
v 0.8195883 0.5975833 0.335808
v 0.6909274 0.704208 0.379463
v 0.8797641 0.7018108 0.2154564
v 0.7589262 0.8219852 0.2434657
v 0.748987 0.6273621 0.3117947
v 0.684894 0.6937578 0.3503311
v 0.5430419 0.270655 0.3117947
v 0.4534951 0.2929633 0.3503311
v 0.7589262 0.8219852 -0.2434657
v 0.8797641 0.7018108 -0.2154564
v 0.8195883 0.5975833 -0.335808
v 0.6909274 0.704208 -0.379463
v 0.4901171 0.1789865 0.205945
v 0.4901171 0.1789865 -0.205945
v 0.5430419 0.270655 -0.3117947
v 0.748987 0.6273621 -0.3117947
v 0.8019118 0.7190307 0.205945
v 0.8019118 0.7190307 -0.205945
v 0.543956 0.1201744 0.2154564
v 0.6041319 0.2244019 0.335808
v 0.7443601 0.7967562 -0.2313989
v 0.684894 0.6937578 -0.3503311
v 0.7443601 0.7967562 0.2313989
v 0.4534951 0.2929633 -0.3503311
v 0.394029 0.189965 -0.2313989
v 0.4474617 0.2825131 0.379463
v 0.394029 0.189965 0.2313989
v 0.379463 0.164736 0.2434657

vn -0.1055624 -0.927987 -0.8564416
vn 0.7508794 0.5554131 0.8564416
vn -0.4372815 0.2524647 -1.162257
vn 0.893575 0.8985097 0
vn 0.281115 -0.1623019 -1.22492
vn -1.097427 0.6336001 0
vn 1.097427 -0.6336001 0
vn -0.8977664 -0.4033525 0.7981967
vn -1.01841 -0.7540796 0
vn -0.09956953 0.9791647 0.7981967
vn 0.7508794 0.5554131 -0.8564416
vn 0.281115 -0.1623019 1.22492
vn -0.8977664 -0.4033525 -0.7981967
vn 0.1438472 1.259009 0
vn -0.3313449 -1.223113 0
vn -0.1055624 -0.927987 0.8564416
vn -0.4372815 0.2524647 1.162257
vn -0.09956953 0.9791647 -0.7981967


usemtl _defaultMat

f 51/1/23 50/1/23 49/1/23
f 50/1/23 51/1/23 52/1/23
f 55/1/24 54/1/24 53/1/24
f 54/1/24 55/1/24 56/1/24
f 59/1/25 58/1/25 57/1/25
f 58/1/25 59/1/25 60/1/25
f 55/1/26 61/1/26 56/1/26
f 61/1/26 55/1/26 62/1/26
f 50/1/27 64/1/27 63/1/27
f 64/1/27 50/1/27 52/1/27
f 59/1/28 66/1/28 65/1/28
f 66/1/28 59/1/28 67/1/28
f 67/1/28 59/1/28 57/1/28
f 67/1/28 57/1/28 68/1/28
f 68/1/28 57/1/28 69/1/28
f 68/1/28 69/1/28 70/1/28
f 50/1/29 71/1/29 49/1/29
f 71/1/29 50/1/29 72/1/29
f 72/1/29 50/1/29 63/1/29
f 72/1/29 63/1/29 53/1/29
f 53/1/29 63/1/29 62/1/29
f 53/1/29 62/1/29 55/1/29
f 73/1/30 68/1/30 70/1/30
f 68/1/30 73/1/30 74/1/30
f 73/1/31 69/1/31 75/1/31
f 69/1/31 73/1/31 70/1/31
f 76/1/32 66/1/32 67/1/32
f 66/1/32 76/1/32 77/1/32
f 64/1/33 62/1/33 63/1/33
f 62/1/33 64/1/33 61/1/33
f 54/1/34 72/1/34 53/1/34
f 72/1/34 54/1/34 78/1/34
f 80/1/28 79/1/28 51/1/28
f 79/1/28 80/1/28 78/1/28
f 79/1/28 78/1/28 60/1/28
f 60/1/28 78/1/28 54/1/28
f 60/1/28 54/1/28 58/1/28
f 58/1/28 54/1/28 75/1/28
f 75/1/28 54/1/28 56/1/28
f 75/1/28 56/1/28 73/1/28
f 77/1/28 51/1/28 79/1/28
f 51/1/28 77/1/28 52/1/28
f 52/1/28 77/1/28 76/1/28
f 52/1/28 76/1/28 64/1/28
f 64/1/28 76/1/28 74/1/28
f 64/1/28 74/1/28 73/1/28
f 64/1/28 73/1/28 61/1/28
f 61/1/28 73/1/28 56/1/28
f 58/1/35 69/1/35 57/1/35
f 69/1/35 58/1/35 75/1/35
f 65/1/36 77/1/36 79/1/36
f 77/1/36 65/1/36 66/1/36
f 51/1/37 71/1/37 80/1/37
f 71/1/37 51/1/37 49/1/37
f 72/1/38 80/1/38 71/1/38
f 80/1/38 72/1/38 78/1/38
f 74/1/39 67/1/39 68/1/39
f 67/1/39 74/1/39 76/1/39
f 79/1/40 59/1/40 65/1/40
f 59/1/40 79/1/40 60/1/40

