# Created by Kenney (www.kenney.nl)

mtllib styrofoamDinner.mtl

g styrofoamDinner

v -0.2820718 0.164736 0.164756
v -0.2820718 0.164736 -0.164756
v -0.197392 0.164736 0.2494358
v -0.215881 0.164736 0.03165235
v -0.180882 0.164736 0.05698736
v -0.04428883 0.164736 0.2494358
v -0.1652241 0.164736 0.03535682
v -0.1641587 0.164736 -0.02769297
v -0.1395327 0.164736 0.01720154
v -0.1179022 0.164736 0.03285944
v -0.09256715 0.164736 -0.002139513
v -0.197392 0.164736 -0.2494358
v -0.2015571 0.164736 -0.06206153
v -0.1758504 0.164736 -0.06928737
v -0.04428883 0.164736 -0.2494358
v -0.1141977 0.164736 -0.01779741
v -0.2002231 0.164736 0.0100218
v -0.1898655 0.164736 -0.02046712
v -0.3117947 0.076032 0.205945
v -0.3117947 0.076032 -0.205945
v -0.205945 0.076032 -0.3117947
v -0.01456595 0.076032 -0.3117947
v -0.205945 0.076032 0.3117947
v -0.01456595 0.076032 0.3117947
v 0.3117947 0.076032 -0.01456595
v 0.2820718 0.164736 -0.04428883
v 0.3117947 0.076032 -0.205945
v 0.2820718 0.164736 -0.197392
v 0.197392 0.164736 -0.2820718
v 0.205945 0.076032 -0.3117947
v 0.01456595 0.076032 -0.01456595
v 0.04428883 0.164736 -0.04428883
v 0.01456595 0.076032 -0.3117947
v 0.04428883 0.164736 -0.2820718
v 0.1098705 0.164736 -0.1950179
v 0.1183877 0.164736 -0.1697097
v 0.1626799 0.164736 -0.1196914
v 0.1593373 0.164736 -0.1834908
v 0.1865981 0.164736 -0.1078183
v 0.2058091 0.164736 -0.1465188
v 0.1508201 0.164736 -0.208799
v 0.1818909 0.164736 -0.1583919
v 0.1626799 0.174736 -0.1196914
v 0.1818909 0.184736 -0.1583919
v 0.1865981 0.174736 -0.1078183
v 0.2058091 0.184736 -0.1465188
v 0.1098705 0.174736 -0.1950179
v 0.1508201 0.184736 -0.208799
v 0.1183877 0.174736 -0.1697097
v 0.1593373 0.184736 -0.1834908
v 0.3117947 0.076032 0.205945
v 0.205945 0.076032 0.3117947
v 0.2820718 0.164736 0.197392
v 0.197392 0.164736 0.2820718
v 0.01456595 0.076032 0.3117947
v 0.01456595 0.076032 0.01456595
v 0.04428883 0.164736 0.2820718
v 0.04428883 0.164736 0.04428883
v 0.3117947 0.076032 0.01456595
v 0.2820718 0.164736 0.04428883
v 0.07655782 0.164736 0.1426355
v 0.08975786 0.164736 0.1576608
v 0.1767641 0.164736 0.2087947
v 0.149859 0.164736 0.1048607
v 0.1957083 0.164736 0.215207
v 0.2213574 0.164736 0.1394301
v 0.136659 0.164736 0.0898354
v 0.2024132 0.164736 0.1330179
v -0.3503311 0.164736 0.2313989
v -0.2313989 0.164736 0.3503311
v -0.2154564 0 0.335808
v -0.335808 0 0.2154564
v -0.2434657 0.164736 0.379463
v -0.379463 0.164736 0.2434657
v -0.2313989 0.164736 -0.3503311
v -0.3503311 0.164736 -0.2313989
v 0.3393207 0.139392 0.01456595
v 0.3503311 0.164736 0.2313989
v 0.3503311 0.164736 -0.2313989
v 0.3393207 0.139392 -0.01456595
v -0.335808 0 -0.2154564
v -0.2154564 0 -0.335808
v 0.2154564 0 -0.335808
v 0.2154564 0 0.335808
v 0.335808 0 -0.2154564
v 0.335808 0 0.2154564
v 0.01456595 0.139392 -0.01456595
v 0.01456595 0.139392 -0.3393207
v 0.2434657 0.164736 0.379463
v -0.2434657 0.164736 -0.379463
v 0.2434657 0.164736 -0.379463
v 0.2313989 0.164736 -0.3503311
v -0.01456595 0.139392 -0.3393207
v 0.379463 0.164736 0.2434657
v 0.379463 0.164736 -0.2434657
v -0.379463 0.164736 -0.2434657
v 0.2313989 0.164736 0.3503311
v 0.01456595 0.139392 0.01456595
v 0.01456595 0.139392 0.3393207
v -0.01456595 0.139392 0.3393207
v 0.1348337 0.199377 0.1180607
v 0.1216337 0.199377 0.1030354
v 0.1047831 0.199377 0.1444608
v 0.09158311 0.199377 0.1294355
v 0.2021206 0.199377 0.1962627
v 0.1831764 0.199377 0.1898505
v 0.1960009 0.199377 0.1519621
v 0.2149451 0.199377 0.1583743

vn 0 1 0
vn -0.9481854 0.3177173 0
vn 0 0.5751085 -0.8180771
vn -0.6155654 0.4920961 0.6155654
vn 0 0.5751085 0.8180771
vn 0.9481854 0.3177173 0
vn -0.6155654 0.4920961 -0.6155654
vn 0 -1 0
vn 0.6763256 0.2918347 -0.6763256
vn 0 0.3177173 0.9481854
vn 0 0.3177173 -0.9481854
vn -0.8957118 0 -0.4446352
vn 0.8957118 0 0.4446352
vn -0.1002593 0.9742463 0.2019712
vn -0.4446352 0 0.8957118
vn 0.4446352 0 -0.8957118
vn -0.2137092 0.9742463 0.0719211
vn -0.3189593 0 -0.9477684
vn 0.3189593 0 0.9477684
vn 0.9477684 0 -0.3189593
vn -0.9477684 0 0.3189593
vn 0.6763256 0.2918347 0.6763256
vn 0.6298901 0.4543973 -0.6298901
vn -0.6758536 -0.2940136 0.6758536
vn 0.6298901 0.4543973 0.6298901
vn -0.9171854 0.3984606 0
vn 1 0 0
vn 0 -0.2561582 0.9666349
vn 0 -0.2561582 -0.9666349
vn 0 0.3984606 0.9171854
vn -0.6298901 0.4543973 0.6298901
vn 0.9666349 -0.2561582 0
vn 0 0 1
vn 0.6758536 -0.2940136 0.6758536
vn -0.6298901 0.4543973 -0.6298901
vn -0.9666349 -0.2561582 0
vn 0 0 -1
vn 0.6758536 -0.2940136 -0.6758536
vn -0.6758536 -0.2940136 -0.6758536
vn 0.9171854 0.3984606 0
vn -1 0 0
vn 0 0.3984606 -0.9171854
vn 0.6506138 0.5 -0.5715781
vn -0.6506138 0.5 0.5715781
vn -0.277659 0.5 0.8203081
vn -0.9472103 0 -0.320613
vn -0.6600017 0 -0.7512642
vn 0.6600017 0 0.7512642
vn 0.277659 0.5 -0.8203081
vn 0.9472103 0 0.320613

vt -11.10519 -6.486456
vt -11.10519 6.486456
vt -7.77134 -9.820306
vt -8.499252 -1.246155
vt -7.12134 -2.243597
vt -1.743654 -9.820306
vt -6.504888 -1.392001
vt -6.462941 1.090274
vt -5.493414 -0.6772259
vt -4.641818 -1.293679
vt -3.644376 0.08423279
vt -7.77134 9.820306
vt -7.93532 2.443367
vt -6.923243 2.727849
vt -1.743654 9.820306
vt -4.495972 0.7006856
vt -7.882799 -0.3945592
vt -7.475019 0.8057922
vt 8.10807 -1.061817
vt -8.10807 -1.061817
vt 6.486456 2.621305
vt -6.486456 2.621305
vt 8.10807 -4.610857
vt 0.5734625 -4.610857
vt 7.77134 -0.341964
vt 1.743654 -0.341964
vt 2.946735 -4.486853
vt -2.946735 -4.486853
vt 1.448838 -0.475228
vt -3.265939 -0.475228
vt -0.5734625 -4.610857
vt -8.10807 -4.610857
vt -1.743654 -0.341964
vt -7.77134 -0.341964
vt -12.27538 3.020484
vt -9.820306 6.703607
vt 12.27538 3.020484
vt 9.820306 6.703607
vt 3.265939 -0.475228
vt -1.448838 -0.475228
vt 12.27538 8.10807
vt 12.27538 -8.10807
vt 8.10807 12.27538
vt 8.10807 -12.27538
vt 0.5734625 12.27538
vt 0.5734625 -12.27538
vt 0.5734625 -1.061817
vt 1.743654 2.621305
vt 7.77134 2.621305
vt -2.357388 2.308011
vt 2.357388 2.308011
vt -2.946735 -1.343215
vt 2.946735 -1.343215
vt 0.5734625 3.020484
vt 11.10519 6.703607
vt 1.743654 6.703607
vt -0.5734625 -1.061817
vt -1.743654 2.621305
vt -7.77134 2.621305
vt -0.5734625 3.020484
vt -1.743654 6.703607
vt -11.10519 6.703607
vt 4.325611 7.677871
vt 4.660932 6.681483
vt 1.743654 1.743654
vt 6.40472 4.712261
vt 11.10519 1.743654
vt 6.273122 7.224045
vt 7.346381 4.244816
vt 8.102722 5.768456
vt 11.10519 7.77134
vt 1.743654 11.10519
vt 7.77134 11.10519
vt 5.9378 8.220433
vt 7.161061 6.235901
vt -0.5734625 12.27538
vt -0.5734625 0.5734625
vt -8.10807 12.27538
vt -12.27538 0.5734625
vt -12.27538 8.10807
vt -7.068592 6.485669
vt -8.769629 6.485669
vt -7.068592 6.87937
vt -8.769629 7.273071
vt 7.068592 6.485669
vt 7.068592 6.87937
vt 8.769629 6.485669
vt 8.769629 7.273071
vt 3.641546 8.437756
vt 3.641546 10.18376
vt 4.692845 8.437756
vt 4.692845 10.18376
vt 4.692845 6.485669
vt 3.641546 6.485669
vt 4.692845 6.87937
vt 3.641546 6.87937
vt -3.641546 6.485669
vt -4.692845 6.485669
vt -3.641546 7.273071
vt -4.692845 7.273071
vt -5.89715 7.931161
vt -5.89715 9.677165
vt -4.845851 7.931161
vt -4.845851 9.677165
vt -6.548605 6.485669
vt -8.249643 6.485669
vt -6.548605 6.87937
vt -8.249643 7.273071
vt 8.249643 6.485669
vt 6.548605 6.485669
vt 8.249643 7.273071
vt 6.548605 6.87937
vt 4.845851 6.485669
vt 4.845851 7.273071
vt 5.89715 6.485669
vt 5.89715 7.273071
vt -4.845851 6.87937
vt -4.845851 6.485669
vt -5.89715 6.87937
vt -5.89715 6.485669
vt 1.743654 -1.743654
vt 3.014088 -5.615572
vt 1.743654 -11.10519
vt 7.77134 -11.10519
vt 3.533774 -6.207119
vt 6.959219 -8.220263
vt 5.899961 -4.128373
vt 7.705053 -8.472714
vt 8.714858 -5.489375
vt 11.10519 -7.77134
vt 5.380274 -3.536827
vt 11.10519 -1.743654
vt 7.969023 -5.236924
vt -0.5734625 -12.27538
vt -8.10807 -12.27538
vt -0.5734625 -0.5734625
vt -12.27538 -0.5734625
vt -12.27538 -8.10807
vt -6.995482 6.33771
vt -6.208081 6.33771
vt -6.995482 4.762907
vt -6.208081 4.762907
vt 6.995482 4.895799
vt 6.208081 4.895799
vt 6.995482 6.470602
vt 6.208081 6.470602
vt 10.01477 2.839203
vt 9.227366 2.839203
vt 10.01477 4.414006
vt 9.227366 4.414006
vt 5.555102 6.485669
vt 2.405496 6.485669
vt 4.767701 7.849489
vt 3.192898 7.849489
vt 3.605634 -5.095886
vt 4.788727 -4.056513
vt 4.12532 -5.687432
vt 5.308414 -4.648059
vt -1.707695 6.485669
vt -0.9202939 7.849489
vt 1.441911 6.485669
vt 0.6545093 7.849489
vt 1.707695 6.485669
vt -1.441911 6.485669
vt 0.9202939 7.849489
vt -0.6545093 7.849489
vt -10.01477 6.819502
vt -10.01477 8.394305
vt -9.227366 6.819502
vt -9.227366 8.394305
vt 7.211669 -7.474429
vt 7.716572 -5.982759
vt 7.957504 -7.72688
vt 8.462407 -6.23521
vt -5.555102 6.485669
vt -4.767701 7.849489
vt -2.405496 6.485669
vt -3.192898 7.849489

usemtl brownLight

f 3/3/1 2/2/1 1/1/1
f 2/2/1 3/3/1 4/4/1
f 4/4/1 3/3/1 5/5/1
f 5/5/1 3/3/1 6/6/1
f 5/5/1 6/6/1 7/7/1
f 7/7/1 6/6/1 8/8/1
f 8/8/1 6/6/1 9/9/1
f 9/9/1 6/6/1 10/10/1
f 10/10/1 6/6/1 11/11/1
f 4/4/1 12/12/1 2/2/1
f 12/12/1 4/4/1 13/13/1
f 12/12/1 13/13/1 14/14/1
f 12/12/1 14/14/1 15/15/1
f 15/15/1 14/14/1 8/8/1
f 15/15/1 8/8/1 9/9/1
f 15/15/1 11/11/1 6/6/1
f 15/15/1 9/9/1 16/16/1
f 15/15/1 16/16/1 11/11/1
f 17/17/1 13/13/1 4/4/1
f 13/13/1 17/17/1 18/18/1
f 18/18/1 17/17/1 7/7/1
f 18/18/1 7/7/1 8/8/1
f 1/21/2 20/20/2 19/19/2
f 20/20/2 1/21/2 2/22/2
f 12/25/3 22/24/3 21/23/3
f 22/24/3 12/25/3 15/26/3
f 3/29/4 19/28/4 23/27/4
f 19/28/4 3/29/4 1/30/4
f 6/33/5 23/32/5 24/31/5
f 23/32/5 6/33/5 3/34/5
f 22/37/6 6/36/6 24/35/6
f 6/36/6 22/37/6 15/38/6
f 12/40/7 20/27/7 2/39/7
f 20/27/7 12/40/7 21/28/7
f 21/43/8 19/42/8 20/41/8
f 19/42/8 21/43/8 23/44/8
f 23/44/8 21/43/8 22/45/8
f 23/44/8 22/45/8 24/46/8

usemtl brownDark

f 27/19/6 26/48/6 25/47/6
f 26/48/6 27/19/6 28/49/6
f 27/52/9 29/51/9 28/50/9
f 29/51/9 27/52/9 30/53/9
f 26/55/10 31/54/10 25/37/10
f 31/54/10 26/55/10 32/56/10
f 34/58/11 30/20/11 33/57/11
f 30/20/11 34/58/11 29/59/11
f 32/61/2 33/35/2 31/60/2
f 33/35/2 32/61/2 34/62/2
f 32/65/1 36/64/1 35/63/1
f 36/64/1 32/65/1 37/66/1
f 37/66/1 32/65/1 26/67/1
f 36/64/1 37/66/1 38/68/1
f 37/66/1 26/67/1 39/69/1
f 39/69/1 26/67/1 40/70/1
f 40/70/1 26/67/1 28/71/1
f 35/63/1 34/72/1 32/65/1
f 34/72/1 35/63/1 29/73/1
f 29/73/1 38/68/1 37/66/1
f 29/73/1 40/70/1 28/71/1
f 29/73/1 35/63/1 41/74/1
f 29/73/1 41/74/1 38/68/1
f 29/73/1 37/66/1 42/75/1
f 29/73/1 42/75/1 40/70/1
f 30/78/8 31/77/8 33/76/8
f 31/77/8 30/78/8 25/79/8
f 25/79/8 30/78/8 27/80/8
f 43/83/12 42/82/12 37/81/12
f 42/82/12 43/83/12 44/84/12
f 40/87/13 45/86/13 39/85/13
f 45/86/13 40/87/13 46/88/13
f 45/91/14 44/90/14 43/89/14
f 44/90/14 45/91/14 46/92/14
f 45/95/15 37/94/15 39/93/15
f 37/94/15 45/95/15 43/96/15
f 44/99/16 40/98/16 42/97/16
f 40/98/16 44/99/16 46/100/16
f 49/103/17 48/102/17 47/101/17
f 48/102/17 49/103/17 50/104/17
f 47/107/18 41/106/18 35/105/18
f 41/106/18 47/107/18 48/108/18
f 50/111/19 36/110/19 38/109/19
f 36/110/19 50/111/19 49/112/19
f 41/115/20 50/114/20 38/113/20
f 50/114/20 41/115/20 48/116/20
f 47/119/21 36/118/21 49/117/21
f 36/118/21 47/119/21 35/120/21

usemtl green

f 18/18/1 14/14/1 13/13/1
f 14/14/1 18/18/1 8/8/1
f 53/51/22 52/52/22 51/53/22
f 52/52/22 53/51/22 54/50/22
f 57/55/2 56/54/2 55/37/2
f 56/54/2 57/55/2 58/56/2
f 5/5/1 17/17/1 4/4/1
f 17/17/1 5/5/1 7/7/1
f 58/61/11 59/35/11 56/60/11
f 59/35/11 58/61/11 60/62/11
f 10/10/1 16/16/1 9/9/1
f 16/16/1 10/10/1 11/11/1
f 54/49/10 55/47/10 52/19/10
f 55/47/10 54/49/10 57/48/10
f 59/57/6 53/59/6 51/20/6
f 53/59/6 59/57/6 60/58/6
f 57/123/1 61/122/1 58/121/1
f 61/122/1 57/123/1 54/124/1
f 61/122/1 54/124/1 62/125/1
f 62/125/1 54/124/1 63/126/1
f 62/125/1 63/126/1 64/127/1
f 63/126/1 54/124/1 65/128/1
f 65/128/1 54/124/1 66/129/1
f 66/129/1 54/124/1 53/130/1
f 67/131/1 58/121/1 61/122/1
f 58/121/1 67/131/1 60/132/1
f 60/132/1 67/131/1 64/127/1
f 60/132/1 66/129/1 53/130/1
f 60/132/1 64/127/1 68/133/1
f 68/133/1 64/127/1 63/126/1
f 60/132/1 68/133/1 66/129/1
f 56/136/8 52/135/8 55/134/8
f 52/135/8 56/136/8 59/137/8
f 52/135/8 59/137/8 51/138/8

usemtl _defaultMat

f 69/135/23 23/137/23 19/138/23
f 23/135/23 69/137/23 70/138/23
f 73/135/24 72/137/24 71/138/24
f 72/135/24 73/137/24 74/138/24
f 75/135/25 20/137/25 21/138/25
f 20/135/25 75/137/25 76/138/25
f 78/135/26 77/137/26 51/138/26
f 77/135/26 78/137/26 79/138/26
f 77/135/26 79/137/26 80/138/26
f 80/135/26 79/137/26 25/138/26
f 25/135/26 79/137/26 27/138/26
f 59/135/26 51/137/26 77/138/26
f 82/135/8 72/137/8 81/138/8
f 72/135/8 82/137/8 71/138/8
f 71/135/8 82/137/8 83/138/8
f 71/135/8 83/137/8 84/138/8
f 84/135/8 83/137/8 85/138/8
f 84/135/8 85/137/8 86/138/8
f 33/135/27 87/137/27 31/138/27
f 87/135/27 33/137/27 88/138/27
f 89/44/28 71/45/28 84/46/28
f 71/44/28 89/45/28 73/46/28
f 90/44/29 83/45/29 82/46/29
f 83/44/29 90/45/29 91/46/29
f 92/44/30 33/45/30 30/46/30
f 33/44/30 92/45/30 88/46/30
f 88/44/30 92/45/30 93/46/30
f 93/44/30 21/45/30 22/46/30
f 21/44/30 93/45/30 75/46/30
f 75/44/30 93/45/30 92/46/30
f 79/44/31 30/45/31 27/46/31
f 30/44/31 79/45/31 92/46/31
f 86/44/32 95/45/32 94/46/32
f 95/44/32 86/45/32 85/46/32
f 74/44/1 69/45/1 96/46/1
f 69/44/1 74/45/1 73/46/1
f 69/44/1 73/45/1 70/46/1
f 70/44/1 73/45/1 89/46/1
f 70/44/1 89/45/1 97/46/1
f 97/44/1 89/45/1 78/46/1
f 78/44/1 89/45/1 94/46/1
f 78/44/1 94/45/1 79/46/1
f 96/44/1 76/45/1 90/46/1
f 76/44/1 96/45/1 69/46/1
f 90/44/1 76/45/1 75/46/1
f 90/44/1 75/45/1 91/46/1
f 91/44/1 75/45/1 92/46/1
f 91/44/1 92/45/1 79/46/1
f 91/44/1 79/45/1 95/46/1
f 95/44/1 79/45/1 94/46/1
f 77/44/33 56/45/33 59/46/33
f 56/44/33 77/45/33 98/46/33
f 94/44/34 84/45/34 86/46/34
f 84/44/34 94/45/34 89/46/34
f 97/44/35 51/45/35 52/46/35
f 51/44/35 97/45/35 78/46/35
f 96/44/36 72/45/36 74/46/36
f 72/44/36 96/45/36 81/46/36
f 87/44/37 25/45/37 31/46/37
f 25/44/37 87/45/37 80/46/37
f 91/44/38 85/45/38 83/46/38
f 85/44/38 91/45/38 95/46/38
f 96/44/39 82/45/39 81/46/39
f 82/44/39 96/45/39 90/46/39
f 19/44/40 76/45/40 69/46/40
f 76/44/40 19/45/40 20/46/40
f 55/79/27 98/78/27 99/80/27
f 98/79/27 55/78/27 56/80/27
f 99/79/1 93/78/1 100/80/1
f 93/79/1 99/78/1 88/80/1
f 88/79/1 99/78/1 98/80/1
f 88/79/1 98/78/1 87/80/1
f 87/79/1 98/78/1 77/80/1
f 87/79/1 77/78/1 80/80/1
f 93/79/41 24/78/41 100/80/41
f 24/79/41 93/78/41 22/80/41
f 70/79/42 24/78/42 23/80/42
f 24/79/42 70/78/42 100/80/42
f 100/79/42 70/78/42 99/80/42
f 99/79/42 52/78/42 55/80/42
f 52/79/42 99/78/42 97/80/42
f 97/79/42 99/78/42 70/80/42

usemtl greenDark

f 64/141/43 102/140/43 101/139/43
f 102/140/43 64/141/43 67/142/43
f 103/145/44 61/144/44 62/143/44
f 61/144/44 103/145/44 104/146/44
f 105/149/45 63/148/45 65/147/45
f 63/148/45 105/149/45 106/150/45
f 106/153/46 68/152/46 63/151/46
f 68/152/46 106/153/46 107/154/46
f 103/157/1 102/156/1 104/155/1
f 102/156/1 103/157/1 101/158/1
f 61/161/47 102/160/47 67/159/47
f 102/160/47 61/161/47 104/162/47
f 101/165/48 62/164/48 64/163/48
f 62/164/48 101/165/48 103/166/48
f 68/169/49 108/168/49 66/167/49
f 108/168/49 68/169/49 107/170/49
f 105/173/1 107/172/1 106/171/1
f 107/172/1 105/173/1 108/174/1
f 66/177/50 105/176/50 65/175/50
f 105/176/50 66/177/50 108/178/50

g lid

v 0.543956 0.1201744 -0.2154564
v 0.6041319 0.2244019 -0.335808
v 0.379463 0.164736 -0.2434657
v 0.4474617 0.2825131 -0.379463
v 0.8195883 0.5975833 0.335808
v 0.6909274 0.704208 0.379463
v 0.8797641 0.7018108 0.2154564
v 0.7589262 0.8219852 0.2434657
v 0.748987 0.6273621 0.3117947
v 0.684894 0.6937578 0.3503311
v 0.5430419 0.270655 0.3117947
v 0.4534951 0.2929633 0.3503311
v 0.7589262 0.8219852 -0.2434657
v 0.8797641 0.7018108 -0.2154564
v 0.8195883 0.5975833 -0.335808
v 0.6909274 0.704208 -0.379463
v 0.4901171 0.1789865 0.205945
v 0.4901171 0.1789865 -0.205945
v 0.5430419 0.270655 -0.3117947
v 0.748987 0.6273621 -0.3117947
v 0.8019118 0.7190307 0.205945
v 0.8019118 0.7190307 -0.205945
v 0.543956 0.1201744 0.2154564
v 0.6041319 0.2244019 0.335808
v 0.7443601 0.7967562 -0.2313989
v 0.684894 0.6937578 -0.3503311
v 0.7443601 0.7967562 0.2313989
v 0.4534951 0.2929633 -0.3503311
v 0.394029 0.189965 -0.2313989
v 0.4474617 0.2825131 0.379463
v 0.394029 0.189965 0.2313989
v 0.379463 0.164736 0.2434657

vn -0.1055624 -0.927987 -0.8564416
vn 0.7508794 0.5554131 0.8564416
vn -0.4372815 0.2524647 -1.162257
vn 0.893575 0.8985097 0
vn 0.281115 -0.1623019 -1.22492
vn -1.097427 0.6336001 0
vn 1.097427 -0.6336001 0
vn -0.8977664 -0.4033525 0.7981967
vn -1.01841 -0.7540796 0
vn -0.09956953 0.9791647 0.7981967
vn 0.7508794 0.5554131 -0.8564416
vn 0.281115 -0.1623019 1.22492
vn -0.8977664 -0.4033525 -0.7981967
vn 0.1438472 1.259009 0
vn -0.3313449 -1.223113 0
vn -0.1055624 -0.927987 0.8564416
vn -0.4372815 0.2524647 1.162257
vn -0.09956953 0.9791647 -0.7981967

vt 0 0

usemtl _defaultMat

f 111/179/51 110/179/51 109/179/51
f 110/179/51 111/179/51 112/179/51
f 115/179/52 114/179/52 113/179/52
f 114/179/52 115/179/52 116/179/52
f 119/179/53 118/179/53 117/179/53
f 118/179/53 119/179/53 120/179/53
f 115/179/54 121/179/54 116/179/54
f 121/179/54 115/179/54 122/179/54
f 110/179/55 124/179/55 123/179/55
f 124/179/55 110/179/55 112/179/55
f 119/179/56 126/179/56 125/179/56
f 126/179/56 119/179/56 127/179/56
f 127/179/56 119/179/56 117/179/56
f 127/179/56 117/179/56 128/179/56
f 128/179/56 117/179/56 129/179/56
f 128/179/56 129/179/56 130/179/56
f 110/179/57 131/179/57 109/179/57
f 131/179/57 110/179/57 132/179/57
f 132/179/57 110/179/57 123/179/57
f 132/179/57 123/179/57 113/179/57
f 113/179/57 123/179/57 122/179/57
f 113/179/57 122/179/57 115/179/57
f 133/179/58 128/179/58 130/179/58
f 128/179/58 133/179/58 134/179/58
f 133/179/59 129/179/59 135/179/59
f 129/179/59 133/179/59 130/179/59
f 136/179/60 126/179/60 127/179/60
f 126/179/60 136/179/60 137/179/60
f 124/179/61 122/179/61 123/179/61
f 122/179/61 124/179/61 121/179/61
f 114/179/62 132/179/62 113/179/62
f 132/179/62 114/179/62 138/179/62
f 140/179/56 139/179/56 111/179/56
f 139/179/56 140/179/56 138/179/56
f 139/179/56 138/179/56 120/179/56
f 120/179/56 138/179/56 114/179/56
f 120/179/56 114/179/56 118/179/56
f 118/179/56 114/179/56 135/179/56
f 135/179/56 114/179/56 116/179/56
f 135/179/56 116/179/56 133/179/56
f 137/179/56 111/179/56 139/179/56
f 111/179/56 137/179/56 112/179/56
f 112/179/56 137/179/56 136/179/56
f 112/179/56 136/179/56 124/179/56
f 124/179/56 136/179/56 134/179/56
f 124/179/56 134/179/56 133/179/56
f 124/179/56 133/179/56 121/179/56
f 121/179/56 133/179/56 116/179/56
f 118/179/63 129/179/63 117/179/63
f 129/179/63 118/179/63 135/179/63
f 125/179/64 137/179/64 139/179/64
f 137/179/64 125/179/64 126/179/64
f 111/179/65 131/179/65 140/179/65
f 131/179/65 111/179/65 109/179/65
f 132/179/66 140/179/66 131/179/66
f 140/179/66 132/179/66 138/179/66
f 134/179/67 127/179/67 128/179/67
f 127/179/67 134/179/67 136/179/67
f 139/179/68 119/179/68 125/179/68
f 119/179/68 139/179/68 120/179/68

