# Created by Kenney (www.kenney.nl)

mtllib sundae.mtl

g sundae

v 0.02769549 0.12 0.01599
v 0.02769549 0.12 -0.01599
v 0.02251666 0.05 0.013
v 0.02251666 0.05 -0.013
v 0.1115943 0.42 0.064429
v -5.414335E-15 0.42 0.128858
v 0.1115943 0.4431027 0.064429
v -5.414335E-15 0.4431027 0.128858
v 0.0836539 0.22 0.0482976
v -2.165734E-15 0.22 0.0965952
v 0.08992794 0.305 0.05191991
v -2.887646E-15 0.305 0.1038398
v -0.02251666 0.05 -0.013
v 1.082867E-15 0.05 -0.026
v -0.02769549 0.12 -0.01599
v -7.219114E-16 0.12 -0.03198
v 1.804779E-15 0.02 -0.1
v 0.08660254 0.02 -0.05
v -0.04863599 0.17 0.02808
v -0.02769549 0.12 0.01599
v -0.04863599 0.17 -0.02808
v -0.08660254 0 -0.05
v -0.08660254 0 0.05
v 1.804779E-15 0 -0.1
v 1.804779E-15 0 0.1
v 0.08660254 0 -0.05
v 0.08660254 0 0.05
v -0.08992794 0.305 0.05191991
v -0.0836539 0.22 0.0482976
v -0.08992794 0.305 -0.05191991
v -0.0836539 0.22 -0.0482976
v 0 0.17 0.05616
v -0.08660254 0.02 0.05
v -0.02251666 0.05 0.013
v 1.804779E-15 0.02 0.1
v 1.082867E-15 0.05 0.026
v -7.219114E-16 0.12 0.03198
v 0.04863599 0.17 0.02808
v 0.1115943 0.42 -0.064429
v 0.1115943 0.4431027 -0.064429
v 0.04863599 0.17 -0.02808
v -0.1115943 0.42 -0.064429
v -5.414335E-15 0.42 -0.128858
v -0.1115943 0.4431027 -0.064429
v -5.414335E-15 0.4431027 -0.128858
v -0.1115943 0.42 0.064429
v -0.1115943 0.4431027 0.064429
v 0.0836539 0.22 -0.0482976
v -0.08660254 0.02 -0.05
v 0 0.17 -0.05616
v -2.165734E-15 0.22 -0.0965952
v 0.08660254 0.02 0.05
v -2.887646E-15 0.305 -0.1038398
v 0.08992794 0.305 -0.05191991
v -3.970513E-15 0.39 0.1110845
v -0.09620198 0.39 0.05554224
v 0.09620198 0.39 0.05554224
v 0.09620198 0.39 -0.05554224
v -0.09620198 0.39 -0.05554224
v -3.970513E-15 0.39 -0.1110845
v -0.01623804 0.5886484 0.009375033
v -0.01623804 0.5886484 -0.009375033
v -0.005083211 0.6188735 0.002934793
v -0.005083211 0.6188735 -0.002934793
v -8.121504E-15 0.5676489 0.03959051
v -0.03428639 0.5676489 0.01979526
v -8.121504E-15 0.5886484 0.03442654
v -0.02981425 0.5886484 0.01721327
v 0.05734349 0.5493912 -0.03310728
v 0.05120964 0.5676489 -0.0295659
v -7.399592E-15 0.5493912 -0.06621456
v -8.121504E-15 0.5676489 -0.0591318
v 0.05734349 0.5493912 0.03310728
v 0.05120964 0.5676489 0.0295659
v -0.05734349 0.5493912 0.03310728
v -0.05734349 0.5493912 -0.03310728
v -0.05120964 0.5676489 0.0295659
v -0.05120964 0.5676489 -0.0295659
v -7.399592E-15 0.5493912 0.06621456
v -8.121504E-15 0.5676489 0.0591318
v -8.121504E-15 0.5676489 -0.03959051
v 0.03428639 0.5676489 -0.01979526
v -8.121504E-15 0.5886484 -0.03442654
v 0.02981425 0.5886484 -0.01721327
v 0.01623804 0.5886484 0.009375033
v -9.565326E-15 0.5886484 0.01875007
v 0.005083211 0.6188735 0.002934793
v -9.565326E-15 0.6188735 0.005869586
v -0.03428639 0.5676489 -0.01979526
v -0.02981425 0.5886484 -0.01721327
v 0.01623804 0.5886484 -0.009375033
v 0.005083211 0.6188735 -0.002934793
v 0.03428639 0.5676489 0.01979526
v 0.02981425 0.5886484 0.01721327
v -9.565326E-15 0.5886484 -0.01875007
v -9.565326E-15 0.6188735 -0.005869586
v -0.0869104 0.4650504 0.05017774
v -0.0420429 0.4815111 0.07282045
v -5.594814E-15 0.4650504 0.1003555
v -5.594814E-15 0.4979718 0.09383237
v -0.08126122 0.4979718 0.04691619
v 0.08126122 0.4979718 0.04691619
v 0.08408581 0.4815111 0
v 0.0869104 0.4650504 0.05017774
v 0.0869104 0.4650504 -0.05017774
v 0.08126122 0.4979718 -0.04691619
v 0.0420429 0.4815111 0.07282045
v -5.594814E-15 0.4650504 -0.1003555
v -0.0420429 0.4815111 -0.07282045
v -0.0869104 0.4650504 -0.05017774
v -0.08126122 0.4979718 -0.04691619
v -5.594814E-15 0.4979718 -0.09383237
v -0.08408581 0.4815111 0
v 0.0420429 0.4815111 -0.07282045
v -5.594814E-15 0.4211552 -0.1003555
v 0.0869104 0.4211552 -0.05017774
v -6.316725E-15 0.4431027 -0.1174159
v 0.1016852 0.4431027 -0.05870796
v -6.316725E-15 0.4431027 0.1174159
v -0.1016852 0.4431027 0.05870796
v -0.0869104 0.4211552 0.05017774
v -0.1016852 0.4431027 -0.05870796
v -0.0869104 0.4211552 -0.05017774
v 0.0869104 0.4211552 0.05017774
v -5.594814E-15 0.4211552 0.1003555
v 0.1016852 0.4431027 0.05870796
v -5.955769E-15 0.5308932 -0.08730927
v 0.07561205 0.5308932 -0.04365464
v -7.038636E-15 0.5638146 -0.04976628
v 0.04309886 0.5638146 -0.02488314
v -0.04309886 0.5638146 0.02488314
v -0.04309886 0.5638146 -0.02488314
v -0.07561205 0.5308932 -0.04365464
v -0.07561205 0.5308932 0.04365464
v -7.038636E-15 0.5638146 0.04976628
v 0.04309886 0.5638146 0.02488314
v -5.955769E-15 0.5308932 0.08730927
v 0.07561205 0.5308932 0.04365464

vn 0.9972745 -0.07378168 0
vn 0.5 0 0.8660254
vn 0.4986435 -0.073612 0.8636758
vn -0.4986372 -0.07378167 -0.863665
vn 0.2119837 0.9056774 -0.3671665
vn -0.9223735 -0.3862992 0
vn 0 -1 0
vn -0.997287 -0.073612 0
vn -0.4095471 -0.5736592 0.7093562
vn -0.2119837 0.9056774 0.3671665
vn 0.4986372 -0.07378167 -0.863665
vn 0.4611867 -0.3862991 0.7987989
vn 1 0 0
vn -0.9972745 -0.07378168 0
vn 0.4095471 -0.5736592 0.7093562
vn 0.9223735 -0.3862992 0
vn -0.5 0 -0.8660254
vn -0.5 0 0.8660254
vn 0.819094 -0.5736592 0
vn -0.4986372 -0.07378167 0.863665
vn -0.4239674 0.9056774 0
vn 0.4095471 -0.5736592 -0.7093562
vn -0.819094 -0.5736592 0
vn -0.4611867 -0.3862991 0.7987989
vn 0.2119837 0.9056774 0.3671665
vn 0.4986435 -0.073612 -0.8636758
vn 0.5 0 -0.8660254
vn 0.4611867 -0.3862991 -0.7987989
vn -0.4986435 -0.073612 0.8636758
vn -0.4611867 -0.3862991 -0.7987989
vn 0.4239674 0.9056774 0
vn -0.4986435 -0.073612 -0.8636758
vn 0.4986372 -0.07378167 0.863665
vn -0.2119837 0.9056774 -0.3671665
vn -0.4095471 -0.5736592 -0.7093562
vn -1 0 0
vn 0.997287 -0.073612 0
vn -0.4448624 -0.4564975 0.7705243
vn 0.4448624 -0.4564975 0.7705243
vn 0 1 0
vn 0.8897247 -0.4564975 0
vn -0.4448624 -0.4564975 -0.7705243
vn 0.4448624 -0.4564975 -0.7705243
vn -0.8897247 -0.4564975 0
vn -0.9381486 0.3462327 0
vn -0.4890333 0.2082929 0.8470304
vn 0.4739671 0.3184662 -0.8209351
vn 0.9479342 0.3184662 0
vn -0.9479342 0.3184662 0
vn -0.4739671 0.3184662 -0.8209351
vn -0.4739671 0.3184662 0.8209351
vn 0.4739671 0.3184662 0.8209351
vn 0.4890333 0.2082929 -0.8470304
vn 0.4690743 0.3462327 0.8124605
vn -0.9780664 0.2082929 0
vn 0.9381486 0.3462327 0
vn 0.4890333 0.2082929 0.8470304
vn -0.4690743 0.3462327 -0.8124605
vn -0.4890333 0.2082929 -0.8470304
vn 0.4690743 0.3462327 -0.8124605
vn -0.4690743 0.3462327 0.8124605
vn 0.9780664 0.2082929 0
vn -0.4927974 0.1691238 0.8535501
vn 0.9855947 0.1691238 0
vn 0.4927974 0.1691238 0.8535501
vn -0.4927974 0.1691238 -0.8535501
vn -0.9855947 0.1691238 0
vn 0.4927974 0.1691238 -0.8535501
vn 0.4147735 -0.558437 -0.7184087
vn -0.4147735 0.558437 0.7184087
vn -0.8295469 -0.558437 0
vn -0.4147735 0.558437 -0.7184087
vn 0.4147735 -0.558437 0.7184087
vn 0.8295469 -0.558437 0
vn 0.8295469 0.558437 0
vn -0.8295469 0.558437 0
vn -0.4147735 -0.558437 0.7184087
vn 0.4147735 0.558437 0.7184087
vn 0.4147735 0.558437 -0.7184087
vn -0.4147735 -0.558437 -0.7184087
vn 0.3557523 0.7026814 -0.616181
vn -0.7115045 0.7026814 0
vn -0.3557523 0.7026814 -0.616181
vn 0.3557523 0.7026814 0.616181
vn 0.7115045 0.7026814 0
vn -0.3557523 0.7026814 0.616181

vt 0 0
vt 2.044091 12.23592
vt -2.044091 12.23592
vt 2.186702 15.59148
vt -2.186702 15.59148
vt -2.273737E-13 18.12417
vt -1.975502 17.46664
vt -1.847094 18.7817
vt -1.303436 13.80315
vt 1.303436 13.80315
vt -1.718686 12.7796
vt 1.718686 12.7796
vt -1.718686 20.09676
vt 7.849722E-18 18.12417
vt 1.847094 18.7817
vt 6.959207E-18 18.12417
vt 1.718686 20.09676
vt -1.975502 13.27745
vt 1.975502 13.27745
vt -2.311337 12.23582
vt 1.975502 15.66543
vt -1.975502 15.66543
vt 2.311337 16.70706
vt 0.9796513 14.60126
vt -0.9796513 14.60126
vt -2.311337 16.70706
vt 1.975502 17.46664
vt 1.465087E-15 18.12417
vt -2.757794E-13 18.12417
vt 2.446932E-13 18.12417
vt -7.345906E-16 18.12417
vt 2.64011E-13 18.12417
vt 2.311337 12.23582
vt 3.421669 1.975502
vt 3.421669 -1.975502
vt 2.202682E-13 3.951003
vt 2.202682E-13 -3.951003
vt -3.421669 1.975502
vt -3.421669 -1.975502
vt -1.696806 -0.9796513
vt -1.696806 0.9796513
vt -2.771117E-13 -1.959303
vt -2.771117E-13 1.959303
vt 1.696806 -0.9796513
vt 1.696806 0.9796513

usemtl _defaultMat

f 3/1/1 2/1/1 1/1/1
f 2/1/1 3/1/1 4/1/1
f 7/1/2 6/1/2 5/1/2
f 6/1/2 7/1/2 8/1/2
f 11/1/3 10/1/3 9/1/3
f 10/1/3 11/1/3 12/1/3
f 15/1/4 14/1/4 13/1/4
f 14/1/4 15/1/4 16/1/4
f 4/1/5 17/1/5 14/1/5
f 17/1/5 4/1/5 18/1/5
f 21/1/6 20/1/6 19/1/6
f 20/1/6 21/1/6 15/1/6
f 24/1/7 23/1/7 22/1/7
f 23/1/7 24/1/7 25/1/7
f 25/1/7 24/1/7 26/1/7
f 25/1/7 26/1/7 27/1/7
f 30/1/8 29/1/8 28/1/8
f 29/1/8 30/1/8 31/1/8
f 10/1/9 19/1/9 32/1/9
f 19/1/9 10/1/9 29/1/9
f 35/1/10 34/1/10 33/1/10
f 34/1/10 35/1/10 36/1/10
f 16/1/11 4/1/11 14/1/11
f 4/1/11 16/1/11 2/1/11
f 38/1/12 37/1/12 1/1/12
f 37/1/12 38/1/12 32/1/12
f 39/1/13 7/1/13 5/1/13
f 7/1/13 39/1/13 40/1/13
f 15/1/14 34/1/14 20/1/14
f 34/1/14 15/1/14 13/1/14
f 9/1/15 32/1/15 38/1/15
f 32/1/15 9/1/15 10/1/15
f 1/1/16 41/1/16 38/1/16
f 41/1/16 1/1/16 2/1/16
f 44/1/17 43/1/17 42/1/17
f 43/1/17 44/1/17 45/1/17
f 8/1/18 46/1/18 6/1/18
f 46/1/18 8/1/18 47/1/18
f 38/1/19 48/1/19 9/1/19
f 48/1/19 38/1/19 41/1/19
f 37/1/20 34/1/20 36/1/20
f 34/1/20 37/1/20 20/1/20
f 34/1/21 49/1/21 33/1/21
f 49/1/21 34/1/21 13/1/21
f 51/1/22 41/1/22 50/1/22
f 41/1/22 51/1/22 48/1/22
f 31/1/23 19/1/23 29/1/23
f 19/1/23 31/1/23 21/1/23
f 32/1/24 20/1/24 37/1/24
f 20/1/24 32/1/24 19/1/24
f 35/1/25 3/1/25 36/1/25
f 3/1/25 35/1/25 52/1/25
f 53/1/26 48/1/26 51/1/26
f 48/1/26 53/1/26 54/1/26
f 45/1/27 39/1/27 43/1/27
f 39/1/27 45/1/27 40/1/27
f 50/1/28 2/1/28 16/1/28
f 2/1/28 50/1/28 41/1/28
f 12/1/29 29/1/29 10/1/29
f 29/1/29 12/1/29 28/1/29
f 21/1/30 16/1/30 15/1/30
f 16/1/30 21/1/30 50/1/30
f 52/1/31 4/1/31 3/1/31
f 4/1/31 52/1/31 18/1/31
f 30/1/32 51/1/32 31/1/32
f 51/1/32 30/1/32 53/1/32
f 1/1/33 36/1/33 3/1/33
f 36/1/33 1/1/33 37/1/33
f 13/1/34 17/1/34 49/1/34
f 17/1/34 13/1/34 14/1/34
f 31/1/35 50/1/35 21/1/35
f 50/1/35 31/1/35 51/1/35
f 44/1/36 46/1/36 47/1/36
f 46/1/36 44/1/36 42/1/36
f 49/4/36 23/3/36 33/2/36
f 23/4/36 49/3/36 22/2/36
f 9/4/37 54/3/37 11/2/37
f 54/4/37 9/3/37 48/2/37
f 6/4/38 56/3/38 55/2/38
f 56/4/38 6/3/38 46/2/38
f 5/4/39 55/3/39 57/2/39
f 55/4/39 5/3/39 6/2/39
f 35/4/40 49/3/40 33/2/40
f 49/4/40 35/3/40 17/2/40
f 17/4/40 35/3/40 52/2/40
f 17/4/40 52/3/40 18/2/40
f 57/4/41 39/3/41 5/2/41
f 39/4/41 57/3/41 58/2/41
f 35/4/18 23/3/18 25/2/18
f 23/4/18 35/3/18 33/2/18
f 42/2/42 60/5/42 59/3/42
f 60/2/42 42/5/42 43/3/42
f 17/2/27 26/5/27 24/3/27
f 26/2/27 17/5/27 18/3/27
f 26/2/13 52/5/13 27/3/13
f 52/2/13 26/5/13 18/3/13
f 49/2/17 24/5/17 22/3/17
f 24/2/17 49/5/17 17/3/17
f 43/2/43 58/5/43 60/3/43
f 58/2/43 43/5/43 39/3/43
f 52/3/2 25/4/2 27/5/2
f 25/3/2 52/4/2 35/5/2
f 42/3/44 56/4/44 46/5/44
f 56/3/44 42/4/44 59/5/44
f 63/8/45 62/7/45 61/6/45
f 62/8/45 63/7/45 64/6/45
f 67/8/46 66/7/46 65/6/46
f 66/8/46 67/7/46 68/6/46
f 71/8/47 70/7/47 69/6/47
f 70/8/47 71/7/47 72/6/47
f 69/11/48 74/10/48 73/9/48
f 74/11/48 69/10/48 70/9/48
f 77/11/49 76/10/49 75/9/49
f 76/11/49 77/10/49 78/9/49
f 78/11/50 71/10/50 76/9/50
f 71/11/50 78/10/50 72/9/50
f 79/10/51 77/11/51 75/12/51
f 77/10/51 79/11/51 80/12/51
f 74/14/52 79/13/52 73/8/52
f 79/14/52 74/13/52 80/8/52
f 83/17/53 82/16/53 81/15/53
f 82/17/53 83/16/53 84/15/53
f 87/9/54 86/12/54 85/10/54
f 86/9/54 87/12/54 88/10/54
f 68/9/55 89/12/55 66/10/55
f 89/9/55 68/12/55 90/10/55
f 91/9/56 87/12/56 85/10/56
f 87/9/56 91/12/56 92/10/56
f 94/20/57 65/19/57 93/18/57
f 65/20/57 94/19/57 67/18/57
f 64/23/58 95/22/58 62/21/58
f 95/23/58 64/22/58 96/21/58
f 90/25/59 81/10/59 89/24/59
f 81/25/59 90/10/59 83/24/59
f 96/25/60 91/10/60 95/24/60
f 91/25/60 96/10/60 92/24/60
f 88/25/61 61/10/61 86/24/61
f 61/25/61 88/10/61 63/24/61
f 88/25/40 64/10/40 63/24/40
f 64/25/40 88/10/40 96/24/40
f 96/25/40 88/10/40 87/24/40
f 96/25/40 87/10/40 92/24/40
f 82/22/62 94/23/62 93/26/62
f 94/22/62 82/23/62 84/26/62
f 68/22/40 61/23/40 90/26/40
f 61/22/40 68/23/40 67/26/40
f 61/22/40 67/23/40 86/26/40
f 86/22/40 67/23/40 85/26/40
f 85/22/40 67/23/40 94/26/40
f 85/22/40 94/23/40 91/26/40
f 90/22/40 62/23/40 83/26/40
f 62/22/40 90/23/40 61/26/40
f 83/22/40 62/23/40 95/26/40
f 83/22/40 91/23/40 84/26/40
f 83/22/40 95/23/40 91/26/40
f 84/22/40 91/23/40 94/26/40
f 77/22/40 66/23/40 78/26/40
f 66/22/40 77/23/40 80/26/40
f 66/22/40 80/23/40 65/26/40
f 65/22/40 80/23/40 74/26/40
f 65/22/40 74/23/40 93/26/40
f 93/22/40 74/23/40 82/26/40
f 78/22/40 89/23/40 72/26/40
f 89/22/40 78/23/40 66/26/40
f 72/22/40 89/23/40 81/26/40
f 72/22/40 82/23/40 70/26/40
f 72/22/40 81/23/40 82/26/40
f 70/22/40 82/23/40 74/26/40
f 8/22/40 44/23/40 47/26/40
f 44/22/40 8/23/40 45/26/40
f 45/22/40 8/23/40 7/26/40
f 45/22/40 7/23/40 40/26/40

usemtl purpleLight

f 11/3/37 58/4/37 57/5/37
f 58/4/37 11/3/37 54/2/37
f 55/4/29 28/3/29 12/2/29
f 28/3/29 55/4/29 56/5/29
f 59/5/8 28/2/8 56/4/8
f 28/2/8 59/5/8 30/3/8
f 57/4/3 12/3/3 11/2/3
f 12/3/3 57/4/3 55/5/3
f 59/4/32 53/3/32 30/2/32
f 53/3/32 59/4/32 60/5/32
f 60/4/26 54/3/26 53/2/26
f 54/3/26 60/4/26 58/5/26
f 99/27/63 98/6/63 97/7/63
f 98/6/63 99/27/63 100/15/63
f 101/8/63 97/7/63 98/6/63
f 104/7/64 103/28/64 102/8/64
f 103/28/64 104/7/64 105/27/64
f 103/28/64 105/27/64 106/15/64
f 104/27/65 107/29/65 99/7/65
f 107/29/65 104/27/65 102/15/65
f 100/8/65 99/7/65 107/29/65
f 110/27/66 109/30/66 108/7/66
f 109/30/66 110/27/66 111/15/66
f 112/8/66 108/7/66 109/30/66
f 97/27/67 113/31/67 110/7/67
f 113/31/67 97/27/67 101/15/67
f 110/7/67 113/31/67 111/8/67
f 108/27/68 114/32/68 105/7/68
f 114/32/68 108/27/68 112/15/68
f 106/8/68 105/7/68 114/32/68
f 117/23/69 116/22/69 115/21/69
f 116/22/69 117/23/69 118/26/69
f 99/19/70 120/20/70 119/33/70
f 120/20/70 99/19/70 97/18/70
f 122/26/71 121/21/71 120/23/71
f 121/21/71 122/26/71 123/22/71
f 110/19/72 117/20/72 122/33/72
f 117/20/72 110/19/72 108/18/72
f 126/23/73 125/22/73 124/21/73
f 125/22/73 126/23/73 119/26/73
f 124/22/74 118/23/74 126/26/74
f 118/23/74 124/22/74 116/21/74
f 118/33/75 104/18/75 126/20/75
f 104/18/75 118/33/75 105/19/75
f 97/19/76 122/20/76 120/33/76
f 122/20/76 97/19/76 110/18/76
f 115/36/7 121/35/7 123/34/7
f 121/35/7 115/36/7 125/37/7
f 125/37/7 115/36/7 116/38/7
f 125/37/7 116/38/7 124/39/7
f 119/23/77 121/22/77 125/21/77
f 121/22/77 119/23/77 120/26/77
f 104/19/78 119/20/78 126/33/78
f 119/20/78 104/19/78 99/18/78
f 108/19/79 118/20/79 117/33/79
f 118/20/79 108/19/79 105/18/79
f 122/23/80 115/22/80 123/21/80
f 115/22/80 122/23/80 117/26/80

usemtl brownDark

f 69/9/81 127/12/81 71/10/81
f 127/12/81 69/9/81 128/11/81
f 129/24/81 69/9/81 71/10/81
f 69/9/81 129/24/81 130/25/81
f 131/24/82 76/9/82 75/10/82
f 76/9/82 131/24/82 132/25/82
f 133/11/82 75/10/82 76/9/82
f 75/10/82 133/11/82 134/12/82
f 132/24/83 71/9/83 76/10/83
f 71/9/83 132/24/83 129/25/83
f 127/11/83 76/10/83 71/9/83
f 76/10/83 127/11/83 133/12/83
f 135/42/40 132/41/40 131/40/40
f 132/41/40 135/42/40 129/43/40
f 129/43/40 135/42/40 136/44/40
f 129/43/40 136/44/40 130/45/40
f 112/15/68 106/8/68 114/32/68
f 106/8/68 112/15/68 127/17/68
f 106/8/68 127/17/68 128/13/68
f 137/11/84 73/10/84 79/9/84
f 73/10/84 137/11/84 138/12/84
f 73/10/84 135/25/84 79/9/84
f 135/25/84 73/10/84 136/24/84
f 111/15/66 112/8/66 109/30/66
f 112/8/66 111/15/66 133/17/66
f 112/8/66 133/17/66 127/13/66
f 100/15/63 101/8/63 98/6/63
f 101/8/63 100/15/63 137/17/63
f 101/8/63 137/17/63 134/13/63
f 69/10/85 136/25/85 73/9/85
f 136/25/85 69/10/85 130/24/85
f 73/9/85 128/12/85 69/10/85
f 128/12/85 73/9/85 138/11/85
f 79/10/86 131/25/86 75/9/86
f 131/25/86 79/10/86 135/24/86
f 75/9/86 137/12/86 79/10/86
f 137/12/86 75/9/86 134/11/86
f 134/17/67 113/31/67 101/15/67
f 113/31/67 134/17/67 133/13/67
f 113/31/67 133/13/67 111/8/67
f 102/15/65 100/8/65 107/29/65
f 100/8/65 102/15/65 138/17/65
f 100/8/65 138/17/65 137/13/65
f 103/28/64 138/13/64 102/8/64
f 138/13/64 103/28/64 128/17/64
f 128/17/64 103/28/64 106/15/64

g cherry

v -0.03623077 0.5636337 0.01002166
v -0.03623077 0.5511849 0.03158361
v -0.01133316 0.5636337 0.01002166
v -0.01133316 0.5511849 0.03158361
v -0.01133316 0.5557415 0.04858899
v -0.03623077 0.5557415 0.04858899
v -0.01133316 0.5773034 0.06103779
v -0.03623077 0.5773034 0.06103779
v -0.03623077 0.5806391 0.005465079
v -0.01133316 0.5806391 0.005465079
v -0.03623077 0.602201 0.01791388
v -0.01133316 0.602201 0.01791388
v -0.04867956 0.5835278 0.05025681
v -0.04867956 0.5619659 0.03780801
v -0.04867956 0.5959767 0.02869486
v -0.04867956 0.5744147 0.01624606
v 0.001115635 0.5619659 0.03780801
v 0.001115635 0.5835278 0.05025681
v 0.001115635 0.5744147 0.01624606
v 0.001115635 0.5959767 0.02869486
v -0.03623077 0.6067576 0.03491926
v -0.01133316 0.6067576 0.03491926
v -0.03623077 0.5943088 0.05648121
v -0.01133316 0.5943088 0.05648121
v -0.02604169 0.5994033 0.04765722
v -0.02152224 0.5994033 0.04765722
v -0.02152224 0.6016631 0.04374325
v -0.02604169 0.6016631 0.04374325
v -0.0278172 0.6416395 0.07409245
v -0.0278172 0.6456747 0.06710323
v -0.01974674 0.6416395 0.07409245
v -0.01974674 0.6456747 0.06710323

vn 0 -0.5390488 -0.31122
vn 0 -0.31122 0.5390488
vn 0 0.31122 -0.5390488
vn -0.62244 0 0
vn 0.62244 0 0
vn 0 -0.1610993 -0.6012309
vn 0 -0.6012309 0.1610993
vn -0.4401315 -0.3811651 -0.2200658
vn 0 0.6012309 -0.1610993
vn 0.4401315 -0.3811651 -0.2200658
vn -0.4401315 0.3811651 0.2200658
vn 0.4401315 -0.2200658 0.3811651
vn -0.4401315 -0.2200658 0.3811651
vn -0.4401315 0.2200658 -0.3811651
vn 0.4401315 0.3811651 0.2200658
vn 0.3593659 -0.131537 -0.4909029
vn -0.3593659 -0.131537 -0.4909029
vn 0 0.1610993 0.6012309
vn 0.4401315 0.2200658 -0.3811651
vn -0.3593659 0.4909029 -0.131537
vn -0.3593659 -0.4909029 0.131537
vn -0.3593659 0.131537 0.4909029
vn 0.3593659 0.131537 0.4909029
vn 0.3593659 -0.4909029 0.131537
vn 0.3593659 0.4909029 -0.131537
vn 0 0.5390488 0.31122
vn 0 0.2918142 -0.5497963
vn 0.6220447 -0.01920816 -0.01108984
vn -0.6220447 -0.01920816 -0.01108984
vn 0 -0.3302305 0.5276166

vt -0.7874016 2.362205
vt -0.7874016 0.7874016
vt -2.362205 2.362205
vt -2.362205 0.7874016
vt 2.362205 0.7874016
vt 0.7874016 0.7874016
vt 2.362205 2.362205
vt 0.7874016 2.362205
vt -0.7874016 2.783885
vt -0.7874016 1.670331
vt -2.362205 2.783885
vt -2.362205 1.670331
vt 0.7874016 -0.556777
vt 0.7874016 0.556777
vt 2.362205 -0.556777
vt 2.362205 0.556777
vt -0.7874016 0.556777
vt -0.7874016 -0.556777
vt -2.362205 0.556777
vt -2.362205 -0.556777
vt 0.7874016 1.670331
vt 0.7874016 2.783885
vt 2.362205 1.670331
vt 2.362205 2.783885
vt 1.670331 0.7874016
vt 1.670331 2.362205
vt 2.783885 0.7874016
vt 2.783885 2.362205
vt 0.556777 0.7874016
vt -0.556777 0.7874016
vt 0.556777 2.362205
vt -0.556777 2.362205
vt -1.670331 2.362205
vt -1.670331 0.7874016
vt -2.783885 2.362205
vt -2.783885 0.7874016
vt 1.465494E-14 1.928732
vt -0.556777 2.893098
vt 0.556777 2.893098
vt -1.670331 1.607277
vt -2.227108 0.6429107
vt -2.783885 1.607277
vt -2.227108 1.928732
vt -1.670331 0.964366
vt -2.783885 0.964366
vt -0.556777 0.3214554
vt 0.556777 0.3214554
vt 1.021405E-14 -0.6429107
vt 9.936496E-15 3.214553
vt 0.556777 2.250187
vt -0.556777 2.250187
vt 2.783885 0.964366
vt 1.670331 0.964366
vt 2.227108 1.928732
vt 2.227108 0.6429107
vt 1.670331 1.607277
vt 2.783885 1.607277
vt -0.556777 -0.3214554
vt 1.532108E-14 0.6429107
vt 0.556777 -0.3214554
vt 1.431873 1.431873
vt 1.717734 1.431873
vt 1.717734 1.717734
vt 1.431873 1.717734
vt 1.31957 1.31957
vt 1.31957 1.830036
vt 1.830036 1.31957
vt 1.830036 1.830036
vt -1.431873 3.208815
vt -1.717734 3.208815
vt -1.31957 6.360423
vt -1.830036 6.360423
vt 1.31957 6.360423
vt 1.830036 6.360423
vt 1.431873 3.208815
vt 1.717734 3.208815
vt -1.31957 6.248191
vt -1.431873 3.096584
vt -1.830036 6.248191
vt -1.717734 3.096584
vt 1.717734 3.096584
vt 1.431873 3.096584
vt 1.830036 6.248191
vt 1.31957 6.248191

usemtl red

f 141/48/87 140/47/87 139/46/87
f 140/47/87 141/48/87 142/49/87
f 145/52/88 144/51/88 143/50/88
f 144/51/88 145/52/88 146/53/88
f 149/46/89 148/49/89 147/47/89
f 148/49/89 149/46/89 150/48/89
f 153/48/90 152/47/90 151/46/90
f 152/47/90 153/48/90 154/49/90
f 157/50/91 156/53/91 155/51/91
f 156/53/91 157/50/91 158/52/91
f 148/56/92 139/55/92 147/54/92
f 139/55/92 148/56/92 141/57/92
f 142/60/93 144/59/93 140/58/93
f 144/59/93 142/60/93 143/61/93
f 154/64/94 140/63/94 152/62/94
f 140/63/94 154/64/94 139/65/94
f 160/64/95 149/63/95 159/62/95
f 149/63/95 160/64/95 150/65/95
f 141/68/96 155/67/96 142/66/96
f 155/67/96 141/68/96 157/69/96
f 159/56/97 151/55/97 161/54/97
f 151/55/97 159/56/97 153/57/97
f 155/72/98 145/71/98 143/70/98
f 145/71/98 155/72/98 156/73/98
f 146/76/99 152/75/99 144/74/99
f 152/75/99 146/76/99 151/77/99
f 149/80/100 154/79/100 153/78/100
f 154/79/100 149/80/100 147/81/100
f 158/60/101 162/59/101 156/58/101
f 162/59/101 158/60/101 160/61/101
f 148/84/102 157/83/102 141/82/102
f 147/87/103 139/86/103 154/85/103
f 145/68/104 161/67/104 146/66/104
f 161/67/104 145/68/104 162/69/104
f 148/74/105 158/77/105 157/75/105
f 158/77/105 148/74/105 150/76/105
f 149/90/106 153/89/106 159/88/106
f 140/93/107 144/92/107 152/91/107
f 151/96/108 146/95/108 161/94/108
f 162/99/109 145/98/109 156/97/109
f 155/102/110 143/101/110 142/100/110
f 150/105/111 160/104/111 158/103/111
f 161/51/112 163/106/112 159/53/112
f 163/106/112 161/51/112 162/50/112
f 163/106/112 162/50/112 164/107/112
f 164/107/112 162/50/112 165/108/112
f 166/109/112 159/53/112 163/106/112
f 159/53/112 166/109/112 160/52/112
f 160/52/112 166/109/112 165/108/112
f 160/52/112 165/108/112 162/50/112

usemtl green

f 169/112/112 168/111/112 167/110/112
f 168/111/112 169/112/112 170/113/112
f 168/116/113 165/115/113 166/114/113
f 165/115/113 168/116/113 170/117/113
f 164/120/114 170/119/114 169/118/114
f 170/119/114 164/120/114 165/121/114
f 168/124/115 163/123/115 167/122/115
f 163/123/115 168/124/115 166/125/115
f 169/128/116 163/127/116 164/126/116
f 163/127/116 169/128/116 167/129/116

g straw

v -0.01915764 0.667883 -0.05813784
v -0.01699639 0.5602294 -0.03152963
v -0.01915764 0.6645268 -0.07066349
v -0.01699639 0.5579919 -0.03988006
v -0.00835139 0.5602294 -0.03152963
v -0.006190141 0.667883 -0.05813784
v -0.00835139 0.5579919 -0.03988006
v -0.006190141 0.6645268 -0.07066349

vn -0.4321004 -0.01482787 0.003973115
vn 0 0.09700795 0.4213501
vn 0 -0.5636539 0.1510306
vn 0.4321004 -0.01482787 0.003973115
vn 0 -0.1266637 -0.4134039
vn 0 0.5636539 -0.1510306

vt 0 7.477726
vt -0.1968504 -0.005178481
vt -1.181102 7.477726
vt -0.984252 -0.005178481
vt 0.984252 -0.005178481
vt 0.1968504 -0.005178481
vt 1.181102 7.477726
vt 9.62965E-35 7.477726
vt -0.1968504 0.984252
vt -0.1968504 0.1968504
vt -0.984252 0.984252
vt -0.984252 0.1968504
vt 1.185237E-18 7.508797
vt 1.181102 7.508797
vt 0.1968504 0.0258924
vt 0.984252 0.0258924
vt -0.1968504 0.0258924
vt -0.984252 0.0258924
vt -5.137591E-18 7.508797
vt -1.181102 7.508797
vt 0 1.181102
vt 1.181102 0
vt 1.181102 1.181102

usemtl green

f 173/132/117 172/131/117 171/130/117
f 172/131/117 173/132/117 174/133/117
f 176/136/118 172/135/118 175/134/118
f 172/135/118 176/136/118 171/137/118
f 177/140/119 172/139/119 174/138/119
f 172/139/119 177/140/119 175/141/119
f 175/144/120 178/143/120 176/142/120
f 178/143/120 175/144/120 177/145/120
f 173/148/121 177/147/121 174/146/121
f 177/147/121 173/148/121 178/149/121
f 176/151/122 173/150/122 171/1/122
f 173/150/122 176/151/122 178/152/122

