# Created by Kenney (www.kenney.nl)

mtllib sushiSalmon.mtl

g sushiSalmon

v -0.05395 0.039176 0.05291922
v -0.05395 0 0.05291922
v -0.05395 0.039176 -0.05291922
v -0.05395 0 -0.05291922
v -0.02406297 0 0.08699887
v -0.02847287 0 0.08612167
v -0.02406297 0.039176 0.08699887
v -0.02847287 0.039176 0.08612167
v -0.03273054 0 0.08467639
v -0.03273054 0.039176 0.08467639
v -0.0195763 0.039176 0.08729293
v -0.0195763 0 0.08729293
v -0.03676315 0 0.08268773
v -0.03676315 0.039176 0.08268773
v -0.04050168 0 0.08018972
v -0.04050168 0.039176 0.08018972
v -0.04388217 0 0.0772251
v -0.04388217 0.039176 0.0772251
v -0.04684679 0.039176 0.07384461
v -0.04684679 0 0.07384461
v -0.0493448 0.039176 0.07010608
v -0.0493448 0 0.07010608
v -0.05133346 0.039176 0.06607347
v -0.05133346 0 0.06607347
v -0.05277874 0.039176 0.0618158
v -0.05277874 0 0.0618158
v -0.05365593 0.039176 0.05740589
v -0.05365593 0 0.05740589
v 0.04050168 0 -0.08018972
v 0.04388217 0 -0.0772251
v 0.04050168 0.039176 -0.08018972
v 0.04388217 0.039176 -0.0772251
v 0.03676315 0.039176 -0.08268773
v 0.03676315 0 -0.08268773
v 0.04684679 0.039176 -0.07384461
v 0.04684679 0 -0.07384461
v 0.0493448 0.039176 -0.07010608
v 0.0493448 0 -0.07010608
v 0.05133346 0.039176 -0.06607347
v 0.05133346 0 -0.06607347
v 0.05277874 0.039176 -0.0618158
v 0.05277874 0 -0.0618158
v 0.05365593 0.039176 -0.05740589
v 0.05365593 0 -0.05740589
v 0.05395 0.039176 -0.05291922
v 0.05395 0 -0.05291922
v 0.03273054 0.039176 -0.08467639
v 0.03273054 0 -0.08467639
v 0.02847287 0.039176 -0.08612167
v 0.02847287 0 -0.08612167
v 0.02406297 0.039176 -0.08699887
v 0.02406297 0 -0.08699887
v 0.0195763 0.039176 -0.08729293
v 0.0195763 0 -0.08729293
v -0.05365593 0.039176 -0.05740589
v -0.05365593 0 -0.05740589
v -0.05277874 0.039176 -0.0618158
v -0.05277874 0 -0.0618158
v -0.05133346 0.039176 -0.06607347
v -0.05133346 0 -0.06607347
v -0.0493448 0.039176 -0.07010608
v -0.0493448 0 -0.07010608
v -0.04684679 0.039176 -0.07384461
v -0.04684679 0 -0.07384461
v -0.04388217 0.039176 -0.0772251
v -0.04388217 0 -0.0772251
v -0.04050168 0 -0.08018972
v -0.04050168 0.039176 -0.08018972
v -0.03676315 0 -0.08268773
v -0.03676315 0.039176 -0.08268773
v -0.03273054 0 -0.08467639
v -0.03273054 0.039176 -0.08467639
v -0.02847287 0 -0.08612167
v -0.02847287 0.039176 -0.08612167
v -0.02406297 0 -0.08699887
v -0.02406297 0.039176 -0.08699887
v -0.0195763 0 -0.08729293
v -0.0195763 0.039176 -0.08729293
v 0.05395 0 0.05291922
v 0.05395 0.039176 0.05291922
v 0.0195763 0.039176 0.08729293
v 0.02406297 0.039176 0.08699887
v 0.02847287 0.039176 0.08612167
v 0.03273054 0.039176 0.08467639
v 0.03676315 0.039176 0.08268773
v 0.04050168 0.039176 0.08018972
v 0.04388217 0.039176 0.0772251
v 0.04684679 0.039176 0.07384461
v 0.0493448 0.039176 0.07010608
v 0.05133346 0.039176 0.06607347
v 0.05277874 0.039176 0.0618158
v 0.05365593 0.039176 0.05740589
v 0.0195763 0 0.08729293
v 0.05365593 0 0.05740589
v 0.05277874 0 0.0618158
v 0.05133346 0 0.06607347
v 0.0493448 0 0.07010608
v 0.04684679 0 0.07384461
v 0.04388217 0 0.0772251
v 0.04050168 0 0.08018972
v 0.03676315 0 0.08268773
v 0.03273054 0 0.08467639
v 0.02847287 0 0.08612167
v 0.02406297 0 0.08699887

vn -1 0 0
vn -0.1305262 0 0.9914449
vn -0.258819 0 0.9659258
vn -0.3826834 0 0.9238795
vn -0.06540313 0 0.9978589
vn -0.5 0 0.8660254
vn -0.6087614 0 0.7933533
vn -0.7071068 0 0.7071068
vn -0.7933533 0 0.6087614
vn -0.8660254 0 0.5
vn -0.9238795 0 0.3826834
vn -0.9659258 0 0.258819
vn -0.9914449 0 0.1305262
vn -0.9978589 0 0.06540313
vn 0.6087614 0 -0.7933533
vn 0.7071068 0 -0.7071068
vn 0.5 0 -0.8660254
vn 0.7933533 0 -0.6087614
vn 0.8660254 0 -0.5
vn 0.9238795 0 -0.3826834
vn 0.9659258 0 -0.258819
vn 0.9914449 0 -0.1305262
vn 0.9978589 0 -0.06540313
vn 0.3826834 0 -0.9238795
vn 0.258819 0 -0.9659258
vn 0.1305262 0 -0.9914449
vn 0.06540313 0 -0.9978589
vn -0.9978589 0 -0.06540313
vn -0.9914449 0 -0.1305262
vn -0.9659258 0 -0.258819
vn -0.9238795 0 -0.3826834
vn -0.8660254 0 -0.5
vn -0.7933533 0 -0.6087614
vn -0.7071068 0 -0.7071068
vn -0.6087614 0 -0.7933533
vn -0.5 0 -0.8660254
vn -0.3826834 0 -0.9238795
vn -0.258819 0 -0.9659258
vn -0.1305262 0 -0.9914449
vn -0.06540313 0 -0.9978589
vn 1 0 0
vn 0 0 -1
vn 0 0.59 0
vn 0 0 1
vn 0.9914449 0 0.1305262
vn 0.9978589 0 0.06540313
vn 0.9659258 0 0.258819
vn 0.9238795 0 0.3826834
vn 0.8660254 0 0.5
vn 0.7933533 0 0.6087614
vn 0.7071068 0 0.7071068
vn 0.6087614 0 0.7933533
vn 0.5 0 0.8660254
vn 0.3826834 0 0.9238795
vn 0.258819 0 0.9659258
vn 0.1305262 0 0.9914449
vn 0.06540313 0 0.9978589
vn 0 -0.59 0

vt 0 0

usemtl _defaultMat

f 3/1/1 2/1/1 1/1/1
f 2/1/1 3/1/1 4/1/1
f 7/1/2 6/1/3 5/1/2
f 6/1/3 7/1/2 8/1/3
f 8/1/3 9/1/4 6/1/3
f 9/1/4 8/1/3 10/1/4
f 5/1/2 11/1/5 7/1/2
f 11/1/5 5/1/2 12/1/5
f 10/1/4 13/1/6 9/1/4
f 13/1/6 10/1/4 14/1/6
f 14/1/6 15/1/7 13/1/6
f 15/1/7 14/1/6 16/1/7
f 16/1/7 17/1/8 15/1/7
f 17/1/8 16/1/7 18/1/8
f 19/1/9 17/1/8 18/1/8
f 17/1/8 19/1/9 20/1/9
f 21/1/10 20/1/9 19/1/9
f 20/1/9 21/1/10 22/1/10
f 23/1/11 22/1/10 21/1/10
f 22/1/10 23/1/11 24/1/11
f 25/1/12 24/1/11 23/1/11
f 24/1/11 25/1/12 26/1/12
f 27/1/13 26/1/12 25/1/12
f 26/1/12 27/1/13 28/1/13
f 1/1/14 28/1/13 27/1/13
f 28/1/13 1/1/14 2/1/14
f 31/1/15 30/1/16 29/1/15
f 30/1/16 31/1/15 32/1/16
f 29/1/15 33/1/17 31/1/15
f 33/1/17 29/1/15 34/1/17
f 35/1/18 30/1/16 32/1/16
f 30/1/16 35/1/18 36/1/18
f 37/1/19 36/1/18 35/1/18
f 36/1/18 37/1/19 38/1/19
f 39/1/20 38/1/19 37/1/19
f 38/1/19 39/1/20 40/1/20
f 41/1/21 40/1/20 39/1/20
f 40/1/20 41/1/21 42/1/21
f 43/1/22 42/1/21 41/1/21
f 42/1/21 43/1/22 44/1/22
f 45/1/23 44/1/22 43/1/22
f 44/1/22 45/1/23 46/1/23
f 34/1/17 47/1/24 33/1/17
f 47/1/24 34/1/17 48/1/24
f 48/1/24 49/1/25 47/1/24
f 49/1/25 48/1/24 50/1/25
f 50/1/25 51/1/26 49/1/25
f 51/1/26 50/1/25 52/1/26
f 52/1/26 53/1/27 51/1/26
f 53/1/27 52/1/26 54/1/27
f 55/1/29 4/1/28 3/1/28
f 4/1/28 55/1/29 56/1/29
f 57/1/30 56/1/29 55/1/29
f 56/1/29 57/1/30 58/1/30
f 59/1/31 58/1/30 57/1/30
f 58/1/30 59/1/31 60/1/31
f 61/1/32 60/1/31 59/1/31
f 60/1/31 61/1/32 62/1/32
f 63/1/33 62/1/32 61/1/32
f 62/1/32 63/1/33 64/1/33
f 65/1/34 64/1/33 63/1/33
f 64/1/33 65/1/34 66/1/34
f 65/1/34 67/1/35 66/1/34
f 67/1/35 65/1/34 68/1/35
f 68/1/35 69/1/36 67/1/35
f 69/1/36 68/1/35 70/1/36
f 70/1/36 71/1/37 69/1/36
f 71/1/37 70/1/36 72/1/37
f 72/1/37 73/1/38 71/1/37
f 73/1/38 72/1/37 74/1/38
f 74/1/38 75/1/39 73/1/38
f 75/1/39 74/1/38 76/1/39
f 76/1/39 77/1/40 75/1/39
f 77/1/40 76/1/39 78/1/40
f 46/1/41 80/1/41 79/1/41
f 80/1/41 46/1/41 45/1/41
f 78/1/42 54/1/42 77/1/42
f 54/1/42 78/1/42 53/1/42
f 27/1/43 3/1/43 1/1/43
f 3/1/43 27/1/43 55/1/43
f 55/1/43 27/1/43 25/1/43
f 55/1/43 25/1/43 57/1/43
f 57/1/43 25/1/43 23/1/43
f 57/1/43 23/1/43 59/1/43
f 59/1/43 23/1/43 21/1/43
f 59/1/43 21/1/43 61/1/43
f 61/1/43 21/1/43 19/1/43
f 61/1/43 19/1/43 63/1/43
f 63/1/43 19/1/43 18/1/43
f 63/1/43 18/1/43 65/1/43
f 65/1/43 18/1/43 16/1/43
f 65/1/43 16/1/43 68/1/43
f 68/1/43 16/1/43 14/1/43
f 68/1/43 14/1/43 70/1/43
f 70/1/43 14/1/43 10/1/43
f 70/1/43 10/1/43 72/1/43
f 72/1/43 10/1/43 8/1/43
f 72/1/43 8/1/43 74/1/43
f 74/1/43 8/1/43 7/1/43
f 74/1/43 7/1/43 76/1/43
f 76/1/43 7/1/43 11/1/43
f 76/1/43 11/1/43 78/1/43
f 78/1/43 11/1/43 81/1/43
f 78/1/43 81/1/43 53/1/43
f 53/1/43 81/1/43 82/1/43
f 53/1/43 82/1/43 51/1/43
f 51/1/43 82/1/43 83/1/43
f 51/1/43 83/1/43 49/1/43
f 49/1/43 83/1/43 84/1/43
f 49/1/43 84/1/43 47/1/43
f 47/1/43 84/1/43 85/1/43
f 47/1/43 85/1/43 33/1/43
f 33/1/43 85/1/43 86/1/43
f 33/1/43 86/1/43 31/1/43
f 31/1/43 86/1/43 87/1/43
f 31/1/43 87/1/43 32/1/43
f 32/1/43 87/1/43 88/1/43
f 32/1/43 88/1/43 35/1/43
f 35/1/43 88/1/43 89/1/43
f 35/1/43 89/1/43 37/1/43
f 37/1/43 89/1/43 90/1/43
f 37/1/43 90/1/43 39/1/43
f 39/1/43 90/1/43 91/1/43
f 39/1/43 91/1/43 41/1/43
f 41/1/43 91/1/43 92/1/43
f 41/1/43 92/1/43 43/1/43
f 43/1/43 92/1/43 80/1/43
f 43/1/43 80/1/43 45/1/43
f 81/1/44 12/1/44 93/1/44
f 12/1/44 81/1/44 11/1/44
f 79/1/46 92/1/45 94/1/45
f 92/1/45 79/1/46 80/1/46
f 91/1/47 94/1/45 92/1/45
f 94/1/45 91/1/47 95/1/47
f 90/1/48 95/1/47 91/1/47
f 95/1/47 90/1/48 96/1/48
f 89/1/49 96/1/48 90/1/48
f 96/1/48 89/1/49 97/1/49
f 88/1/50 97/1/49 89/1/49
f 97/1/49 88/1/50 98/1/50
f 87/1/51 98/1/50 88/1/50
f 98/1/50 87/1/51 99/1/51
f 87/1/51 100/1/52 99/1/51
f 100/1/52 87/1/51 86/1/52
f 86/1/52 101/1/53 100/1/52
f 101/1/53 86/1/52 85/1/53
f 85/1/53 102/1/54 101/1/53
f 102/1/54 85/1/53 84/1/54
f 84/1/54 103/1/55 102/1/54
f 103/1/55 84/1/54 83/1/55
f 83/1/55 104/1/56 103/1/55
f 104/1/56 83/1/55 82/1/56
f 82/1/56 93/1/57 104/1/56
f 93/1/57 82/1/56 81/1/57
f 56/1/58 2/1/58 4/1/58
f 2/1/58 56/1/58 28/1/58
f 28/1/58 56/1/58 58/1/58
f 28/1/58 58/1/58 26/1/58
f 26/1/58 58/1/58 60/1/58
f 26/1/58 60/1/58 24/1/58
f 24/1/58 60/1/58 62/1/58
f 24/1/58 62/1/58 22/1/58
f 22/1/58 62/1/58 64/1/58
f 22/1/58 64/1/58 20/1/58
f 20/1/58 64/1/58 66/1/58
f 20/1/58 66/1/58 17/1/58
f 17/1/58 66/1/58 67/1/58
f 17/1/58 67/1/58 15/1/58
f 15/1/58 67/1/58 69/1/58
f 15/1/58 69/1/58 13/1/58
f 13/1/58 69/1/58 71/1/58
f 13/1/58 71/1/58 9/1/58
f 9/1/58 71/1/58 73/1/58
f 9/1/58 73/1/58 6/1/58
f 6/1/58 73/1/58 75/1/58
f 6/1/58 75/1/58 5/1/58
f 5/1/58 75/1/58 77/1/58
f 5/1/58 77/1/58 12/1/58
f 12/1/58 77/1/58 54/1/58
f 12/1/58 54/1/58 93/1/58
f 93/1/58 54/1/58 52/1/58
f 93/1/58 52/1/58 104/1/58
f 104/1/58 52/1/58 50/1/58
f 104/1/58 50/1/58 103/1/58
f 103/1/58 50/1/58 48/1/58
f 103/1/58 48/1/58 102/1/58
f 102/1/58 48/1/58 34/1/58
f 102/1/58 34/1/58 101/1/58
f 101/1/58 34/1/58 29/1/58
f 101/1/58 29/1/58 100/1/58
f 100/1/58 29/1/58 30/1/58
f 100/1/58 30/1/58 99/1/58
f 99/1/58 30/1/58 36/1/58
f 99/1/58 36/1/58 98/1/58
f 98/1/58 36/1/58 38/1/58
f 98/1/58 38/1/58 97/1/58
f 97/1/58 38/1/58 40/1/58
f 97/1/58 40/1/58 96/1/58
f 96/1/58 40/1/58 42/1/58
f 96/1/58 42/1/58 95/1/58
f 95/1/58 42/1/58 44/1/58
f 95/1/58 44/1/58 94/1/58
f 94/1/58 44/1/58 46/1/58
f 94/1/58 46/1/58 79/1/58

g salmon

v -0.0373575 0.039176 -0.1003869
v -0.0373575 0.039176 -0.04138283
v 0.0373575 0.039176 -0.1003869
v -0.0373575 0.039176 -0.0177355
v -0.0373575 0.039176 0.005911834
v -0.0373575 0.039176 0.02955917
v -0.0373575 0.039176 0.1003869
v 0.0373575 0.039176 0.1003869
v 0.0373575 0.039176 -0.02955917
v 0.0373575 0.039176 -0.005911834
v 0.0373575 0.039176 0.0177355
v 0.0373575 0.039176 0.04138283
v -0.0373575 0.064176 0.09050443
v -0.0373575 0.08917599 0.06085711
v 0.0373575 0.064176 0.09050443
v 0.0373575 0.08917599 0.06085711
v -0.0373575 0.064176 -0.09050443
v 0.0373575 0.064176 -0.09050443
v -0.0373575 0.08917599 0.02955917
v -0.0373575 0.08917599 -0.06085711
v 0.0373575 0.08917599 -0.06085711
v 0.0373575 0.08917599 -0.02955917
v -0.0373575 0.08917599 -0.04138283
v -0.0373575 0.08917599 0.005911834
v -0.0373575 0.08917599 -0.0177355
v 0.0373575 0.08917599 0.0177355
v 0.0373575 0.08917599 -0.005911834
v 0.0373575 0.08917599 0.04138283

vn 0 -1.694915 0
vn 0 1.216758 0.8005832
vn 0 0.5509641 1.087544
vn 0 0.5509641 -1.087544
vn -0.85 0 0
vn 0 1.216758 -0.8005832
vn 0.85 0 0
vn 0 1.694915 0

vt 1.730315 3.43673
vt 1.730315 1.416735
vt -1.730315 3.43673
vt 1.730315 0.6071723
vt 1.730315 -0.2023907
vt 1.730315 -1.011954
vt 1.730315 -3.43673
vt -1.730315 -3.43673
vt -1.730315 1.011954
vt -1.730315 0.2023907
vt -1.730315 -0.6071723
vt -1.730315 -1.416735
vt -1.730315 -1.53911
vt -1.730315 -0.1252785
vt 1.730315 -1.53911
vt 1.730315 -0.1252785
vt 1.730315 -1.117174
vt -1.730315 -1.117174
vt 1.730315 -0.07639749
vt -1.730315 -0.07639749
vt 3.43673 0
vt 1.011954 0
vt 3.098406 0.984252
vt 2.083434 1.968504
vt 1.011954 1.968504
vt -1.730315 1.416735
vt -1.730315 2.083434
vt 1.730315 1.011954
vt 1.730315 2.083434
vt -1.730315 -0.2023907
vt -1.730315 0.6071723
vt 1.730315 -0.6071723
vt 1.730315 0.2023907
vt -1.730315 -2.083434
vt -1.730315 -1.011954
vt 1.730315 -2.083434
vt 1.730315 -1.416735
vt -1.416735 1.968504
vt -1.416735 0
vt -2.083434 1.968504
vt -3.43673 0
vt -3.098406 0.984252
vt 0.2023907 1.968504
vt 0.2023907 0
vt -0.6071723 1.968504
vt -0.6071723 0

usemtl orange

f 107/4/59 106/3/59 105/2/59
f 106/3/59 107/4/59 108/5/59
f 108/5/59 107/4/59 109/6/59
f 109/6/59 107/4/59 110/7/59
f 110/7/59 107/4/59 111/8/59
f 111/8/59 107/4/59 112/9/59
f 112/9/59 107/4/59 113/10/59
f 112/9/59 113/10/59 114/11/59
f 112/9/59 114/11/59 115/12/59
f 112/9/59 115/12/59 116/13/59
f 119/16/60 118/15/60 117/14/60
f 118/15/60 119/16/60 120/17/60
f 119/20/61 111/19/61 112/18/61
f 111/19/61 119/20/61 117/21/61
f 121/20/62 107/19/62 105/18/62
f 107/19/62 121/20/62 122/21/62
f 117/24/63 110/23/63 111/22/63
f 110/23/63 117/24/63 118/25/63
f 110/23/63 118/25/63 123/26/63
f 125/15/64 121/16/64 124/17/64
f 121/16/64 125/15/64 122/14/64
f 107/22/65 126/26/65 113/23/65
f 126/26/65 107/22/65 125/25/65
f 125/25/65 107/22/65 122/24/65
f 126/29/66 124/28/66 127/27/66
f 124/28/66 126/29/66 125/30/66
f 130/33/66 129/32/66 128/31/66
f 129/32/66 130/33/66 131/34/66
f 120/37/66 123/36/66 118/35/66
f 123/36/66 120/37/66 132/38/66
f 124/41/63 106/40/63 127/39/63
f 106/40/63 124/41/63 105/42/63
f 105/42/63 124/41/63 121/43/63
f 129/46/63 109/45/63 128/44/63
f 109/45/63 129/46/63 108/47/63
f 116/40/65 119/43/65 112/42/65
f 119/43/65 116/40/65 120/41/65
f 120/41/65 116/40/65 132/39/65
f 114/45/65 130/46/65 115/47/65
f 130/46/65 114/45/65 131/44/65

usemtl brownLight

f 131/34/66 127/27/66 129/32/66
f 127/27/66 131/34/66 126/29/66
f 132/38/66 128/31/66 123/36/66
f 128/31/66 132/38/66 130/33/66
f 127/39/63 108/47/63 129/46/63
f 108/47/63 127/39/63 106/40/63
f 128/44/63 110/23/63 123/26/63
f 110/23/63 128/44/63 109/45/63
f 115/47/65 132/39/65 116/40/65
f 132/39/65 115/47/65 130/46/65
f 113/23/65 131/44/65 114/45/65
f 131/44/65 113/23/65 126/26/65

