# Created by Kenney (www.kenney.nl)

mtllib tomato.mtl

g tomato

v -0.0711 0.019434 5.414336E-16
v -0.05027529 0.019434 0.05027529
v -0.0474 0 8.121503E-16
v -0.03351686 0 0.03351686
v 0.03351686 0 0.03351686
v 0.05027529 0.019434 0.05027529
v 0.0474 0 8.121503E-16
v 0.0711 0.019434 5.414336E-16
v 0.03351686 0 -0.03351686
v 0.05027529 0.019434 -0.05027529
v 0 0.019434 -0.0711
v 9.023893E-17 0 -0.0474
v -0.05027529 0.019434 -0.05027529
v -0.03351686 0 -0.03351686
v 0 0.019434 0.0711
v 9.023893E-17 0 0.0474
v -0.084846 0.058302 2.707168E-16
v -0.05999518 0.058302 -0.05999518
v -9.023893E-17 0.058302 0.084846
v -0.05999518 0.058302 0.05999518
v 0.05999518 0.058302 0.05999518
v -9.023893E-17 0.058302 -0.084846
v 0.084846 0.058302 2.707168E-16
v 0.05999518 0.058302 -0.05999518
v 0.05027529 0.09717 0.05027529
v 0 0.09717 0.0711
v 0 0.09717 -0.0711
v 0.05027529 0.09717 -0.05027529
v 0.0711 0.09717 7.219114E-16
v -0.05027529 0.09717 -0.05027529
v -0.03351686 0.116604 -0.03351686
v 9.023893E-17 0.116604 -0.0474
v -0.05027529 0.09717 0.05027529
v -0.03351686 0.116604 0.03351686
v 9.023893E-17 0.116604 0.0474
v 0.03351686 0.116604 0.03351686
v -0.0711 0.09717 7.219114E-16
v -0.0474 0.116604 8.121503E-16
v 0.03351686 0.116604 -0.03351686
v 0.0474 0.116604 8.121503E-16
v -0.01185 0.116604 0.01185
v 0.01185 0.116604 0.01185
v 0.01185 0.116604 -0.01185
v -0.01185 0.116604 -0.01185
v -0.004229742 0.133004 0.004229742
v -0.004229742 0.133004 -0.004229742
v 0.004229742 0.133004 0.004229742
v 0.004229742 0.133004 -0.004229742
v 0.006934003 0.116604 0.006934003
v -0.006934003 0.116604 0.006934003
v -0.006934003 0.116604 -0.006934003
v 0.006934003 0.116604 -0.006934003
v -0.029178 0.1221365 -0.00785
v -0.029178 0.1221365 0.00785
v -0.04351101 0.1376643 2.375741E-10
v -0.00785 0.1221365 -0.029178
v 0.00785 0.1221365 -0.029178
v -2.375544E-10 0.1376643 -0.04351101
v 0.029178 0.1221365 0.00785
v 0.04351101 0.1376643 2.342297E-10
v 0.029178 0.1221365 -0.00785
v 0.00785 0.1221365 0.029178
v -0.00785 0.1221365 0.029178
v -2.342279E-10 0.1376643 0.04351101

vn -0.6132796 -0.747902 0.2540288
vn 0.6132796 -0.747902 0.2540288
vn 0.6132796 -0.747902 -0.2540288
vn 0.2540288 -0.747902 -0.6132796
vn -0.6132796 -0.747902 -0.2540288
vn -0.2540288 -0.747902 -0.6132796
vn -0.2540288 -0.747902 0.6132796
vn 0 -1 0
vn 0.2540288 -0.747902 0.6132796
vn -0.8781912 -0.3105798 -0.3637587
vn -0.3637587 -0.3105798 0.8781912
vn -0.8781912 -0.3105798 0.3637587
vn 0.3637587 -0.3105798 0.8781912
vn -0.3637587 -0.3105798 -0.8781912
vn 0.8781912 -0.3105798 0.3637587
vn 0.8781912 -0.3105798 -0.3637587
vn 0.3637587 -0.3105798 -0.8781912
vn 0.3637587 0.3105798 0.8781912
vn 0.3637587 0.3105798 -0.8781912
vn 0.8781912 0.3105798 -0.3637587
vn -0.2540288 0.747902 -0.6132796
vn -0.2540288 0.747902 0.6132796
vn 0.2540288 0.747902 0.6132796
vn -0.6132796 0.747902 -0.2540288
vn -0.6132796 0.747902 0.2540288
vn 0.6132796 0.747902 -0.2540288
vn 0.8781912 0.3105798 0.3637587
vn 0.6132796 0.747902 0.2540288
vn -0.3637587 0.3105798 -0.8781912
vn 0.2540288 0.747902 -0.6132796
vn -0.8781912 0.3105798 0.3637587
vn -0.8781912 0.3105798 -0.3637587
vn -0.3637587 0.3105798 0.8781912
vn 0 1 0
vn 0 0.162697 0.9866762
vn -0.9866762 0.162697 0
vn 0 0.162697 -0.9866762
vn 0.9866762 0.162697 0
vn -0.3041546 -0.9526226 0
vn 0.3041546 0.9526226 0
vn -0.7348109 -0.6782718 0
vn 0.7348109 0.6782718 0
vn 0 -0.6782718 -0.7348109
vn 0 0.6782718 0.7348109
vn 0 -0.9526226 -0.3041546
vn 0 0.9526226 0.3041546
vn 0.7348109 -0.6782718 0
vn -0.7348109 0.6782718 0
vn 0.3041546 -0.9526226 0
vn -0.3041546 0.9526226 0
vn 0 -0.6782718 0.7348109
vn 0 0.6782718 -0.7348109
vn 0 -0.9526226 0.3041546
vn 0 0.9526226 -0.3041546

vt -1.071212 2.442068
vt 1.071212 2.442068
vt -0.7141415 1.289451
vt 0.7141415 1.289451
vt 1.866142 -3.197442E-14
vt 1.319561 -1.319561
vt 1.319561 1.319561
vt -3.552714E-15 1.866142
vt -3.552714E-15 -1.866142
vt -1.319561 1.319561
vt -1.319561 -1.319561
vt -1.866142 -3.197442E-14
vt 1.071212 1.530482
vt -1.071212 1.530482
vt 1.278313 3.14033
vt -1.278313 3.14033
vt 1.278313 1.223356
vt -1.278313 1.223356
vt 1.071212 2.833203
vt -1.071212 2.833203
vt 1.071212 0.6052861
vt -1.071212 0.6052861
vt 0.7141415 1.757904
vt -0.7141415 1.757904
vt 3.552714E-15 -1.866142
vt -0.4665354 -0.4665354
vt 0.4665354 -0.4665354
vt 0.4665354 0.4665354
vt -0.4665354 0.4665354
vt 3.552714E-15 1.866142
vt -0.1665253 -0.1665253
vt -0.1665253 0.1665253
vt 0.1665253 -0.1665253
vt 0.1665253 0.1665253
vt 0.2729923 4.485127
vt -0.2729923 4.485127
vt 0.1665253 5.139516
vt -0.1665253 5.139516
vt -0.2729923 -0.2729923
vt 0.2729923 -0.2729923
vt 0.2729923 0.2729923
vt -0.2729923 0.2729923
vt -0.3090551 2.556851
vt 0.3090551 2.556851
vt -0.4665354 1.840718
vt 0.4665354 1.840718
vt -4.6347E-08 5.14447
vt 0.3090551 4.312515
vt -0.3090551 4.312515
vt -4.634676E-08 5.14447
vt -3.939491E-08 5.14447
vt 0.3090551 2.556851
vt 0.3090551 4.312514
vt -0.3090551 4.312514
vt -3.939489E-08 5.14447

usemtl red

f 3/3/1 2/2/1 1/1/1
f 2/2/1 3/3/1 4/4/1
f 7/4/2 6/1/2 5/3/2
f 6/1/2 7/4/2 8/2/2
f 10/2/3 7/3/3 9/4/3
f 7/3/3 10/2/3 8/1/3
f 10/1/4 12/4/4 11/2/4
f 12/4/4 10/1/4 9/3/4
f 13/1/5 3/4/5 1/2/5
f 3/4/5 13/1/5 14/3/5
f 11/1/6 14/4/6 13/2/6
f 14/4/6 11/1/6 12/3/6
f 4/3/7 15/2/7 2/1/7
f 15/2/7 4/3/7 16/4/7
f 14/7/8 4/6/8 3/5/8
f 4/6/8 14/7/8 12/8/8
f 4/6/8 12/8/8 16/9/8
f 16/9/8 12/8/8 9/10/8
f 16/9/8 9/10/8 5/11/8
f 5/11/8 9/10/8 7/12/8
f 16/3/9 6/2/9 15/1/9
f 6/2/9 16/3/9 5/4/9
f 17/15/10 13/14/10 1/13/10
f 13/14/10 17/15/10 18/16/10
f 19/15/11 2/14/11 15/13/11
f 2/14/11 19/15/11 20/16/11
f 17/16/12 2/13/12 20/15/12
f 2/13/12 17/16/12 1/14/12
f 21/15/13 15/14/13 6/13/13
f 15/14/13 21/15/13 19/16/13
f 18/15/14 11/14/14 13/13/14
f 11/14/14 18/15/14 22/16/14
f 6/14/15 23/15/15 21/16/15
f 23/15/15 6/14/15 8/13/15
f 10/13/16 23/16/16 8/14/16
f 23/16/16 10/13/16 24/15/16
f 22/15/17 10/14/17 11/13/17
f 10/14/17 22/15/17 24/16/17
f 25/19/18 19/18/18 21/17/18
f 19/18/18 25/19/18 26/20/18
f 27/19/19 24/18/19 22/17/19
f 24/18/19 27/19/19 28/20/19
f 23/18/20 28/19/20 29/20/20
f 28/19/20 23/18/20 24/17/20
f 31/23/21 27/22/21 30/21/21
f 27/22/21 31/23/21 32/24/21
f 26/21/22 34/24/22 33/22/22
f 34/24/22 26/21/22 35/23/22
f 25/21/23 35/24/23 26/22/23
f 35/24/23 25/21/23 36/23/23
f 38/23/24 30/22/24 37/21/24
f 30/22/24 38/23/24 31/24/24
f 33/21/25 38/24/25 37/22/25
f 38/24/25 33/21/25 34/23/25
f 40/24/26 28/21/26 39/23/26
f 28/21/26 40/24/26 29/22/26
f 23/17/27 25/20/27 21/18/27
f 25/20/27 23/17/27 29/19/27
f 25/22/28 40/23/28 36/24/28
f 40/23/28 25/22/28 29/21/28
f 30/19/29 22/18/29 18/17/29
f 22/18/29 30/19/29 27/20/29
f 32/23/30 28/22/30 27/21/30
f 28/22/30 32/23/30 39/24/30
f 33/19/31 17/18/31 20/17/31
f 17/18/31 33/19/31 37/20/31
f 30/20/32 17/17/32 37/19/32
f 17/17/32 30/20/32 18/18/32
f 26/19/33 20/18/33 19/17/33
f 20/18/33 26/19/33 33/20/33
f 34/11/34 31/10/34 38/12/34
f 31/10/34 34/11/34 35/25/34
f 31/10/34 35/25/34 41/26/34
f 41/26/34 35/25/34 42/27/34
f 42/27/34 35/25/34 36/6/34
f 42/27/34 36/6/34 43/28/34
f 44/29/34 31/10/34 41/26/34
f 31/10/34 44/29/34 32/30/34
f 32/30/34 44/29/34 43/28/34
f 32/30/34 43/28/34 39/7/34
f 39/7/34 43/28/34 36/6/34
f 39/7/34 36/6/34 40/5/34

usemtl green

f 47/33/34 46/32/34 45/31/34
f 46/32/34 47/33/34 48/34/34
f 47/37/35 50/36/35 49/35/35
f 50/36/35 47/37/35 45/38/35
f 45/37/36 51/36/36 50/35/36
f 51/36/36 45/37/36 46/38/36
f 46/37/37 52/36/37 51/35/37
f 52/36/37 46/37/37 48/38/37
f 52/35/38 47/38/38 49/36/38
f 47/38/38 52/35/38 48/37/38
f 41/26/34 50/39/34 44/29/34
f 50/39/34 41/26/34 42/27/34
f 50/39/34 42/27/34 49/40/34
f 49/40/34 42/27/34 52/41/34
f 51/42/34 44/29/34 50/39/34
f 44/29/34 51/42/34 43/28/34
f 43/28/34 51/42/34 52/41/34
f 43/28/34 52/41/34 42/27/34
f 44/45/39 54/44/39 53/43/39
f 54/44/39 44/45/39 41/46/39
f 53/43/40 54/44/40 44/45/40
f 41/46/40 44/45/40 54/44/40
f 53/49/41 54/48/41 55/47/41
f 55/47/42 54/48/42 53/49/42
f 58/50/43 57/49/43 56/48/43
f 56/48/44 57/49/44 58/50/44
f 56/44/45 43/45/45 44/46/45
f 43/45/45 56/44/45 57/43/45
f 44/46/46 43/45/46 56/44/46
f 57/43/46 56/44/46 43/45/46
f 61/48/47 60/51/47 59/49/47
f 59/49/48 60/51/48 61/48/48
f 61/52/49 42/45/49 43/46/49
f 42/45/49 61/52/49 59/43/49
f 43/46/50 42/45/50 61/52/50
f 59/43/50 61/52/50 42/45/50
f 64/55/51 63/54/51 62/53/51
f 62/53/52 63/54/52 64/55/52
f 42/46/53 63/43/53 41/45/53
f 63/43/53 42/46/53 62/52/53
f 41/45/54 63/43/54 42/46/54
f 62/52/54 42/46/54 63/43/54

