# Created by Kenney (www.kenney.nl)

mtllib utensilKnife.mtl

g utensilKnife

v -0.2792911 0 0.0389
v -0.3003841 0 0.008069496
v -0.2792911 0 -0.02276101
v -0.185332 0.0178 0.03473322
v -0.185332 0.0178 -0.01859423
v 0.03007286 0 0.0211
v 0.03007286 0 -0.004961009
v 0.3003841 0 0.0211
v 0.1563492 0 -0.0389
v 0.2377027 0 -0.0239
v 0.3003841 0 0.009578452

vn 0 1 0
vn 0 -1 0
vn -0.1861334 0.9825245 0
vn 0.1861334 -0.9825245 0
vn 0.08235438 0.9966031 0
vn -0.08235438 -0.9966031 0

vt -10.99571 -1.531496
vt -11.82615 -0.3176967
vt -10.99571 0.8961027
vt 1.531496 -10.80356
vt -0.8961027 -10.80356
vt 1.36745 -7.038585
vt -0.7320563 -7.038585
vt -1.36745 7.329463
vt 0.7320563 7.329463
vt -0.8307087 -1.179949
vt 0.1953153 -1.179949
vt 1.183971 -0.8307087
vt 1.183971 0.1953153
vt 11.82615 -0.8307087
vt 6.155478 1.531496
vt 9.358375 0.9409449
vt 11.82615 -0.3771044

usemtl white

f 3/3/1 2/2/1 1/1/1
f 1/1/2 2/2/2 3/3/2
f 4/6/3 3/5/3 1/4/3
f 3/5/3 4/6/3 5/7/3
f 1/4/4 3/5/4 4/6/4
f 5/7/4 4/6/4 3/5/4
f 6/10/5 5/9/5 4/8/5
f 5/9/5 6/10/5 7/11/5
f 4/8/6 5/9/6 6/10/6
f 7/11/6 6/10/6 5/9/6
f 8/14/1 7/13/1 6/12/1
f 7/13/1 8/14/1 9/15/1
f 9/15/1 8/14/1 10/16/1
f 10/16/1 8/14/1 11/17/1
f 6/12/2 7/13/2 8/14/2
f 9/15/2 8/14/2 7/13/2
f 10/16/2 8/14/2 9/15/2
f 11/17/2 8/14/2 10/16/2

