# Created by Kenney (www.kenney.nl)

mtllib utensilFork.mtl

g utensilFork

v -0.1366856 0.0178 0.02666372
v -0.1366856 0.0178 -0.02666372
v 0.07871932 0 0.0130305
v 0.07871932 0 -0.0130305
v -0.2306447 0 0.0308305
v -0.2306447 0 -0.0308305
v -0.2517377 0 -5.775291E-15
v 0.1232424 0 0.042
v 0.1232424 0 -0.042
v 0.1537377 0 0.0168
v 0.1587377 0 0.0252
v 0.2417377 0 0.042
v 0.2417377 0 0.0252
v 0.2517377 0 0.0336
v 0.1537377 0 -0.0168
v 0.1587377 0 0.0084
v 0.1587377 0 -0.0084
v 0.2417377 0 0.0084
v 0.2417377 0 -0.0084
v 0.2517377 0 -3.609557E-16
v 0.1587377 0 -0.0252
v 0.2417377 0 -0.042
v 0.2417377 0 -0.0252
v 0.2517377 0 -0.0336

vn 0.08235438 0.9966031 0
vn -0.08235438 -0.9966031 0
vn -0.1861334 0.9825245 0
vn 0.1861334 -0.9825245 0
vn 0 1 0
vn 0 -1 0

vt -1.049753 5.420754
vt 1.049753 5.420754
vt -0.513012 -3.088658
vt 0.513012 -3.088658
vt 1.213799 -8.921813
vt -1.213799 -8.921813
vt 1.049753 -5.15684
vt -1.049753 -5.15684
vt -9.0805 -1.213799
vt -9.910933 2.273737E-13
vt -9.0805 1.213799
vt 3.099186 -0.513012
vt 3.099186 0.513012
vt 4.852061 -1.653543
vt 4.852061 1.653543
vt 6.052665 -0.6614173
vt 6.249515 -0.992126
vt 9.517232 -1.653543
vt 9.517232 -0.992126
vt 9.910933 -1.322835
vt 6.052665 0.6614173
vt 6.249515 -0.3307087
vt 6.249515 0.3307087
vt 9.517232 -0.3307087
vt 9.517232 0.3307087
vt 9.910933 1.421085E-14
vt 6.249515 0.992126
vt 9.517232 1.653543
vt 9.517232 0.992126
vt 9.910933 1.322835

usemtl white

f 3/3/1 2/2/1 1/1/1
f 2/2/1 3/3/1 4/4/1
f 1/1/2 2/2/2 3/3/2
f 4/4/2 3/3/2 2/2/2
f 1/7/3 6/6/3 5/5/3
f 6/6/3 1/7/3 2/8/3
f 5/5/4 6/6/4 1/7/4
f 2/8/4 1/7/4 6/6/4
f 6/11/5 7/10/5 5/9/5
f 5/9/6 7/10/6 6/11/6
f 8/14/5 4/13/5 3/12/5
f 4/13/5 8/14/5 9/15/5
f 9/15/5 8/14/5 10/16/5
f 10/16/5 8/14/5 11/17/5
f 11/17/5 8/14/5 12/18/5
f 11/17/5 12/18/5 13/19/5
f 13/19/5 12/18/5 14/20/5
f 15/21/5 9/15/5 10/16/5
f 16/22/5 15/21/5 10/16/5
f 15/21/5 16/22/5 17/23/5
f 17/23/5 16/22/5 18/24/5
f 17/23/5 18/24/5 19/25/5
f 19/25/5 18/24/5 20/26/5
f 21/27/5 9/15/5 15/21/5
f 9/15/5 21/27/5 22/28/5
f 22/28/5 21/27/5 23/29/5
f 22/28/5 23/29/5 24/30/5
f 3/12/6 4/13/6 8/14/6
f 9/15/6 8/14/6 4/13/6
f 10/16/6 8/14/6 9/15/6
f 11/17/6 8/14/6 10/16/6
f 12/18/6 8/14/6 11/17/6
f 13/19/6 12/18/6 11/17/6
f 14/20/6 12/18/6 13/19/6
f 10/16/6 9/15/6 15/21/6
f 10/16/6 15/21/6 16/22/6
f 17/23/6 16/22/6 15/21/6
f 18/24/6 16/22/6 17/23/6
f 19/25/6 18/24/6 17/23/6
f 20/26/6 18/24/6 19/25/6
f 15/21/6 9/15/6 21/27/6
f 22/28/6 21/27/6 9/15/6
f 23/29/6 21/27/6 22/28/6
f 24/30/6 23/29/6 22/28/6

