# Created by Kenney (www.kenney.nl)

mtllib wineWhite.mtl

g wineWhite

v -0.0507 0.27027 0.08781498
v -0.0507 0.10413 0.08781498
v -0.1014 0.27027 0
v -0.1014 0.10413 0
v 0.0507 0.10413 0.08781498
v 0.0507 0.27027 0.08781498
v 0.1014 0.10413 0
v 0.1014 0.27027 0
v -0.0507 0.27027 -0.08781498
v -0.0507 0.10413 -0.08781498
v 0.0507 0.10413 -0.08781498
v 0.0507 0.27027 -0.08781498
v 0.1014 0.312 0
v 0.0507 0.312 -0.08781498
v 0.0507 0.312 0.08781498
v 0.02535 0.3978 0.04390749
v 0.0507 0.3978 0
v -0.0507 0.312 0.08781498
v -0.02535 0.3978 0.04390749
v -0.0507 0.312 -0.08781498
v -0.1014 0.312 0
v -0.0507 0.3978 0
v 0.02535 0.3978 -0.04390749
v -0.0783723 -0.0216 0
v -0.03918615 -0.0216 0.0678724
v -0.03918615 -0.0216 -0.0678724
v 0.03918615 -0.0216 -0.0678724
v 0.03918615 -0.0216 0.0678724
v 0.0783723 -0.0216 0
v -0.02535 0.3978 -0.04390749
v 0.01455597 0.5616 0.02521168
v -0.01455597 0.5616 0.02521168
v -0.01455597 0.5616 -0.02521168
v 0.01455597 0.5616 -0.02521168
v -0.02911194 0.5616 0
v 0.02911194 0.5616 0
v 0.0507 0 -0.08781498
v 0.1014 0 0
v -0.0507 0 -0.08781498
v -0.1014 0 0
v -0.0507 0 0.08781498
v 0.0507 0 0.08781498
v -0.033462 0.634 0
v -0.016731 0.634 -0.02897894
v -0.016731 0.634 0.02897894
v 0.016731 0.634 0.02897894
v 0.016731 0.634 -0.02897894
v 0.033462 0.634 0

vn -0.8660254 0 0.5
vn 0.8660254 0 0.5
vn -0.8660254 0 -0.5
vn 0 0 -1
vn 0.8660254 0 -0.5
vn 0.7709417 0.4555565 0.4451034
vn 0 0.4555565 0.8902069
vn -0.7709417 0.4555565 0.4451034
vn 0.7709417 0.4555565 -0.4451034
vn 0 -1 0
vn 0 0.4555565 -0.8902069
vn -0.7709417 0.4555565 -0.4451034
vn 0 0.1134017 0.9935492
vn 0 0.1134017 -0.9935492
vn -0.8604389 0.1134017 0.4967746
vn 0.8604389 0.1134017 0.4967746
vn 0.8604389 0.1134017 -0.4967746
vn -0.8604389 0.1134017 -0.4967746
vn 0.6362981 -0.6783556 -0.3673669
vn 0 -0.6783556 -0.7347338
vn -0.6362981 -0.6783556 0.3673669
vn -0.6362981 -0.6783556 -0.3673669
vn 0 -0.6783556 0.7347338
vn 0.6362981 -0.6783556 0.3673669
vn 0 0 1
vn 0 1 0
vn -0.8648554 -0.05196371 0.4993245
vn 0.8648554 -0.05196371 0.4993245
vn 0.8648554 -0.05196371 -0.4993245
vn -0.8648554 -0.05196371 -0.4993245
vn 0 -0.05196371 -0.9986491
vn 0 -0.05196371 0.9986491

vt 1.996063 10.64055
vt 1.996063 4.099607
vt -1.996063 10.64055
vt -1.996063 4.099607
vt -1.996063 12.28346
vt 1.996063 12.28346
vt -1.996063 9.359838
vt -0.9980315 13.15441
vt 1.996063 9.359838
vt 0.9980315 13.15441
vt 3.085524 0
vt 1.542762 -2.672142
vt 1.542762 2.672142
vt -1.542762 2.672142
vt -1.542762 -2.672142
vt -3.085524 0
vt 0.9980315 15.36436
vt -0.9980315 15.36436
vt 0.5730697 21.85505
vt -0.5730697 21.85505
vt 1.542762 1.187849
vt -1.542762 1.187849
vt 1.996063 2.345267
vt -1.996063 2.345267
vt 1.996063 0
vt -1.996063 0
vt -1.317402 0
vt -0.6587008 1.140903
vt -0.6587008 -1.140903
vt 0.6587008 -1.140903
vt 0.6587008 1.140903
vt 1.317402 0
vt 0.6587008 24.98619
vt 0.5730697 22.13194
vt -0.6587008 24.98619
vt -0.5730697 22.13194

usemtl brownLight

f 3/3/1 2/2/1 1/1/1
f 2/2/1 3/3/1 4/4/1
f 7/2/2 6/3/2 5/4/2
f 6/3/2 7/2/2 8/1/2
f 9/3/3 4/2/3 3/1/3
f 4/2/3 9/3/3 10/4/3
f 9/1/4 11/4/4 10/2/4
f 11/4/4 9/1/4 12/3/4
f 11/2/5 8/3/5 7/4/5
f 8/3/5 11/2/5 12/1/5

usemtl green

f 12/1/5 13/5/5 8/3/5
f 13/5/5 12/1/5 14/6/5
f 13/9/6 16/8/6 15/7/6
f 16/8/6 13/9/6 17/10/6
f 16/10/7 18/7/7 15/9/7
f 18/7/7 16/10/7 19/8/7
f 20/6/4 12/3/4 9/1/4
f 12/3/4 20/6/4 14/5/4
f 19/10/8 21/7/8 18/9/8
f 21/7/8 19/10/8 22/8/8
f 21/5/1 1/1/1 18/6/1
f 1/1/1 21/5/1 3/3/1
f 8/1/2 15/5/2 6/3/2
f 15/5/2 8/1/2 13/6/2
f 20/5/3 3/1/3 21/6/3
f 3/1/3 20/5/3 9/3/3
f 14/9/9 17/8/9 13/7/9
f 17/8/9 14/9/9 23/10/9
f 26/13/10 25/12/10 24/11/10
f 25/12/10 26/13/10 27/14/10
f 25/12/10 27/14/10 28/15/10
f 28/15/10 27/14/10 29/16/10
f 30/10/11 14/7/11 20/9/11
f 14/7/11 30/10/11 23/8/11
f 30/8/12 21/9/12 22/10/12
f 21/9/12 30/8/12 20/7/12
f 31/19/13 19/18/13 16/17/13
f 19/18/13 31/19/13 32/20/13
f 33/19/14 23/18/14 30/17/14
f 23/18/14 33/19/14 34/20/14
f 32/19/15 22/18/15 19/17/15
f 22/18/15 32/19/15 35/20/15
f 17/17/16 31/20/16 16/18/16
f 31/20/16 17/17/16 36/19/16
f 23/17/17 36/20/17 17/18/17
f 36/20/17 23/17/17 34/19/17
f 33/20/18 22/17/18 35/19/18
f 22/17/18 33/20/18 30/18/18
f 37/23/19 29/22/19 27/21/19
f 29/22/19 37/23/19 38/24/19
f 39/23/20 27/22/20 26/21/20
f 27/22/20 39/23/20 37/24/20
f 24/22/21 41/23/21 40/24/21
f 41/23/21 24/22/21 25/21/21
f 39/24/22 24/21/22 40/23/22
f 24/21/22 39/24/22 26/22/22
f 42/23/23 25/22/23 28/21/23
f 25/22/23 42/23/23 41/24/23
f 29/21/24 42/24/24 28/22/24
f 42/24/24 29/21/24 38/23/24
f 5/2/25 41/26/25 42/25/25
f 41/26/25 5/2/25 2/4/25
f 2/4/25 5/2/25 6/1/25
f 2/4/25 6/1/25 1/3/25
f 1/3/25 6/1/25 18/5/25
f 18/5/25 6/1/25 15/6/25
f 10/2/4 37/26/4 39/25/4
f 37/26/4 10/2/4 11/4/4
f 38/25/2 5/4/2 42/26/2
f 5/4/2 38/25/2 7/2/2
f 10/4/3 40/25/3 4/2/3
f 40/25/3 10/4/3 39/26/3
f 4/4/1 41/25/1 2/2/1
f 41/25/1 4/4/1 40/26/1
f 37/25/5 7/4/5 38/26/5
f 7/4/5 37/25/5 11/2/5

usemtl brown

f 45/29/26 44/28/26 43/27/26
f 44/28/26 45/29/26 46/30/26
f 44/28/26 46/30/26 47/31/26
f 47/31/26 46/30/26 48/32/26
f 43/35/27 32/34/27 45/33/27
f 32/34/27 43/35/27 35/36/27
f 31/36/28 48/33/28 46/35/28
f 48/33/28 31/36/28 36/34/28
f 34/34/29 48/35/29 36/36/29
f 48/35/29 34/34/29 47/33/29
f 44/35/30 35/34/30 43/33/30
f 35/34/30 44/35/30 33/36/30
f 44/33/31 34/36/31 33/34/31
f 34/36/31 44/33/31 47/35/31
f 46/33/32 32/36/32 31/34/32
f 32/36/32 46/33/32 45/35/32

