# Created by Kenney (www.kenney.nl)

mtllib wineRed.mtl

g wineRed

v -0.04769856 0 0.08261633
v 0.04769856 0 0.08261633
v -0.02614633 0.01832463 0.04528678
v 0.02614633 0.01832463 0.04528678
v 0.09539712 0 0
v 0.09539712 0.3664927 0
v 0.04769856 0 -0.08261633
v 0.04769856 0.3664927 -0.08261633
v 0.04769856 0.3664927 0.08261633
v -0.04769856 0.3664927 0.08261633
v -0.03747744 0.528192 0
v -0.04429152 0.423136 0
v -0.01873872 0.528192 -0.03245642
v -0.02214576 0.423136 -0.03835758
v -0.09539712 0.3664927 0
v -0.04769856 0.3664927 -0.08261633
v -0.02214576 0.423136 0.03835758
v -0.01873872 0.528192 0.03245642
v 0.02214576 0.423136 -0.03835758
v 0.01873872 0.528192 -0.03245642
v 0.04429152 0.423136 0
v 0.02214576 0.423136 0.03835758
v 0.03747744 0.528192 0
v -0.04769856 0 -0.08261633
v -0.02614633 0.01832463 -0.04528678
v 0.02614633 0.01832463 -0.04528678
v -0.09539712 0 0
v -0.05229266 0.01832463 0
v 0.05229266 0.01832463 0
v -0.09539712 0.3174743 0
v -0.0596232 0.3174743 -0.06196225
v -0.0596232 0.1223169 -0.06196225
v -0.09539712 0.1223169 0
v 0.01873872 0.528192 0.03245642
v -0.0596232 0.3174743 0.06196225
v -0.0596232 0.1223169 0.06196225
v -0.02379359 0.69888 0
v -0.02379359 0.6512665 0
v -0.01189679 0.69888 -0.02060585
v -0.01189679 0.6512665 -0.02060585
v -0.01189679 0.69888 0.02060585
v 0.01189679 0.69888 0.02060585
v 0.01189679 0.69888 -0.02060585
v 0.02379359 0.69888 0
v 0.01189679 0.6512665 0.02060585
v 0.02379359 0.6512665 0
v 0.01189679 0.6512665 -0.02060585
v -0.01189679 0.6512665 0.02060585
v -0.01424143 0.6064665 0.02466687
v -0.02848285 0.6064665 0
v 0.01424143 0.6064665 0.02466687
v 0.01922593 0.6288666 0.03330028
v -0.01922593 0.6288666 0.03330028
v 0.02848285 0.6064665 0
v 0.01424143 0.6064665 -0.02466687
v -0.01424143 0.6064665 -0.02466687
v 0.03845185 0.6288666 0
v 0.03845185 0.6512665 0
v 0.01922593 0.6288666 -0.03330028
v 0.01922593 0.6512665 -0.03330028
v -0.01922593 0.6512665 0.03330028
v -0.03845185 0.6512665 0
v -0.03845185 0.6288666 0
v -0.01922593 0.6288666 -0.03330028
v -0.01922593 0.6512665 -0.03330028
v 0.01922593 0.6512665 0.03330028

vn 0 -0.897675 -0.440658
vn 0.8660254 0 -0.5
vn 0.8660254 0 0.5
vn 0 0 1
vn -0.8646623 0.05608322 -0.499213
vn -0.6824132 0.6156971 -0.3939914
vn -0.8646623 0.05608322 0.499213
vn 0 0.05608322 -0.9984261
vn 0.6824132 0.6156971 -0.3939914
vn 0 0.6156971 0.7879829
vn 0.8646623 0.05608322 -0.499213
vn 0 -0.897675 0.440658
vn 0.3816211 -0.897675 0.220329
vn -0.3816211 -0.897675 0.220329
vn -0.8660254 0 -0.5
vn 0.3816211 -0.897675 -0.220329
vn 0 -1 0
vn -0.6824132 0.6156971 0.3939914
vn 0.6824132 0.6156971 0.3939914
vn 0.8646623 0.05608322 0.499213
vn 0 0.05608322 0.9984261
vn -0.3816211 -0.897675 -0.220329
vn 0 0.6156971 -0.7879829
vn -0.8660254 0 0.5
vn 0 0 -1
vn 0 1 0
vn -0.8617687 0.09902645 0.4975424
vn 0 -0.359633 0.9330938
vn 0.8617687 0.09902645 0.4975424
vn 0.8617687 0.09902645 -0.4975424
vn 0 0.09902646 -0.9950848
vn 0 0.09902646 0.9950848
vn 0.8080829 -0.3596329 -0.4665469
vn -0.8080829 -0.3596329 -0.4665469
vn 0.8080829 -0.3596329 0.4665469
vn 0 -0.359633 -0.9330938
vn -0.8617687 0.09902645 -0.4975424
vn -0.8080829 -0.3596329 0.4665469

vt 1.877896 -2.919788
vt -1.877896 -2.919788
vt 1.029383 -1.282595
vt -1.029383 -1.282595
vt -1.877896 0
vt -1.877896 14.42885
vt 1.877896 0
vt 1.877896 14.42885
vt -1.877896 -6.720029E-18
vt 1.877896 -6.720029E-18
vt 0.7377449 20.69057
vt 0.8718803 16.54799
vt -0.7377449 20.69057
vt -0.8718803 16.54799
vt 0.8718803 12.19714
vt 1.877896 9.36706
vt -0.8718803 12.19714
vt -1.877896 9.36706
vt 1.877896 12.49899
vt -0.938948 12.49899
vt -0.938948 4.815627
vt -1.877896 -7.458999E-17
vt 1.877896 -7.458999E-17
vt 1.877896 4.815627
vt 2.058766 0
vt 1.029383 -1.782944
vt 1.029383 1.782944
vt -1.029383 1.782944
vt -1.029383 -1.782944
vt -2.058766 0
vt 1.877896 5.514071E-17
vt 0.938948 12.49899
vt -1.877896 12.49899
vt 0.938948 4.815627
vt -1.877896 5.514071E-17
vt -1.877896 4.815627
vt 1.877896 -4.644574E-17
vt -1.877896 -4.644574E-17
vt 0.4683777 27.51496
vt 0.4683777 25.64042
vt -0.4683777 27.51496
vt -0.4683777 25.64042
vt -0.9367554 0
vt -0.4683777 0.811254
vt -0.4683777 -0.811254
vt 0.4683777 -0.811254
vt 0.4683777 0.811254
vt 0.9367554 0
vt 0.7377449 20.56621
vt -0.7377449 20.56621
vt 0.5606861 23.66311
vt -0.5606861 23.66311
vt 0.5606861 22.6284
vt -0.5606861 22.6284
vt 0.7569262 23.57352
vt -0.7569262 23.57352
vt -0.7569262 24.75853
vt -0.7569262 25.64042
vt 0.7569262 24.75853
vt 0.7569262 25.64042
vt -1.513852 0
vt -0.7569262 -1.311035
vt 0.7569262 -1.311035
vt 1.513852 0
vt -0.7569262 1.311035
vt 0.7569262 1.311035

usemtl brownDarkest

f 3/3/1 2/2/1 1/1/1
f 2/2/1 3/3/1 4/4/1
f 7/7/2 6/6/2 5/5/2
f 6/6/2 7/7/2 8/8/2
f 5/10/3 9/6/3 2/9/3
f 9/6/3 5/10/3 6/8/3
f 9/8/4 1/5/4 2/7/4
f 1/5/4 9/8/4 10/6/4
f 13/13/5 12/12/5 11/11/5
f 12/12/5 13/13/5 14/14/5
f 14/17/6 15/16/6 12/15/6
f 15/16/6 14/17/6 16/18/6
f 18/11/7 12/14/7 17/12/7
f 12/14/7 18/11/7 11/13/7
f 13/11/8 19/14/8 14/12/8
f 19/14/8 13/11/8 20/13/8
f 8/16/9 21/17/9 6/18/9
f 21/17/9 8/16/9 19/15/9
f 22/15/10 10/18/10 9/16/10
f 10/18/10 22/15/10 17/17/10
f 19/12/11 23/13/11 21/14/11
f 23/13/11 19/12/11 20/11/11
f 7/1/12 25/4/12 24/2/12
f 25/4/12 7/1/12 26/3/12
f 24/1/13 28/4/13 27/2/13
f 28/4/13 24/1/13 25/3/13
f 7/2/14 29/3/14 26/4/14
f 29/3/14 7/2/14 5/1/14
f 16/6/15 30/19/15 15/8/15
f 30/19/15 16/6/15 31/20/15
f 31/20/15 16/6/15 32/21/15
f 24/22/15 32/21/15 16/6/15
f 27/23/15 32/21/15 24/22/15
f 32/21/15 27/23/15 33/24/15
f 28/3/16 1/2/16 27/1/16
f 1/2/16 28/3/16 3/4/16
f 25/27/17 3/26/17 28/25/17
f 3/26/17 25/27/17 26/28/17
f 3/26/17 26/28/17 4/29/17
f 4/29/17 26/28/17 29/30/17
f 17/15/18 15/18/18 10/16/18
f 15/18/18 17/15/18 12/17/18
f 6/16/19 22/17/19 9/18/19
f 22/17/19 6/16/19 21/15/19
f 21/12/20 34/13/20 22/14/20
f 34/13/20 21/12/20 23/11/20
f 34/11/21 17/14/21 22/12/21
f 17/14/21 34/11/21 18/13/21
f 29/4/22 2/1/22 4/3/22
f 2/1/22 29/4/22 5/2/22
f 14/15/23 8/18/23 16/16/23
f 8/18/23 14/15/23 19/17/23
f 10/8/24 35/32/24 1/31/24
f 35/32/24 10/8/24 15/6/24
f 35/32/24 15/6/24 30/33/24
f 36/34/24 1/31/24 35/32/24
f 1/31/24 36/34/24 27/35/24
f 27/35/24 36/34/24 33/36/24
f 16/8/25 7/38/25 24/37/25
f 7/38/25 16/8/25 8/6/25

usemtl brownLight

f 30/33/24 36/34/24 35/32/24
f 36/34/24 30/33/24 33/36/24
f 31/20/15 33/24/15 30/19/15
f 33/24/15 31/20/15 32/21/15

usemtl brown

f 39/41/15 38/40/15 37/39/15
f 38/40/15 39/41/15 40/42/15
f 41/45/26 39/44/26 37/43/26
f 39/44/26 41/45/26 42/46/26
f 39/44/26 42/46/26 43/47/26
f 43/47/26 42/46/26 44/48/26
f 46/40/3 42/41/3 45/42/3
f 42/41/3 46/40/3 44/39/3
f 39/39/25 47/42/25 40/40/25
f 47/42/25 39/39/25 43/41/25
f 42/39/4 48/42/4 45/40/4
f 48/42/4 42/39/4 41/41/4
f 47/40/2 44/41/2 46/42/2
f 44/41/2 47/40/2 43/39/2
f 37/41/24 48/40/24 41/39/24
f 48/40/24 37/41/24 38/42/24

usemtl red

f 49/51/27 11/50/27 18/49/27
f 11/50/27 49/51/27 50/52/27
f 52/55/28 49/54/28 51/53/28
f 49/54/28 52/55/28 53/56/28
f 23/49/29 51/52/29 34/50/29
f 51/52/29 23/49/29 54/51/29
f 20/49/30 54/52/30 23/50/30
f 54/52/30 20/49/30 55/51/30
f 56/51/31 20/50/31 13/49/31
f 20/50/31 56/51/31 55/52/31
f 51/51/32 18/50/32 34/49/32
f 18/50/32 51/51/32 49/52/32
f 59/59/2 58/58/2 57/57/2
f 58/58/2 59/59/2 60/60/2
f 62/58/24 53/59/24 61/60/24
f 53/59/24 62/58/24 63/57/24
f 55/53/33 57/56/33 54/54/33
f 57/56/33 55/53/33 59/55/33
f 64/56/34 50/53/34 63/55/34
f 50/53/34 64/56/34 56/54/34
f 51/54/35 57/55/35 52/56/35
f 57/55/35 51/54/35 54/53/35
f 64/55/36 55/54/36 56/53/36
f 55/54/36 64/55/36 59/56/36
f 65/60/25 59/57/25 64/59/25
f 59/57/25 65/60/25 60/58/25
f 66/60/4 53/57/4 52/59/4
f 53/57/4 66/60/4 61/58/4
f 61/62/26 38/43/26 62/61/26
f 38/43/26 61/62/26 48/45/26
f 48/45/26 61/62/26 66/63/26
f 48/45/26 66/63/26 45/46/26
f 45/46/26 66/63/26 46/48/26
f 46/48/26 66/63/26 58/64/26
f 38/43/26 65/65/26 62/61/26
f 65/65/26 38/43/26 40/44/26
f 65/65/26 40/44/26 60/66/26
f 60/66/26 46/48/26 58/64/26
f 60/66/26 40/44/26 47/47/26
f 60/66/26 47/47/26 46/48/26
f 65/58/15 63/59/15 62/60/15
f 63/59/15 65/58/15 64/57/15
f 56/52/37 11/49/37 50/51/37
f 11/49/37 56/52/37 13/50/37
f 63/56/38 49/53/38 53/55/38
f 49/53/38 63/56/38 50/54/38
f 57/59/3 66/58/3 52/57/3
f 66/58/3 57/59/3 58/60/3

