<?xml version="1.0" encoding="UTF-8"?>
<svg width="1024px" height="1024px" viewBox="0 0 1024 1024" xmlns="http://www.w3.org/2000/svg" xmlns:xlink="http://www.w3.org/1999/xlink" version="1.1">
 <!-- Generated by Pixelmator Pro 2.1.3 -->
 <g id="group">
  <path id="Path" d="M0 0 L1024 0 1024 1024 0 1024 Z" fill="#2196f3" fill-opacity="1" stroke="none"/>
  <path id="Path-1" d="M896 128 L1024 128 1024 256 896 256 896 384 1024 384 1024 512 896 512 896 640 1024 640 1024 768 896 768 896 896 1024 896 1024 1024 896 1024 896 896 768 896 768 1024 640 1024 640 896 512 896 512 1024 384 1024 384 896 256 896 256 1024 128 1024 128 896 0 896 0 768 128 768 128 640 0 640 0 512 128 512 128 384 0 384 0 256 128 256 128 128 0 128 0 0 128 0 128 128 256 128 256 0 384 0 384 128 512 128 512 0 640 0 640 128 768 128 768 0 896 0 896 128 768 128 768 256 640 256 640 128 512 128 512 256 384 256 384 128 256 128 256 256 128 256 128 384 256 384 256 512 128 512 128 640 256 640 256 768 128 768 128 896 256 896 256 768 384 768 384 896 512 896 512 768 640 768 640 896 768 896 768 768 896 768 896 640 768 640 768 512 896 512 896 384 768 384 768 256 896 256 Z M768 640 L768 768 640 768 640 640 512 640 512 768 384 768 384 640 256 640 256 512 384 512 384 384 256 384 256 256 384 256 384 384 512 384 512 256 640 256 640 384 768 384 768 512 640 512 640 640 Z M640 384 L512 384 512 512 640 512 Z M512 640 L512 512 384 512 384 640 Z" fill="#1976d2" fill-opacity="1" stroke="none"/>
  <path id="Path-2" d="M1022 510 L1022 2 514 2 510 2 2 2 2 510 2 514 2 1022 510 1022 514 1022 1022 1022 1022 514.05 Z M0 0 L1024 0 1024 1024 0 1024 Z" fill="#ffffff" fill-opacity="1" stroke="none"/>
 </g>
</svg>
