<?xml version="1.0" encoding="UTF-8"?>
<svg width="1024px" height="1024px" viewBox="0 0 1024 1024" xmlns="http://www.w3.org/2000/svg" xmlns:xlink="http://www.w3.org/1999/xlink" version="1.1">
 <!-- Generated by Pixelmator Pro 2.1.3 -->
 <g id="group">
  <path id="Path" d="M0 0 L1024 0 1024 1024 0 1024 Z" fill="#2196f3" fill-opacity="1" stroke="none"/>
  <path id="Path-1" d="M512 256 L512 0 768 0 768 256 1024 256 1024 512 768 512 768 768 1024 768 1024 1024 768 1024 768 768 512 768 512 1024 256 1024 256 768 0 768 0 512 256 512 256 256 0 256 0 0 256 0 256 256 512 256 512 512 256 512 256 768 512 768 512 512 768 512 768 256 Z" fill="#1976d2" fill-opacity="1" stroke="none"/>
 </g>
</svg>
