<?xml version="1.0" encoding="UTF-8"?>
<svg width="1024px" height="1024px" viewBox="0 0 1024 1024" xmlns="http://www.w3.org/2000/svg" xmlns:xlink="http://www.w3.org/1999/xlink" version="1.1">
 <!-- Generated by Pixelmator Pro 2.1.3 -->
 <g id="group">
  <path id="Path" d="M0 0 L1024 0 1024 1024 0 1024 Z" fill="#2196f3" fill-opacity="1" stroke="none"/>
  <path id="Path-1" d="M257 1024 L256 1024 256 897 129 897 129 1024 128 1024 128 897 0 897 0 896 128 896 128 769 0 769 0 768 128 768 128 641 0 641 0 640 128 640 128 513 0 513 0 512 128 512 128 385 0 385 0 384 128 384 128 257 0 257 0 256 128 256 128 129 0 129 0 128 128 128 128 0 129 0 129 128 256 128 256 0 257 0 257 128 384 128 384 0 385 0 385 128 512 128 512 0 513 0 513 128 640 128 640 0 641 0 641 128 768 128 768 0 769 0 769 128 896 128 896 0 897 0 897 128 1024 128 1024 129 897 129 897 256 1024 256 1024 257 897 257 897 384 1024 384 1024 385 897 385 897 512 1024 512 1024 513 897 513 897 640 1024 640 1024 641 897 641 897 768 1024 768 1024 769 897 769 897 896 1024 896 1024 897 897 897 897 1024 896 1024 896 897 769 897 769 1024 768 1024 768 897 641 897 641 1024 640 1024 640 897 513 897 513 1024 512 1024 512 897 385 897 385 1024 384 1024 384 897 257 897 Z M768 257 L641 257 641 384 768 384 Z M769 257 L769 384 896 384 896 257 Z M768 256 L768 129 641 129 641 256 Z M769 256 L896 256 896 129 769 129 Z M769 512 L896 512 896 385 769 385 Z M768 768 L768 641 641 641 641 768 Z M769 768 L896 768 896 641 769 641 Z M896 513 L769 513 769 640 896 640 Z M641 513 L641 640 768 640 768 513 Z M769 769 L769 896 896 896 896 769 Z M641 512 L768 512 768 385 641 385 Z M513 256 L640 256 640 129 513 129 Z M512 257 L385 257 385 384 512 384 Z M384 384 L384 257 257 257 257 384 Z M513 257 L513 384 640 384 640 257 Z M513 512 L640 512 640 385 513 385 Z M512 256 L512 129 385 129 385 256 Z M512 512 L512 385 385 385 385 512 Z M384 129 L257 129 257 256 384 256 Z M256 257 L129 257 129 384 256 384 Z M256 512 L256 385 129 385 129 512 Z M129 129 L129 256 256 256 256 129 Z M256 768 L256 641 129 641 129 768 Z M257 768 L384 768 384 641 257 641 Z M129 513 L129 640 256 640 256 513 Z M384 513 L257 513 257 640 384 640 Z M256 769 L129 769 129 896 256 896 Z M640 513 L513 513 513 640 640 640 Z M512 768 L512 641 385 641 385 768 Z M513 768 L640 768 640 641 513 641 Z M513 769 L513 896 640 896 640 769 Z M385 513 L385 640 512 640 512 513 Z M512 769 L385 769 385 896 512 896 Z M257 512 L384 512 384 385 257 385 Z M257 769 L257 896 384 896 384 769 Z M768 769 L641 769 641 896 768 896 Z" fill="#ffffff" fill-opacity="1" stroke="none"/>
  <path id="Path-2" d="M1022 510 L1022 2 514 2 510 2 2 2 2 510 2 514 2 1022 510 1022 514 1022 1022 1022 1022 514.05 Z M0 0 L1024 0 1024 1024 0 1024 Z" fill="#ffffff" fill-opacity="1" stroke="none"/>
  <path id="Path-3" d="M1022 510 L1022 514.05 514 514 514 1022 510 1022 510 514 2 514 2 510 510 510 510 2 514 2 514 510 Z" fill="#ffffff" fill-opacity="1" stroke="none"/>
 </g>
</svg>
