<?xml version="1.0" encoding="UTF-8"?>
<svg width="1024px" height="1024px" viewBox="0 0 1024 1024" xmlns="http://www.w3.org/2000/svg" xmlns:xlink="http://www.w3.org/1999/xlink" version="1.1">
 <!-- Generated by Pixelmator Pro 2.1.3 -->
 <g id="group">
  <path id="Path" d="M0 0 L1024 0 1024 1024 0 1024 Z" fill="#2196f3" fill-opacity="1" stroke="none"/>
  <path id="Path-1" d="M896 0 L896 128 768 128 768 256 640 256 640 384 512 384 512 512 384 512 384 640 256 640 256 768 128 768 128 896 0 896 0 0 Z" fill="#1976d2" fill-opacity="1" stroke="none"/>
  <path id="Path-2" d="M896 0 L896 128 768 128 768 256 640 256 640 384 512 384 512 512 384 512 384 640 256 640 256 768 128 768 128 896 0 896" fill="none" stroke="#ffffff" stroke-width="4" stroke-opacity="1" stroke-linejoin="round" stroke-linecap="round"/>
  <path id="Path-3" d="M1022 129 L1022 128 1022 2 897 2 896 2 769 2 768 2 641 2 640 2 514 2 510 2 385 2 384 2 257 2 256 2 129 2 128 2 2 2 2 128 2 129 2 256 2 257 2 384 2 385 2 510 2 514 2 640 2 641 2 768 2 769 2 896 2 897 2 1022 128 1022 129 1022 256 1022 257 1022 384 1022 385 1022 510 1022 514 1022 640 1022 641 1022 768 1022 769 1022 896 1022 897 1022 1022 1022 1022 897 1022 896 1022 769 1022 768 1022 641 1022 640 1022 514.05 1022 510 1022 385 1022 384 1022 257 1022 256 Z M0 0 L1024 0 1024 1024 0 1024 Z" fill="#ffffff" fill-opacity="1" stroke="none"/>
 </g>
</svg>
