# Blender v3.0.0 OBJ File: ''
# www.blender.org
mtllib fenceFortified.mtl
o fenceFortified
v -0.828880 0.000000 1.000000
v -1.000000 0.000000 1.171120
v -1.000000 0.000000 1.000000
v -0.828880 0.000000 1.171120
v 1.000000 -0.000000 1.000000
v 0.828880 -0.000000 1.171120
v 0.828880 -0.000000 1.000000
v 1.000000 -0.000000 1.171120
v 0.833148 0.413000 1.132060
v 0.845001 1.560000 1.132060
v 0.833148 0.413000 1.039060
v 0.845962 1.653000 1.132060
v 0.845001 1.560000 1.039060
v 0.832187 0.320000 1.039060
v 0.850270 2.069867 1.149730
v 0.850270 2.069867 1.021390
v 0.845962 1.653000 1.039060
v 0.832187 0.320000 1.132060
v 0.978610 2.069867 1.149730
v 0.978610 2.069867 1.021390
v -0.978610 2.069867 1.021390
v -0.850270 2.069867 1.021390
v -0.850270 2.069867 1.149730
v -0.978610 2.069867 1.149730
v -0.833148 0.413000 1.132060
v -0.845001 1.560000 1.132060
v -0.845962 1.653000 1.132060
v -0.833148 0.413000 1.039060
v -0.845001 1.560000 1.039060
v -0.832187 0.320000 1.039060
v -0.832187 0.320000 1.132060
v -0.845962 1.653000 1.039060
v -0.748425 1.560000 1.132060
v -0.541971 1.560000 1.132060
v -0.497623 1.560000 1.132060
v -0.291115 1.560000 1.132060
v -0.227625 1.560000 1.132060
v -0.021171 1.560000 1.132060
v 0.055199 1.560000 1.132060
v 0.261866 1.560000 1.132060
v 0.283070 1.560000 1.132060
v 0.489595 1.560000 1.132060
v 0.567394 1.560000 1.132060
v 0.773928 1.560000 1.132060
v -0.748425 1.653000 1.132060
v -0.541971 1.653000 1.132060
v -0.499585 1.653000 1.132060
v -0.293078 1.653000 1.132060
v -0.227625 1.653000 1.132060
v -0.021171 1.653000 1.132060
v 0.059126 1.653000 1.132060
v 0.265793 1.653000 1.132060
v 0.280805 1.653000 1.132060
v 0.487330 1.653000 1.132060
v 0.569810 1.653000 1.132060
v 0.776344 1.653000 1.132060
v -0.471453 0.320000 1.132060
v -0.541971 0.413000 1.132060
v -0.541971 0.320000 1.132060
v -0.473416 0.413000 1.132060
v -0.748425 0.413000 1.132060
v -0.266909 0.413000 1.132060
v -0.227625 0.413000 1.132060
v -0.021171 0.413000 1.132060
v 0.006760 0.413000 1.132060
v 0.213426 0.413000 1.132060
v 0.311002 0.413000 1.132060
v 0.517527 0.413000 1.132060
v 0.537597 0.413000 1.132060
v 0.744132 0.413000 1.132060
v -0.748425 0.320000 1.132060
v -0.376500 0.320000 1.132060
v -0.227625 0.320000 1.132060
v -0.021171 0.320000 1.132060
v 0.002832 0.320000 1.132060
v 0.209499 0.320000 1.132060
v 0.535182 0.320000 1.132060
v 0.741716 0.320000 1.132060
v 0.518740 0.363175 1.132060
v 0.312357 0.357364 1.132060
v -0.265003 0.322721 1.132060
v -0.541971 0.240000 1.212060
v -0.541971 1.813000 1.132060
v -0.541971 1.813000 1.212060
v -0.541971 0.240000 1.132060
v -0.748425 1.813000 1.212060
v -0.748425 1.813000 1.132060
v -0.748425 0.240000 1.212060
v -0.748425 0.240000 1.132060
v -0.021171 1.773000 1.212060
v -0.227625 0.200000 1.212060
v -0.021171 0.200000 1.212060
v -0.227625 1.773000 1.212060
v -0.021171 1.773000 1.132060
v -0.021171 0.200000 1.132060
v -0.227625 1.773000 1.132060
v -0.227625 0.200000 1.132060
v 0.518741 0.363175 1.212060
v 0.480447 1.935636 1.132060
v 0.480447 1.935636 1.212060
v 0.274063 1.929825 1.212060
v 0.274063 1.929825 1.132060
v 0.312357 0.357364 1.212060
v -0.000300 0.245845 1.132060
v 0.205942 0.235774 1.132060
v 0.272303 1.807155 1.212060
v -0.000300 0.245845 1.212060
v 0.205942 0.235774 1.212060
v 0.066062 1.817225 1.212060
v 0.272303 1.807155 1.132060
v 0.066062 1.817225 1.132060
v 0.574038 1.815793 1.212060
v 0.780412 1.809594 1.132060
v 0.574038 1.815793 1.132060
v 0.780412 1.809594 1.212060
v 0.739565 0.237207 1.132060
v 0.533192 0.243406 1.212060
v 0.533192 0.243406 1.132060
v 0.739566 0.237207 1.212060
v -0.471404 0.317684 1.132060
v -0.265003 0.322721 1.212060
v -0.504593 1.890279 1.212060
v -0.471404 0.317684 1.212060
v -0.298192 1.895316 1.212060
v -0.504593 1.890279 1.132060
v -0.298192 1.895316 1.132060
vt 8.158268 9.842520
vt 9.842520 8.158268
vt 9.842520 9.842520
vt 8.158268 8.158268
vt -9.842520 9.842520
vt -8.158268 8.158268
vt -8.158268 9.842520
vt -9.842520 8.158268
vt -8.542717 4.149481
vt -8.542717 15.439450
vt -9.458071 4.149481
vt -8.542717 16.354860
vt -9.458071 15.439450
vt -9.458071 3.234077
vt -8.368799 20.458099
vt -9.631989 20.458099
vt -9.458071 16.354860
vt -8.542717 3.234077
vt -8.158268 0.084303
vt -9.842520 0.084303
vt 9.842520 -0.101707
vt 8.368799 20.272091
vt 8.158268 -0.101707
vt 9.631989 20.272091
vt -8.368799 20.272091
vt -9.842520 -0.101707
vt -8.158268 -0.101707
vt -9.631989 20.272091
vt 9.631989 8.368799
vt 8.368799 9.631989
vt 8.368799 8.368799
vt 9.631989 9.631989
vt 9.631989 20.458099
vt 8.158268 0.084303
vt 9.842520 0.084303
vt 8.368799 20.458099
vt 9.631989 20.272091
vt 8.158268 -0.101707
vt 9.842520 -0.101707
vt 8.368799 20.272091
vt -8.368799 8.368799
vt -9.631989 9.631989
vt -9.631989 8.368799
vt -8.368799 9.631989
vt -8.368799 20.272091
vt -9.842520 -0.101707
vt -8.158268 -0.101707
vt -9.631989 20.272091
vt 8.542717 4.149481
vt 8.542717 15.439450
vt 8.542717 16.354860
vt 9.458071 4.149481
vt 9.458071 15.439450
vt 9.458071 3.234077
vt 8.368799 20.458099
vt 8.542717 3.234077
vt 8.158268 0.084303
vt 9.842520 0.084303
vt 9.631989 20.458099
vt 9.458071 16.354860
vt -8.368799 20.458099
vt -9.842520 0.084303
vt -8.158268 0.084303
vt -9.631989 20.458099
vt -8.316939 9.458071
vt 8.316939 8.542717
vt 8.316939 9.458071
vt 7.366390 8.542717
vt 5.334361 8.542717
vt 4.897862 8.542717
vt 2.865309 8.542717
vt 2.240406 8.542717
vt 0.208377 8.542717
vt -0.543294 8.542717
vt -2.577417 8.542717
vt -2.786117 8.542717
vt -4.818842 8.542717
vt -5.584580 8.542717
vt -7.617402 8.542717
vt -8.316939 8.542717
vt -8.326399 8.542717
vt 8.326399 9.458071
vt -8.326399 9.458071
vt -7.366390 8.542717
vt -5.334361 8.542717
vt -4.917180 8.542717
vt -2.884628 8.542717
vt -2.240406 8.542717
vt -0.208377 8.542717
vt 0.581950 8.542717
vt 2.616073 8.542717
vt 2.763825 8.542717
vt 4.796551 8.542717
vt 5.608359 8.542717
vt 7.641181 8.542717
vt 8.326399 8.542717
vt 5.584580 15.354330
vt 4.796551 16.269690
vt 4.818842 15.354330
vt 5.608359 16.269690
vt 8.326399 16.269690
vt -8.316939 15.354330
vt 8.316939 15.354330
vt -8.326399 16.269690
vt -4.640285 3.149606
vt -5.334361 4.064960
vt -5.334361 3.149606
vt -4.659604 4.064960
vt -8.200275 8.542717
vt 8.200275 9.458071
vt -8.200275 9.458071
vt -7.366390 8.542717
vt -5.334361 8.542717
vt -4.659604 8.542717
vt -2.627051 8.542717
vt -2.240406 8.542717
vt -0.208377 8.542717
vt 0.066532 8.542717
vt 2.100655 8.542717
vt 3.061046 8.542717
vt 5.093771 8.542717
vt 5.291314 8.542717
vt 7.324135 8.542717
vt 8.200275 8.542717
vt -8.190816 9.458071
vt 8.190816 8.542717
vt 8.190816 9.458071
vt 7.366390 8.542717
vt 5.334361 8.542717
vt 4.640285 8.542717
vt 3.705707 8.542717
vt 2.240406 8.542717
vt 0.208377 8.542717
vt -0.027876 8.542717
vt -2.061999 8.542717
vt -5.267535 8.542717
vt -7.300357 8.542717
vt -8.190816 8.542717
vt 8.200275 4.064960
vt -8.190816 3.149606
vt 8.190816 3.149606
vt -8.200275 4.064960
vt -7.366390 15.354330
vt -8.326399 16.269690
vt -8.316939 15.354330
vt -7.366390 16.269690
vt -7.366390 3.149606
vt -8.200275 4.064960
vt -8.190816 3.149606
vt -7.366390 4.064960
vt -2.240406 15.354330
vt -2.884628 16.269690
vt -2.865309 15.354330
vt -2.240406 16.269690
vt 2.786117 15.354330
vt 2.616073 16.269690
vt 2.577417 15.354330
vt 2.763825 16.269690
vt 0.027876 3.149606
vt -0.208377 4.064960
vt -0.208377 3.149606
vt 0.066532 4.064960
vt 0.543294 15.354330
vt -0.208377 16.269690
vt -0.208377 15.354330
vt 0.581950 16.269690
vt 8.190816 3.149606
vt 7.324135 4.064960
vt 7.300357 3.149606
vt 8.200275 4.064960
vt 8.316939 15.354330
vt 7.641181 16.269690
vt 7.617402 15.354330
vt 8.326399 16.269690
vt 5.267535 3.149606
vt 5.105714 3.574558
vt 3.074381 3.517362
vt 5.291314 4.064960
vt 5.093771 4.064960
vt 2.061999 3.149606
vt 2.100655 4.064960
vt 3.061046 4.064960
vt -2.240406 3.149606
vt -2.608298 3.176384
vt -3.705707 3.149606
vt -2.240406 4.064960
vt -2.627051 4.064960
vt -4.897862 15.354330
vt -5.334361 16.269690
vt -5.334361 15.354330
vt -4.917180 16.269690
vt 7.755315 2.362205
vt 8.542717 17.844490
vt 7.755315 17.844490
vt 8.542717 4.064960
vt 8.542717 2.362205
vt 8.542717 16.269690
vt 8.542717 3.149606
vt 8.542717 15.354330
vt -7.366390 7.755315
vt -5.334361 8.542717
vt -7.366390 8.542717
vt -5.334361 7.755315
vt 5.334361 8.542717
vt 7.366390 7.755315
vt 7.366390 8.542717
vt 5.334361 7.755315
vt -8.542717 15.354330
vt -8.542717 4.064960
vt -8.542717 16.269690
vt -8.542717 17.844490
vt -7.755315 2.362205
vt -7.755315 17.844490
vt -8.542717 2.362205
vt -8.542717 3.149606
vt 7.366390 3.149606
vt 5.334361 2.362205
vt 7.366390 2.362205
vt 5.334361 3.149606
vt -5.334361 17.844490
vt -7.366390 2.362205
vt -5.334361 2.362205
vt -7.366390 17.844490
vt 7.366390 17.844490
vt 5.334361 16.269690
vt 7.366390 16.269690
vt 5.334361 17.844490
vt 7.366390 15.354330
vt 5.334361 4.064960
vt 7.366390 4.064960
vt 5.334361 15.354330
vt -0.208377 17.450790
vt -2.240406 1.968504
vt -0.208377 1.968504
vt -2.240406 17.450790
vt 7.755315 1.968504
vt 8.542717 17.450790
vt 7.755315 17.450790
vt 8.542717 4.064960
vt 8.542717 1.968504
vt 8.542717 16.269690
vt 8.542717 15.354330
vt 8.542717 3.149606
vt -2.240406 7.755315
vt -0.208377 8.542717
vt -2.240406 8.542717
vt -0.208377 7.755315
vt -8.542717 17.450790
vt -7.755315 1.968504
vt -7.755315 17.450790
vt -8.542717 1.968504
vt -8.542717 16.269690
vt -8.542717 15.354330
vt -8.542717 4.064960
vt -8.542717 3.149606
vt 0.208377 8.542717
vt 2.240406 7.755315
vt 2.240406 8.542717
vt 0.208377 7.755315
vt 2.240406 3.149606
vt 0.208377 1.968504
vt 2.240406 1.968504
vt 0.208377 3.149606
vt 2.240406 17.450790
vt 0.208377 16.269690
vt 2.240406 16.269690
vt 0.208377 17.450790
vt 2.240406 15.354330
vt 0.208377 4.064960
vt 2.240406 4.064960
vt 0.208377 15.354330
vt 7.755315 3.449196
vt 8.542717 18.930759
vt 7.755315 18.930759
vt 8.542717 3.939744
vt 8.542717 3.449196
vt 8.542717 16.148090
vt 8.542717 15.232460
vt -7.755315 3.231013
vt -8.542716 5.263151
vt -8.542717 3.231013
vt -7.755315 5.263151
vt 8.542716 5.204300
vt 7.755315 3.172162
vt 8.542717 3.172162
vt 7.755315 5.204300
vt -8.542717 18.923040
vt -7.755315 3.441471
vt -7.755315 18.923040
vt -8.542717 3.441471
vt -8.542717 16.197571
vt -8.542717 15.281950
vt -8.542717 3.989233
vt 5.105714 3.574558
vt 2.697472 18.994341
vt 3.074381 3.517362
vt 4.728805 19.051540
vt -2.697472 18.994341
vt -4.796551 16.269690
vt -2.763825 16.269690
vt -4.728805 19.051540
vt -2.786117 15.354330
vt -5.093771 4.064960
vt -3.061046 4.064960
vt -4.818842 15.354330
vt 0.002948 2.419732
vt -2.061999 3.149606
vt -2.026989 2.320615
vt -0.027876 3.149606
vt 2.680150 17.786961
vt -0.002948 2.419732
vt 2.026989 2.320615
vt 0.650212 17.886080
vt -8.542717 -1.911402
vt -7.755315 0.120954
vt -8.542717 0.120954
vt -7.755315 -1.911402
vt 7.755315 2.404074
vt 8.542717 17.884199
vt 7.755315 17.884199
vt 8.542717 4.149974
vt 8.542717 2.404074
vt 8.542717 16.365580
vt 8.542717 15.449410
vt 8.542717 3.233804
vt 7.755315 0.222858
vt 8.542717 -1.809498
vt 8.542717 0.222858
vt 7.755315 -1.809498
vt -8.542717 17.897579
vt -7.755315 2.417453
vt -7.755315 17.897579
vt -8.542717 2.417453
vt -8.542717 16.279751
vt -8.542717 15.363580
vt -8.542717 4.064148
vt -8.542717 3.147978
vt -0.543294 15.354330
vt -2.100655 4.064960
vt -0.066532 4.064960
vt -2.577417 15.354330
vt -0.650212 17.886080
vt -2.616073 16.269690
vt -0.581950 16.269690
vt -2.680150 17.786961
vt 7.755315 -5.110893
vt 8.542717 -7.143045
vt 8.542717 -5.110893
vt 7.755315 -7.143045
vt -8.542717 -7.205816
vt -7.755315 -5.173663
vt -8.542717 -5.173663
vt -7.755315 -7.205816
vt 7.681219 17.810970
vt 5.247952 2.395727
vt 7.279189 2.334719
vt 5.649982 17.871969
vt -8.542717 18.012671
vt -7.755315 2.531200
vt -7.755315 18.012671
vt -8.542717 2.531200
vt -8.542717 16.409840
vt -8.542717 15.494180
vt -8.542717 4.200997
vt -8.542717 3.285334
vt -5.247952 2.395727
vt -7.300357 3.149606
vt -7.279189 2.334719
vt -5.267535 3.149606
vt 7.755315 2.522961
vt 8.542717 18.004431
vt 7.755315 18.004431
vt 8.542717 4.253787
vt 8.542717 2.522961
vt 8.542717 16.462629
vt 8.542717 15.546960
vt 8.542717 3.338123
vt -5.649982 17.871969
vt -7.641181 16.269690
vt -5.608359 16.269690
vt -7.681219 17.810970
vt -5.584580 15.354330
vt -7.324135 4.064960
vt -5.291314 4.064960
vt -7.617402 15.354330
vt 3.705707 3.149607
vt 4.639804 3.126814
vt 4.640285 3.149607
vt -2.608298 3.176384
vt -4.966468 18.605110
vt -4.639804 3.126813
vt -2.934962 18.654680
vt 8.542717 -3.627772
vt 7.755315 -4.562148
vt 8.542717 -4.562148
vt 7.755315 -2.530037
vt 8.542717 -2.530037
vt -8.542717 18.705759
vt -7.755315 3.224017
vt -7.755315 18.705759
vt -8.542717 3.224017
vt -8.542717 16.369820
vt -8.542717 15.454260
vt -8.542717 4.162373
vt -8.542717 3.246815
vt -7.755315 -4.511137
vt -8.542717 -2.479027
vt -8.542717 -4.511137
vt -7.755315 -2.479027
vt 7.755315 3.230712
vt 8.542717 18.712460
vt 7.755315 18.712460
vt 8.542717 4.119486
vt 8.542717 3.230712
vt 8.542717 16.326929
vt 8.542717 15.411370
vt 4.966468 18.605110
vt 2.884628 16.269690
vt 4.917180 16.269690
vt 2.934962 18.654680
vt 4.897862 15.354330
vt 2.627051 4.064960
vt 4.659604 4.064960
vt 2.865309 15.354330
vn -0.0000 -1.0000 0.0000
vn -0.9999 0.0103 0.0000
vn -0.6861 0.0024 -0.7275
vn 0.2893 -0.0030 0.9572
vn 0.9999 0.0103 0.0000
vn -0.0000 0.0103 -0.9999
vn 0.0000 1.0000 -0.0000
vn 0.0000 0.0103 0.9999
vn -0.7539 0.0152 -0.6568
vn 0.5381 0.0328 0.8422
vn 0.0000 -1.0000 0.0001
vn 0.0000 1.0000 -0.0001
vn 0.0000 0.0000 1.0000
vn -0.0000 -0.0000 -1.0000
vn 1.0000 -0.0000 -0.0000
vn 1.0000 -0.0000 0.0002
vn -0.9874 0.0000 0.1580
vn 0.9957 0.0000 0.0926
vn -1.0000 0.0000 0.0002
vn 0.5391 0.0000 -0.8423
vn -1.0000 0.0000 0.0000
vn -1.0000 0.0000 -0.0053
vn 1.0000 0.0000 0.0010
vn 1.0000 0.0000 0.0039
vn -0.1160 0.0000 0.9933
vn -0.0087 0.0000 -1.0000
vn 0.0001 0.0000 -1.0000
vn 0.9999 0.0000 -0.0135
vn 0.9997 0.0243 -0.0000
vn 0.9997 0.0244 -0.0003
vn 0.0860 0.0018 0.9963
vn 0.9733 0.0243 -0.2283
vn -0.0281 0.9996 0.0000
vn 0.0281 -0.9996 0.0000
vn -0.9997 -0.0243 0.0000
vn -0.3490 0.9059 0.2397
vn 0.5358 0.0128 -0.8443
vn -0.9997 -0.0244 -0.0000
vn -0.0488 -0.9988 0.0000
vn 0.9991 -0.0422 -0.0000
vn 0.9991 -0.0420 0.0002
vn 0.6503 -0.0278 -0.7592
vn 0.1240 -0.0050 0.9923
vn 0.0422 0.9982 -0.0422
vn 0.0488 0.9988 0.0000
vn -0.9991 0.0422 0.0000
vn -0.9991 0.0421 -0.0004
vn -0.8873 0.0371 -0.4598
vn -0.2871 0.0118 -0.9578
vn -0.2271 0.0091 0.9738
vn -0.0879 -0.0073 0.9961
vn 0.0300 0.9995 0.0000
vn -0.0300 -0.9995 -0.0000
vn -0.9997 0.0260 0.0000
vn -0.8498 0.0220 -0.5266
vn 0.1726 -0.0041 -0.9850
vn -0.9997 0.0259 -0.0000
vn -0.7584 0.0197 0.6515
vn 0.9997 -0.0260 -0.0000
vn 0.0235 0.9041 -0.4267
vn -0.0259 0.9997 -0.0024
vn 0.5304 -0.0138 0.8476
vn 0.0244 -0.9997 -0.0000
vn -0.9998 -0.0211 0.0000
vn 0.3260 0.9295 0.1725
vn -0.5864 -0.0126 -0.8099
vn 0.4347 0.8992 0.0501
vn 0.0004 -0.0210 -0.9998
vn -0.0244 0.9997 0.0000
vn 0.9998 0.0211 -0.0000
vn 0.9998 0.0211 -0.0003
vn 0.9998 0.0211 -0.0001
vn 0.1557 0.0031 -0.9878
usemtl wood.001
s 1
f 1/1/1 2/2/1 3/3/1
f 2/2/1 1/1/1 4/4/1
f 5/5/1 6/6/1 7/7/1
f 6/6/1 5/5/1 8/8/1
f 9/9/2 10/10/3 11/11/4
f 10/10/3 9/9/2 12/12/2
f 11/11/4 10/10/3 13/13/2
f 11/11/4 13/13/2 14/14/2
f 15/15/2 12/12/2 9/9/2
f 12/12/2 15/15/2 16/16/2
f 12/12/2 16/16/2 17/17/2
f 17/17/2 16/16/2 13/13/2
f 18/18/2 15/15/2 9/9/2
f 18/18/2 6/19/2 15/15/2
f 6/19/2 18/18/2 7/20/2
f 7/20/2 18/18/2 14/14/2
f 7/20/2 14/14/2 13/13/2
f 7/20/2 13/13/2 16/16/2
f 5/21/5 19/22/5 8/23/5
f 19/22/5 5/21/5 20/24/5
f 16/25/6 5/26/6 7/27/6
f 5/26/6 16/25/6 20/28/6
f 19/29/7 16/30/7 15/31/7
f 16/30/7 19/29/7 20/32/7
f 19/33/8 6/34/8 8/35/8
f 6/34/8 19/33/8 15/36/8
f 21/37/6 1/38/6 3/39/6
f 1/38/6 21/37/6 22/40/6
f 23/41/7 21/42/7 24/43/7
f 21/42/7 23/41/7 22/44/7
f 24/45/2 3/46/2 2/47/2
f 3/46/2 24/45/2 21/48/2
f 25/49/5 26/50/9 27/51/5
f 26/50/9 25/49/5 28/52/10
f 26/50/9 28/52/10 29/53/5
f 29/53/5 28/52/10 30/54/5
f 23/55/5 25/49/5 27/51/5
f 23/55/5 31/56/5 25/49/5
f 4/57/5 31/56/5 23/55/5
f 31/56/5 4/57/5 1/58/5
f 31/56/5 1/58/5 30/54/5
f 30/54/5 1/58/5 22/59/5
f 27/51/5 22/59/5 23/55/5
f 22/59/5 29/53/5 30/54/5
f 22/59/5 27/51/5 32/60/5
f 22/59/5 32/60/5 29/53/5
f 23/61/8 2/62/8 4/63/8
f 2/62/8 23/61/8 24/64/8
f 13/65/1 26/66/1 29/67/1
f 26/66/1 13/65/1 33/68/11
f 33/68/11 13/65/1 34/69/1
f 34/69/1 13/65/1 35/70/11
f 35/70/11 13/65/1 36/71/1
f 36/71/1 13/65/1 37/72/1
f 37/72/1 13/65/1 38/73/1
f 38/73/1 13/65/1 39/74/1
f 39/74/1 13/65/1 40/75/1
f 40/75/1 13/65/1 41/76/1
f 41/76/1 13/65/1 42/77/1
f 42/77/1 13/65/1 43/78/1
f 43/78/1 13/65/1 44/79/1
f 44/79/1 13/65/1 10/80/1
f 27/81/7 17/82/7 32/83/7
f 17/82/7 27/81/7 45/84/7
f 17/82/7 45/84/7 46/85/7
f 17/82/7 46/85/7 47/86/12
f 17/82/7 47/86/12 48/87/7
f 17/82/7 48/87/7 49/88/7
f 17/82/7 49/88/7 50/89/7
f 17/82/7 50/89/7 51/90/7
f 17/82/7 51/90/7 52/91/7
f 17/82/7 52/91/7 53/92/7
f 17/82/7 53/92/7 54/93/7
f 17/82/7 54/93/7 55/94/7
f 17/82/7 55/94/7 56/95/7
f 17/82/7 56/95/7 12/96/7
f 43/97/13 54/98/13 42/99/13
f 54/98/13 43/97/13 55/100/13
f 32/101/14 13/102/14 29/103/14
f 13/102/14 32/101/14 17/104/14
f 57/105/13 58/106/13 59/107/13
f 58/106/13 57/105/13 60/108/13
f 25/109/7 11/110/7 28/111/7
f 11/110/7 25/109/7 61/112/7
f 11/110/7 61/112/7 58/113/7
f 11/110/7 58/113/7 60/114/7
f 11/110/7 60/114/7 62/115/7
f 11/110/7 62/115/7 63/116/7
f 11/110/7 63/116/7 64/117/7
f 11/110/7 64/117/7 65/118/7
f 11/110/7 65/118/7 66/119/7
f 11/110/7 66/119/7 67/120/7
f 11/110/7 67/120/7 68/121/7
f 11/110/7 68/121/7 69/122/7
f 11/110/7 69/122/7 70/123/7
f 11/110/7 70/123/7 9/124/7
f 14/125/1 31/126/1 30/127/1
f 31/126/1 14/125/1 71/128/1
f 71/128/1 14/125/1 59/129/1
f 59/129/1 14/125/1 57/130/1
f 57/130/1 14/125/1 72/131/1
f 72/131/1 14/125/1 73/132/1
f 73/132/1 14/125/1 74/133/1
f 74/133/1 14/125/1 75/134/1
f 75/134/1 14/125/1 76/135/1
f 76/135/1 14/125/1 77/136/1
f 77/136/1 14/125/1 78/137/1
f 78/137/1 14/125/1 18/138/1
f 28/139/14 14/140/14 30/141/14
f 14/140/14 28/139/14 11/142/14
f 33/143/13 27/144/13 26/145/13
f 27/144/13 33/143/13 45/146/13
f 71/147/13 25/148/13 31/149/13
f 25/148/13 71/147/13 61/150/13
f 37/151/13 48/152/13 36/153/13
f 48/152/13 37/151/13 49/154/13
f 41/155/13 52/156/13 40/157/13
f 52/156/13 41/155/13 53/158/13
f 75/159/13 64/160/13 74/161/13
f 64/160/13 75/159/13 65/162/13
f 39/163/13 50/164/13 38/165/13
f 50/164/13 39/163/13 51/166/13
f 18/167/13 70/168/13 78/169/13
f 70/168/13 18/167/13 9/170/13
f 10/171/13 56/172/13 44/173/13
f 56/172/13 10/171/13 12/174/13
f 77/175/13 79/176/13 80/177/13
f 79/176/13 77/175/13 69/178/13
f 79/176/13 69/178/13 68/179/13
f 80/177/13 76/180/13 77/175/13
f 76/180/13 80/177/13 66/181/13
f 66/181/13 80/177/13 67/182/13
f 73/183/13 81/184/13 72/185/13
f 81/184/13 73/183/13 63/186/13
f 81/184/13 63/186/13 62/187/13
f 35/188/13 46/189/13 34/190/13
f 46/189/13 35/188/13 47/191/13
usemtl woodDark
f 82/192/15 83/193/15 84/194/15
f 83/193/15 82/192/15 58/195/16
f 58/195/16 82/192/15 85/196/16
f 83/193/15 58/195/16 46/197/17
f 58/195/16 85/196/16 59/198/13
f 34/199/18 46/197/17 58/195/16
f 86/200/7 83/201/7 87/202/7
f 83/201/7 86/200/7 84/203/7
f 85/204/1 88/205/1 89/206/1
f 88/205/1 85/204/1 82/207/1
f 33/208/18 61/209/19 45/210/20
f 61/209/19 87/211/21 45/210/20
f 88/212/21 87/211/21 61/209/19
f 87/211/21 88/212/21 86/213/21
f 88/212/21 61/209/19 89/214/19
f 89/214/19 61/209/19 71/215/14
f 71/216/14 85/217/14 89/218/14
f 85/217/14 71/216/14 59/219/14
f 84/220/13 88/221/13 82/222/13
f 88/221/13 84/220/13 86/223/13
f 87/224/14 46/225/14 45/226/14
f 46/225/14 87/224/14 83/227/14
f 33/228/14 58/229/14 61/230/14
f 58/229/14 33/228/14 34/231/14
f 90/232/13 91/233/13 92/234/13
f 91/233/13 90/232/13 93/235/13
f 92/236/15 94/237/15 90/238/15
f 94/237/15 92/236/15 64/239/15
f 64/239/15 92/236/15 95/240/15
f 94/237/15 64/239/15 50/241/22
f 50/241/22 64/239/15 38/242/23
f 64/239/15 95/240/15 74/243/24
f 93/244/7 94/245/7 96/246/7
f 94/245/7 93/244/7 90/247/7
f 96/248/21 91/249/21 93/250/21
f 91/249/21 96/248/21 97/251/21
f 97/251/21 96/248/21 49/252/25
f 97/251/21 49/252/25 37/253/26
f 97/251/21 37/253/26 63/254/27
f 73/255/28 97/251/21 63/254/27
f 95/256/1 91/257/1 97/258/1
f 91/257/1 95/256/1 92/259/1
f 73/260/14 95/261/14 97/262/14
f 95/261/14 73/260/14 74/263/14
f 96/264/14 50/265/14 49/266/14
f 50/265/14 96/264/14 94/267/14
f 37/268/14 64/269/14 63/270/14
f 64/269/14 37/268/14 38/271/14
f 98/272/29 99/273/30 100/274/29
f 99/273/30 98/272/29 68/275/29
f 68/275/29 98/272/29 79/276/29
f 99/273/30 68/275/29 54/277/31
f 54/277/31 68/275/29 42/278/32
f 101/279/33 99/280/33 102/281/33
f 99/280/33 101/279/33 100/282/33
f 79/283/34 103/284/34 80/285/34
f 103/284/34 79/283/34 98/286/34
f 102/287/35 103/288/35 101/289/35
f 103/288/35 102/287/35 80/290/35
f 80/290/35 102/287/35 53/291/36
f 80/290/35 53/291/36 41/292/37
f 80/290/35 41/292/37 67/293/38
f 98/294/13 101/295/13 103/296/13
f 101/295/13 98/294/13 100/297/13
f 102/298/14 54/299/14 53/300/14
f 54/299/14 102/298/14 99/301/14
f 41/302/14 68/303/14 67/304/14
f 68/303/14 41/302/14 42/305/14
f 104/306/14 76/307/14 105/308/14
f 76/307/14 104/306/14 75/309/14
f 106/310/13 107/311/13 108/312/13
f 107/311/13 106/310/13 109/313/13
f 105/314/39 107/315/39 104/316/39
f 107/315/39 105/314/39 108/317/39
f 108/318/40 110/319/40 106/320/40
f 110/319/40 108/318/40 66/321/41
f 66/321/41 108/318/40 105/322/40
f 110/319/40 66/321/41 52/323/42
f 52/323/42 66/321/41 40/324/43
f 66/321/41 105/322/40 76/325/44
f 109/326/45 110/327/45 111/328/45
f 110/327/45 109/326/45 106/329/45
f 111/330/46 107/331/46 109/332/46
f 107/331/46 111/330/46 104/333/47
f 104/333/47 111/330/46 51/334/48
f 104/333/47 51/334/48 39/335/49
f 104/333/47 39/335/49 65/336/50
f 104/333/47 65/336/50 75/337/51
f 39/338/14 66/339/14 65/340/14
f 66/339/14 39/338/14 40/341/14
f 111/342/14 52/343/14 51/344/14
f 52/343/14 111/342/14 110/345/14
f 112/346/52 113/347/52 114/348/52
f 113/347/52 112/346/52 115/349/52
f 116/350/53 117/351/53 118/352/53
f 117/351/53 116/350/53 119/353/53
f 115/354/13 117/355/13 119/356/13
f 117/355/13 115/354/13 112/357/13
f 114/358/54 117/359/54 112/360/54
f 117/359/54 114/358/54 118/361/54
f 118/361/54 114/358/54 55/362/55
f 118/361/54 55/362/55 43/363/56
f 118/361/54 43/363/56 69/364/57
f 118/361/54 69/364/57 77/365/58
f 118/366/14 78/367/14 116/368/14
f 78/367/14 118/366/14 77/369/14
f 119/370/59 113/371/59 115/372/59
f 113/371/59 119/370/59 70/373/59
f 70/373/59 119/370/59 116/374/59
f 113/371/59 70/373/59 56/375/60
f 56/375/60 70/373/59 44/376/61
f 70/373/59 116/374/59 78/377/62
f 114/378/14 56/379/14 55/380/14
f 56/379/14 114/378/14 113/381/14
f 43/382/14 70/383/14 69/384/14
f 70/383/14 43/382/14 44/385/14
f 72/386/14 120/387/14 57/388/14
f 121/389/13 122/390/13 123/391/13
f 122/390/13 121/389/13 124/392/13
f 72/393/63 123/394/63 120/395/63
f 123/394/63 72/393/63 121/396/63
f 121/396/63 72/393/63 81/397/63
f 125/398/64 123/399/64 122/400/64
f 123/399/64 125/398/64 120/401/64
f 120/401/64 125/398/64 47/402/65
f 120/401/64 47/402/65 35/403/66
f 120/401/64 35/403/66 60/404/67
f 57/405/68 120/401/64 60/404/67
f 122/406/69 126/407/69 125/408/69
f 126/407/69 122/406/69 124/409/69
f 121/410/70 126/411/71 124/412/70
f 126/411/71 121/410/70 62/413/72
f 62/413/72 121/410/70 81/414/70
f 126/411/71 62/413/72 48/415/70
f 48/415/70 62/413/72 36/416/73
f 125/417/14 48/418/14 47/419/14
f 48/418/14 125/417/14 126/420/14
f 35/421/14 62/422/14 60/423/14
f 62/422/14 35/421/14 36/424/14
